<?xml version="1.0" standalone="no"?>
<!DOCTYPE svg PUBLIC "-//W3C//DTD SVG 1.1//EN" "http://www.w3.org/Graphics/SVG/1.1/DTD/svg11.dtd" >
<svg xmlns="http://www.w3.org/2000/svg" xmlns:xlink="http://www.w3.org/1999/xlink" version="1.1">
<metadata>
Created by FontForge 20190801 at Wed Feb 19 10:36:48 2014
 By www-data
Copyright (c) 2011 by Radim Pesko. All rights reserved.
</metadata>
<defs>
<font id="AgipoMono" horiz-adv-x="600" >
  <font-face 
    font-family="AgipoMono"
    font-weight="800"
    font-stretch="normal"
    units-per-em="1000"
    panose-1="2 0 5 3 4 0 0 2 0 3"
    ascent="722"
    descent="-278"
    x-height="502"
    cap-height="722"
    bbox="0 -247 600 1117"
    underline-thickness="50"
    underline-position="-100"
    unicode-range="U+000D-FB02"
  />
<missing-glyph 
 />
    <glyph glyph-name="f_f" unicode="ff" 
d="M446 562v-114h99v-55h-99v-393h-60v393h-189v-393h-60v393h-82v55h82v111q0 72 42 117.5t118 45.5q69 0 121 -50q40 53 127 50v-61q-52 8 -75.5 -20t-23.5 -79zM197 561v-113h189v111q0 33 5 53q-29 55 -94 55q-100 0 -100 -106z" />
    <glyph glyph-name="f_i" unicode="fi" 
d="M418 393h-189v-393h-60v393h-114v55h114v111q0 74 39 118.5t121 44.5q57 0 121 -22v-62q-59 31 -122 31q-53 0 -76 -27.5t-23 -80.5v-113h248v-448h-59v393z" />
    <glyph glyph-name="f_l" unicode="fl" 
d="M229 561v-113h126v-55h-126v-393h-60v393h-114v55h114v111q0 74 39 118.5t121 44.5q57 0 148 -28v-694h-59v519l5 131q-52 19 -95 19q-53 0 -76 -27.5t-23 -80.5z" />
    <glyph glyph-name=".notdef" 
 />
    <glyph glyph-name=".null" horiz-adv-x="0" 
 />
    <glyph glyph-name=".null" horiz-adv-x="0" 
 />
    <glyph glyph-name="nonmarkingreturn" horiz-adv-x="333" 
 />
    <glyph glyph-name="CR" unicode="&#xd;" horiz-adv-x="0" 
 />
    <glyph glyph-name="space" unicode=" " 
 />
    <glyph glyph-name="exclam" unicode="!" 
d="M338 722l-14 -539h-49l-13 539h76zM300 133q-28 0 -47.5 -18.5t-19.5 -47.5t19.5 -48t47.5 -19q27 0 46.5 19t19.5 48t-19 47.5t-47 18.5z" />
    <glyph glyph-name="quotedbl" unicode="&#x22;" 
d="M167 722h96l-24 -258h-42zM337 722h96l-30 -258h-42z" />
    <glyph glyph-name="numbersign" unicode="#" 
d="M311 0l31 219h-124l-31 -219h-55l31 219h-73v55h81l21 144h-71v55h79l31 219h55l-31 -219h124l31 219h55l-31 -219h76v-55h-84l-21 -144h79v-55h-87l-31 -219h-55zM247 418l-21 -144h124l21 144h-124z" />
    <glyph glyph-name="dollar" unicode="$" 
d="M96 199h69q1 -47 25.5 -87.5t80.5 -50.5v290q-165 65 -165 195q0 66 46 116.5t119 60.5v71h58v-71q66 -8 109.5 -53t55.5 -114h-68q-13 94 -97 111v-275q175 -67 175 -206q0 -75 -47.5 -126.5t-127.5 -59.5v-68h-58v69q-73 9 -121 61t-54 137zM439 181q0 98 -110 147
v-269q53 7 81.5 40t28.5 82zM170 549q0 -87 101 -134v252q-46 -8 -73.5 -41t-27.5 -77z" />
    <glyph glyph-name="percent" unicode="%" 
d="M141 0h-56l371 692h56zM175 700q57 0 88 -47.5t31 -113.5q0 -68 -32 -113.5t-87 -45.5t-87.5 45.5t-32.5 113.5q0 65 32.5 113t87.5 48zM175 427q32 0 47.5 31t15.5 80q0 117 -63 117q-33 0 -48 -33.5t-15 -83.5q0 -49 15.5 -80t47.5 -31zM426 313q57 0 88 -47.5
t31 -113.5q0 -68 -32 -113.5t-87 -45.5t-87.5 45.5t-32.5 113.5q0 65 32.5 113t87.5 48zM426 40q32 0 47.5 31t15.5 80q0 117 -63 117q-33 0 -48 -33.5t-15 -83.5q0 -49 15.5 -80t47.5 -31z" />
    <glyph glyph-name="ampersand" unicode="&#x26;" 
d="M252 -17q-90 0 -136.5 59.5t-46.5 147.5q0 70 31.5 129t87.5 91q-24 32 -36.5 51t-28.5 55.5t-16 65.5q0 64 43.5 109.5t120.5 45.5q74 0 114 -45t49 -118h-67q-8 111 -99 111q-44 0 -71.5 -27t-27.5 -74q0 -22 11.5 -49.5t23.5 -46.5t36 -53l166 -239q16 68 11.5 139.5
t-27.5 118.5h71q18 -71 14 -157.5t-30 -156.5l98 -140h-73l-55 79q-60 -96 -163 -96zM256 38q80 0 126 90l-161 234q-89 -50 -89 -172q0 -68 32 -110t92 -42z" />
    <glyph glyph-name="quotesingle" unicode="'" 
d="M250 722h98l-27 -258h-44z" />
    <glyph glyph-name="parenleft" unicode="(" 
d="M220 318q0 107 40.5 219.5t103.5 204.5h58q-132 -213 -132 -424q0 -220 132 -424h-58q-63 91 -103.5 204t-40.5 220z" />
    <glyph glyph-name="parenright" unicode=")" 
d="M380 318q0 -107 -40.5 -220t-103.5 -204h-58q132 204 132 424q0 211 -132 424h58q63 -92 103.5 -204.5t40.5 -219.5z" />
    <glyph glyph-name="asterisk" unicode="*" 
d="M436 363l-65 -37l-71 173l-71 -173l-65 37l116 149l-187 -25v74l186 -25l-115 149l65 37l71 -175l71 175l65 -37l-115 -149l186 25v-74l-187 25z" />
    <glyph glyph-name="plus" unicode="+" 
d="M75 359h196v196h58v-196h196v-58h-196v-196h-58v196h-196v58z" />
    <glyph glyph-name="comma" unicode="," 
d="M287 18q-26 4 -44 22.5t-18 45.5q0 30 20.5 50t49.5 20t49.5 -19.5t20.5 -50.5q0 -20 -6 -44q-19 -73 -98 -144h-78q82 54 111 102q9 15 -7 18z" />
    <glyph glyph-name="hyphen" unicode="-" 
d="M150 241v60h300v-60h-300z" />
    <glyph glyph-name="period" unicode="." 
d="M300 140q29 0 49.5 -20t20.5 -50t-20.5 -50t-49.5 -20t-49.5 20t-20.5 50t20.5 50t49.5 20z" />
    <glyph glyph-name="slash" unicode="/" 
d="M140 -97l259 819h61l-260 -819h-60z" />
    <glyph glyph-name="zero" unicode="0" 
d="M300 47q137 0 137 312q0 58 -6 108.5t-20 99.5t-42 77.5t-68 28.5t-69 -28.5t-43 -77.5t-20 -99.5t-6 -108.5q0 -312 137 -312zM300 -12q-58 0 -99.5 34.5t-62.5 92.5t-30.5 117.5t-9.5 124.5q0 51 8 106.5t27.5 120t63 106t104.5 41.5q52 0 91 -29t59 -70t32.5 -97
t15.5 -96t3 -82q0 -64 -9.5 -124t-31 -118t-63 -92.5t-98.5 -34.5z" />
    <glyph glyph-name="one" unicode="1" 
d="M110 60h171v593h-8q-28 -85 -163 -335v130q107 190 140 275h94v-663h161v-60h-395v60z" />
    <glyph glyph-name="two" unicode="2" 
d="M493 0h-387q-3 29 -3 60q0 160 148 259q46 31 106 78q74 59 74 148q0 56 -32.5 92.5t-91.5 36.5q-68 0 -98 -42t-27 -104h-73q-3 88 53 146.5t146 58.5q85 0 138 -53.5t53 -134.5q0 -118 -105 -199q-41 -31 -113 -78q-55 -35 -87.5 -83t-27.5 -125h327v-60z" />
    <glyph glyph-name="three" unicode="3" 
d="M82 188h71q3 -64 39 -102t96 -38t97 37.5t37 95.5q0 78 -50.5 119t-122.5 44l-54 2v55l43 2q71 2 124.5 38.5t53.5 110.5q0 59 -35.5 90.5t-86.5 31.5t-87 -29.5t-40 -86.5h-70q8 61 43 102t73.5 56t77.5 15q92 0 142.5 -50.5t50.5 -125.5q0 -123 -130 -175v-8
q68 -23 102.5 -75t34.5 -115q0 -80 -55 -136.5t-150 -56.5q-85 0 -142 53.5t-62 145.5z" />
    <glyph glyph-name="four" unicode="4" 
d="M363 0v169h-287v79q125 223 253 475h99v-497h84v-57h-84v-169h-65zM134 225h230v431h-8q-48 -95 -103.5 -201t-86.5 -164l-32 -58v-8z" />
    <glyph glyph-name="five" unicode="5" 
d="M105 170h72q2 -57 36.5 -91t85.5 -34q69 0 101.5 57t32.5 136q0 87 -31 138.5t-89 51.5q-83 0 -126 -94h-67l7 388h350v-60h-289l-13 -256h8q59 82 142 82q58 0 99.5 -37.5t59 -91t17.5 -115.5q0 -114 -54 -186.5t-153 -72.5q-77 0 -129.5 51.5t-59.5 133.5z" />
    <glyph glyph-name="six" unicode="6" 
d="M499 573h-71q-9 101 -99 101q-74 0 -123 -87t-53 -240h8q65 114 166 114q73 0 127.5 -66t54.5 -171q0 -101 -56 -169.5t-140 -68.5q-102 0 -160 100t-58 245q0 64 11.5 129t37 128.5t74.5 103.5t115 40q82 0 121.5 -48t44.5 -111zM315 46q56 0 90 48.5t34 126.5
q0 83 -32 131.5t-91 49.5q-56 1 -96.5 -49.5t-40.5 -108.5q1 -84 36 -141t100 -57z" />
    <glyph glyph-name="seven" unicode="7" 
d="M100 528v194h400v-57q-61 -134 -126 -300.5t-100 -265.5l-34 -99h-71q128 376 265 662h-273l1 -134h-62z" />
    <glyph glyph-name="eight" unicode="8" 
d="M300 679q-57 0 -93 -37t-36 -98q0 -59 34 -99t95 -40t95 40t34 99q0 61 -36 98t-93 37zM300 345q-65 0 -102.5 -44.5t-37.5 -110.5q0 -60 37 -101.5t103 -41.5t103 41.5t37 101.5q0 66 -37.5 110.5t-102.5 44.5zM300 -13q-93 0 -151.5 59t-58.5 141q0 60 31 110t92 73v8
q-52 22 -80.5 66.5t-28.5 100.5q0 77 53.5 133t142.5 56q94 0 145 -55.5t51 -133.5q0 -56 -28.5 -100.5t-80.5 -66.5v-8q61 -23 92 -73t31 -110q0 -82 -58.5 -141t-151.5 -59z" />
    <glyph glyph-name="nine" unicode="9" 
d="M101 145h71q9 -101 99 -101q74 0 122.5 87.5t52.5 239.5h-8q-62 -114 -168 -114q-73 0 -126 65.5t-53 171.5q0 101 56 169.5t140 68.5q102 0 160 -100t58 -245q0 -64 -11.5 -129t-37 -128.5t-74.5 -103.5t-115 -40q-82 0 -121.5 48t-44.5 111zM284 673q-56 0 -90 -48.5
t-34 -126.5q0 -83 32 -131t91 -49q56 -1 96.5 49.5t40.5 108.5q-1 84 -36 140.5t-100 56.5z" />
    <glyph glyph-name="colon" unicode=":" 
d="M300 140q29 0 49.5 -20t20.5 -50t-20.5 -50t-49.5 -20t-49.5 20t-20.5 50t20.5 50t49.5 20zM300 502q29 0 49.5 -20t20.5 -50t-20.5 -50t-49.5 -20t-49.5 20t-20.5 50t20.5 50t49.5 20z" />
    <glyph glyph-name="semicolon" unicode=";" 
d="M295 502q29 0 49.5 -20t20.5 -50t-20.5 -50t-49.5 -20t-49.5 20t-20.5 50t20.5 50t49.5 20zM287 18q-26 4 -44 22.5t-18 45.5q0 30 20.5 50t49.5 20t49.5 -19.5t20.5 -50.5q0 -20 -6 -44q-19 -73 -98 -144h-78q82 54 111 102q9 15 -7 18z" />
    <glyph glyph-name="less" unicode="&#x3c;" 
d="M525 89l-450 208v65l450 209v-66l-391 -176l391 -174v-66z" />
    <glyph glyph-name="equal" unicode="=" 
d="M525 203h-450v58h450v-58zM525 399h-450v58h450v-58z" />
    <glyph glyph-name="greater" unicode="&#x3e;" 
d="M525 297l-450 -208v66l391 174l-391 176v66l450 -209v-65z" />
    <glyph glyph-name="question" unicode="?" 
d="M185 545h-65q6 94 58.5 142t125.5 48q79 0 127.5 -48.5t48.5 -128.5q0 -58 -31 -103.5t-89 -92.5q-25 -21 -37 -44t-12.5 -46t0.5 -51l3 -38h-57q-3 15 -4 38q-3 64 12.5 104.5t58.5 77.5q45 38 68.5 72.5t23.5 81.5q0 61 -31.5 92.5t-81.5 31.5q-53 0 -85.5 -33
t-32.5 -103zM289 133q-28 0 -47.5 -18.5t-19.5 -47.5t19.5 -48t47.5 -19q27 0 46.5 19t19.5 48t-19 47.5t-47 18.5z" />
    <glyph glyph-name="at" unicode="@" 
d="M482 399v-193q0 -94 19 -142h-65l-2 75h-8q-20 -30 -33.5 -46.5t-36.5 -30t-51 -13.5q-49 0 -78 43.5t-29 107.5q0 69 36 112.5t96 43.5q33 0 95 -20v63q0 123 -108 123q-81 0 -124 -89.5t-43 -235.5q0 -147 40 -232t122 -85q55 0 90 31t60 89l43 -42q-37 -64 -82 -98
t-111 -34q-106 0 -161.5 99.5t-55.5 270.5q0 172 59 274.5t165 102.5q77 0 120 -46t43 -128zM425 211v79q-54 18 -87 17q-83 -3 -83 -106q0 -98 64 -98q9 0 17.5 2t16 7l13.5 9t13 13.5t11 13.5t10.5 16.5t8.5 15.5t8.5 16.5t7.5 14.5z" />
    <glyph glyph-name="A" unicode="A" 
d="M189 255h218l-107 405h-8zM173 195l-49 -195h-64l191 722h88l201 -722h-67l-51 195h-249z" />
    <glyph glyph-name="B" unicode="B" 
d="M120 0v722h143q94 0 157.5 -53t63.5 -136q0 -64 -36.5 -103.5t-79.5 -56.5v-8q43 -9 90 -55t47 -116q0 -85 -64.5 -139.5t-166.5 -54.5h-154zM185 336v-278l96 1q72 1 113.5 37.5t41.5 99.5q0 64 -46 101t-111 38zM185 664v-270l82 1q61 1 104.5 33.5t43.5 99.5
q0 63 -43 98.5t-104 36.5z" />
    <glyph glyph-name="C" unicode="C" 
d="M512 528h-69q-4 73 -27 111.5t-77 38.5q-62 0 -103 -46t-57 -114.5t-16 -156.5q0 -58 9 -110t28 -100t54.5 -76.5t84.5 -28.5q102 0 111 154h70q-11 -100 -56.5 -157.5t-124.5 -57.5q-67 0 -117 36t-76 94.5t-38.5 120t-12.5 125.5q0 69 13.5 133t41 120t76.5 89.5
t113 33.5q78 0 121 -55.5t52 -153.5z" />
    <glyph glyph-name="D" unicode="D" 
d="M110 0v722h140q134 0 200 -95.5t66 -269.5q0 -61 -8.5 -112.5t-28 -97.5t-50.5 -78t-78 -50.5t-108 -18.5h-133zM175 664v-606l73 1q59 1 100 23.5t63 64.5t31 92.5t9 117.5q0 303 -194 306z" />
    <glyph glyph-name="E" unicode="E" 
d="M145 0v722h352v-60h-287v-264h273v-60h-273v-278h298v-60h-363z" />
    <glyph glyph-name="F" unicode="F" 
d="M160 0v722h370v-60h-305v-276h288v-60h-288v-326h-65z" />
    <glyph glyph-name="G" unicode="G" 
d="M450 279l-201 -21v70h265q-5 -339 -202 -339q-53 0 -93.5 24t-64 61.5t-38.5 88.5t-20.5 99t-5.5 99q0 69 13.5 132.5t40.5 119t76 88.5t113 33q154 0 174 -196h-70q-4 68 -28 103t-79 35q-90 0 -132 -88.5t-42 -226.5q0 -316 156 -316q69 0 104.5 62t33.5 172z" />
    <glyph glyph-name="H" unicode="H" 
d="M105 722h65v-326h260v326h65v-722h-65v336h-260v-336h-65v722z" />
    <glyph glyph-name="I" unicode="I" 
d="M268 663l-118 -1v60h300v-60l-117 1v-604l117 1v-60h-300v60l118 -1v604z" />
    <glyph glyph-name="J" unicode="J" 
d="M398 662h-137v60h201v-526q0 -102 -52.5 -156t-139.5 -54q-86 0 -132.5 54.5t-46.5 146.5v100h64v-100q0 -142 117 -142q61 0 93.5 38.5t32.5 112.5v466z" />
    <glyph glyph-name="K" unicode="K" 
d="M140 0v722h64v-343h8l234 343h77l-248 -353l280 -369h-81l-262 352h-8v-352h-64z" />
    <glyph glyph-name="L" unicode="L" 
d="M170 0v722h65v-663l305 1v-60h-370z" />
    <glyph glyph-name="M" unicode="M" 
d="M80 0l31 722h94l91 -510h8l85 510h92l39 -722h-60l-26 639h-8l-95 -540h-63l-100 540h-8l-20 -639h-60z" />
    <glyph glyph-name="N" unicode="N" 
d="M100 0v722h86l247 -609h8v609h59v-722h-85l-248 615h-8v-615h-59z" />
    <glyph glyph-name="O" unicode="O" 
d="M300 -15q-106 0 -161.5 103t-55.5 278q0 163 56 267t161 104t161 -104t56 -267q0 -175 -55.5 -278t-161.5 -103zM300 677q-77 0 -113.5 -86t-36.5 -227q0 -147 36.5 -233t113.5 -86t113.5 86t36.5 233q0 141 -36.5 227t-113.5 86z" />
    <glyph glyph-name="P" unicode="P" 
d="M145 0v722h134q102 0 169 -56t67 -153q0 -102 -70 -157.5t-176 -55.5h-59v-300h-65zM210 663v-303l63 1q81 1 127.5 38.5t46.5 112.5q0 73 -46.5 111t-115.5 39z" />
    <glyph glyph-name="Q" unicode="Q" 
d="M300 -14q-111 0 -165.5 101t-54.5 279q0 168 55 269t165 101t164.5 -101.5t54.5 -268.5q0 -161 -45 -258q43 -47 106 -60l-38 -48q-52 8 -98 57q-54 -71 -144 -71zM300 678q-154 0 -154 -314q0 -73 7.5 -129t25 -100.5t48 -67.5t73.5 -23q68 0 105 59q-58 71 -146 76
l48 45q71 -2 124 -62q23 73 23 202q0 314 -154 314z" />
    <glyph glyph-name="R" unicode="R" 
d="M120 0v722h152q98 0 163 -52.5t65 -139.5q0 -76 -51.5 -129t-151.5 -65l243 -336h-82l-230 329h-43v-329h-65zM185 663v-274l84 2q76 2 119.5 38t43.5 98q0 65 -43 99.5t-114 35.5z" />
    <glyph glyph-name="S" unicode="S" 
d="M90 192h70q0 -19 3.5 -37t13 -38.5t24.5 -35.5t41 -25t60 -10q68 0 103.5 35.5t35.5 93.5q0 57 -38 96.5t-114 66.5q-191 70 -191 210q0 81 54.5 134t141.5 53q85 0 135.5 -45t60.5 -132h-70q-12 119 -128 119q-58 0 -93 -35t-35 -93q0 -55 33.5 -89t114.5 -64
q197 -71 197 -215q0 -89 -57 -142t-153 -53q-88 0 -146.5 54.5t-62.5 151.5z" />
    <glyph glyph-name="T" unicode="T" 
d="M332 0h-64v663l-198 -1v60h460v-60l-198 1v-663z" />
    <glyph glyph-name="U" unicode="U" 
d="M95 722h67v-496q0 -181 138 -181q140 0 140 182v495h65v-489q0 -117 -53.5 -182.5t-151.5 -65.5q-101 0 -153 65.5t-52 180.5v491z" />
    <glyph glyph-name="V" unicode="V" 
d="M512 722l-165 -722h-82l-177 722h69l146 -644h8l136 644h65z" />
    <glyph glyph-name="W" unicode="W" 
d="M80 722h62l41 -630h8l74 536h73l70 -536h8l44 630h60l-67 -722h-82l-66 519h-8l-72 -519h-85z" />
    <glyph glyph-name="X" unicode="X" 
d="M302 422l132 300h73l-172 -358l177 -364h-78l-131 303h-8l-134 -303h-73l173 361l-170 361h76l127 -300h8z" />
    <glyph glyph-name="Y" unicode="Y" 
d="M335 290v-290h-65v290q0 14 -14 17l-176 415h72l147 -373h8l145 373h68l-172 -415q-13 -5 -13 -17z" />
    <glyph glyph-name="Z" unicode="Z" 
d="M85 0v60l363 602h-348v60h415v-61l-362 -601h356v-60h-424z" />
    <glyph glyph-name="bracketleft" unicode="[" 
d="M230 -96v818h225v-49h-164v-720h164v-49h-225z" />
    <glyph glyph-name="backslash" unicode="\" 
d="M201 722l258 -819h-60l-259 819h61z" />
    <glyph glyph-name="bracketright" unicode="]" 
d="M370 722v-818h-225v49h164v720h-164v49h225z" />
    <glyph glyph-name="asciicircum" unicode="^" 
d="M85 274l188 418h54l188 -418h-64l-151 355l-151 -355h-64z" />
    <glyph glyph-name="underscore" unicode="_" 
d="M55 -87v56h490v-56h-490z" />
    <glyph glyph-name="grave" unicode="`" 
d="M187 647l40 75l186 -123l-24 -42z" />
    <glyph glyph-name="a" unicode="a" 
d="M495 0h-76l-8 76h-8q-33 -44 -69.5 -67t-90.5 -23q-63 0 -101 40.5t-38 107.5q0 70 46 118t118 48q58 0 135 -21v68q0 116 -108 116q-52 0 -79 -27t-32 -67h-71q17 67 65 106.5t118 39.5q78 0 121.5 -43t43.5 -124v-206q0 -76 34 -142zM403 148v85q-67 17 -126 16
q-55 -1 -83 -31.5t-28 -81.5q0 -44 23.5 -70.5t67.5 -26.5q35 0 66.5 20t46.5 40t33 49z" />
    <glyph glyph-name="b" unicode="b" 
d="M174 722v-220l-3 -73h8q55 88 140 88q88 0 139.5 -75.5t51.5 -185.5q0 -113 -52 -192t-142 -79q-87 0 -140 94h-8l6 -79h-64q4 20 4 79v643h60zM447 256q0 94 -35.5 150t-100.5 56q-60 0 -96.5 -46.5t-40.5 -106.5v-118q6 -59 43 -105t92 -46q65 0 101.5 58t36.5 158z
" />
    <glyph glyph-name="c" unicode="c" 
d="M489 356h-66q-6 49 -26.5 77.5t-67.5 28.5q-69 0 -104 -60.5t-35 -151.5q0 -85 36.5 -147.5t103.5 -62.5q83 0 99 109h66q-15 -76 -53.5 -120t-114.5 -44q-89 0 -145.5 75.5t-56.5 188.5q0 119 58.5 193.5t146.5 74.5q137 0 159 -161z" />
    <glyph glyph-name="d" unicode="d" 
d="M426 502v220h60v-643q0 -59 4 -79h-64l6 79h-8q-53 -94 -140 -94q-90 0 -142 79t-52 192q0 110 51.5 185.5t139.5 75.5q85 0 140 -88h8q-3 38 -3 73zM153 256q0 -100 36.5 -158t101.5 -58q55 0 92 46t43 105v118q-4 60 -40.5 106.5t-96.5 46.5q-65 0 -100.5 -56
t-35.5 -150z" />
    <glyph glyph-name="e" unicode="e" 
d="M481 245h-300q0 -85 37.5 -144.5t103.5 -59.5q45 0 69.5 29t28.5 74h64q-26 -158 -165 -158q-94 0 -148 80t-54 190q0 107 55.5 182.5t143.5 75.5q50 0 86 -24t53.5 -64.5t23.5 -86t2 -94.5zM183 298l238 3q0 25 -3 49t-13 51t-33 43.5t-57 16.5q-57 0 -90 -45t-42 -118z
" />
    <glyph glyph-name="f" unicode="f" 
d="M299 560v-113h194v-55h-194v-392h-60v392h-119v55h119v112q0 74 39 118.5t121 44.5q57 0 121 -22v-64q-61 32 -122 32q-53 0 -76 -27.5t-23 -80.5z" />
    <glyph glyph-name="g" unicode="g" 
d="M424 428h8l10 74h69q-25 -64 -25 -147v-347q0 -93 -50 -146.5t-141 -53.5q-74 0 -120 43t-56 100h69q2 -39 29 -64.5t77 -25.5q65 0 98.5 36t33.5 103l5 97h-8q-52 -91 -141 -91q-91 0 -141.5 74t-50.5 186q0 108 53 179.5t142 71.5q83 0 139 -89zM153 266q0 -99 36 -152
t102 -53q55 0 92 44.5t43 103.5v102q-4 59 -40.5 105t-96.5 46q-66 0 -101 -51.5t-35 -144.5z" />
    <glyph glyph-name="h" unicode="h" 
d="M119 0v722h60v-220l-4 -95h8q26 43 68.5 76.5t93.5 33.5q70 0 106 -44t36 -128v-345h-60v344q0 63 -20.5 91.5t-69.5 28.5t-95 -50.5t-63 -114.5v-299h-60z" />
    <glyph glyph-name="i" unicode="i" 
d="M284 448l-154 -1v55h214v-502h-60v448zM253 662q0 27 17 43.5t43 16.5q27 0 44 -16.5t17 -43.5t-17 -43t-44 -16t-43.5 16t-16.5 43z" />
    <glyph glyph-name="j" unicode="j" 
d="M324 448l-154 -1v55h214v-518q0 -82 -44.5 -129.5t-119.5 -47.5q-64 0 -104.5 38.5t-45.5 105.5h63q1 -40 23.5 -65t65.5 -25q47 0 74.5 31.5t27.5 85.5v470zM291 662q0 27 17 43.5t43 16.5q27 0 44 -16.5t17 -43.5t-17 -43t-44 -16t-43.5 16t-16.5 43z" />
    <glyph glyph-name="k" unicode="k" 
d="M150 0v722h60v-442h8l180 223h78l-202 -236l215 -267h-77l-194 251h-8v-251h-60z" />
    <glyph glyph-name="l" unicode="l" 
d="M342 519v-519h-60v667h-166v55h218z" />
    <glyph glyph-name="m" unicode="m" 
d="M80 0v355q0 83 -19 147h64l7 -84h8q31 98 101 98q37 0 56 -26t25 -77h8q37 103 106 103q50 0 72 -38t22 -120v-358h-60v360q0 58 -11 80.5t-34 22.5q-56 0 -91 -138v-325h-58v364q0 99 -46 99q-55 0 -90 -138v-325h-60z" />
    <glyph glyph-name="n" unicode="n" 
d="M119 0v355q0 86 -19 147h67l6 -99h8q69 114 163 114q70 0 106.5 -44.5t36.5 -127.5v-345h-60v344q0 63 -20.5 91.5t-69.5 28.5t-95.5 -50t-62.5 -113v-301h-60z" />
    <glyph glyph-name="o" unicode="o" 
d="M300 -17q-95 0 -147.5 79.5t-52.5 188.5q0 62 19.5 119.5t66.5 101t114 43.5t114 -43.5t66.5 -101t19.5 -119.5q0 -109 -52.5 -188.5t-147.5 -79.5zM300 460q-63 0 -99.5 -55t-36.5 -154q0 -55 12 -100.5t43.5 -78.5t80.5 -33t80.5 33t43.5 78.5t12 100.5q0 99 -36.5 154
t-99.5 55z" />
    <glyph glyph-name="p" unicode="p" 
d="M176 78h-8q6 -39 6 -78v-193h-60v547q0 81 -18 148h66l6 -78h8q58 92 143 92q88 0 139.5 -75.5t51.5 -185.5q0 -115 -51.5 -193t-142.5 -78q-87 0 -140 94zM447 255q0 94 -35.5 150t-100.5 56q-60 0 -96.5 -46.5t-40.5 -106.5v-118q6 -59 43 -105t92 -46q65 0 101.5 58
t36.5 158z" />
    <glyph glyph-name="q" unicode="q" 
d="M432 78h-8q-53 -94 -140 -94q-90 0 -142 79t-52 192q0 109 54 185t142 76q92 0 139 -92h8l5 78h66q-18 -72 -18 -148v-547h-60v193zM153 255q0 -100 36.5 -158t101.5 -58q55 0 92 46t43 105v118q-4 60 -40.5 106.5t-96.5 46.5q-65 0 -100.5 -56t-35.5 -150z" />
    <glyph glyph-name="r" unicode="r" 
d="M204 0v344q0 88 -22 158h72l4 -114h8q56 128 165 128q33 0 59 -14v-61q-29 18 -61 18q-73 0 -114.5 -65.5t-50.5 -155.5v-238h-60z" />
    <glyph glyph-name="s" unicode="s" 
d="M124 139h66q-2 -36 28 -67.5t87 -31.5q49 0 78 23t29 62q0 42 -28 64.5t-94 43.5q-155 49 -155 145q0 61 44 99.5t117 38.5q67 0 113 -38t53 -105h-64q-1 39 -30 64.5t-74 25.5q-43 0 -70.5 -21t-27.5 -58q0 -36 27 -56.5t87 -39.5q34 -11 58 -21.5t51 -28t41.5 -44.5
t14.5 -61q0 -65 -47 -106.5t-124 -41.5q-73 0 -123.5 40t-56.5 114z" />
    <glyph glyph-name="t" unicode="t" 
d="M269 447v-293q0 -53 23 -80.5t76 -27.5q63 0 122 31v-64q-60 -23 -121 -23q-82 0 -121 45.5t-39 119.5v292h-119v55h119l13 169h47v-169h194v-55h-194z" />
    <glyph glyph-name="u" unicode="u" 
d="M481 502v-355q0 -90 19 -147h-69l-4 94h-8q-75 -109 -168 -109q-67 0 -102.5 45.5t-35.5 126.5v345h60v-344q0 -60 21.5 -89.5t68.5 -29.5q50 0 95 48t63 112v303h60z" />
    <glyph glyph-name="v" unicode="v" 
d="M263 0l-155 502h67l122 -432h8l123 432h64l-155 -502h-74z" />
    <glyph glyph-name="w" unicode="w" 
d="M383 0l-79 351h-8l-79 -351h-66l-71 502h60l44 -413h8l75 344h66l76 -344h8l43 413h60l-71 -502h-66z" />
    <glyph glyph-name="x" unicode="x" 
d="M471 502l-135 -243l146 -259h-69l-110 211h-8l-111 -211h-67l147 256l-135 246h67l100 -199h8l102 199h65z" />
    <glyph glyph-name="y" unicode="y" 
d="M492 502q-169 -569 -184 -613q-26 -78 -115 -78q-48 0 -77 13l6 57q38 -15 72 -15q46 0 61 41q14 36 28 93q4 17 -4.5 27.5t-27.5 7.5l-145 467h67l125 -435h8l121 435h65z" />
    <glyph glyph-name="z" unicode="z" 
d="M120 0v59l296 388h-288v55h352v-59l-298 -388h298v-55h-360z" />
    <glyph glyph-name="braceleft" unicode="{" 
d="M165 280v62q34 -1 57 6.5t33 19t13.5 28.5t2.5 32.5t-4 35.5q-1 8 -2 12l-8 57q-10 83 40.5 135t152.5 54v-52q-147 -5 -133 -137l7 -57q3 -39 3 -72t-25 -58.5t-78 -32.5v-4q53 -7 78 -32.5t25 -58.5t-3 -72l-7 -58q-14 -132 133 -137v-52q-103 2 -154 54t-39 135l8 58
q8 62 4 82q-13 53 -104 52z" />
    <glyph glyph-name="bar" unicode="|" 
d="M270 747h60v-922h-60v922z" />
    <glyph glyph-name="braceright" unicode="}" 
d="M435 342v-62q-34 1 -57 -6.5t-33 -19t-13.5 -28.5t-2.5 -32.5t4 -35.5q1 -8 2 -12l8 -58q12 -83 -39 -135t-154 -54v52q147 5 133 137l-7 58q-3 39 -3 72t25 58.5t78 32.5v4q-53 7 -78 32.5t-25 58.5t3 72l7 57q14 132 -133 137v52q102 -2 152.5 -54t40.5 -135l-8 -57
q-8 -62 -4 -82q13 -53 104 -52z" />
    <glyph glyph-name="asciitilde" unicode="~" 
d="M314 357q72 -35 96 -35q26 0 38 15t21 46h50q-23 -118 -111 -118q-45 0 -122 41q-70 37 -96 37t-38 -15t-21 -46h-50q21 118 111 118q17 0 35.5 -5t27 -8.5t32 -15.5t27.5 -14z" />
    <glyph glyph-name="nbspace" unicode="&#xa0;" 
 />
    <glyph glyph-name="exclamdown" unicode="&#xa1;" 
d="M324 319l14 -539h-76l13 539h49zM247 374v128h105v-128h-105z" />
    <glyph glyph-name="cent" unicode="&#xa2;" 
d="M479 351h-66q-6 49 -26.5 77.5t-67.5 28.5q-70 0 -104.5 -58t-34.5 -149q0 -84 36.5 -144.5t103.5 -60.5q83 0 99 109h66q-15 -76 -53.5 -120t-114.5 -44q-49 0 -91 25l-56 -134h-55l70 168q-70 76 -70 200q0 118 58 190.5t146 72.5q28 0 55 -10l50 124h56l-61 -147
q47 -40 60 -128z" />
    <glyph glyph-name="sterling" unicode="&#xa3;" 
d="M192 414v149q0 75 45 123t117 48t113 -44t47 -123h-66q0 51 -24 81.5t-70 30.5q-47 0 -72.5 -31t-25.5 -81v-153h136v-60h-136v-294h259v-60h-390v60h66v294h-66v60h67z" />
    <glyph glyph-name="currency" unicode="&#xa4;" 
d="M104 85l-42 42l61 60q-47 60 -47 136q0 77 47 135l-61 61l42 42l61 -62q60 47 136 47q75 0 134 -46l61 61l42 -42l-61 -60q47 -60 47 -136q0 -78 -47 -136l61 -60l-42 -42l-61 61q-57 -46 -134 -46q-76 0 -136 46zM465 323q0 71 -46.5 117.5t-117.5 46.5
q-72 0 -118 -46.5t-46 -117.5q0 -72 46 -118t118 -46q71 0 117.5 46t46.5 118z" />
    <glyph glyph-name="yen" unicode="&#xa5;" 
d="M104 333h149l-161 389h70l137 -362h5l137 362h67l-161 -389h150v-54h-163v-66h163v-54h-163v-159h-65v159h-165v54h165v66h-165v54z" />
    <glyph glyph-name="brokenbar" unicode="&#xa6;" 
d="M270 692h60v-350h-60v350zM270 -175v350h60v-350h-60z" />
    <glyph glyph-name="section" unicode="&#xa7;" 
d="M500 243q0 -68 -73 -119q67 -59 67 -135q0 -70 -53 -115t-134 -45q-129 0 -194 113l57 33q46 -91 137 -91q59 0 90 28.5t31 74.5q0 68 -69 114q-74 48 -125 75q-64 34 -99 73.5t-35 94.5q0 65 72 119q-65 57 -65 135q0 70 51.5 115t131.5 45q71 0 114 -29t75 -84l-57 -33
q-23 44 -53 67.5t-79 23.5q-59 0 -89 -28.5t-30 -74.5q0 -67 70 -114q74 -48 125 -75q65 -34 99.5 -73.5t34.5 -94.5zM334 359q-36 20 -124 76q-49 -38 -49 -78q0 -42 24 -70.5t80 -58.5q43 -24 125 -76q48 37 48 78q0 42 -24.5 70.5t-79.5 58.5z" />
    <glyph glyph-name="dieresis" unicode="&#xa8;" 
d="M390 579q-25 0 -40.5 16.5t-15.5 39.5q0 24 15.5 40.5t40.5 16.5t40.5 -16.5t15.5 -40.5q0 -23 -15.5 -39.5t-40.5 -16.5zM210 579q-25 0 -40.5 16.5t-15.5 39.5q0 24 15.5 40.5t40.5 16.5t40.5 -16.5t15.5 -40.5q0 -23 -15.5 -39.5t-40.5 -16.5z" />
    <glyph glyph-name="copyright" unicode="&#xa9;" 
d="M429 450h-53q-2 27 -6.5 44t-18.5 31.5t-36 14.5q-47 0 -71.5 -49.5t-24.5 -127.5q0 -71 25.5 -122t72.5 -51q58 0 66 92h53q-8 -65 -39 -102t-81 -37q-49 0 -84 37t-49.5 85t-14.5 97q0 56 14 104t49 83t85 35q96 0 113 -134zM301 0q-110 0 -170.5 101.5t-60.5 259.5
q0 159 59 260t171 101t171 -101t59 -260t-59.5 -260t-169.5 -101zM300 677q-91 0 -136.5 -84.5t-45.5 -231.5t45.5 -231.5t136.5 -84.5t136.5 84.5t45.5 231.5t-45.5 231.5t-136.5 84.5z" />
    <glyph glyph-name="ordfeminine" unicode="&#xaa;" 
d="M422 393h-48l-4 50h-5q-45 -60 -104 -60q-40 0 -66.5 28.5t-26.5 70.5q0 46 31 76.5t78 30.5q32 0 88 -15v43q0 74 -71 74q-34 0 -52 -17t-20 -43h-46q11 43 42 68.5t77 25.5q51 0 80 -27.5t29 -79.5v-133q0 -45 18 -92zM365 489v54q-45 12 -82 12q-73 -3 -73 -72
q0 -28 15.5 -46t44.5 -18q52 0 95 70z" />
    <glyph glyph-name="guillemotleft" unicode="&#xab;" 
d="M247 470h55l-111 -204l111 -204h-55l-132 204zM430 470h55l-111 -204l111 -204h-55l-132 204z" />
    <glyph glyph-name="logicalnot" unicode="&#xac;" 
d="M75 399v58h450v-254h-58v196h-392z" />
    <glyph glyph-name="uni00AD" unicode="&#xad;" 
d="M150 241v60h300v-60h-300z" />
    <glyph glyph-name="registered" unicode="&#xae;" 
d="M301 0q-110 0 -170.5 101.5t-60.5 259.5q0 159 59 260t171 101t171 -101t59 -260t-59.5 -260t-169.5 -101zM300 677q-91 0 -136.5 -84.5t-45.5 -231.5t45.5 -231.5t136.5 -84.5t136.5 84.5t45.5 231.5t-45.5 231.5t-136.5 84.5zM200 162v411h80q63 0 103 -31.5t40 -82.5
q0 -43 -29.5 -72t-78.5 -38l118 -187h-58l-107 179h-19v-179h-49zM249 529v-143l30 1q38 1 65 19t27 52q0 36 -27 52.5t-65 17.5z" />
    <glyph glyph-name="macron" unicode="&#xaf;" 
d="M160 600v65h280v-65h-280z" />
    <glyph glyph-name="degree" unicode="&#xb0;" 
d="M150 557q0 62 44 105.5t106 43.5t106 -43.5t44 -105.5t-44 -105.5t-106 -43.5t-106 43.5t-44 105.5zM405 557q0 46 -29.5 75.5t-75.5 29.5t-75.5 -29.5t-29.5 -75.5t29.5 -75.5t75.5 -29.5t75.5 29.5t29.5 75.5z" />
    <glyph glyph-name="plusminus" unicode="&#xb1;" 
d="M525 0h-450v58h450v-58zM75 399h196v196h58v-196h196v-58h-196v-196h-58v196h-196v58z" />
    <glyph glyph-name="two.sups" unicode="&#xb2;" 
d="M413 481h-240q-2 18 -2 38q0 52 24 86t68 63q41 27 62 44q44 35 44 85q0 32 -20 52t-51 20q-35 0 -54.5 -23t-19.5 -60h-55q1 52 38.5 89.5t91.5 37.5q52 0 87.5 -33t35.5 -82q0 -72 -71 -127q-28 -21 -67 -45q-71 -42 -65 -100h194v-45z" />
    <glyph glyph-name="three.sups" unicode="&#xb3;" 
d="M151 589h57q1 -38 22.5 -58t56.5 -20q34 0 55.5 20.5t21.5 53.5q0 81 -101 88l-28 2v42l21 1q45 2 76 21.5t31 60.5q0 34 -19.5 51.5t-51.5 17.5q-29 0 -50 -16t-24 -47h-54q8 53 45.5 79t80.5 26q57 0 90.5 -31t33.5 -77q0 -75 -82 -103v-5q87 -26 87 -110
q0 -48 -37 -82.5t-97 -34.5q-54 0 -92 33.5t-42 87.5z" />
    <glyph glyph-name="acute" unicode="&#xb4;" 
d="M373 722l40 -75l-202 -90l-24 42z" />
    <glyph glyph-name="uni00B5" unicode="&#xb5;" 
d="M176 12h-7q4 -53 4 -95v-110h-60v695h60v-344q0 -60 21.5 -89.5t68.5 -29.5q50 0 95 48t63 112v303h60v-355q0 -90 19 -147h-69l-4 94h-8q-75 -109 -168 -109q-47 0 -75 27z" />
    <glyph glyph-name="paragraph" unicode="&#xb6;" 
d="M182 -146v482q-76 -1 -129 55.5t-53 134.5q0 95 54.5 145.5t158.5 50.5h262v-60h-83v-808h-62v809h-86v-809h-62z" />
    <glyph glyph-name="periodcentered" unicode="&#xb7;" 
d="M300 421q29 0 49.5 -20t20.5 -50t-20.5 -50t-49.5 -20t-49.5 20t-20.5 50t20.5 50t49.5 20z" />
    <glyph glyph-name="cedilla" unicode="&#xb8;" 
d="M178 -189l22 45q35 -24 81 -24q26 0 42.5 11t16.5 30q0 34 -49 34q-25 0 -44 -8l-27 23l61 87h62l-64 -66l5 -6q26 8 49 8q30 0 50 -18.5t20 -48.5q0 -38 -31 -65t-87 -27q-66 0 -107 25z" />
    <glyph glyph-name="one.sups" unicode="&#xb9;" 
d="M184 525h98v326h-5q-27 -84 -93 -191v93q49 76 79 150h70v-378h93v-44h-242v44z" />
    <glyph glyph-name="ordmasculine" unicode="&#xba;" 
d="M300 379q-62 0 -96.5 52.5t-34.5 122.5q0 65 34 119t97 54t97 -54t34 -119q0 -70 -34.5 -122.5t-96.5 -52.5zM300 689q-41 0 -64 -35t-23 -100q0 -57 20.5 -97t66.5 -40t66.5 40t20.5 97q0 65 -23 100t-64 35z" />
    <glyph glyph-name="guillemotright" unicode="&#xbb;" 
d="M298 470h55l132 -204l-132 -204h-55l111 204zM115 470h55l132 -204l-132 -204h-55l111 204z" />
    <glyph glyph-name="onequarter" unicode="&#xbc;" 
d="M479 0v93h-168v55q69 112 147 273h71v-284h50v-44h-50v-93h-50zM356 136h123v234h-5q-28 -59 -57.5 -117.5t-44.5 -87.5zM508 722l-364 -722h-51l363 722h52zM17 345h74v322h-5q-33 -126 -69 -187v93q36 79 57 150h67v-378h70v-44h-194v44z" />
    <glyph glyph-name="onehalf" unicode="&#xbd;" 
d="M498 722l-364 -722h-51l363 722h52zM575 0h-240q-2 18 -2 38q0 53 23.5 86.5t68.5 62.5q41 27 62 44q44 35 44 85q0 33 -19.5 52.5t-49.5 19.5q-69 0 -66 -78h-55q1 53 34.5 87.5t87.5 34.5q51 0 86 -33t35 -82q0 -72 -71 -127q-28 -21 -67 -45q-71 -42 -65 -100h194v-45
zM17 345h74v322h-5q-33 -126 -69 -187v93q36 79 57 150h67v-378h70v-44h-194v44z" />
    <glyph glyph-name="threequarters" unicode="&#xbe;" 
d="M479 0v93h-168v55q69 112 147 273h71v-284h50v-44h-50v-93h-50zM356 136h123v234h-5q-28 -59 -57.5 -117.5t-44.5 -87.5zM543 722l-364 -722h-50l362 722h52zM17 409h57q1 -38 22.5 -58t56.5 -20q34 0 55.5 20.5t21.5 53.5q0 81 -101 88l-28 2v42l21 1q45 2 76 21.5
t31 60.5q0 34 -19.5 51.5t-51.5 17.5q-29 0 -50 -16t-24 -47h-54q8 53 45.5 79t80.5 26q57 0 90.5 -31t33.5 -77q0 -75 -82 -103v-5q87 -26 87 -110q0 -48 -37 -82.5t-97 -34.5q-54 0 -92 33.5t-42 87.5z" />
    <glyph glyph-name="questiondown" unicode="&#xbf;" 
d="M415 -43h65q-6 -94 -58.5 -142t-125.5 -48q-79 0 -127.5 48.5t-48.5 128.5q0 58 31 103.5t89 92.5q25 21 37 44t12.5 46t-0.5 51l-3 38h57q3 -15 4 -38q3 -64 -12.5 -104.5t-58.5 -77.5q-45 -38 -68.5 -72.5t-23.5 -81.5q0 -61 31.5 -92.5t81.5 -31.5q53 0 85.5 33
t32.5 103zM366 502v-128h-105v128h105z" />
    <glyph glyph-name="Agrave" unicode="&#xc0;" 
d="M189 255h218l-107 405h-8zM173 195l-49 -195h-64l191 722h88l201 -722h-67l-51 195h-249zM125 839l38 78l191 -112l-23 -46z" />
    <glyph glyph-name="Aacute" unicode="&#xc1;" 
d="M189 255h218l-107 405h-8zM173 195l-49 -195h-64l191 722h88l201 -722h-67l-51 195h-249zM426 917l38 -78l-206 -80l-23 46z" />
    <glyph glyph-name="Acircumflex" unicode="&#xc2;" 
d="M189 255h218l-107 405h-8zM173 195l-49 -195h-64l191 722h88l201 -722h-67l-51 195h-249zM300 922l143 -160h-60l-83 70h-8l-81 -70h-61l142 160h8z" />
    <glyph glyph-name="Atilde" unicode="&#xc3;" 
d="M189 255h218l-107 405h-8zM173 195l-49 -195h-64l191 722h88l201 -722h-67l-51 195h-249zM196 772h-44q-1 59 23 85.5t60 26.5q20 0 67 -19q50 -20 60 -20q36 0 41 45h44q1 -59 -23 -85.5t-60 -26.5q-20 0 -67 19q-5 2 -15 6.5t-16 7t-13.5 4.5t-14.5 2q-37 0 -42 -45z
" />
    <glyph glyph-name="Adieresis" unicode="&#xc4;" 
d="M189 255h218l-107 405h-8zM173 195l-49 -195h-64l191 722h88l201 -722h-67l-51 195h-249zM391 772q-26 0 -41.5 16.5t-15.5 40.5q0 25 15.5 41.5t41.5 16.5q25 0 41 -17t16 -41t-16 -40.5t-41 -16.5zM201 772q-25 0 -41 16.5t-16 40.5t16 41t41 17q26 0 41.5 -16.5
t15.5 -41.5q0 -24 -15.5 -40.5t-41.5 -16.5z" />
    <glyph glyph-name="Aring" unicode="&#xc5;" 
d="M189 255h218l-107 405h-8zM173 195l-49 -195h-64l191 722h88l201 -722h-67l-51 195h-249zM210 849q0 37 26 61.5t64 24.5t64 -24.5t26 -61.5t-26 -62t-64 -25t-64 25t-26 62zM254 849q0 -19 13.5 -32t32.5 -13t32.5 12.5t13.5 32.5q0 19 -14 32t-32 13q-19 0 -32.5 -12.5
t-13.5 -32.5z" />
    <glyph glyph-name="AE" unicode="&#xc6;" 
d="M329 163h-179l-36 -163h-64l167 722h315v-60h-209l36 -264h159v-60h-151l38 -278h140v-60h-195zM257 652l-94 -429h158l-56 429h-8z" />
    <glyph glyph-name="Ccedilla" unicode="&#xc7;" 
d="M196 -189l22 45q35 -24 81 -24q26 0 42.5 11t16.5 30q0 34 -49 34q-25 0 -44 -8l-27 23l48 70q-52 13 -91 52.5t-59.5 93.5t-30.5 110t-10 113q0 69 13.5 133t41 120t76.5 89.5t113 33.5q78 0 121 -55.5t52 -153.5h-69q-4 73 -27 111.5t-77 38.5q-62 0 -103 -46
t-57 -114.5t-16 -156.5q0 -58 9 -110t28 -100t54.5 -76.5t84.5 -28.5q102 0 111 154h70q-11 -100 -56.5 -157.5t-124.5 -57.5h-1l-41 -42l5 -6q26 8 49 8q30 0 50 -18.5t20 -48.5q0 -38 -31 -65t-87 -27q-66 0 -107 25z" />
    <glyph glyph-name="Egrave" unicode="&#xc8;" 
d="M145 0v722h352v-60h-287v-264h273v-60h-273v-278h298v-60h-363zM205 839l38 78l191 -112l-23 -46z" />
    <glyph glyph-name="Eacute" unicode="&#xc9;" 
d="M145 0v722h352v-60h-287v-264h273v-60h-273v-278h298v-60h-363zM426 917l38 -78l-206 -80l-23 46z" />
    <glyph glyph-name="Ecircumflex" unicode="&#xca;" 
d="M145 0v722h352v-60h-287v-264h273v-60h-273v-278h298v-60h-363zM336 922l143 -160h-60l-83 70h-8l-81 -70h-61l142 160h8z" />
    <glyph glyph-name="Edieresis" unicode="&#xcb;" 
d="M145 0v722h352v-60h-287v-264h273v-60h-273v-278h298v-60h-363zM420 772q-26 0 -41.5 16.5t-15.5 40.5q0 25 15.5 41.5t41.5 16.5q25 0 41 -17t16 -41t-16 -40.5t-41 -16.5zM230 772q-25 0 -41 16.5t-16 40.5t16 41t41 17q26 0 41.5 -16.5t15.5 -41.5q0 -24 -15.5 -40.5
t-41.5 -16.5z" />
    <glyph glyph-name="Igrave" unicode="&#xcc;" 
d="M268 663l-118 -1v60h300v-60l-117 1v-604l117 1v-60h-300v60l118 -1v604zM144 839l38 78l191 -112l-23 -46z" />
    <glyph glyph-name="Iacute" unicode="&#xcd;" 
d="M268 663l-118 -1v60h300v-60l-117 1v-604l117 1v-60h-300v60l118 -1v604zM426 917l38 -78l-206 -80l-23 46z" />
    <glyph glyph-name="Icircumflex" unicode="&#xce;" 
d="M268 663l-118 -1v60h300v-60l-117 1v-604l117 1v-60h-300v60l118 -1v604zM304 922l143 -160h-60l-83 70h-8l-81 -70h-61l142 160h8z" />
    <glyph glyph-name="Idieresis" unicode="&#xcf;" 
d="M268 663l-118 -1v60h300v-60l-117 1v-604l117 1v-60h-300v60l118 -1v604zM395 772q-26 0 -41.5 16.5t-15.5 40.5q0 25 15.5 41.5t41.5 16.5q25 0 41 -17t16 -41t-16 -40.5t-41 -16.5zM205 772q-25 0 -41 16.5t-16 40.5t16 41t41 17q26 0 41.5 -16.5t15.5 -41.5
q0 -24 -15.5 -40.5t-41.5 -16.5z" />
    <glyph glyph-name="Eth" unicode="&#xd0;" 
d="M120 0v344h-66v50h66v328h130q134 0 200 -95.5t66 -269.5q0 -61 -8.5 -112.5t-28 -97.5t-50.5 -78t-78 -50.5t-108 -18.5h-123zM357 344h-174v-286l65 1q59 1 100 23.5t63 64.5t31 92.5t9 117.5q0 303 -194 306l-74 1v-270h174v-50z" />
    <glyph glyph-name="Ntilde" unicode="&#xd1;" 
d="M100 0v722h86l247 -609h8v609h59v-722h-85l-248 615h-8v-615h-59zM196 772h-44q-1 59 23 85.5t60 26.5q20 0 67 -19q50 -20 60 -20q36 0 41 45h44q1 -59 -23 -85.5t-60 -26.5q-20 0 -67 19q-5 2 -15 6.5t-16 7t-13.5 4.5t-14.5 2q-37 0 -42 -45z" />
    <glyph glyph-name="Ograve" unicode="&#xd2;" 
d="M300 -15q-106 0 -161.5 103t-55.5 278q0 163 56 267t161 104t161 -104t56 -267q0 -175 -55.5 -278t-161.5 -103zM300 677q-77 0 -113.5 -86t-36.5 -227q0 -147 36.5 -233t113.5 -86t113.5 86t36.5 233q0 141 -36.5 227t-113.5 86zM155 839l38 78l191 -112l-23 -46z" />
    <glyph glyph-name="Oacute" unicode="&#xd3;" 
d="M300 -15q-106 0 -161.5 103t-55.5 278q0 163 56 267t161 104t161 -104t56 -267q0 -175 -55.5 -278t-161.5 -103zM300 677q-77 0 -113.5 -86t-36.5 -227q0 -147 36.5 -233t113.5 -86t113.5 86t36.5 233q0 141 -36.5 227t-113.5 86zM416 917l38 -78l-206 -80l-23 46z" />
    <glyph glyph-name="Ocircumflex" unicode="&#xd4;" 
d="M300 -15q-106 0 -161.5 103t-55.5 278q0 163 56 267t161 104t161 -104t56 -267q0 -175 -55.5 -278t-161.5 -103zM300 677q-77 0 -113.5 -86t-36.5 -227q0 -147 36.5 -233t113.5 -86t113.5 86t36.5 233q0 141 -36.5 227t-113.5 86zM304 922l143 -160h-60l-83 70h-8
l-81 -70h-61l142 160h8z" />
    <glyph glyph-name="Otilde" unicode="&#xd5;" 
d="M300 -15q-106 0 -161.5 103t-55.5 278q0 163 56 267t161 104t161 -104t56 -267q0 -175 -55.5 -278t-161.5 -103zM300 677q-77 0 -113.5 -86t-36.5 -227q0 -147 36.5 -233t113.5 -86t113.5 86t36.5 233q0 141 -36.5 227t-113.5 86zM196 772h-44q-1 59 23 85.5t60 26.5
q20 0 67 -19q50 -20 60 -20q36 0 41 45h44q1 -59 -23 -85.5t-60 -26.5q-20 0 -67 19q-5 2 -15 6.5t-16 7t-13.5 4.5t-14.5 2q-37 0 -42 -45z" />
    <glyph glyph-name="Odieresis" unicode="&#xd6;" 
d="M300 -15q-106 0 -161.5 103t-55.5 278q0 163 56 267t161 104t161 -104t56 -267q0 -175 -55.5 -278t-161.5 -103zM300 677q-77 0 -113.5 -86t-36.5 -227q0 -147 36.5 -233t113.5 -86t113.5 86t36.5 233q0 141 -36.5 227t-113.5 86zM395 772q-26 0 -41.5 16.5t-15.5 40.5
q0 25 15.5 41.5t41.5 16.5q25 0 41 -17t16 -41t-16 -40.5t-41 -16.5zM205 772q-25 0 -41 16.5t-16 40.5t16 41t41 17q26 0 41.5 -16.5t15.5 -41.5q0 -24 -15.5 -40.5t-41.5 -16.5z" />
    <glyph glyph-name="multiply" unicode="&#xd7;" 
d="M540 529l-199 -199l199 -199l-41 -41l-199 199l-199 -199l-41 41l199 199l-199 199l41 41l199 -199l199 199z" />
    <glyph glyph-name="Oslash" unicode="&#xd8;" 
d="M301 -15q-94 0 -151 88l-54 -88l-41 26l70 113q-40 95 -40 242q0 162 57 266.5t159 104.5q90 0 148 -88l55 88l40 -25l-69 -112q42 -95 42 -234q0 -173 -56.5 -277t-159.5 -104zM451 364q0 101 -17 169l-248 -401q38 -87 115 -87t113.5 86t36.5 233zM301 677
q-77 0 -113.5 -86t-36.5 -227q0 -101 16 -172l247 400q-38 85 -113 85z" />
    <glyph glyph-name="Ugrave" unicode="&#xd9;" 
d="M95 722h67v-496q0 -181 138 -181q140 0 140 182v495h65v-489q0 -117 -53.5 -182.5t-151.5 -65.5q-101 0 -153 65.5t-52 180.5v491zM165 839l38 78l191 -112l-23 -46z" />
    <glyph glyph-name="Uacute" unicode="&#xda;" 
d="M95 722h67v-496q0 -181 138 -181q140 0 140 182v495h65v-489q0 -117 -53.5 -182.5t-151.5 -65.5q-101 0 -153 65.5t-52 180.5v491zM417 917l38 -78l-206 -80l-23 46z" />
    <glyph glyph-name="Ucircumflex" unicode="&#xdb;" 
d="M95 722h67v-496q0 -181 138 -181q140 0 140 182v495h65v-489q0 -117 -53.5 -182.5t-151.5 -65.5q-101 0 -153 65.5t-52 180.5v491zM304 922l143 -160h-60l-83 70h-8l-81 -70h-61l142 160h8z" />
    <glyph glyph-name="Udieresis" unicode="&#xdc;" 
d="M95 722h67v-496q0 -181 138 -181q140 0 140 182v495h65v-489q0 -117 -53.5 -182.5t-151.5 -65.5q-101 0 -153 65.5t-52 180.5v491zM395 772q-26 0 -41.5 16.5t-15.5 40.5q0 25 15.5 41.5t41.5 16.5q25 0 41 -17t16 -41t-16 -40.5t-41 -16.5zM205 772q-25 0 -41 16.5
t-16 40.5t16 41t41 17q26 0 41.5 -16.5t15.5 -41.5q0 -24 -15.5 -40.5t-41.5 -16.5z" />
    <glyph glyph-name="Yacute" unicode="&#xdd;" 
d="M335 290v-290h-65v290q0 14 -14 17l-176 415h72l147 -373h8l145 373h68l-172 -415q-13 -5 -13 -17zM426 917l38 -78l-206 -80l-23 46z" />
    <glyph glyph-name="Thorn" unicode="&#xde;" 
d="M145 722h65v-134h69q102 0 169 -56t67 -153q0 -102 -70 -157.5t-176 -55.5h-59v-166h-65v722zM210 529v-303l63 1q81 1 127.5 38.5t46.5 112.5q0 73 -46.5 111t-115.5 39z" />
    <glyph glyph-name="germandbls" unicode="&#xdf;" 
d="M184 523v-440l-2 -83h-62q3 39 3 83v446q0 93 42.5 146.5t118.5 53.5q63 0 103 -38t40 -100q0 -35 -18.5 -67t-41.5 -51t-41.5 -41t-18.5 -40q0 -24 20.5 -42.5t63.5 -43.5q111 -64 111 -168q0 -68 -40 -109.5t-101 -41.5q-133 0 -143 152h63q-1 -46 20 -72.5t58 -26.5
t57.5 27t20.5 69q0 76 -74 119q-36 21 -58 37t-41.5 43t-19.5 55q0 29 18.5 55.5t40.5 44.5t40.5 45t18.5 57q0 39 -21 60.5t-58 21.5q-50 0 -74.5 -40.5t-24.5 -110.5z" />
    <glyph glyph-name="agrave" unicode="&#xe0;" 
d="M495 0h-76l-8 76h-8q-33 -44 -69.5 -67t-90.5 -23q-63 0 -101 40.5t-38 107.5q0 70 46 118t118 48q58 0 135 -21v68q0 116 -108 116q-52 0 -79 -27t-32 -67h-71q17 67 65 106.5t118 39.5q78 0 121.5 -43t43.5 -124v-206q0 -76 34 -142zM403 148v85q-67 17 -126 16
q-55 -1 -83 -31.5t-28 -81.5q0 -44 23.5 -70.5t67.5 -26.5q35 0 66.5 20t46.5 40t33 49zM177 647l40 75l186 -123l-24 -42z" />
    <glyph glyph-name="aacute" unicode="&#xe1;" 
d="M495 0h-76l-8 76h-8q-33 -44 -69.5 -67t-90.5 -23q-63 0 -101 40.5t-38 107.5q0 70 46 118t118 48q58 0 135 -21v68q0 116 -108 116q-52 0 -79 -27t-32 -67h-71q17 67 65 106.5t118 39.5q78 0 121.5 -43t43.5 -124v-206q0 -76 34 -142zM403 148v85q-67 17 -126 16
q-55 -1 -83 -31.5t-28 -81.5q0 -44 23.5 -70.5t67.5 -26.5q35 0 66.5 20t46.5 40t33 49zM393 722l40 -75l-202 -90l-24 42z" />
    <glyph glyph-name="acircumflex" unicode="&#xe2;" 
d="M495 0h-76l-8 76h-8q-33 -44 -69.5 -67t-90.5 -23q-63 0 -101 40.5t-38 107.5q0 70 46 118t118 48q58 0 135 -21v68q0 116 -108 116q-52 0 -79 -27t-32 -67h-71q17 67 65 106.5t118 39.5q78 0 121.5 -43t43.5 -124v-206q0 -76 34 -142zM403 148v85q-67 17 -126 16
q-55 -1 -83 -31.5t-28 -81.5q0 -44 23.5 -70.5t67.5 -26.5q35 0 66.5 20t46.5 40t33 49zM306 729l139 -171h-60l-79 77h-8l-79 -77h-59l138 171h8z" />
    <glyph glyph-name="atilde" unicode="&#xe3;" 
d="M419 0h76q-34 66 -34 142v206q0 81 -43.5 124t-121.5 43q-70 0 -118 -39.5t-65 -106.5h71q5 40 32 67t79 27q108 0 108 -116v-68q-77 21 -135 21q-72 0 -118 -48t-46 -118q0 -67 38 -107.5t101 -40.5q54 0 90.5 23t69.5 67h8zM403 233v-85q-18 -29 -33 -49t-46.5 -40
t-66.5 -20q-44 0 -67.5 26.5t-23.5 70.5q0 51 28 81.5t83 31.5q59 1 126 -16zM193 585h-43q-1 59 23 87.5t60 28.5q28 0 72 -19q54 -22 65 -22q37 0 42 46h43q1 -59 -23 -87t-60 -28q-28 0 -72 19q-51 22 -65 22q-37 0 -42 -47z" />
    <glyph glyph-name="adieresis" unicode="&#xe4;" 
d="M495 0h-76l-8 76h-8q-33 -44 -69.5 -67t-90.5 -23q-63 0 -101 40.5t-38 107.5q0 70 46 118t118 48q58 0 135 -21v68q0 116 -108 116q-52 0 -79 -27t-32 -67h-71q17 67 65 106.5t118 39.5q78 0 121.5 -43t43.5 -124v-206q0 -76 34 -142zM403 148v85q-67 17 -126 16
q-55 -1 -83 -31.5t-28 -81.5q0 -44 23.5 -70.5t67.5 -26.5q35 0 66.5 20t46.5 40t33 49zM391 579q-25 0 -40.5 16.5t-15.5 39.5q0 24 15.5 40.5t40.5 16.5t40.5 -16.5t15.5 -40.5q0 -23 -15.5 -39.5t-40.5 -16.5zM211 579q-25 0 -40.5 16.5t-15.5 39.5q0 24 15.5 40.5
t40.5 16.5t40.5 -16.5t15.5 -40.5q0 -23 -15.5 -39.5t-40.5 -16.5z" />
    <glyph glyph-name="aring" unicode="&#xe5;" 
d="M419 0h76q-34 66 -34 142v206q0 81 -43.5 124t-121.5 43q-70 0 -118 -39.5t-65 -106.5h71q5 40 32 67t79 27q108 0 108 -116v-68q-77 21 -135 21q-72 0 -118 -48t-46 -118q0 -67 38 -107.5t101 -40.5q54 0 90.5 23t69.5 67h8zM403 233v-85q-18 -29 -33 -49t-46.5 -40
t-66.5 -20q-44 0 -67.5 26.5t-23.5 70.5q0 51 28 81.5t83 31.5q59 1 126 -16zM211 637q0 36 26 60.5t63 24.5t63 -24.5t26 -60.5t-26 -61t-63 -25t-63 25t-26 61zM252 637q0 -20 14.5 -33.5t33.5 -13.5t33 13.5t14 33.5t-14 33.5t-33 13.5t-33.5 -13.5t-14.5 -33.5z" />
    <glyph glyph-name="ae" unicode="&#xe6;" 
d="M520 245h-197q0 -204 83 -204q50 0 56 103h63q-12 -73 -39 -115.5t-79 -42.5q-83 0 -117 105q-25 -51 -53.5 -78t-69.5 -27q-48 0 -76 47t-28 109q0 67 33.5 114t87.5 47q8 0 14.5 -0.5t12.5 -1.5t10 -2t11 -3.5t9.5 -3.5t11 -5t11.5 -5v65q0 60 -16 89t-53 29
q-28 0 -45 -27t-20 -68h-65q18 71 48.5 108t85.5 37q78 0 105 -82q40 81 110 81q126 0 106 -269zM264 146v88q-44 18 -71 17q-70 -3 -70 -110q0 -44 13.5 -72.5t39.5 -28.5q21 0 39.5 19.5t26 35.5t22.5 51zM323 297l142 3q12 161 -58 161q-68 0 -84 -164z" />
    <glyph glyph-name="ccedilla" unicode="&#xe7;" 
d="M189 -189l22 45q35 -24 81 -24q26 0 42.5 11t16.5 30q0 34 -49 34q-25 0 -44 -8l-27 23l48 70q-69 19 -111.5 90t-42.5 167q0 119 58.5 193.5t146.5 74.5q137 0 159 -161h-66q-6 49 -26.5 77.5t-67.5 28.5q-69 0 -104 -60.5t-35 -151.5q0 -85 36.5 -147.5t103.5 -62.5
q83 0 99 109h66q-15 -75 -52.5 -119t-112.5 -45l-40 -42l5 -6q26 8 49 8q30 0 50 -18.5t20 -48.5q0 -38 -31 -65t-87 -27q-66 0 -107 25z" />
    <glyph glyph-name="egrave" unicode="&#xe8;" 
d="M481 245h-300q0 -85 37.5 -144.5t103.5 -59.5q45 0 69.5 29t28.5 74h64q-26 -158 -165 -158q-94 0 -148 80t-54 190q0 107 55.5 182.5t143.5 75.5q50 0 86 -24t53.5 -64.5t23.5 -86t2 -94.5zM183 298l238 3q0 25 -3 49t-13 51t-33 43.5t-57 16.5q-57 0 -90 -45t-42 -118z
M167 647l40 75l186 -123l-24 -42z" />
    <glyph glyph-name="eacute" unicode="&#xe9;" 
d="M481 245h-300q0 -85 37.5 -144.5t103.5 -59.5q45 0 69.5 29t28.5 74h64q-26 -158 -165 -158q-94 0 -148 80t-54 190q0 107 55.5 182.5t143.5 75.5q50 0 86 -24t53.5 -64.5t23.5 -86t2 -94.5zM183 298l238 3q0 25 -3 49t-13 51t-33 43.5t-57 16.5q-57 0 -90 -45t-42 -118z
M423 722l40 -75l-202 -90l-24 42z" />
    <glyph glyph-name="ecircumflex" unicode="&#xea;" 
d="M481 245h-300q0 -85 37.5 -144.5t103.5 -59.5q45 0 69.5 29t28.5 74h64q-26 -158 -165 -158q-94 0 -148 80t-54 190q0 107 55.5 182.5t143.5 75.5q50 0 86 -24t53.5 -64.5t23.5 -86t2 -94.5zM183 298l238 3q0 25 -3 49t-13 51t-33 43.5t-57 16.5q-57 0 -90 -45t-42 -118z
M322 729l139 -171h-60l-79 77h-8l-79 -77h-59l138 171h8z" />
    <glyph glyph-name="edieresis" unicode="&#xeb;" 
d="M481 245h-300q0 -85 37.5 -144.5t103.5 -59.5q45 0 69.5 29t28.5 74h64q-26 -158 -165 -158q-94 0 -148 80t-54 190q0 107 55.5 182.5t143.5 75.5q50 0 86 -24t53.5 -64.5t23.5 -86t2 -94.5zM183 298l238 3q0 25 -3 49t-13 51t-33 43.5t-57 16.5q-57 0 -90 -45t-42 -118z
M404 579q-25 0 -40.5 16.5t-15.5 39.5q0 24 15.5 40.5t40.5 16.5t40.5 -16.5t15.5 -40.5q0 -23 -15.5 -39.5t-40.5 -16.5zM224 579q-25 0 -40.5 16.5t-15.5 39.5q0 24 15.5 40.5t40.5 16.5t40.5 -16.5t15.5 -40.5q0 -23 -15.5 -39.5t-40.5 -16.5z" />
    <glyph glyph-name="igrave" unicode="&#xec;" 
d="M284 448l-154 -1v55h214v-502h-60v448zM118 647l40 75l186 -123l-24 -42z" />
    <glyph glyph-name="iacute" unicode="&#xed;" 
d="M284 448l-154 -1v55h214v-502h-60v448zM388 722l40 -75l-202 -90l-24 42z" />
    <glyph glyph-name="icircumflex" unicode="&#xee;" 
d="M284 448l-154 -1v55h214v-502h-60v448zM310 729l139 -171h-60l-79 77h-8l-79 -77h-59l138 171h8z" />
    <glyph glyph-name="idieresis" unicode="&#xef;" 
d="M284 448l-154 -1v55h214v-502h-60v448zM405 579q-25 0 -40.5 16.5t-15.5 39.5q0 24 15.5 40.5t40.5 16.5t40.5 -16.5t15.5 -40.5q0 -23 -15.5 -39.5t-40.5 -16.5zM225 579q-25 0 -40.5 16.5t-15.5 39.5q0 24 15.5 40.5t40.5 16.5t40.5 -16.5t15.5 -40.5
q0 -23 -15.5 -39.5t-40.5 -16.5z" />
    <glyph glyph-name="eth" unicode="&#xf0;" 
d="M186 561l-32 32l84 55q-39 20 -129 35l51 39q68 -11 129 -41l86 56l31 -31l-80 -52q158 -102 157 -386q-1 -129 -54.5 -207t-145.5 -78q-85 0 -136.5 77t-51.5 178q0 99 49.5 176.5t130.5 77.5q32 0 59 -12.5t44.5 -33.5t28 -39.5t17.5 -37.5h8q-6 77 -43.5 147.5
t-109.5 107.5zM160 238q0 -80 32 -140.5t95 -60.5q66 0 98 59.5t32 140.5q0 77 -34 139t-100 62q-44 0 -73 -32.5t-39.5 -75t-10.5 -92.5z" />
    <glyph glyph-name="ntilde" unicode="&#xf1;" 
d="M119 0v355q0 86 -19 147h67l6 -99h8q69 114 163 114q70 0 106.5 -44.5t36.5 -127.5v-345h-60v344q0 63 -20.5 91.5t-69.5 28.5t-95.5 -50t-62.5 -113v-301h-60zM210 585h-43q-1 59 23 87.5t60 28.5q28 0 72 -19q54 -22 65 -22q37 0 42 46h43q1 -59 -23 -87t-60 -28
q-28 0 -72 19q-51 22 -65 22q-37 0 -42 -47z" />
    <glyph glyph-name="ograve" unicode="&#xf2;" 
d="M300 -17q-95 0 -147.5 79.5t-52.5 188.5q0 62 19.5 119.5t66.5 101t114 43.5t114 -43.5t66.5 -101t19.5 -119.5q0 -109 -52.5 -188.5t-147.5 -79.5zM300 460q-63 0 -99.5 -55t-36.5 -154q0 -55 12 -100.5t43.5 -78.5t80.5 -33t80.5 33t43.5 78.5t12 100.5q0 99 -36.5 154
t-99.5 55zM147 647l40 75l186 -123l-24 -42z" />
    <glyph glyph-name="oacute" unicode="&#xf3;" 
d="M300 -17q-95 0 -147.5 79.5t-52.5 188.5q0 62 19.5 119.5t66.5 101t114 43.5t114 -43.5t66.5 -101t19.5 -119.5q0 -109 -52.5 -188.5t-147.5 -79.5zM300 460q-63 0 -99.5 -55t-36.5 -154q0 -55 12 -100.5t43.5 -78.5t80.5 -33t80.5 33t43.5 78.5t12 100.5q0 99 -36.5 154
t-99.5 55zM414 722l40 -75l-202 -90l-24 42z" />
    <glyph glyph-name="ocircumflex" unicode="&#xf4;" 
d="M300 -17q-95 0 -147.5 79.5t-52.5 188.5q0 62 19.5 119.5t66.5 101t114 43.5t114 -43.5t66.5 -101t19.5 -119.5q0 -109 -52.5 -188.5t-147.5 -79.5zM300 460q-63 0 -99.5 -55t-36.5 -154q0 -55 12 -100.5t43.5 -78.5t80.5 -33t80.5 33t43.5 78.5t12 100.5q0 99 -36.5 154
t-99.5 55zM306 729l139 -171h-60l-79 77h-8l-79 -77h-59l138 171h8z" />
    <glyph glyph-name="otilde" unicode="&#xf5;" 
d="M300 -17q-95 0 -147.5 79.5t-52.5 188.5q0 62 19.5 119.5t66.5 101t114 43.5t114 -43.5t66.5 -101t19.5 -119.5q0 -109 -52.5 -188.5t-147.5 -79.5zM300 460q-63 0 -99.5 -55t-36.5 -154q0 -55 12 -100.5t43.5 -78.5t80.5 -33t80.5 33t43.5 78.5t12 100.5q0 99 -36.5 154
t-99.5 55zM190 585h-43q-1 59 23 87.5t60 28.5q28 0 72 -19q54 -22 65 -22q37 0 42 46h43q1 -59 -23 -87t-60 -28q-28 0 -72 19q-51 22 -65 22q-37 0 -42 -47z" />
    <glyph glyph-name="odieresis" unicode="&#xf6;" 
d="M300 -17q-95 0 -147.5 79.5t-52.5 188.5q0 62 19.5 119.5t66.5 101t114 43.5t114 -43.5t66.5 -101t19.5 -119.5q0 -109 -52.5 -188.5t-147.5 -79.5zM300 460q-63 0 -99.5 -55t-36.5 -154q0 -55 12 -100.5t43.5 -78.5t80.5 -33t80.5 33t43.5 78.5t12 100.5q0 99 -36.5 154
t-99.5 55zM390 579q-25 0 -40.5 16.5t-15.5 39.5q0 24 15.5 40.5t40.5 16.5t40.5 -16.5t15.5 -40.5q0 -23 -15.5 -39.5t-40.5 -16.5zM210 579q-25 0 -40.5 16.5t-15.5 39.5q0 24 15.5 40.5t40.5 16.5t40.5 -16.5t15.5 -40.5q0 -23 -15.5 -39.5t-40.5 -16.5z" />
    <glyph glyph-name="divide" unicode="&#xf7;" 
d="M300 219q29 0 49.5 -20t20.5 -50t-20.5 -50t-49.5 -20t-49.5 20t-20.5 50t20.5 50t49.5 20zM300 581q29 0 49.5 -20t20.5 -50t-20.5 -50t-49.5 -20t-49.5 20t-20.5 50t20.5 50t49.5 20zM525 301h-450v58h450v-58z" />
    <glyph glyph-name="oslash" unicode="&#xf8;" 
d="M300 -17q-65 0 -113 42l-50 -81l-37 24l56 91q-56 77 -56 192q0 62 19.5 119.5t66.5 101t114 43.5q63 0 113 -43l50 81l37 -24l-57 -92q57 -79 57 -186q0 -109 -52.5 -188.5t-147.5 -79.5zM300 461q-63 0 -100 -55.5t-37 -154.5q0 -83 27 -138l194 312q-34 36 -84 36z
M300 38q49 0 81 33.5t44 79t12 100.5q0 79 -26 134l-194 -313q32 -34 83 -34z" />
    <glyph glyph-name="ugrave" unicode="&#xf9;" 
d="M481 502v-355q0 -90 19 -147h-69l-4 94h-8q-75 -109 -168 -109q-67 0 -102.5 45.5t-35.5 126.5v345h60v-344q0 -60 21.5 -89.5t68.5 -29.5q50 0 95 48t63 112v303h60zM157 647l40 75l186 -123l-24 -42z" />
    <glyph glyph-name="uacute" unicode="&#xfa;" 
d="M481 502v-355q0 -90 19 -147h-69l-4 94h-8q-75 -109 -168 -109q-67 0 -102.5 45.5t-35.5 126.5v345h60v-344q0 -60 21.5 -89.5t68.5 -29.5q50 0 95 48t63 112v303h60zM413 722l40 -75l-202 -90l-24 42z" />
    <glyph glyph-name="ucircumflex" unicode="&#xfb;" 
d="M481 502v-355q0 -90 19 -147h-69l-4 94h-8q-75 -109 -168 -109q-67 0 -102.5 45.5t-35.5 126.5v345h60v-344q0 -60 21.5 -89.5t68.5 -29.5q50 0 95 48t63 112v303h60zM304 729l139 -171h-60l-79 77h-8l-79 -77h-59l138 171h8z" />
    <glyph glyph-name="udieresis" unicode="&#xfc;" 
d="M481 502v-355q0 -90 19 -147h-69l-4 94h-8q-75 -109 -168 -109q-67 0 -102.5 45.5t-35.5 126.5v345h60v-344q0 -60 21.5 -89.5t68.5 -29.5q50 0 95 48t63 112v303h60zM397 579q-25 0 -40.5 16.5t-15.5 39.5q0 24 15.5 40.5t40.5 16.5t40.5 -16.5t15.5 -40.5
q0 -23 -15.5 -39.5t-40.5 -16.5zM217 579q-25 0 -40.5 16.5t-15.5 39.5q0 24 15.5 40.5t40.5 16.5t40.5 -16.5t15.5 -40.5q0 -23 -15.5 -39.5t-40.5 -16.5z" />
    <glyph glyph-name="yacute" unicode="&#xfd;" 
d="M492 502q-169 -569 -184 -613q-26 -78 -115 -78q-48 0 -77 13l6 57q38 -15 72 -15q46 0 61 41q14 36 28 93q4 17 -4.5 27.5t-27.5 7.5l-145 467h67l125 -435h8l121 435h65zM413 722l40 -75l-202 -90l-24 42z" />
    <glyph glyph-name="thorn" unicode="&#xfe;" 
d="M174 309v-119q6 -59 43 -105t92 -46q65 0 101.5 58t36.5 159q0 94 -35.5 150t-100.5 56q-60 0 -96.5 -46.5t-40.5 -106.5zM114 -193v915h60v-220l-3 -73h8q55 88 140 88q88 0 139.5 -76t51.5 -186q0 -115 -51.5 -193t-142.5 -78q-87 0 -140 94h-8q6 -39 6 -78v-193h-60z
" />
    <glyph glyph-name="ydieresis" unicode="&#xff;" 
d="M492 502q-169 -569 -184 -613q-26 -78 -115 -78q-48 0 -77 13l6 57q38 -15 72 -15q46 0 61 41q14 36 28 93q4 17 -4.5 27.5t-27.5 7.5l-145 467h67l125 -435h8l121 435h65zM392 579q-25 0 -40.5 16.5t-15.5 39.5q0 24 15.5 40.5t40.5 16.5t40.5 -16.5t15.5 -40.5
q0 -23 -15.5 -39.5t-40.5 -16.5zM212 579q-25 0 -40.5 16.5t-15.5 39.5q0 24 15.5 40.5t40.5 16.5t40.5 -16.5t15.5 -40.5q0 -23 -15.5 -39.5t-40.5 -16.5z" />
    <glyph glyph-name="Amacron" unicode="&#x100;" 
d="M189 255h218l-107 405h-8zM173 195l-49 -195h-64l191 722h88l201 -722h-67l-51 195h-249zM150 787v64h300v-64h-300z" />
    <glyph glyph-name="amacron" unicode="&#x101;" 
d="M419 0h76q-34 66 -34 142v206q0 81 -43.5 124t-121.5 43q-70 0 -118 -39.5t-65 -106.5h71q5 40 32 67t79 27q108 0 108 -116v-68q-77 21 -135 21q-72 0 -118 -48t-46 -118q0 -67 38 -107.5t101 -40.5q54 0 90.5 23t69.5 67h8zM403 233v-85q-18 -29 -33 -49t-46.5 -40
t-66.5 -20q-44 0 -67.5 26.5t-23.5 70.5q0 51 28 81.5t83 31.5q59 1 126 -16zM161 600v65h280v-65h-280z" />
    <glyph glyph-name="Abreve" unicode="&#x102;" 
d="M189 255h218l-107 405h-8zM173 195l-49 -195h-64l191 722h88l201 -722h-67l-51 195h-249zM299 830q33 0 53.5 16.5t25.5 31.5t6 29h42q2 -60 -31 -99.5t-96 -39.5t-96 39.5t-31 99.5h42q1 -10 4 -20.5t11 -24.5t26.5 -23t43.5 -9z" />
    <glyph glyph-name="abreve" unicode="&#x103;" 
d="M495 0h-76l-8 76h-8q-33 -44 -69.5 -67t-90.5 -23q-63 0 -101 40.5t-38 107.5q0 70 46 118t118 48q58 0 135 -21v68q0 116 -108 116q-52 0 -79 -27t-32 -67h-71q17 67 65 106.5t118 39.5q78 0 121.5 -43t43.5 -124v-206q0 -76 34 -142zM403 148v85q-67 17 -126 16
q-55 -1 -83 -31.5t-28 -81.5q0 -44 23.5 -70.5t67.5 -26.5q35 0 66.5 20t46.5 40t33 49zM300 632q22 0 39 8t26 18t14.5 24.5t7 23t1.5 16.5h46q2 -71 -32.5 -113t-102.5 -42q-67 0 -100.5 41.5t-31.5 113.5h46q5 -90 87 -90z" />
    <glyph glyph-name="Aogonek" unicode="&#x104;" 
d="M540 -134v-42q-50 -27 -95 -27q-43 0 -62 20t-19 49q0 37 35.5 74t86.5 60h-13l-51 195h-249l-49 -195h-64l191 722h88l201 -722q-106 -63 -106 -112q0 -37 48 -37q22 0 58 15zM189 255h218l-107 405h-8z" />
    <glyph glyph-name="aogonek" unicode="&#x105;" 
d="M495 0h-76l-8 76h-8q-33 -44 -69.5 -67t-90.5 -23q-63 0 -101 40.5t-38 107.5q0 70 46 118t118 48q58 0 135 -21v68q0 116 -108 116q-52 0 -79 -27t-32 -67h-71q17 67 65 106.5t118 39.5q78 0 121.5 -43t43.5 -124v-206q0 -76 34 -142zM403 148v85q-67 17 -126 16
q-55 -1 -83 -31.5t-28 -81.5q0 -44 23.5 -70.5t67.5 -26.5q35 0 66.5 20t46.5 40t33 49zM495 -134v-42q-49 -27 -95 -27q-43 0 -62 20t-19 49q0 37 35.5 74t86.5 60h54q-106 -63 -106 -112q0 -37 48 -37q22 0 58 15z" />
    <glyph glyph-name="Cacute" unicode="&#x106;" 
d="M512 528h-69q-4 73 -27 111.5t-77 38.5q-62 0 -103 -46t-57 -114.5t-16 -156.5q0 -58 9 -110t28 -100t54.5 -76.5t84.5 -28.5q102 0 111 154h70q-11 -100 -56.5 -157.5t-124.5 -57.5q-67 0 -117 36t-76 94.5t-38.5 120t-12.5 125.5q0 69 13.5 133t41 120t76.5 89.5
t113 33.5q78 0 121 -55.5t52 -153.5zM446 917l38 -78l-206 -80l-23 46z" />
    <glyph glyph-name="cacute" unicode="&#x107;" 
d="M489 356h-66q-6 49 -26.5 77.5t-67.5 28.5q-69 0 -104 -60.5t-35 -151.5q0 -85 36.5 -147.5t103.5 -62.5q83 0 99 109h66q-15 -76 -53.5 -120t-114.5 -44q-89 0 -145.5 75.5t-56.5 188.5q0 119 58.5 193.5t146.5 74.5q137 0 159 -161zM455 722l40 -75l-202 -90l-24 42z
" />
    <glyph glyph-name="Ccircumflex" unicode="&#x108;" 
d="M512 528h-69q-4 73 -27 111.5t-77 38.5q-62 0 -103 -46t-57 -114.5t-16 -156.5q0 -58 9 -110t28 -100t54.5 -76.5t84.5 -28.5q102 0 111 154h70q-11 -100 -56.5 -157.5t-124.5 -57.5q-67 0 -117 36t-76 94.5t-38.5 120t-12.5 125.5q0 69 13.5 133t41 120t76.5 89.5
t113 33.5q78 0 121 -55.5t52 -153.5zM339 922l143 -160h-60l-83 70h-8l-81 -70h-61l142 160h8z" />
    <glyph glyph-name="ccircumflex" unicode="&#x109;" 
d="M489 356h-66q-6 49 -26.5 77.5t-67.5 28.5q-69 0 -104 -60.5t-35 -151.5q0 -85 36.5 -147.5t103.5 -62.5q83 0 99 109h66q-15 -76 -53.5 -120t-114.5 -44q-89 0 -145.5 75.5t-56.5 188.5q0 119 58.5 193.5t146.5 74.5q137 0 159 -161zM329 729l139 -171h-60l-79 77h-8
l-79 -77h-59l138 171h8z" />
    <glyph glyph-name="Cdotaccent" unicode="&#x10a;" 
d="M512 528h-69q-4 73 -27 111.5t-77 38.5q-62 0 -103 -46t-57 -114.5t-16 -156.5q0 -58 9 -110t28 -100t54.5 -76.5t84.5 -28.5q102 0 111 154h70q-11 -100 -56.5 -157.5t-124.5 -57.5q-67 0 -117 36t-76 94.5t-38.5 120t-12.5 125.5q0 69 13.5 133t41 120t76.5 89.5
t113 33.5q78 0 121 -55.5t52 -153.5zM337 772q-26 0 -41.5 16.5t-15.5 40.5q0 25 15.5 41.5t41.5 16.5q25 0 41 -17t16 -41t-16 -40.5t-41 -16.5z" />
    <glyph glyph-name="cdotaccent" unicode="&#x10b;" 
d="M489 356h-66q-6 49 -26.5 77.5t-67.5 28.5q-69 0 -104 -60.5t-35 -151.5q0 -85 36.5 -147.5t103.5 -62.5q83 0 99 109h66q-15 -76 -53.5 -120t-114.5 -44q-89 0 -145.5 75.5t-56.5 188.5q0 119 58.5 193.5t146.5 74.5q137 0 159 -161zM266 662q0 27 17 43.5t43 16.5
q27 0 44 -16.5t17 -43.5t-17 -43t-44 -16t-43.5 16t-16.5 43z" />
    <glyph glyph-name="Ccaron" unicode="&#x10c;" 
d="M512 528h-69q-4 73 -27 111.5t-77 38.5q-62 0 -103 -46t-57 -114.5t-16 -156.5q0 -58 9 -110t28 -100t54.5 -76.5t84.5 -28.5q102 0 111 154h70q-11 -100 -56.5 -157.5t-124.5 -57.5q-67 0 -117 36t-76 94.5t-38.5 120t-12.5 125.5q0 69 13.5 133t41 120t76.5 89.5
t113 33.5q78 0 121 -55.5t52 -153.5zM477 911l-143 -156h-8l-142 156h61l81 -66h8l83 66h60z" />
    <glyph glyph-name="ccaron" unicode="&#x10d;" 
d="M489 356h-66q-6 49 -26.5 77.5t-67.5 28.5q-69 0 -104 -60.5t-35 -151.5q0 -85 36.5 -147.5t103.5 -62.5q83 0 99 109h66q-15 -76 -53.5 -120t-114.5 -44q-89 0 -145.5 75.5t-56.5 188.5q0 119 58.5 193.5t146.5 74.5q137 0 159 -161zM469 722l-139 -171h-8l-138 171h59
l79 -76h8l79 76h60z" />
    <glyph glyph-name="Dcaron" unicode="&#x10e;" 
d="M110 0v722h140q134 0 200 -95.5t66 -269.5q0 -61 -8.5 -112.5t-28 -97.5t-50.5 -78t-78 -50.5t-108 -18.5h-133zM175 664v-606l73 1q59 1 100 23.5t63 64.5t31 92.5t9 117.5q0 303 -194 306zM431 911l-143 -156h-8l-142 156h61l81 -66h8l83 66h60z" />
    <glyph glyph-name="dcaron" unicode="&#x10f;" 
d="M376 502v220h60v-643q0 -59 4 -79h-64l6 79h-8q-53 -94 -136 -94q-90 0 -137.5 78t-47.5 193q0 111 47.5 186t134.5 75q37 0 68.5 -18.5t42.5 -33t25 -36.5h8q-3 38 -3 73zM116 256q0 -102 32.5 -159t96.5 -57q55 0 90 45.5t41 105.5v118q-4 60 -38.5 106.5t-94.5 46.5
q-64 0 -95.5 -55t-31.5 -151zM533 603q-22 4 -37 20t-15 38q0 27 16.5 44t43.5 17q24 0 41.5 -16.5t17.5 -44.5q0 -23 -5 -39q-20 -65 -75 -120h-64q45 30 83 83q11 15 -6 18z" />
    <glyph glyph-name="Dcroat" unicode="&#x110;" 
d="M110 0v344h-56v50h56v328h140q134 0 200 -95.5t66 -269.5q0 -61 -8.5 -112.5t-28 -97.5t-50.5 -78t-78 -50.5t-108 -18.5h-133zM175 664v-270h182v-50h-182v-286l73 1q59 1 100 23.5t63 64.5t31 92.5t9 117.5q0 303 -194 306z" />
    <glyph glyph-name="dcroat" unicode="&#x111;" 
d="M251 600v65h175v57h60v-57h45v-65h-45v-521q0 -59 4 -79h-64l6 79h-8q-53 -94 -140 -94q-90 0 -142 79t-52 192q0 110 51.5 185.5t139.5 75.5q85 0 140 -88h8q-3 38 -3 73v98h-175zM153 256q0 -100 36.5 -158t101.5 -58q55 0 92 46t43 105v118q-4 60 -40.5 106.5
t-96.5 46.5q-65 0 -100.5 -56t-35.5 -150z" />
    <glyph glyph-name="Emacron" unicode="&#x112;" 
d="M145 0v722h352v-60h-287v-264h273v-60h-273v-278h298v-60h-363zM171 787v64h300v-64h-300z" />
    <glyph glyph-name="emacron" unicode="&#x113;" 
d="M481 245h-300q0 -85 37.5 -144.5t103.5 -59.5q45 0 69.5 29t28.5 74h64q-26 -158 -165 -158q-94 0 -148 80t-54 190q0 107 55.5 182.5t143.5 75.5q50 0 86 -24t53.5 -64.5t23.5 -86t2 -94.5zM183 298l238 3q0 25 -3 49t-13 51t-33 43.5t-57 16.5q-57 0 -90 -45t-42 -118z
M180 600v65h280v-65h-280z" />
    <glyph glyph-name="Ebreve" unicode="&#x114;" 
d="M145 0v722h352v-60h-287v-264h273v-60h-273v-278h298v-60h-363zM322 830q33 0 53.5 16.5t25.5 31.5t6 29h42q2 -60 -31 -99.5t-96 -39.5t-96 39.5t-31 99.5h42q1 -10 4 -20.5t11 -24.5t26.5 -23t43.5 -9z" />
    <glyph glyph-name="ebreve" unicode="&#x115;" 
d="M481 245h-300q0 -85 37.5 -144.5t103.5 -59.5q45 0 69.5 29t28.5 74h64q-26 -158 -165 -158q-94 0 -148 80t-54 190q0 107 55.5 182.5t143.5 75.5q50 0 86 -24t53.5 -64.5t23.5 -86t2 -94.5zM183 298l238 3q0 25 -3 49t-13 51t-33 43.5t-57 16.5q-57 0 -90 -45t-42 -118z
M316 632q22 0 39 8t26 18t14.5 24.5t7 23t1.5 16.5h46q2 -71 -32.5 -113t-102.5 -42q-67 0 -100.5 41.5t-31.5 113.5h46q5 -90 87 -90z" />
    <glyph glyph-name="Edotaccent" unicode="&#x116;" 
d="M145 0v722h352v-60h-287v-264h273v-60h-273v-278h298v-60h-363zM328 772q-26 0 -41.5 16.5t-15.5 40.5q0 25 15.5 41.5t41.5 16.5q25 0 41 -17t16 -41t-16 -40.5t-41 -16.5z" />
    <glyph glyph-name="edotaccent" unicode="&#x117;" 
d="M481 245h-300q0 -85 37.5 -144.5t103.5 -59.5q45 0 69.5 29t28.5 74h64q-26 -158 -165 -158q-94 0 -148 80t-54 190q0 107 55.5 182.5t143.5 75.5q50 0 86 -24t53.5 -64.5t23.5 -86t2 -94.5zM183 298l238 3q0 25 -3 49t-13 51t-33 43.5t-57 16.5q-57 0 -90 -45t-42 -118z
M250 662q0 27 17 43.5t43 16.5q27 0 44 -16.5t17 -43.5t-17 -43t-44 -16t-43.5 16t-16.5 43z" />
    <glyph glyph-name="Eogonek" unicode="&#x118;" 
d="M145 0v722h352v-60h-287v-264h273v-60h-273v-278h298v-60q-106 -63 -106 -112q0 -37 48 -37q22 0 58 15v-42q-50 -27 -95 -27q-43 0 -62 20t-19 49q0 37 35.5 74t86.5 60h-309z" />
    <glyph glyph-name="eogonek" unicode="&#x119;" 
d="M481 245h-300q0 -85 37.5 -144.5t103.5 -59.5q45 0 69.5 29t28.5 74h64q-15 -85 -62 -125q-76 -74 -76 -126q0 -43 55 -43q28 0 59 17v-43q-46 -25 -96 -25q-37 0 -59 21t-22 54q0 55 64 114q-18 -2 -28 -2q-94 0 -148 80t-54 190q0 107 55.5 182.5t143.5 75.5
q50 0 86 -24t53.5 -64.5t23.5 -86t2 -94.5zM183 298l238 3q0 25 -3 49t-13 51t-33 43.5t-57 16.5q-57 0 -90 -45t-42 -118z" />
    <glyph glyph-name="Ecaron" unicode="&#x11a;" 
d="M145 0v722h352v-60h-287v-264h273v-60h-273v-278h298v-60h-363zM469 911l-143 -156h-8l-142 156h61l81 -66h8l83 66h60z" />
    <glyph glyph-name="ecaron" unicode="&#x11b;" 
d="M481 245h-300q0 -85 37.5 -144.5t103.5 -59.5q45 0 69.5 29t28.5 74h64q-26 -158 -165 -158q-94 0 -148 80t-54 190q0 107 55.5 182.5t143.5 75.5q50 0 86 -24t53.5 -64.5t23.5 -86t2 -94.5zM183 298l238 3q0 25 -3 49t-13 51t-33 43.5t-57 16.5q-57 0 -90 -45t-42 -118z
M457 722l-139 -171h-8l-138 171h59l79 -76h8l79 76h60z" />
    <glyph glyph-name="Gcircumflex" unicode="&#x11c;" 
d="M450 279l-201 -21v70h265q-5 -339 -202 -339q-53 0 -93.5 24t-64 61.5t-38.5 88.5t-20.5 99t-5.5 99q0 69 13.5 132.5t40.5 119t76 88.5t113 33q154 0 174 -196h-70q-4 68 -28 103t-79 35q-90 0 -132 -88.5t-42 -226.5q0 -316 156 -316q69 0 104.5 62t33.5 172zM327 922
l143 -160h-60l-83 70h-8l-81 -70h-61l142 160h8z" />
    <glyph glyph-name="gcircumflex" unicode="&#x11d;" 
d="M424 428h8l10 74h69q-25 -64 -25 -147v-347q0 -93 -50 -146.5t-141 -53.5q-74 0 -120 43t-56 100h69q2 -39 29 -64.5t77 -25.5q65 0 98.5 36t33.5 103l5 97h-8q-52 -91 -141 -91q-91 0 -141.5 74t-50.5 186q0 108 53 179.5t142 71.5q83 0 139 -89zM153 266q0 -99 36 -152
t102 -53q55 0 92 44.5t43 103.5v102q-4 59 -40.5 105t-96.5 46q-66 0 -101 -51.5t-35 -144.5zM302 729l139 -171h-60l-79 77h-8l-79 -77h-59l138 171h8z" />
    <glyph glyph-name="Gbreve" unicode="&#x11e;" 
d="M450 279l-201 -21v70h265q-5 -339 -202 -339q-53 0 -93.5 24t-64 61.5t-38.5 88.5t-20.5 99t-5.5 99q0 69 13.5 132.5t40.5 119t76 88.5t113 33q154 0 174 -196h-70q-4 68 -28 103t-79 35q-90 0 -132 -88.5t-42 -226.5q0 -316 156 -316q69 0 104.5 62t33.5 172zM334 830
q33 0 53.5 16.5t25.5 31.5t6 29h42q2 -60 -31 -99.5t-96 -39.5t-96 39.5t-31 99.5h42q1 -10 4 -20.5t11 -24.5t26.5 -23t43.5 -9z" />
    <glyph glyph-name="gbreve" unicode="&#x11f;" 
d="M424 428h8l10 74h69q-25 -64 -25 -147v-347q0 -93 -50 -146.5t-141 -53.5q-74 0 -120 43t-56 100h69q2 -39 29 -64.5t77 -25.5q65 0 98.5 36t33.5 103l5 97h-8q-52 -91 -141 -91q-91 0 -141.5 74t-50.5 186q0 108 53 179.5t142 71.5q83 0 139 -89zM153 266q0 -99 36 -152
t102 -53q55 0 92 44.5t43 103.5v102q-4 59 -40.5 105t-96.5 46q-66 0 -101 -51.5t-35 -144.5zM289 632q22 0 39 8t26 18t14.5 24.5t7 23t1.5 16.5h46q2 -71 -32.5 -113t-102.5 -42q-67 0 -100.5 41.5t-31.5 113.5h46q5 -90 87 -90z" />
    <glyph glyph-name="Gdotaccent" unicode="&#x120;" 
d="M450 279l-201 -21v70h265q-5 -339 -202 -339q-53 0 -93.5 24t-64 61.5t-38.5 88.5t-20.5 99t-5.5 99q0 69 13.5 132.5t40.5 119t76 88.5t113 33q154 0 174 -196h-70q-4 68 -28 103t-79 35q-90 0 -132 -88.5t-42 -226.5q0 -316 156 -316q69 0 104.5 62t33.5 172zM329 772
q-26 0 -41.5 16.5t-15.5 40.5q0 25 15.5 41.5t41.5 16.5q25 0 41 -17t16 -41t-16 -40.5t-41 -16.5z" />
    <glyph glyph-name="gdotaccent" unicode="&#x121;" 
d="M424 428h8l10 74h69q-25 -64 -25 -147v-347q0 -93 -50 -146.5t-141 -53.5q-74 0 -120 43t-56 100h69q2 -39 29 -64.5t77 -25.5q65 0 98.5 36t33.5 103l5 97h-8q-52 -91 -141 -91q-91 0 -141.5 74t-50.5 186q0 108 53 179.5t142 71.5q83 0 139 -89zM153 266q0 -99 36 -152
t102 -53q55 0 92 44.5t43 103.5v102q-4 59 -40.5 105t-96.5 46q-66 0 -101 -51.5t-35 -144.5zM232 662q0 27 17 43.5t43 16.5q27 0 44 -16.5t17 -43.5t-17 -43t-44 -16t-43.5 16t-16.5 43z" />
    <glyph glyph-name="Gcommaaccent" unicode="&#x122;" 
d="M450 279l-201 -21v70h265q-5 -339 -202 -339q-53 0 -93.5 24t-64 61.5t-38.5 88.5t-20.5 99t-5.5 99q0 69 13.5 132.5t40.5 119t76 88.5t113 33q154 0 174 -196h-70q-4 68 -28 103t-79 35q-90 0 -132 -88.5t-42 -226.5q0 -316 156 -316q69 0 104.5 62t33.5 172zM306 -164
q-20 3 -34.5 17.5t-14.5 35.5q0 24 16 40t40 16q23 0 39.5 -15.5t16.5 -40.5q0 -21 -5 -36q-19 -55 -68 -100h-61q46 29 77 67q9 12 -6 16z" />
    <glyph glyph-name="gcommaaccent" unicode="&#x123;" 
d="M424 428h8l10 74h69q-25 -64 -25 -147v-347q0 -93 -50 -146.5t-141 -53.5q-74 0 -120 43t-56 100h69q2 -39 29 -64.5t77 -25.5q65 0 98.5 36t33.5 103l5 97h-8q-52 -91 -141 -91q-91 0 -141.5 74t-50.5 186q0 108 53 179.5t142 71.5q83 0 139 -89zM153 266q0 -99 36 -152
t102 -53q55 0 92 44.5t43 103.5v102q-4 59 -40.5 105t-96.5 46q-66 0 -101 -51.5t-35 -144.5zM292 667q20 -3 34.5 -17.5t14.5 -35.5q0 -24 -16 -40t-40 -16q-23 0 -39.5 15.5t-16.5 40.5q0 21 5 36q19 55 68 100h61q-46 -29 -77 -67q-9 -12 6 -16z" />
    <glyph glyph-name="Hcircumflex" unicode="&#x124;" 
d="M105 722h65v-326h260v326h65v-722h-65v336h-260v-336h-65v722zM304 922l143 -160h-60l-83 70h-8l-81 -70h-61l142 160h8z" />
    <glyph glyph-name="hcircumflex" unicode="&#x125;" 
d="M119 0v722h60v-220l-4 -95h8q26 43 68.5 76.5t93.5 33.5q70 0 106 -44t36 -128v-345h-60v344q0 63 -20.5 91.5t-69.5 28.5t-95 -50.5t-63 -114.5v-299h-60zM276 919l139 -171h-60l-79 77h-8l-79 -77h-59l138 171h8z" />
    <glyph glyph-name="Hbar" unicode="&#x126;" 
d="M105 722h65v-130h260v130h65v-130h50v-66h-50v-526h-65v336h-260v-336h-65v526h-50v66h50v130zM170 396h260v130h-260v-130z" />
    <glyph glyph-name="hbar" unicode="&#x127;" 
d="M74 600v65h45v57h60v-57h175v-65h-175v-98l-4 -95h8q26 43 68.5 76.5t93.5 33.5q70 0 106 -44t36 -128v-345h-60v344q0 63 -20.5 91.5t-69.5 28.5t-95 -50.5t-63 -114.5v-299h-60v600h-45z" />
    <glyph glyph-name="Itilde" unicode="&#x128;" 
d="M268 663l-118 -1v60h300v-60l-117 1v-604l117 1v-60h-300v60l118 -1v604zM196 772h-44q-1 59 23 85.5t60 26.5q20 0 67 -19q50 -20 60 -20q36 0 41 45h44q1 -59 -23 -85.5t-60 -26.5q-20 0 -67 19q-5 2 -15 6.5t-16 7t-13.5 4.5t-14.5 2q-37 0 -42 -45z" />
    <glyph glyph-name="itilde" unicode="&#x129;" 
d="M284 448l-154 -1v55h214v-502h-60v448zM190 585h-43q-1 59 23 87.5t60 28.5q28 0 72 -19q54 -22 65 -22q37 0 42 46h43q1 -59 -23 -87t-60 -28q-28 0 -72 19q-51 22 -65 22q-37 0 -42 -47z" />
    <glyph glyph-name="Imacron" unicode="&#x12a;" 
d="M268 663l-118 -1v60h300v-60l-117 1v-604l117 1v-60h-300v60l118 -1v604zM150 787v64h300v-64h-300z" />
    <glyph glyph-name="imacron" unicode="&#x12b;" 
d="M284 448l-154 -1v55h214v-502h-60v448zM160 600v65h280v-65h-280z" />
    <glyph glyph-name="Ibreve" unicode="&#x12c;" 
d="M268 663l-118 -1v60h300v-60l-117 1v-604l117 1v-60h-300v60l118 -1v604zM300 830q33 0 53.5 16.5t25.5 31.5t6 29h42q2 -60 -31 -99.5t-96 -39.5t-96 39.5t-31 99.5h42q1 -10 4 -20.5t11 -24.5t26.5 -23t43.5 -9z" />
    <glyph glyph-name="ibreve" unicode="&#x12d;" 
d="M284 448l-154 -1v55h214v-502h-60v448zM309 632q22 0 39 8t26 18t14.5 24.5t7 23t1.5 16.5h46q2 -71 -32.5 -113t-102.5 -42q-67 0 -100.5 41.5t-31.5 113.5h46q5 -90 87 -90z" />
    <glyph glyph-name="Iogonek" unicode="&#x12e;" 
d="M333 -134v-42q-49 -27 -95 -27q-43 0 -62 20t-19 49q0 37 35.5 74t86.5 60h-129v60l118 -1v604l-118 -1v60h300v-60l-117 1v-604l117 1v-60h-117q-106 -63 -106 -112q0 -37 48 -37q22 0 58 15z" />
    <glyph glyph-name="iogonek" unicode="&#x12f;" 
d="M344 -134v-42q-50 -27 -95 -27q-43 0 -62 20t-19 49q0 37 35.5 74t86.5 60h-6v448l-154 -1v55h214v-502q-106 -63 -106 -112q0 -37 48 -37q22 0 58 15zM253 662q0 27 17 43.5t43 16.5q27 0 44 -16.5t17 -43.5t-17 -43t-44 -16t-43.5 16t-16.5 43z" />
    <glyph glyph-name="Idotaccent" unicode="&#x130;" 
d="M268 663l-118 -1v60h300v-60l-117 1v-604l117 1v-60h-300v60l118 -1v604zM299 772q-26 0 -41.5 16.5t-15.5 40.5q0 25 15.5 41.5t41.5 16.5q25 0 41 -17t16 -41t-16 -40.5t-41 -16.5z" />
    <glyph glyph-name="dotlessi" unicode="&#x131;" 
d="M284 448l-154 -1v55h214v-502h-60v448z" />
    <glyph glyph-name="Jcircumflex" unicode="&#x134;" 
d="M398 662h-137v60h201v-526q0 -102 -52.5 -156t-139.5 -54q-86 0 -132.5 54.5t-46.5 146.5v100h64v-100q0 -142 117 -142q61 0 93.5 38.5t32.5 112.5v466zM284 922l143 -160h-60l-83 70h-8l-81 -70h-61l142 160h8z" />
    <glyph glyph-name="jcircumflex" unicode="&#x135;" 
d="M324 447h-154v55h214v-518q0 -82 -44.5 -129.5t-119.5 -47.5q-64 0 -103.5 38.5t-46.5 105.5h63q1 -40 23.5 -65t65.5 -25q47 0 74.5 31.5t27.5 85.5v469zM306 729l139 -171h-60l-79 77h-8l-79 -77h-59l138 171h8z" />
    <glyph glyph-name="Kcommaaccent" unicode="&#x136;" 
d="M140 0v722h64v-343h8l234 343h77l-248 -353l280 -369h-81l-262 352h-8v-352h-64zM321 -164q-20 3 -34.5 17.5t-14.5 35.5q0 24 16 40t40 16q23 0 39.5 -15.5t16.5 -40.5q0 -21 -5 -36q-19 -55 -68 -100h-61q46 29 77 67q9 12 -6 16z" />
    <glyph glyph-name="kcommaaccent" unicode="&#x137;" 
d="M150 0v722h60v-442h8l180 223h78l-202 -236l215 -267h-77l-194 251h-8v-251h-60zM303 -164q-20 3 -34.5 17.5t-14.5 35.5q0 24 16 40t40 16q23 0 39.5 -15.5t16.5 -40.5q0 -21 -5 -36q-19 -55 -68 -100h-61q46 29 77 67q9 12 -6 16z" />
    <glyph glyph-name="Lacute" unicode="&#x139;" 
d="M170 0v722h65v-663l305 1v-60h-370zM361 917l38 -78l-206 -80l-23 46z" />
    <glyph glyph-name="lacute" unicode="&#x13a;" 
d="M342 519v-519h-60v667h-166v55h218zM436 917l38 -78l-206 -80l-23 46z" />
    <glyph glyph-name="Lcommaaccent" unicode="&#x13b;" 
d="M170 0v722h65v-663l305 1v-60h-370zM346 -164q-20 3 -34.5 17.5t-14.5 35.5q0 24 16 40t40 16q23 0 39.5 -15.5t16.5 -40.5q0 -21 -5 -36q-19 -55 -68 -100h-61q46 29 77 67q9 12 -6 16z" />
    <glyph glyph-name="lcommaaccent" unicode="&#x13c;" 
d="M342 519v-519h-60v667h-166v55h218zM303 -164q-20 3 -34.5 17.5t-14.5 35.5q0 24 16 40t40 16q23 0 39.5 -15.5t16.5 -40.5q0 -21 -5 -36q-19 -55 -68 -100h-61q46 29 77 67q9 12 -6 16z" />
    <glyph glyph-name="Lcaron" unicode="&#x13d;" 
d="M170 0v722h65v-663l305 1v-60h-370zM364 603q-22 4 -37 20t-15 38q0 27 17 44t43 17q24 0 41.5 -16.5t17.5 -44.5q0 -23 -5 -39q-20 -65 -75 -120h-64q45 30 83 83q11 15 -6 18z" />
    <glyph glyph-name="lcaron" unicode="&#x13e;" 
d="M342 519v-519h-60v667h-166v55h218zM460 603q-22 4 -37 20t-15 38q0 27 17 44t43 17q24 0 41.5 -16.5t17.5 -44.5q0 -23 -5 -39q-20 -65 -75 -120h-64q45 30 83 83q11 15 -6 18z" />
    <glyph glyph-name="Ldot" unicode="&#x13f;" 
d="M170 0v722h65v-663l305 1v-60h-370zM506 421q-29 0 -49.5 -20t-20.5 -50t20.5 -50t49.5 -20t49.5 20t20.5 50t-20.5 50t-49.5 20z" />
    <glyph glyph-name="ldot" unicode="&#x140;" 
d="M342 519v-519h-60v667h-166v55h218zM506 421q-29 0 -49.5 -20t-20.5 -50t20.5 -50t49.5 -20t49.5 20t20.5 50t-20.5 50t-49.5 20z" />
    <glyph glyph-name="Lslash" unicode="&#x141;" 
d="M170 0v299l-87 -53v56l87 54v366h65v-326l191 118v-57l-191 -118v-280l305 1v-60h-370z" />
    <glyph glyph-name="lslash" unicode="&#x142;" 
d="M342 519v-91l98 60v-54l-98 -60v-374h-60v337l-95 -58v54l95 58v276h-166v55h218z" />
    <glyph glyph-name="Nacute" unicode="&#x143;" 
d="M100 0v722h86l247 -609h8v609h59v-722h-85l-248 615h-8v-615h-59zM426 917l38 -78l-206 -80l-23 46z" />
    <glyph glyph-name="nacute" unicode="&#x144;" 
d="M119 0v355q0 86 -19 147h67l6 -99h8q69 114 163 114q70 0 106.5 -44.5t36.5 -127.5v-345h-60v344q0 63 -20.5 91.5t-69.5 28.5t-95.5 -50t-62.5 -113v-301h-60zM443 722l40 -75l-202 -90l-24 42z" />
    <glyph glyph-name="Ncommaaccent" unicode="&#x145;" 
d="M100 0v722h86l247 -609h8v609h59v-722h-85l-248 615h-8v-615h-59zM362 -57v-81q-21 -60 -66 -109h-63q53 36 75 73q4 6 1 11t-10 5h-38v101h101z" />
    <glyph glyph-name="ncommaaccent" unicode="&#x146;" 
d="M119 0v355q0 86 -19 147h67l6 -99h8q69 114 163 114q70 0 106.5 -44.5t36.5 -127.5v-345h-60v344q0 63 -20.5 91.5t-69.5 28.5t-95.5 -50t-62.5 -113v-301h-60zM297 -164q-20 3 -34.5 17.5t-14.5 35.5q0 24 16 40t40 16q23 0 39.5 -15.5t16.5 -40.5q0 -21 -5 -36
q-19 -55 -68 -100h-61q46 29 77 67q9 12 -6 16z" />
    <glyph glyph-name="Ncaron" unicode="&#x147;" 
d="M100 0v722h86l247 -609h8v609h59v-722h-85l-248 615h-8v-615h-59zM447 911l-143 -156h-8l-142 156h61l81 -66h8l83 66h60z" />
    <glyph glyph-name="ncaron" unicode="&#x148;" 
d="M119 0v355q0 86 -19 147h67l6 -99h8q69 114 163 114q70 0 106.5 -44.5t36.5 -127.5v-345h-60v344q0 63 -20.5 91.5t-69.5 28.5t-95.5 -50t-62.5 -113v-301h-60zM461 722l-139 -171h-8l-138 171h59l79 -76h8l79 76h60z" />
    <glyph glyph-name="Eng" unicode="&#x14a;" 
d="M100 0v722h86l247 -611h8l-1 611h60v-722q0 -93 -45.5 -143t-124.5 -50q-74 0 -115.5 39t-44.5 116h64q0 -48 25 -73.5t72 -25.5q50 0 78 29.5t28 87.5q0 20 -22 20l-248 615h-8l1 -615h-60z" />
    <glyph glyph-name="eng" unicode="&#x14b;" 
d="M119 0v355q0 86 -19 147h67l6 -99h8q69 114 163 114q70 0 106.5 -44.5t36.5 -127.5v-370q0 -80 -40 -124t-111 -44q-61 0 -98.5 36t-41.5 101h62q1 -39 21.5 -62t59.5 -23q88 0 88 111v374q0 63 -20.5 91.5t-69.5 28.5t-95.5 -50t-62.5 -113v-301h-60z" />
    <glyph glyph-name="Omacron" unicode="&#x14c;" 
d="M300 -15q-106 0 -161.5 103t-55.5 278q0 163 56 267t161 104t161 -104t56 -267q0 -175 -55.5 -278t-161.5 -103zM300 677q-77 0 -113.5 -86t-36.5 -227q0 -147 36.5 -233t113.5 -86t113.5 86t36.5 233q0 141 -36.5 227t-113.5 86zM150 787v64h300v-64h-300z" />
    <glyph glyph-name="omacron" unicode="&#x14d;" 
d="M300 -17q-95 0 -147.5 79.5t-52.5 188.5q0 62 19.5 119.5t66.5 101t114 43.5t114 -43.5t66.5 -101t19.5 -119.5q0 -109 -52.5 -188.5t-147.5 -79.5zM300 460q-63 0 -99.5 -55t-36.5 -154q0 -55 12 -100.5t43.5 -78.5t80.5 -33t80.5 33t43.5 78.5t12 100.5q0 99 -36.5 154
t-99.5 55zM160 600v65h280v-65h-280z" />
    <glyph glyph-name="Obreve" unicode="&#x14e;" 
d="M300 -15q-106 0 -161.5 103t-55.5 278q0 163 56 267t161 104t161 -104t56 -267q0 -175 -55.5 -278t-161.5 -103zM300 677q-77 0 -113.5 -86t-36.5 -227q0 -147 36.5 -233t113.5 -86t113.5 86t36.5 233q0 141 -36.5 227t-113.5 86zM299 830q33 0 53.5 16.5t25.5 31.5t6 29
h42q2 -60 -31 -99.5t-96 -39.5t-96 39.5t-31 99.5h42q1 -10 4 -20.5t11 -24.5t26.5 -23t43.5 -9z" />
    <glyph glyph-name="obreve" unicode="&#x14f;" 
d="M300 -17q-95 0 -147.5 79.5t-52.5 188.5q0 62 19.5 119.5t66.5 101t114 43.5t114 -43.5t66.5 -101t19.5 -119.5q0 -109 -52.5 -188.5t-147.5 -79.5zM300 460q-63 0 -99.5 -55t-36.5 -154q0 -55 12 -100.5t43.5 -78.5t80.5 -33t80.5 33t43.5 78.5t12 100.5q0 99 -36.5 154
t-99.5 55zM299 632q22 0 39 8t26 18t14.5 24.5t7 23t1.5 16.5h46q2 -71 -32.5 -113t-102.5 -42q-67 0 -100.5 41.5t-31.5 113.5h46q5 -90 87 -90z" />
    <glyph glyph-name="Ohungarumlaut" unicode="&#x150;" 
d="M300 -15q-106 0 -161.5 103t-55.5 278q0 163 56 267t161 104t161 -104t56 -267q0 -175 -55.5 -278t-161.5 -103zM300 677q-77 0 -113.5 -86t-36.5 -227q0 -147 36.5 -233t113.5 -86t113.5 86t36.5 233q0 141 -36.5 227t-113.5 86zM327 936l52 -65l-161 -109l-31 37z
M501 936l52 -65l-162 -109l-31 37z" />
    <glyph glyph-name="ohungarumlaut" unicode="&#x151;" 
d="M300 -17q-95 0 -147.5 79.5t-52.5 188.5q0 62 19.5 119.5t66.5 101t114 43.5t114 -43.5t66.5 -101t19.5 -119.5q0 -109 -52.5 -188.5t-147.5 -79.5zM300 460q-63 0 -99.5 -55t-36.5 -154q0 -55 12 -100.5t43.5 -78.5t80.5 -33t80.5 33t43.5 78.5t12 100.5q0 99 -36.5 154
t-99.5 55zM330 722l52 -65l-175 -119l-31 37zM496 722l52 -65l-175 -119l-31 37z" />
    <glyph glyph-name="OE" unicode="&#x152;" 
d="M304 74v573q-27 32 -63 32q-58 0 -86 -88.5t-28 -226.5q0 -145 28 -232.5t86 -87.5q36 0 63 30zM545 0h-241q-28 -15 -65 -15q-89 0 -133.5 102.5t-44.5 278.5q0 107 18.5 189t59.5 132t100 50q37 0 65 -15h230v-60h-166v-264h152v-60h-152v-278h177v-60z" />
    <glyph glyph-name="oe" unicode="&#x153;" 
d="M203 -17q-42 0 -70.5 40.5t-40.5 98.5t-12 129q0 45 7 89.5t21.5 84.5t39.5 65t57 25q66 0 95 -90q41 89 114 89q126 0 106 -269h-197q0 -204 83 -204q50 0 56 103h63q-12 -73 -39 -115.5t-79 -42.5q-74 0 -109 85q-32 -88 -95 -88zM206 460q-32 0 -48.5 -57t-16.5 -152
q0 -212 65 -212q62 0 62 212q0 209 -62 209zM323 297l142 3q12 161 -58 161q-68 0 -84 -164z" />
    <glyph glyph-name="Racute" unicode="&#x154;" 
d="M120 0v722h152q98 0 163 -52.5t65 -139.5q0 -76 -51.5 -129t-151.5 -65l243 -336h-82l-230 329h-43v-329h-65zM185 663v-274l84 2q76 2 119.5 38t43.5 98q0 65 -43 99.5t-114 35.5zM386 917l38 -78l-206 -80l-23 46z" />
    <glyph glyph-name="racute" unicode="&#x155;" 
d="M204 0v344q0 88 -22 158h72l4 -114h8q56 128 165 128q33 0 59 -14v-61q-29 18 -61 18q-73 0 -114.5 -65.5t-50.5 -155.5v-238h-60zM471 722l40 -75l-202 -90l-24 42z" />
    <glyph glyph-name="Rcommaaccent" unicode="&#x156;" 
d="M120 0v722h152q98 0 163 -52.5t65 -139.5q0 -76 -51.5 -129t-151.5 -65l243 -336h-82l-230 329h-43v-329h-65zM185 663v-274l84 2q76 2 119.5 38t43.5 98q0 65 -43 99.5t-114 35.5zM364 -57v-81q-21 -60 -66 -109h-63q53 36 75 73q4 6 1 11t-10 5h-38v101h101z" />
    <glyph glyph-name="rcommaaccent" unicode="&#x157;" 
d="M204 0v344q0 88 -22 158h72l4 -114h8q56 128 165 128q33 0 59 -14v-61q-29 18 -61 18q-73 0 -114.5 -65.5t-50.5 -155.5v-238h-60zM229 -164q-20 3 -34.5 17.5t-14.5 35.5q0 24 16 40t40 16q23 0 39.5 -15.5t16.5 -40.5q0 -21 -5 -36q-19 -55 -68 -100h-61q46 29 77 67
q9 12 -6 16z" />
    <glyph glyph-name="Rcaron" unicode="&#x158;" 
d="M120 0v722h152q98 0 163 -52.5t65 -139.5q0 -76 -51.5 -129t-151.5 -65l243 -336h-82l-230 329h-43v-329h-65zM185 663v-274l84 2q76 2 119.5 38t43.5 98q0 65 -43 99.5t-114 35.5zM439 911l-143 -156h-8l-142 156h61l81 -66h8l83 66h60z" />
    <glyph glyph-name="rcaron" unicode="&#x159;" 
d="M204 0v344q0 88 -22 158h72l4 -114h8q56 128 165 128q33 0 59 -14v-61q-29 18 -61 18q-73 0 -114.5 -65.5t-50.5 -155.5v-238h-60zM481 722l-139 -171h-8l-138 171h59l79 -76h8l79 76h60z" />
    <glyph glyph-name="Sacute" unicode="&#x15a;" 
d="M90 192h70q0 -19 3.5 -37t13 -38.5t24.5 -35.5t41 -25t60 -10q68 0 103.5 35.5t35.5 93.5q0 57 -38 96.5t-114 66.5q-191 70 -191 210q0 81 54.5 134t141.5 53q85 0 135.5 -45t60.5 -132h-70q-12 119 -128 119q-58 0 -93 -35t-35 -93q0 -55 33.5 -89t114.5 -64
q197 -71 197 -215q0 -89 -57 -142t-153 -53q-88 0 -146.5 54.5t-62.5 151.5zM416 917l38 -78l-206 -80l-23 46z" />
    <glyph glyph-name="sacute" unicode="&#x15b;" 
d="M124 139h66q-2 -36 28 -67.5t87 -31.5q49 0 78 23t29 62q0 42 -28 64.5t-94 43.5q-155 49 -155 145q0 61 44 99.5t117 38.5q67 0 113 -38t53 -105h-64q-1 39 -30 64.5t-74 25.5q-43 0 -70.5 -21t-27.5 -58q0 -36 27 -56.5t87 -39.5q34 -11 58 -21.5t51 -28t41.5 -44.5
t14.5 -61q0 -65 -47 -106.5t-124 -41.5q-73 0 -123.5 40t-56.5 114zM413 722l40 -75l-202 -90l-24 42z" />
    <glyph glyph-name="Scircumflex" unicode="&#x15c;" 
d="M90 192h70q0 -19 3.5 -37t13 -38.5t24.5 -35.5t41 -25t60 -10q68 0 103.5 35.5t35.5 93.5q0 57 -38 96.5t-114 66.5q-191 70 -191 210q0 81 54.5 134t141.5 53q85 0 135.5 -45t60.5 -132h-70q-12 119 -128 119q-58 0 -93 -35t-35 -93q0 -55 33.5 -89t114.5 -64
q197 -71 197 -215q0 -89 -57 -142t-153 -53q-88 0 -146.5 54.5t-62.5 151.5zM304 922l143 -160h-60l-83 70h-8l-81 -70h-61l142 160h8z" />
    <glyph glyph-name="scircumflex" unicode="&#x15d;" 
d="M124 139h66q-2 -36 28 -67.5t87 -31.5q49 0 78 23t29 62q0 42 -28 64.5t-94 43.5q-155 49 -155 145q0 61 44 99.5t117 38.5q67 0 113 -38t53 -105h-64q-1 39 -30 64.5t-74 25.5q-43 0 -70.5 -21t-27.5 -58q0 -36 27 -56.5t87 -39.5q34 -11 58 -21.5t51 -28t41.5 -44.5
t14.5 -61q0 -65 -47 -106.5t-124 -41.5q-73 0 -123.5 40t-56.5 114zM306 729l139 -171h-60l-79 77h-8l-79 -77h-59l138 171h8z" />
    <glyph glyph-name="Scedilla" unicode="&#x15e;" 
d="M178 -189l22 45q35 -24 81 -24q26 0 42.5 11t16.5 30q0 34 -49 34q-25 0 -44 -8l-27 23l46 66q-76 10 -124 63t-52 141h70q0 -19 3.5 -37t13 -38.5t24.5 -35.5t41 -25t60 -10q68 0 103.5 35.5t35.5 93.5q0 57 -38 96.5t-114 66.5q-191 70 -191 210q0 81 54.5 134
t141.5 53q85 0 135.5 -45t60.5 -132h-70q-12 119 -128 119q-58 0 -93 -35t-35 -93q0 -55 33.5 -89t114.5 -64q197 -71 197 -215q0 -84 -50.5 -135.5t-137.5 -58.5l-42 -44l5 -6q26 8 49 8q30 0 50 -18.5t20 -48.5q0 -38 -31 -65t-87 -27q-66 0 -107 25z" />
    <glyph glyph-name="scedilla" unicode="&#x15f;" 
d="M188 -189l22 45q35 -24 81 -24q26 0 42.5 11t16.5 30q0 34 -49 34q-25 0 -44 -8l-27 23l45 65q-63 7 -104.5 46t-46.5 106h66q-2 -36 28 -67.5t87 -31.5q49 0 78 23t29 62q0 42 -28 64.5t-94 43.5q-155 49 -155 145q0 61 44 99.5t117 38.5q67 0 113 -38t53 -105h-64
q-1 39 -30 64.5t-74 25.5q-43 0 -70.5 -21t-27.5 -58q0 -36 27 -56.5t87 -39.5q34 -11 58 -21.5t51 -28t41.5 -44.5t14.5 -61q0 -59 -39 -99t-105 -47l-42 -44l5 -6q26 8 49 8q30 0 50 -18.5t20 -48.5q0 -38 -31 -65t-87 -27q-66 0 -107 25z" />
    <glyph glyph-name="Scaron" unicode="&#x160;" 
d="M90 192h70q0 -19 3.5 -37t13 -38.5t24.5 -35.5t41 -25t60 -10q68 0 103.5 35.5t35.5 93.5q0 57 -38 96.5t-114 66.5q-191 70 -191 210q0 81 54.5 134t141.5 53q85 0 135.5 -45t60.5 -132h-70q-12 119 -128 119q-58 0 -93 -35t-35 -93q0 -55 33.5 -89t114.5 -64
q197 -71 197 -215q0 -89 -57 -142t-153 -53q-88 0 -146.5 54.5t-62.5 151.5zM447 911l-143 -156h-8l-142 156h61l81 -66h8l83 66h60z" />
    <glyph glyph-name="scaron" unicode="&#x161;" 
d="M124 139h66q-2 -36 28 -67.5t87 -31.5q49 0 78 23t29 62q0 42 -28 64.5t-94 43.5q-155 49 -155 145q0 61 44 99.5t117 38.5q67 0 113 -38t53 -105h-64q-1 39 -30 64.5t-74 25.5q-43 0 -70.5 -21t-27.5 -58q0 -36 27 -56.5t87 -39.5q34 -11 58 -21.5t51 -28t41.5 -44.5
t14.5 -61q0 -65 -47 -106.5t-124 -41.5q-73 0 -123.5 40t-56.5 114zM441 722l-139 -171h-8l-138 171h59l79 -76h8l79 76h60z" />
    <glyph glyph-name="uni0162" unicode="&#x162;" 
d="M167 -198l22 45q35 -24 81 -24q26 0 42.5 11t16.5 30q0 34 -49 34q-25 0 -44 -8l-27 23l61 87h-2v663l-198 -1v60h460v-60l-198 1v-663l-64 -66l5 -6q26 8 49 8q30 0 50 -18.5t20 -48.5q0 -38 -31 -65t-87 -27q-66 0 -107 25z" />
    <glyph glyph-name="uni0163" unicode="&#x163;" 
d="M192 -189l22 45q35 -24 81 -24q26 0 42.5 11t16.5 30q0 34 -49 34q-25 0 -44 -8l-27 23l53 77q-98 29 -98 156v292h-119v55h119l13 169h47v-169h194v-55h-194v-293q0 -53 23 -80.5t76 -27.5q63 0 122 31v-64q-60 -23 -121 -23h-11l-45 -47l5 -6q26 8 49 8q30 0 50 -18.5
t20 -48.5q0 -38 -31 -65t-87 -27q-66 0 -107 25z" />
    <glyph glyph-name="Tcaron" unicode="&#x164;" 
d="M332 0h-64v663l-198 -1v60h460v-60l-198 1v-663zM447 911l-143 -156h-8l-142 156h61l81 -66h8l83 66h60z" />
    <glyph glyph-name="tcaron" unicode="&#x165;" 
d="M249 447v-293q0 -53 23 -80.5t76 -27.5q63 0 122 31v-64q-60 -23 -121 -23q-82 0 -121 45.5t-39 119.5v292h-119v55h119l13 169h47v-169h194v-55h-194zM377 653q-22 4 -37 20t-15 38q0 27 16.5 44t43.5 17q24 0 41.5 -16.5t17.5 -44.5q0 -23 -5 -39q-20 -65 -75 -120h-64
q45 30 83 83q11 15 -6 18z" />
    <glyph glyph-name="Tbar" unicode="&#x166;" 
d="M160 339v54h108v270l-198 -1v60h460v-60l-198 1v-270h108v-54h-108v-339h-64v339h-108z" />
    <glyph glyph-name="tbar" unicode="&#x167;" 
d="M76 242v50h113v155h-119v55h119l13 169h47v-169h194v-55h-194v-155h182v-50h-182v-88q0 -53 23 -80.5t76 -27.5q63 0 122 31v-64q-60 -23 -121 -23q-82 0 -121 45.5t-39 119.5v87h-113z" />
    <glyph glyph-name="Utilde" unicode="&#x168;" 
d="M95 722h67v-496q0 -181 138 -181q140 0 140 182v495h65v-489q0 -117 -53.5 -182.5t-151.5 -65.5q-101 0 -153 65.5t-52 180.5v491zM196 772h-44q-1 59 23 85.5t60 26.5q20 0 67 -19q50 -20 60 -20q36 0 41 45h44q1 -59 -23 -85.5t-60 -26.5q-20 0 -67 19q-5 2 -15 6.5
t-16 7t-13.5 4.5t-14.5 2q-37 0 -42 -45z" />
    <glyph glyph-name="utilde" unicode="&#x169;" 
d="M481 502v-355q0 -90 19 -147h-69l-4 94h-8q-75 -109 -168 -109q-67 0 -102.5 45.5t-35.5 126.5v345h60v-344q0 -60 21.5 -89.5t68.5 -29.5q50 0 95 48t63 112v303h60zM193 585h-43q-1 59 23 87.5t60 28.5q28 0 72 -19q54 -22 65 -22q37 0 42 46h43q1 -59 -23 -87t-60 -28
q-28 0 -72 19q-51 22 -65 22q-37 0 -42 -47z" />
    <glyph glyph-name="Umacron" unicode="&#x16a;" 
d="M95 722h67v-496q0 -181 138 -181q140 0 140 182v495h65v-489q0 -117 -53.5 -182.5t-151.5 -65.5q-101 0 -153 65.5t-52 180.5v491zM150 787v64h300v-64h-300z" />
    <glyph glyph-name="umacron" unicode="&#x16b;" 
d="M481 502v-355q0 -90 19 -147h-69l-4 94h-8q-75 -109 -168 -109q-67 0 -102.5 45.5t-35.5 126.5v345h60v-344q0 -60 21.5 -89.5t68.5 -29.5q50 0 95 48t63 112v303h60zM160 600v65h280v-65h-280z" />
    <glyph glyph-name="Ubreve" unicode="&#x16c;" 
d="M95 722h67v-496q0 -181 138 -181q140 0 140 182v495h65v-489q0 -117 -53.5 -182.5t-151.5 -65.5q-101 0 -153 65.5t-52 180.5v491zM299 830q33 0 53.5 16.5t25.5 31.5t6 29h42q2 -60 -31 -99.5t-96 -39.5t-96 39.5t-31 99.5h42q1 -10 4 -20.5t11 -24.5t26.5 -23t43.5 -9z
" />
    <glyph glyph-name="ubreve" unicode="&#x16d;" 
d="M481 502v-355q0 -90 19 -147h-69l-4 94h-8q-75 -109 -168 -109q-67 0 -102.5 45.5t-35.5 126.5v345h60v-344q0 -60 21.5 -89.5t68.5 -29.5q50 0 95 48t63 112v303h60zM299 632q22 0 39 8t26 18t14.5 24.5t7 23t1.5 16.5h46q2 -71 -32.5 -113t-102.5 -42
q-67 0 -100.5 41.5t-31.5 113.5h46q5 -90 87 -90z" />
    <glyph glyph-name="Uring" unicode="&#x16e;" 
d="M95 722h67v-496q0 -181 138 -181q140 0 140 182v495h65v-489q0 -117 -53.5 -182.5t-151.5 -65.5q-101 0 -153 65.5t-52 180.5v491zM210 849q0 37 26 61.5t64 24.5t64 -24.5t26 -61.5t-26 -62t-64 -25t-64 25t-26 62zM254 849q0 -19 13.5 -32t32.5 -13t32.5 12.5
t13.5 32.5q0 19 -14 32t-32 13q-19 0 -32.5 -12.5t-13.5 -32.5z" />
    <glyph glyph-name="uring" unicode="&#x16f;" 
d="M481 502v-355q0 -90 19 -147h-69l-4 94h-8q-75 -109 -168 -109q-67 0 -102.5 45.5t-35.5 126.5v345h60v-344q0 -60 21.5 -89.5t68.5 -29.5q50 0 95 48t63 112v303h60zM214 637q0 36 26 60.5t63 24.5t63 -24.5t26 -60.5t-26 -61t-63 -25t-63 25t-26 61zM255 637
q0 -20 14.5 -33.5t33.5 -13.5t33 13.5t14 33.5t-14 33.5t-33 13.5t-33.5 -13.5t-14.5 -33.5z" />
    <glyph glyph-name="Uhungarumlaut" unicode="&#x170;" 
d="M95 722h67v-496q0 -181 138 -181q140 0 140 182v495h65v-489q0 -117 -53.5 -182.5t-151.5 -65.5q-101 0 -153 65.5t-52 180.5v491zM307 936l52 -65l-161 -109l-31 37zM481 936l52 -65l-162 -109l-31 37z" />
    <glyph glyph-name="uhungarumlaut" unicode="&#x171;" 
d="M481 502v-355q0 -90 19 -147h-69l-4 94h-8q-75 -109 -168 -109q-67 0 -102.5 45.5t-35.5 126.5v345h60v-344q0 -60 21.5 -89.5t68.5 -29.5q50 0 95 48t63 112v303h60zM299 722l52 -65l-175 -119l-31 37zM465 722l52 -65l-175 -119l-31 37z" />
    <glyph glyph-name="Uogonek" unicode="&#x172;" 
d="M382 -134v-42q-49 -27 -95 -27q-43 0 -62 20t-19 49q0 31 26 63t67 56q-101 1 -152.5 66t-51.5 180v491h67v-496q0 -181 138 -181q140 0 140 182v495h65v-489q0 -89 -32 -149.5t-92 -83.5q-105 -62 -105 -112q0 -37 48 -37q22 0 58 15z" />
    <glyph glyph-name="uogonek" unicode="&#x173;" 
d="M500 -134v-42q-50 -27 -95 -27q-43 0 -62 20t-19 49q0 37 35.5 74t86.5 60h-15l-4 94h-8q-75 -109 -168 -109q-67 0 -102.5 45.5t-35.5 126.5v345h60v-344q0 -60 21.5 -89.5t68.5 -29.5q50 0 95 48t63 112v303h60v-355q0 -90 19 -147q-106 -63 -106 -112q0 -37 48 -37
q22 0 58 15z" />
    <glyph glyph-name="Wcircumflex" unicode="&#x174;" 
d="M80 722h62l41 -630h8l74 536h73l70 -536h8l44 630h60l-67 -722h-82l-66 519h-8l-72 -519h-85zM304 922l143 -160h-60l-83 70h-8l-81 -70h-61l142 160h8z" />
    <glyph glyph-name="wcircumflex" unicode="&#x175;" 
d="M383 0l-79 351h-8l-79 -351h-66l-71 502h60l44 -413h8l75 344h66l76 -344h8l43 413h60l-71 -502h-66zM306 729l139 -171h-60l-79 77h-8l-79 -77h-59l138 171h8z" />
    <glyph glyph-name="Ycircumflex" unicode="&#x176;" 
d="M335 290v-290h-65v290q0 14 -14 17l-176 415h72l147 -373h8l145 373h68l-172 -415q-13 -5 -13 -17zM307 922l143 -160h-60l-83 70h-8l-81 -70h-61l142 160h8z" />
    <glyph glyph-name="ycircumflex" unicode="&#x177;" 
d="M492 502q-169 -569 -184 -613q-26 -78 -115 -78q-48 0 -77 13l6 57q38 -15 72 -15q46 0 61 41q14 36 28 93q4 17 -4.5 27.5t-27.5 7.5l-145 467h67l125 -435h8l121 435h65zM306 729l139 -171h-60l-79 77h-8l-79 -77h-59l138 171h8z" />
    <glyph glyph-name="Ydieresis" unicode="&#x178;" 
d="M335 290v-290h-65v290q0 14 -14 17l-176 415h72l147 -373h8l145 373h68l-172 -415q-13 -5 -13 -17zM398 772q-26 0 -41.5 16.5t-15.5 40.5q0 25 15.5 41.5t41.5 16.5q25 0 41 -17t16 -41t-16 -40.5t-41 -16.5zM208 772q-25 0 -41 16.5t-16 40.5t16 41t41 17
q26 0 41.5 -16.5t15.5 -41.5q0 -24 -15.5 -40.5t-41.5 -16.5z" />
    <glyph glyph-name="Zacute" unicode="&#x179;" 
d="M85 0v60l363 602h-348v60h415v-61l-362 -601h356v-60h-424zM389 917l38 -78l-206 -80l-23 46z" />
    <glyph glyph-name="zacute" unicode="&#x17a;" 
d="M120 0v59l296 388h-288v55h352v-59l-298 -388h298v-55h-360zM403 722l40 -75l-202 -90l-24 42z" />
    <glyph glyph-name="Zdotaccent" unicode="&#x17b;" 
d="M85 0v60l363 602h-348v60h415v-61l-362 -601h356v-60h-424zM311 772q-26 0 -41.5 16.5t-15.5 40.5q0 25 15.5 41.5t41.5 16.5q25 0 41 -17t16 -41t-16 -40.5t-41 -16.5z" />
    <glyph glyph-name="zdotaccent" unicode="&#x17c;" 
d="M120 0v59l296 388h-288v55h352v-59l-298 -388h298v-55h-360zM249 662q0 27 17 43.5t43 16.5q27 0 44 -16.5t17 -43.5t-17 -43t-44 -16t-43.5 16t-16.5 43z" />
    <glyph glyph-name="Zcaron" unicode="&#x17d;" 
d="M85 0v60l363 602h-348v60h415v-61l-362 -601h356v-60h-424zM453 911l-143 -156h-8l-142 156h61l81 -66h8l83 66h60z" />
    <glyph glyph-name="zcaron" unicode="&#x17e;" 
d="M120 0v59l296 388h-288v55h352v-59l-298 -388h298v-55h-360zM443 722l-139 -171h-8l-138 171h59l79 -76h8l79 76h60z" />
    <glyph glyph-name="florin" unicode="&#x192;" 
d="M210 -37l68 408h-83v53h93l20 127q11 73 53 114t104 41q25 0 48 -4v-54q-22 2 -37 2q-89 0 -104 -99l-19 -127h86v-53h-97l-65 -411q-11 -72 -54 -111.5t-107 -39.5q-26 0 -46 5v54q22 -2 37 -2q87 0 103 97z" />
    <glyph glyph-name="Aringacute" unicode="&#x1fa;" 
d="M189 255h218l-107 405h-8zM173 195l-49 -195h-64l191 722h88l201 -722h-67l-51 195h-249zM210 849q0 37 26 61.5t64 24.5t64 -24.5t26 -61.5t-26 -62t-64 -25t-64 25t-26 62zM254 849q0 -19 13.5 -32t32.5 -13t32.5 12.5t13.5 32.5q0 19 -14 32t-32 13q-19 0 -32.5 -12.5
t-13.5 -32.5zM416 1117l38 -78l-206 -80l-23 46z" />
    <glyph glyph-name="aringacute" unicode="&#x1fb;" 
d="M495 0h-76l-8 76h-8q-33 -44 -69.5 -67t-90.5 -23q-63 0 -101 40.5t-38 107.5q0 70 46 118t118 48q58 0 135 -21v68q0 116 -108 116q-52 0 -79 -27t-32 -67h-71q17 67 65 106.5t118 39.5q78 0 121.5 -43t43.5 -124v-206q0 -76 34 -142zM403 148v85q-67 17 -126 16
q-55 -1 -83 -31.5t-28 -81.5q0 -44 23.5 -70.5t67.5 -26.5q35 0 66.5 20t46.5 40t33 49zM211 637q0 36 26 60.5t63 24.5t63 -24.5t26 -60.5t-26 -61t-63 -25t-63 25t-26 61zM252 637q0 -20 14.5 -33.5t33.5 -13.5t33 13.5t14 33.5t-14 33.5t-33 13.5t-33.5 -13.5
t-14.5 -33.5zM403 935l40 -75l-202 -90l-24 42z" />
    <glyph glyph-name="AEacute" unicode="&#x1fc;" 
d="M329 163h-179l-36 -163h-64l167 722h315v-60h-209l36 -264h159v-60h-151l38 -278h140v-60h-195zM257 652l-94 -429h158l-56 429h-8zM476 917l38 -78l-206 -80l-23 46z" />
    <glyph glyph-name="aeacute" unicode="&#x1fd;" 
d="M520 245h-197q0 -204 83 -204q50 0 56 103h63q-12 -73 -39 -115.5t-79 -42.5q-83 0 -117 105q-25 -51 -53.5 -78t-69.5 -27q-48 0 -76 47t-28 109q0 67 33.5 114t87.5 47q8 0 14.5 -0.5t12.5 -1.5t10 -2t11 -3.5t9.5 -3.5t11 -5t11.5 -5v65q0 60 -16 89t-53 29
q-28 0 -45 -27t-20 -68h-65q18 71 48.5 108t85.5 37q78 0 105 -82q40 81 110 81q126 0 106 -269zM264 146v88q-44 18 -71 17q-70 -3 -70 -110q0 -44 13.5 -72.5t39.5 -28.5q21 0 39.5 19.5t26 35.5t22.5 51zM323 297l142 3q12 161 -58 161q-68 0 -84 -164zM453 722l40 -75
l-202 -90l-24 42z" />
    <glyph glyph-name="Oslashacute" unicode="&#x1fe;" 
d="M301 -15q-94 0 -151 88l-54 -88l-41 26l70 113q-40 95 -40 242q0 162 57 266.5t159 104.5q90 0 148 -88l55 88l40 -25l-69 -112q42 -95 42 -234q0 -173 -56.5 -277t-159.5 -104zM451 364q0 101 -17 169l-248 -401q38 -87 115 -87t113.5 86t36.5 233zM301 677
q-77 0 -113.5 -86t-36.5 -227q0 -101 16 -172l247 400q-38 85 -113 85zM417 917l38 -78l-206 -80l-23 46z" />
    <glyph glyph-name="oslashacute" unicode="&#x1ff;" 
d="M300 -17q-65 0 -113 42l-50 -81l-37 24l56 91q-56 77 -56 192q0 62 19.5 119.5t66.5 101t114 43.5q63 0 113 -43l50 81l37 -24l-57 -92q57 -79 57 -186q0 -109 -52.5 -188.5t-147.5 -79.5zM300 461q-63 0 -100 -55.5t-37 -154.5q0 -83 27 -138l194 312q-34 36 -84 36z
M300 38q49 0 81 33.5t44 79t12 100.5q0 79 -26 134l-194 -313q32 -34 83 -34zM424 722l40 -75l-202 -90l-24 42z" />
    <glyph glyph-name="uni0218" unicode="&#x218;" 
d="M90 192h70q0 -19 3.5 -37t13 -38.5t24.5 -35.5t41 -25t60 -10q68 0 103.5 35.5t35.5 93.5q0 57 -38 96.5t-114 66.5q-191 70 -191 210q0 81 54.5 134t141.5 53q85 0 135.5 -45t60.5 -132h-70q-12 119 -128 119q-58 0 -93 -35t-35 -93q0 -55 33.5 -89t114.5 -64
q197 -71 197 -215q0 -89 -57 -142t-153 -53q-88 0 -146.5 54.5t-62.5 151.5zM303 -164q-20 3 -34.5 17.5t-14.5 35.5q0 24 16 40t40 16q23 0 39.5 -15.5t16.5 -40.5q0 -21 -5 -36q-19 -55 -68 -100h-61q46 29 77 67q9 12 -6 16z" />
    <glyph glyph-name="uni0219" unicode="&#x219;" 
d="M124 139h66q-2 -36 28 -67.5t87 -31.5q49 0 78 23t29 62q0 42 -28 64.5t-94 43.5q-155 49 -155 145q0 61 44 99.5t117 38.5q67 0 113 -38t53 -105h-64q-1 39 -30 64.5t-74 25.5q-43 0 -70.5 -21t-27.5 -58q0 -36 27 -56.5t87 -39.5q34 -11 58 -21.5t51 -28t41.5 -44.5
t14.5 -61q0 -65 -47 -106.5t-124 -41.5q-73 0 -123.5 40t-56.5 114zM297 -164q-20 3 -34.5 17.5t-14.5 35.5q0 24 16 40t40 16q23 0 39.5 -15.5t16.5 -40.5q0 -21 -5 -36q-19 -55 -68 -100h-61q46 29 77 67q9 12 -6 16z" />
    <glyph glyph-name="uni021A" unicode="&#x21a;" 
d="M332 0h-64v663l-198 -1v60h460v-60l-198 1v-663zM291 -164q-20 3 -34.5 17.5t-14.5 35.5q0 24 16 40t40 16q23 0 39.5 -15.5t16.5 -40.5q0 -21 -5 -36q-19 -55 -68 -100h-61q46 29 77 67q9 12 -6 16z" />
    <glyph glyph-name="uni021B" unicode="&#x21b;" horiz-adv-x="603" 
d="M249 447v-293q0 -53 23 -80.5t76 -27.5q63 0 122 31v-64q-60 -23 -121 -23q-82 0 -121 45.5t-39 119.5v292h-119v55h119l13 169h47v-169h194v-55h-194zM330 -164q-20 3 -34.5 17.5t-14.5 35.5q0 24 16 40t40 16q23 0 39.5 -15.5t16.5 -40.5q0 -21 -5 -36
q-19 -55 -68 -100h-61q46 29 77 67q9 12 -6 16z" />
    <glyph glyph-name="circumflex" unicode="&#x2c6;" 
d="M304 729l139 -171h-60l-79 77h-8l-79 -77h-59l138 171h8z" />
    <glyph glyph-name="caron" unicode="&#x2c7;" 
d="M443 722l-139 -171h-8l-138 171h59l79 -76h8l79 76h60z" />
    <glyph glyph-name="breve" unicode="&#x2d8;" 
d="M299 632q22 0 39 8t26 18t14.5 24.5t7 23t1.5 16.5h46q2 -71 -32.5 -113t-102.5 -42q-67 0 -100.5 41.5t-31.5 113.5h46q5 -90 87 -90z" />
    <glyph glyph-name="dotaccent" unicode="&#x2d9;" 
d="M239 662q0 27 17 43.5t43 16.5q27 0 44 -16.5t17 -43.5t-17 -43t-44 -16t-43.5 16t-16.5 43z" />
    <glyph glyph-name="ring" unicode="&#x2da;" 
d="M211 637q0 36 26 60.5t63 24.5t63 -24.5t26 -60.5t-26 -61t-63 -25t-63 25t-26 61zM252 637q0 -20 14.5 -33.5t33.5 -13.5t33 13.5t14 33.5t-14 33.5t-33 13.5t-33.5 -13.5t-14.5 -33.5z" />
    <glyph glyph-name="ogonek" unicode="&#x2db;" 
d="M378 -134v-42q-50 -27 -95 -27q-43 0 -62 20t-19 49q0 37 35.5 74t86.5 60h54q-106 -63 -106 -112q0 -37 48 -37q22 0 58 15z" />
    <glyph glyph-name="tilde" unicode="&#x2dc;" 
d="M190 585h-43q-1 59 23 87.5t60 28.5q28 0 72 -19q54 -22 65 -22q37 0 42 46h43q1 -59 -23 -87t-60 -28q-28 0 -72 19q-51 22 -65 22q-37 0 -42 -47z" />
    <glyph glyph-name="hungarumlaut" unicode="&#x2dd;" 
d="M268 722l52 -65l-175 -119l-31 37zM434 722l52 -65l-175 -119l-31 37z" />
    <glyph glyph-name="pi" unicode="&#x3c0;" 
d="M545 57v-51q-37 -15 -70 -15q-40 0 -63.5 28t-23.5 76v348h-193v-443h-65v443h-80l5 59h489v-59h-92v-341q0 -53 54 -53q17 0 39 8z" />
    <glyph glyph-name="afii10023" unicode="&#x401;" 
d="M145 0v722h352v-60h-287v-264h273v-60h-273v-278h298v-60h-363zM418 772q-26 0 -41.5 16.5t-15.5 40.5q0 25 15.5 41.5t41.5 16.5q25 0 41 -17t16 -41t-16 -40.5t-41 -16.5zM228 772q-25 0 -41 16.5t-16 40.5t16 41t41 17q26 0 41.5 -16.5t15.5 -41.5q0 -24 -15.5 -40.5
t-41.5 -16.5z" />
    <glyph glyph-name="afii10051" unicode="&#x402;" 
d="M181 0v663l-146 -1v60h378v-60l-168 1v-161l-4 -108h8q27 48 61 78t84 30q67 0 101.5 -42.5t34.5 -123.5v-168q0 -78 -44.5 -123t-121.5 -45v58q49 -2 77.5 25.5t28.5 80.5v171q0 60 -20 87.5t-64 27.5q-48 0 -86 -49t-55 -116v-285h-64z" />
    <glyph glyph-name="afii10052" unicode="&#x403;" 
d="M170 0v722h370v-60l-305 1v-663h-65zM474 917l38 -78l-206 -80l-23 46z" />
    <glyph glyph-name="afii10053" unicode="&#x404;" 
d="M517 528h-69q-8 151 -110 151q-83 0 -126 -78.5t-49 -202.5l245 1v-61l-246 1q2 -55 12.5 -104.5t30 -93.5t54 -70t79.5 -26q108 0 117 155h70q-11 -99 -59 -157t-127 -58q-66 0 -115.5 36t-76.5 94.5t-39.5 120.5t-12.5 125q0 69 14 133t41.5 120t76.5 89.5t112 33.5
q79 0 124 -56t54 -153z" />
    <glyph glyph-name="afii10054" unicode="&#x405;" 
d="M90 192h70q0 -19 3.5 -37t13 -38.5t24.5 -35.5t41 -25t60 -10q68 0 103.5 35.5t35.5 93.5q0 109 -152 164q-191 70 -191 209q0 81 54.5 134t141.5 53q85 0 135.5 -45t60.5 -132h-70q-12 119 -128 119q-58 0 -93 -35t-35 -93q0 -56 33.5 -89.5t114.5 -63.5
q198 -72 198 -215q0 -89 -57 -142t-154 -53q-88 0 -146.5 54.5t-62.5 151.5z" />
    <glyph glyph-name="afii10055" unicode="&#x406;" 
d="M268 663l-118 -1v60h300v-60l-117 1v-604l117 1v-60h-300v60l118 -1v604z" />
    <glyph glyph-name="afii10056" unicode="&#x407;" 
d="M268 663l-118 -1v60h300v-60l-117 1v-604l117 1v-60h-300v60l118 -1v604zM395 772q-26 0 -41.5 16.5t-15.5 40.5q0 25 15.5 41.5t41.5 16.5q25 0 41 -17t16 -41t-16 -40.5t-41 -16.5zM205 772q-25 0 -41 16.5t-16 40.5t16 41t41 17q26 0 41.5 -16.5t15.5 -41.5
q0 -24 -15.5 -40.5t-41.5 -16.5z" />
    <glyph glyph-name="afii10057" unicode="&#x408;" 
d="M398 662h-137v60h201v-526q0 -102 -52.5 -156t-139.5 -54q-86 0 -132.5 54.5t-46.5 146.5v100h64v-100q0 -142 117 -142q61 0 93.5 38.5t32.5 112.5v466z" />
    <glyph glyph-name="afii10058" unicode="&#x409;" 
d="M331 416h15q96 0 160 -56t64 -149q0 -95 -65.5 -153t-162.5 -58h-74v667h-53l-22 -468q-5 -108 -37 -156.5t-94 -48.5q-18 0 -42 6v56q56 -8 80.5 22.5t29.5 127.5l27 516h174v-306zM331 357v-297l18 1q73 4 113.5 41t40.5 108q0 67 -42.5 105t-109.5 41z" />
    <glyph glyph-name="afii10059" unicode="&#x40a;" 
d="M311 416h15q96 0 160 -56t64 -149q0 -95 -65.5 -153t-162.5 -58h-75v356h-103v-356h-64v722h64v-306h103v306h64v-306zM311 357v-297l18 1q73 4 113.5 41t40.5 108q0 67 -42.5 105t-109.5 41z" />
    <glyph glyph-name="afii10060" unicode="&#x40b;" 
d="M267 0h-64v663l-153 -1v60h385v-60l-168 1v-196h31q222 0 222 -204v-263h-64v264q0 75 -37 109.5t-119 35.5h-33v-409z" />
    <glyph glyph-name="afii10061" unicode="&#x40c;" 
d="M140 0v722h64v-348h8l234 348h77l-249 -358l281 -364h-81l-262 347h-8v-347h-64zM436 917l38 -78l-206 -80l-23 46z" />
    <glyph glyph-name="afii10062" unicode="&#x40e;" 
d="M515 722l-199 -636q-31 -100 -132 -100q-38 0 -81 19l13 62q31 -19 69 -19q51 0 71 55q14 40 28 93q4 16 -4.5 25.5t-24.5 7.5l-180 493h73l157 -461h9l132 461h69zM299 830q33 0 53.5 16.5t25.5 31.5t6 29h42q2 -60 -31 -99.5t-96 -39.5t-96 39.5t-31 99.5h42
q1 -10 4 -20.5t11 -24.5t26.5 -23t43.5 -9z" />
    <glyph glyph-name="afii10145" unicode="&#x40f;" 
d="M268 0l2 -133h62l2 133h-66zM495 0h-390v722h65v-665h260v665h65v-722z" />
    <glyph glyph-name="afii10017" unicode="&#x410;" 
d="M189 255h218l-107 405h-8zM173 195l-49 -195h-64l191 722h88l201 -722h-67l-51 195h-249z" />
    <glyph glyph-name="afii10018" unicode="&#x411;" 
d="M205 363v-303l63 1q81 1 127.5 38.5t46.5 112.5q0 73 -46.5 111t-115.5 39zM140 0v722h340v-61l-275 2v-241h69q103 0 169.5 -55.5t66.5 -153.5q0 -102 -70 -157.5t-176 -55.5h-124z" />
    <glyph glyph-name="afii10019" unicode="&#x412;" 
d="M120 0v722h143q94 0 157.5 -53t63.5 -136q0 -64 -35.5 -105t-77.5 -57v-4q42 -9 88 -56t46 -117q0 -85 -64.5 -139.5t-166.5 -54.5h-154zM185 335v-276l96 1q73 1 113.5 37t40.5 99q0 64 -45.5 100.5t-110.5 37.5zM185 663v-269l82 1q61 1 104 33.5t43 99.5
q0 63 -42.5 98t-103.5 36z" />
    <glyph glyph-name="afii10020" unicode="&#x413;" 
d="M170 0v722h370v-60l-305 1v-663h-65z" />
    <glyph glyph-name="afii10021" unicode="&#x414;" 
d="M110 0v-133h-66l-4 133v62h10q111 0 131 171l59 489h250v-660h65v-62l-4 -133h-61v133h-380zM245 229q-15 -128 -81 -172h262v610h-130z" />
    <glyph glyph-name="afii10022" unicode="&#x415;" 
d="M145 0v722h352v-60h-287v-264h273v-60h-273v-278h298v-60h-363z" />
    <glyph glyph-name="afii10024" unicode="&#x416;" 
d="M263 365h8l-2 357h62l-2 -357h8l133 357h70l-150 -366l175 -356h-73l-155 341h-8l2 -341h-62l2 341h-8l-155 -341h-73l174 356l-149 366h70z" />
    <glyph glyph-name="afii10025" unicode="&#x417;" 
d="M56 182h73q8 -63 49.5 -100t106.5 -37q69 0 111 38.5t42 103.5q0 70 -43.5 108t-118.5 45q-33 3 -69 3v55q30 0 60 3q161 15 161 146q0 62 -40 96t-101 34q-113 0 -144 -114h-72q20 83 77 128.5t140 45.5q91 0 149 -50.5t58 -132.5q0 -122 -123 -177v-8q62 -20 99 -66.5
t37 -116.5q0 -88 -61 -144.5t-163 -56.5q-96 0 -155.5 54.5t-72.5 142.5z" />
    <glyph glyph-name="afii10026" unicode="&#x418;" 
d="M500 722v-722h-61v608h-8l-250 -608h-81v722h61v-607h8l249 607h82z" />
    <glyph glyph-name="afii10027" unicode="&#x419;" 
d="M500 722v-722h-61v608h-8l-250 -608h-81v722h61v-607h8l249 607h82zM299 830q33 0 53.5 16.5t25.5 31.5t6 29h42q2 -60 -31 -99.5t-96 -39.5t-96 39.5t-31 99.5h42q1 -10 4 -20.5t11 -24.5t26.5 -23t43.5 -9z" />
    <glyph glyph-name="afii10028" unicode="&#x41a;" 
d="M140 0v722h64v-348h8l234 348h77l-249 -358l281 -364h-81l-262 347h-8v-347h-64z" />
    <glyph glyph-name="afii10029" unicode="&#x41b;" 
d="M168 209l25 513h307v-722h-65v665h-181l-22 -467q-10 -204 -146 -204q-22 0 -46 6v56q62 -8 92.5 24t35.5 129z" />
    <glyph glyph-name="afii10030" unicode="&#x41c;" 
d="M80 0l31 722h94l91 -510h8l85 510h92l39 -722h-60l-26 639h-8l-95 -540h-63l-100 540h-8l-20 -639h-60z" />
    <glyph glyph-name="afii10031" unicode="&#x41d;" 
d="M105 722h65v-326h260v326h65v-722h-65v336h-260v-336h-65v722z" />
    <glyph glyph-name="afii10032" unicode="&#x41e;" 
d="M300 -14q-106 0 -161.5 102.5t-55.5 277.5q0 163 56 266.5t161 103.5t161 -103.5t56 -266.5q0 -175 -55.5 -277.5t-161.5 -102.5zM300 677q-151 0 -151 -313q0 -319 151 -319t151 319q0 313 -151 313z" />
    <glyph glyph-name="afii10033" unicode="&#x41f;" 
d="M105 722h390v-722h-65v665h-260v-665h-65v722z" />
    <glyph glyph-name="afii10034" unicode="&#x420;" 
d="M145 0v722h134q103 0 169.5 -55.5t66.5 -153.5q0 -102 -70 -157.5t-176 -55.5h-59v-300h-65zM210 663v-303l63 1q81 1 127.5 38.5t46.5 112.5q0 73 -46.5 111t-115.5 39z" />
    <glyph glyph-name="afii10035" unicode="&#x421;" 
d="M512 528h-69q-4 73 -27 111.5t-77 38.5q-62 0 -103 -46t-57 -114.5t-16 -156.5q0 -58 9 -110t28 -100t54.5 -76.5t84.5 -28.5q102 0 111 154h70q-11 -100 -56.5 -157.5t-124.5 -57.5q-67 0 -117 36t-76 94.5t-38.5 120t-12.5 125.5q0 69 13.5 133t41 120t76.5 89.5
t113 33.5q78 0 121 -55.5t52 -153.5z" />
    <glyph glyph-name="afii10036" unicode="&#x422;" 
d="M332 0h-64v663l-198 -1v60h460v-60l-198 1v-663z" />
    <glyph glyph-name="afii10037" unicode="&#x423;" 
d="M515 722l-199 -636q-31 -100 -132 -100q-38 0 -81 19l13 62q31 -19 69 -19q51 0 71 55q14 40 28 93q4 16 -4.5 25.5t-24.5 7.5l-180 493h73l157 -461h9l132 461h69z" />
    <glyph glyph-name="afii10038" unicode="&#x424;" 
d="M332 -55h-65v123q-100 11 -158.5 89.5t-58.5 201.5q0 119 60.5 199t156.5 93v110h65v-110q96 -13 157 -93t61 -199q0 -124 -58.5 -202t-159.5 -89v-123zM482 359q0 97 -40 160t-111 75v-468q75 10 113 71.5t38 161.5zM118 359q0 -100 37.5 -161t112.5 -72v468
q-71 -13 -110.5 -76t-39.5 -159z" />
    <glyph glyph-name="afii10039" unicode="&#x425;" 
d="M302 422l132 300h73l-172 -358l177 -364h-78l-131 303h-8l-134 -303h-73l173 361l-170 361h76l127 -300h8z" />
    <glyph glyph-name="afii10040" unicode="&#x426;" 
d="M490 0h-385v722h65v-666h256v666h64v-660h65v-62l-4 -133h-61v133z" />
    <glyph glyph-name="afii10041" unicode="&#x427;" 
d="M90 722h67v-193q0 -142 154 -144l99 -2v339h65v-722h-66v325h-95q-104 0 -164 51t-60 154v192z" />
    <glyph glyph-name="afii10042" unicode="&#x428;" 
d="M270 56v666h60v-666h118v666h62v-722h-420v722h64v-666h116z" />
    <glyph glyph-name="afii10043" unicode="&#x429;" 
d="M260 56v666h60v-666h108v666h62v-660h65v-62l-4 -133h-61v133h-400v722h64v-666h106z" />
    <glyph glyph-name="afii10044" unicode="&#x42a;" 
d="M235 416h49q103 0 169.5 -54.5t66.5 -151.5q0 -101 -69.5 -155.5t-176.5 -54.5h-104v663l-130 -2v61h195v-306zM235 357v-297l43 1q174 2 174 148q0 72 -46 109t-116 38z" />
    <glyph glyph-name="afii10045" unicode="&#x42b;" 
d="M456 722h64v-722h-64v722zM145 416h15q96 0 160 -56t64 -149q0 -95 -65.5 -153t-162.5 -58h-76v722h65v-306zM145 357v-297l18 1q73 4 113.5 41t40.5 108q0 67 -42.5 105t-109.5 41z" />
    <glyph glyph-name="afii10046" unicode="&#x42c;" 
d="M210 416h69q103 0 169.5 -54.5t66.5 -151.5q0 -101 -69.5 -155.5t-176.5 -54.5h-124v722h65v-306zM210 357v-297l63 1q174 2 174 148q0 72 -46 109t-116 38z" />
    <glyph glyph-name="afii10047" unicode="&#x42d;" 
d="M152 528h-69q10 97 56 153t124 56q63 0 111.5 -33.5t76 -89.5t41 -120t13.5 -133q0 -63 -12.5 -125t-39 -120.5t-76 -94.5t-115.5 -36q-79 0 -127.5 58t-59.5 157h70q9 -155 117 -155q45 0 79.5 26t54 70t29.5 93.5t12 104.5l-245 -1v61l245 -1q-6 123 -49 202t-125 79
q-103 0 -111 -151z" />
    <glyph glyph-name="afii10048" unicode="&#x42e;" 
d="M384 -15q-150 0 -154 359h-86l1 -344h-65v722h65l-1 -318h86q2 67 11 123.5t26.5 105t47.5 76.5t70 28q43 0 74.5 -31.5t48.5 -87t24.5 -117.5t7.5 -135q0 -381 -156 -381zM384 677q-88 0 -88 -313q0 -319 88 -319q89 0 89 319q0 313 -89 313z" />
    <glyph glyph-name="afii10049" unicode="&#x42f;" 
d="M475 722v-722h-65v321h-36l-226 -321h-80l236 325q-100 12 -155 67t-55 132q0 87 65.5 142.5t163.5 55.5h152zM410 381v282l-90 -1q-70 -1 -113.5 -37.5t-43.5 -102.5q0 -62 45 -99.5t120 -39.5z" />
    <glyph glyph-name="afii10065" unicode="&#x430;" 
d="M495 0h-76l-8 76h-8q-33 -44 -69.5 -67t-90.5 -23q-63 0 -101 40.5t-38 107.5q0 70 46 118t118 48q58 0 135 -21v68q0 116 -108 116q-52 0 -79 -27t-32 -67h-71q17 67 65 106.5t118 39.5q78 0 121.5 -43t43.5 -124v-206q0 -76 34 -142zM403 148v85q-67 17 -126 16
q-55 -1 -83 -31.5t-28 -81.5q0 -44 23.5 -70.5t67.5 -26.5q35 0 66.5 20t46.5 40t33 49z" />
    <glyph glyph-name="afii10066" unicode="&#x431;" 
d="M152 334h8q51 168 164 168q79 0 127.5 -74.5t48.5 -180.5q0 -108 -52 -185t-140 -77q-57 0 -100 37t-65.5 96.5t-33 124t-8.5 129.5q2 87 20.5 157t64 120t112.5 50q32 0 79 -20.5t62 -20.5q25 0 21 34h36q13 -112 -44 -112q-22 0 -74 29t-85 29q-48 0 -81 -46.5
t-46 -112t-14 -145.5zM433 241q0 100 -31 152t-87 52q-53 0 -89.5 -60.5t-36.5 -145.5q0 -88 33.5 -143.5t86.5 -55.5q62 0 93 57t31 144z" />
    <glyph glyph-name="afii10067" unicode="&#x432;" 
d="M140 502h141q90 0 142 -31.5t52 -96.5q0 -37 -26.5 -66.5t-62.5 -41.5v-8q104 -37 104 -114q0 -70 -58 -107t-148 -37h-144v502zM199 236v-185l90 1q137 2 137 91q0 46 -36.5 68.5t-97.5 23.5zM199 452v-166l88 1q58 1 92 22t34 61q0 79 -127 81z" />
    <glyph glyph-name="afii10068" unicode="&#x433;" 
d="M190 0v502h330v-55l-270 2v-449h-60z" />
    <glyph glyph-name="afii10069" unicode="&#x434;" 
d="M172 171l45 331h243v-446h60l-4 -174h-56v118h-335v-118h-56l-4 174h5q49 0 71.5 27t30.5 88zM402 52v400h-134l-37 -287q-12 -87 -51 -113h222z" />
    <glyph glyph-name="afii10070" unicode="&#x435;" 
d="M481 245h-300q0 -85 37.5 -144.5t103.5 -59.5q45 0 69.5 29t28.5 74h64q-26 -158 -165 -158q-94 0 -148 80t-54 190q0 107 55.5 182.5t143.5 75.5q51 0 87 -24t53.5 -64.5t23 -85.5t1.5 -95zM183 298l238 3q0 25 -3 49t-13 51t-33 43.5t-57 16.5q-57 0 -90 -45t-42 -118z
" />
    <glyph glyph-name="afii10072" unicode="&#x436;" 
d="M272 262l-1 240h59l-1 -240h8l124 241h69l-143 -252l163 -251h-72l-141 237h-8l1 -237h-59l1 237h-8l-141 -237h-72l163 251l-143 252h69l124 -241h8z" />
    <glyph glyph-name="afii10073" unicode="&#x437;" 
d="M110 136h70q8 -44 37.5 -70t78.5 -26q54 0 83.5 26t29.5 65q0 87 -120 102q-25 3 -57 3v52q19 0 51 2q116 7 116 89q0 37 -28 60.5t-75 23.5q-83 0 -108 -82h-68q43 135 178 135q75 0 119.5 -37.5t44.5 -95.5q0 -83 -97 -117v-8q53 -15 80.5 -49t27.5 -81
q0 -60 -49 -101.5t-127 -41.5q-79 0 -127 43t-60 108z" />
    <glyph glyph-name="afii10074" unicode="&#x438;" 
d="M118 0v502h58l-1 -414h9l220 414h78v-502h-58l1 413h-8l-221 -413h-78z" />
    <glyph glyph-name="afii10075" unicode="&#x439;" 
d="M118 0v502h58l-1 -414h9l220 414h78v-502h-58l1 413h-8l-221 -413h-78zM299 632q22 0 39 8t26 18t14.5 24.5t7 23t1.5 16.5h46q2 -71 -32.5 -113t-102.5 -42q-67 0 -100.5 41.5t-31.5 113.5h46q5 -90 87 -90z" />
    <glyph glyph-name="afii10076" unicode="&#x43a;" 
d="M150 0v502h60v-232h8l180 233h78l-200 -246l213 -257h-78l-193 241h-8v-241h-60z" />
    <glyph glyph-name="afii10077" unicode="&#x43b;" 
d="M178 166l16 336h286v-502h-60v449h-171l-13 -289q-4 -79 -33.5 -122t-83.5 -43q-19 0 -39 5v52q50 -9 72.5 19t25.5 95z" />
    <glyph glyph-name="afii10078" unicode="&#x43c;" 
d="M414 424l-90 -438h-57l-82 438h-8l-36 -424h-61l56 502h84l74 -402h8l77 402h82l60 -502h-60l-39 424h-8z" />
    <glyph glyph-name="afii10079" unicode="&#x43d;" 
d="M120 0v502h60v-209h240v209h60v-502h-60v240h-240v-240h-60z" />
    <glyph glyph-name="afii10080" unicode="&#x43e;" 
d="M300 -17q-95 0 -147.5 79.5t-52.5 188.5q0 62 19.5 119.5t66.5 101t114 43.5t114 -43.5t66.5 -101t19.5 -119.5q0 -109 -52.5 -188.5t-147.5 -79.5zM300 460q-63 0 -99.5 -55t-36.5 -154q0 -55 12 -100.5t43.5 -79t80.5 -33.5t80.5 33.5t43.5 79t12 100.5q0 99 -36.5 154
t-99.5 55z" />
    <glyph glyph-name="afii10081" unicode="&#x43f;" 
d="M120 0v502h360v-502h-60v450h-240v-450h-60z" />
    <glyph glyph-name="afii10082" unicode="&#x440;" 
d="M176 78h-8q6 -39 6 -78v-193h-60v547q0 81 -18 148h66l6 -78h8q58 92 143 92q88 0 139.5 -75.5t51.5 -185.5q0 -115 -51.5 -193t-142.5 -78q-87 0 -140 94zM447 255q0 94 -35.5 150t-100.5 56q-60 0 -96.5 -46.5t-40.5 -106.5v-118q6 -59 43 -105t92 -46q65 0 101.5 58
t36.5 158z" />
    <glyph glyph-name="afii10083" unicode="&#x441;" 
d="M489 356h-65q-13 106 -95 106q-69 0 -104 -60.5t-35 -151.5q0 -85 36.5 -147.5t103.5 -62.5q84 0 100 109h65q-15 -76 -53 -120t-114 -44q-89 0 -146 76t-57 188q0 119 58.5 193.5t146.5 74.5q137 0 159 -161z" />
    <glyph glyph-name="afii10084" unicode="&#x442;" 
d="M490 502v-55l-160 1v-448h-60v448l-160 -1v55h380z" />
    <glyph glyph-name="afii10085" unicode="&#x443;" 
d="M492 502q-169 -569 -184 -613q-26 -78 -115 -78q-48 0 -77 13l6 57q38 -15 72 -15q46 0 61 41q14 36 28 93q4 17 -4.5 27.5t-27.5 7.5l-145 467h67l125 -435h8l121 435h65z" />
    <glyph glyph-name="afii10086" unicode="&#x444;" 
d="M333 71h-6q3 -32 3 -71v-193h-60v193l3 71h-6q-15 -42 -34 -63.5t-50 -21.5q-42 0 -70 41.5t-39.5 99.5t-11.5 128q0 109 31 184.5t90 75.5q55 0 83 -82h6q-2 36 -2 69v119h51l9 -106v-13l-2 -69h6q28 82 83 82q59 0 90 -75.5t31 -184.5q0 -70 -11.5 -128t-39.5 -99.5
t-70 -41.5q-31 0 -50 21.5t-34 63.5zM125 255q0 -94 16.5 -154.5t51.5 -60.5q49 0 77 137v145q-6 35 -15 64t-26.5 52.5t-38.5 23.5q-65 0 -65 -207zM475 255q0 207 -65 207q-21 0 -38.5 -23.5t-26.5 -52.5t-15 -64v-145q28 -137 77 -137q35 0 51.5 60.5t16.5 154.5z" />
    <glyph glyph-name="afii10087" unicode="&#x445;" 
d="M471 502l-135 -243l146 -259h-69l-110 211h-8l-111 -211h-67l147 256l-135 246h67l100 -199h8l102 199h65z" />
    <glyph glyph-name="afii10088" unicode="&#x446;" 
d="M125 0v502h60v-450h220v450h60v-446h60l-4 -174h-56v118h-340z" />
    <glyph glyph-name="afii10089" unicode="&#x447;" 
d="M470 502v-502h-60v171l3 92h-8q-65 -107 -159 -107q-69 0 -106.5 43t-37.5 126v177h60v-174q0 -62 21 -90t69 -28q52 0 96.5 48.5t61.5 112.5v131h60z" />
    <glyph glyph-name="afii10090" unicode="&#x448;" 
d="M155 502v-451h118v451h57v-451h118v451h57v-502h-410v502h60z" />
    <glyph glyph-name="afii10091" unicode="&#x449;" 
d="M90 0v502h60v-451h103v451h57v-451h103v451h57v-446h60l-4 -174h-56v118h-380z" />
    <glyph glyph-name="afii10092" unicode="&#x44a;" 
d="M299 0h-114v448l-110 -1v55h170v-201h53q90 0 146 -37.5t56 -110.5q0 -71 -56.5 -112t-144.5 -41zM245 250v-198l60 1q60 1 95.5 27t35.5 73q0 94 -131 96z" />
    <glyph glyph-name="afii10093" unicode="&#x44b;" 
d="M184 0h-82v502h60v-205h21q88 0 141 -37t53 -108q0 -69 -53.5 -110.5t-139.5 -41.5zM162 246v-194l26 1q58 2 92 27.5t34 70.5q0 91 -126 94zM439 502h59v-502h-59v502z" />
    <glyph glyph-name="afii10094" unicode="&#x44c;" 
d="M294 0h-124v502h60v-201h63q90 0 146 -37.5t56 -110.5q0 -71 -56.5 -112t-144.5 -41zM230 250v-198l70 1q60 1 95.5 27t35.5 73q0 94 -131 96z" />
    <glyph glyph-name="afii10095" unicode="&#x44d;" 
d="M174 356h-63q10 73 52.5 117t113.5 44q88 0 145.5 -75t57.5 -192q0 -113 -57 -189t-146 -76q-139 0 -172 164h65q7 -47 32.5 -78t72.5 -31q64 0 100.5 57t39.5 137l-195 -1v57l194 -2q-7 77 -42 125.5t-96 48.5q-89 0 -102 -106z" />
    <glyph glyph-name="afii10096" unicode="&#x44e;" 
d="M377 -17q-41 0 -71.5 21t-47 58t-25 79.5t-9.5 91.5h-75l1 -233h-60v502h60l-1 -216h76q4 59 18.5 107.5t49.5 85t86 36.5q44 0 76 -25t48.5 -66t24 -84t7.5 -89q0 -51 -8.5 -96.5t-26 -85t-49 -63t-74.5 -23.5zM378 459q-46 0 -69 -57.5t-23 -150.5q0 -211 92 -211
q27 0 46 18.5t29 51t14 67t4 74.5q0 93 -23.5 150.5t-69.5 57.5z" />
    <glyph glyph-name="afii10097" unicode="&#x44f;" 
d="M375 0v218h-36l-169 -218h-75l179 221q-60 7 -106 43t-46 96q0 66 50.5 104t134.5 38h128v-502h-60zM375 269v183l-73 -1q-53 -1 -84.5 -25.5t-31.5 -66.5q0 -40 30.5 -64t85.5 -25z" />
    <glyph glyph-name="afii10071" unicode="&#x451;" 
d="M481 245h-300q0 -85 37.5 -144.5t103.5 -59.5q45 0 69.5 29t28.5 74h64q-26 -158 -165 -158q-94 0 -148 80t-54 190q0 107 55.5 182.5t143.5 75.5q51 0 87 -24t53.5 -64.5t23 -85.5t1.5 -95zM183 298l238 3q0 25 -3 49t-13 51t-33 43.5t-57 16.5q-57 0 -90 -45t-42 -118z
M404 579q-25 0 -40.5 16.5t-15.5 39.5q0 24 15.5 40.5t40.5 16.5t40.5 -16.5t15.5 -40.5q0 -23 -15.5 -39.5t-40.5 -16.5zM224 579q-25 0 -40.5 16.5t-15.5 39.5q0 24 15.5 40.5t40.5 16.5t40.5 -16.5t15.5 -40.5q0 -23 -15.5 -39.5t-40.5 -16.5z" />
    <glyph glyph-name="afii10099" unicode="&#x452;" 
d="M119 0v580h-69v48h69v94h60v-94h192v-48h-192v-78l-4 -95h8q26 43 68.5 76.5t93.5 33.5q70 0 106 -44t36 -128v-369q0 -78 -39.5 -123t-106.5 -45q-60 0 -96.5 36t-41.5 98h62q1 -39 20.5 -60.5t55.5 -21.5q42 0 64 29t22 83v372q0 63 -20.5 91.5t-69.5 28.5t-95 -50.5
t-63 -114.5v-299h-60z" />
    <glyph glyph-name="afii10100" unicode="&#x453;" 
d="M190 0v502h330v-55l-270 2v-449h-60zM453 722l40 -75l-202 -90l-24 42z" />
    <glyph glyph-name="afii10101" unicode="&#x454;" 
d="M489 356h-64q-13 106 -101 106q-62 0 -97 -48.5t-42 -125.5l195 2v-57l-196 1q4 -80 40.5 -137t100.5 -57q47 0 72.5 31t32.5 78h65q-33 -164 -172 -164q-89 0 -146 76t-57 189q0 117 58.5 192t146.5 75q71 0 112.5 -43.5t51.5 -117.5z" />
    <glyph glyph-name="afii10102" unicode="&#x455;" 
d="M124 139h66q-2 -36 28 -67.5t87 -31.5q49 0 78 23t29 62q0 42 -28 64.5t-94 43.5q-155 49 -155 145q0 61 44 99.5t117 38.5q67 0 113 -38t53 -105h-64q-1 39 -30 64.5t-74 25.5q-43 0 -70.5 -21t-27.5 -58q0 -36 27 -56.5t87 -39.5q34 -11 58 -21.5t51 -28t41.5 -44.5
t14.5 -61q0 -65 -47 -106.5t-124 -41.5q-73 0 -123.5 40t-56.5 114z" />
    <glyph glyph-name="afii10103" unicode="&#x456;" 
d="M284 448l-154 -1v55h214v-502h-60v448zM253 662q0 27 17 43.5t43 16.5q27 0 44 -16.5t17 -43.5t-17 -43t-44 -16t-43.5 16t-16.5 43z" />
    <glyph glyph-name="afii10104" unicode="&#x457;" 
d="M284 448l-154 -1v55h214v-502h-60v448zM401 579q-25 0 -40.5 16.5t-15.5 39.5q0 24 15.5 40.5t40.5 16.5t40.5 -16.5t15.5 -40.5q0 -23 -15.5 -39.5t-40.5 -16.5zM221 579q-25 0 -40.5 16.5t-15.5 39.5q0 24 15.5 40.5t40.5 16.5t40.5 -16.5t15.5 -40.5
q0 -23 -15.5 -39.5t-40.5 -16.5z" />
    <glyph glyph-name="afii10105" unicode="&#x458;" 
d="M324 448l-154 -1v55h214v-518q0 -82 -44.5 -129.5t-119.5 -47.5q-64 0 -104.5 38.5t-45.5 105.5h63q1 -40 23.5 -65t65.5 -25q47 0 74.5 31.5t27.5 85.5v470zM291 662q0 27 17 43.5t43 16.5q27 0 44 -16.5t17 -43.5t-17 -43t-44 -16t-43.5 16t-16.5 43z" />
    <glyph glyph-name="afii10106" unicode="&#x459;" 
d="M355 0h-76v451h-62l-12 -291q-4 -79 -33.5 -122t-83.5 -43q-20 0 -38 6v51q50 -9 72.5 18.5t25.5 95.5l15 336h175v-205h16q85 0 135.5 -37.5t50.5 -107.5q0 -68 -51.5 -110t-133.5 -42zM338 246v-194l21 1q56 3 87 28t31 70q0 89 -118 94z" />
    <glyph glyph-name="afii10107" unicode="&#x45a;" 
d="M352 0h-81v244h-101v-244h-60v502h60v-205h101v205h59v-205h21q85 0 137 -38t52 -107q0 -67 -52.5 -109.5t-135.5 -42.5zM330 246v-194l26 1q56 2 88.5 27.5t32.5 70.5q0 89 -121 94z" />
    <glyph glyph-name="afii10108" unicode="&#x45b;" 
d="M119 0v580h-69v48h69v94h60v-94h192v-48h-192v-78l-4 -95h8q26 43 68.5 76.5t93.5 33.5q70 0 106 -44t36 -128v-345h-60v344q0 63 -20.5 91.5t-69.5 28.5t-95 -50.5t-63 -114.5v-299h-60z" />
    <glyph glyph-name="afii10109" unicode="&#x45c;" 
d="M150 0v502h60v-232h8l180 233h78l-200 -246l213 -257h-78l-193 241h-8v-241h-60zM441 722l40 -75l-202 -90l-24 42z" />
    <glyph glyph-name="afii10110" unicode="&#x45e;" 
d="M492 502q-169 -569 -184 -613q-26 -78 -115 -78q-48 0 -77 13l6 57q38 -15 72 -15q46 0 61 41q14 36 28 93q4 17 -4.5 27.5t-27.5 7.5l-145 467h67l125 -435h8l121 435h65zM299 632q22 0 39 8t26 18t14.5 24.5t7 23t1.5 16.5h46q2 -71 -32.5 -113t-102.5 -42
q-67 0 -100.5 41.5t-31.5 113.5h46q5 -90 87 -90z" />
    <glyph glyph-name="afii10193" unicode="&#x45f;" 
d="M120 0v502h60v-450h240v450h60v-502h-151l-1 -118h-56l-1 118h-151z" />
    <glyph glyph-name="afii10050" unicode="&#x490;" 
d="M170 0v722h295v125h61l4 -123v-62l-295 1v-663h-65z" />
    <glyph glyph-name="afii10098" unicode="&#x491;" 
d="M190 0v502h251v119h56l4 -174l-251 2v-449h-60z" />
    <glyph glyph-name="Wgrave" unicode="&#x1e80;" 
d="M80 722h62l41 -630h8l74 536h73l70 -536h8l44 630h60l-67 -722h-82l-66 519h-8l-72 -519h-85zM165 839l38 78l191 -112l-23 -46z" />
    <glyph glyph-name="wgrave" unicode="&#x1e81;" 
d="M383 0l-79 351h-8l-79 -351h-66l-71 502h60l44 -413h8l75 344h66l76 -344h8l43 413h60l-71 -502h-66zM147 647l40 75l186 -123l-24 -42z" />
    <glyph glyph-name="Wacute" unicode="&#x1e82;" 
d="M80 722h62l41 -630h8l74 536h73l70 -536h8l44 630h60l-67 -722h-82l-66 519h-8l-72 -519h-85zM426 917l38 -78l-206 -80l-23 46z" />
    <glyph glyph-name="wacute" unicode="&#x1e83;" 
d="M383 0l-79 351h-8l-79 -351h-66l-71 502h60l44 -413h8l75 344h66l76 -344h8l43 413h60l-71 -502h-66zM414 722l40 -75l-202 -90l-24 42z" />
    <glyph glyph-name="Wdieresis" unicode="&#x1e84;" 
d="M80 722h62l41 -630h8l74 536h73l70 -536h8l44 630h60l-67 -722h-82l-66 519h-8l-72 -519h-85zM396 772q-26 0 -41.5 16.5t-15.5 40.5q0 25 15.5 41.5t41.5 16.5q25 0 41 -17t16 -41t-16 -40.5t-41 -16.5zM206 772q-25 0 -41 16.5t-16 40.5t16 41t41 17q26 0 41.5 -16.5
t15.5 -41.5q0 -24 -15.5 -40.5t-41.5 -16.5z" />
    <glyph glyph-name="wdieresis" unicode="&#x1e85;" 
d="M383 0l-79 351h-8l-79 -351h-66l-71 502h60l44 -413h8l75 344h66l76 -344h8l43 413h60l-71 -502h-66zM390 579q-25 0 -40.5 16.5t-15.5 39.5q0 24 15.5 40.5t40.5 16.5t40.5 -16.5t15.5 -40.5q0 -23 -15.5 -39.5t-40.5 -16.5zM210 579q-25 0 -40.5 16.5t-15.5 39.5
q0 24 15.5 40.5t40.5 16.5t40.5 -16.5t15.5 -40.5q0 -23 -15.5 -39.5t-40.5 -16.5z" />
    <glyph glyph-name="Ygrave" unicode="&#x1ef2;" 
d="M335 290v-290h-65v290q0 14 -14 17l-176 415h72l147 -373h8l145 373h68l-172 -415q-13 -5 -13 -17zM155 839l38 78l191 -112l-23 -46z" />
    <glyph glyph-name="ygrave" unicode="&#x1ef3;" 
d="M492 502q-169 -569 -184 -613q-26 -78 -115 -78q-48 0 -77 13l6 57q38 -15 72 -15q46 0 61 41q14 36 28 93q4 17 -4.5 27.5t-27.5 7.5l-145 467h67l125 -435h8l121 435h65zM157 647l40 75l186 -123l-24 -42z" />
    <glyph glyph-name="endash" unicode="&#x2013;" 
d="M100 241v60h400v-60h-400z" />
    <glyph glyph-name="emdash" unicode="&#x2014;" 
d="M0 241v60h600v-60h-600z" />
    <glyph glyph-name="quoteleft" unicode="&#x2018;" 
d="M313 602q26 -4 44 -22.5t18 -45.5q0 -30 -20 -50t-49 -20t-50 19.5t-21 50.5q0 20 6 44q19 73 98 144h78q-82 -54 -111 -102q-9 -15 7 -18z" />
    <glyph glyph-name="quoteright" unicode="&#x2019;" 
d="M287 584q-26 4 -44 22.5t-18 45.5q0 30 20.5 50t49.5 20t49.5 -19.5t20.5 -50.5q0 -20 -6 -44q-19 -73 -98 -144h-78q82 54 111 102q9 15 -7 18z" />
    <glyph glyph-name="quotesinglbase" unicode="&#x201a;" 
d="M287 18q-26 4 -44 22.5t-18 45.5q0 30 20.5 50t49.5 20t49.5 -19.5t20.5 -50.5q0 -20 -6 -44q-19 -73 -98 -144h-78q82 54 111 102q9 15 -7 18z" />
    <glyph glyph-name="quotedblleft" unicode="&#x201c;" 
d="M209 602q25 -4 41.5 -22.5t16.5 -45.5q0 -30 -19 -50t-48 -20t-49.5 19.5t-20.5 50.5q0 20 6 44q18 67 103 144h81q-48 -32 -75.5 -54.5t-42.5 -47.5q-9 -15 7 -18zM386 602q26 -4 43 -22.5t17 -45.5q0 -30 -19 -50t-48 -20t-49.5 19.5t-20.5 50.5q0 20 6 44
q21 79 93 144h77q-73 -48 -106 -102q-9 -15 7 -18z" />
    <glyph glyph-name="quotedblright" unicode="&#x201d;" 
d="M391 584q-25 4 -41.5 22.5t-16.5 45.5q0 30 19 50t48 20t49.5 -19.5t20.5 -50.5q0 -20 -6 -44q-18 -67 -103 -144h-81q48 32 75.5 54.5t42.5 47.5q9 15 -7 18zM214 584q-26 4 -43 22.5t-17 45.5q0 30 19 50t48 20t49.5 -19.5t20.5 -50.5q0 -20 -6 -44q-21 -79 -93 -144
h-77q73 48 106 102q9 15 -7 18z" />
    <glyph glyph-name="quotedblbase" unicode="&#x201e;" 
d="M391 18q-25 4 -41.5 22.5t-16.5 45.5q0 30 19 50t48 20t49.5 -19.5t20.5 -50.5q0 -20 -6 -44q-18 -67 -103 -144h-81q48 32 75.5 54.5t42.5 47.5q9 15 -7 18zM214 18q-26 4 -43 22.5t-17 45.5q0 30 19 50t48 20t49.5 -19.5t20.5 -50.5q0 -20 -6 -44q-21 -79 -93 -144h-77
q73 48 106 102q9 15 -7 18z" />
    <glyph glyph-name="dagger" unicode="&#x2020;" 
d="M270 503l-160 -1v55l160 -1v166h60v-166l160 1v-55l-160 1v-503h-60v503z" />
    <glyph glyph-name="daggerdbl" unicode="&#x2021;" 
d="M100 235l170 -1v254l-170 -1v55l170 -1v181h60v-181l170 1v-55l-170 1v-254l170 1v-55l-170 1v-181h-60v181l-170 -1v55z" />
    <glyph glyph-name="bullet" unicode="&#x2022;" 
d="M300 537q72 0 118.5 -50.5t46.5 -125.5t-46.5 -125t-118.5 -50t-118.5 50t-46.5 125q0 76 46.5 126t118.5 50z" />
    <glyph glyph-name="ellipsis" unicode="&#x2026;" 
d="M501 140q48 0 48 -70t-48 -70t-48 70t48 70zM300 140q48 0 48 -70t-48 -70t-48 70t48 70zM99 140q48 0 48 -70t-48 -70t-48 70t48 70z" />
    <glyph glyph-name="perthousand" unicode="&#x2030;" 
d="M469 296q47 0 74 -45t27 -108q0 -62 -27.5 -106.5t-73.5 -44.5q-45 0 -71 47q-28 -47 -71 -47q-46 0 -73.5 44t-27.5 107t27 108t74 45q44 0 71 -47q27 47 71 47zM153 699q48 0 74.5 -45t26.5 -108t-27.5 -107t-73.5 -44t-73.5 44t-27.5 107t26.5 108t74.5 45zM93 0h-53
l344 692h54zM153 445q47 0 47 100q0 106 -47 106t-47 -106q0 -100 47 -100zM326 42q47 0 47 100q0 44 -11.5 75t-35.5 31q-47 0 -47 -106q0 -100 47 -100zM470 42q47 0 47 100q0 106 -47 106t-47 -106q0 -100 47 -100z" />
    <glyph glyph-name="guilsinglleft" unicode="&#x2039;" 
d="M342 470h58l-123 -204l123 -204h-58l-142 204z" />
    <glyph glyph-name="guilsinglright" unicode="&#x203a;" 
d="M200 470h58l142 -204l-142 -204h-58l123 204z" />
    <glyph glyph-name="interrobang" unicode="&#x203d;" 
d="M185 545h-65q6 94 58.5 142t125.5 48q76 0 126 -48t50 -125q0 -56 -26 -100t-78 -89q-37 -32 -47 -68.5t-7 -88.5l2 -33h-50l-10 494q-80 -22 -79 -132zM416 559q0 50 -22.5 79.5t-60.5 38.5l-11 -285h7q8 15 24 31q63 66 63 136zM294 133q-28 0 -47.5 -18.5t-19.5 -47.5
t19.5 -48t47.5 -19q27 0 46.5 19t19.5 48t-19 47.5t-47 18.5z" />
    <glyph glyph-name="asterism" unicode="&#x2042;" 
d="M540 137l-45 -26l-50 120l-50 -120l-45 26l80 105l-130 -18l-131 18l81 -105l-45 -26l-50 120l-50 -120l-45 26l80 105l-130 -18v52l130 -18l-80 105l45 26l50 -122l50 122l80 105l-130 -18v52l130 -18l-80 105l45 26l50 -122l50 122l45 -26l-80 -105l130 18v-52l-131 18
l81 -105l50 -122l50 122l45 -26l-80 -105l130 18v-52l-131 18zM170 258l130 18l130 -18l-80 105l-50 120l-50 -120z" />
    <glyph glyph-name="fraction" unicode="&#x2044;" 
d="M503 722l-364 -722h-51l363 722h52z" />
    <glyph glyph-name="zero.sups" unicode="&#x2070;" 
d="M300 513q79 0 79 178q0 179 -78 179q-80 0 -80 -179q0 -178 79 -178zM300 470q-35 0 -61.5 20t-41 53.5t-21 70t-6.5 76.5q0 31 5.5 65t19 71.5t41 62t65.5 24.5q39 0 67 -24t40 -62.5t17 -71.5t5 -65q0 -39 -7 -76t-21 -70.5t-40.5 -53.5t-61.5 -20z" />
    <glyph glyph-name="four.sups" unicode="&#x2074;" 
d="M311 481v93h-174v55q72 115 153 273h71v-284h50v-44h-50v-93h-50zM179 617h132v234h-5q-30 -58 -61.5 -115.5t-48.5 -85.5l-17 -29v-4z" />
    <glyph glyph-name="five.sups" unicode="&#x2075;" 
d="M174 583h55q2 -34 19.5 -53.5t47.5 -19.5q38 0 58 32t20 79q0 110 -69 110q-50 0 -75 -57h-48l4 228h224v-43h-178l-9 -139h5q30 55 88 55q52 0 81.5 -45t29.5 -105q0 -70 -36 -114t-97 -44q-46 0 -81 32.5t-39 83.5z" />
    <glyph glyph-name="six.sups" unicode="&#x2076;" 
d="M420 811h-49q-5 59 -57 59q-43 0 -72.5 -45.5t-32.5 -136.5h5q37 72 99 72q46 0 81 -40.5t35 -107.5q0 -62 -37 -103t-89 -41q-65 0 -101.5 59t-36.5 149q0 54 14 105t50 90.5t88 39.5q51 0 75.5 -30.5t27.5 -69.5zM304 512q33 0 52.5 26t19.5 72q0 51 -19 78.5t-52 27.5
q-34 0 -56 -28.5t-22 -64.5q0 -49 21 -80t56 -31z" />
    <glyph glyph-name="seven.sups" unicode="&#x2077;" 
d="M169 791v111h257v-40q-42 -85 -81.5 -180t-58.5 -148l-18 -53h-60q77 197 170 378h-166l1 -68h-44z" />
    <glyph glyph-name="eight.sups" unicode="&#x2078;" 
d="M300 870q-35 0 -55 -20.5t-20 -53.5q0 -34 20 -54.5t55 -20.5t55 20.5t20 54.5q0 33 -20 53.5t-55 20.5zM300 676q-38 0 -60 -23.5t-22 -61.5q0 -34 22.5 -56.5t59.5 -22.5t59.5 22.5t22.5 56.5q0 38 -22 61.5t-60 23.5zM300 468q-59 0 -97 35t-38 84q0 80 74 109v6
q-65 31 -65 96q0 46 35.5 79.5t90.5 33.5q58 0 92 -33t34 -80q0 -65 -65 -96v-6q74 -29 74 -109q0 -49 -37.5 -84t-97.5 -35z" />
    <glyph glyph-name="nine.sups" unicode="&#x2079;" 
d="M174 568h49q5 -59 57 -59q43 0 72.5 45.5t32.5 136.5h-5q-37 -72 -99 -72q-46 0 -81 40.5t-35 107.5q0 62 37 103t89 41q65 0 101.5 -59t36.5 -149q0 -54 -14 -105t-50 -90.5t-88 -39.5q-51 0 -75.5 30.5t-27.5 69.5zM290 868q-33 0 -52.5 -26t-19.5 -72q0 -51 19 -78.5
t52 -27.5q34 0 56 28.5t22 64.5q0 49 -21 80t-56 31z" />
    <glyph glyph-name="zero.sinf" unicode="&#x2080;" 
d="M300 -148q79 0 79 178q0 179 -78 179q-80 0 -80 -179q0 -178 79 -178zM300 -191q-35 0 -61.5 20t-41 53.5t-21 70t-6.5 76.5q0 31 5.5 65t19 71.5t41 62t65.5 24.5q39 0 67 -24t40 -62.5t17 -71.5t5 -65q0 -39 -7 -76t-21 -70.5t-40.5 -53.5t-61.5 -20z" />
    <glyph glyph-name="one.sinf" unicode="&#x2081;" 
d="M184 -136h98v326h-5q-27 -84 -93 -191v93q49 76 79 150h70v-378h93v-44h-242v44z" />
    <glyph glyph-name="two.sinf" unicode="&#x2082;" 
d="M413 -180h-240q-2 18 -2 38q0 52 24 86t68 63q41 27 62 44q44 35 44 85q0 32 -20 52t-51 20q-35 0 -54.5 -23t-19.5 -60h-55q1 52 38.5 89.5t91.5 37.5q52 0 87.5 -33t35.5 -82q0 -72 -71 -127q-28 -21 -67 -45q-71 -42 -65 -100h194v-45z" />
    <glyph glyph-name="three.sinf" unicode="&#x2083;" 
d="M151 -72h57q1 -38 22.5 -58t56.5 -20q34 0 55.5 20.5t21.5 53.5q0 81 -101 88l-28 2v42l21 1q45 2 76 21.5t31 60.5q0 34 -19.5 51.5t-51.5 17.5q-29 0 -50 -16t-24 -47h-54q8 53 45.5 79t80.5 26q57 0 90.5 -31t33.5 -77q0 -75 -82 -103v-5q87 -26 87 -110
q0 -48 -37 -82.5t-97 -34.5q-54 0 -92 33.5t-42 87.5z" />
    <glyph glyph-name="four.sinf" unicode="&#x2084;" 
d="M311 -180v93h-174v55q72 115 153 273h71v-284h50v-44h-50v-93h-50zM179 -44h132v234h-5q-30 -58 -61.5 -115.5t-48.5 -86.5l-17 -28v-4z" />
    <glyph glyph-name="five.sinf" unicode="&#x2085;" 
d="M174 -78h55q2 -34 19.5 -53.5t47.5 -19.5q38 0 58 32t20 79q0 110 -69 110q-50 0 -75 -57h-48l4 228h224v-43h-178l-9 -139h5q30 55 88 55q52 0 81.5 -45t29.5 -105q0 -70 -36 -114t-97 -44q-46 0 -81 32.5t-39 83.5z" />
    <glyph glyph-name="six.sinf" unicode="&#x2086;" 
d="M420 150h-49q-5 59 -57 59q-43 0 -72.5 -45.5t-32.5 -136.5h5q37 72 99 72q46 0 81 -40.5t35 -107.5q0 -62 -37 -103t-89 -41q-65 0 -101.5 59t-36.5 149q0 54 14 105t50 90.5t88 39.5q51 0 75.5 -30.5t27.5 -69.5zM304 -149q33 0 52.5 26t19.5 72q0 51 -19 78.5
t-52 27.5q-34 0 -56 -28.5t-22 -64.5q0 -49 21 -80t56 -31z" />
    <glyph glyph-name="seven.sinf" unicode="&#x2087;" 
d="M169 130v111h257v-40q-42 -85 -81.5 -180t-58.5 -148l-18 -53h-60q77 197 170 378h-166l1 -68h-44z" />
    <glyph glyph-name="eight.sinf" unicode="&#x2088;" 
d="M300 209q-35 0 -55 -20.5t-20 -53.5q0 -34 20 -54.5t55 -20.5t55 20.5t20 54.5q0 33 -20 53.5t-55 20.5zM300 15q-38 0 -60 -23.5t-22 -61.5q0 -34 22.5 -56.5t59.5 -22.5t59.5 22.5t22.5 56.5q0 38 -22 61.5t-60 23.5zM300 -193q-59 0 -97 35t-38 84q0 80 74 109v6
q-65 31 -65 96q0 46 35.5 79.5t90.5 33.5q58 0 92 -33t34 -80q0 -65 -65 -96v-6q74 -29 74 -109q0 -49 -37.5 -84t-97.5 -35z" />
    <glyph glyph-name="nine.sinf" unicode="&#x2089;" 
d="M174 -93h49q5 -59 57 -59q43 0 72.5 45.5t32.5 136.5h-5q-37 -72 -99 -72q-46 0 -81 40.5t-35 107.5q0 62 37 103t89 41q65 0 101.5 -59t36.5 -149q0 -54 -14 -105t-50 -90.5t-88 -39.5q-51 0 -75.5 30.5t-27.5 69.5zM290 207q-33 0 -52.5 -26t-19.5 -72q0 -51 19 -78.5
t52 -27.5q34 0 56 28.5t22 64.5q0 49 -21 80t-56 31z" />
    <glyph glyph-name="Euro" unicode="&#x20ac;" 
d="M389 270h-187q20 -224 137 -224q56 0 79.5 40t27.5 113h69q-11 -101 -54.5 -157.5t-121.5 -56.5q-40 0 -73 16.5t-54.5 43.5t-37.5 65t-24.5 76.5t-12.5 83.5h-72v54h68v61h-68v54h71q12 127 61.5 211.5t141.5 84.5q148 0 168 -206h-68q-9 148 -101 148q-120 0 -137 -238
h220v-54h-222v-61h190v-54z" />
    <glyph glyph-name="afii61352" unicode="&#x2116;" 
d="M459 502q-54 0 -82.5 -50.5t-28.5 -121.5q0 -78 28.5 -127.5t82.5 -49.5t82.5 49.5t28.5 127.5q0 71 -28.5 121.5t-82.5 50.5zM459 204q-53 0 -53 126q0 123 53 123q52 0 52 -123q0 -126 -52 -126zM556 0h-197v57q36 -3 100 -3l97 3v-57zM50 0v722h85l116 -581h7l-1 581
h55v-722h-82l-117 589h-7l1 -589h-57z" />
    <glyph glyph-name="trademark" unicode="&#x2122;" 
d="M167 361h-44v319h-67v42h179v-42h-68v-319zM383 436l-48 286h-60l-31 -361h42l18 297h6l55 -309h40l50 309h6l22 -297h42l-34 361h-61l-41 -286h-6z" />
    <glyph glyph-name="uni2126" unicode="&#x2126;" 
d="M300 722q114 0 174.5 -84t60.5 -217q0 -96 -37.5 -169t-117.5 -108v-85h138v-59h-194v181q76 21 113.5 84t37.5 154q0 114 -42.5 181t-132.5 67t-132.5 -67t-42.5 -181q0 -91 37 -154t113 -84v-181h-193v59h137v85q-154 67 -154 277q0 133 60.5 217t174.5 84z" />
    <glyph glyph-name="arrowleft" unicode="&#x2190;" 
d="M286 86l-286 244l286 244l36 -47l-204 -159v-9h482v-58h-482v-8l204 -160z" />
    <glyph glyph-name="arrowup" unicode="&#x2191;" 
d="M57 372l243 283l243 -283l-46 -41l-159 204h-9v-480h-58v480h-8l-160 -204z" />
    <glyph glyph-name="arrowright" unicode="&#x2192;" 
d="M600 330l-286 -244l-36 47l204 160v8h-482v58h482v9l-204 159l36 47z" />
    <glyph glyph-name="arrowdown" unicode="&#x2193;" 
d="M300 32l-243 283l46 41l160 -204h8v480h58v-480h9l159 204l46 -41z" />
    <glyph glyph-name="partialdiff" unicode="&#x2202;" 
d="M485 365q0 -67 -11 -128.5t-36 -120t-72.5 -93.5t-113.5 -35q-83 0 -132.5 67.5t-49.5 160.5q0 99 52.5 164.5t135.5 65.5q86 0 162 -82h4q2 55 -4 103.5t-22.5 96t-53 75.5t-89.5 28q-72 0 -125 -71l-40 50q76 76 167 76q54 0 95.5 -21.5t66 -55.5t40 -82.5t21 -96
t5.5 -101.5zM413 296q-69 92 -147 92q-68 0 -100 -48.5t-32 -123.5q0 -74 31.5 -123t89.5 -49q54 0 92 41t53 97t13 114z" />
    <glyph glyph-name="uni2206" unicode="&#x2206;" 
d="M545 0h-490l206 692h78zM297 622l-161 -563h329l-160 563h-8z" />
    <glyph glyph-name="product" unicode="&#x220f;" 
d="M525 -193h-64v858h-322v-858h-64v915h450v-915z" />
    <glyph glyph-name="summation" unicode="&#x2211;" 
d="M540 -193h-495v65l320 419l-307 368v63h475v-59l-395 1v-4l308 -369l-329 -421v-4l423 1v-60z" />
    <glyph glyph-name="minus" unicode="&#x2212;" 
d="M525 301h-450v58h450v-58z" />
    <glyph glyph-name="radical" unicode="&#x221a;" 
d="M540 722l-185 -915h-83l-142 314l-54 -27l-26 51l108 55l148 -331h4l170 853h60z" />
    <glyph glyph-name="infinity" unicode="&#x221e;" 
d="M300 218q-40 -50 -73.5 -74.5t-77.5 -24.5q-56 0 -90 41t-34 106q0 64 34.5 103.5t90.5 39.5q42 0 76 -27t74 -80q40 53 74 80t76 27q56 0 90.5 -39.5t34.5 -103.5q0 -65 -34 -106t-90 -41q-44 0 -77.5 24.5t-73.5 74.5zM518 264q0 43 -18 68t-53 25q-45 0 -111 -98
q66 -86 113 -86q34 0 51.5 24.5t17.5 66.5zM82 264q0 -42 17.5 -66.5t51.5 -24.5q46 0 113 86q-34 49 -59.5 73.5t-51.5 24.5q-35 0 -53 -25t-18 -68z" />
    <glyph glyph-name="integral" unicode="&#x222b;" 
d="M281 -35q-15 316 -22 582q-2 72 38 111.5t105 39.5q28 0 53 -4v-53q-20 2 -43 2q-95 0 -91 -99l24 -585q3 -71 -39.5 -109t-109.5 -38q-28 0 -51 4v53q18 -2 43 -2q96 0 93 98z" />
    <glyph glyph-name="therefore" unicode="&#x2234;" 
d="M501 140q48 0 48 -70t-48 -70t-48 70t48 70zM300 722q48 0 48 -70t-48 -70t-48 70t48 70zM99 140q48 0 48 -70t-48 -70t-48 70t48 70z" />
    <glyph glyph-name="because" unicode="&#x2235;" 
d="M501 582q-48 0 -48 70t48 70t48 -70t-48 -70zM300 0q-48 0 -48 70t48 70t48 -70t-48 -70zM99 582q-48 0 -48 70t48 70t48 -70t-48 -70z" />
    <glyph glyph-name="approxequal" unicode="&#x2248;" 
d="M314 261q72 -35 96 -35q26 0 38 15t21 46h50q-23 -118 -111 -118q-45 0 -122 41q-70 37 -96 37t-38 -15t-21 -46h-50q21 118 111 118q17 0 35.5 -5t27 -8.5t32 -15.5t27.5 -14zM314 456q72 -35 96 -35q26 0 38 15t21 46h50q-23 -118 -111 -118q-45 0 -122 41
q-70 37 -96 37t-38 -15t-21 -46h-50q21 118 111 118q17 0 35.5 -5t27 -8.5t32 -15.5t27.5 -14z" />
    <glyph glyph-name="notequal" unicode="&#x2260;" 
d="M45 0l136 203h-136v59h175l91 136h-266v59h306l136 203h68l-136 -203h136v-59h-176l-91 -136h267v-59h-307l-136 -203h-67z" />
    <glyph glyph-name="lessequal" unicode="&#x2264;" 
d="M525 123l-450 208v65l450 209v-66l-389 -176l389 -174v-66zM525 0h-450v58h450v-58z" />
    <glyph glyph-name="greaterequal" unicode="&#x2265;" 
d="M525 331l-450 -208v66l389 174l-389 176v66l450 -209v-65zM525 0h-450v58h450v-58z" />
    <glyph glyph-name="lozenge" unicode="&#x25ca;" 
d="M524 358l-189 -358h-70l-190 358l190 364h70zM457 357l-156 308h-4l-154 -308l156 -300h4z" />
    <glyph glyph-name="commaaccent" unicode="&#xf6c3;" 
d="M305 -164q-20 3 -34.5 17.5t-14.5 35.5q0 24 16 40t40 16q23 0 39.5 -15.5t16.5 -40.5q0 -21 -5 -36q-19 -55 -68 -100h-61q46 29 77 67q9 12 -6 16z" />
    <glyph glyph-name="interfinity" 
d="M300 734q68 0 114 -43t46 -108q0 -87 -113 -160q79 -63 79 -134q0 -49 -35.5 -82.5t-90.5 -33.5t-91 33.5t-36 82.5q0 73 79 134q-53 34 -82.5 71.5t-29.5 88.5q0 60 46 105.5t114 45.5zM299 681q-43 0 -70.5 -28.5t-27.5 -70.5q0 -41 25 -69t73 -58q49 30 74.5 58
t25.5 69q0 42 -28 70.5t-72 28.5zM366 289q0 58 -67 104q-67 -46 -67 -104q0 -28 19.5 -46.5t48.5 -18.5t47.5 18.5t18.5 46.5zM299 133q-28 0 -47.5 -18.5t-19.5 -47.5t19.5 -48t47.5 -19q27 0 46.5 19t19.5 48t-19 47.5t-47 18.5z" />
    <glyph glyph-name="at.case" 
d="M482 548v-193q0 -95 19 -142h-65l-2 75h-8q-20 -30 -33.5 -46.5t-36.5 -30t-51 -13.5q-49 0 -78 43.5t-29 107.5q0 69 36 112.5t96 43.5q33 0 95 -20v63q0 123 -108 123q-81 0 -124 -89.5t-43 -235.5q0 -147 40 -232t122 -85q55 0 90 31t60 89l43 -42q-37 -64 -82 -98
t-111 -34q-106 0 -161.5 99.5t-55.5 270.5q0 172 59 274.5t165 102.5q77 0 120 -46t43 -128zM425 360v79q-54 18 -87 17q-83 -3 -83 -106q0 -98 64 -98q9 0 17.5 2t16 7l13.5 9t13 13.5t11 13.5t10.5 16.5t8.5 15.5t8.5 16.5t7.5 14.5z" />
    <glyph glyph-name="zero.numr" 
d="M300 333q79 0 79 178q0 179 -78 179q-80 0 -80 -179q0 -178 79 -178zM300 290q-35 0 -61.5 20t-41 53.5t-21 70t-6.5 76.5q0 31 5.5 65t19 71.5t41 62t65.5 24.5q39 0 67 -24t40 -62.5t17 -71.5t5 -65q0 -39 -7 -76t-21 -70.5t-40.5 -53.5t-61.5 -20z" />
    <glyph glyph-name="one.numr" 
d="M184 345h98v326h-5q-27 -84 -93 -191v93q49 76 79 150h70v-378h93v-44h-242v44z" />
    <glyph glyph-name="two.numr" 
d="M413 301h-240q-2 18 -2 38q0 52 24 86t68 63q41 27 62 44q44 35 44 85q0 32 -20 52t-51 20q-35 0 -54.5 -23t-19.5 -60h-55q1 52 38.5 89.5t91.5 37.5q52 0 87.5 -33t35.5 -82q0 -72 -71 -127q-28 -21 -67 -45q-71 -42 -65 -100h194v-45z" />
    <glyph glyph-name="three.numr" 
d="M151 409h57q1 -38 22.5 -58t56.5 -20q34 0 55.5 20.5t21.5 53.5q0 81 -101 88l-28 2v42l21 1q45 2 76 21.5t31 60.5q0 34 -19.5 51.5t-51.5 17.5q-29 0 -50 -16t-24 -47h-54q8 53 45.5 79t80.5 26q57 0 90.5 -31t33.5 -77q0 -75 -82 -103v-5q87 -26 87 -110
q0 -48 -37 -82.5t-97 -34.5q-54 0 -92 33.5t-42 87.5z" />
    <glyph glyph-name="four.numr" 
d="M311 301v93h-174v55q72 115 153 273h71v-284h50v-44h-50v-93h-50zM179 437h132v234h-5q-30 -58 -61.5 -115.5t-48.5 -85.5l-17 -29v-4z" />
    <glyph glyph-name="five.numr" 
d="M174 403h55q2 -34 19.5 -53.5t47.5 -19.5q38 0 58 32t20 79q0 110 -69 110q-50 0 -75 -57h-48l4 228h224v-43h-178l-9 -139h5q30 55 88 55q52 0 81.5 -45t29.5 -105q0 -70 -36 -114t-97 -44q-46 0 -81 32.5t-39 83.5z" />
    <glyph glyph-name="six.numr" 
d="M420 631h-49q-5 59 -57 59q-43 0 -72.5 -45.5t-32.5 -136.5h5q37 72 99 72q46 0 81 -40.5t35 -107.5q0 -62 -37 -103t-89 -41q-65 0 -101.5 59t-36.5 149q0 54 14 105t50 90.5t88 39.5q51 0 75.5 -30.5t27.5 -69.5zM304 332q33 0 52.5 26t19.5 72q0 51 -19 78.5t-52 27.5
q-34 0 -56 -28.5t-22 -64.5q0 -49 21 -80t56 -31z" />
    <glyph glyph-name="seven.numr" 
d="M169 611v111h257v-40q-42 -85 -81.5 -180t-58.5 -148l-18 -53h-60q77 197 170 378h-166l1 -68h-44z" />
    <glyph glyph-name="eight.numr" 
d="M300 690q-35 0 -55 -20.5t-20 -53.5q0 -34 20 -54.5t55 -20.5t55 20.5t20 54.5q0 33 -20 53.5t-55 20.5zM300 496q-38 0 -60 -23.5t-22 -61.5q0 -34 22.5 -56.5t59.5 -22.5t59.5 22.5t22.5 56.5q0 38 -22 61.5t-60 23.5zM300 288q-59 0 -97 35t-38 84q0 80 74 109v6
q-65 31 -65 96q0 46 35.5 79.5t90.5 33.5q58 0 92 -33t34 -80q0 -65 -65 -96v-6q74 -29 74 -109q0 -49 -37.5 -84t-97.5 -35z" />
    <glyph glyph-name="nine.numr" 
d="M174 388h49q5 -59 57 -59q43 0 72.5 45.5t32.5 136.5h-5q-37 -72 -99 -72q-46 0 -81 40.5t-35 107.5q0 62 37 103t89 41q65 0 101.5 -59t36.5 -149q0 -54 -14 -105t-50 -90.5t-88 -39.5q-51 0 -75.5 30.5t-27.5 69.5zM290 688q-33 0 -52.5 -26t-19.5 -72q0 -51 19 -78.5
t52 -27.5q34 0 56 28.5t22 64.5q0 49 -21 80t-56 31z" />
    <glyph glyph-name="zero.dnom" 
d="M300 32q79 0 79 178q0 179 -78 179q-80 0 -80 -179q0 -178 79 -178zM300 -11q-35 0 -61.5 20t-41 53.5t-21 70t-6.5 76.5q0 31 5.5 65t19 71.5t41 62t65.5 24.5q39 0 67 -24t40 -62.5t17 -71.5t5 -65q0 -39 -7 -76t-21 -70.5t-40.5 -53.5t-61.5 -20z" />
    <glyph glyph-name="one.dnom" 
d="M184 44h98v326h-5q-27 -84 -93 -191v93q49 76 79 150h70v-378h93v-44h-242v44z" />
    <glyph glyph-name="two.dnom" 
d="M413 0h-240q-2 18 -2 38q0 52 24 86t68 63q41 27 62 44q44 35 44 85q0 32 -20 52t-51 20q-35 0 -54.5 -23t-19.5 -60h-55q1 52 38.5 89.5t91.5 37.5q52 0 87.5 -33t35.5 -82q0 -72 -71 -127q-28 -21 -67 -45q-71 -42 -65 -100h194v-45z" />
    <glyph glyph-name="three.dnom" 
d="M151 108h57q1 -38 22.5 -58t56.5 -20q34 0 55.5 20.5t21.5 53.5q0 81 -101 88l-28 2v42l21 1q45 2 76 21.5t31 60.5q0 34 -19.5 51.5t-51.5 17.5q-29 0 -50 -16t-24 -47h-54q8 53 45.5 79t80.5 26q57 0 90.5 -31t33.5 -77q0 -75 -82 -103v-5q87 -26 87 -110
q0 -48 -37 -82.5t-97 -34.5q-54 0 -92 33.5t-42 87.5z" />
    <glyph glyph-name="four.dnom" 
d="M311 0v93h-174v55q72 115 153 273h71v-284h50v-44h-50v-93h-50zM179 136h132v234h-5q-30 -58 -61.5 -115.5t-48.5 -86.5l-17 -28v-4z" />
    <glyph glyph-name="five.dnom" 
d="M174 102h55q2 -34 19.5 -53.5t47.5 -19.5q38 0 58 32t20 79q0 110 -69 110q-50 0 -75 -57h-48l4 228h224v-43h-178l-9 -139h5q30 55 88 55q52 0 81.5 -45t29.5 -105q0 -70 -36 -114t-97 -44q-46 0 -81 32.5t-39 83.5z" />
    <glyph glyph-name="six.dnom" 
d="M420 330h-49q-5 59 -57 59q-43 0 -72.5 -45.5t-32.5 -136.5h5q37 72 99 72q46 0 81 -40.5t35 -107.5q0 -62 -37 -103t-89 -41q-65 0 -101.5 59t-36.5 149q0 54 14 105t50 90.5t88 39.5q51 0 75.5 -30.5t27.5 -69.5zM304 31q33 0 52.5 26t19.5 72q0 51 -19 78.5t-52 27.5
q-34 0 -56 -28.5t-22 -64.5q0 -49 21 -80t56 -31z" />
    <glyph glyph-name="seven.dnom" 
d="M169 310v111h257v-40q-42 -85 -81.5 -180t-58.5 -148l-18 -53h-60q77 197 170 378h-166l1 -68h-44z" />
    <glyph glyph-name="eight.dnom" 
d="M300 389q-35 0 -55 -20.5t-20 -53.5q0 -34 20 -54.5t55 -20.5t55 20.5t20 54.5q0 33 -20 53.5t-55 20.5zM300 195q-38 0 -60 -23.5t-22 -61.5q0 -34 22.5 -56.5t59.5 -22.5t59.5 22.5t22.5 56.5q0 38 -22 61.5t-60 23.5zM300 -13q-59 0 -97 35t-38 84q0 80 74 109v6
q-65 31 -65 96q0 46 35.5 79.5t90.5 33.5q58 0 92 -33t34 -80q0 -65 -65 -96v-6q74 -29 74 -109q0 -49 -37.5 -84t-97.5 -35z" />
    <glyph glyph-name="nine.dnom" 
d="M174 87h49q5 -59 57 -59q43 0 72.5 45.5t32.5 136.5h-5q-37 -72 -99 -72q-46 0 -81 40.5t-35 107.5q0 62 37 103t89 41q65 0 101.5 -59t36.5 -149q0 -54 -14 -105t-50 -90.5t-88 -39.5q-51 0 -75.5 30.5t-27.5 69.5zM290 387q-33 0 -52.5 -26t-19.5 -72q0 -51 19 -78.5
t52 -27.5q34 0 56 28.5t22 64.5q0 49 -21 80t-56 31z" />
    <glyph glyph-name="caron.salt" 
d="M304 603q-22 4 -37 20t-15 38q0 27 17 44t43 17q24 0 41.5 -16.5t17.5 -44.5q0 -23 -5 -39q-20 -65 -75 -120h-64q45 30 83 83q11 15 -6 18z" />
    <glyph glyph-name="caron.case" 
d="M447 911l-143 -156h-8l-142 156h61l81 -66h8l83 66h60z" />
    <glyph glyph-name="circumflex.case" 
d="M304 922l143 -160h-60l-83 70h-8l-81 -70h-61l142 160h8z" />
    <glyph glyph-name="acute.case" 
d="M376 917l38 -78l-206 -80l-23 46z" />
    <glyph glyph-name="grave.case" 
d="M185 839l38 78l191 -112l-23 -46z" />
    <glyph glyph-name="macron.case" 
d="M150 787v64h300v-64h-300z" />
    <glyph glyph-name="breve.case" 
d="M299 830q33 0 53.5 16.5t25.5 31.5t6 29h42q2 -60 -31 -99.5t-96 -39.5t-96 39.5t-31 99.5h42q1 -10 4 -20.5t11 -24.5t26.5 -23t43.5 -9z" />
    <glyph glyph-name="ring.case" 
d="M210 849q0 37 26 61.5t64 24.5t64 -24.5t26 -61.5t-26 -62t-64 -25t-64 25t-26 62zM254 849q0 -19 13.5 -32t32.5 -13t32.5 12.5t13.5 32.5q0 19 -14 32t-32 13q-19 0 -32.5 -12.5t-13.5 -32.5z" />
    <glyph glyph-name="tilde.case" 
d="M196 772h-44q-1 59 23 85.5t60 26.5q20 0 67 -19q50 -20 60 -20q36 0 41 45h44q1 -59 -23 -85.5t-60 -26.5q-20 0 -67 19q-5 2 -15 6.5t-16 7t-13.5 4.5t-14.5 2q-37 0 -42 -45z" />
    <glyph glyph-name="dotaccent.case" 
d="M299 772q-26 0 -41.5 16.5t-15.5 40.5q0 25 15.5 41.5t41.5 16.5q25 0 41 -17t16 -41t-16 -40.5t-41 -16.5z" />
    <glyph glyph-name="hungarumlaut.case" 
d="M257 936l52 -65l-161 -109l-31 37zM431 936l52 -65l-162 -109l-31 37z" />
    <glyph glyph-name="dieresis.case" 
d="M395 772q-26 0 -41.5 16.5t-15.5 40.5q0 25 15.5 41.5t41.5 16.5q25 0 41 -17t16 -41t-16 -40.5t-41 -16.5zM205 772q-25 0 -41 16.5t-16 40.5t16 41t41 17q26 0 41.5 -16.5t15.5 -41.5q0 -24 -15.5 -40.5t-41.5 -16.5z" />
    <glyph glyph-name="afii10072.BUL" 
d="M272 262l-1 460h59l-1 -460h8l124 241h69l-144 -252l164 -251h-72l-141 237h-8l1 -237h-59l1 237h-8l-141 -237h-72l164 251l-144 252h69l124 -241h8z" />
    <glyph glyph-name="afii10096.BUL" 
d="M149 722v-220l-1 -216h77q4 59 18.5 107.5t49.5 85t86 36.5q44 0 76 -25t48.5 -66t24 -84t7.5 -89q0 -51 -8.5 -96.5t-26 -85t-49 -63t-74.5 -23.5q-41 0 -71.5 21t-47 58t-25 79.5t-9.5 91.5h-76l1 -233h-59v519l9 203h50zM378 459q-46 0 -69 -57.5t-23 -150.5
q0 -211 92 -211q27 0 46 18.5t29 51t14 67t4 74.5q0 93 -23.5 150.5t-69.5 57.5z" />
    <glyph glyph-name="afii10068.BUL" 
d="M410 139h65q-6 -75 -56.5 -114.5t-122.5 -39.5q-78 0 -124 41.5t-46 106.5q0 34 14 60.5t41 44.5t51 28t58 21q60 19 87 40t27 57q0 37 -27 58t-70 21q-45 0 -74 -25.5t-30 -64.5h-64q7 67 53 105t113 38q74 0 118 -38.5t44 -99.5q0 -31 -14.5 -56t-40.5 -42t-49 -27
t-53 -20q-67 -22 -94.5 -44.5t-27.5 -63.5q0 -39 29 -62t78 -23q57 0 87 31.5t28 67.5z" />
    <glyph glyph-name="afii10075.BUL" 
d="M481 502v-355q0 -90 19 -147h-69l-4 94h-8q-75 -109 -168 -109q-67 0 -102.5 45.5t-35.5 126.5v345h60v-344q0 -60 21.5 -89.5t68.5 -29.5q50 0 95 48t63 112v303h60zM160 600v65h280v-65h-280z" />
    <glyph glyph-name="afii10077.BUL" 
d="M340 502l157 -502h-65l-125 432h-8l-131 -432h-66l162 502h76z" />
    <glyph glyph-name="afii10081.BUL" 
d="M119 0v355q0 86 -19 147h67l6 -99h8q69 114 163 114q70 0 106.5 -44.5t36.5 -127.5v-345h-60v344q0 63 -20.5 91.5t-69.5 28.5t-95.5 -50t-62.5 -113v-301h-60z" />
    <glyph glyph-name="afii10084.BUL" 
d="M80 0v355q0 83 -19 147h64l7 -84h8q31 98 101 98q37 0 56 -26t25 -77h8q37 103 106 103q50 0 72 -38t22 -120v-358h-60v360q0 58 -11 80.5t-34 22.5q-55 0 -90 -138v-325h-60v364q0 99 -45 99q-55 0 -90 -138v-325h-60z" />
    <glyph glyph-name="afii10088.BUL" 
d="M475 502v-446h60l-4 -174h-56v118h-50l-4 95h-8q-74 -110 -164 -110q-67 0 -103 45t-36 127v345h60v-344q0 -119 90 -119q49 0 94 48.5t61 111.5v303h60z" />
    <glyph glyph-name="afii10090.BUL" 
d="M520 502v-355q0 -83 19 -147h-64l-7 84h-8q-31 -98 -101 -98q-37 0 -56 26t-25 77h-8q-37 -103 -106 -103q-50 0 -72 38t-22 120v358h60v-360q0 -58 11 -80.5t34 -22.5q55 0 90 138v325h60v-364q0 -99 45 -99q55 0 90 138v325h60z" />
    <glyph glyph-name="afii10091.BUL" 
d="M495 -118v118h-47l-3 79h-7q-31 -92 -92 -92q-34 0 -50.5 22.5t-22.5 72.5h-7q-34 -95 -98 -95q-46 0 -67 37t-21 118v360h60v-362q0 -59 7.5 -80t29.5 -21q27 0 46 35t36 103v325h60v-365q0 -56 8.5 -77t29.5 -21q45 0 80 138v325h60l-1 -446h59l-4 -174h-56z" />
    <glyph glyph-name="afii10092.BUL" 
d="M335 -10q-67 0 -117.5 40.5t-50.5 119.5v298l-107 -1v55h167v-200l-3 -64h8q52 63 130 63q61 0 103.5 -43.5t42.5 -110.5t-47 -112t-126 -45zM341 248q-39 0 -69 -21.5t-45 -59.5v-25q0 -43 30.5 -70.5t80.5 -27.5q48 0 77 27.5t29 72.5q0 48 -28.5 76t-74.5 28z" />
    <glyph glyph-name="afii10094.BUL" 
d="M320 -10q-67 0 -118.5 40t-51.5 118v354h60v-200l-3 -64h8q52 63 131 63q61 0 105.5 -44t44.5 -110t-48.5 -111.5t-127.5 -45.5zM326 248q-39 0 -70 -22t-46 -59v-25q0 -44 30.5 -71t81.5 -27q50 0 80 26.5t30 73.5t-29.5 75.5t-76.5 28.5z" />
    <glyph glyph-name="afii10076.BUL" 
d="M150 0v722h60v-442h8l180 223h78l-202 -236l215 -267h-78l-193 251h-8v-251h-60z" />
    <glyph glyph-name="afii10029.BUL" 
d="M346 722l170 -722h-65l-142 644h-8l-150 -644h-69l181 722h83z" />
    <glyph glyph-name="afii10073.BUL" 
d="M401 24v101q0 93 -117 108q-25 3 -55 3v52q17 0 49 2q112 7 112 89q0 37 -27 60.5t-74 23.5q-79 0 -108 -82h-69q43 135 179 135q75 0 120 -37.5t45 -95.5q0 -83 -98 -118v-8q52 -13 79.5 -49t27.5 -84v-93q0 -92 -46 -146.5t-133 -54.5q-79 0 -123.5 47t-51.5 110h67
q3 -44 30 -73.5t77 -29.5q116 0 116 140z" />
    <glyph glyph-name="afii10074.BUL" 
d="M481 502v-355q0 -90 19 -147h-69l-4 94h-8q-75 -109 -168 -109q-67 0 -102.5 45.5t-35.5 126.5v345h60v-344q0 -60 21.5 -89.5t68.5 -29.5q50 0 95 48t63 112v303h60z" />
    <glyph glyph-name="afii10067.BUL" 
d="M181 534q-6 -165 0 -344q2 -67 36.5 -107.5t99.5 -40.5q63 0 95.5 38.5t32.5 104.5q0 67 -36 107t-102 47q-33 3 -62 3v54q33 0 53 2q66 6 98.5 45t32.5 98q0 60 -32 93.5t-87 33.5q-60 0 -93.5 -37t-35.5 -97zM122 193q-3 163 0 336q2 89 57 140.5t133 51.5
q81 0 130 -48t49 -125q0 -118 -123 -173v-7q62 -21 100.5 -67.5t38.5 -114.5q0 -85 -50 -141.5t-141 -56.5q-88 0 -140 58.5t-54 146.5z" />
    <glyph glyph-name="afii10069.BUL" 
d="M424 428h8l10 74h69q-25 -64 -25 -147v-347q0 -93 -50 -146.5t-141 -53.5q-74 0 -120 43t-56 100h69q2 -39 29 -64.5t77 -25.5q65 0 98.5 36t33.5 103l5 97h-8q-52 -91 -141 -91q-91 0 -141.5 74t-50.5 186q0 108 53 179.5t142 71.5q83 0 139 -89zM153 266q0 -99 36 -152
t102 -53q55 0 92 44.5t43 103.5v102q-4 59 -40.5 105t-96.5 46q-66 0 -101 -51.5t-35 -144.5z" />
    <glyph glyph-name="afii10021.BUL" 
d="M346 722l146 -660h63v-62l-4 -133h-61v133h-380v-133h-66l-4 133v62h62l157 660h87zM299 648l-132 -591h263l-123 591h-8z" />
    <glyph glyph-name="afii10038.BUL" 
d="M332 -102h-65v170q-100 11 -158.5 89.5t-58.5 201.5q0 119 60.5 199t156.5 93v143h65v-143q96 -13 157 -93t61 -199q0 -124 -58.5 -202t-159.5 -89v-170zM482 359q0 97 -40 160t-111 75v-468q75 10 113 71.5t38 161.5zM118 359q0 -100 37.5 -161t112.5 -72v468
q-71 -13 -110.5 -76t-39.5 -159z" />
    <glyph glyph-name="afii10017.BULgrave" 
d="M189 255h218l-107 405h-8zM173 195l-49 -195h-64l191 722h88l201 -722h-67l-51 195h-249zM115 839l38 78l191 -112l-23 -46z" />
    <glyph glyph-name="afii10022.BULgrave" 
d="M145 0v722h352v-60h-287v-264h273v-60h-273v-278h298v-60h-363zM215 839l38 78l191 -112l-23 -46z" />
    <glyph glyph-name="afii10026.BULgrave" 
d="M500 722v-722h-61v608h-8l-250 -608h-81v722h61v-607h8l249 607h82zM185 839l38 78l191 -112l-23 -46z" />
    <glyph glyph-name="afii10032.BULgrave" 
d="M300 -14q-106 0 -161.5 102.5t-55.5 277.5q0 163 56 266.5t161 103.5t161 -103.5t56 -266.5q0 -175 -55.5 -277.5t-161.5 -102.5zM300 677q-151 0 -151 -313q0 -319 151 -319t151 319q0 313 -151 313zM155 839l38 78l191 -112l-23 -46z" />
    <glyph glyph-name="afii10037.BULgrave" 
d="M515 722l-199 -636q-31 -100 -132 -100q-38 0 -81 19l13 62q31 -19 69 -19q51 0 71 55q14 40 28 93q4 16 -4.5 25.5t-24.5 7.5l-180 493h73l157 -461h9l132 461h69zM155 839l38 78l191 -112l-23 -46z" />
    <glyph glyph-name="afii10044.BULgrave" 
d="M235 416h49q103 0 169.5 -54.5t66.5 -151.5q0 -101 -69.5 -155.5t-176.5 -54.5h-104v663l-130 -2v61h195v-306zM235 357v-297l43 1q174 2 174 148q0 72 -46 109t-116 38zM1 839l38 78l191 -112l-23 -46z" />
    <glyph glyph-name="afii10045.BULgrave" 
d="M456 722h64v-722h-64v722zM145 416h15q96 0 160 -56t64 -149q0 -95 -65.5 -153t-162.5 -58h-76v722h65v-306zM145 357v-297l18 1q73 4 113.5 41t40.5 108q0 67 -42.5 105t-109.5 41zM165 839l38 78l191 -112l-23 -46z" />
    <glyph glyph-name="afii10047.BULgrave" 
d="M152 528h-69q10 97 56 153t124 56q63 0 111.5 -33.5t76 -89.5t41 -120t13.5 -133q0 -63 -12.5 -125t-39 -120.5t-76 -94.5t-115.5 -36q-79 0 -127.5 58t-59.5 157h70q9 -155 117 -155q45 0 79.5 26t54 70t29.5 93.5t12 104.5l-245 -1v61l245 -1q-6 123 -49 202t-125 79
q-103 0 -111 -151zM115 839l38 78l191 -112l-23 -46z" />
    <glyph glyph-name="afii10048.BULgrave" 
d="M384 -15q-150 0 -154 359h-86l1 -344h-65v722h65l-1 -318h86q2 67 11 123.5t26.5 105t47.5 76.5t70 28q43 0 74.5 -31.5t48.5 -87t24.5 -117.5t7.5 -135q0 -381 -156 -381zM384 677q-88 0 -88 -313q0 -319 88 -319q89 0 89 319q0 313 -89 313zM135 839l38 78l191 -112
l-23 -46z" />
    <glyph glyph-name="afii10049.BULgrave" 
d="M475 722v-722h-65v321h-36l-226 -321h-80l236 325q-100 12 -155 67t-55 132q0 87 65.5 142.5t163.5 55.5h152zM410 381v282l-90 -1q-70 -1 -113.5 -37.5t-43.5 -102.5q0 -62 45 -99.5t120 -39.5zM195 839l38 78l191 -112l-23 -46z" />
    <glyph glyph-name="afii10065.BULgrave" 
d="M495 0h-76l-8 76h-8q-33 -44 -69.5 -67t-90.5 -23q-63 0 -101 40.5t-38 107.5q0 70 46 118t118 48q58 0 135 -21v68q0 116 -108 116q-52 0 -79 -27t-32 -67h-71q17 67 65 106.5t118 39.5q78 0 121.5 -43t43.5 -124v-206q0 -76 34 -142zM403 148v85q-67 17 -126 16
q-55 -1 -83 -31.5t-28 -81.5q0 -44 23.5 -70.5t67.5 -26.5q35 0 66.5 20t46.5 40t33 49zM157 647l40 75l186 -123l-24 -42z" />
    <glyph glyph-name="afii10070.BULgrave" 
d="M481 245h-300q0 -85 37.5 -144.5t103.5 -59.5q45 0 69.5 29t28.5 74h64q-26 -158 -165 -158q-94 0 -148 80t-54 190q0 107 55.5 182.5t143.5 75.5q51 0 87 -24t53.5 -64.5t23 -85.5t1.5 -95zM183 298l238 3q0 25 -3 49t-13 51t-33 43.5t-57 16.5q-57 0 -90 -45t-42 -118z
M167 647l40 75l186 -123l-24 -42z" />
    <glyph glyph-name="afii10074.BULgrave" 
d="M118 0v502h58l-1 -414h9l220 414h78v-502h-58l1 413h-8l-221 -413h-78zM187 647l40 75l186 -123l-24 -42z" />
    <glyph glyph-name="afii10080.BULgrave" 
d="M300 -17q-95 0 -147.5 79.5t-52.5 188.5q0 62 19.5 119.5t66.5 101t114 43.5t114 -43.5t66.5 -101t19.5 -119.5q0 -109 -52.5 -188.5t-147.5 -79.5zM300 460q-63 0 -99.5 -55t-36.5 -154q0 -55 12 -100.5t43.5 -79t80.5 -33.5t80.5 33.5t43.5 79t12 100.5q0 99 -36.5 154
t-99.5 55zM157 647l40 75l186 -123l-24 -42z" />
    <glyph glyph-name="afii10085.BULgrave" 
d="M492 502q-169 -569 -184 -613q-26 -78 -115 -78q-48 0 -77 13l6 57q38 -15 72 -15q46 0 61 41q14 36 28 93q4 17 -4.5 27.5t-27.5 7.5l-145 467h67l125 -435h8l121 435h65zM157 647l40 75l186 -123l-24 -42z" />
    <glyph glyph-name="afii10092.BULgrave" 
d="M299 0h-114v448l-110 -1v55h170v-201h53q90 0 146 -37.5t56 -110.5q0 -71 -56.5 -112t-144.5 -41zM245 250v-198l60 1q60 1 95.5 27t35.5 73q0 94 -131 96zM17 647l40 75l186 -123l-24 -42z" />
    <glyph glyph-name="afii10093.BULgrave" 
d="M184 0h-82v502h60v-205h21q88 0 141 -37t53 -108q0 -69 -53.5 -110.5t-139.5 -41.5zM162 246v-194l26 1q58 2 92 27.5t34 70.5q0 91 -126 94zM439 502h59v-502h-59v502zM177 647l40 75l186 -123l-24 -42z" />
    <glyph glyph-name="afii10095.BULgrave" 
d="M174 356h-63q10 73 52.5 117t113.5 44q88 0 145.5 -75t57.5 -192q0 -113 -57 -189t-146 -76q-139 0 -172 164h65q7 -47 32.5 -78t72.5 -31q64 0 100.5 57t39.5 137l-195 -1v57l194 -2q-7 77 -42 125.5t-96 48.5q-89 0 -102 -106zM127 647l40 75l186 -123l-24 -42z" />
    <glyph glyph-name="afii10096.BULgrave" 
d="M377 -17q-41 0 -71.5 21t-47 58t-25 79.5t-9.5 91.5h-75l1 -233h-60v502h60l-1 -216h76q4 59 18.5 107.5t49.5 85t86 36.5q44 0 76 -25t48.5 -66t24 -84t7.5 -89q0 -51 -8.5 -96.5t-26 -85t-49 -63t-74.5 -23.5zM378 459q-46 0 -69 -57.5t-23 -150.5q0 -211 92 -211
q27 0 46 18.5t29 51t14 67t4 74.5q0 93 -23.5 150.5t-69.5 57.5zM157 647l40 75l186 -123l-24 -42z" />
    <glyph glyph-name="afii10097.BULgrave" 
d="M375 0v218h-36l-169 -218h-75l179 221q-60 7 -106 43t-46 96q0 66 50.5 104t134.5 38h128v-502h-60zM375 269v183l-73 -1q-53 -1 -84.5 -25.5t-31.5 -66.5q0 -40 30.5 -64t85.5 -25zM177 647l40 75l186 -123l-24 -42z" />
    <glyph glyph-name="RP" 
d="M264 403l-115 202l5 3l115 -203zM337 403l115 202l-5 3l-115 -203zM264 291l-115 -202l5 -3l115 203zM337 291l115 -202l-5 -3l-115 203zM245 309l-189 -134l3 -5l189 135zM356 385l189 134l-4 5l-188 -135zM245 385l-189 134l3 5l189 -135zM356 309l189 -134l-4 -5
l-188 135zM277 409l-71 221l5 2l71 -221zM277 285l-71 -221l5 -2l71 221zM324 409l71 221l-6 2l-70 -221zM324 285l71 -221l-6 -2l-70 221zM254 299l-156 -172l4 -4l156 173zM254 395l-156 172l4 4l156 -173zM347 395l156 172l-4 4l-156 -173zM347 299l156 -172l-4 -4
l-156 173zM238 322l-213 -93l2 -5l214 93zM362 372l214 93l-3 5l-213 -93zM362 322l214 -93l-3 -5l-213 93zM238 372l-213 93l2 5l214 -93zM234 358l-227 47l2 6l226 -48zM234 336l-227 -47l2 -6l226 48zM367 358l227 47l-2 6l-226 -48zM367 336l227 -47l-2 -6l-226 48z
M291 281l-25 -230l5 -1l25 230zM310 413l25 230l-5 1l-25 -230zM310 281l25 -230l-5 -1l-25 230zM291 413l-25 230l5 1l25 -230zM0 349h233v-4h-233v4zM600 349h-233v-4h233v4zM370 438l109 149l-5 4l-109 -150zM231 438l-109 149l5 4l109 -150zM231 256l-109 -149l5 -4
l109 150zM370 256l109 -149l-5 -4l-109 150zM274 459l-38 179l6 2l37 -181h-5zM274 235l-38 -179l6 -2l37 181h-5zM327 459l38 179l-6 2l-38 -181h6zM327 235l38 -179l-6 -2l-38 181h6zM298 232v-185h5v185h-5zM298 462v185h5v-185h-5zM401 293l161 -92l-3 -5l-161 92z
M200 293l-161 -92l2 -5l162 92zM200 401l-161 92l2 5l162 -92zM401 401l161 92l-3 5l-161 -92zM411 314l176 -56l-2 -5l-176 56zM411 380l176 56l-2 5l-176 -56zM190 314l-176 -56l2 -5l176 56zM190 380l-176 56l2 5l176 -56zM525 545l-4 4l-137 -124l3 -4zM76 545l4 4
l137 -124l-3 -4zM525 149l-4 -4l-137 124l3 4zM76 149l4 -4l137 124l-3 4zM252 450l-75 170l5 2l75 -169zM348 450l76 170l-5 2l-75 -169zM348 244l76 -170l-5 -2l-75 169zM252 244l-75 -170l5 -2l75 169zM599 319l-1 -6l-184 20l1 5zM2 375l1 6l184 -20l-1 -5zM599 375
l-1 6l-184 -20l1 -5zM2 319l1 -6l184 20l-1 5z" />
    <glyph glyph-name="M.ss01" 
d="M95 0v722h100l101 -621h8l101 621h100v-722h-60l2 619h-8l-109 -637h-62l-107 637h-8l2 -619h-60z" />
    <glyph glyph-name="G.ss01" 
d="M449 113q-21 -60 -62.5 -92.5t-95.5 -32.5q-59 0 -101.5 34.5t-63.5 92.5t-30 118t-9 128q0 54 7.5 105.5t25.5 100.5t45 85.5t68.5 59t92.5 22.5q154 0 174 -196h-69q-8 138 -107 138q-47 0 -81 -25.5t-53.5 -70.5t-28.5 -99.5t-9 -119.5q0 -316 148 -316
q67 0 105.5 65.5t38.5 175.5l-189 -23v70h253l-1 -333h-44l-6 113h-8z" />
    <glyph glyph-name="i.ss01" 
d="M361 710v-104h-94v104h94zM284 448l-154 -1v55h214v-502h-60v448z" />
    <glyph glyph-name="j.ss01" 
d="M398 710v-104h-94v104h94zM324 448l-154 -1v55h214v-518q0 -82 -44.5 -129.5t-119.5 -47.5q-64 0 -104.5 38.5t-45.5 105.5h63q1 -40 23.5 -65t65.5 -25q47 0 74.5 31.5t27.5 85.5v470z" />
    <glyph glyph-name="adieresis.ss01" 
d="M419 0h76q-34 66 -34 142v206q0 81 -43.5 124t-121.5 43q-70 0 -118 -39.5t-65 -106.5h71q5 40 32 67t79 27q108 0 108 -116v-68q-77 21 -135 21q-72 0 -118 -48t-46 -118q0 -67 38 -107.5t101 -40.5q54 0 90.5 23t69.5 67h8zM403 233v-85q-18 -29 -33 -49t-46.5 -40
t-66.5 -20q-44 0 -67.5 26.5t-23.5 70.5q0 51 28 81.5t83 31.5q59 1 126 -16zM254 692v-103h-89v103h89zM435 692v-103h-89v103h89z" />
    <glyph glyph-name="cdotaccent.ss01" 
d="M489 356h-66q-6 49 -26.5 77.5t-67.5 28.5q-69 0 -104 -60.5t-35 -151.5q0 -85 36.5 -147.5t103.5 -62.5q83 0 99 109h66q-15 -76 -53.5 -120t-114.5 -44q-89 0 -145.5 75.5t-56.5 188.5q0 119 58.5 193.5t146.5 74.5q137 0 159 -161zM377 702v-104h-94v104h94z" />
    <glyph glyph-name="dcaron.ss01" 
d="M376 502v220h60v-643q0 -59 4 -79h-64l6 79h-8q-53 -94 -136 -94q-90 0 -137.5 78t-47.5 193q0 111 47.5 186t134.5 75q37 0 68.5 -18.5t42.5 -33t25 -36.5h8q-3 38 -3 73zM116 256q0 -102 32.5 -159t96.5 -57q55 0 90 45.5t41 105.5v118q-4 60 -38.5 106.5t-94.5 46.5
q-64 0 -95.5 -55t-31.5 -151zM598 722v-90q-26 -77 -75 -130h-60q54 45 82 95q3 6 0.5 11t-9.5 5h-42v109h104z" />
    <glyph glyph-name="edieresis.ss01" 
d="M481 245h-300q0 -85 37.5 -144.5t103.5 -59.5q45 0 69.5 29t28.5 74h64q-26 -158 -165 -158q-94 0 -148 80t-54 190q0 107 55.5 182.5t143.5 75.5q50 0 86 -24t53.5 -64.5t23.5 -86t2 -94.5zM183 298l238 3q0 25 -3 49t-13 51t-33 43.5t-57 16.5q-57 0 -90 -45t-42 -118z
M262 692v-103h-89v103h89zM443 692v-103h-89v103h89z" />
    <glyph glyph-name="edotaccent.ss01" 
d="M481 245h-300q0 -85 37.5 -144.5t103.5 -59.5q45 0 69.5 29t28.5 74h64q-26 -158 -165 -158q-94 0 -148 80t-54 190q0 107 55.5 182.5t143.5 75.5q50 0 86 -24t53.5 -64.5t23.5 -86t2 -94.5zM183 298l238 3q0 25 -3 49t-13 51t-33 43.5t-57 16.5q-57 0 -90 -45t-42 -118z
M357 702v-104h-94v104h94z" />
    <glyph glyph-name="gdotaccent.ss01" 
d="M424 428h8l10 74h69q-25 -64 -25 -147v-347q0 -93 -50 -146.5t-141 -53.5q-74 0 -120 43t-56 100h69q2 -39 29 -64.5t77 -25.5q65 0 98.5 36t33.5 103l5 97h-8q-52 -91 -141 -91q-91 0 -141.5 74t-50.5 186q0 108 53 179.5t142 71.5q83 0 139 -89zM153 266q0 -99 36 -152
t102 -53q55 0 92 44.5t43 103.5v102q-4 59 -40.5 105t-96.5 46q-66 0 -101 -51.5t-35 -144.5zM345 702v-104h-94v104h94z" />
    <glyph glyph-name="gcommaaccent.ss01" 
d="M424 428h8l10 74h69q-25 -64 -25 -147v-347q0 -93 -50 -146.5t-141 -53.5q-74 0 -120 43t-56 100h69q2 -39 29 -64.5t77 -25.5q65 0 98.5 36t33.5 103l5 97h-8q-52 -91 -141 -91q-91 0 -141.5 74t-50.5 186q0 108 53 179.5t142 71.5q83 0 139 -89zM153 266q0 -99 36 -152
t102 -53q55 0 92 44.5t43 103.5v102q-4 59 -40.5 105t-96.5 46q-66 0 -101 -51.5t-35 -144.5zM229 557v81q21 60 66 109h63q-53 -36 -75 -73q-4 -6 -1 -11t10 -5h38v-101h-101z" />
    <glyph glyph-name="idieresis.ss01" 
d="M284 448l-154 -1v55h214v-502h-60v448zM264 692v-103h-89v103h89zM445 692v-103h-89v103h89z" />
    <glyph glyph-name="iogonek.ss01" 
d="M344 -134v-42q-50 -27 -95 -27q-43 0 -62 20t-19 49q0 37 35.5 74t86.5 60h-6v448l-154 -1v55h214v-502q-106 -63 -106 -112q0 -37 48 -37q22 0 58 15zM361 710v-104h-94v104h94z" />
    <glyph glyph-name="kcommaaccent.ss01" 
d="M150 0v722h60v-442h8l180 223h78l-202 -236l215 -267h-77l-194 251h-8v-251h-60zM364 -57v-81q-21 -60 -66 -109h-63q53 36 75 73q4 6 1 11t-10 5h-38v101h101z" />
    <glyph glyph-name="lcaron.ss01" 
d="M342 519v-519h-60v667h-166v55h218zM517 722v-90q-26 -77 -75 -130h-60q54 45 82 95q3 6 0.5 11t-9.5 5h-42v109h104z" />
    <glyph glyph-name="lcommaaccent.ss01" 
d="M342 519v-519h-60v667h-166v55h218zM364 -57v-81q-21 -60 -66 -109h-63q53 36 75 73q4 6 1 11t-10 5h-38v101h101z" />
    <glyph glyph-name="ldot.ss01" 
d="M463 284v133h115v-133h-115zM342 519v-519h-60v667h-166v55h218z" />
    <glyph glyph-name="ncommaaccent.ss01" 
d="M119 0v355q0 86 -19 147h67l6 -99h8q69 114 163 114q70 0 106.5 -44.5t36.5 -127.5v-345h-60v344q0 63 -20.5 91.5t-69.5 28.5t-95.5 -50t-62.5 -113v-301h-60zM364 -57v-81q-21 -60 -66 -109h-63q53 36 75 73q4 6 1 11t-10 5h-38v101h101z" />
    <glyph glyph-name="odieresis.ss01" 
d="M300 -17q-95 0 -147.5 79.5t-52.5 188.5q0 62 19.5 119.5t66.5 101t114 43.5t114 -43.5t66.5 -101t19.5 -119.5q0 -109 -52.5 -188.5t-147.5 -79.5zM300 460q-63 0 -99.5 -55t-36.5 -154q0 -55 12 -100.5t43.5 -78.5t80.5 -33t80.5 33t43.5 78.5t12 100.5q0 99 -36.5 154
t-99.5 55zM254 692v-103h-89v103h89zM435 692v-103h-89v103h89z" />
    <glyph glyph-name="rcommaaccent.ss01" 
d="M204 0v344q0 88 -22 158h72l4 -114h8q56 128 165 128q33 0 59 -14v-61q-29 18 -61 18q-73 0 -114.5 -65.5t-50.5 -155.5v-238h-60zM289 -57v-81q-21 -60 -66 -109h-63q53 36 75 73q4 6 1 11t-10 5h-38v101h101z" />
    <glyph glyph-name="uni0219.ss01" 
d="M124 139h66q-2 -36 28 -67.5t87 -31.5q49 0 78 23t29 62q0 42 -28 64.5t-94 43.5q-155 49 -155 145q0 61 44 99.5t117 38.5q67 0 113 -38t53 -105h-64q-1 39 -30 64.5t-74 25.5q-43 0 -70.5 -21t-27.5 -58q0 -36 27 -56.5t87 -39.5q34 -11 58 -21.5t51 -28t41.5 -44.5
t14.5 -61q0 -65 -47 -106.5t-124 -41.5q-73 0 -123.5 40t-56.5 114zM350 -57v-81q-21 -60 -66 -109h-63q53 36 75 73q4 6 1 11t-10 5h-38v101h101z" />
    <glyph glyph-name="tcaron.ss01" 
d="M249 447v-293q0 -53 23 -80.5t76 -27.5q63 0 122 31v-64q-60 -23 -121 -23q-82 0 -121 45.5t-39 119.5v292h-119v55h119l13 169h47v-169h194v-55h-194zM437 772v-90q-26 -77 -75 -130h-60q54 45 82 95q3 6 0.5 11t-9.5 5h-42v109h104z" />
    <glyph glyph-name="uni021B.ss01" 
d="M249 447v-293q0 -53 23 -80.5t76 -27.5q63 0 122 31v-64q-60 -23 -121 -23q-82 0 -121 45.5t-39 119.5v292h-119v55h119l13 169h47v-169h194v-55h-194zM386 -57v-81q-21 -60 -66 -109h-63q53 36 75 73q4 6 1 11t-10 5h-38v101h101z" />
    <glyph glyph-name="udieresis.ss01" 
d="M481 502v-355q0 -90 19 -147h-69l-4 94h-8q-75 -109 -168 -109q-67 0 -102.5 45.5t-35.5 126.5v345h60v-344q0 -60 21.5 -89.5t68.5 -29.5q50 0 95 48t63 112v303h60zM254 692v-103h-89v103h89zM435 692v-103h-89v103h89z" />
    <glyph glyph-name="wdieresis.ss01" 
d="M304 351l79 -351h66l71 502h-60l-43 -413h-8l-76 344h-66l-75 -344h-8l-44 413h-60l71 -502h66l79 351h8zM254 692v-103h-89v103h89zM435 692v-103h-89v103h89z" />
    <glyph glyph-name="ydieresis.ss01" 
d="M492 502q-169 -569 -184 -613q-26 -78 -115 -78q-48 0 -77 13l6 57q38 -15 72 -15q46 0 61 41q14 36 28 93q4 17 -4.5 27.5t-27.5 7.5l-145 467h67l125 -435h8l121 435h65zM256 692v-103h-89v103h89zM437 692v-103h-89v103h89z" />
    <glyph glyph-name="zdotaccent.ss01" 
d="M120 0v59l296 388h-288v55h352v-59l-298 -388h298v-55h-360zM358 702v-104h-94v104h94z" />
    <glyph glyph-name="Adieresis.ss01" 
d="M189 255h218l-107 405h-8zM173 195l-49 -195h-64l191 722h88l201 -722h-67l-51 195h-249zM248 879v-103h-91v103h91zM436 879v-103h-91v103h91z" />
    <glyph glyph-name="Cdotaccent.ss01" 
d="M512 528h-69q-4 73 -27 111.5t-77 38.5q-62 0 -103 -46t-57 -114.5t-16 -156.5q0 -58 9 -110t28 -100t54.5 -76.5t84.5 -28.5q102 0 111 154h70q-11 -100 -56.5 -157.5t-124.5 -57.5q-67 0 -117 36t-76 94.5t-38.5 120t-12.5 125.5q0 69 13.5 133t41 120t76.5 89.5
t113 33.5q78 0 121 -55.5t52 -153.5zM375 878v-101h-85v101h85z" />
    <glyph glyph-name="Edieresis.ss01" 
d="M145 0v722h352v-60h-287v-264h273v-60h-273v-278h298v-60h-363zM276 879v-103h-91v103h91zM464 879v-103h-91v103h91z" />
    <glyph glyph-name="Edotaccent.ss01" 
d="M145 0v722h352v-60h-287v-264h273v-60h-273v-278h298v-60h-363zM373 878v-101h-85v101h85z" />
    <glyph glyph-name="Gbreve.ss01" 
d="M449 113q-21 -60 -62.5 -92.5t-95.5 -32.5q-59 0 -101.5 34.5t-63.5 92.5t-30 118t-9 128q0 54 7.5 105.5t25.5 100.5t45 85.5t68.5 59t92.5 22.5q154 0 174 -196h-69q-8 138 -107 138q-47 0 -81 -25.5t-53.5 -70.5t-28.5 -99.5t-9 -119.5q0 -316 148 -316
q67 0 105.5 65.5t38.5 175.5l-189 -23v70h253l-1 -333h-44l-6 113h-8zM327 830q33 0 53.5 16.5t25.5 31.5t6 29h42q2 -60 -31 -99.5t-96 -39.5t-96 39.5t-31 99.5h42q1 -10 4 -20.5t11 -24.5t26.5 -23t43.5 -9z" />
    <glyph glyph-name="Gcircumflex.ss01" 
d="M449 113q-21 -60 -62.5 -92.5t-95.5 -32.5q-59 0 -101.5 34.5t-63.5 92.5t-30 118t-9 128q0 54 7.5 105.5t25.5 100.5t45 85.5t68.5 59t92.5 22.5q154 0 174 -196h-69q-8 138 -107 138q-47 0 -81 -25.5t-53.5 -70.5t-28.5 -99.5t-9 -119.5q0 -316 148 -316
q67 0 105.5 65.5t38.5 175.5l-189 -23v70h253l-1 -333h-44l-6 113h-8zM311 922l143 -160h-60l-83 70h-8l-81 -70h-61l142 160h8z" />
    <glyph glyph-name="Gcommaaccent.ss01" 
d="M449 113q-21 -60 -62.5 -92.5t-95.5 -32.5q-59 0 -101.5 34.5t-63.5 92.5t-30 118t-9 128q0 54 7.5 105.5t25.5 100.5t45 85.5t68.5 59t92.5 22.5q154 0 174 -196h-69q-8 138 -107 138q-47 0 -81 -25.5t-53.5 -70.5t-28.5 -99.5t-9 -119.5q0 -316 148 -316
q67 0 105.5 65.5t38.5 175.5l-189 -23v70h253l-1 -333h-44l-6 113h-8zM364 -57v-81q-21 -60 -66 -109h-63q53 36 75 73q4 6 1 11t-10 5h-38v101h101z" />
    <glyph glyph-name="Gdotaccent.ss01" 
d="M449 113q-21 -60 -62.5 -92.5t-95.5 -32.5q-59 0 -101.5 34.5t-63.5 92.5t-30 118t-9 128q0 54 7.5 105.5t25.5 100.5t45 85.5t68.5 59t92.5 22.5q154 0 174 -196h-69q-8 138 -107 138q-47 0 -81 -25.5t-53.5 -70.5t-28.5 -99.5t-9 -119.5q0 -316 148 -316
q67 0 105.5 65.5t38.5 175.5l-189 -23v70h253l-1 -333h-44l-6 113h-8zM368 878v-101h-85v101h85z" />
    <glyph glyph-name="Idieresis.ss01" 
d="M268 663l-118 -1v60h300v-60l-117 1v-604l117 1v-60h-300v60l118 -1v604zM251 879v-103h-91v103h91zM439 879v-103h-91v103h91z" />
    <glyph glyph-name="Idotaccent.ss01" 
d="M268 663l-118 -1v60h300v-60l-117 1v-604l117 1v-60h-300v60l118 -1v604zM342 878v-101h-85v101h85z" />
    <glyph glyph-name="Kcommaaccent.ss01" 
d="M140 0v722h64v-343h8l234 343h77l-248 -353l280 -369h-81l-262 352h-8v-352h-64zM364 -57v-81q-21 -60 -66 -109h-63q53 36 75 73q4 6 1 11t-10 5h-38v101h101z" />
    <glyph glyph-name="Lcommaaccent.ss01" 
d="M170 0v722h65v-663l305 1v-60h-370zM404 -57v-81q-21 -60 -66 -109h-63q53 36 75 73q4 6 1 11t-10 5h-38v101h101z" />
    <glyph glyph-name="Lcaron.ss01" 
d="M170 0v722h65v-663l305 1v-60h-370zM429 722v-90q-26 -77 -75 -130h-60q54 45 82 95q3 6 0.5 11t-9.5 5h-42v109h104z" />
    <glyph glyph-name="Ldot.ss01" 
d="M456 284v133h115v-133h-115zM170 0v722h65v-663l305 1v-60h-370z" />
    <glyph glyph-name="Ncommaaccent.ss01" 
d="M100 0v722h86l247 -609h8v609h59v-722h-85l-248 615h-8v-615h-59zM354 -57v-81q-21 -60 -66 -109h-63q53 36 75 73q4 6 1 11t-10 5h-38v101h101z" />
    <glyph glyph-name="Odieresis.ss01" 
d="M300 -15q-106 0 -161.5 103t-55.5 278q0 163 56 267t161 104t161 -104t56 -267q0 -175 -55.5 -278t-161.5 -103zM300 677q-77 0 -113.5 -86t-36.5 -227q0 -147 36.5 -233t113.5 -86t113.5 86t36.5 233q0 141 -36.5 227t-113.5 86zM251 879v-103h-91v103h91zM439 879v-103
h-91v103h91z" />
    <glyph glyph-name="Rcommaaccent.ss01" 
d="M120 0v722h152q98 0 163 -52.5t65 -139.5q0 -76 -51.5 -129t-151.5 -65l243 -336h-82l-230 329h-43v-329h-65zM185 663v-274l84 2q76 2 119.5 38t43.5 98q0 65 -43 99.5t-114 35.5zM364 -57v-81q-21 -60 -66 -109h-63q53 36 75 73q4 6 1 11t-10 5h-38v101h101z" />
    <glyph glyph-name="uni0218.ss01" 
d="M90 192h70q0 -19 3.5 -37t13 -38.5t24.5 -35.5t41 -25t60 -10q68 0 103.5 35.5t35.5 93.5q0 57 -38 96.5t-114 66.5q-191 70 -191 210q0 81 54.5 134t141.5 53q85 0 135.5 -45t60.5 -132h-70q-12 119 -128 119q-58 0 -93 -35t-35 -93q0 -55 33.5 -89t114.5 -64
q197 -71 197 -215q0 -89 -57 -142t-153 -53q-88 0 -146.5 54.5t-62.5 151.5zM351 -57v-81q-21 -60 -66 -109h-63q53 36 75 73q4 6 1 11t-10 5h-38v101h101z" />
    <glyph glyph-name="uni021A.ss01" 
d="M332 0h-64v663l-198 -1v60h460v-60l-198 1v-663zM350 -57v-81q-21 -60 -66 -109h-63q53 36 75 73q4 6 1 11t-10 5h-38v101h101z" />
    <glyph glyph-name="Udieresis.ss01" 
d="M95 722h67v-496q0 -181 138 -181q140 0 140 182v495h65v-489q0 -117 -53.5 -182.5t-151.5 -65.5q-101 0 -153 65.5t-52 180.5v491zM253 879v-103h-91v103h91zM441 879v-103h-91v103h91z" />
    <glyph glyph-name="Wdieresis.ss01" 
d="M80 722h62l41 -630h8l74 536h73l70 -536h8l44 630h60l-67 -722h-82l-66 519h-8l-72 -519h-85zM253 879v-103h-91v103h91zM441 879v-103h-91v103h91z" />
    <glyph glyph-name="Ydieresis.ss01" 
d="M335 290v-290h-65v290q0 14 -14 17l-176 415h72l147 -373h8l145 373h68l-172 -415q-13 -5 -13 -17zM255 879v-103h-91v103h91zM443 879v-103h-91v103h91z" />
    <glyph glyph-name="Zdotaccent.ss01" 
d="M85 0v60l363 602h-348v60h415v-61l-362 -601h356v-60h-424zM349 878v-101h-85v101h85z" />
    <glyph glyph-name="f_i.ss01" 
d="M352 393h-123v-393h-60v393h-114v55h114v111q0 74 39 118.5t121 44.5q57 0 121 -22v-62q-59 31 -122 31q-53 0 -76 -27.5t-23 -80.5v-113h123v-55zM418 0v448h59v-448h-59z" />
    <glyph glyph-name="f_l.ss01" 
d="M229 561v-113h126v-55h-126v-393h-60v393h-114v55h114v111q0 74 39 118.5t121 44.5q57 0 148 -28v-694h-59v519l5 131q-52 19 -95 19q-53 0 -76 -27.5t-23 -80.5z" />
    <glyph glyph-name="f_f_i.ss01" 
d="M446 562v-114h99v-55h-99v-393h-60v393h-189v-393h-60v393h-82v55h82v111q0 72 42 117.5t118 45.5q69 0 121 -50q40 53 127 50v-61q-52 8 -75.5 -20t-23.5 -79zM197 561v-113h189v111q0 33 5 53q-29 55 -94 55q-100 0 -100 -106z" />
    <glyph glyph-name="afii10078.ss01" 
d="M437 401l-117 -415h-46l-111 415h-8l1 -401h-56v502h84l114 -422h4l117 422h81v-502h-56l1 401h-8z" />
    <glyph glyph-name="afii10030.ss01" 
d="M95 0v722h100l101 -621h8l101 621h100v-722h-60l2 619h-8l-109 -637h-62l-107 637h-8l2 -619h-60z" />
    <glyph glyph-name="afii10103.ss01" 
d="M361 710v-104h-94v104h94zM284 448l-154 -1v55h214v-502h-60v448z" />
    <glyph glyph-name="afii10105.ss01" 
d="M398 710v-104h-94v104h94zM324 448l-154 -1v55h214v-518q0 -82 -44.5 -129.5t-119.5 -47.5q-64 0 -104.5 38.5t-45.5 105.5h63q1 -40 23.5 -65t65.5 -25q47 0 74.5 31.5t27.5 85.5v470z" />
    <glyph glyph-name="afii10023.ss01" 
d="M145 0v722h352v-60h-287v-264h273v-60h-273v-278h298v-60h-363zM270 879v-103h-91v103h91zM458 879v-103h-91v103h91z" />
    <glyph glyph-name="afii10056.ss01" 
d="M268 663l-118 -1v60h300v-60l-117 1v-604l117 1v-60h-300v60l118 -1v604zM252 879v-103h-91v103h91zM440 879v-103h-91v103h91z" />
    <glyph glyph-name="afii10071.ss01" 
d="M481 245h-300q0 -85 37.5 -144.5t103.5 -59.5q45 0 69.5 29t28.5 74h64q-26 -158 -165 -158q-94 0 -148 80t-54 190q0 107 55.5 182.5t143.5 75.5q51 0 87 -24t53.5 -64.5t23 -85.5t1.5 -95zM183 298l238 3q0 25 -3 49t-13 51t-33 43.5t-57 16.5q-57 0 -90 -45t-42 -118z
M254 692v-103h-89v103h89zM435 692v-103h-89v103h89z" />
    <glyph glyph-name="afii10104.ss01" 
d="M284 448l-154 -1v55h214v-502h-60v448zM254 692v-103h-89v103h89zM435 692v-103h-89v103h89z" />
    <glyph glyph-name="comma.ss01" 
d="M360 148v-106q-30 -87 -87 -144h-78q70 46 104 102q4 6 1.5 11.5t-9.5 5.5h-46v131h115z" />
    <glyph glyph-name="period.ss01" 
d="M243 0v133h115v-133h-115z" />
    <glyph glyph-name="ellipsis.ss01" 
d="M251 0v133h98v-133h-98zM55 0v133h98v-133h-98zM447 0v133h98v-133h-98z" />
    <glyph glyph-name="colon.ss01" 
d="M242 369v133h115v-133h-115zM242 0v133h115v-133h-115z" />
    <glyph glyph-name="semicolon.ss01" 
d="M360 148v-106q-30 -87 -87 -144h-78q70 46 104 102q4 6 1.5 11.5t-9.5 5.5h-46v131h115zM245 369v133h115v-133h-115z" />
    <glyph glyph-name="periodcentered.ss01" 
d="M243 284v133h115v-133h-115z" />
    <glyph glyph-name="exclam.ss01" 
d="M338 722l-14 -539h-49l-13 539h76zM247 0v128h105v-128h-105z" />
    <glyph glyph-name="exclamdown.ss01" 
d="M324 319l14 -539h-76l13 539h49zM247 374v128h105v-128h-105z" />
    <glyph glyph-name="question.ss01" 
d="M185 545h-65q6 94 58.5 142t125.5 48q79 0 127.5 -48.5t48.5 -128.5q0 -58 -31 -103.5t-89 -92.5q-25 -21 -37 -44t-12.5 -46t0.5 -51l3 -38h-57q-3 15 -4 38q-3 64 12.5 104.5t58.5 77.5q45 38 68.5 72.5t23.5 81.5q0 61 -31.5 92.5t-81.5 31.5q-53 0 -85.5 -33
t-32.5 -103zM234 0v128h105v-128h-105z" />
    <glyph glyph-name="questiondown.ss01" 
d="M120 -44h65q0 -70 32.5 -103t85.5 -33q50 0 81.5 31.5t31.5 92.5q0 47 -23.5 81.5t-68.5 72.5q-43 37 -58.5 77.5t-12.5 104.5l4 38h57q-2 -17 -3 -38q-1 -28 -0.5 -51t12.5 -46t37 -44q58 -47 89 -92.5t31 -103.5q0 -80 -48.5 -128.5t-127.5 -48.5q-73 0 -125.5 48
t-58.5 142zM234 373v128h105v-128h-105z" />
    <glyph glyph-name="quoteleft.ss01" 
d="M238 472v106q30 87 87 144h78q-70 -46 -104 -102q-4 -6 -1.5 -11.5t9.5 -5.5h46v-131h-115z" />
    <glyph glyph-name="quoteright.ss01" 
d="M353 722v-106q-30 -87 -87 -144h-78q70 46 104 102q4 6 1.5 11.5t-9.5 5.5h-46v131h115z" />
    <glyph glyph-name="quotedblleft.ss01" 
d="M146 472v106q25 72 97 144h78q-78 -51 -113 -102q-4 -6 -1.5 -11.5t9.5 -5.5h42v-131h-112zM324 472v106q27 79 89 144h69q-70 -52 -100 -102q-4 -6 -1.5 -11.5t9.5 -5.5h46v-131h-112z" />
    <glyph glyph-name="quotedblright.ss01" 
d="M454 722v-106q-25 -72 -97 -144h-78q78 51 113 102q4 6 1.5 11.5t-9.5 5.5h-42v131h112zM276 722v-106q-27 -79 -89 -144h-69q70 52 100 102q4 6 1.5 11.5t-9.5 5.5h-46v131h112z" />
    <glyph glyph-name="quotesinglbase.ss01" 
d="M360 148v-106q-30 -87 -87 -144h-78q70 46 104 102q4 6 1.5 11.5t-9.5 5.5h-46v131h115z" />
    <glyph glyph-name="quotedblbase.ss01" 
d="M454 148v-106q-25 -72 -97 -144h-78q78 51 113 102q4 6 1.5 11.5t-9.5 5.5h-42v131h112zM276 148v-106q-27 -79 -89 -144h-69q70 52 100 102q4 6 1.5 11.5t-9.5 5.5h-46v131h112z" />
    <glyph glyph-name="divide.ss01" 
d="M525 301h-450v58h450v-58zM242 448v133h115v-133h-115zM242 79v133h115v-133h-115z" />
    <glyph glyph-name="because.ss01" 
d="M251 0v133h98v-133h-98zM55 589v133h98v-133h-98zM447 589v133h98v-133h-98z" />
    <glyph glyph-name="therefore.ss01" 
d="M349 722v-133h-98v133h98zM545 133v-133h-98v133h98zM153 133v-133h-98v133h98z" />
    <glyph glyph-name="commaaccent.ss01" 
d="M364 -57v-81q-21 -60 -66 -109h-63q53 36 75 73q4 6 1 11t-10 5h-38v101h101z" />
    <glyph glyph-name="caron.salt..ss01" 
d="M364 722v-90q-26 -77 -75 -130h-60q54 45 82 95q3 6 0.5 11t-9.5 5h-42v109h104z" />
    <glyph glyph-name="trademark.ss01" 
d="M167 361h-44v319h-67v42h177v-42h-66v-319zM384 433l-59 289h-63v-361h39l-2 293h6l64 -305h35l65 304h6l-2 -292h39v361h-62l-60 -289h-6z" />
    <glyph glyph-name="dieresis.ss01" 
d="M254 692v-103h-89v103h89zM435 692v-103h-89v103h89z" />
    <glyph glyph-name="dieresis.case.ss01" 
d="M251 879v-103h-91v103h91zM439 879v-103h-91v103h91z" />
    <glyph glyph-name="dotaccent.ss01" 
d="M347 702v-104h-94v104h94z" />
    <glyph glyph-name="dotaccent.case.ss01" 
d="M342 878v-101h-85v101h85z" />
    <glyph glyph-name="interrobang.ss01" 
d="M185 545h-65q6 94 58.5 142t125.5 48q76 0 126 -48t50 -125q0 -56 -26 -100t-78 -89q-37 -32 -47 -68.5t-7 -88.5l2 -33h-50l-10 494q-80 -22 -79 -132zM416 559q0 50 -22.5 79.5t-60.5 38.5l-11 -285h7q8 15 24 31q63 66 63 136zM244 0v128h105v-128h-105z" />
    <glyph glyph-name="interfinity.ss01" 
d="M300 734q68 0 114 -43t46 -108q0 -87 -113 -160q79 -63 79 -134q0 -49 -35.5 -82.5t-90.5 -33.5t-91 33.5t-36 82.5q0 73 79 134q-53 34 -82.5 71.5t-29.5 88.5q0 60 46 105.5t114 45.5zM299 681q-43 0 -70.5 -28.5t-27.5 -70.5q0 -41 25 -69t73 -58q49 30 74.5 58
t25.5 69q0 42 -28 70.5t-72 28.5zM366 289q0 58 -67 104q-67 -46 -67 -104q0 -28 19.5 -46.5t48.5 -18.5t47.5 18.5t18.5 46.5zM246 0v128h105v-128h-105z" />
    <glyph glyph-name="zero.zero" 
d="M300 -12q-57 0 -98.5 34.5t-63 92.5t-31 118t-9.5 124q0 50 8.5 106t28.5 120.5t63 106t103 41.5q51 0 90 -29t59.5 -70t33 -96.5t15.5 -96.5t3 -82q0 -64 -10 -124.5t-32 -117.5t-63 -92t-97 -35zM300 46q40 0 68 25l-166 533q-41 -82 -41 -245q0 -139 34 -226t105 -87z
M301 674q-36 0 -63 -22l165 -530q36 79 36 237q0 57 -6.5 108.5t-21.5 100t-43 77.5t-67 29z" />
    <glyph glyph-name="zero.sinf..zero" 
d="M300 -192q-35 0 -61.5 20t-41 53.5t-21 70t-6.5 76.5q0 31 5.5 65t19 71.5t41 62t65.5 24.5q39 0 67 -24t40 -62.5t17 -71.5t5 -65q0 -39 -7 -76t-21 -70.5t-40.5 -53.5t-61.5 -20zM300 -151q21 0 37 13l-96 303q-22 -48 -22 -136q0 -180 81 -180zM301 210q-17 0 -34 -12
l95 -301q19 47 19 132q0 76 -19 128.5t-61 52.5z" />
    <glyph glyph-name="zero.sups..zero" 
d="M300 470q-35 0 -61.5 20t-41 53.5t-21 70t-6.5 76.5q0 31 5.5 65t19 71.5t41 62t65.5 24.5q39 0 67 -24t40 -62.5t17 -71.5t5 -65q0 -39 -7 -76t-21 -70.5t-40.5 -53.5t-61.5 -20zM300 511q22 0 37 12l-96 304q-22 -48 -22 -136q0 -180 81 -180zM301 872q-17 0 -34 -12
l95 -302q19 47 19 133q0 76 -19 128.5t-61 52.5z" />
    <glyph glyph-name="zero.dnom..zero" 
d="M300 -11q-35 0 -61.5 20t-41 53.5t-21 70t-6.5 76.5q0 31 5.5 65t19 71.5t41 62t65.5 24.5q39 0 67 -24t40 -62.5t17 -71.5t5 -65q0 -39 -7 -76t-21 -70.5t-40.5 -53.5t-61.5 -20zM300 30q22 0 37 12l-96 304q-22 -48 -22 -136q0 -180 81 -180zM301 391q-17 0 -34 -12
l95 -302q19 47 19 133q0 76 -19 128.5t-61 52.5z" />
    <glyph glyph-name="zero.numr..zero" 
d="M300 290q-35 0 -61.5 20t-41 53.5t-21 70t-6.5 76.5q0 31 5.5 65t19 71.5t41 62t65.5 24.5q39 0 67 -24t40 -62.5t17 -71.5t5 -65q0 -39 -7 -76t-21 -70.5t-40.5 -53.5t-61.5 -20zM300 331q22 0 37 12l-96 304q-22 -48 -22 -136q0 -180 81 -180zM301 692q-17 0 -34 -12
l95 -302q19 47 19 133q0 76 -19 128.5t-61 52.5z" />
    <glyph glyph-name="ampersand.ss03" 
d="M244 -17q-90 0 -137 60t-47 147q0 70 31.5 129t87.5 91q-24 32 -36.5 51t-28.5 55.5t-16 65.5q0 64 43.5 109.5t120.5 45.5q74 0 114 -45t49 -118h-67q-8 111 -99 111q-44 0 -71.5 -27t-27.5 -74q0 -21 12 -49.5t23.5 -46t36.5 -53.5l170 -244q9 54 0.5 114t-27.5 105
h168v-67l-91 21q9 -38 8 -112.5t-18 -117.5l94 -134h-73l-53 76q-66 -93 -166 -93zM247 39q83 0 130 85l-165 238q-89 -50 -89 -172q0 -68 32 -109.5t92 -41.5z" />
  </font>
</defs>
</svg>
