<?xml version="1.0" standalone="no"?>
<!DOCTYPE svg PUBLIC "-//W3C//DTD SVG 1.1//EN" "http://www.w3.org/Graphics/SVG/1.1/DTD/svg11.dtd" >
<svg xmlns="http://www.w3.org/2000/svg" xmlns:xlink="http://www.w3.org/1999/xlink" version="1.1">
<metadata>
Created by FontForge 20190801 at Wed Feb 19 10:36:41 2014
 By www-data
Copyright (c) 2011 by Radim Pesko. All rights reserved.
</metadata>
<defs>
<font id="AgipoLight" horiz-adv-x="335" >
  <font-face 
    font-family="AgipoLight"
    font-weight="300"
    font-stretch="normal"
    units-per-em="1000"
    panose-1="2 0 5 3 4 0 0 2 0 3"
    ascent="722"
    descent="-278"
    x-height="502"
    cap-height="722"
    bbox="-150 -235 970 1119"
    underline-thickness="50"
    underline-position="-100"
    unicode-range="U+000D-FB04"
  />
<missing-glyph horiz-adv-x="500" 
 />
    <glyph glyph-name="f_f" unicode="ff" horiz-adv-x="587" 
d="M292 722v-48q-50 12 -78.5 -5.5t-28.5 -65.5v-101h204v105q0 63 30.5 94.5t85.5 31.5q29 0 51 -11v-48q-50 12 -78.5 -5.5t-28.5 -65.5v-101h108v-55h-108v-447h-60v447h-204v-447h-60v447h-95v55h95v105q0 63 30.5 94.5t85.5 31.5q29 0 51 -11z" />
    <glyph glyph-name="f_i" unicode="fi" horiz-adv-x="532" 
d="M185 502h264v-502h-60v448h-204v-448h-60v447h-95v55h95v105q0 63 30.5 94.5t85.5 31.5q29 0 51 -11v-48q-50 12 -78.5 -5.5t-28.5 -65.5v-101zM418 633q20 0 32.5 13t12.5 31q0 19 -12.5 32t-32.5 13t-32.5 -13t-12.5 -32q0 -18 12.5 -31t32.5 -13z" />
    <glyph glyph-name="f_l" unicode="fl" horiz-adv-x="529" 
d="M389 0v519l6 155q-84 6 -95 6q-62 0 -88.5 -22t-26.5 -78v-78h108v-55h-108v-447h-60v447h-95v55h95v94q0 65 39 101t106 36q17 0 127 -11h52v-722h-60z" />
    <glyph glyph-name="f_f_i" unicode="ffi" horiz-adv-x="797" 
d="M556 722v-48q-50 12 -78.5 -5.5t-28.5 -65.5v-101h263v-502h-60v448h-203v-448h-60v447h-204v-447h-60v447h-95v55h95v105q0 63 30.5 94.5t85.5 31.5q29 0 51 -11v-48q-50 12 -78.5 -5.5t-28.5 -65.5v-101h204v105q0 63 30.5 94.5t85.5 31.5q29 0 51 -11zM683 633
q20 0 32.5 13t12.5 31q0 19 -12.5 32t-32.5 13t-32.5 -13t-12.5 -32q0 -18 12.5 -31t32.5 -13z" />
    <glyph glyph-name="f_f_l" unicode="ffl" horiz-adv-x="793" 
d="M653 0v519l6 155q-84 6 -95 6q-62 0 -88.5 -22t-26.5 -78v-78h108v-55h-108v-447h-60v447h-204v-447h-60v447h-95v55h95v105q0 63 30.5 94.5t85.5 31.5q29 0 51 -11v-48q-50 12 -78.5 -5.5t-28.5 -65.5v-101h204v94q0 65 39 101t106 36q17 0 127 -11h52v-722h-60z" />
    <glyph glyph-name=".notdef" horiz-adv-x="500" 
 />
    <glyph glyph-name=".null" horiz-adv-x="0" 
 />
    <glyph glyph-name=".null" horiz-adv-x="0" 
 />
    <glyph glyph-name="nonmarkingreturn" horiz-adv-x="333" 
 />
    <glyph glyph-name="CR" unicode="&#xd;" horiz-adv-x="0" 
 />
    <glyph glyph-name="space" unicode=" " horiz-adv-x="250" 
 />
    <glyph glyph-name="exclam" unicode="!" horiz-adv-x="372" 
d="M226 722l-14 -553h-53l-13 553h80zM186 116q-24 0 -41 -16.5t-17 -41.5t17 -41.5t41 -16.5t41 16.5t17 41.5t-17 41.5t-41 16.5z" />
    <glyph glyph-name="quotedbl" unicode="&#x22;" horiz-adv-x="385" 
d="M90 692h65l-6 -241h-51zM295 692h-65l6 -241h51z" />
    <glyph glyph-name="numbersign" unicode="#" horiz-adv-x="540" 
d="M291 0l32 228h-139l-32 -228h-57l32 228h-102v55h110l21 145h-100v55h108l30 209h57l-30 -209h139l30 209h57l-30 -209h98v-55h-106l-21 -145h101v-55h-109l-32 -228h-57zM213 428l-21 -145h139l21 145h-139z" />
    <glyph glyph-name="dollar" unicode="$" horiz-adv-x="550" 
d="M300 -1v-67h-55v68q-199 23 -208 192h70q4 -115 138 -134v274q-193 62 -193 192q0 74 53 122t140 55v54h55v-54q79 -9 131.5 -52t64.5 -117h-70q-14 97 -126 114v-265q103 -27 156 -74t53 -122q0 -77 -56 -126t-153 -60zM442 179q0 52 -33.5 84t-108.5 54v-259
q76 10 109 44.5t33 76.5zM118 529q0 -91 127 -133v251q-61 -7 -94 -39.5t-33 -78.5z" />
    <glyph glyph-name="percent" unicode="%" horiz-adv-x="930" 
d="M255 -33h-58l473 755h57zM245 702q70 0 111.5 -54t41.5 -130q0 -78 -42.5 -130t-110.5 -52q-67 0 -110 52t-43 130q0 76 42 130t111 54zM245 383q51 0 73.5 40t22.5 94t-23 97t-73 43q-49 0 -72 -43t-23 -97t22 -94t73 -40zM685 355q70 0 111.5 -54t41.5 -130
q0 -78 -42.5 -130t-110.5 -52q-67 0 -110 52t-43 130q0 76 42 130t111 54zM685 36q51 0 73.5 40t22.5 94t-23 97t-73 43q-49 0 -72 -43t-23 -97t22 -94t73 -40z" />
    <glyph glyph-name="ampersand" unicode="&#x26;" horiz-adv-x="770" 
d="M314 -23q-96 0 -159.5 60t-63.5 147q0 72 41 132.5t107 92.5q-97 88 -97 170q0 69 52 114t136 45q80 0 130 -46.5t58 -117.5h-70q-4 52 -36.5 81.5t-84.5 29.5t-85.5 -28t-33.5 -77q0 -35 19.5 -65.5t60.5 -71.5l252 -250q54 112 27 240h73q15 -154 -57 -283l152 -150
h-86l-100 98q-94 -121 -235 -121zM315 36q116 0 193 103l-228 225q-60 -28 -92 -74.5t-32 -104.5q0 -64 46.5 -106.5t112.5 -42.5z" />
    <glyph glyph-name="quotesingle" unicode="'" horiz-adv-x="268" 
d="M100 692h68l-7 -241h-54z" />
    <glyph glyph-name="parenleft" unicode="(" horiz-adv-x="290" 
d="M62 318q0 209 132 424h56q-118 -215 -118 -424q0 -217 118 -424h-56q-132 215 -132 424z" />
    <glyph glyph-name="parenright" unicode=")" horiz-adv-x="290" 
d="M228 318q0 -209 -132 -424h-56q118 207 118 424q0 209 -118 424h56q132 -215 132 -424z" />
    <glyph glyph-name="asterisk" unicode="*" horiz-adv-x="540" 
d="M385 420l-56 -32l-59 137l-59 -137l-56 32l89 120l-148 -17v64l148 -17l-89 120l56 32l59 -138l59 138l56 -32l-90 -120l149 17v-64l-148 17z" />
    <glyph glyph-name="plus" unicode="+" horiz-adv-x="570" 
d="M255 0v222h-225v58h225v222h60v-222h225v-58h-225v-222h-60z" />
    <glyph glyph-name="comma" unicode="," horiz-adv-x="280" 
d="M138 15q-22 3 -37.5 19t-15.5 38q0 25 17 41.5t41 16.5t41 -16t17 -42q0 -18 -4 -37q-12 -54 -80 -131h-62q65 51 90 96q3 5 1 9.5t-8 5.5z" />
    <glyph glyph-name="hyphen" unicode="-" horiz-adv-x="350" 
d="M45 241v60h260v-60h-260z" />
    <glyph glyph-name="period" unicode="." horiz-adv-x="276" 
d="M138 116q24 0 41 -16.5t17 -41.5t-17 -41.5t-41 -16.5t-41 16.5t-17 41.5t17 41.5t41 16.5z" />
    <glyph glyph-name="slash" unicode="/" horiz-adv-x="279" 
d="M-20 -97l258 819h61l-259 -819h-60z" />
    <glyph glyph-name="zero" unicode="0" horiz-adv-x="540" 
d="M43 341q0 39 4.5 81t19.5 95t38.5 93.5t66.5 68.5t98 28q63 0 110 -35t71 -90.5t35.5 -112.5t11.5 -114q0 -51 -6.5 -100t-23.5 -99t-42 -87t-66 -60.5t-92 -23.5q-59 0 -104.5 33t-70.5 87t-37.5 114t-12.5 122zM113 343q0 -135 39.5 -217t116.5 -82q58 0 95.5 48
t50.5 112t13 141q0 141 -41.5 222t-115.5 81q-46 0 -79 -27t-49 -74t-23 -96.5t-7 -107.5z" />
    <glyph glyph-name="one" unicode="1" horiz-adv-x="480" 
d="M275 0v618h-4q-131 -194 -226 -305v93q39 44 110 141.5t100 145.5h85v-693h-65z" />
    <glyph glyph-name="two" unicode="2" horiz-adv-x="540" 
d="M469 0h-396q-3 29 -3 60q0 146 152 237q55 33 107 73q81 61 81 149q0 55 -36 92t-95 37q-69 0 -103 -42.5t-31 -103.5h-71q-3 90 55 147.5t151 57.5q88 0 144.5 -54.5t56.5 -135.5q0 -113 -114 -197q-46 -33 -115 -74q-25 -15 -42 -27.5t-38.5 -35.5t-31.5 -54t-8 -69
h337v-60z" />
    <glyph glyph-name="three" unicode="3" horiz-adv-x="540" 
d="M52 181h71q2 -63 40 -100t99 -37q59 0 97 35.5t38 94.5q0 77 -50 114.5t-123 40.5l-43 2v56l32 1q46 2 84 13.5t67.5 44.5t29.5 83q0 58 -38.5 88.5t-90.5 30.5q-49 0 -86 -28.5t-41 -84.5h-70q8 61 43.5 101.5t74 55.5t76.5 15q93 0 145.5 -50.5t52.5 -124.5
q0 -116 -134 -169v-4q69 -22 104.5 -72t35.5 -112q0 -80 -55.5 -135t-150.5 -55q-84 0 -144 52.5t-64 143.5z" />
    <glyph glyph-name="four" unicode="4" horiz-adv-x="540" 
d="M354 0v170h-314v78q145 212 287 445h92v-468h84v-55h-84v-170h-65zM94 224h260v402h-4q-55 -89 -119 -188.5t-101 -154.5l-36 -55v-4z" />
    <glyph glyph-name="five" unicode="5" horiz-adv-x="540" 
d="M75 170h71q2 -57 37 -91t87 -34q69 0 103 55.5t34 133.5q0 86 -32 135t-91 49q-42 0 -75.5 -26t-52.5 -68h-63l6 368h350v-60h-289l-8 -237h4q59 82 137 82q87 0 135 -70.5t48 -166.5q0 -113 -55.5 -184t-154.5 -71q-77 0 -130.5 51.5t-60.5 133.5z" />
    <glyph glyph-name="six" unicode="6" horiz-adv-x="540" 
d="M482 549h-71q-4 45 -30.5 71.5t-74.5 26.5q-76 0 -123.5 -76t-49.5 -226h4q63 99 167 99q75 0 132.5 -61.5t57.5 -165.5q0 -102 -57 -167t-145 -65q-106 0 -164.5 96.5t-58.5 243.5q0 42 4.5 82.5t14.5 85t28.5 82t43.5 68t63 47.5t85 17q84 0 128 -48.5t46 -109.5z
M294 45q57 0 94.5 45.5t37.5 122.5q0 81 -35 127.5t-95 47.5q-58 1 -101 -45.5t-43 -102.5q0 -83 37.5 -139t104.5 -56z" />
    <glyph glyph-name="seven" unicode="7" horiz-adv-x="510" 
d="M30 632v60h417v-57q-62 -129 -129 -287.5t-103 -253.5l-36 -94h-75q136 348 277 628v4h-351z" />
    <glyph glyph-name="eight" unicode="8" horiz-adv-x="540" 
d="M408 522q0 56 -38.5 93t-98.5 37q-59 0 -98.5 -35t-39.5 -95q0 -57 38 -94.5t100 -37.5q59 0 98 37t39 95zM123 184q0 -58 40 -98.5t108 -40.5t107.5 40.5t39.5 98.5q0 66 -42 106t-105 40q-66 0 -107 -41t-41 -105zM474 522q0 -56 -32 -99.5t-85 -59.5v-4
q64 -20 97.5 -67t33.5 -108q0 -77 -58 -138t-159 -61q-97 0 -158 57.5t-61 140.5q0 61 33.5 108t98.5 67v4q-54 19 -85.5 62t-31.5 98q0 26 10.5 55t32 59.5t63.5 50.5t98 20q97 0 150 -58.5t53 -126.5z" />
    <glyph glyph-name="nine" unicode="9" horiz-adv-x="540" 
d="M58 153h71q3 -47 30 -77.5t75 -30.5q76 0 123 75.5t49 225.5h-4q-62 -98 -166 -98q-75 0 -132.5 61.5t-57.5 165.5q0 102 57 167t145 65q71 0 122.5 -47.5t76 -123t24.5 -169.5q0 -42 -4.5 -82.5t-14.5 -85t-28.5 -82t-43.5 -68t-63 -47.5t-85 -17q-83 0 -127.5 53
t-46.5 115zM245 648q-57 0 -94.5 -46t-37.5 -123q0 -81 35 -126.5t95 -46.5q58 -1 100.5 45t42.5 102q0 83 -37 139t-104 56z" />
    <glyph glyph-name="colon" unicode=":" horiz-adv-x="276" 
d="M138 116q24 0 41 -16.5t17 -41.5t-17 -41.5t-41 -16.5t-41 16.5t-17 41.5t17 41.5t41 16.5zM138 502q24 0 41 -16.5t17 -41.5t-17 -41.5t-41 -16.5t-41 16.5t-17 41.5t17 41.5t41 16.5z" />
    <glyph glyph-name="semicolon" unicode=";" horiz-adv-x="280" 
d="M142 502q24 0 41 -16.5t17 -41.5t-17 -41.5t-41 -16.5t-41 16.5t-17 41.5t17 41.5t41 16.5zM137 15q-22 3 -37.5 19t-15.5 38q0 25 17 41.5t41 16.5t41 -16t17 -42q0 -18 -4 -37q-12 -54 -80 -131h-62q65 51 90 96q3 5 1 9.5t-8 5.5z" />
    <glyph glyph-name="less" unicode="&#x3c;" horiz-adv-x="570" 
d="M540 18l-510 198v69l510 198v-62l-447 -169v-4l447 -168v-62z" />
    <glyph glyph-name="equal" unicode="=" horiz-adv-x="570" 
d="M540 378v-59h-510v59h510zM540 183v-59h-510v59h510z" />
    <glyph glyph-name="greater" unicode="&#x3e;" horiz-adv-x="570" 
d="M540 216l-510 -198v62l447 168v4l-447 169v62l510 -198v-69z" />
    <glyph glyph-name="question" unicode="?" horiz-adv-x="500" 
d="M127 545h-65q4 95 63.5 143.5t136.5 48.5q83 0 139 -50t56 -130q0 -58 -29 -101.5t-87 -91.5q-38 -31 -51.5 -66.5t-13.5 -85.5l2 -43h-57q-2 20 -2 43q0 66 21 109.5t66 85.5q34 32 47 46.5t26.5 42t13.5 59.5q0 64 -39 95.5t-93 31.5q-56 0 -94.5 -33t-39.5 -104z
M250 116q-24 0 -41 -16.5t-17 -41.5t17 -41.5t41 -16.5t41 16.5t17 41.5t-17 41.5t-41 16.5z" />
    <glyph glyph-name="at" unicode="@" horiz-adv-x="844" 
d="M620 317v74q0 59 -36.5 89t-102.5 30q-140 0 -234.5 -90t-94.5 -238q0 -143 93.5 -228t235.5 -85q160 0 287 125l37 -48q-146 -132 -324 -132q-161 0 -275.5 100t-114.5 268q0 171 115 275t276 104q89 0 143 -43.5t54 -126.5v-252q0 -39 4 -77h-60q-3 25 -3 66h-4
q-25 -26 -44.5 -41.5t-54.5 -29.5t-75 -14q-64 0 -104.5 41.5t-40.5 100.5q0 64 44 108.5t116 46.5q68 3 163 -23zM619 186v86q-99 21 -146 19q-55 0 -83.5 -28.5t-28.5 -73.5t28 -69.5t80 -23.5q77 1 150 90z" />
    <glyph glyph-name="A" unicode="A" horiz-adv-x="605" 
d="M524 0l-66 195h-316l-64 -195h-68l244 722h88l253 -722h-71zM297 659l-135 -404h275l-136 404h-4z" />
    <glyph glyph-name="B" unicode="B" horiz-adv-x="578" 
d="M100 0v722h164q95 0 163.5 -53.5t68.5 -135.5q0 -63 -38.5 -105.5t-79.5 -56.5v-4q43 -8 91.5 -56t48.5 -117q0 -84 -70 -139t-173 -55h-175zM165 335v-276l117 1q74 1 120 37.5t46 98.5q0 63 -51 100t-117 38zM165 663v-269l103 1q63 1 110.5 34t47.5 99
q0 62 -47.5 97.5t-109.5 36.5z" />
    <glyph glyph-name="C" unicode="C" horiz-adv-x="723" 
d="M655 518h-70q-8 71 -56.5 115.5t-134.5 44.5q-122 0 -193 -88t-71 -229q0 -127 71.5 -220.5t193.5 -93.5q87 0 139 46.5t58 116.5h71q-13 -104 -86 -164.5t-183 -60.5q-67 0 -123.5 23.5t-94.5 62t-65 88.5t-39 101t-12 101q0 71 20.5 136.5t60.5 120t105.5 87
t147.5 32.5q108 0 179 -58.5t82 -160.5z" />
    <glyph glyph-name="D" unicode="D" horiz-adv-x="686" 
d="M100 0v722h145q159 0 270 -101t111 -266q0 -151 -107.5 -253t-279.5 -102h-139zM165 663v-604l78 1q144 1 229.5 83.5t85.5 213.5q0 128 -85 216t-221 89z" />
    <glyph glyph-name="E" unicode="E" horiz-adv-x="571" 
d="M100 0v722h400v-60h-335v-264h321v-60h-321v-278h346v-60h-411z" />
    <glyph glyph-name="F" unicode="F" horiz-adv-x="535" 
d="M100 0v722h385v-60h-320v-276h303v-60h-303v-326h-65z" />
    <glyph glyph-name="G" unicode="G" horiz-adv-x="735" 
d="M664 531h-75q-10 69 -60.5 107.5t-133.5 38.5q-122 0 -193.5 -90.5t-71.5 -220.5q0 -143 64.5 -232t192.5 -89q106 0 168.5 63.5t60.5 164.5l-307 -23v75h376q-1 -89 -26.5 -157t-69 -106.5t-95 -57.5t-108.5 -19q-106 0 -182 55t-110 139.5t-34 186.5q0 98 39 181.5
t117.5 136.5t180.5 53q107 0 177.5 -54.5t89.5 -151.5z" />
    <glyph glyph-name="H" unicode="H" horiz-adv-x="724" 
d="M100 722h65v-326h394v326h65v-722h-65v336h-394v-336h-65v722z" />
    <glyph glyph-name="I" unicode="I" horiz-adv-x="265" 
d="M100 0v722h65v-722h-65z" />
    <glyph glyph-name="J" unicode="J" horiz-adv-x="511" 
d="M34 194h70q-1 -65 27.5 -106.5t89.5 -41.5t93 40t32 115v521h65v-521q0 -102 -52.5 -158.5t-139.5 -56.5q-86 0 -135 58t-50 150z" />
    <glyph glyph-name="K" unicode="K" horiz-adv-x="622" 
d="M100 0v722h64v-343h4l315 343h81l-328 -353l358 -369h-86l-340 352h-4v-352h-64z" />
    <glyph glyph-name="L" unicode="L" horiz-adv-x="505" 
d="M100 0v722h65v-662h310v-60h-375z" />
    <glyph glyph-name="M" unicode="M" horiz-adv-x="942" 
d="M75 0l111 722h101l187 -627h4l179 627h99l111 -722h-65l-98 648h-7l-195 -666h-56l-202 666h-5l-98 -648h-66z" />
    <glyph glyph-name="N" unicode="N" horiz-adv-x="776" 
d="M100 0v722h75l433 -632h4v632h64v-722h-84l-424 619h-4v-619h-64z" />
    <glyph glyph-name="O" unicode="O" horiz-adv-x="802" 
d="M60 366q0 98 39 181.5t118 136.5t183 53q157 0 249.5 -108t92.5 -267q0 -174 -96.5 -275.5t-246.5 -101.5q-145 0 -242 105t-97 276zM130 364q0 -138 74.5 -228.5t194.5 -90.5q130 0 201.5 90.5t71.5 227.5q0 138 -73.5 226t-199.5 88q-124 0 -196.5 -90.5t-72.5 -222.5z
" />
    <glyph glyph-name="P" unicode="P" horiz-adv-x="566" 
d="M100 0v722h172q107 0 180.5 -56t73.5 -154q0 -102 -77 -157t-187 -55h-97v-300h-65zM165 663v-303l101 1q84 1 137 38t53 112q0 73 -52.5 111.5t-125.5 39.5z" />
    <glyph glyph-name="Q" unicode="Q" horiz-adv-x="817" 
d="M60 366q0 98 39 181.5t118 136.5t183 53q157 0 249.5 -108t92.5 -267q0 -155 -83 -257q25 -22 51 -34.5t39 -15.5t37 -7l-38 -48q-56 4 -129 64q-93 -79 -220 -79q-145 0 -242 105t-97 276zM130 364q0 -138 74.5 -229t194.5 -91q106 0 175 60l-12 12q-53 52 -92.5 71
t-92.5 23l55 62q54 -10 93.5 -38.5t88.5 -83.5q59 85 59 213q0 138 -74 226t-200 88q-124 0 -196.5 -90.5t-72.5 -222.5z" />
    <glyph glyph-name="R" unicode="R" horiz-adv-x="589" 
d="M90 0v722h172q105 0 175 -51t70 -141q0 -78 -57.5 -130.5t-159.5 -63.5l289 -336h-84l-279 329h-61v-329h-65zM155 663v-274l104 2q80 1 129 36t49 100t-48 99.5t-124 35.5z" />
    <glyph glyph-name="S" unicode="S" horiz-adv-x="608" 
d="M60 192h70q0 -23 10 -47t29.5 -47.5t56 -38t83.5 -14.5q84 0 126.5 36.5t42.5 94.5q0 60 -43.5 95.5t-136.5 60.5q-104 28 -166.5 80t-62.5 129q0 90 65 143t163 53q100 0 162 -47t70 -133h-71q-15 120 -163 120q-75 0 -116 -36t-41 -98q0 -57 48.5 -92.5t131.5 -58.5
q49 -14 84.5 -29t71.5 -39t55 -59.5t19 -80.5q0 -92 -65.5 -145.5t-179.5 -53.5q-94 0 -167 55t-76 152z" />
    <glyph glyph-name="T" unicode="T" horiz-adv-x="535" 
d="M300 0h-64v662h-216v60h495v-60h-215v-662z" />
    <glyph glyph-name="U" unicode="U" horiz-adv-x="693" 
d="M347 -15q-119 0 -188 72.5t-69 198.5v466h68v-467q0 -102 50 -156t139 -54q58 0 98 20t59 54.5t26.5 67t7.5 69.5v466h65v-464q0 -133 -70.5 -203t-185.5 -70z" />
    <glyph glyph-name="V" unicode="V" horiz-adv-x="604" 
d="M574 722l-225 -722h-78l-241 722h70l210 -654h4l195 654h65z" />
    <glyph glyph-name="W" unicode="W" horiz-adv-x="951" 
d="M45 722h69l142 -641h4l177 643h79l179 -642h4l144 640h63l-166 -722h-88l-175 636h-4l-174 -636h-89z" />
    <glyph glyph-name="X" unicode="X" horiz-adv-x="628" 
d="M54 722h83l178 -290h4l174 290h73l-214 -349l233 -373h-83l-191 316h-4l-184 -316h-74l223 375z" />
    <glyph glyph-name="Y" unicode="Y" horiz-adv-x="581" 
d="M551 722l-213 -439q-12 -5 -12 -17v-266h-65v266q0 14 -13 17l-218 439h77l185 -387h4l184 387h71z" />
    <glyph glyph-name="Z" unicode="Z" horiz-adv-x="562" 
d="M50 0v60l392 598v4h-377v60h457v-61l-395 -597v-4h389v-60h-466z" />
    <glyph glyph-name="bracketleft" unicode="[" horiz-adv-x="290" 
d="M88 -96v818h162v-49h-97v-720h97v-49h-162z" />
    <glyph glyph-name="backslash" unicode="\" horiz-adv-x="279" 
d="M41 722l258 -819h-60l-259 819h61z" />
    <glyph glyph-name="bracketright" unicode="]" horiz-adv-x="290" 
d="M205 722v-818h-162v49h97v720h-97v49h162z" />
    <glyph glyph-name="asciicircum" unicode="^" horiz-adv-x="570" 
d="M70 274l188 418h54l188 -418h-61l-152 354h-4l-152 -354h-61z" />
    <glyph glyph-name="underscore" unicode="_" horiz-adv-x="490" 
d="M0 -87v56h490v-56h-490z" />
    <glyph glyph-name="grave" unicode="`" horiz-adv-x="305" 
d="M50 681l37 53l168 -127l-25 -37z" />
    <glyph glyph-name="a" unicode="a" horiz-adv-x="504" 
d="M435 0h-63l4 74h-4q-79 -88 -182 -88q-69 0 -110 41.5t-41 110.5q0 71 50 115.5t127 44.5q72 0 156 -20v66q-1 119 -126 119q-56 0 -88 -29t-37 -70h-70q13 67 66 108.5t130 41.5q85 0 134.5 -42.5t49.5 -125.5v-272q0 -54 4 -74zM372 139v93q-74 16 -138 16
q-63 0 -98 -29t-35 -80q0 -47 29 -73.5t79 -26.5q51 0 96 32.5t67 67.5z" />
    <glyph glyph-name="b" unicode="b" horiz-adv-x="558" 
d="M140 722v-220l-1 -73h4q19 31 61.5 59.5t102.5 28.5q96 0 151 -74t55 -187q0 -115 -56 -193t-155 -78q-52 0 -94.5 26.5t-67.5 67.5h-4l4 -79h-64q4 20 4 78v644h60zM448 256q0 95 -38.5 150.5t-111.5 55.5q-65 0 -109.5 -47.5t-48.5 -105.5v-118q6 -58 51 -104.5
t105 -46.5q72 0 112 58t40 158z" />
    <glyph glyph-name="c" unicode="c" horiz-adv-x="508" 
d="M457 346h-65q-6 51 -37 83.5t-89 32.5q-80 0 -118 -60t-38 -152q0 -86 40 -148t117 -62q58 0 90.5 35t40.5 87h65q-14 -79 -63 -128t-135 -49q-102 0 -161 74t-59 190q0 122 60.5 195t161.5 73q80 0 131 -47.5t59 -123.5z" />
    <glyph glyph-name="d" unicode="d" horiz-adv-x="558" 
d="M418 502v220h60v-644q0 -58 4 -78h-64l4 79h-4q-25 -40 -68 -67t-95 -27q-99 0 -154.5 78t-55.5 193q0 112 56 186.5t150 74.5q60 0 102.5 -28.5t61.5 -59.5h4q-1 38 -1 73zM110 256q0 -100 39.5 -158t111.5 -58q61 0 106 46.5t51 104.5v118q-4 58 -48.5 105.5
t-109.5 47.5q-71 0 -110.5 -56t-39.5 -150z" />
    <glyph glyph-name="e" unicode="e" horiz-adv-x="527" 
d="M472 245h-360q-1 -84 43.5 -144.5t118.5 -60.5q58 0 91.5 31.5t41.5 83.5h63q-9 -71 -59 -120.5t-141 -49.5q-99 0 -160.5 79.5t-62.5 191.5q-1 110 60 185t163 75t153 -71t51 -169q0 -11 -2 -31zM114 299l295 2q0 24 -5.5 49t-19.5 51.5t-43.5 43.5t-70.5 17
q-71 0 -109 -45t-47 -118z" />
    <glyph glyph-name="f" unicode="f" horiz-adv-x="323" 
d="M292 722v-48q-22 5 -37 5q-70 0 -70 -76v-101h108v-55h-108v-447h-60v447h-95v55h95v105q0 63 30.5 94.5t85.5 31.5q29 0 51 -11z" />
    <glyph glyph-name="g" unicode="g" horiz-adv-x="548" 
d="M424 502h60q-4 -22 -10 -74.5t-6 -72.5v-345q0 -97 -53 -149t-146 -52q-85 0 -136 47t-58 105h67q2 -41 38 -69.5t90 -28.5q138 0 138 139l2 88h-4q-24 -37 -66.5 -62t-93.5 -25q-90 0 -145.5 73.5t-55.5 182.5q0 111 57.5 184.5t150.5 73.5q41 0 77 -19t52.5 -37
t25.5 -34h4zM109 262q0 -90 38.5 -147.5t111.5 -57.5q57 0 100 44.5t49 94.5v125q-7 52 -50.5 97.5t-99.5 45.5q-72 0 -110.5 -57.5t-38.5 -144.5z" />
    <glyph glyph-name="h" unicode="h" horiz-adv-x="557" 
d="M80 0v722h60v-220l-2 -89h4q25 41 71.5 72.5t105.5 31.5q75 0 116.5 -43.5t41.5 -128.5v-345h-60v344q0 119 -107 119q-58 0 -106 -44.5t-64 -108.5v-310h-60z" />
    <glyph glyph-name="i" unicode="i" horiz-adv-x="220" 
d="M65 677q0 19 12.5 32t32.5 13t32.5 -13t12.5 -32q0 -18 -12.5 -31t-32.5 -13t-32.5 13t-12.5 31zM80 502h60v-502h-60v502z" />
    <glyph glyph-name="j" unicode="j" horiz-adv-x="230" 
d="M1 -189q16 -4 38 -4q111 0 111 140v555h-60v-559q0 -46 -22 -64.5t-67 -13.5v-54zM75 677q0 19 12.5 32t32.5 13t32.5 -13t12.5 -32q0 -18 -12.5 -31t-32.5 -13t-32.5 13t-12.5 31z" />
    <glyph glyph-name="k" unicode="k" horiz-adv-x="485" 
d="M80 0v722h60v-442h4l237 222h83l-255 -235l264 -267h-82l-247 251h-4v-251h-60z" />
    <glyph glyph-name="l" unicode="l" horiz-adv-x="220" 
d="M140 519v-519h-60v722h52z" />
    <glyph glyph-name="m" unicode="m" horiz-adv-x="858" 
d="M80 0v355l-4 147h56l4 -84h4q24 40 68.5 69.5t99.5 29.5q110 0 143 -104h4q25 41 69.5 72.5t99.5 31.5q71 0 112.5 -44t41.5 -125v-348h-60v347q0 57 -27 86.5t-74 29.5q-56 0 -99 -42t-59 -106v-315h-60v354q0 109 -101 109q-56 0 -99 -42t-59 -106v-315h-60z" />
    <glyph glyph-name="n" unicode="n" horiz-adv-x="557" 
d="M80 0v355l-4 147h56l4 -89h4q25 41 72 72.5t106 31.5q76 0 117.5 -43.5t41.5 -128.5v-345h-60v344q0 119 -107 119q-58 0 -106 -44.5t-64 -108.5v-310h-60z" />
    <glyph glyph-name="o" unicode="o" horiz-adv-x="558" 
d="M45 251q0 46 14 90.5t41 84.5t74.5 64.5t107.5 24.5q59 0 105.5 -25t72.5 -65.5t39.5 -85t13.5 -89.5q0 -108 -61 -187.5t-171 -79.5q-112 0 -174 78.5t-62 189.5zM110 251q0 -86 43.5 -149.5t126.5 -63.5q75 0 121.5 57t46.5 157q0 95 -46 151.5t-121 56.5
q-71 0 -121 -52.5t-50 -156.5z" />
    <glyph glyph-name="p" unicode="p" horiz-adv-x="558" 
d="M80 -193v547l-8 148h58l8 -73h4q19 30 62 59t103 29q95 0 150.5 -75t55.5 -187q0 -115 -56.5 -192.5t-155.5 -77.5q-101 0 -159 93h-4q2 -39 2 -78v-193h-60zM448 255q0 95 -39 151t-111 56q-65 0 -109.5 -47.5t-48.5 -105.5v-117q6 -58 50 -105t104 -47q73 0 113.5 57.5
t40.5 157.5z" />
    <glyph glyph-name="q" unicode="q" horiz-adv-x="558" 
d="M478 354v-547h-60v193l2 78h-4q-58 -93 -158 -93t-156.5 78t-56.5 193q0 113 55.5 187t151.5 74q60 0 102.5 -28.5t61.5 -59.5h4l8 73h58q-8 -128 -8 -148zM110 256q0 -99 42 -157.5t115 -58.5q60 0 102.5 47t48.5 105v117q-4 58 -48.5 105.5t-109.5 47.5
q-73 0 -111.5 -55.5t-38.5 -150.5z" />
    <glyph glyph-name="r" unicode="r" horiz-adv-x="348" 
d="M80 0v355q0 84 -4 147h56l4 -105h4q14 53 49.5 86.5t90.5 33.5q27 0 53 -15v-58q-25 16 -55 16q-64 0 -96.5 -58t-41.5 -148v-254h-60z" />
    <glyph glyph-name="s" unicode="s" horiz-adv-x="450" 
d="M45 139h65q-2 -36 28 -67.5t87 -31.5q50 0 80.5 23t30.5 62q0 41 -27 62.5t-95 44.5q-31 10 -54 20.5t-50 27.5t-41.5 42t-14.5 56q0 62 45.5 100.5t119.5 38.5q67 0 113 -38.5t53 -105.5h-64q-1 39 -30 64.5t-74 25.5q-43 0 -71.5 -21t-28.5 -58q0 -36 28.5 -57
t88.5 -40q27 -8 46 -15.5t43.5 -20.5t39.5 -28t25.5 -38t10.5 -51q0 -65 -48 -107t-128 -42q-73 0 -122.5 39.5t-55.5 114.5z" />
    <glyph glyph-name="t" unicode="t" horiz-adv-x="340" 
d="M25 447v55h89l16 144h47v-144h133v-55h-134v-324q0 -77 70 -77q27 0 64 21v-54q-33 -23 -77 -23q-57 0 -87 34.5t-30 99.5v323h-91z" />
    <glyph glyph-name="u" unicode="u" horiz-adv-x="557" 
d="M477 502v-355l4 -147h-56l-4 89h-4q-25 -42 -70.5 -73t-104.5 -31q-76 0 -119 45t-43 129v343h60v-344q0 -119 108 -119q58 0 105.5 43.5t63.5 107.5v312h60z" />
    <glyph glyph-name="v" unicode="v" horiz-adv-x="468" 
d="M206 0l-186 502h66l153 -431h4l141 431h64l-174 -502h-68z" />
    <glyph glyph-name="w" unicode="w" horiz-adv-x="795" 
d="M710 502h65l-175 -502h-57l-147 433h-4l-150 -433h-61l-161 502h65l128 -417h4l145 417h71l139 -417h4z" />
    <glyph glyph-name="x" unicode="x" horiz-adv-x="470" 
d="M269 259l174 -259h-74l-136 208h-4l-136 -208h-68l173 255l-165 247h73l127 -198h4l124 198h66z" />
    <glyph glyph-name="y" unicode="y" horiz-adv-x="473" 
d="M88 502l157 -435h4l138 435h66q-56 -168 -98 -295.5t-58 -177.5t-27.5 -84.5l-18.5 -55.5q-27 -80 -117 -80q-32 0 -61 12l5 54q27 -11 56 -11q46 0 63 43q20 52 30 93q4 17 -5.5 28.5t-28.5 8.5l-173 465h68z" />
    <glyph glyph-name="z" unicode="z" horiz-adv-x="435" 
d="M30 0v59l296 384v4h-288v55h357v-59l-296 -384v-4h296v-55h-365z" />
    <glyph glyph-name="braceleft" unicode="{" horiz-adv-x="290" 
d="M23 280v62q17 1 31 4t24.5 6t18 10.5l12 12t7 14.5t4 15t1 18t-1 17.5t-2.5 18.5t-2 18l-6 57q-10 89 23 138t128 51v-52q-49 -4 -70.5 -25.5t-19.5 -50t4 -61.5l6 -57q3 -29 4 -45t-2.5 -39t-14 -36.5t-33 -25.5t-56.5 -17v-4q54 -8 80 -33.5t25.5 -58t-3.5 -71.5
l-6 -58q-2 -33 -4 -61.5t19.5 -50t70.5 -25.5v-52q-95 2 -127.5 51t-23.5 138l6 58q0 4 2 18t2.5 18.5t1 17.5t-1 18t-4 15t-7 14.5l-12 12t-18 10.5t-24.5 6t-31 4z" />
    <glyph glyph-name="bar" unicode="|" horiz-adv-x="220" 
d="M80 747h60v-922h-60v922z" />
    <glyph glyph-name="braceright" unicode="}" horiz-adv-x="290" 
d="M267 342v-62q-17 -1 -31 -4t-24.5 -6t-18 -10.5l-12 -12t-7 -14.5t-4 -15t-1 -18t1 -17.5t2.5 -18.5t2 -18l6 -58q9 -89 -23.5 -138t-127.5 -51v52q49 4 70.5 25.5t19.5 50t-4 61.5l-6 58q-3 39 -3.5 71.5t25.5 58t80 33.5v4q-34 5 -56.5 17t-33 25.5t-14 36.5t-2.5 39
t4 45l6 57q2 33 4 61.5t-19.5 50t-70.5 25.5v52q95 -2 128 -51t23 -138l-6 -57q0 -4 -2 -18t-2.5 -18.5t-1 -17.5t1 -18t4 -15t7 -14.5l12 -12t18 -10.5t24.5 -6t31 -4z" />
    <glyph glyph-name="asciitilde" unicode="~" horiz-adv-x="570" 
d="M299 277q4 -2 17.5 -8t19.5 -8.5t18 -7t20 -6.5t19.5 -4t21.5 -2q56 0 74 61h51q-12 -51 -44 -85.5t-83 -34.5q-45 0 -142 42q-4 2 -17.5 8t-19.5 8.5t-18 7t-20 6.5t-19.5 4t-21.5 2q-56 0 -74 -61h-51q12 51 44 85.5t83 34.5q47 0 142 -42z" />
    <glyph glyph-name="nbspace" unicode="&#xa0;" horiz-adv-x="250" 
 />
    <glyph glyph-name="exclamdown" unicode="&#xa1;" horiz-adv-x="372" 
d="M226 -220l-14 553h-53l-13 -553h80zM186 386q-24 0 -41 16.5t-17 41.5t17 41.5t41 16.5t41 -16.5t17 -41.5t-17 -41.5t-41 -16.5z" />
    <glyph glyph-name="cent" unicode="&#xa2;" horiz-adv-x="550" 
d="M482 346h-67q-6 50 -38 82.5t-91 32.5q-80 0 -117.5 -59.5t-37.5 -151.5q0 -86 40 -147.5t117 -61.5q58 0 92 35t41 86h67q-14 -78 -64.5 -127.5t-137.5 -49.5q-35 0 -65 9l-41 -122h-55l50 143q-52 32 -80.5 93.5t-28.5 140.5q0 122 60.5 195t161.5 73q30 0 57 -8
l41 121h56l-50 -140q79 -47 90 -144z" />
    <glyph glyph-name="sterling" unicode="&#xa3;" horiz-adv-x="550" 
d="M142 414v119q0 79 51 126.5t134 47.5q85 0 132.5 -46.5t50.5 -127.5h-66q1 51 -30 83.5t-87 32.5q-58 0 -89.5 -31t-31.5 -81v-123h171v-60h-171v-294h299v-60h-445v60h81v294h-81v60h82z" />
    <glyph glyph-name="currency" unicode="&#xa4;" horiz-adv-x="540" 
d="M74 85l-42 42l61 60q-47 60 -47 136q0 77 47 135l-61 61l42 42l61 -62q60 47 136 47q75 0 134 -46l61 61l42 -42l-61 -60q47 -60 47 -136q0 -78 -47 -136l61 -60l-42 -42l-61 61q-57 -46 -134 -46q-76 0 -136 46zM435 323q0 71 -46.5 117.5t-117.5 46.5q-72 0 -118 -46.5
t-46 -117.5q0 -72 46 -118t118 -46q71 0 117.5 46t46.5 118z" />
    <glyph glyph-name="yen" unicode="&#xa5;" horiz-adv-x="550" 
d="M44 333h184l-201 359h73l174 -327h5l174 327h70l-201 -359h185v-54h-198v-66h198v-54h-198v-159h-65v159h-200v54h200v66h-200v54z" />
    <glyph glyph-name="brokenbar" unicode="&#xa6;" horiz-adv-x="220" 
d="M80 692h60v-350h-60v350zM80 -175v350h60v-350h-60z" />
    <glyph glyph-name="section" unicode="&#xa7;" horiz-adv-x="540" 
d="M485 242q0 -69 -73 -122q63 -58 63 -127q0 -71 -54.5 -115.5t-141.5 -44.5q-138 0 -203 113l59 33q46 -91 144 -91q63 0 96.5 28t33.5 75q0 70 -75 114q-74 44 -140 75q-139 65 -139 169q0 70 72 121q-62 57 -62 128t54.5 115.5t141.5 44.5q138 0 203 -113l-59 -33
q-46 91 -144 91q-63 0 -96.5 -28t-33.5 -75q0 -70 75 -114q74 -44 140 -75q139 -65 139 -169zM175 434l-10 6q-43 -35 -43 -79t24 -72.5t80 -56.5q73 -36 139 -75l9 -6q44 34 44 79q0 44 -24 72.5t-80 56.5q-73 36 -139 75z" />
    <glyph glyph-name="dieresis" unicode="&#xa8;" horiz-adv-x="364" 
d="M95 603q-20 0 -32.5 13t-12.5 31q0 19 12.5 32t32.5 13t32.5 -13t12.5 -32q0 -18 -12.5 -31t-32.5 -13zM269 603q-20 0 -32.5 13t-12.5 31q0 19 12.5 32t32.5 13t32.5 -13t12.5 -32q0 -18 -12.5 -31t-32.5 -13z" />
    <glyph glyph-name="copyright" unicode="&#xa9;" horiz-adv-x="800" 
d="M562 451h-53q-3 37 -29.5 63t-74.5 26q-65 0 -104.5 -50t-39.5 -126q0 -70 39 -121t106 -51q48 0 77.5 26.5t32.5 64.5h54q-8 -63 -53.5 -100.5t-111.5 -37.5q-51 0 -90 21t-61 54.5t-33 70t-11 72.5q0 87 51 154t145 67q64 0 106 -36t50 -97zM39 361q0 151 104.5 256
t256.5 105t256.5 -105t104.5 -256t-104.5 -256t-256.5 -105t-256.5 105t-104.5 256zM88 361q0 -133 90.5 -223.5t221.5 -90.5t221.5 90.5t90.5 223.5t-90.5 223.5t-221.5 90.5t-221.5 -90.5t-90.5 -223.5z" />
    <glyph glyph-name="ordfeminine" unicode="&#xaa;" horiz-adv-x="346" 
d="M296 393h-44l3 48h-3q-51 -58 -119 -58q-46 0 -74.5 27.5t-28.5 73.5t34 75t84 29q48 0 104 -15v39q0 77 -82 77q-37 0 -58 -17.5t-24 -43.5h-50q11 44 46 70t85 26q57 0 91 -28t34 -83v-171q0 -36 2 -49zM252 484v58q-68 11 -96 10q-81 -3 -81 -68q0 -30 18.5 -47
t51.5 -17q34 0 63.5 21t43.5 43z" />
    <glyph glyph-name="guillemotleft" unicode="&#xab;" horiz-adv-x="450" 
d="M173 460h50l-102 -194l102 -194h-50l-118 194zM340 460h50l-102 -194l102 -194h-50l-118 194z" />
    <glyph glyph-name="logicalnot" unicode="&#xac;" horiz-adv-x="570" 
d="M30 319v59h510v-254h-58v195h-452z" />
    <glyph glyph-name="uni00AD" unicode="&#xad;" horiz-adv-x="350" 
d="M45 241v60h260v-60h-260z" />
    <glyph glyph-name="registered" unicode="&#xae;" horiz-adv-x="800" 
d="M39 361q0 151 104.5 256t256.5 105t256.5 -105t104.5 -256t-104.5 -256t-256.5 -105t-256.5 105t-104.5 256zM88 361q0 -133 90.5 -223.5t221.5 -90.5t221.5 90.5t90.5 223.5t-90.5 223.5t-221.5 90.5t-221.5 -90.5t-90.5 -223.5zM276 157v419h113q65 0 107.5 -31.5
t42.5 -82.5q0 -45 -32.5 -74t-82.5 -37l163 -194h-66l-151 186h-44v-186h-50zM326 532v-144l62 1q39 1 68.5 18.5t29.5 52.5q0 37 -29.5 53.5t-68.5 17.5z" />
    <glyph glyph-name="macron" unicode="&#xaf;" horiz-adv-x="380" 
d="M50 604v55h280v-55h-280z" />
    <glyph glyph-name="degree" unicode="&#xb0;" horiz-adv-x="400" 
d="M60 553q0 58 41 98.5t99 40.5t98.5 -40.5t40.5 -98.5t-40.5 -98.5t-98.5 -40.5t-99 40.5t-41 98.5zM294 553q0 41 -26.5 67.5t-67.5 26.5t-67.5 -26.5t-26.5 -67.5t26.5 -67.5t67.5 -26.5t67.5 26.5t26.5 67.5z" />
    <glyph glyph-name="plusminus" unicode="&#xb1;" horiz-adv-x="570" 
d="M255 100v171h-225v58h225v173h60v-173h225v-58h-225v-171h-60zM540 0h-510v58h510v-58z" />
    <glyph glyph-name="two.sups" unicode="&#xb2;" 
d="M305 463h-271q-2 18 -2 38q0 55 26.5 86.5t77.5 59.5q35 19 71 43q48 33 48 80q0 34 -22 54t-60 20q-43 0 -63 -24t-18 -61h-55q-2 56 35 91.5t102 35.5q60 0 97.5 -33.5t37.5 -83.5q0 -67 -76 -117q-16 -11 -76 -43q-25 -13 -38.5 -22.5t-26.5 -31t-10 -48.5h223v-44z
" />
    <glyph glyph-name="three.sups" unicode="&#xb3;" 
d="M20 572h55q2 -37 24 -58t64 -21q41 0 64 21t23 53q0 80 -111 87l-33 2v41l25 1q116 6 116 77q0 34 -23 51t-58 17q-32 0 -55 -17.5t-26 -46.5h-54q8 52 49 79t85 27q63 0 98 -31t35 -77q0 -67 -85 -98v-3q89 -26 89 -108q0 -49 -37.5 -83t-103.5 -34q-59 0 -98 33.5
t-43 87.5z" />
    <glyph glyph-name="acute" unicode="&#xb4;" horiz-adv-x="305" 
d="M218 734l37 -53l-180 -111l-25 37z" />
    <glyph glyph-name="uni00B5" unicode="&#xb5;" horiz-adv-x="557" 
d="M80 -193v695h60v-344q0 -119 108 -119q58 0 105.5 43.5t63.5 107.5v312h60v-355l4 -147h-56l-4 89h-4q-25 -42 -70.5 -73t-104.5 -31q-69 0 -102 34v-212h-60z" />
    <glyph glyph-name="paragraph" unicode="&#xb6;" horiz-adv-x="500" 
d="M186 -146v482q-77 0 -131.5 53t-54.5 130q0 95 56.5 149t160.5 54h197v-868h-63v811h-101v-811h-64z" />
    <glyph glyph-name="periodcentered" unicode="&#xb7;" horiz-adv-x="280" 
d="M140 379q24 0 41 -16.5t17 -41.5t-17 -41.5t-41 -16.5t-41 16.5t-17 41.5t17 41.5t41 16.5z" />
    <glyph glyph-name="cedilla" unicode="&#xb8;" horiz-adv-x="297" 
d="M50 -187l20 37q31 -23 68 -23q27 0 44 12t17 31q0 39 -49 39q-26 0 -48 -9l-25 22l63 87h53l-66 -73l2 -3q22 10 50 10t48.5 -18.5t20.5 -48.5q0 -35 -30 -60.5t-81 -25.5q-43 0 -87 23z" />
    <glyph glyph-name="one.sups" unicode="&#xb9;" 
d="M170 463v362h-4q-55 -104 -126 -190v71q45 50 115 167h66v-410h-51z" />
    <glyph glyph-name="ordmasculine" unicode="&#xba;" horiz-adv-x="366" 
d="M35 555q0 66 38 117t112 51q71 0 108.5 -51.5t37.5 -116.5q0 -71 -38.5 -121.5t-108.5 -50.5t-109.5 50t-39.5 122zM81 555q0 -56 25.5 -94.5t77.5 -38.5q47 0 74.5 34t27.5 100q0 60 -28 94.5t-74 34.5q-44 0 -73.5 -31.5t-29.5 -98.5z" />
    <glyph glyph-name="guillemotright" unicode="&#xbb;" horiz-adv-x="450" 
d="M227 460h50l118 -194l-118 -194h-50l102 194zM60 460h50l118 -194l-118 -194h-50l102 194z" />
    <glyph glyph-name="onequarter" unicode="&#xbc;" horiz-adv-x="835" 
d="M657 722l-425 -722h-54l426 722h53zM211 283v362h-4q-55 -104 -126 -190v71q45 50 115 167h66v-410h-51zM639 0v91h-199v56q86 119 179 264h71v-278h58v-42h-58v-91h-51zM484 132h156v233h-3q-35 -56 -73.5 -113.5t-59.5 -87.5l-20 -29v-3z" />
    <glyph glyph-name="onehalf" unicode="&#xbd;" horiz-adv-x="835" 
d="M642 722l-426 -722h-54l427 722h53zM195 283v362h-4q-55 -104 -126 -190v71q45 50 115 167h66v-410h-51zM762 0h-271q-2 18 -2 38q0 55 26.5 86.5t77.5 59.5q35 19 71 43q48 33 48 80q0 34 -22 54t-60 20q-43 0 -63 -24t-18 -61h-55q-2 56 35 91.5t102 35.5
q60 0 97.5 -33.5t37.5 -83.5q0 -67 -76 -117q-16 -11 -76 -43q-25 -13 -38.5 -22.5t-26.5 -31t-10 -48.5h223v-44z" />
    <glyph glyph-name="threequarters" unicode="&#xbe;" horiz-adv-x="835" 
d="M675 722l-426 -722h-54l427 722h53zM651 0v91h-199v56q86 119 179 264h71v-278h58v-42h-58v-91h-51zM496 132h156v233h-3q-35 -56 -73.5 -113.5t-59.5 -87.5l-20 -29v-3zM58 392h56q2 -37 24 -58t64 -21q41 0 63.5 21t22.5 53q0 79 -110 86l-33 2v42l25 1q115 6 115 77
q0 34 -22.5 51t-57.5 17q-32 0 -55 -17.5t-26 -46.5h-55q9 55 49.5 80.5t85.5 25.5q64 0 99.5 -30.5t35.5 -77.5q0 -69 -86 -98v-3q89 -25 89 -108q0 -48 -38.5 -82.5t-104.5 -34.5q-60 0 -98.5 32.5t-42.5 88.5z" />
    <glyph glyph-name="questiondown" unicode="&#xbf;" horiz-adv-x="500" 
d="M373 -43h65q-4 -95 -63.5 -143.5t-136.5 -48.5q-83 0 -139 50t-56 130q0 58 29 101.5t87 91.5q38 31 51.5 66.5t13.5 85.5l-2 43h57q2 -20 2 -43q0 -66 -21 -109.5t-66 -85.5q-34 -32 -47 -46.5t-26.5 -42t-13.5 -59.5q0 -64 39 -95.5t93 -31.5q56 0 94.5 33t39.5 104z
M250 386q-24 0 -41 16.5t-17 41.5t17 41.5t41 16.5t41 -16.5t17 -41.5t-17 -41.5t-41 -16.5z" />
    <glyph glyph-name="Agrave" unicode="&#xc0;" horiz-adv-x="605" 
d="M524 0l-66 195h-316l-64 -195h-68l244 722h88l253 -722h-71zM297 659l-135 -404h275l-136 404h-4zM154 862l33 57l180 -112l-24 -42z" />
    <glyph glyph-name="Aacute" unicode="&#xc1;" horiz-adv-x="605" 
d="M524 0l-66 195h-316l-64 -195h-68l244 722h88l253 -722h-71zM297 659l-135 -404h275l-136 404h-4zM406 919l33 -57l-189 -97l-24 42z" />
    <glyph glyph-name="Acircumflex" unicode="&#xc2;" horiz-adv-x="605" 
d="M524 0l-66 195h-316l-64 -195h-68l244 722h88l253 -722h-71zM297 659l-135 -404h275l-136 404h-4zM300 924l142 -152h-67l-72 69h-6l-74 -69h-67z" />
    <glyph glyph-name="Atilde" unicode="&#xc3;" horiz-adv-x="605" 
d="M524 0l-66 195h-316l-64 -195h-68l244 722h88l253 -722h-71zM297 659l-135 -404h275l-136 404h-4zM372 777q-34 0 -81 27q-44 25 -63 25q-21 0 -28.5 -13t-9.5 -37h-41q5 111 79 111q32 0 83 -30q37 -22 61 -22q21 0 28.5 13t9.5 37h40q-5 -111 -78 -111z" />
    <glyph glyph-name="Adieresis" unicode="&#xc4;" horiz-adv-x="605" 
d="M524 0l-66 195h-316l-64 -195h-68l244 722h88l253 -722h-71zM297 659l-135 -404h275l-136 404h-4zM210 782q-21 0 -34 13.5t-13 32.5q0 20 13 33.5t34 13.5t34 -13.5t13 -33.5q0 -19 -13 -32.5t-34 -13.5zM388 782q-21 0 -34 13.5t-13 32.5q0 20 13 33.5t34 13.5
t34 -13.5t13 -33.5q0 -19 -13 -32.5t-34 -13.5z" />
    <glyph glyph-name="Aring" unicode="&#xc5;" horiz-adv-x="605" 
d="M524 0l-66 195h-316l-64 -195h-68l244 722h88l253 -722h-71zM297 659l-135 -404h275l-136 404h-4zM211 850q0 36 25 59.5t62 23.5t62 -23.5t25 -59.5t-25 -60t-62 -24t-62 24t-25 60zM250 850q0 -21 13.5 -34t34.5 -13q20 0 33.5 13t13.5 34t-13.5 34t-33.5 13
q-21 0 -34.5 -13t-13.5 -34z" />
    <glyph glyph-name="AE" unicode="&#xc6;" horiz-adv-x="935" 
d="M507 403h342v-60h-332l54 -283h304v-60h-360l-34 188h-306l-94 -188h-73l372 722h487v-60h-408zM397 631l-192 -383h265l-69 383h-4z" />
    <glyph glyph-name="Ccedilla" unicode="&#xc7;" horiz-adv-x="723" 
d="M282 -187l20 37q31 -23 68 -23q27 0 44 12t17 31q0 39 -49 39q-26 0 -48 -9l-25 22l47 65q-73 8 -132 46t-93.5 93t-52.5 115.5t-18 119.5q0 71 20.5 136.5t60.5 120t105.5 87t147.5 32.5q108 0 179 -58.5t82 -160.5h-70q-8 71 -56.5 115.5t-134.5 44.5q-122 0 -193 -88
t-71 -229q0 -127 71.5 -220.5t193.5 -93.5q87 0 139 46.5t58 116.5h71q-13 -101 -83.5 -161.5t-176.5 -63.5l-44 -49l2 -3q22 10 50 10t48.5 -18.5t20.5 -48.5q0 -35 -30 -60.5t-81 -25.5q-43 0 -87 23z" />
    <glyph glyph-name="Egrave" unicode="&#xc8;" horiz-adv-x="571" 
d="M100 0v722h400v-60h-335v-264h321v-60h-321v-278h346v-60h-411zM174 862l33 57l180 -112l-24 -42z" />
    <glyph glyph-name="Eacute" unicode="&#xc9;" horiz-adv-x="571" 
d="M100 0v722h400v-60h-335v-264h321v-60h-321v-278h346v-60h-411zM405 919l33 -57l-189 -97l-24 42z" />
    <glyph glyph-name="Ecircumflex" unicode="&#xca;" horiz-adv-x="571" 
d="M100 0v722h400v-60h-335v-264h321v-60h-321v-278h346v-60h-411zM303 924l142 -152h-67l-72 69h-6l-74 -69h-67z" />
    <glyph glyph-name="Edieresis" unicode="&#xcb;" horiz-adv-x="571" 
d="M100 0v722h400v-60h-335v-264h321v-60h-321v-278h346v-60h-411zM217 782q-21 0 -34 13.5t-13 32.5q0 20 13 33.5t34 13.5t34 -13.5t13 -33.5q0 -19 -13 -32.5t-34 -13.5zM395 782q-21 0 -34 13.5t-13 32.5q0 20 13 33.5t34 13.5t34 -13.5t13 -33.5q0 -19 -13 -32.5
t-34 -13.5z" />
    <glyph glyph-name="Igrave" unicode="&#xcc;" horiz-adv-x="265" 
d="M100 0v722h65v-722h-65zM-29 862l33 57l180 -112l-24 -42z" />
    <glyph glyph-name="Iacute" unicode="&#xcd;" horiz-adv-x="265" 
d="M100 0v722h65v-722h-65zM256 919l33 -57l-189 -97l-24 42z" />
    <glyph glyph-name="Icircumflex" unicode="&#xce;" horiz-adv-x="265" 
d="M100 0v722h65v-722h-65zM134 924l142 -152h-67l-72 69h-6l-74 -69h-67z" />
    <glyph glyph-name="Idieresis" unicode="&#xcf;" horiz-adv-x="265" 
d="M100 0v722h65v-722h-65zM43 782q-21 0 -34 13.5t-13 32.5q0 20 13 33.5t34 13.5t34 -13.5t13 -33.5q0 -19 -13 -32.5t-34 -13.5zM221 782q-21 0 -34 13.5t-13 32.5q0 20 13 33.5t34 13.5t34 -13.5t13 -33.5q0 -19 -13 -32.5t-34 -13.5z" />
    <glyph glyph-name="Eth" unicode="&#xd0;" horiz-adv-x="686" 
d="M100 0v344h-71v50h71v328h145q159 0 270 -101t111 -266q0 -151 -107.5 -253t-279.5 -102h-139zM377 344h-212v-285l78 1q144 1 229.5 83.5t85.5 213.5q0 128 -85 216t-221 89l-87 1v-269h212v-50z" />
    <glyph glyph-name="Ntilde" unicode="&#xd1;" horiz-adv-x="776" 
d="M100 0v722h75l433 -632h4v632h64v-722h-84l-424 619h-4v-619h-64zM460 777q-34 0 -81 27q-44 25 -63 25q-21 0 -28.5 -13t-9.5 -37h-41q5 111 79 111q32 0 83 -30q37 -22 61 -22q21 0 28.5 13t9.5 37h40q-5 -111 -78 -111z" />
    <glyph glyph-name="Ograve" unicode="&#xd2;" horiz-adv-x="802" 
d="M60 366q0 98 39 181.5t118 136.5t183 53q157 0 249.5 -108t92.5 -267q0 -174 -96.5 -275.5t-246.5 -101.5q-145 0 -242 105t-97 276zM130 364q0 -138 74.5 -228.5t194.5 -90.5q130 0 201.5 90.5t71.5 227.5q0 138 -73.5 226t-199.5 88q-124 0 -196.5 -90.5t-72.5 -222.5z
M254 862l33 57l180 -112l-24 -42z" />
    <glyph glyph-name="Oacute" unicode="&#xd3;" horiz-adv-x="802" 
d="M60 366q0 98 39 181.5t118 136.5t183 53q157 0 249.5 -108t92.5 -267q0 -174 -96.5 -275.5t-246.5 -101.5q-145 0 -242 105t-97 276zM130 364q0 -138 74.5 -228.5t194.5 -90.5q130 0 201.5 90.5t71.5 227.5q0 138 -73.5 226t-199.5 88q-124 0 -196.5 -90.5t-72.5 -222.5z
M524 919l33 -57l-189 -97l-24 42z" />
    <glyph glyph-name="Ocircumflex" unicode="&#xd4;" horiz-adv-x="802" 
d="M60 366q0 98 39 181.5t118 136.5t183 53q157 0 249.5 -108t92.5 -267q0 -174 -96.5 -275.5t-246.5 -101.5q-145 0 -242 105t-97 276zM130 364q0 -138 74.5 -228.5t194.5 -90.5q130 0 201.5 90.5t71.5 227.5q0 138 -73.5 226t-199.5 88q-124 0 -196.5 -90.5t-72.5 -222.5z
M402 924l142 -152h-67l-72 69h-6l-74 -69h-67z" />
    <glyph glyph-name="Otilde" unicode="&#xd5;" horiz-adv-x="802" 
d="M60 366q0 98 39 181.5t118 136.5t183 53q157 0 249.5 -108t92.5 -267q0 -174 -96.5 -275.5t-246.5 -101.5q-145 0 -242 105t-97 276zM130 364q0 -138 74.5 -228.5t194.5 -90.5q130 0 201.5 90.5t71.5 227.5q0 138 -73.5 226t-199.5 88q-124 0 -196.5 -90.5t-72.5 -222.5z
M473 777q-34 0 -81 27q-44 25 -63 25q-21 0 -28.5 -13t-9.5 -37h-41q5 111 79 111q32 0 83 -30q37 -22 61 -22q21 0 28.5 13t9.5 37h40q-5 -111 -78 -111z" />
    <glyph glyph-name="Odieresis" unicode="&#xd6;" horiz-adv-x="802" 
d="M60 366q0 98 39 181.5t118 136.5t183 53q157 0 249.5 -108t92.5 -267q0 -174 -96.5 -275.5t-246.5 -101.5q-145 0 -242 105t-97 276zM130 364q0 -138 74.5 -228.5t194.5 -90.5q130 0 201.5 90.5t71.5 227.5q0 138 -73.5 226t-199.5 88q-124 0 -196.5 -90.5t-72.5 -222.5z
M312 782q-21 0 -34 13.5t-13 32.5q0 20 13 33.5t34 13.5t34 -13.5t13 -33.5q0 -19 -13 -32.5t-34 -13.5zM490 782q-21 0 -34 13.5t-13 32.5q0 20 13 33.5t34 13.5t34 -13.5t13 -33.5q0 -19 -13 -32.5t-34 -13.5z" />
    <glyph glyph-name="multiply" unicode="&#xd7;" horiz-adv-x="570" 
d="M525 450l-199 -199l199 -199l-41 -41l-199 199l-199 -199l-41 41l199 199l-199 199l41 41l199 -199l199 199z" />
    <glyph glyph-name="Oslash" unicode="&#xd8;" horiz-adv-x="802" 
d="M742 362q0 -174 -96.5 -275.5t-246.5 -101.5q-133 0 -226 88l-83 -94l-36 33l86 97q-80 104 -80 257q0 98 39 181.5t118 136.5t183 53q132 0 225 -83l74 83l35 -32l-77 -86q85 -105 85 -257zM672 363q0 122 -59 206l-396 -447q74 -77 182 -77q130 0 201.5 90.5
t71.5 227.5zM130 364q0 -118 56 -204l396 446q-73 71 -183 71q-124 0 -196.5 -90.5t-72.5 -222.5z" />
    <glyph glyph-name="Ugrave" unicode="&#xd9;" horiz-adv-x="693" 
d="M347 -15q-119 0 -188 72.5t-69 198.5v466h68v-467q0 -102 50 -156t139 -54q58 0 98 20t59 54.5t26.5 67t7.5 69.5v466h65v-464q0 -133 -70.5 -203t-185.5 -70zM230 862l33 57l180 -112l-24 -42z" />
    <glyph glyph-name="Uacute" unicode="&#xda;" horiz-adv-x="693" 
d="M347 -15q-119 0 -188 72.5t-69 198.5v466h68v-467q0 -102 50 -156t139 -54q58 0 98 20t59 54.5t26.5 67t7.5 69.5v466h65v-464q0 -133 -70.5 -203t-185.5 -70zM470 919l33 -57l-189 -97l-24 42z" />
    <glyph glyph-name="Ucircumflex" unicode="&#xdb;" horiz-adv-x="693" 
d="M347 -15q-119 0 -188 72.5t-69 198.5v466h68v-467q0 -102 50 -156t139 -54q58 0 98 20t59 54.5t26.5 67t7.5 69.5v466h65v-464q0 -133 -70.5 -203t-185.5 -70zM347 924l142 -152h-67l-72 69h-6l-74 -69h-67z" />
    <glyph glyph-name="Udieresis" unicode="&#xdc;" horiz-adv-x="693" 
d="M347 -15q-119 0 -188 72.5t-69 198.5v466h68v-467q0 -102 50 -156t139 -54q58 0 98 20t59 54.5t26.5 67t7.5 69.5v466h65v-464q0 -133 -70.5 -203t-185.5 -70zM257 782q-21 0 -34 13.5t-13 32.5q0 20 13 33.5t34 13.5t34 -13.5t13 -33.5q0 -19 -13 -32.5t-34 -13.5z
M435 782q-21 0 -34 13.5t-13 32.5q0 20 13 33.5t34 13.5t34 -13.5t13 -33.5q0 -19 -13 -32.5t-34 -13.5z" />
    <glyph glyph-name="Yacute" unicode="&#xdd;" horiz-adv-x="581" 
d="M551 722l-213 -439q-12 -5 -12 -17v-266h-65v266q0 14 -13 17l-218 439h77l185 -387h4l184 387h71zM394 919l33 -57l-189 -97l-24 42z" />
    <glyph glyph-name="Thorn" unicode="&#xde;" horiz-adv-x="588" 
d="M90 722h65v-134h107q107 0 180.5 -56t73.5 -154q0 -102 -77 -157t-187 -55h-97v-166h-65v722zM155 226l101 1q84 1 137 38t53 112q0 73 -52.5 111.5t-125.5 39.5l-113 1v-303z" />
    <glyph glyph-name="germandbls" unicode="&#xdf;" horiz-adv-x="594" 
d="M142 496v-413l-2 -83h-62q3 39 3 83v419q0 106 50.5 166.5t153.5 60.5q74 0 123 -38t49 -107q0 -23 -11 -45.5t-23 -36t-32 -33.5l-6 -6q-42 -40 -45 -59q-1 -3 -1 -6q0 -15 6 -28t21.5 -24.5t26 -18t34.5 -19.5q57 -32 91.5 -69t34.5 -94q0 -72 -48.5 -115.5
t-121.5 -43.5t-119 41.5t-49 111.5h66q-1 -45 28 -72t73 -27q49 0 77 27.5t28 75.5q0 36 -24.5 63t-67.5 52q-1 1 -18.5 11t-20 11.5t-17 10.5t-18.5 13t-14.5 13.5t-13.5 16t-9 16.5t-7.5 20t-1.5 22t3.5 24t7 19.5t14 20t14 16t17.5 17t16 15.5q45 43 45 79q0 45 -31 68
t-79 23q-40 0 -68 -15t-43.5 -41.5t-22 -56t-6.5 -65.5z" />
    <glyph glyph-name="agrave" unicode="&#xe0;" horiz-adv-x="504" 
d="M435 0h-63l4 74h-4q-79 -88 -182 -88q-69 0 -110 41.5t-41 110.5q0 71 50 115.5t127 44.5q72 0 156 -20v66q-1 119 -126 119q-56 0 -88 -29t-37 -70h-70q13 67 66 108.5t130 41.5q85 0 134.5 -42.5t49.5 -125.5v-272q0 -54 4 -74zM372 139v93q-74 16 -138 16
q-63 0 -98 -29t-35 -80q0 -47 29 -73.5t79 -26.5q51 0 96 32.5t67 67.5zM119 681l37 53l168 -127l-25 -37z" />
    <glyph glyph-name="aacute" unicode="&#xe1;" horiz-adv-x="504" 
d="M435 0h-63l4 74h-4q-79 -88 -182 -88q-69 0 -110 41.5t-41 110.5q0 71 50 115.5t127 44.5q72 0 156 -20v66q-1 119 -126 119q-56 0 -88 -29t-37 -70h-70q13 67 66 108.5t130 41.5q85 0 134.5 -42.5t49.5 -125.5v-272q0 -54 4 -74zM372 139v93q-74 16 -138 16
q-63 0 -98 -29t-35 -80q0 -47 29 -73.5t79 -26.5q51 0 96 32.5t67 67.5zM339 734l37 -53l-180 -111l-25 37z" />
    <glyph glyph-name="acircumflex" unicode="&#xe2;" horiz-adv-x="504" 
d="M372 0h63q-4 20 -4 74v272q0 83 -49.5 125.5t-134.5 42.5q-77 0 -130 -41.5t-66 -108.5h70q5 41 37 70t88 29q125 0 126 -119v-66q-84 20 -156 20q-77 0 -127 -44.5t-50 -115.5q0 -69 41 -110.5t110 -41.5q103 0 182 88h4zM372 232v-93q-22 -35 -67 -67.5t-96 -32.5
q-50 0 -79 26.5t-29 73.5q0 51 35 80t98 29q64 0 138 -16zM253 731l134 -167h-62l-69 80h-6l-71 -80h-62z" />
    <glyph glyph-name="atilde" unicode="&#xe3;" horiz-adv-x="504" 
d="M372 0h63q-4 20 -4 74v272q0 83 -49.5 125.5t-134.5 42.5q-77 0 -130 -41.5t-66 -108.5h70q5 41 37 70t88 29q125 0 126 -119v-66q-84 20 -156 20q-77 0 -127 -44.5t-50 -115.5q0 -69 41 -110.5t110 -41.5q103 0 182 88h4zM372 232v-93q-22 -35 -67 -67.5t-96 -32.5
q-50 0 -79 26.5t-29 73.5q0 51 35 80t98 29q64 0 138 -16zM322 587q-26 0 -78 32q-48 30 -62 30q-34 0 -38 -58h-42q3 61 25 90t56 29q29 0 81 -35q42 -27 59 -27q34 0 38 58h41q-3 -61 -24.5 -90t-55.5 -29z" />
    <glyph glyph-name="adieresis" unicode="&#xe4;" horiz-adv-x="504" 
d="M435 0h-63l4 74h-4q-79 -88 -182 -88q-69 0 -110 41.5t-41 110.5q0 71 50 115.5t127 44.5q72 0 156 -20v66q-1 119 -126 119q-56 0 -88 -29t-37 -70h-70q13 67 66 108.5t130 41.5q85 0 134.5 -42.5t49.5 -125.5v-272q0 -54 4 -74zM372 139v93q-74 16 -138 16
q-63 0 -98 -29t-35 -80q0 -47 29 -73.5t79 -26.5q51 0 96 32.5t67 67.5zM160 603q-20 0 -32.5 13t-12.5 31q0 19 12.5 32t32.5 13t32.5 -13t12.5 -32q0 -18 -12.5 -31t-32.5 -13zM334 603q-20 0 -32.5 13t-12.5 31q0 19 12.5 32t32.5 13t32.5 -13t12.5 -32q0 -18 -12.5 -31
t-32.5 -13z" />
    <glyph glyph-name="aring" unicode="&#xe5;" horiz-adv-x="504" 
d="M372 0h63q-4 20 -4 74v272q0 83 -49.5 125.5t-134.5 42.5q-77 0 -130 -41.5t-66 -108.5h70q5 41 37 70t88 29q125 0 126 -119v-66q-84 20 -156 20q-77 0 -127 -44.5t-50 -115.5q0 -69 41 -110.5t110 -41.5q103 0 182 88h4zM372 232v-93q-22 -35 -67 -67.5t-96 -32.5
q-50 0 -79 26.5t-29 73.5q0 51 35 80t98 29q64 0 138 -16zM164 652q0 36 25.5 60t62.5 24t62.5 -24t25.5 -60t-25.5 -60.5t-62.5 -24.5t-62.5 24.5t-25.5 60.5zM204 652q0 -20 14.5 -33.5t33.5 -13.5t33 13.5t14 33.5t-14 33.5t-33 13.5t-33.5 -13.5t-14.5 -33.5z" />
    <glyph glyph-name="ae" unicode="&#xe6;" horiz-adv-x="829" 
d="M786 245h-357q-1 -84 42.5 -144.5t116.5 -60.5q58 0 91.5 31.5t41.5 83.5h63q-9 -71 -59 -120.5t-141 -49.5q-59 0 -105.5 31t-73.5 84h-4q-39 -52 -86.5 -83t-121.5 -31q-69 0 -112 42t-43 111t48.5 114.5t121.5 45.5q72 0 164 -22v62q-1 60 -34.5 92.5t-92.5 32.5
q-56 0 -87.5 -29t-36.5 -70h-70q15 67 67 108t126 41q127 0 167 -94h4q60 96 169 96q102 0 153 -71t51 -169q0 -11 -2 -31zM372 147v85q-78 16 -146 16q-59 0 -92 -28.5t-33 -79.5q0 -47 28.5 -73.5t78.5 -26.5q53 0 99.5 34t64.5 73zM428 297l296 2q0 24 -5.5 49.5
t-19.5 52.5t-44 44.5t-71 17.5q-69 0 -108.5 -47t-47.5 -119z" />
    <glyph glyph-name="ccedilla" unicode="&#xe7;" horiz-adv-x="508" 
d="M156 -187l20 37q31 -23 68 -23q27 0 44 12t17 31q0 39 -49 39q-26 0 -48 -9l-25 22l47 66q-87 12 -136 84t-49 177q0 122 60.5 195t161.5 73q80 0 131 -47.5t59 -123.5h-65q-6 51 -37 83.5t-89 32.5q-80 0 -118 -60t-38 -152q0 -86 40 -148t117 -62q58 0 90.5 35t40.5 87
h65q-14 -76 -59.5 -124.5t-126.5 -52.5l-44 -49l2 -3q22 10 50 10t48.5 -18.5t20.5 -48.5q0 -35 -30 -60.5t-81 -25.5q-43 0 -87 23z" />
    <glyph glyph-name="egrave" unicode="&#xe8;" horiz-adv-x="527" 
d="M472 245h-360q-1 -84 43.5 -144.5t118.5 -60.5q58 0 91.5 31.5t41.5 83.5h63q-9 -71 -59 -120.5t-141 -49.5q-99 0 -160.5 79.5t-62.5 191.5q-1 110 60 185t163 75t153 -71t51 -169q0 -11 -2 -31zM114 299l295 2q0 24 -5.5 49t-19.5 51.5t-43.5 43.5t-70.5 17
q-71 0 -109 -45t-47 -118zM145 681l37 53l168 -127l-25 -37z" />
    <glyph glyph-name="eacute" unicode="&#xe9;" horiz-adv-x="527" 
d="M472 245h-360q-1 -84 43.5 -144.5t118.5 -60.5q58 0 91.5 31.5t41.5 83.5h63q-9 -71 -59 -120.5t-141 -49.5q-99 0 -160.5 79.5t-62.5 191.5q-1 110 60 185t163 75t153 -71t51 -169q0 -11 -2 -31zM114 299l295 2q0 24 -5.5 49t-19.5 51.5t-43.5 43.5t-70.5 17
q-71 0 -109 -45t-47 -118zM363 734l37 -53l-180 -111l-25 37z" />
    <glyph glyph-name="ecircumflex" unicode="&#xea;" horiz-adv-x="527" 
d="M472 245h-360q-1 -84 43.5 -144.5t118.5 -60.5q58 0 91.5 31.5t41.5 83.5h63q-9 -71 -59 -120.5t-141 -49.5q-99 0 -160.5 79.5t-62.5 191.5q-1 110 60 185t163 75t153 -71t51 -169q0 -11 -2 -31zM114 299l295 2q0 24 -5.5 49t-19.5 51.5t-43.5 43.5t-70.5 17
q-71 0 -109 -45t-47 -118zM268 731l134 -167h-62l-69 80h-6l-71 -80h-62z" />
    <glyph glyph-name="edieresis" unicode="&#xeb;" horiz-adv-x="527" 
d="M472 245h-360q-1 -84 43.5 -144.5t118.5 -60.5q58 0 91.5 31.5t41.5 83.5h63q-9 -71 -59 -120.5t-141 -49.5q-99 0 -160.5 79.5t-62.5 191.5q-1 110 60 185t163 75t153 -71t51 -169q0 -11 -2 -31zM114 299l295 2q0 24 -5.5 49t-19.5 51.5t-43.5 43.5t-70.5 17
q-71 0 -109 -45t-47 -118zM179 603q-20 0 -32.5 13t-12.5 31q0 19 12.5 32t32.5 13t32.5 -13t12.5 -32q0 -18 -12.5 -31t-32.5 -13zM353 603q-20 0 -32.5 13t-12.5 31q0 19 12.5 32t32.5 13t32.5 -13t12.5 -32q0 -18 -12.5 -31t-32.5 -13z" />
    <glyph glyph-name="igrave" unicode="&#xec;" horiz-adv-x="220" 
d="M80 0v502h60v-502h-60zM-23 681l37 53l168 -127l-25 -37z" />
    <glyph glyph-name="iacute" unicode="&#xed;" horiz-adv-x="220" 
d="M80 0v502h60v-502h-60zM206 734l37 -53l-180 -111l-25 37z" />
    <glyph glyph-name="icircumflex" unicode="&#xee;" horiz-adv-x="220" 
d="M80 0v502h60v-502h-60zM111 731l134 -167h-62l-69 80h-6l-71 -80h-62z" />
    <glyph glyph-name="idieresis" unicode="&#xef;" horiz-adv-x="220" 
d="M80 0v502h60v-502h-60zM23 603q-20 0 -32.5 13t-12.5 31q0 19 12.5 32t32.5 13t32.5 -13t12.5 -32q0 -18 -12.5 -31t-32.5 -13zM197 603q-20 0 -32.5 13t-12.5 31q0 19 12.5 32t32.5 13t32.5 -13t12.5 -32q0 -18 -12.5 -31t-32.5 -13z" />
    <glyph glyph-name="eth" unicode="&#xf0;" horiz-adv-x="557" 
d="M165 609l82 53q-52 26 -128 39l50 38q67 -12 130 -43l86 56l31 -31l-80 -52q166 -115 166 -401q0 -132 -60.5 -208.5t-168.5 -76.5q-107 0 -168 76t-61 178q0 101 59 178.5t160 77.5q74 0 118 -36t62 -84h3q-6 74 -45.5 147t-111.5 118l-93 -61zM109 237q0 -79 42 -139.5
t122 -60.5q82 0 123 59.5t41 140.5q0 48 -16 92t-54.5 76.5t-93.5 32.5q-56 0 -94.5 -32.5t-54 -76.5t-15.5 -92z" />
    <glyph glyph-name="ntilde" unicode="&#xf1;" horiz-adv-x="557" 
d="M80 0v355l-4 147h56l4 -89h4q25 41 72 72.5t106 31.5q76 0 117.5 -43.5t41.5 -128.5v-345h-60v344q0 119 -107 119q-58 0 -106 -44.5t-64 -108.5v-310h-60zM350 587q-26 0 -78 32q-48 30 -62 30q-34 0 -38 -58h-42q3 61 25 90t56 29q29 0 81 -35q42 -27 59 -27
q34 0 38 58h41q-3 -61 -24.5 -90t-55.5 -29z" />
    <glyph glyph-name="ograve" unicode="&#xf2;" horiz-adv-x="558" 
d="M45 251q0 46 14 90.5t41 84.5t74.5 64.5t107.5 24.5q59 0 105.5 -25t72.5 -65.5t39.5 -85t13.5 -89.5q0 -108 -61 -187.5t-171 -79.5q-112 0 -174 78.5t-62 189.5zM110 251q0 -86 43.5 -149.5t126.5 -63.5q75 0 121.5 57t46.5 157q0 95 -46 151.5t-121 56.5
q-71 0 -121 -52.5t-50 -156.5zM136 681l37 53l168 -127l-25 -37z" />
    <glyph glyph-name="oacute" unicode="&#xf3;" horiz-adv-x="558" 
d="M45 251q0 46 14 90.5t41 84.5t74.5 64.5t107.5 24.5q59 0 105.5 -25t72.5 -65.5t39.5 -85t13.5 -89.5q0 -108 -61 -187.5t-171 -79.5q-112 0 -174 78.5t-62 189.5zM110 251q0 -86 43.5 -149.5t126.5 -63.5q75 0 121.5 57t46.5 157q0 95 -46 151.5t-121 56.5
q-71 0 -121 -52.5t-50 -156.5zM385 734l37 -53l-180 -111l-25 37z" />
    <glyph glyph-name="ocircumflex" unicode="&#xf4;" horiz-adv-x="558" 
d="M45 251q0 46 14 90.5t41 84.5t74.5 64.5t107.5 24.5q59 0 105.5 -25t72.5 -65.5t39.5 -85t13.5 -89.5q0 -108 -61 -187.5t-171 -79.5q-112 0 -174 78.5t-62 189.5zM110 251q0 -86 43.5 -149.5t126.5 -63.5q75 0 121.5 57t46.5 157q0 95 -46 151.5t-121 56.5
q-71 0 -121 -52.5t-50 -156.5zM280 731l134 -167h-62l-69 80h-6l-71 -80h-62z" />
    <glyph glyph-name="otilde" unicode="&#xf5;" horiz-adv-x="558" 
d="M45 251q0 46 14 90.5t41 84.5t74.5 64.5t107.5 24.5q59 0 105.5 -25t72.5 -65.5t39.5 -85t13.5 -89.5q0 -108 -61 -187.5t-171 -79.5q-112 0 -174 78.5t-62 189.5zM110 251q0 -86 43.5 -149.5t126.5 -63.5q75 0 121.5 57t46.5 157q0 95 -46 151.5t-121 56.5
q-71 0 -121 -52.5t-50 -156.5zM349 587q-26 0 -78 32q-48 30 -62 30q-34 0 -38 -58h-42q3 61 25 90t56 29q28 0 81 -35q42 -27 59 -27q34 0 38 58h41q-3 -61 -24.5 -90t-55.5 -29z" />
    <glyph glyph-name="odieresis" unicode="&#xf6;" horiz-adv-x="558" 
d="M45 251q0 46 14 90.5t41 84.5t74.5 64.5t107.5 24.5q59 0 105.5 -25t72.5 -65.5t39.5 -85t13.5 -89.5q0 -108 -61 -187.5t-171 -79.5q-112 0 -174 78.5t-62 189.5zM110 251q0 -86 43.5 -149.5t126.5 -63.5q75 0 121.5 57t46.5 157q0 95 -46 151.5t-121 56.5
q-71 0 -121 -52.5t-50 -156.5zM192 603q-20 0 -32.5 13t-12.5 31q0 19 12.5 32t32.5 13t32.5 -13t12.5 -32q0 -18 -12.5 -31t-32.5 -13zM366 603q-20 0 -32.5 13t-12.5 31q0 19 12.5 32t32.5 13t32.5 -13t12.5 -32q0 -18 -12.5 -31t-32.5 -13z" />
    <glyph glyph-name="divide" unicode="&#xf7;" horiz-adv-x="570" 
d="M540 222h-510v58h510v-58zM285 116q24 0 41 -16.5t17 -41.5t-17 -41.5t-41 -16.5t-41 16.5t-17 41.5t17 41.5t41 16.5zM285 502q24 0 41 -16.5t17 -41.5t-17 -41.5t-41 -16.5t-41 16.5t-17 41.5t17 41.5t41 16.5z" />
    <glyph glyph-name="oslash" unicode="&#xf8;" horiz-adv-x="558" 
d="M45 251q0 46 14 90.5t41 84.5t74.5 64.5t107.5 24.5q77 0 134 -44l61 82l35 -27l-64 -86q65 -78 65 -190q0 -108 -61 -187.5t-171 -79.5q-80 0 -139 44l-62 -83l-35 27l65 87q-65 77 -65 193zM448 252q0 84 -37 138l-234 -315q42 -37 103 -37q75 0 121.5 57t46.5 157z
M110 251q0 -84 38 -142l233 315q-42 36 -100 36q-71 0 -121 -52.5t-50 -156.5z" />
    <glyph glyph-name="ugrave" unicode="&#xf9;" horiz-adv-x="557" 
d="M477 502v-355l4 -147h-56l-4 89h-4q-25 -42 -70.5 -73t-104.5 -31q-76 0 -119 45t-43 129v343h60v-344q0 -119 108 -119q58 0 105.5 43.5t63.5 107.5v312h60zM136 681l37 53l168 -127l-25 -37z" />
    <glyph glyph-name="uacute" unicode="&#xfa;" horiz-adv-x="557" 
d="M477 502v-355l4 -147h-56l-4 89h-4q-25 -42 -70.5 -73t-104.5 -31q-76 0 -119 45t-43 129v343h60v-344q0 -119 108 -119q58 0 105.5 43.5t63.5 107.5v312h60zM384 734l37 -53l-180 -111l-25 37z" />
    <glyph glyph-name="ucircumflex" unicode="&#xfb;" horiz-adv-x="557" 
d="M477 502v-355l4 -147h-56l-4 89h-4q-25 -42 -70.5 -73t-104.5 -31q-76 0 -119 45t-43 129v343h60v-344q0 -119 108 -119q58 0 105.5 43.5t63.5 107.5v312h60zM279 731l134 -167h-62l-69 80h-6l-71 -80h-62z" />
    <glyph glyph-name="udieresis" unicode="&#xfc;" horiz-adv-x="557" 
d="M477 502v-355l4 -147h-56l-4 89h-4q-25 -42 -70.5 -73t-104.5 -31q-76 0 -119 45t-43 129v343h60v-344q0 -119 108 -119q58 0 105.5 43.5t63.5 107.5v312h60zM192 603q-20 0 -32.5 13t-12.5 31q0 19 12.5 32t32.5 13t32.5 -13t12.5 -32q0 -18 -12.5 -31t-32.5 -13z
M366 603q-20 0 -32.5 13t-12.5 31q0 19 12.5 32t32.5 13t32.5 -13t12.5 -32q0 -18 -12.5 -31t-32.5 -13z" />
    <glyph glyph-name="yacute" unicode="&#xfd;" horiz-adv-x="473" 
d="M88 502l157 -435h4l138 435h66q-56 -168 -98 -295.5t-58 -177.5t-27.5 -84.5l-18.5 -55.5q-27 -80 -117 -80q-32 0 -61 12l5 54q27 -11 56 -11q46 0 63 43q20 52 30 93q4 17 -5.5 28.5t-28.5 8.5l-173 465h68zM353 734l37 -53l-180 -111l-25 37z" />
    <glyph glyph-name="thorn" unicode="&#xfe;" horiz-adv-x="558" 
d="M80 722h60v-220l-1 -73h4q19 31 61 59.5t102 28.5q96 0 151.5 -74.5t55.5 -187.5q0 -115 -57 -192.5t-156 -77.5q-100 0 -158 93h-4q2 -39 2 -78v-193h-60v915zM448 255q0 95 -38.5 151t-111.5 56q-65 0 -109.5 -47.5t-48.5 -105.5v-117q6 -58 50 -105t104 -47
q73 0 113.5 57.5t40.5 157.5z" />
    <glyph glyph-name="ydieresis" unicode="&#xff;" horiz-adv-x="473" 
d="M88 502l157 -435h4l138 435h66q-56 -168 -98 -295.5t-58 -177.5t-27.5 -84.5l-18.5 -55.5q-27 -80 -117 -80q-32 0 -61 12l5 54q27 -11 56 -11q46 0 63 43q20 52 30 93q4 17 -5.5 28.5t-28.5 8.5l-173 465h68zM159 603q-20 0 -32.5 13t-12.5 31q0 19 12.5 32t32.5 13
t32.5 -13t12.5 -32q0 -18 -12.5 -31t-32.5 -13zM333 603q-20 0 -32.5 13t-12.5 31q0 19 12.5 32t32.5 13t32.5 -13t12.5 -32q0 -18 -12.5 -31t-32.5 -13z" />
    <glyph glyph-name="Amacron" unicode="&#x100;" horiz-adv-x="605" 
d="M524 0l-66 195h-316l-64 -195h-68l244 722h88l253 -722h-71zM297 659l-135 -404h275l-136 404h-4zM154 787v56h290v-56h-290z" />
    <glyph glyph-name="amacron" unicode="&#x101;" horiz-adv-x="504" 
d="M372 0h63q-4 20 -4 74v272q0 83 -49.5 125.5t-134.5 42.5q-77 0 -130 -41.5t-66 -108.5h70q5 41 37 70t88 29q125 0 126 -119v-66q-84 20 -156 20q-77 0 -127 -44.5t-50 -115.5q0 -69 41 -110.5t110 -41.5q103 0 182 88h4zM372 232v-93q-22 -35 -67 -67.5t-96 -32.5
q-50 0 -79 26.5t-29 73.5q0 51 35 80t98 29q64 0 138 -16zM112 604v55h280v-55h-280z" />
    <glyph glyph-name="Abreve" unicode="&#x102;" horiz-adv-x="605" 
d="M524 0l-66 195h-316l-64 -195h-68l244 722h88l253 -722h-71zM297 659l-135 -404h275l-136 404h-4zM299 826q36 0 58 18t27 34t6 31h45q2 -64 -35 -102.5t-101 -38.5q-65 0 -101 38.5t-34 102.5h45q0 -8 1.5 -16t7.5 -21t15 -22.5t26 -16.5t40 -7z" />
    <glyph glyph-name="abreve" unicode="&#x103;" horiz-adv-x="504" 
d="M435 0h-63l4 74h-4q-79 -88 -182 -88q-69 0 -110 41.5t-41 110.5q0 71 50 115.5t127 44.5q72 0 156 -20v66q-1 119 -126 119q-56 0 -88 -29t-37 -70h-70q13 67 66 108.5t130 41.5q85 0 134.5 -42.5t49.5 -125.5v-272q0 -54 4 -74zM372 139v93q-74 16 -138 16
q-63 0 -98 -29t-35 -80q0 -47 29 -73.5t79 -26.5q51 0 96 32.5t67 67.5zM247 629q23 0 40.5 8t26.5 19t14.5 25.5t7 23t1.5 17.5h45q2 -70 -33.5 -110.5t-101.5 -40.5q-65 0 -100.5 40t-33.5 111h45q5 -93 89 -93z" />
    <glyph glyph-name="Aogonek" unicode="&#x104;" horiz-adv-x="605" 
d="M524 0l-66 195h-316l-64 -195h-68l244 722h88l253 -722h-71zM297 659l-135 -404h275l-136 404h-4zM595 -128v-35q-46 -30 -87 -30q-37 0 -59 19t-22 52q0 65 112 122h56q-114 -57 -114 -112q0 -38 45 -38q28 0 69 22z" />
    <glyph glyph-name="aogonek" unicode="&#x105;" horiz-adv-x="504" 
d="M435 0h-63l4 74h-4q-79 -88 -182 -88q-69 0 -110 41.5t-41 110.5q0 71 50 115.5t127 44.5q72 0 156 -20v66q-1 119 -126 119q-56 0 -88 -29t-37 -70h-70q13 67 66 108.5t130 41.5q85 0 134.5 -42.5t49.5 -125.5v-272q0 -54 4 -74zM372 139v93q-74 16 -138 16
q-63 0 -98 -29t-35 -80q0 -47 29 -73.5t79 -26.5q51 0 96 32.5t67 67.5zM435 -128v-35q-46 -30 -87 -30q-37 0 -59 19t-22 52q0 65 112 122h56q-114 -57 -114 -112q0 -38 45 -38q28 0 69 22z" />
    <glyph glyph-name="Cacute" unicode="&#x106;" horiz-adv-x="723" 
d="M655 518h-70q-8 71 -56.5 115.5t-134.5 44.5q-122 0 -193 -88t-71 -229q0 -127 71.5 -220.5t193.5 -93.5q87 0 139 46.5t58 116.5h71q-13 -104 -86 -164.5t-183 -60.5q-67 0 -123.5 23.5t-94.5 62t-65 88.5t-39 101t-12 101q0 71 20.5 136.5t60.5 120t105.5 87
t147.5 32.5q108 0 179 -58.5t82 -160.5zM500 919l33 -57l-189 -97l-24 42z" />
    <glyph glyph-name="cacute" unicode="&#x107;" horiz-adv-x="508" 
d="M457 346h-65q-6 51 -37 83.5t-89 32.5q-80 0 -118 -60t-38 -152q0 -86 40 -148t117 -62q58 0 90.5 35t40.5 87h65q-14 -79 -63 -128t-135 -49q-102 0 -161 74t-59 190q0 122 60.5 195t161.5 73q80 0 131 -47.5t59 -123.5zM370 734l37 -53l-180 -111l-25 37z" />
    <glyph glyph-name="Ccircumflex" unicode="&#x108;" horiz-adv-x="723" 
d="M655 518h-70q-8 71 -56.5 115.5t-134.5 44.5q-122 0 -193 -88t-71 -229q0 -127 71.5 -220.5t193.5 -93.5q87 0 139 46.5t58 116.5h71q-13 -104 -86 -164.5t-183 -60.5q-67 0 -123.5 23.5t-94.5 62t-65 88.5t-39 101t-12 101q0 71 20.5 136.5t60.5 120t105.5 87
t147.5 32.5q108 0 179 -58.5t82 -160.5zM387 924l142 -152h-67l-72 69h-6l-74 -69h-67z" />
    <glyph glyph-name="ccircumflex" unicode="&#x109;" horiz-adv-x="508" 
d="M457 346h-65q-6 51 -37 83.5t-89 32.5q-80 0 -118 -60t-38 -152q0 -86 40 -148t117 -62q58 0 90.5 35t40.5 87h65q-14 -79 -63 -128t-135 -49q-102 0 -161 74t-59 190q0 122 60.5 195t161.5 73q80 0 131 -47.5t59 -123.5zM264 731l134 -167h-62l-69 80h-6l-71 -80h-62z
" />
    <glyph glyph-name="Cdotaccent" unicode="&#x10a;" horiz-adv-x="723" 
d="M655 518h-70q-8 71 -56.5 115.5t-134.5 44.5q-122 0 -193 -88t-71 -229q0 -127 71.5 -220.5t193.5 -93.5q87 0 139 46.5t58 116.5h71q-13 -104 -86 -164.5t-183 -60.5q-67 0 -123.5 23.5t-94.5 62t-65 88.5t-39 101t-12 101q0 71 20.5 136.5t60.5 120t105.5 87
t147.5 32.5q108 0 179 -58.5t82 -160.5zM396 781q-21 0 -34.5 13.5t-13.5 33.5q0 21 13.5 34.5t34.5 13.5t34.5 -13.5t13.5 -34.5q0 -20 -13.5 -33.5t-34.5 -13.5z" />
    <glyph glyph-name="cdotaccent" unicode="&#x10b;" horiz-adv-x="508" 
d="M457 346h-65q-6 51 -37 83.5t-89 32.5q-80 0 -118 -60t-38 -152q0 -86 40 -148t117 -62q58 0 90.5 35t40.5 87h65q-14 -79 -63 -128t-135 -49q-102 0 -161 74t-59 190q0 122 60.5 195t161.5 73q80 0 131 -47.5t59 -123.5zM268 603q-20 0 -32.5 13t-12.5 31q0 19 12.5 32
t32.5 13t32.5 -13t12.5 -32q0 -18 -12.5 -31t-32.5 -13z" />
    <glyph glyph-name="Ccaron" unicode="&#x10c;" horiz-adv-x="723" 
d="M655 518h-70q-8 71 -56.5 115.5t-134.5 44.5q-122 0 -193 -88t-71 -229q0 -127 71.5 -220.5t193.5 -93.5q87 0 139 46.5t58 116.5h71q-13 -104 -86 -164.5t-183 -60.5q-67 0 -123.5 23.5t-94.5 62t-65 88.5t-39 101t-12 101q0 71 20.5 136.5t60.5 120t105.5 87
t147.5 32.5q108 0 179 -58.5t82 -160.5zM533 919l-142 -152l-144 152h67l74 -68h6l72 68h67z" />
    <glyph glyph-name="ccaron" unicode="&#x10d;" horiz-adv-x="508" 
d="M457 346h-65q-6 51 -37 83.5t-89 32.5q-80 0 -118 -60t-38 -152q0 -86 40 -148t117 -62q58 0 90.5 35t40.5 87h65q-14 -79 -63 -128t-135 -49q-102 0 -161 74t-59 190q0 122 60.5 195t161.5 73q80 0 131 -47.5t59 -123.5zM398 722l-134 -167l-136 167h62l71 -80h6l69 80
h62z" />
    <glyph glyph-name="Dcaron" unicode="&#x10e;" horiz-adv-x="686" 
d="M100 0v722h145q159 0 270 -101t111 -266q0 -151 -107.5 -253t-279.5 -102h-139zM165 663v-604l78 1q144 1 229.5 83.5t85.5 213.5q0 128 -85 216t-221 89zM446 919l-142 -152l-144 152h67l74 -68h6l72 68h67z" />
    <glyph glyph-name="dcaron" unicode="&#x10f;" horiz-adv-x="608" 
d="M418 502v220h60v-644q0 -58 4 -78h-64l4 79h-4q-25 -40 -68 -67t-95 -27q-99 0 -154.5 78t-55.5 193q0 112 56 186.5t150 74.5q60 0 102.5 -28.5t61.5 -59.5h4q-1 38 -1 73zM110 256q0 -100 39.5 -158t111.5 -58q61 0 106 46.5t51 104.5v118q-4 58 -48.5 105.5
t-109.5 47.5q-71 0 -110.5 -56t-39.5 -150zM562 546h-49q43 36 54 63q4 11 -9 13q-19 2 -32.5 16t-13.5 34q0 22 13 36t35 14t37 -13.5t15 -36.5q0 -17 -4 -33q-13 -49 -46 -93z" />
    <glyph glyph-name="Dcroat" unicode="&#x110;" horiz-adv-x="686" 
d="M100 0v344h-71v50h71v328h145q159 0 270 -101t111 -266q0 -151 -107.5 -253t-279.5 -102h-139zM165 663v-269h212v-50h-212v-285l78 1q144 1 229.5 83.5t85.5 213.5q0 128 -85 216t-221 89z" />
    <glyph glyph-name="dcroat" unicode="&#x111;" horiz-adv-x="552" 
d="M262 604v55h156v63h60v-63h64v-55h-64v-526q0 -58 4 -78h-64l4 79h-4q-25 -40 -68 -67t-95 -27q-99 0 -154.5 78t-55.5 193q0 112 56 186.5t150 74.5q60 0 102.5 -28.5t61.5 -59.5h4q-1 38 -1 73v102h-156zM110 256q0 -100 39.5 -158t111.5 -58q61 0 106 46.5t51 104.5
v118q-4 58 -48.5 105.5t-109.5 47.5q-71 0 -110.5 -56t-39.5 -150z" />
    <glyph glyph-name="Emacron" unicode="&#x112;" horiz-adv-x="571" 
d="M100 0v722h400v-60h-335v-264h321v-60h-321v-278h346v-60h-411zM161 787v56h290v-56h-290z" />
    <glyph glyph-name="emacron" unicode="&#x113;" horiz-adv-x="527" 
d="M472 245h-360q-1 -84 43.5 -144.5t118.5 -60.5q58 0 91.5 31.5t41.5 83.5h63q-9 -71 -59 -120.5t-141 -49.5q-99 0 -160.5 79.5t-62.5 191.5q-1 110 60 185t163 75t153 -71t51 -169q0 -11 -2 -31zM114 299l295 2q0 24 -5.5 49t-19.5 51.5t-43.5 43.5t-70.5 17
q-71 0 -109 -45t-47 -118zM125 604v55h280v-55h-280z" />
    <glyph glyph-name="Ebreve" unicode="&#x114;" horiz-adv-x="571" 
d="M100 0v722h400v-60h-335v-264h321v-60h-321v-278h346v-60h-411zM304 826q36 0 58 18t27 34t6 31h45q2 -64 -35 -102.5t-101 -38.5q-65 0 -101 38.5t-34 102.5h45q0 -8 1.5 -16t7.5 -21t15 -22.5t26 -16.5t40 -7z" />
    <glyph glyph-name="ebreve" unicode="&#x115;" horiz-adv-x="527" 
d="M472 245h-360q-1 -84 43.5 -144.5t118.5 -60.5q58 0 91.5 31.5t41.5 83.5h63q-9 -71 -59 -120.5t-141 -49.5q-99 0 -160.5 79.5t-62.5 191.5q-1 110 60 185t163 75t153 -71t51 -169q0 -11 -2 -31zM114 299l295 2q0 24 -5.5 49t-19.5 51.5t-43.5 43.5t-70.5 17
q-71 0 -109 -45t-47 -118zM264 629q23 0 40.5 8t26.5 19t14.5 25.5t7 23t1.5 17.5h45q2 -70 -33.5 -110.5t-101.5 -40.5q-65 0 -100.5 40t-33.5 111h45q5 -93 89 -93z" />
    <glyph glyph-name="Edotaccent" unicode="&#x116;" horiz-adv-x="571" 
d="M100 0v722h400v-60h-335v-264h321v-60h-321v-278h346v-60h-411zM307 781q-21 0 -34.5 13.5t-13.5 33.5q0 21 13.5 34.5t34.5 13.5t34.5 -13.5t13.5 -34.5q0 -20 -13.5 -33.5t-34.5 -13.5z" />
    <glyph glyph-name="edotaccent" unicode="&#x117;" horiz-adv-x="527" 
d="M472 245h-360q-1 -84 43.5 -144.5t118.5 -60.5q58 0 91.5 31.5t41.5 83.5h63q-9 -71 -59 -120.5t-141 -49.5q-99 0 -160.5 79.5t-62.5 191.5q-1 110 60 185t163 75t153 -71t51 -169q0 -11 -2 -31zM114 299l295 2q0 24 -5.5 49t-19.5 51.5t-43.5 43.5t-70.5 17
q-71 0 -109 -45t-47 -118zM273 603q-20 0 -32.5 13t-12.5 31q0 19 12.5 32t32.5 13t32.5 -13t12.5 -32q0 -18 -12.5 -31t-32.5 -13z" />
    <glyph glyph-name="Eogonek" unicode="&#x118;" horiz-adv-x="571" 
d="M100 0v722h400v-60h-335v-264h321v-60h-321v-278h346v-60q-114 -57 -114 -112q0 -38 45 -38q28 0 69 22v-35q-46 -30 -87 -30q-37 0 -59 19t-22 52q0 65 112 122h-355z" />
    <glyph glyph-name="eogonek" unicode="&#x119;" horiz-adv-x="527" 
d="M472 245h-360q-1 -84 43.5 -144.5t118.5 -60.5q58 0 91.5 31.5t41.5 83.5h63q-13 -97 -88 -142q-34 -25 -58.5 -60.5t-24.5 -61.5q0 -41 47 -41q32 0 73 22v-35q-46 -30 -91 -30q-36 0 -58 19.5t-22 53.5q0 49 64 109q-26 -4 -42 -4q-99 0 -160.5 79.5t-62.5 191.5
q-1 110 60 185t163 75t153 -71t51 -169q0 -11 -2 -31zM114 299l295 2q0 24 -5.5 49t-19.5 51.5t-43.5 43.5t-70.5 17q-71 0 -109 -45t-47 -118z" />
    <glyph glyph-name="Ecaron" unicode="&#x11a;" horiz-adv-x="571" 
d="M100 0v722h400v-60h-335v-264h321v-60h-321v-278h346v-60h-411zM446 919l-142 -152l-144 152h67l74 -68h6l72 68h67z" />
    <glyph glyph-name="ecaron" unicode="&#x11b;" horiz-adv-x="527" 
d="M472 245h-360q-1 -84 43.5 -144.5t118.5 -60.5q58 0 91.5 31.5t41.5 83.5h63q-9 -71 -59 -120.5t-141 -49.5q-99 0 -160.5 79.5t-62.5 191.5q-1 110 60 185t163 75t153 -71t51 -169q0 -11 -2 -31zM114 299l295 2q0 24 -5.5 49t-19.5 51.5t-43.5 43.5t-70.5 17
q-71 0 -109 -45t-47 -118zM408 722l-134 -167l-136 167h62l71 -80h6l69 80h62z" />
    <glyph glyph-name="Gcircumflex" unicode="&#x11c;" horiz-adv-x="735" 
d="M664 531h-75q-10 69 -60.5 107.5t-133.5 38.5q-122 0 -193.5 -90.5t-71.5 -220.5q0 -143 64.5 -232t192.5 -89q106 0 168.5 63.5t60.5 164.5l-307 -23v75h376q-1 -89 -26.5 -157t-69 -106.5t-95 -57.5t-108.5 -19q-106 0 -182 55t-110 139.5t-34 186.5q0 98 39 181.5
t117.5 136.5t180.5 53q107 0 177.5 -54.5t89.5 -151.5zM396 924l142 -152h-67l-72 69h-6l-74 -69h-67z" />
    <glyph glyph-name="gcircumflex" unicode="&#x11d;" horiz-adv-x="548" 
d="M484 502h-60l-12 -75h-4q-9 16 -25.5 34t-52.5 37t-77 19q-93 0 -150.5 -73.5t-57.5 -184.5q0 -109 55.5 -182.5t145.5 -73.5q51 0 93.5 25t66.5 62h4l-2 -88q0 -139 -138 -139q-54 0 -90 28.5t-38 69.5h-67q7 -58 58 -105t136 -47q93 0 146 52t53 149v345q0 20 6 72.5
t10 74.5zM109 262q0 87 38.5 144.5t110.5 57.5q56 0 99.5 -45.5t50.5 -97.5v-125q-6 -50 -49 -94.5t-100 -44.5q-73 0 -111.5 57.5t-38.5 147.5zM259 731l134 -167h-62l-69 80h-6l-71 -80h-62z" />
    <glyph glyph-name="Gbreve" unicode="&#x11e;" horiz-adv-x="735" 
d="M664 531h-75q-10 69 -60.5 107.5t-133.5 38.5q-122 0 -193.5 -90.5t-71.5 -220.5q0 -143 64.5 -232t192.5 -89q106 0 168.5 63.5t60.5 164.5l-307 -23v75h376q-1 -89 -26.5 -157t-69 -106.5t-95 -57.5t-108.5 -19q-106 0 -182 55t-110 139.5t-34 186.5q0 98 39 181.5
t117.5 136.5t180.5 53q107 0 177.5 -54.5t89.5 -151.5zM396 826q36 0 58 18t27 34t6 31h45q2 -64 -35 -102.5t-101 -38.5q-65 0 -101 38.5t-34 102.5h45q0 -8 1.5 -16t7.5 -21t15 -22.5t26 -16.5t40 -7z" />
    <glyph glyph-name="gbreve" unicode="&#x11f;" horiz-adv-x="548" 
d="M424 502h60q-4 -22 -10 -74.5t-6 -72.5v-345q0 -97 -53 -149t-146 -52q-85 0 -136 47t-58 105h67q2 -41 38 -69.5t90 -28.5q138 0 138 139l2 88h-4q-24 -37 -66.5 -62t-93.5 -25q-90 0 -145.5 73.5t-55.5 182.5q0 111 57.5 184.5t150.5 73.5q41 0 77 -19t52.5 -37
t25.5 -34h4zM109 262q0 -90 38.5 -147.5t111.5 -57.5q57 0 100 44.5t49 94.5v125q-7 52 -50.5 97.5t-99.5 45.5q-72 0 -110.5 -57.5t-38.5 -144.5zM265 629q23 0 40.5 8t26.5 19t14.5 25.5t7 23t1.5 17.5h45q2 -70 -33.5 -110.5t-101.5 -40.5q-65 0 -100.5 40t-33.5 111h45
q5 -93 89 -93z" />
    <glyph glyph-name="Gdotaccent" unicode="&#x120;" horiz-adv-x="735" 
d="M664 531h-75q-10 69 -60.5 107.5t-133.5 38.5q-122 0 -193.5 -90.5t-71.5 -220.5q0 -143 64.5 -232t192.5 -89q106 0 168.5 63.5t60.5 164.5l-307 -23v75h376q-1 -89 -26.5 -157t-69 -106.5t-95 -57.5t-108.5 -19q-106 0 -182 55t-110 139.5t-34 186.5q0 98 39 181.5
t117.5 136.5t180.5 53q107 0 177.5 -54.5t89.5 -151.5zM394 781q-21 0 -34.5 13.5t-13.5 33.5q0 21 13.5 34.5t34.5 13.5t34.5 -13.5t13.5 -34.5q0 -20 -13.5 -33.5t-34.5 -13.5z" />
    <glyph glyph-name="gdotaccent" unicode="&#x121;" horiz-adv-x="548" 
d="M424 502h60q-4 -22 -10 -74.5t-6 -72.5v-345q0 -97 -53 -149t-146 -52q-85 0 -136 47t-58 105h67q2 -41 38 -69.5t90 -28.5q138 0 138 139l2 88h-4q-24 -37 -66.5 -62t-93.5 -25q-90 0 -145.5 73.5t-55.5 182.5q0 111 57.5 184.5t150.5 73.5q41 0 77 -19t52.5 -37
t25.5 -34h4zM109 262q0 -90 38.5 -147.5t111.5 -57.5q57 0 100 44.5t49 94.5v125q-7 52 -50.5 97.5t-99.5 45.5q-72 0 -110.5 -57.5t-38.5 -144.5zM259 603q-20 0 -32.5 13t-12.5 31q0 19 12.5 32t32.5 13t32.5 -13t12.5 -32q0 -18 -12.5 -31t-32.5 -13z" />
    <glyph glyph-name="Gcommaaccent" unicode="&#x122;" horiz-adv-x="735" 
d="M664 531h-75q-10 69 -60.5 107.5t-133.5 38.5q-122 0 -193.5 -90.5t-71.5 -220.5q0 -143 64.5 -232t192.5 -89q106 0 168.5 63.5t60.5 164.5l-307 -23v75h376q-1 -89 -26.5 -157t-69 -106.5t-95 -57.5t-108.5 -19q-106 0 -182 55t-110 139.5t-34 186.5q0 98 39 181.5
t117.5 136.5t180.5 53q107 0 177.5 -54.5t89.5 -151.5zM394 -229h-47q39 30 55 60q6 10 -6 12q-19 3 -32 16t-13 32q0 22 13 35t33 13t34.5 -13t14.5 -35q0 -17 -4 -33q-11 -45 -48 -87z" />
    <glyph glyph-name="gcommaaccent" unicode="&#x123;" horiz-adv-x="548" 
d="M484 502h-60l-12 -75h-4q-9 16 -25.5 34t-52.5 37t-77 19q-93 0 -150.5 -73.5t-57.5 -184.5q0 -109 55.5 -182.5t145.5 -73.5q51 0 93.5 25t66.5 62h4l-2 -88q0 -139 -138 -139q-54 0 -90 28.5t-38 69.5h-67q7 -58 58 -105t136 -47q93 0 146 52t53 149v345q0 20 6 72.5
t10 74.5zM109 262q0 87 38.5 144.5t110.5 57.5q56 0 99.5 -45.5t50.5 -97.5v-125q-6 -50 -49 -94.5t-100 -44.5q-73 0 -111.5 57.5t-38.5 147.5zM257 732h47q-39 -30 -55 -60q-6 -10 6 -12q19 -3 32 -16t13 -32q0 -22 -13 -35t-33 -13t-34.5 13t-14.5 35q0 17 4 33
q11 45 48 87z" />
    <glyph glyph-name="Hcircumflex" unicode="&#x124;" horiz-adv-x="724" 
d="M100 722h65v-326h394v326h65v-722h-65v336h-394v-336h-65v722zM363 924l142 -152h-67l-72 69h-6l-74 -69h-67z" />
    <glyph glyph-name="hcircumflex" unicode="&#x125;" horiz-adv-x="557" 
d="M249 911l135 -147h-64l-68 64h-6l-70 -64h-64zM80 0v722h60v-220l-2 -89h4q25 41 71.5 72.5t105.5 31.5q75 0 116.5 -43.5t41.5 -128.5v-345h-60v344q0 119 -107 119q-58 0 -106 -44.5t-64 -108.5v-310h-60z" />
    <glyph glyph-name="Hbar" unicode="&#x126;" horiz-adv-x="724" 
d="M100 722h65v-153h394v153h65v-153h69v-55h-69v-514h-65v336h-394v-336h-65v514h-70v55h70v153zM165 396h394v118h-394v-118z" />
    <glyph glyph-name="hbar" unicode="&#x127;" horiz-adv-x="557" 
d="M10 604v55h70v63h60v-63h150v-55h-150v-102l-2 -89h4q25 41 71.5 72.5t105.5 31.5q75 0 116.5 -43.5t41.5 -128.5v-345h-60v344q0 119 -107 119q-58 0 -106 -44.5t-64 -108.5v-310h-60v604h-70z" />
    <glyph glyph-name="Itilde" unicode="&#x128;" horiz-adv-x="265" 
d="M100 0v722h65v-722h-65zM205 777q-34 0 -81 27q-44 25 -63 25q-21 0 -28.5 -13t-9.5 -37h-41q5 111 79 111q32 0 83 -30q37 -22 61 -22q21 0 28.5 13t9.5 37h40q-5 -111 -78 -111z" />
    <glyph glyph-name="itilde" unicode="&#x129;" horiz-adv-x="220" 
d="M80 0v502h60v-502h-60zM180 587q-26 0 -78 32q-48 30 -62 30q-34 0 -38 -58h-42q3 61 25 90t56 29q29 0 81 -35q42 -27 59 -27q34 0 38 58h41q-3 -61 -24.5 -90t-55.5 -29z" />
    <glyph glyph-name="Imacron" unicode="&#x12a;" horiz-adv-x="265" 
d="M100 0v722h65v-722h-65zM-14 787v56h290v-56h-290z" />
    <glyph glyph-name="imacron" unicode="&#x12b;" horiz-adv-x="220" 
d="M80 0v502h60v-502h-60zM-30 604v55h280v-55h-280z" />
    <glyph glyph-name="Ibreve" unicode="&#x12c;" horiz-adv-x="265" 
d="M100 0v722h65v-722h-65zM132 826q36 0 58 18t27 34t6 31h45q2 -64 -35 -102.5t-101 -38.5q-65 0 -101 38.5t-34 102.5h45q0 -8 1.5 -16t7.5 -21t15 -22.5t26 -16.5t40 -7z" />
    <glyph glyph-name="ibreve" unicode="&#x12d;" horiz-adv-x="220" 
d="M80 0v502h60v-502h-60zM110 629q23 0 40.5 8t26.5 19t14.5 25.5t7 23t1.5 17.5h45q2 -70 -33.5 -110.5t-101.5 -40.5q-65 0 -100.5 40t-33.5 111h45q5 -93 89 -93z" />
    <glyph glyph-name="Iogonek" unicode="&#x12e;" horiz-adv-x="265" 
d="M100 0v722h65v-722q-114 -57 -114 -112q0 -38 45 -38q28 0 69 22v-35q-46 -30 -87 -30q-37 0 -59 19t-22 52q0 65 112 122h-9z" />
    <glyph glyph-name="iogonek" unicode="&#x12f;" horiz-adv-x="220" 
d="M140 -128v-35q-46 -30 -87 -30q-37 0 -59 19t-22 52q0 65 112 122h-4v502h60v-502q-114 -57 -114 -112q0 -38 45 -38q28 0 69 22zM65 677q0 19 12.5 32t32.5 13t32.5 -13t12.5 -32q0 -18 -12.5 -31t-32.5 -13t-32.5 13t-12.5 31z" />
    <glyph glyph-name="Idotaccent" unicode="&#x130;" horiz-adv-x="265" 
d="M100 0v722h65v-722h-65zM133 781q-21 0 -34.5 13.5t-13.5 33.5q0 21 13.5 34.5t34.5 13.5t34.5 -13.5t13.5 -34.5q0 -20 -13.5 -33.5t-34.5 -13.5z" />
    <glyph glyph-name="dotlessi" unicode="&#x131;" horiz-adv-x="228" 
d="M84 0v502h60v-502h-60z" />
    <glyph glyph-name="Jcircumflex" unicode="&#x134;" horiz-adv-x="511" 
d="M34 194h70q-1 -65 27.5 -106.5t89.5 -41.5t93 40t32 115v521h65v-521q0 -102 -52.5 -158.5t-139.5 -56.5q-86 0 -135 58t-50 150zM257 924l142 -152h-67l-72 69h-6l-74 -69h-67z" />
    <glyph glyph-name="jcircumflex" unicode="&#x135;" horiz-adv-x="230" 
d="M90 -57v559h60v-555q0 -140 -111 -140q-22 0 -38 4v54q45 -5 67 13.5t22 64.5zM119 731l134 -167h-62l-69 80h-6l-71 -80h-62z" />
    <glyph glyph-name="Kcommaaccent" unicode="&#x136;" horiz-adv-x="622" 
d="M100 0v722h64v-343h4l315 343h81l-328 -353l358 -369h-86l-340 352h-4v-352h-64zM327 -229h-47q39 30 55 60q6 10 -6 12q-19 3 -32 16t-13 32q0 22 13 35t33 13t34.5 -13t14.5 -35q0 -17 -4 -33q-11 -45 -48 -87z" />
    <glyph glyph-name="kcommaaccent" unicode="&#x137;" horiz-adv-x="485" 
d="M80 0v722h60v-442h4l237 222h83l-255 -235l264 -267h-82l-247 251h-4v-251h-60zM253 -229h-47q39 30 55 60q6 10 -6 12q-19 3 -32 16t-13 32q0 22 13 35t33 13t34.5 -13t14.5 -35q0 -17 -4 -33q-11 -45 -48 -87z" />
    <glyph glyph-name="Lacute" unicode="&#x139;" horiz-adv-x="505" 
d="M100 0v722h65v-662h310v-60h-375zM270 919l33 -57l-189 -97l-24 42z" />
    <glyph glyph-name="lacute" unicode="&#x13a;" horiz-adv-x="220" 
d="M140 519v-519h-60v722h52zM234 919l33 -57l-189 -97l-24 42z" />
    <glyph glyph-name="Lcommaaccent" unicode="&#x13b;" horiz-adv-x="505" 
d="M100 0v722h65v-662h310v-60h-375zM293 -229h-47q39 30 55 60q6 10 -6 12q-19 3 -32 16t-13 32q0 22 13 35t33 13t34.5 -13t14.5 -35q0 -17 -4 -33q-11 -45 -48 -87z" />
    <glyph glyph-name="lcommaaccent" unicode="&#x13c;" horiz-adv-x="220" 
d="M140 519v-519h-60v722h52zM107 -229h-47q39 30 55 60q6 10 -6 12q-19 3 -32 16t-13 32q0 22 13 35t33 13t34.5 -13t14.5 -35q0 -17 -4 -33q-11 -45 -48 -87z" />
    <glyph glyph-name="Lcaron" unicode="&#x13d;" horiz-adv-x="505" 
d="M100 0v722h65v-662h310v-60h-375zM282 546h-49q43 36 54 63q4 11 -9 13q-19 2 -32.5 16t-13.5 34q0 22 13 36t35 14t37 -13.5t15 -36.5q0 -17 -4 -33q-13 -49 -46 -93z" />
    <glyph glyph-name="lcaron" unicode="&#x13e;" horiz-adv-x="271" 
d="M140 519v-519h-60v722h52zM223 546h-49q43 36 54 63q4 11 -9 13q-19 2 -32.5 16t-13.5 34q0 22 13 36t35 14t37 -13.5t15 -36.5q0 -17 -4 -33q-13 -49 -46 -93z" />
    <glyph glyph-name="Ldot" unicode="&#x13f;" horiz-adv-x="505" 
d="M100 0v722h65v-662h310v-60h-375zM382 379q-24 0 -41 -16.5t-17 -41.5t17 -41.5t41 -16.5t41 16.5t17 41.5t-17 41.5t-41 16.5z" />
    <glyph glyph-name="ldot" unicode="&#x140;" horiz-adv-x="318" 
d="M140 519v-519h-60v722h52zM260 379q-24 0 -41 -16.5t-17 -41.5t17 -41.5t41 -16.5t41 16.5t17 41.5t-17 41.5t-41 16.5z" />
    <glyph glyph-name="Lslash" unicode="&#x141;" horiz-adv-x="505" 
d="M100 0v289l-71 -43v56l71 44v376h65v-336l207 128v-57l-207 -128v-269h310v-60h-375z" />
    <glyph glyph-name="lslash" unicode="&#x142;" horiz-adv-x="220" 
d="M140 519v-105l71 44v-53l-71 -44v-361h-60v324l-71 -44v53l71 44v345h52z" />
    <glyph glyph-name="Nacute" unicode="&#x143;" horiz-adv-x="776" 
d="M100 0v722h75l433 -632h4v632h64v-722h-84l-424 619h-4v-619h-64zM511 919l33 -57l-189 -97l-24 42z" />
    <glyph glyph-name="nacute" unicode="&#x144;" horiz-adv-x="557" 
d="M80 0v355l-4 147h56l4 -89h4q25 41 72 72.5t106 31.5q76 0 117.5 -43.5t41.5 -128.5v-345h-60v344q0 119 -107 119q-58 0 -106 -44.5t-64 -108.5v-310h-60zM394 734l37 -53l-180 -111l-25 37z" />
    <glyph glyph-name="Ncommaaccent" unicode="&#x145;" horiz-adv-x="776" 
d="M100 0v722h75l433 -632h4v632h64v-722h-84l-424 619h-4v-619h-64zM392 -229h-47q39 30 55 60q6 10 -6 12q-19 3 -32 16t-13 32q0 22 13 35t33 13t34.5 -13t14.5 -35q0 -17 -4 -33q-11 -45 -48 -87z" />
    <glyph glyph-name="ncommaaccent" unicode="&#x146;" horiz-adv-x="557" 
d="M80 0v355l-4 147h56l4 -89h4q25 41 72 72.5t106 31.5q76 0 117.5 -43.5t41.5 -128.5v-345h-60v344q0 119 -107 119q-58 0 -106 -44.5t-64 -108.5v-310h-60zM277 -229h-47q39 30 55 60q6 10 -6 12q-19 3 -32 16t-13 32q0 22 13 35t33 13t34.5 -13t14.5 -35q0 -17 -4 -33
q-11 -45 -48 -87z" />
    <glyph glyph-name="Ncaron" unicode="&#x147;" horiz-adv-x="776" 
d="M100 0v722h75l433 -632h4v632h64v-722h-84l-424 619h-4v-619h-64zM531 919l-142 -152l-144 152h67l74 -68h6l72 68h67z" />
    <glyph glyph-name="ncaron" unicode="&#x148;" horiz-adv-x="557" 
d="M80 0v355l-4 147h56l4 -89h4q25 41 72 72.5t106 31.5q76 0 117.5 -43.5t41.5 -128.5v-345h-60v344q0 119 -107 119q-58 0 -106 -44.5t-64 -108.5v-310h-60zM420 722l-134 -167l-136 167h62l71 -80h6l69 80h62z" />
    <glyph glyph-name="Eng" unicode="&#x14a;" horiz-adv-x="776" 
d="M326 -34h69q-1 -54 25.5 -87t78.5 -33q112 0 112 128v7q0 19 -19 19l-423 618h-4v-618h-65v722h75l432 -630h4v630h65v-744q0 -91 -46.5 -140.5t-130.5 -49.5q-80 0 -125.5 49t-47.5 129z" />
    <glyph glyph-name="eng" unicode="&#x14b;" horiz-adv-x="557" 
d="M477 345v-398q0 -60 -30.5 -100t-91.5 -40q-29 0 -45 4v53q107 -14 107 80v400q0 119 -107 119q-58 0 -106 -44.5t-64 -108.5v-310h-60v355l-4 147h56l4 -89h4q25 42 70.5 73t104.5 31q76 0 119 -44t43 -128z" />
    <glyph glyph-name="Omacron" unicode="&#x14c;" horiz-adv-x="802" 
d="M60 366q0 98 39 181.5t118 136.5t183 53q157 0 249.5 -108t92.5 -267q0 -174 -96.5 -275.5t-246.5 -101.5q-145 0 -242 105t-97 276zM130 364q0 -138 74.5 -228.5t194.5 -90.5q130 0 201.5 90.5t71.5 227.5q0 138 -73.5 226t-199.5 88q-124 0 -196.5 -90.5t-72.5 -222.5z
M256 787v56h290v-56h-290z" />
    <glyph glyph-name="omacron" unicode="&#x14d;" horiz-adv-x="558" 
d="M45 251q0 46 14 90.5t41 84.5t74.5 64.5t107.5 24.5q59 0 105.5 -25t72.5 -65.5t39.5 -85t13.5 -89.5q0 -108 -61 -187.5t-171 -79.5q-112 0 -174 78.5t-62 189.5zM110 251q0 -86 43.5 -149.5t126.5 -63.5q75 0 121.5 57t46.5 157q0 95 -46 151.5t-121 56.5
q-71 0 -121 -52.5t-50 -156.5zM140 604v55h280v-55h-280z" />
    <glyph glyph-name="Obreve" unicode="&#x14e;" horiz-adv-x="802" 
d="M60 366q0 98 39 181.5t118 136.5t183 53q157 0 249.5 -108t92.5 -267q0 -174 -96.5 -275.5t-246.5 -101.5q-145 0 -242 105t-97 276zM130 364q0 -138 74.5 -228.5t194.5 -90.5q130 0 201.5 90.5t71.5 227.5q0 138 -73.5 226t-199.5 88q-124 0 -196.5 -90.5t-72.5 -222.5z
M400 826q36 0 58 18t27 34t6 31h45q2 -64 -35 -102.5t-101 -38.5q-65 0 -101 38.5t-34 102.5h45q0 -8 1.5 -16t7.5 -21t15 -22.5t26 -16.5t40 -7z" />
    <glyph glyph-name="obreve" unicode="&#x14f;" horiz-adv-x="558" 
d="M45 251q0 46 14 90.5t41 84.5t74.5 64.5t107.5 24.5q59 0 105.5 -25t72.5 -65.5t39.5 -85t13.5 -89.5q0 -108 -61 -187.5t-171 -79.5q-112 0 -174 78.5t-62 189.5zM110 251q0 -86 43.5 -149.5t126.5 -63.5q75 0 121.5 57t46.5 157q0 95 -46 151.5t-121 56.5
q-71 0 -121 -52.5t-50 -156.5zM278 629q23 0 40.5 8t26.5 19t14.5 25.5t7 23t1.5 17.5h45q2 -70 -33.5 -110.5t-101.5 -40.5q-65 0 -100.5 40t-33.5 111h45q5 -93 89 -93z" />
    <glyph glyph-name="Ohungarumlaut" unicode="&#x150;" horiz-adv-x="802" 
d="M60 366q0 98 39 181.5t118 136.5t183 53q157 0 249.5 -108t92.5 -267q0 -174 -96.5 -275.5t-246.5 -101.5q-145 0 -242 105t-97 276zM130 364q0 -138 74.5 -228.5t194.5 -90.5q130 0 201.5 90.5t71.5 227.5q0 138 -73.5 226t-199.5 88q-124 0 -196.5 -90.5t-72.5 -222.5z
M424 937l41 -49l-157 -116l-28 34zM596 937l41 -49l-157 -116l-28 34z" />
    <glyph glyph-name="ohungarumlaut" unicode="&#x151;" horiz-adv-x="558" 
d="M45 251q0 46 14 90.5t41 84.5t74.5 64.5t107.5 24.5q59 0 105.5 -25t72.5 -65.5t39.5 -85t13.5 -89.5q0 -108 -61 -187.5t-171 -79.5q-112 0 -174 78.5t-62 189.5zM110 251q0 -86 43.5 -149.5t126.5 -63.5q75 0 121.5 57t46.5 157q0 95 -46 151.5t-121 56.5
q-71 0 -121 -52.5t-50 -156.5zM301 735l41 -49l-157 -116l-28 34zM466 735l41 -49l-157 -116l-28 34z" />
    <glyph glyph-name="OE" unicode="&#x152;" horiz-adv-x="968" 
d="M908 0h-396q-54 -16 -113 -16q-146 0 -242.5 105.5t-96.5 276.5q0 73 23.5 139.5t65.5 118.5t107.5 83t143.5 31q59 0 112 -16h385v-60h-325v-264h311v-60h-311v-278h336v-60zM399 43q59 0 108 20v596q-49 20 -108 20q-124 0 -196.5 -90.5t-72.5 -224.5
q0 -140 74.5 -230.5t194.5 -90.5z" />
    <glyph glyph-name="oe" unicode="&#x153;" horiz-adv-x="903" 
d="M860 245h-355q1 -87 42.5 -146t114.5 -59q58 0 91.5 31.5t41.5 83.5h63q-9 -71 -59 -120.5t-141 -49.5q-124 0 -183 124h-4q-28 -57 -77.5 -91.5t-115.5 -34.5q-75 0 -129 39.5t-79 99t-25 129.5q0 62 23 120t78.5 101t133.5 43q66 0 114.5 -33.5t74.5 -88.5h4
q57 123 185 123q57 0 100 -24.5t65.5 -65t31.5 -86.5t5 -95zM110 251q0 -86 42.5 -149.5t124.5 -63.5q73 0 119 57t46 157q0 94 -45.5 151t-118.5 57q-71 0 -119.5 -52.5t-48.5 -156.5zM507 298l290 2q0 24 -5.5 49t-19 52.5t-43 44.5t-70.5 17q-132 0 -152 -165z" />
    <glyph glyph-name="Racute" unicode="&#x154;" horiz-adv-x="589" 
d="M90 0v722h172q105 0 175 -51t70 -141q0 -78 -57.5 -130.5t-159.5 -63.5l289 -336h-84l-279 329h-61v-329h-65zM155 663v-274l104 2q80 1 129 36t49 100t-48 99.5t-124 35.5zM383 919l33 -57l-189 -97l-24 42z" />
    <glyph glyph-name="racute" unicode="&#x155;" horiz-adv-x="348" 
d="M80 0v355q0 84 -4 147h56l4 -105h4q14 53 49.5 86.5t90.5 33.5q27 0 53 -15v-58q-25 16 -55 16q-64 0 -96.5 -58t-41.5 -148v-254h-60zM314 734l37 -53l-180 -111l-25 37z" />
    <glyph glyph-name="Rcommaaccent" unicode="&#x156;" horiz-adv-x="589" 
d="M90 0v722h172q105 0 175 -51t70 -141q0 -78 -57.5 -130.5t-159.5 -63.5l289 -336h-84l-279 329h-61v-329h-65zM155 663v-274l104 2q80 1 129 36t49 100t-48 99.5t-124 35.5zM308 -229h-47q39 30 55 60q6 10 -6 12q-19 3 -32 16t-13 32q0 22 13 35t33 13t34.5 -13
t14.5 -35q0 -17 -4 -33q-11 -45 -48 -87z" />
    <glyph glyph-name="rcommaaccent" unicode="&#x157;" horiz-adv-x="348" 
d="M80 0v355q0 84 -4 147h56l4 -105h4q14 53 49.5 86.5t90.5 33.5q27 0 53 -15v-58q-25 16 -55 16q-64 0 -96.5 -58t-41.5 -148v-254h-60zM110 -229h-47q39 30 55 60q6 10 -6 12q-19 3 -32 16t-13 32q0 22 13 35t33 13t34.5 -13t14.5 -35q0 -17 -4 -33q-11 -45 -48 -87z" />
    <glyph glyph-name="Rcaron" unicode="&#x158;" horiz-adv-x="589" 
d="M90 0v722h172q105 0 175 -51t70 -141q0 -78 -57.5 -130.5t-159.5 -63.5l289 -336h-84l-279 329h-61v-329h-65zM155 663v-274l104 2q80 1 129 36t49 100t-48 99.5t-124 35.5zM412 919l-142 -152l-144 152h67l74 -68h6l72 68h67z" />
    <glyph glyph-name="rcaron" unicode="&#x159;" horiz-adv-x="348" 
d="M80 0v355q0 84 -4 147h56l4 -105h4q14 53 49.5 86.5t90.5 33.5q27 0 53 -15v-58q-25 16 -55 16q-64 0 -96.5 -58t-41.5 -148v-254h-60zM338 722l-134 -167l-136 167h62l71 -80h6l69 80h62z" />
    <glyph glyph-name="Sacute" unicode="&#x15a;" horiz-adv-x="608" 
d="M60 192h70q0 -23 10 -47t29.5 -47.5t56 -38t83.5 -14.5q84 0 126.5 36.5t42.5 94.5q0 60 -43.5 95.5t-136.5 60.5q-104 28 -166.5 80t-62.5 129q0 90 65 143t163 53q100 0 162 -47t70 -133h-71q-15 120 -163 120q-75 0 -116 -36t-41 -98q0 -57 48.5 -92.5t131.5 -58.5
q49 -14 84.5 -29t71.5 -39t55 -59.5t19 -80.5q0 -92 -65.5 -145.5t-179.5 -53.5q-94 0 -167 55t-76 152zM407 919l33 -57l-189 -97l-24 42z" />
    <glyph glyph-name="sacute" unicode="&#x15b;" horiz-adv-x="450" 
d="M45 139h65q-2 -36 28 -67.5t87 -31.5q50 0 80.5 23t30.5 62q0 41 -27 62.5t-95 44.5q-31 10 -54 20.5t-50 27.5t-41.5 42t-14.5 56q0 62 45.5 100.5t119.5 38.5q67 0 113 -38.5t53 -105.5h-64q-1 39 -30 64.5t-74 25.5q-43 0 -71.5 -21t-28.5 -58q0 -36 28.5 -57
t88.5 -40q27 -8 46 -15.5t43.5 -20.5t39.5 -28t25.5 -38t10.5 -51q0 -65 -48 -107t-128 -42q-73 0 -122.5 39.5t-55.5 114.5zM319 734l37 -53l-180 -111l-25 37z" />
    <glyph glyph-name="Scircumflex" unicode="&#x15c;" horiz-adv-x="608" 
d="M60 192h70q0 -23 10 -47t29.5 -47.5t56 -38t83.5 -14.5q84 0 126.5 36.5t42.5 94.5q0 60 -43.5 95.5t-136.5 60.5q-104 28 -166.5 80t-62.5 129q0 90 65 143t163 53q100 0 162 -47t70 -133h-71q-15 120 -163 120q-75 0 -116 -36t-41 -98q0 -57 48.5 -92.5t131.5 -58.5
q49 -14 84.5 -29t71.5 -39t55 -59.5t19 -80.5q0 -92 -65.5 -145.5t-179.5 -53.5q-94 0 -167 55t-76 152zM305 924l142 -152h-67l-72 69h-6l-74 -69h-67z" />
    <glyph glyph-name="scircumflex" unicode="&#x15d;" horiz-adv-x="450" 
d="M45 139h65q-2 -36 28 -67.5t87 -31.5q50 0 80.5 23t30.5 62q0 41 -27 62.5t-95 44.5q-31 10 -54 20.5t-50 27.5t-41.5 42t-14.5 56q0 62 45.5 100.5t119.5 38.5q67 0 113 -38.5t53 -105.5h-64q-1 39 -30 64.5t-74 25.5q-43 0 -71.5 -21t-28.5 -58q0 -36 28.5 -57
t88.5 -40q27 -8 46 -15.5t43.5 -20.5t39.5 -28t25.5 -38t10.5 -51q0 -65 -48 -107t-128 -42q-73 0 -122.5 39.5t-55.5 114.5zM223 731l134 -167h-62l-69 80h-6l-71 -80h-62z" />
    <glyph glyph-name="Scedilla" unicode="&#x15e;" horiz-adv-x="608" 
d="M205 -187l20 37q31 -23 68 -23q27 0 44 12t17 31q0 39 -49 39q-26 0 -48 -9l-25 22l46 64q-88 7 -152 61.5t-66 144.5h70q0 -23 10 -47t29.5 -47.5t56 -38t83.5 -14.5q84 0 126.5 36.5t42.5 94.5q0 60 -43.5 95.5t-136.5 60.5q-104 28 -166.5 80t-62.5 129q0 90 65 143
t163 53q100 0 162 -47t70 -133h-71q-15 120 -163 120q-75 0 -116 -36t-41 -98q0 -57 48.5 -92.5t131.5 -58.5q49 -14 84.5 -29t71.5 -39t55 -59.5t19 -80.5q0 -87 -59 -140t-162 -58l-45 -50l2 -3q22 10 50 10t48.5 -18.5t20.5 -48.5q0 -35 -30 -60.5t-81 -25.5
q-43 0 -87 23z" />
    <glyph glyph-name="scedilla" unicode="&#x15f;" horiz-adv-x="450" 
d="M123 -187l20 37q31 -23 68 -23q27 0 44 12t17 31q0 39 -49 39q-26 0 -48 -9l-25 22l46 65q-64 6 -105 45t-46 107h65q-2 -36 28 -67.5t87 -31.5q50 0 80.5 23t30.5 62q0 41 -27 62.5t-95 44.5q-31 10 -54 20.5t-50 27.5t-41.5 42t-14.5 56q0 62 45.5 100.5t119.5 38.5
q67 0 113 -38.5t53 -105.5h-64q-1 39 -30 64.5t-74 25.5q-43 0 -71.5 -21t-28.5 -58q0 -36 28.5 -57t88.5 -40q27 -8 46 -15.5t43.5 -20.5t39.5 -28t25.5 -38t10.5 -51q0 -61 -41.5 -101.5t-112.5 -46.5l-45 -50l2 -3q22 10 50 10t48.5 -18.5t20.5 -48.5q0 -35 -30 -60.5
t-81 -25.5q-43 0 -87 23z" />
    <glyph glyph-name="Scaron" unicode="&#x160;" horiz-adv-x="608" 
d="M60 192h70q0 -23 10 -47t29.5 -47.5t56 -38t83.5 -14.5q84 0 126.5 36.5t42.5 94.5q0 60 -43.5 95.5t-136.5 60.5q-104 28 -166.5 80t-62.5 129q0 90 65 143t163 53q100 0 162 -47t70 -133h-71q-15 120 -163 120q-75 0 -116 -36t-41 -98q0 -57 48.5 -92.5t131.5 -58.5
q49 -14 84.5 -29t71.5 -39t55 -59.5t19 -80.5q0 -92 -65.5 -145.5t-179.5 -53.5q-94 0 -167 55t-76 152zM447 919l-142 -152l-144 152h67l74 -68h6l72 68h67z" />
    <glyph glyph-name="scaron" unicode="&#x161;" horiz-adv-x="450" 
d="M45 139h65q-2 -36 28 -67.5t87 -31.5q50 0 80.5 23t30.5 62q0 41 -27 62.5t-95 44.5q-31 10 -54 20.5t-50 27.5t-41.5 42t-14.5 56q0 62 45.5 100.5t119.5 38.5q67 0 113 -38.5t53 -105.5h-64q-1 39 -30 64.5t-74 25.5q-43 0 -71.5 -21t-28.5 -58q0 -36 28.5 -57
t88.5 -40q27 -8 46 -15.5t43.5 -20.5t39.5 -28t25.5 -38t10.5 -51q0 -65 -48 -107t-128 -42q-73 0 -122.5 39.5t-55.5 114.5zM353 722l-134 -167l-136 167h62l71 -80h6l69 80h62z" />
    <glyph glyph-name="uni0162" unicode="&#x162;" horiz-adv-x="535" 
d="M158 -187l20 37q31 -23 68 -23q27 0 44 12t17 31q0 39 -49 39q-26 0 -48 -9l-25 22l56 78h-5v662h-216v60h495v-60h-215v-653h1l-1 -1v-8h-7l-58 -64l2 -3q22 10 50 10t48.5 -18.5t20.5 -48.5q0 -35 -30 -60.5t-81 -25.5q-43 0 -87 23z" />
    <glyph glyph-name="uni0163" unicode="&#x163;" horiz-adv-x="330" 
d="M88 -187l20 37q31 -23 68 -23q27 0 44 12t17 31q0 39 -49 39q-26 0 -48 -9l-25 22l56 78q-65 26 -65 124v323h-91v55h89l16 144h47v-144h133v-55h-134v-324q0 -77 70 -77q27 0 64 21v-54q-33 -23 -77 -23q-1 0 -4 0.5t-5 0.5l-49 -55l2 -3q22 10 50 10t48.5 -18.5
t20.5 -48.5q0 -35 -30 -60.5t-81 -25.5q-43 0 -87 23z" />
    <glyph glyph-name="Tcaron" unicode="&#x164;" horiz-adv-x="535" 
d="M300 0h-64v662h-216v60h495v-60h-215v-662zM410 919l-142 -152l-144 152h67l74 -68h6l72 68h67z" />
    <glyph glyph-name="tcaron" unicode="&#x165;" horiz-adv-x="340" 
d="M25 447v55h89l16 144h47v-144h133v-55h-134v-324q0 -77 70 -77q27 0 64 21v-54q-33 -23 -77 -23q-57 0 -87 34.5t-30 99.5v323h-91zM267 569h-49q43 36 54 63q4 11 -9 13q-19 2 -32.5 16t-13.5 34q0 22 13 36t35 14t37 -13.5t15 -36.5q0 -17 -4 -33q-13 -49 -46 -93z" />
    <glyph glyph-name="Tbar" unicode="&#x166;" horiz-adv-x="535" 
d="M127 333v55h109v274h-216v60h495v-60h-215v-274h107v-55h-107v-333h-64v333h-109z" />
    <glyph glyph-name="tbar" unicode="&#x167;" horiz-adv-x="340" 
d="M25 247v55h91v145h-91v55h89l16 144h47v-144h133v-55h-134v-145h129v-55h-129v-124q0 -77 70 -77q27 0 64 21v-54q-33 -23 -77 -23q-57 0 -87 34.5t-30 99.5v123h-91z" />
    <glyph glyph-name="Utilde" unicode="&#x168;" horiz-adv-x="693" 
d="M347 -15q-119 0 -188 72.5t-69 198.5v466h68v-467q0 -102 50 -156t139 -54q58 0 98 20t59 54.5t26.5 67t7.5 69.5v466h65v-464q0 -133 -70.5 -203t-185.5 -70zM419 777q-34 0 -81 27q-44 25 -63 25q-21 0 -28.5 -13t-9.5 -37h-41q5 111 79 111q32 0 83 -30q37 -22 61 -22
q21 0 28.5 13t9.5 37h40q-5 -111 -78 -111z" />
    <glyph glyph-name="utilde" unicode="&#x169;" horiz-adv-x="557" 
d="M477 502v-355l4 -147h-56l-4 89h-4q-25 -42 -70.5 -73t-104.5 -31q-76 0 -119 45t-43 129v343h60v-344q0 -119 108 -119q58 0 105.5 43.5t63.5 107.5v312h60zM348 587q-26 0 -78 32q-48 30 -62 30q-34 0 -38 -58h-42q3 61 25 90t56 29q28 0 81 -35q42 -27 59 -27
q34 0 38 58h41q-3 -61 -24.5 -90t-55.5 -29z" />
    <glyph glyph-name="Umacron" unicode="&#x16a;" horiz-adv-x="693" 
d="M347 -15q-119 0 -188 72.5t-69 198.5v466h68v-467q0 -102 50 -156t139 -54q58 0 98 20t59 54.5t26.5 67t7.5 69.5v466h65v-464q0 -133 -70.5 -203t-185.5 -70zM201 787v56h290v-56h-290z" />
    <glyph glyph-name="umacron" unicode="&#x16b;" horiz-adv-x="557" 
d="M477 502v-355l4 -147h-56l-4 89h-4q-25 -42 -70.5 -73t-104.5 -31q-76 0 -119 45t-43 129v343h60v-344q0 -119 108 -119q58 0 105.5 43.5t63.5 107.5v312h60zM138 604v55h280v-55h-280z" />
    <glyph glyph-name="Ubreve" unicode="&#x16c;" horiz-adv-x="693" 
d="M347 -15q-119 0 -188 72.5t-69 198.5v466h68v-467q0 -102 50 -156t139 -54q58 0 98 20t59 54.5t26.5 67t7.5 69.5v466h65v-464q0 -133 -70.5 -203t-185.5 -70zM347 826q36 0 58 18t27 34t6 31h45q2 -64 -35 -102.5t-101 -38.5q-65 0 -101 38.5t-34 102.5h45q0 -8 1.5 -16
t7.5 -21t15 -22.5t26 -16.5t40 -7z" />
    <glyph glyph-name="ubreve" unicode="&#x16d;" horiz-adv-x="557" 
d="M477 502v-355l4 -147h-56l-4 89h-4q-25 -42 -70.5 -73t-104.5 -31q-76 0 -119 45t-43 129v343h60v-344q0 -119 108 -119q58 0 105.5 43.5t63.5 107.5v312h60zM278 629q23 0 40.5 8t26.5 19t14.5 25.5t7 23t1.5 17.5h45q2 -70 -33.5 -110.5t-101.5 -40.5q-65 0 -100.5 40
t-33.5 111h45q5 -93 89 -93z" />
    <glyph glyph-name="Uring" unicode="&#x16e;" horiz-adv-x="693" 
d="M347 -15q-119 0 -188 72.5t-69 198.5v466h68v-467q0 -102 50 -156t139 -54q58 0 98 20t59 54.5t26.5 67t7.5 69.5v466h65v-464q0 -133 -70.5 -203t-185.5 -70zM262 850q0 36 25 59.5t62 23.5t62 -23.5t25 -59.5t-25 -60t-62 -24t-62 24t-25 60zM301 850q0 -21 13.5 -34
t34.5 -13q20 0 33.5 13t13.5 34t-13.5 34t-33.5 13q-21 0 -34.5 -13t-13.5 -34z" />
    <glyph glyph-name="uring" unicode="&#x16f;" horiz-adv-x="557" 
d="M477 502v-355l4 -147h-56l-4 89h-4q-25 -42 -70.5 -73t-104.5 -31q-76 0 -119 45t-43 129v343h60v-344q0 -119 108 -119q58 0 105.5 43.5t63.5 107.5v312h60zM193 652q0 36 25.5 60t62.5 24t62.5 -24t25.5 -60t-25.5 -60.5t-62.5 -24.5t-62.5 24.5t-25.5 60.5zM233 652
q0 -20 14.5 -33.5t33.5 -13.5t33 13.5t14 33.5t-14 33.5t-33 13.5t-33.5 -13.5t-14.5 -33.5z" />
    <glyph glyph-name="Uhungarumlaut" unicode="&#x170;" horiz-adv-x="693" 
d="M347 -15q-119 0 -188 72.5t-69 198.5v466h68v-467q0 -102 50 -156t139 -54q58 0 98 20t59 54.5t26.5 67t7.5 69.5v466h65v-464q0 -133 -70.5 -203t-185.5 -70zM364 937l41 -49l-157 -116l-28 34zM536 937l41 -49l-157 -116l-28 34z" />
    <glyph glyph-name="uhungarumlaut" unicode="&#x171;" horiz-adv-x="557" 
d="M477 502v-355l4 -147h-56l-4 89h-4q-25 -42 -70.5 -73t-104.5 -31q-76 0 -119 45t-43 129v343h60v-344q0 -119 108 -119q58 0 105.5 43.5t63.5 107.5v312h60zM292 735l41 -49l-157 -116l-28 34zM457 735l41 -49l-157 -116l-28 34z" />
    <glyph glyph-name="Uogonek" unicode="&#x172;" horiz-adv-x="693" 
d="M443 -128v-35q-46 -30 -87 -30q-37 0 -59 19t-22 52q0 56 85 107h-13q-119 0 -188 72.5t-69 198.5v466h68v-467q0 -102 50 -156t139 -54q58 0 98 20t59 54.5t26.5 67t7.5 69.5v466h65v-464q0 -103 -43.5 -168.5t-118.5 -90.5q-112 -57 -112 -111q0 -38 45 -38q28 0 69 22
z" />
    <glyph glyph-name="uogonek" unicode="&#x173;" horiz-adv-x="557" 
d="M481 -128v-35q-46 -30 -87 -30q-37 0 -59 19t-22 52q0 65 112 122l-4 89h-4q-25 -42 -70.5 -73t-104.5 -31q-76 0 -119 45t-43 129v343h60v-344q0 -119 108 -119q58 0 105.5 43.5t63.5 107.5v312h60v-355l4 -147q-114 -57 -114 -112q0 -38 45 -38q28 0 69 22z" />
    <glyph glyph-name="Wcircumflex" unicode="&#x174;" horiz-adv-x="951" 
d="M45 722h69l142 -641h4l177 643h79l179 -642h4l144 640h63l-166 -722h-88l-175 636h-4l-174 -636h-89zM477 924l142 -152h-67l-72 69h-6l-74 -69h-67z" />
    <glyph glyph-name="wcircumflex" unicode="&#x175;" horiz-adv-x="795" 
d="M775 502h-65l-134 -417h-4l-139 417h-71l-145 -417h-4l-128 417h-65l161 -502h61l150 433h4l147 -433h57zM395 731l134 -167h-62l-69 80h-6l-71 -80h-62z" />
    <glyph glyph-name="Ycircumflex" unicode="&#x176;" horiz-adv-x="581" 
d="M551 722l-213 -439q-12 -5 -12 -17v-266h-65v266q0 14 -13 17l-218 439h77l185 -387h4l184 387h71zM295 924l142 -152h-67l-72 69h-6l-74 -69h-67z" />
    <glyph glyph-name="ycircumflex" unicode="&#x177;" horiz-adv-x="473" 
d="M88 502l157 -435h4l138 435h66q-56 -168 -98 -295.5t-58 -177.5t-27.5 -84.5l-18.5 -55.5q-27 -80 -117 -80q-32 0 -61 12l5 54q27 -11 56 -11q46 0 63 43q20 52 30 93q4 17 -5.5 28.5t-28.5 8.5l-173 465h68zM246 731l134 -167h-62l-69 80h-6l-71 -80h-62z" />
    <glyph glyph-name="Ydieresis" unicode="&#x178;" horiz-adv-x="581" 
d="M551 722l-213 -439q-12 -5 -12 -17v-266h-65v266q0 14 -13 17l-218 439h77l185 -387h4l184 387h71zM205 782q-21 0 -34 13.5t-13 32.5q0 20 13 33.5t34 13.5t34 -13.5t13 -33.5q0 -19 -13 -32.5t-34 -13.5zM383 782q-21 0 -34 13.5t-13 32.5q0 20 13 33.5t34 13.5
t34 -13.5t13 -33.5q0 -19 -13 -32.5t-34 -13.5z" />
    <glyph glyph-name="Zacute" unicode="&#x179;" horiz-adv-x="562" 
d="M50 0v60l392 598v4h-377v60h457v-61l-395 -597v-4h389v-60h-466zM384 919l33 -57l-189 -97l-24 42z" />
    <glyph glyph-name="zacute" unicode="&#x17a;" horiz-adv-x="435" 
d="M30 0v59l296 384v4h-288v55h357v-59l-296 -384v-4h296v-55h-365zM298 734l37 -53l-180 -111l-25 37z" />
    <glyph glyph-name="Zdotaccent" unicode="&#x17b;" horiz-adv-x="562" 
d="M50 0v60l392 598v4h-377v60h457v-61l-395 -597v-4h389v-60h-466zM294 781q-21 0 -34.5 13.5t-13.5 33.5q0 21 13.5 34.5t34.5 13.5t34.5 -13.5t13.5 -34.5q0 -20 -13.5 -33.5t-34.5 -13.5z" />
    <glyph glyph-name="zdotaccent" unicode="&#x17c;" horiz-adv-x="435" 
d="M30 0v59l296 384v4h-288v55h357v-59l-296 -384v-4h296v-55h-365zM216 603q-20 0 -32.5 13t-12.5 31q0 19 12.5 32t32.5 13t32.5 -13t12.5 -32q0 -18 -12.5 -31t-32.5 -13z" />
    <glyph glyph-name="Zcaron" unicode="&#x17d;" horiz-adv-x="562" 
d="M50 0v60l392 598v4h-377v60h457v-61l-395 -597v-4h389v-60h-466zM436 919l-142 -152l-144 152h67l74 -68h6l72 68h67z" />
    <glyph glyph-name="zcaron" unicode="&#x17e;" horiz-adv-x="435" 
d="M30 0v59l296 384v4h-288v55h357v-59l-296 -384v-4h296v-55h-365zM353 722l-134 -167l-136 167h62l71 -80h6l69 80h62z" />
    <glyph glyph-name="florin" unicode="&#x192;" horiz-adv-x="545" 
d="M192 -37l68 408h-83v53h93l20 127q11 73 53 114t104 41q25 0 48 -4v-54q-22 2 -37 2q-89 0 -104 -99l-19 -127h86v-53h-97l-65 -411q-11 -72 -54 -111.5t-107 -39.5q-26 0 -46 5v54q22 -2 37 -2q87 0 103 97z" />
    <glyph glyph-name="Aringacute" unicode="&#x1fa;" horiz-adv-x="605" 
d="M524 0l-66 195h-316l-64 -195h-68l244 722h88l253 -722h-71zM297 659l-135 -404h275l-136 404h-4zM212 850q0 36 25 59.5t62 23.5t62 -23.5t25 -59.5t-25 -60t-62 -24t-62 24t-25 60zM251 850q0 -21 13.5 -34t34.5 -13q20 0 33.5 13t13.5 34t-13.5 34t-33.5 13
q-21 0 -34.5 -13t-13.5 -34zM396 1119l33 -57l-189 -97l-24 42z" />
    <glyph glyph-name="aringacute" unicode="&#x1fb;" horiz-adv-x="504" 
d="M435 0h-63l4 74h-4q-79 -88 -182 -88q-69 0 -110 41.5t-41 110.5q0 71 50 115.5t127 44.5q72 0 156 -20v66q-1 119 -126 119q-56 0 -88 -29t-37 -70h-70q13 67 66 108.5t130 41.5q85 0 134.5 -42.5t49.5 -125.5v-272q0 -54 4 -74zM372 139v93q-74 16 -138 16
q-63 0 -98 -29t-35 -80q0 -47 29 -73.5t79 -26.5q51 0 96 32.5t67 67.5zM163 643q0 36 25.5 60t62.5 24t62.5 -24t25.5 -60t-25.5 -60.5t-62.5 -24.5t-62.5 24.5t-25.5 60.5zM203 643q0 -20 14.5 -33.5t33.5 -13.5t33 13.5t14 33.5t-14 33.5t-33 13.5t-33.5 -13.5
t-14.5 -33.5zM334 914l37 -53l-180 -111l-25 37z" />
    <glyph glyph-name="AEacute" unicode="&#x1fc;" horiz-adv-x="935" 
d="M507 403h342v-60h-332l54 -283h304v-60h-360l-34 188h-306l-94 -188h-73l372 722h487v-60h-408zM397 631l-192 -383h265l-69 383h-4zM711 919l33 -57l-189 -97l-24 42z" />
    <glyph glyph-name="aeacute" unicode="&#x1fd;" horiz-adv-x="829" 
d="M786 245h-357q-1 -84 42.5 -144.5t116.5 -60.5q58 0 91.5 31.5t41.5 83.5h63q-9 -71 -59 -120.5t-141 -49.5q-59 0 -105.5 31t-73.5 84h-4q-39 -52 -86.5 -83t-121.5 -31q-69 0 -112 42t-43 111t48.5 114.5t121.5 45.5q72 0 164 -22v62q-1 60 -34.5 92.5t-92.5 32.5
q-56 0 -87.5 -29t-36.5 -70h-70q15 67 67 108t126 41q127 0 167 -94h4q60 96 169 96q102 0 153 -71t51 -169q0 -11 -2 -31zM372 147v85q-78 16 -146 16q-59 0 -92 -28.5t-33 -79.5q0 -47 28.5 -73.5t78.5 -26.5q53 0 99.5 34t64.5 73zM428 297l296 2q0 24 -5.5 49.5
t-19.5 52.5t-44 44.5t-71 17.5q-69 0 -108.5 -47t-47.5 -119zM570 734l37 -53l-180 -111l-25 37z" />
    <glyph glyph-name="Oslashacute" unicode="&#x1fe;" horiz-adv-x="802" 
d="M742 362q0 -174 -96.5 -275.5t-246.5 -101.5q-133 0 -226 88l-83 -94l-36 33l86 97q-80 104 -80 257q0 98 39 181.5t118 136.5t183 53q132 0 225 -83l74 83l35 -32l-77 -86q85 -105 85 -257zM672 363q0 122 -59 206l-396 -447q74 -77 182 -77q130 0 201.5 90.5
t71.5 227.5zM130 364q0 -118 56 -204l396 446q-73 71 -183 71q-124 0 -196.5 -90.5t-72.5 -222.5zM504 919l33 -57l-189 -97l-24 42z" />
    <glyph glyph-name="oslashacute" unicode="&#x1ff;" horiz-adv-x="558" 
d="M374 734l37 -53l-180 -111l-25 37zM45 251q0 46 14 90.5t41 84.5t74.5 64.5t107.5 24.5q77 0 134 -44l61 82l35 -27l-64 -86q65 -78 65 -190q0 -108 -61 -187.5t-171 -79.5q-80 0 -139 44l-62 -83l-35 27l65 87q-65 77 -65 193zM448 252q0 84 -37 138l-234 -315
q42 -37 103 -37q75 0 121.5 57t46.5 157zM110 251q0 -84 38 -142l233 315q-42 36 -100 36q-71 0 -121 -52.5t-50 -156.5z" />
    <glyph glyph-name="uni0218" unicode="&#x218;" horiz-adv-x="608" 
d="M60 192h70q0 -23 10 -47t29.5 -47.5t56 -38t83.5 -14.5q84 0 126.5 36.5t42.5 94.5q0 60 -43.5 95.5t-136.5 60.5q-104 28 -166.5 80t-62.5 129q0 90 65 143t163 53q100 0 162 -47t70 -133h-71q-15 120 -163 120q-75 0 -116 -36t-41 -98q0 -57 48.5 -92.5t131.5 -58.5
q49 -14 84.5 -29t71.5 -39t55 -59.5t19 -80.5q0 -92 -65.5 -145.5t-179.5 -53.5q-94 0 -167 55t-76 152zM303 -229h-47q39 30 55 60q6 10 -6 12q-19 3 -32 16t-13 32q0 22 13 35t33 13t34.5 -13t14.5 -35q0 -17 -4 -33q-11 -45 -48 -87z" />
    <glyph glyph-name="uni0219" unicode="&#x219;" horiz-adv-x="450" 
d="M45 139h65q-2 -36 28 -67.5t87 -31.5q50 0 80.5 23t30.5 62q0 41 -27 62.5t-95 44.5q-31 10 -54 20.5t-50 27.5t-41.5 42t-14.5 56q0 62 45.5 100.5t119.5 38.5q67 0 113 -38.5t53 -105.5h-64q-1 39 -30 64.5t-74 25.5q-43 0 -71.5 -21t-28.5 -58q0 -36 28.5 -57
t88.5 -40q27 -8 46 -15.5t43.5 -20.5t39.5 -28t25.5 -38t10.5 -51q0 -65 -48 -107t-128 -42q-73 0 -122.5 39.5t-55.5 114.5zM218 -229h-47q39 30 55 60q6 10 -6 12q-19 3 -32 16t-13 32q0 22 13 35t33 13t34.5 -13t14.5 -35q0 -17 -4 -33q-11 -45 -48 -87z" />
    <glyph glyph-name="uni021A" unicode="&#x21a;" horiz-adv-x="535" 
d="M300 0h-64v662h-216v60h495v-60h-215v-662zM267 -229h-47q39 30 55 60q6 10 -6 12q-19 3 -32 16t-13 32q0 22 13 35t33 13t34.5 -13t14.5 -35q0 -17 -4 -33q-11 -45 -48 -87z" />
    <glyph glyph-name="uni021B" unicode="&#x21b;" horiz-adv-x="340" 
d="M25 447v55h89l16 144h47v-144h133v-55h-134v-324q0 -77 70 -77q27 0 64 21v-54q-33 -23 -77 -23q-57 0 -87 34.5t-30 99.5v323h-91zM199 -229h-47q39 30 55 60q6 10 -6 12q-19 3 -32 16t-13 32q0 22 13 35t33 13t34.5 -13t14.5 -35q0 -17 -4 -33q-11 -45 -48 -87z" />
    <glyph glyph-name="circumflex" unicode="&#x2c6;" horiz-adv-x="372" 
d="M187 731l134 -167h-62l-69 80h-6l-71 -80h-62z" />
    <glyph glyph-name="caron" unicode="&#x2c7;" horiz-adv-x="372" 
d="M321 722l-134 -167l-136 167h62l71 -80h6l69 80h62z" />
    <glyph glyph-name="breve" unicode="&#x2d8;" horiz-adv-x="371" 
d="M185 629q23 0 40.5 8t26.5 19t14.5 25.5t7 23t1.5 17.5h45q2 -70 -33.5 -110.5t-101.5 -40.5q-65 0 -100.5 40t-33.5 111h45q5 -93 89 -93z" />
    <glyph glyph-name="dotaccent" unicode="&#x2d9;" horiz-adv-x="190" 
d="M95 603q-20 0 -32.5 13t-12.5 31q0 19 12.5 32t32.5 13t32.5 -13t12.5 -32q0 -18 -12.5 -31t-32.5 -13z" />
    <glyph glyph-name="ring" unicode="&#x2da;" horiz-adv-x="276" 
d="M50 652q0 36 25.5 60t62.5 24t62.5 -24t25.5 -60t-25.5 -60.5t-62.5 -24.5t-62.5 24.5t-25.5 60.5zM90 652q0 -20 14.5 -33.5t33.5 -13.5t33 13.5t14 33.5t-14 33.5t-33 13.5t-33.5 -13.5t-14.5 -33.5z" />
    <glyph glyph-name="ogonek" unicode="&#x2db;" horiz-adv-x="272" 
d="M211 -128v-35q-46 -30 -87 -30q-37 0 -59 19t-22 52q0 65 112 122h56q-114 -57 -114 -112q0 -38 45 -38q28 0 69 22z" />
    <glyph glyph-name="tilde" unicode="&#x2dc;" horiz-adv-x="400" 
d="M270 587q-26 0 -78 32q-48 30 -62 30q-34 0 -38 -58h-42q3 61 25 90t56 29q28 0 81 -35q42 -27 59 -27q34 0 38 58h41q-3 -61 -24.5 -90t-55.5 -29z" />
    <glyph glyph-name="hungarumlaut" unicode="&#x2dd;" horiz-adv-x="450" 
d="M194 735l41 -49l-157 -116l-28 34zM359 735l41 -49l-157 -116l-28 34z" />
    <glyph glyph-name="pi" unicode="&#x3c0;" horiz-adv-x="575" 
d="M554 57v-51q-37 -15 -70 -15q-40 0 -63.5 28t-23.5 76v348h-218v-443h-65v443h-80l5 59h514v-59h-92v-341q0 -53 54 -53q17 0 39 8z" />
    <glyph glyph-name="afii10023" unicode="&#x401;" horiz-adv-x="571" 
d="M100 0v722h400v-60h-335v-264h321v-60h-321v-278h346v-60h-411zM210 782q-21 0 -34 13.5t-13 32.5q0 20 13 33.5t34 13.5t34 -13.5t13 -33.5q0 -19 -13 -32.5t-34 -13.5zM388 782q-21 0 -34 13.5t-13 32.5q0 20 13 33.5t34 13.5t34 -13.5t13 -33.5q0 -19 -13 -32.5
t-34 -13.5z" />
    <glyph glyph-name="afii10051" unicode="&#x402;" horiz-adv-x="719" 
d="M575 327q0 119 -107 119q-58 0 -105 -43.5t-63 -107.5v-295h-64v662h-216v60h500v-60h-220v-201l-2 -63h4q26 42 69.5 73t102.5 31q76 0 120.5 -44t44.5 -128v-193q0 -61 -27.5 -100.5t-87.5 -39.5q-22 0 -38 4v55q45 -5 67 13.5t22 64.5v193z" />
    <glyph glyph-name="afii10052" unicode="&#x403;" horiz-adv-x="495" 
d="M100 0v722h375v-61l-310 2v-663h-65zM407 919l33 -57l-189 -97l-24 42z" />
    <glyph glyph-name="afii10053" unicode="&#x404;" horiz-adv-x="674" 
d="M633 521h-69q-8 70 -56 113t-133 43q-109 0 -174 -77t-73 -202l296 1v-61l-297 1q6 -122 71 -207t178 -85q87 0 137.5 45t56.5 115h69q-13 -103 -84 -162t-181 -59q-82 0 -145 35.5t-98.5 92.5t-53 120t-17.5 127q0 71 19 136t55.5 119t98.5 86.5t141 32.5q107 0 175 -56
t84 -158z" />
    <glyph glyph-name="afii10054" unicode="&#x405;" horiz-adv-x="608" 
d="M60 192h70q0 -23 10 -47t29.5 -47.5t56 -38t83.5 -14.5q84 0 126.5 36.5t42.5 94.5q0 60 -43.5 95.5t-136.5 60.5q-104 28 -166.5 80t-62.5 129q0 90 65 143t163 53q100 0 162 -47t70 -133h-71q-15 120 -163 120q-75 0 -116 -36t-41 -98q0 -57 48.5 -92.5t131.5 -58.5
q49 -14 84.5 -29t71.5 -39t55 -59.5t19 -80.5q0 -92 -65.5 -145.5t-179.5 -53.5q-94 0 -167 55t-76 152z" />
    <glyph glyph-name="afii10055" unicode="&#x406;" horiz-adv-x="265" 
d="M100 0v722h65v-722h-65z" />
    <glyph glyph-name="afii10056" unicode="&#x407;" horiz-adv-x="265" 
d="M100 0v722h65v-722h-65zM43 782q-21 0 -34 13.5t-13 32.5q0 20 13 33.5t34 13.5t34 -13.5t13 -33.5q0 -19 -13 -32.5t-34 -13.5zM221 782q-21 0 -34 13.5t-13 32.5q0 20 13 33.5t34 13.5t34 -13.5t13 -33.5q0 -19 -13 -32.5t-34 -13.5z" />
    <glyph glyph-name="afii10057" unicode="&#x408;" horiz-adv-x="511" 
d="M34 194h70q-1 -65 27.5 -106.5t89.5 -41.5t93 40t32 115v521h65v-521q0 -102 -52.5 -158.5t-139.5 -56.5q-86 0 -135 58t-50 150z" />
    <glyph glyph-name="afii10058" unicode="&#x409;" horiz-adv-x="795" 
d="M30 0v56q64 -6 97 28t38 131l25 507h263v-306h47q106 0 178 -54.5t72 -152.5q0 -101 -75.5 -155t-185.5 -54h-101v665h-136l-22 -467q-10 -204 -154 -204q-22 0 -46 6zM453 357v-297l40 1q84 1 136 37.5t52 109.5q0 72 -51.5 109.5t-124.5 38.5z" />
    <glyph glyph-name="afii10059" unicode="&#x40a;" horiz-adv-x="745" 
d="M100 722h65v-306h173v306h65v-306h47q106 0 178 -54.5t72 -152.5q0 -101 -75.5 -155t-185.5 -54h-101v356h-173v-356h-65v722zM403 357v-297l40 1q84 1 136 37.5t52 109.5q0 72 -51.5 109.5t-124.5 38.5z" />
    <glyph glyph-name="afii10060" unicode="&#x40b;" horiz-adv-x="719" 
d="M300 0h-64v662h-216v60h500v-60h-220v-195h108q108 0 169.5 -51t61.5 -157v-259h-65v260q0 147 -163 147h-111v-407z" />
    <glyph glyph-name="afii10061" unicode="&#x40c;" horiz-adv-x="630" 
d="M100 0v722h64v-347h4l315 347h81l-328 -357l358 -365h-86l-340 348h-4v-348h-64zM448 919l33 -57l-189 -97l-24 42z" />
    <glyph glyph-name="afii10062" unicode="&#x40e;" horiz-adv-x="581" 
d="M480 722h71l-237 -642q-35 -94 -134 -94q-33 0 -79 18l10 63q31 -19 68 -19q48 0 68 49l37 98q6 15 -3.5 25.5t-25.5 8.5l-225 493h78l201 -460h5zM303 826q36 0 58 18t27 34t6 31h45q2 -64 -35 -102.5t-101 -38.5q-65 0 -101 38.5t-34 102.5h45q0 -8 1.5 -16t7.5 -21
t15 -22.5t26 -16.5t40 -7z" />
    <glyph glyph-name="afii10145" unicode="&#x40f;" horiz-adv-x="714" 
d="M324 0h-224v722h65v-664h384v664h65v-722h-224l-2 -133h-62z" />
    <glyph glyph-name="afii10017" unicode="&#x410;" horiz-adv-x="605" 
d="M524 0l-66 195h-316l-64 -195h-68l244 722h88l253 -722h-71zM297 659l-135 -404h275l-136 404h-4z" />
    <glyph glyph-name="afii10018" unicode="&#x411;" horiz-adv-x="560" 
d="M165 663v-241h102q107 0 180 -56t73 -154q0 -102 -76.5 -157t-186.5 -55h-157v722h380v-61zM165 363v-303l96 1q84 1 136.5 38t52.5 112q0 73 -52 111.5t-125 39.5z" />
    <glyph glyph-name="afii10019" unicode="&#x412;" horiz-adv-x="578" 
d="M100 0v722h164q95 0 163.5 -53.5t68.5 -135.5q0 -63 -38.5 -105.5t-79.5 -56.5v-4q43 -8 91.5 -56t48.5 -117q0 -84 -70 -139t-173 -55h-175zM165 335v-276l117 1q74 1 120 37.5t46 98.5q0 63 -51 100t-117 38zM165 663v-269l103 1q63 1 110.5 34t47.5 99
q0 62 -47.5 97.5t-109.5 36.5z" />
    <glyph glyph-name="afii10020" unicode="&#x413;" horiz-adv-x="495" 
d="M100 0v722h375v-61l-310 2v-663h-65z" />
    <glyph glyph-name="afii10021" unicode="&#x414;" horiz-adv-x="740" 
d="M201 233l51 489h353v-660h85v-62l-4 -133h-61v133h-525v-133h-61l-4 133v62h38q109 3 128 171zM188 58h353v607h-230l-46 -436q-14 -124 -77 -171z" />
    <glyph glyph-name="afii10022" unicode="&#x415;" horiz-adv-x="571" 
d="M100 0v722h400v-60h-335v-264h321v-60h-321v-278h346v-60h-411z" />
    <glyph glyph-name="afii10024" unicode="&#x416;" horiz-adv-x="863" 
d="M401 366l-1 356h63l-1 -356h4l265 356h81l-281 -367l307 -355h-86l-286 339h-4l1 -339h-63l1 339h-4l-286 -339h-86l307 355l-281 367h81l265 -356h4z" />
    <glyph glyph-name="afii10025" unicode="&#x417;" horiz-adv-x="570" 
d="M40 182h73q8 -63 52.5 -100t112.5 -37q70 0 115 39.5t45 103.5q0 135 -167 151q-33 3 -69 3v57q30 0 60 3q165 15 165 145q0 63 -42 96.5t-105 33.5q-61 0 -99.5 -30.5t-53.5 -83.5h-72q19 83 80.5 128.5t146.5 45.5q92 0 152.5 -51t60.5 -134q0 -56 -31.5 -103
t-94.5 -75v-4q63 -20 101 -67t38 -117q0 -88 -63.5 -144.5t-168.5 -56.5q-99 0 -161.5 55t-74.5 142z" />
    <glyph glyph-name="afii10026" unicode="&#x418;" horiz-adv-x="776" 
d="M676 722v-722h-65v629h-4l-422 -629h-85v722h65v-640h4l431 640h76z" />
    <glyph glyph-name="afii10027" unicode="&#x419;" horiz-adv-x="776" 
d="M676 722v-722h-65v629h-4l-422 -629h-85v722h65v-640h4l431 640h76zM394 826q36 0 58 18t27 34t6 31h45q2 -64 -35 -102.5t-101 -38.5q-65 0 -101 38.5t-34 102.5h45q0 -8 1.5 -16t7.5 -21t15 -22.5t26 -16.5t40 -7z" />
    <glyph glyph-name="afii10028" unicode="&#x41a;" horiz-adv-x="630" 
d="M100 0v722h64v-347h4l315 347h81l-328 -357l358 -365h-86l-340 348h-4v-348h-64z" />
    <glyph glyph-name="afii10029" unicode="&#x41b;" horiz-adv-x="710" 
d="M165 215l25 507h420v-722h-65v664h-293l-22 -466q-10 -204 -154 -204q-22 0 -46 6v56q64 -6 97 28t38 131z" />
    <glyph glyph-name="afii10030" unicode="&#x41c;" horiz-adv-x="942" 
d="M75 0l111 722h101l187 -627h4l179 627h99l111 -722h-65l-98 648h-7l-195 -666h-56l-202 666h-5l-98 -648h-66z" />
    <glyph glyph-name="afii10031" unicode="&#x41d;" horiz-adv-x="724" 
d="M100 722h65v-326h394v326h65v-722h-65v336h-394v-336h-65v722z" />
    <glyph glyph-name="afii10032" unicode="&#x41e;" horiz-adv-x="802" 
d="M60 366q0 98 39 181.5t118 136.5t183 53q157 0 249.5 -108t92.5 -267q0 -174 -96.5 -275.5t-246.5 -101.5q-146 0 -242.5 105t-96.5 276zM130 364q0 -138 74.5 -228.5t194.5 -90.5q130 0 201.5 90.5t71.5 227.5q0 138 -73.5 226t-199.5 88q-124 0 -196.5 -90.5
t-72.5 -222.5z" />
    <glyph glyph-name="afii10033" unicode="&#x41f;" horiz-adv-x="714" 
d="M100 722h514v-722h-65v664h-384v-664h-65v722z" />
    <glyph glyph-name="afii10034" unicode="&#x420;" horiz-adv-x="566" 
d="M100 0v722h172q107 0 180.5 -56t73.5 -154q0 -102 -77 -157t-187 -55h-97v-300h-65zM165 663v-303l101 1q84 1 137 38t53 112q0 73 -52.5 111.5t-125.5 39.5z" />
    <glyph glyph-name="afii10035" unicode="&#x421;" horiz-adv-x="723" 
d="M655 518h-70q-8 71 -56.5 115.5t-134.5 44.5q-122 0 -193 -88t-71 -229q0 -127 71.5 -220.5t193.5 -93.5q87 0 139 46.5t58 116.5h71q-13 -104 -86 -164.5t-183 -60.5q-67 0 -123.5 23.5t-94.5 62t-65 88.5t-39 101t-12 101q0 71 20.5 136.5t60.5 120t105.5 87
t147.5 32.5q108 0 179 -58.5t82 -160.5z" />
    <glyph glyph-name="afii10036" unicode="&#x422;" horiz-adv-x="535" 
d="M300 0h-64v662h-216v60h495v-60h-215v-662z" />
    <glyph glyph-name="afii10037" unicode="&#x423;" horiz-adv-x="581" 
d="M480 722h71l-237 -642q-35 -94 -134 -94q-33 0 -79 18l10 63q31 -19 68 -19q48 0 68 49l37 98q6 15 -3.5 25.5t-25.5 8.5l-225 493h78l201 -460h5z" />
    <glyph glyph-name="afii10038" unicode="&#x424;" horiz-adv-x="822" 
d="M378 -55v127q-147 9 -240 84t-93 203q0 125 95.5 202t237.5 86v114h65v-114q141 -9 237.5 -86t96.5 -202q0 -127 -93.5 -202.5t-240.5 -83.5v-128h-65zM113 359q0 -103 72 -161.5t193 -65.5v456q-116 -8 -190.5 -68t-74.5 -161zM709 359q0 102 -75 162t-191 68v-457
q121 7 193.5 65t72.5 162z" />
    <glyph glyph-name="afii10039" unicode="&#x425;" horiz-adv-x="628" 
d="M54 722h83l178 -290h4l174 290h73l-214 -349l233 -373h-83l-191 316h-4l-184 -316h-74l223 375z" />
    <glyph glyph-name="afii10040" unicode="&#x426;" horiz-adv-x="730" 
d="M615 -133v133h-515v722h65v-664h366v664h64v-660h85v-62l-4 -133h-61z" />
    <glyph glyph-name="afii10041" unicode="&#x427;" horiz-adv-x="620" 
d="M60 722h67v-192q0 -143 157 -145l170 -2v339h66v-722h-66v325h-167q-104 0 -165.5 51.5t-61.5 154.5v191z" />
    <glyph glyph-name="afii10042" unicode="&#x428;" horiz-adv-x="962" 
d="M450 58v664h62v-664h286v664h64v-722h-762v722h65v-664h285z" />
    <glyph glyph-name="afii10043" unicode="&#x429;" horiz-adv-x="962" 
d="M846 -133v133h-746v722h65v-664h266v664h63v-664h267v664h65v-660h85v-62l-4 -133h-61z" />
    <glyph glyph-name="afii10044" unicode="&#x42a;" horiz-adv-x="629" 
d="M174 663l-154 -2v61h219v-300h97q107 0 180 -56t73 -154q0 -102 -76.5 -157t-186.5 -55h-152v663zM239 363v-303l91 1q84 1 136.5 38t52.5 112q0 73 -52 111.5t-125 39.5z" />
    <glyph glyph-name="afii10045" unicode="&#x42b;" horiz-adv-x="745" 
d="M165 722v-306h47q106 0 178 -54.5t72 -152.5q0 -101 -75.5 -155t-185.5 -54h-101v722h65zM165 357v-297l40 1q84 1 136 37.5t52 109.5q0 72 -51.5 109.5t-124.5 38.5zM645 0h-65v722h65v-722z" />
    <glyph glyph-name="afii10046" unicode="&#x42c;" horiz-adv-x="560" 
d="M520 212q0 -102 -76.5 -157t-186.5 -55h-157v722h65v-300h102q107 0 180 -56t73 -154zM450 211q0 73 -52 111.5t-125 39.5l-108 1v-303l96 1q84 1 136.5 38t52.5 112z" />
    <glyph glyph-name="afii10047" unicode="&#x42d;" horiz-adv-x="679" 
d="M115 521h-69q16 102 84 158t175 56q79 0 141 -32.5t98.5 -86.5t55.5 -119t19 -136q0 -64 -17.5 -127t-53 -120t-98.5 -92.5t-145 -35.5q-110 0 -181 59t-84 162h69q6 -70 56.5 -115t137.5 -45q112 0 177 85t71 207l-296 -1v61l296 -1q-8 124 -73 201.5t-174 77.5
q-85 0 -133 -43t-56 -113z" />
    <glyph glyph-name="afii10048" unicode="&#x42e;" horiz-adv-x="972" 
d="M100 722h65l-1 -318h139q7 89 42 163t103 122t157 48q146 0 226.5 -108t80.5 -266q0 -171 -83.5 -274.5t-223.5 -103.5q-130 0 -213.5 99t-89.5 260h-138l1 -344h-65v722zM369 364q0 -140 63 -229.5t173 -89.5q79 0 134 44.5t79.5 114.5t24.5 160q0 139 -62.5 226
t-175.5 87q-111 0 -173.5 -90t-62.5 -223z" />
    <glyph glyph-name="afii10049" unicode="&#x42f;" horiz-adv-x="589" 
d="M489 722v-722h-65v325h-74l-266 -325h-84l281 333q-102 11 -158 63t-56 130q0 91 70 143.5t175 52.5h177zM424 386v277l-115 -1q-75 -1 -123.5 -36.5t-48.5 -100.5q0 -64 50 -99.5t129 -37.5z" />
    <glyph glyph-name="afii10065" unicode="&#x430;" horiz-adv-x="504" 
d="M435 0h-63l4 74h-4q-79 -88 -182 -88q-69 0 -110 41.5t-41 110.5q0 71 50 115.5t127 44.5q72 0 156 -20v66q-1 119 -126 119q-56 0 -88 -29t-37 -70h-70q13 67 66 108.5t130 41.5q85 0 134.5 -42.5t49.5 -125.5v-272q0 -54 4 -74zM372 139v93q-74 16 -138 16
q-63 0 -98 -29t-35 -80q0 -47 29 -73.5t79 -26.5q51 0 96 32.5t67 67.5z" />
    <glyph glyph-name="afii10066" unicode="&#x431;" horiz-adv-x="556" 
d="M303 502q90 0 148.5 -75t58.5 -180q0 -110 -58.5 -186t-161.5 -76q-68 0 -118 37t-75.5 96.5t-36.5 124t-9 129.5t14 119.5t35.5 103.5t66 76.5t100.5 27.5q37 0 91 -22t74 -22q27 0 21 37h40q12 -108 -52 -108q-32 0 -87.5 28t-89.5 28q-47 0 -81.5 -28.5t-51 -74.5
t-23.5 -95.5t-4 -100.5h4q23 67 70.5 114t124.5 47zM441 240q0 101 -42 152.5t-108 51.5q-65 0 -109.5 -57t-44.5 -146t43 -145t110 -56q75 0 113 55.5t38 144.5z" />
    <glyph glyph-name="afii10067" unicode="&#x432;" horiz-adv-x="470" 
d="M80 0v502h126q90 0 142 -31.5t52 -96.5q0 -38 -25 -67t-60 -41v-4q43 -15 71.5 -44.5t28.5 -73.5q0 -70 -58 -107t-148 -37h-129zM217 235l-78 1v-185l75 1q137 2 137 91q0 46 -36.5 68.5t-97.5 23.5zM139 452v-166l73 1q58 1 92 22t34 61q0 79 -127 81z" />
    <glyph glyph-name="afii10068" unicode="&#x433;" horiz-adv-x="400" 
d="M385 502v-55l-245 2v-449h-60v502h305z" />
    <glyph glyph-name="afii10069" unicode="&#x434;" horiz-adv-x="584" 
d="M484 -118v118h-394v-118h-56l-4 174h19q51 0 75.5 26.5t31.5 88.5l33 331h285v-446h70l-4 -174h-56zM415 53v397h-172l-29 -285q-9 -80 -44 -112h245z" />
    <glyph glyph-name="afii10070" unicode="&#x435;" horiz-adv-x="515" 
d="M472 245h-360q-1 -84 43.5 -144.5t118.5 -60.5q58 0 91.5 31.5t41.5 83.5h63q-9 -71 -59 -120.5t-141 -49.5q-99 0 -160.5 79.5t-62.5 191.5q-1 110 60 185t163 75t153 -71t51 -169q0 -11 -2 -31zM114 299l295 2q0 24 -5.5 49t-19.5 51.5t-43.5 43.5t-70.5 17
q-71 0 -109 -45t-47 -118z" />
    <glyph glyph-name="afii10072" unicode="&#x436;" horiz-adv-x="653" 
d="M298 260l-1 242h59l-1 -242h4l188 242h76l-207 -253l227 -249h-79l-205 233h-4l1 -233h-59l1 233h-4l-205 -233h-79l227 249l-207 253h76l188 -242h4z" />
    <glyph glyph-name="afii10073" unicode="&#x437;" horiz-adv-x="470" 
d="M97 136q8 -44 42 -70.5t86 -26.5q58 0 90.5 26t32.5 66q0 88 -129 103q-26 3 -59 3v50q21 0 53 2q125 7 125 91q0 38 -30 60.5t-82 22.5q-92 0 -121 -82h-66q18 61 67 98t122 37q80 0 127 -36t47 -96q0 -83 -107 -119v-4q55 -12 86 -49t31 -84q0 -61 -50.5 -102
t-136.5 -41q-84 0 -134 43.5t-61 107.5h67z" />
    <glyph glyph-name="afii10074" unicode="&#x438;" horiz-adv-x="577" 
d="M80 0v502h59l-1 -423h4l280 423h75v-502h-59l1 423h-4l-280 -423h-75z" />
    <glyph glyph-name="afii10075" unicode="&#x439;" horiz-adv-x="577" 
d="M80 0v502h59l-1 -423h4l280 423h75v-502h-59l1 423h-4l-280 -423h-75zM288 629q23 0 40.5 8t26.5 19t14.5 25.5t7 23t1.5 17.5h45q2 -70 -33.5 -110.5t-101.5 -40.5q-65 0 -100.5 40t-33.5 111h45q5 -93 89 -93z" />
    <glyph glyph-name="afii10076" unicode="&#x43a;" horiz-adv-x="485" 
d="M80 0v502h60v-237h4l238 237h82l-254 -248l263 -254h-81l-248 236h-4v-236h-60z" />
    <glyph glyph-name="afii10077" unicode="&#x43b;" horiz-adv-x="555" 
d="M126 166l18 336h331v-502h-60v449h-215l-13 -289q-4 -78 -35.5 -121.5t-85.5 -43.5q-21 0 -41 5v52q50 -8 74 21t27 93z" />
    <glyph glyph-name="afii10078" unicode="&#x43c;" horiz-adv-x="700" 
d="M516 425l-148 -439h-45l-141 439h-4l-84 -425h-64l107 502h80l129 -412h4l133 412h78l109 -502h-63l-87 425h-4z" />
    <glyph glyph-name="afii10079" unicode="&#x43d;" horiz-adv-x="557" 
d="M477 0h-60v240h-277v-240h-60v502h60v-209h277v209h60v-502z" />
    <glyph glyph-name="afii10080" unicode="&#x43e;" horiz-adv-x="558" 
d="M45 251q0 46 14 90.5t41 84.5t74.5 64.5t107.5 24.5q59 0 105.5 -25t72.5 -65.5t39.5 -85t13.5 -89.5q0 -108 -61 -187.5t-171 -79.5q-112 0 -174 78.5t-62 189.5zM110 251q0 -86 43.5 -149.5t126.5 -63.5q75 0 121.5 57t46.5 157q0 95 -46 151.5t-121 56.5
q-71 0 -121 -52.5t-50 -156.5z" />
    <glyph glyph-name="afii10081" unicode="&#x43f;" horiz-adv-x="557" 
d="M80 0v502h397v-502h-60v449h-277v-449h-60z" />
    <glyph glyph-name="afii10082" unicode="&#x440;" horiz-adv-x="556" 
d="M511 255q0 -115 -56.5 -192.5t-155.5 -77.5q-101 0 -159 93h-4q2 -39 2 -78v-193h-60v547l-8 148h58l8 -73h4q19 30 62 59t103 29q95 0 150.5 -75t55.5 -187zM446 255q0 95 -39 151t-111 56q-65 0 -109.5 -47.5t-48.5 -105.5v-117q6 -58 50 -105t104 -47q73 0 113.5 57.5
t40.5 157.5z" />
    <glyph glyph-name="afii10083" unicode="&#x441;" horiz-adv-x="508" 
d="M457 346h-65q-6 51 -37 83.5t-89 32.5q-80 0 -118 -60t-38 -152q0 -86 40 -148t117 -62q58 0 90.5 35t40.5 87h65q-14 -79 -63 -128t-135 -49q-102 0 -161 74t-59 190q0 122 60.5 195t161.5 73q80 0 131 -47.5t59 -123.5z" />
    <glyph glyph-name="afii10084" unicode="&#x442;" horiz-adv-x="419" 
d="M20 447v55h379v-55l-159 1v-448h-60v448z" />
    <glyph glyph-name="afii10085" unicode="&#x443;" horiz-adv-x="473" 
d="M88 502l157 -435h4l138 435h66q-56 -168 -98 -295.5t-58 -177.5t-27.5 -84.5l-18.5 -55.5q-27 -80 -117 -80q-32 0 -61 12l5 54q27 -11 56 -11q46 0 63 43q20 52 30 93q4 17 -5.5 28.5t-28.5 8.5l-173 465h68z" />
    <glyph glyph-name="afii10086" unicode="&#x444;" horiz-adv-x="802" 
d="M371 502v119h51l9 -106l-1 -85h4q11 17 17.5 26t23.5 25.5t41 25t54 8.5q87 0 137 -75.5t50 -184.5q0 -113 -51 -191t-142 -78q-82 0 -131 88h-4q2 -35 2 -74v-193h-60v193l2 74h-4q-49 -88 -131 -88q-91 0 -142 78t-51 191q0 109 50 184.5t137 75.5q30 0 54 -8.5t41 -25
t23.5 -25.5t17.5 -26h4q-1 39 -1 72zM692 255q0 94 -33.5 150.5t-96.5 56.5q-52 0 -88 -42t-43 -93v-155q10 -53 44 -92.5t83 -39.5q65 0 99.5 57.5t34.5 157.5zM110 255q-1 -93 34.5 -154t99.5 -61q49 0 83 39.5t44 92.5v155q-7 51 -43 93t-88 42q-63 0 -96 -56.5
t-34 -150.5z" />
    <glyph glyph-name="afii10087" unicode="&#x445;" horiz-adv-x="470" 
d="M269 259l174 -259h-74l-136 208h-4l-136 -208h-68l173 255l-165 247h73l127 -198h4l124 198h66z" />
    <glyph glyph-name="afii10088" unicode="&#x446;" horiz-adv-x="577" 
d="M477 -118v118h-397v502h60v-449h268v449h59v-446h70l-4 -174h-56z" />
    <glyph glyph-name="afii10089" unicode="&#x447;" horiz-adv-x="525" 
d="M445 502v-502h-60v257h-4q-67 -99 -170 -99q-75 0 -118 45.5t-43 125.5v173h60v-174q0 -56 28 -86t81 -30q57 0 103.5 42.5t62.5 105.5v142h60z" />
    <glyph glyph-name="afii10090" unicode="&#x448;" horiz-adv-x="785" 
d="M421 502v-449h227v449h57v-502h-625v502h60v-449h224v449h57z" />
    <glyph glyph-name="afii10091" unicode="&#x449;" horiz-adv-x="795" 
d="M411 502v-449h215v449h59v-446h70l-4 -174h-56v118h-615v502h60v-449h214v449h57z" />
    <glyph glyph-name="afii10092" unicode="&#x44a;" horiz-adv-x="510" 
d="M20 447v55h177v-201h70q91 0 149.5 -37t58.5 -110q0 -71 -59.5 -112.5t-147.5 -41.5h-131v448zM197 52l77 1q60 1 98.5 27.5t38.5 73.5q0 48 -37.5 71t-99.5 24l-77 1v-198z" />
    <glyph glyph-name="afii10093" unicode="&#x44b;" horiz-adv-x="585" 
d="M80 502h60v-205h26q88 0 141.5 -37t53.5 -108q0 -69 -54 -110.5t-140 -41.5h-87v502zM171 53q58 2 92 27.5t34 70.5q0 91 -126 94l-31 1v-194zM445 0v502h60v-502h-60z" />
    <glyph glyph-name="afii10094" unicode="&#x44c;" horiz-adv-x="453" 
d="M211 0h-131v502h60v-201h70q91 0 149.5 -37t58.5 -110q0 -71 -59.5 -112.5t-147.5 -41.5zM140 250v-198l77 1q60 1 98.5 27.5t38.5 73.5q0 48 -37.5 71t-99.5 24z" />
    <glyph glyph-name="afii10095" unicode="&#x44d;" horiz-adv-x="518" 
d="M192 234v56l216 -2q-8 77 -48.5 125.5t-111.5 48.5q-59 0 -91 -32t-38 -82h-65q8 74 61 121t133 47q101 0 163 -72.5t62 -194.5q0 -115 -61 -189t-163 -74q-87 0 -137 48t-64 125h65q7 -51 41 -85t93 -34q73 0 115.5 57.5t46.5 137.5z" />
    <glyph glyph-name="afii10096" unicode="&#x44e;" horiz-adv-x="725" 
d="M80 0v502h60l-1 -216h109q6 58 30 107.5t73 85t113 35.5q56 0 99.5 -25t68 -65t36.5 -84.5t12 -89.5q0 -108 -57.5 -187t-158.5 -79t-157 72t-61 177h-107l1 -233h-60zM309 251q0 -88 37.5 -150.5t116.5 -62.5q69 0 110.5 57.5t41.5 156.5q0 93 -41 150.5t-110 57.5
q-65 0 -110 -54t-45 -155z" />
    <glyph glyph-name="afii10097" unicode="&#x44f;" horiz-adv-x="475" 
d="M395 0h-60v223h-47l-194 -223h-79l205 229q-62 9 -108 42t-46 92q0 66 54 102.5t142 36.5h133v-502zM257 275l78 -1v178l-78 -1q-56 -1 -91 -24.5t-35 -64.5q0 -39 35 -62.5t91 -24.5z" />
    <glyph glyph-name="afii10071" unicode="&#x451;" horiz-adv-x="527" 
d="M186 603q-20 0 -32.5 13t-12.5 31q0 19 12.5 32t32.5 13t32.5 -13t12.5 -32q0 -18 -12.5 -31t-32.5 -13zM360 603q-20 0 -32.5 13t-12.5 31q0 19 12.5 32t32.5 13t32.5 -13t12.5 -32q0 -18 -12.5 -31t-32.5 -13zM472 245h-360q-1 -84 43.5 -144.5t118.5 -60.5
q58 0 91.5 31.5t41.5 83.5h63q-9 -71 -59 -120.5t-141 -49.5q-99 0 -160.5 79.5t-62.5 191.5q-1 110 60 185t163 75t153 -71t51 -169q0 -11 -2 -31zM114 299l295 2q0 24 -5.5 49t-19.5 51.5t-43.5 43.5t-70.5 17q-71 0 -109 -45t-47 -118z" />
    <glyph glyph-name="afii10099" unicode="&#x452;" horiz-adv-x="557" 
d="M333 -189v54q45 -5 67 13.5t22 64.5v401q0 119 -107 119q-58 0 -105 -44.5t-63 -108.5v-310h-60v590h-77v48h77v84h60v-84h184v-48h-184v-88l-2 -89h4q25 42 70 73t104 31q76 0 117.5 -43.5t41.5 -128.5v-398q0 -140 -111 -140q-22 0 -38 4z" />
    <glyph glyph-name="afii10100" unicode="&#x453;" horiz-adv-x="400" 
d="M385 502v-55l-245 2v-449h-60v502h305zM326 734l37 -53l-180 -111l-25 37z" />
    <glyph glyph-name="afii10101" unicode="&#x454;" horiz-adv-x="529" 
d="M399 348q-6 50 -38 82t-91 32q-71 0 -111.5 -48.5t-48.5 -125.5l217 2v-56l-219 1q4 -80 46.5 -137.5t116.5 -57.5q59 0 93 34t41 85h65q-14 -77 -64 -125t-137 -48q-102 0 -163 74t-61 189q0 121 62.5 194t163.5 73q80 0 132.5 -47t60.5 -121h-65z" />
    <glyph glyph-name="afii10102" unicode="&#x455;" horiz-adv-x="450" 
d="M45 139h65q-2 -36 28 -67.5t87 -31.5q50 0 80.5 23t30.5 62q0 41 -27 62.5t-95 44.5q-31 10 -54 20.5t-50 27.5t-41.5 42t-14.5 56q0 62 45.5 100.5t119.5 38.5q67 0 113 -38.5t53 -105.5h-64q-1 39 -30 64.5t-74 25.5q-43 0 -71.5 -21t-28.5 -58q0 -36 28.5 -57
t88.5 -40q27 -8 46 -15.5t43.5 -20.5t39.5 -28t25.5 -38t10.5 -51q0 -65 -48 -107t-128 -42q-73 0 -122.5 39.5t-55.5 114.5z" />
    <glyph glyph-name="afii10103" unicode="&#x456;" horiz-adv-x="220" 
d="M65 677q0 19 12.5 32t32.5 13t32.5 -13t12.5 -32q0 -18 -12.5 -31t-32.5 -13t-32.5 13t-12.5 31zM80 502h60v-502h-60v502z" />
    <glyph glyph-name="afii10104" unicode="&#x457;" horiz-adv-x="228" 
d="M84 0v502h60v-502h-60zM27 603q-20 0 -32.5 13t-12.5 31q0 19 12.5 32t32.5 13t32.5 -13t12.5 -32q0 -18 -12.5 -31t-32.5 -13zM201 603q-20 0 -32.5 13t-12.5 31q0 19 12.5 32t32.5 13t32.5 -13t12.5 -32q0 -18 -12.5 -31t-32.5 -13z" />
    <glyph glyph-name="afii10105" unicode="&#x458;" horiz-adv-x="232" 
d="M0 -189q16 -4 38 -4q111 0 111 140v555h-60v-559q0 -46 -22 -64.5t-67 -13.5v-54zM74 677q0 19 12.5 32t32.5 13t32.5 -13t12.5 -32q0 -18 -12.5 -31t-32.5 -13t-32.5 13t-12.5 31z" />
    <glyph glyph-name="afii10106" unicode="&#x459;" horiz-adv-x="615" 
d="M386 0h-87v451h-100l-13 -291q-4 -78 -35 -121.5t-85 -43.5q-21 0 -41 5v52q50 -8 74 21t27 93l18 336h215v-205h26q88 0 141.5 -37t53.5 -108q0 -69 -54 -110.5t-140 -41.5zM359 246v-194l31 1q58 2 92 27.5t34 70.5q0 91 -126 94z" />
    <glyph glyph-name="afii10107" unicode="&#x45a;" horiz-adv-x="585" 
d="M356 0h-87v244h-129v-244h-60v502h60v-205h129v205h60v-205h26q88 0 141.5 -37t53.5 -108q0 -69 -54 -110.5t-140 -41.5zM329 246v-194l31 1q58 2 92 27.5t34 70.5q0 91 -126 94z" />
    <glyph glyph-name="afii10108" unicode="&#x45b;" horiz-adv-x="557" 
d="M10 638h77v84h60v-84h184v-48h-184v-88l-2 -89h4q25 42 70 73t104 31q76 0 117.5 -43.5t41.5 -128.5v-345h-60v344q0 119 -107 119q-58 0 -105 -44.5t-63 -108.5v-310h-60v590h-77v48z" />
    <glyph glyph-name="afii10109" unicode="&#x45c;" horiz-adv-x="485" 
d="M80 0v502h60v-237h4l238 237h82l-254 -248l263 -254h-81l-248 236h-4v-236h-60zM378 734l37 -53l-180 -111l-25 37z" />
    <glyph glyph-name="afii10110" unicode="&#x45e;" horiz-adv-x="476" 
d="M247 629q23 0 40.5 8t26.5 19t14.5 25.5t7 23t1.5 17.5h45q2 -70 -33.5 -110.5t-101.5 -40.5q-65 0 -100.5 40t-33.5 111h45q5 -93 89 -93zM88 502l157 -435h4l138 435h66q-56 -168 -98 -295.5t-58 -177.5t-27.5 -84.5l-18.5 -55.5q-27 -80 -117 -80q-32 0 -61 12l5 54
q27 -11 56 -11q46 0 63 43q20 52 30 93q4 17 -5.5 28.5t-28.5 8.5l-173 465h68z" />
    <glyph glyph-name="afii10193" unicode="&#x45f;" horiz-adv-x="557" 
d="M477 0h-168l-2 -118h-56l-2 118h-169v502h60v-449h277v449h60v-502z" />
    <glyph glyph-name="afii10050" unicode="&#x490;" horiz-adv-x="495" 
d="M100 0v722h306v133h60l4 -133v-61l-305 2v-663h-65z" />
    <glyph glyph-name="afii10098" unicode="&#x491;" horiz-adv-x="400" 
d="M371 621l4 -174l-235 2v-449h-60v502h237v119h54z" />
    <glyph glyph-name="Wgrave" unicode="&#x1e80;" horiz-adv-x="951" 
d="M45 722h69l142 -641h4l177 643h79l179 -642h4l144 640h63l-166 -722h-88l-175 636h-4l-174 -636h-89zM329 862l33 57l180 -112l-24 -42z" />
    <glyph glyph-name="wgrave" unicode="&#x1e81;" horiz-adv-x="795" 
d="M710 502h65l-175 -502h-57l-147 433h-4l-150 -433h-61l-161 502h65l128 -417h4l145 417h71l139 -417h4zM253 681l37 53l168 -127l-25 -37z" />
    <glyph glyph-name="Wacute" unicode="&#x1e82;" horiz-adv-x="951" 
d="M45 722h69l142 -641h4l177 643h79l179 -642h4l144 640h63l-166 -722h-88l-175 636h-4l-174 -636h-89zM591 919l33 -57l-189 -97l-24 42z" />
    <glyph glyph-name="wacute" unicode="&#x1e83;" horiz-adv-x="795" 
d="M710 502h65l-175 -502h-57l-147 433h-4l-150 -433h-61l-161 502h65l128 -417h4l145 417h71l139 -417h4zM503 734l37 -53l-180 -111l-25 37z" />
    <glyph glyph-name="Wdieresis" unicode="&#x1e84;" horiz-adv-x="951" 
d="M45 722h69l142 -641h4l177 643h79l179 -642h4l144 640h63l-166 -722h-88l-175 636h-4l-174 -636h-89zM387 782q-21 0 -34 13.5t-13 32.5q0 20 13 33.5t34 13.5t34 -13.5t13 -33.5q0 -19 -13 -32.5t-34 -13.5zM565 782q-21 0 -34 13.5t-13 32.5q0 20 13 33.5t34 13.5
t34 -13.5t13 -33.5q0 -19 -13 -32.5t-34 -13.5z" />
    <glyph glyph-name="wdieresis" unicode="&#x1e85;" horiz-adv-x="795" 
d="M710 502h65l-175 -502h-57l-147 433h-4l-150 -433h-61l-161 502h65l128 -417h4l145 417h71l139 -417h4zM308 603q-20 0 -32.5 13t-12.5 31q0 19 12.5 32t32.5 13t32.5 -13t12.5 -32q0 -18 -12.5 -31t-32.5 -13zM482 603q-20 0 -32.5 13t-12.5 31q0 19 12.5 32t32.5 13
t32.5 -13t12.5 -32q0 -18 -12.5 -31t-32.5 -13z" />
    <glyph glyph-name="Ygrave" unicode="&#x1ef2;" horiz-adv-x="581" 
d="M551 722l-213 -439q-12 -5 -12 -17v-266h-65v266q0 14 -13 17l-218 439h77l185 -387h4l184 387h71zM164 862l33 57l180 -112l-24 -42z" />
    <glyph glyph-name="ygrave" unicode="&#x1ef3;" horiz-adv-x="473" 
d="M88 502l157 -435h4l138 435h66q-56 -168 -98 -295.5t-58 -177.5t-27.5 -84.5l-18.5 -55.5q-27 -80 -117 -80q-32 0 -61 12l5 54q27 -11 56 -11q46 0 63 43q20 52 30 93q4 17 -5.5 28.5t-28.5 8.5l-173 465h68zM105 681l37 53l168 -127l-25 -37z" />
    <glyph glyph-name="endash" unicode="&#x2013;" horiz-adv-x="500" 
d="M0 237v60h500v-60h-500z" />
    <glyph glyph-name="emdash" unicode="&#x2014;" horiz-adv-x="1000" 
d="M30 237v60h940v-60h-940z" />
    <glyph glyph-name="quoteleft" unicode="&#x2018;" horiz-adv-x="260" 
d="M185 554q0 -25 -16 -41t-42 -16q-25 0 -41.5 15.5t-16.5 41.5q0 18 4 37q14 56 80 131h62q-67 -52 -91 -96q-3 -5 -1 -9.5t8 -5.5q22 -3 38 -19t16 -38z" />
    <glyph glyph-name="quoteright" unicode="&#x2019;" horiz-adv-x="260" 
d="M75 665q0 25 16.5 41t41.5 16t41.5 -15.5t16.5 -41.5q0 -18 -4 -37q-12 -54 -80 -131h-62q64 49 89 96q3 5 1 9.5t-8 5.5q-22 3 -37 18.5t-15 38.5z" />
    <glyph glyph-name="quotesinglbase" unicode="&#x201a;" horiz-adv-x="260" 
d="M75 72q0 25 16.5 41t41.5 16t41.5 -15.5t16.5 -41.5q0 -18 -4 -37q-12 -54 -80 -131h-62q60 47 87 96q3 5 1 9.5t-8 5.5q-22 3 -36 18.5t-14 38.5z" />
    <glyph glyph-name="quotedblleft" unicode="&#x201c;" horiz-adv-x="416" 
d="M134 611q22 -3 37 -18.5t15 -38.5q0 -25 -16.5 -41t-41.5 -16q-24 0 -41 16t-17 41q0 18 4 37q11 48 84 131h64q-72 -53 -95 -96q-3 -5 -1 -9.5t8 -5.5zM290 611q22 -3 39 -19t17 -38q0 -25 -16.5 -41t-41.5 -16t-41.5 15.5t-16.5 41.5q0 18 4 37q14 60 76 131h61
q-63 -50 -88 -96q-3 -5 -1 -9.5t8 -5.5z" />
    <glyph glyph-name="quotedblright" unicode="&#x201d;" horiz-adv-x="416" 
d="M282 608q-22 3 -37 18.5t-15 38.5q0 25 16.5 41t41.5 16q24 0 41 -16t17 -41q0 -18 -4 -37q-11 -48 -84 -131h-64q72 53 95 96q3 5 1 9.5t-8 5.5zM126 608q-22 3 -39 19t-17 38q0 25 16.5 41t41.5 16t41.5 -15.5t16.5 -41.5q0 -18 -4 -37q-14 -60 -76 -131h-61
q63 50 88 96q3 5 1 9.5t-8 5.5z" />
    <glyph glyph-name="quotedblbase" unicode="&#x201e;" horiz-adv-x="416" 
d="M281 15q-22 3 -37 18.5t-15 38.5q0 25 16.5 41t41.5 16q24 0 41 -16t17 -41q0 -18 -4 -37q-11 -48 -84 -131h-64q70 51 95 96q3 5 1 9.5t-8 5.5zM125 15q-22 3 -39 19t-17 38q0 25 16.5 41t41.5 16t41.5 -15.5t16.5 -41.5q0 -18 -4 -37q-14 -60 -76 -131h-61q63 50 88 96
q3 5 1 9.5t-8 5.5z" />
    <glyph glyph-name="dagger" unicode="&#x2020;" horiz-adv-x="540" 
d="M240 488l-172 -1v55l172 -1v181h60v-181l172 1v-55l-172 1v-488h-60v488z" />
    <glyph glyph-name="daggerdbl" unicode="&#x2021;" horiz-adv-x="540" 
d="M240 488l-172 -1v55l172 -1v181h60v-181l172 1v-55l-172 1v-254l172 1v-55l-172 1v-181h-60v181l-172 -1v55l172 -1v254z" />
    <glyph glyph-name="bullet" unicode="&#x2022;" horiz-adv-x="455" 
d="M228 528q68 0 117 -49t49 -118q0 -68 -48.5 -117t-117.5 -49t-118 49t-49 117q0 69 49 118t118 49z" />
    <glyph glyph-name="ellipsis" unicode="&#x2026;" horiz-adv-x="946" 
d="M138 116q24 0 41 -16.5t17 -41.5t-17 -41.5t-41 -16.5t-41 16.5t-17 41.5t17 41.5t41 16.5zM473 116q24 0 41 -16.5t17 -41.5t-17 -41.5t-41 -16.5t-41 16.5t-17 41.5t17 41.5t41 16.5zM808 116q24 0 41 -16.5t17 -41.5t-17 -41.5t-41 -16.5t-41 16.5t-17 41.5t17 41.5
t41 16.5z" />
    <glyph glyph-name="perthousand" unicode="&#x2030;" horiz-adv-x="1000" 
d="M144 -34h-55l449 756h57zM509 330q63 0 97.5 -48t34.5 -118q0 -71 -35 -117.5t-97 -46.5q-63 0 -100 47t-37 117q0 69 36.5 117.5t100.5 48.5zM509 44q31 0 49.5 21t23.5 45t5 53q0 27 -5.5 52.5t-24 48.5t-48.5 23t-49.5 -23t-25 -48.5t-5.5 -52.5q0 -28 5.5 -52.5
t24.5 -45.5t50 -21zM830 330q63 0 98 -48t35 -118q0 -71 -35.5 -117.5t-97.5 -46.5q-63 0 -99.5 46.5t-36.5 117.5q0 70 36 118t100 48zM830 44q31 0 49.5 21t23.5 45t5 53q0 27 -5.5 52.5t-24 48.5t-48.5 23t-49.5 -23t-25 -48.5t-5.5 -52.5q0 -28 5.5 -52.5t24.5 -45.5
t50 -21zM186 692q63 0 98 -48t35 -118q0 -71 -35.5 -117.5t-97.5 -46.5q-63 0 -100 47t-37 117q0 69 36.5 117.5t100.5 48.5zM186 406q31 0 49.5 21t23.5 45t5 53q0 27 -5.5 52.5t-24 48.5t-48.5 23t-49.5 -23t-25 -48.5t-5.5 -52.5q0 -28 5.5 -52.5t24.5 -45.5t50 -21z" />
    <glyph glyph-name="guilsinglleft" unicode="&#x2039;" horiz-adv-x="280" 
d="M170 460h50l-102 -194l102 -194h-50l-118 194z" />
    <glyph glyph-name="guilsinglright" unicode="&#x203a;" horiz-adv-x="280" 
d="M52 460h50l118 -194l-118 -194h-50l102 194z" />
    <glyph glyph-name="interrobang" unicode="&#x203d;" horiz-adv-x="500" 
d="M250 116q-24 0 -41 -16.5t-17 -41.5t17 -41.5t41 -16.5t41 16.5t17 41.5t-17 41.5t-41 16.5zM116 543h-65q3 65 36 110t76.5 63t92.5 18q83 0 139 -49.5t56 -129.5q0 -59 -27 -101.5t-84 -89.5q-39 -32 -52.5 -67t-11.5 -85l2 -43h-52l-8 506q-43 -8 -72 -41.5t-30 -90.5
zM387 555q0 52 -28.5 83t-71.5 38l-9 -298h3q10 15 25 28q43 41 62 73t19 76z" />
    <glyph glyph-name="asterism" unicode="&#x2042;" horiz-adv-x="1000" 
d="M603 451l-50 -28l-53 124l-53 -124l-51 28l81 108l-134 -15v58l134 -16l-81 108l51 29l53 -124l53 124l50 -29l-80 -108l134 16v-58l-135 15zM340 28l-50 -28l-53 124l-53 -124l-51 28l81 108l-134 -15v58l134 -16l-81 108l51 29l53 -124l53 124l50 -29l-80 -108l134 16
v-58l-135 15zM866 28l-50 -28l-53 124l-53 -124l-51 28l81 108l-134 -15v58l134 -16l-81 108l51 29l53 -124l53 124l50 -29l-80 -108l134 16v-58l-135 15z" />
    <glyph glyph-name="fraction" unicode="&#x2044;" horiz-adv-x="181" 
d="M-150 0l427 722h54l-427 -722h-54z" />
    <glyph glyph-name="zero.sups" unicode="&#x2070;" 
d="M18 665q0 30 6.5 63.5t21.5 71t46.5 61.5t74.5 24q40 0 71 -20.5t47 -53.5t24 -67.5t8 -69.5q0 -55 -12.5 -102.5t-48 -84.5t-89.5 -37q-73 0 -111 65t-38 150zM69 666q0 -79 24.5 -125.5t73.5 -46.5q53 0 76 49.5t23 123.5q0 83 -25.5 129t-72.5 46q-51 0 -75 -51
t-24 -125z" />
    <glyph glyph-name="four.sups" unicode="&#x2074;" 
d="M216 463v91h-199v56q86 119 179 264h71v-278h58v-42h-58v-91h-51zM61 595h156v233h-3q-35 -56 -73.5 -113.5t-58.5 -86.5l-21 -30v-3z" />
    <glyph glyph-name="five.sups" unicode="&#x2075;" 
d="M29 571h53q3 -35 25.5 -56.5t57.5 -21.5q44 0 67.5 31t23.5 77q0 108 -83 108q-54 0 -86 -57h-46l4 220h247v-44h-203l-5 -128h2q43 51 99 51q59 0 90 -43t31 -104q0 -66 -38.5 -110t-105.5 -44q-53 0 -90.5 34.5t-42.5 86.5z" />
    <glyph glyph-name="six.sups" unicode="&#x2076;" 
d="M306 784h-49q-7 63 -71 63q-51 0 -83 -48t-33 -136h3q47 74 113 74q55 0 92.5 -38.5t37.5 -104.5q0 -60 -38.5 -102.5t-99.5 -42.5q-72 0 -111.5 59.5t-39.5 148.5q0 54 14 103.5t52.5 88.5t94.5 39q59 0 87.5 -32t30.5 -72zM178 492q40 0 65 28.5t25 73.5q0 47 -24 74
t-65 28q-42 1 -68 -30.5t-26 -68.5q0 -43 24.5 -74t68.5 -31z" />
    <glyph glyph-name="seven.sups" unicode="&#x2077;" 
d="M36 830v42h280v-40q-49 -80 -92 -172t-62 -144l-18 -53h-57q70 191 180 365v2h-231z" />
    <glyph glyph-name="eight.sups" unicode="&#x2078;" 
d="M256 772q0 34 -25 54.5t-63 20.5t-64 -20.5t-26 -54.5q0 -32 24 -53.5t66 -21.5q40 0 64 21t24 54zM73 570q0 -33 25 -55t70 -22q44 0 69 22.5t25 55.5q0 38 -25.5 60.5t-68.5 22.5q-45 0 -70 -23.5t-25 -60.5zM304 777q0 -71 -74 -99v-3q37 -13 59.5 -41.5t22.5 -65.5
q0 -47 -38.5 -82.5t-105.5 -35.5q-64 0 -105 33.5t-41 83.5q0 37 22.5 66t60.5 41v3q-36 12 -55 40t-19 60q0 38 33.5 73.5t103.5 35.5q67 0 101.5 -33.5t34.5 -75.5z" />
    <glyph glyph-name="nine.sups" unicode="&#x2079;" 
d="M29 553h49q7 -63 71 -63q51 0 83 48t33 136h-3q-47 -74 -113 -74q-55 0 -92.5 38.5t-37.5 104.5q0 60 38.5 102.5t99.5 42.5q72 0 111.5 -59.5t39.5 -148.5q0 -54 -14 -103.5t-52 -88.5t-95 -39q-59 0 -87.5 32t-30.5 72zM156 847q-40 0 -65 -28.5t-25 -73.5
q0 -47 24 -74t65 -28q42 -1 68 30.5t26 68.5q0 43 -24.5 74t-68.5 31z" />
    <glyph glyph-name="zero.sinf" unicode="&#x2080;" 
d="M18 22q0 30 6.5 63.5t21.5 71t46.5 61.5t74.5 24q40 0 71 -20.5t47 -53.5t24 -67.5t8 -69.5q0 -55 -12.5 -102.5t-48 -84.5t-89.5 -37q-73 0 -111 65t-38 150zM69 23q0 -79 24.5 -125.5t73.5 -46.5q53 0 76 49.5t23 123.5q0 83 -25.5 129t-72.5 46q-51 0 -75 -51
t-24 -125z" />
    <glyph glyph-name="one.sinf" unicode="&#x2081;" 
d="M170 -180v362h-4q-55 -104 -126 -190v71q45 50 115 167h66v-410h-51z" />
    <glyph glyph-name="two.sinf" unicode="&#x2082;" 
d="M305 -180h-271q-2 18 -2 38q0 55 26.5 86.5t77.5 59.5q35 19 71 43q48 33 48 80q0 34 -22 54t-60 20q-43 0 -63 -24t-18 -61h-55q-2 56 35 91.5t102 35.5q60 0 97.5 -33.5t37.5 -83.5q0 -67 -76 -117q-16 -11 -76 -43q-25 -13 -38.5 -22.5t-26.5 -31t-10 -48.5h223v-44z
" />
    <glyph glyph-name="three.sinf" unicode="&#x2083;" 
d="M20 -71h55q2 -37 24 -58t64 -21q41 0 64 21t23 53q0 80 -111 87l-33 2v41l25 1q116 6 116 77q0 34 -23 51t-58 17q-32 0 -55 -17.5t-26 -46.5h-54q8 52 49 79t85 27q63 0 98 -31t35 -77q0 -67 -85 -98v-3q89 -26 89 -108q0 -49 -37.5 -83t-103.5 -34q-59 0 -98 33.5
t-43 87.5z" />
    <glyph glyph-name="four.sinf" unicode="&#x2084;" 
d="M216 -180v91h-199v56q86 119 179 264h71v-278h58v-42h-58v-91h-51zM61 -48h156v233h-3q-35 -56 -73.5 -113.5t-58.5 -87.5l-21 -29v-3z" />
    <glyph glyph-name="five.sinf" unicode="&#x2085;" 
d="M29 -72h53q3 -35 25.5 -56.5t57.5 -21.5q44 0 67.5 31t23.5 77q0 108 -83 108q-54 0 -86 -57h-46l4 220h247v-44h-203l-5 -128h2q43 51 99 51q59 0 90 -43t31 -104q0 -66 -38.5 -110t-105.5 -44q-53 0 -90.5 34.5t-42.5 86.5z" />
    <glyph glyph-name="six.sinf" unicode="&#x2086;" 
d="M306 141h-49q-7 63 -71 63q-51 0 -83 -48t-33 -136h3q47 74 113 74q55 0 92.5 -38.5t37.5 -104.5q0 -60 -38.5 -102.5t-99.5 -42.5q-72 0 -111.5 59.5t-39.5 148.5q0 54 14 103.5t52.5 88.5t94.5 39q59 0 87.5 -32t30.5 -72zM178 -151q40 0 65 28.5t25 73.5q0 47 -24 74
t-65 28q-42 1 -68 -30.5t-26 -68.5q0 -43 24.5 -74t68.5 -31z" />
    <glyph glyph-name="seven.sinf" unicode="&#x2087;" 
d="M36 187v42h280v-40q-49 -80 -92 -172.5t-62 -144.5l-18 -52h-57q70 191 180 365v2h-231z" />
    <glyph glyph-name="eight.sinf" unicode="&#x2088;" 
d="M256 129q0 34 -25 54.5t-63 20.5t-64 -20.5t-26 -54.5q0 -32 24 -53.5t66 -21.5q40 0 64 21t24 54zM73 -73q0 -33 25 -55t70 -22q44 0 69 22.5t25 55.5q0 38 -25.5 60.5t-68.5 22.5q-45 0 -70 -23.5t-25 -60.5zM304 134q0 -71 -74 -99v-3q37 -13 59.5 -41.5t22.5 -65.5
q0 -47 -38.5 -82.5t-105.5 -35.5q-64 0 -105 33.5t-41 83.5q0 37 22.5 66t60.5 41v3q-36 12 -55 40t-19 60q0 38 33.5 73.5t103.5 35.5q67 0 101.5 -33.5t34.5 -75.5z" />
    <glyph glyph-name="nine.sinf" unicode="&#x2089;" 
d="M29 -90h49q7 -63 71 -63q51 0 83 48t33 136h-3q-47 -74 -113 -74q-55 0 -92.5 38.5t-37.5 104.5q0 60 38.5 102.5t99.5 42.5q72 0 111.5 -59.5t39.5 -148.5q0 -54 -14 -103.5t-52 -88.5t-95 -39q-59 0 -87.5 32t-30.5 72zM156 204q-40 0 -65 -28.5t-25 -73.5
q0 -47 24 -74t65 -28q42 -1 68 30.5t26 68.5q0 43 -24.5 74t-68.5 31z" />
    <glyph glyph-name="Euro" unicode="&#x20ac;" horiz-adv-x="550" 
d="M87 270h-62v54h57v31q0 20 1 30h-58v54h63q11 77 39.5 138.5t83.5 103t127 41.5q82 0 133 -47.5t60 -137.5h-67q-11 129 -128 129q-52 0 -91 -34t-59.5 -82.5t-30.5 -110.5h287v-54h-292q-1 -10 -1 -30q0 -21 1 -31h260v-54h-255q13 -97 58 -161t122 -64q18 0 36 4.5
t39 17t36 39.5t19 66h69q-9 -87 -64 -136.5t-135 -49.5q-107 0 -169.5 79.5t-78.5 204.5z" />
    <glyph glyph-name="afii61352" unicode="&#x2116;" horiz-adv-x="1000" 
d="M90 0v722h73l321 -631h4l-1 631h59v-722h-78l-314 621h-4l1 -621h-61zM949 342q0 73 -40.5 128t-119.5 55t-119.5 -55t-40.5 -128q0 -81 41.5 -134.5t118.5 -53.5t118.5 53.5t41.5 134.5zM890 342q0 -64 -26.5 -100t-74.5 -36t-74.5 36t-26.5 100q0 60 26.5 96.5
t74.5 36.5t74.5 -37t26.5 -96zM923 0h-271v58q63 -3 137 -3l134 3v-58z" />
    <glyph glyph-name="trademark" unicode="&#x2122;" horiz-adv-x="780" 
d="M181 361h-44v318h-102v43h248v-43h-102v-318zM513 422l-97 300h-63l-35 -361h44l26 305h4l104 -317h35l104 317h4l26 -305h44l-35 361h-62l-94 -300h-5z" />
    <glyph glyph-name="uni2126" unicode="&#x2126;" horiz-adv-x="645" 
d="M323 722q127 0 208 -86.5t81 -214.5q0 -92 -48 -166t-140 -110v-86h177v-59h-233v181q85 21 132.5 85.5t47.5 152.5q0 110 -60.5 179t-164.5 69t-164.5 -69t-60.5 -179q0 -88 47.5 -152.5t132.5 -85.5v-181h-233v59h177v86q-92 36 -140 110t-48 166q0 128 81.5 214.5
t207.5 86.5z" />
    <glyph glyph-name="arrowleft" unicode="&#x2190;" horiz-adv-x="1000" 
d="M341 88l-286 244l286 244l36 -47l-204 -164v-4h772v-58h-772v-4l204 -164z" />
    <glyph glyph-name="arrowup" unicode="&#x2191;" horiz-adv-x="600" 
d="M300 732l244 -286l-47 -36l-164 204h-4v-772h-58v772h-4l-164 -204l-47 36z" />
    <glyph glyph-name="arrowright" unicode="&#x2192;" horiz-adv-x="1000" 
d="M945 332l-286 -244l-36 47l204 164v4h-772v58h772v4l-204 164l36 47z" />
    <glyph glyph-name="arrowdown" unicode="&#x2193;" horiz-adv-x="600" 
d="M544 118l-244 -286l-244 286l47 36l164 -204h4v772h58v-772h4l164 204z" />
    <glyph glyph-name="partialdiff" unicode="&#x2202;" horiz-adv-x="575" 
d="M495 365q0 -67 -11.5 -128.5t-38 -120t-76.5 -93.5t-119 -35q-91 0 -145.5 66.5t-54.5 161.5q0 97 60 163.5t146 66.5q49 0 95 -23.5t79 -58.5h4q2 53 -6.5 103t-29.5 96.5t-61.5 75t-95.5 28.5q-68 0 -128 -62l-39 50q79 67 170 67q56 0 100.5 -21.5t72 -56t45.5 -82
t25.5 -96t7.5 -101.5zM423 296q-69 92 -159 92q-74 0 -112 -49t-38 -123t36.5 -123t102.5 -49q57 0 98 41t57.5 97t14.5 114z" />
    <glyph glyph-name="uni2206" unicode="&#x2206;" horiz-adv-x="645" 
d="M617 0h-589l255 692h78zM320 632l-208 -573h420l-208 573h-4z" />
    <glyph glyph-name="product" unicode="&#x220f;" horiz-adv-x="645" 
d="M580 -193h-64v858h-387v-858h-64v915h515v-915z" />
    <glyph glyph-name="summation" unicode="&#x2211;" horiz-adv-x="645" 
d="M600 -193h-545v65l331 419l-318 368v63h525v-59l-445 1v-4l319 -369l-340 -421v-4l473 1v-60z" />
    <glyph glyph-name="minus" unicode="&#x2212;" horiz-adv-x="570" 
d="M540 222h-510v58h510v-58z" />
    <glyph glyph-name="radical" unicode="&#x221a;" horiz-adv-x="575" 
d="M550 722l-200 -915h-83l-152 314l-54 -27l-26 51l108 55l158 -331h4l183 853h62z" />
    <glyph glyph-name="infinity" unicode="&#x221e;" horiz-adv-x="730" 
d="M365 219q-104 -112 -188 -112q-68 0 -107 44.5t-39 114.5q0 68 40 111t107 43q82 0 187 -119q105 119 187 119q67 0 107 -43t40 -111q0 -70 -39 -114.5t-107 -44.5q-84 0 -188 112zM640 264q0 45 -23 72.5t-66 27.5q-25 0 -50 -15t-42 -32.5t-53 -57.5q48 -51 78.5 -72.5
t68.5 -21.5q42 0 64.5 27.5t22.5 71.5zM90 264q0 -44 22.5 -71.5t64.5 -27.5q38 0 68.5 21.5t78.5 72.5q-36 40 -53 57.5t-42 32.5t-50 15q-43 0 -66 -27.5t-23 -72.5z" />
    <glyph glyph-name="integral" unicode="&#x222b;" horiz-adv-x="545" 
d="M260 -35q-15 316 -22 582q-2 72 38 111.5t105 39.5q28 0 53 -4v-53q-20 2 -43 2q-95 0 -91 -99l24 -585q3 -71 -39.5 -109t-109.5 -38q-28 0 -51 4v53q18 -2 43 -2q96 0 93 98z" />
    <glyph glyph-name="therefore" unicode="&#x2234;" horiz-adv-x="1000" 
d="M165 0q-24 0 -41 16.5t-17 41.5t17 41.5t41 16.5t41 -16.5t17 -41.5t-17 -41.5t-41 -16.5zM500 576q-24 0 -41 16.5t-17 41.5t17 41.5t41 16.5t41 -16.5t17 -41.5t-17 -41.5t-41 -16.5zM835 0q-24 0 -41 16.5t-17 41.5t17 41.5t41 16.5t41 -16.5t17 -41.5t-17 -41.5
t-41 -16.5z" />
    <glyph glyph-name="because" unicode="&#x2235;" horiz-adv-x="1000" 
d="M165 692q24 0 41 -16.5t17 -41.5t-17 -41.5t-41 -16.5t-41 16.5t-17 41.5t17 41.5t41 16.5zM500 116q24 0 41 -16.5t17 -41.5t-17 -41.5t-41 -16.5t-41 16.5t-17 41.5t17 41.5t41 16.5zM835 692q24 0 41 -16.5t17 -41.5t-17 -41.5t-41 -16.5t-41 16.5t-17 41.5t17 41.5
t41 16.5z" />
    <glyph glyph-name="approxequal" unicode="&#x2248;" horiz-adv-x="570" 
d="M299 202q4 -2 17.5 -8t19.5 -8.5t18 -7t20 -6.5t19.5 -4t21.5 -2q56 0 74 61h51q-12 -51 -44 -85.5t-83 -34.5q-45 0 -142 42q-4 2 -17.5 8t-19.5 8.5t-18 7t-20 6.5t-19.5 4t-21.5 2q-56 0 -74 -61h-51q12 51 44 85.5t83 34.5q47 0 142 -42zM299 397q4 -2 17.5 -8
t19.5 -8.5t18 -7t20 -6.5t19.5 -4t21.5 -2q56 0 74 61h51q-12 -51 -44 -85.5t-83 -34.5q-45 0 -142 42q-4 2 -17.5 8t-19.5 8.5t-18 7t-20 6.5t-19.5 4t-21.5 2q-56 0 -74 -61h-51q12 51 44 85.5t83 34.5q47 0 142 -42z" />
    <glyph glyph-name="notequal" unicode="&#x2260;" horiz-adv-x="570" 
d="M77 -52l99 176h-146v59h179l77 136h-256v59h289l100 177h65l-100 -177h156v-59h-190l-76 -136h266v-59h-300l-99 -176h-64z" />
    <glyph glyph-name="lessequal" unicode="&#x2264;" horiz-adv-x="570" 
d="M540 0h-510v58h510v-58zM540 111l-510 198v69l510 198v-62l-447 -169v-4l447 -168v-62z" />
    <glyph glyph-name="greaterequal" unicode="&#x2265;" horiz-adv-x="570" 
d="M540 0h-510v58h510v-58zM540 309l-510 -198v62l447 168v4l-447 169v62l510 -198v-69z" />
    <glyph glyph-name="lozenge" unicode="&#x25ca;" horiz-adv-x="575" 
d="M513 358l-190 -358h-70l-191 358l191 364h70zM446 357l-157 308h-4l-155 -308l157 -300h4z" />
    <glyph glyph-name="commaaccent" unicode="&#xf6c3;" horiz-adv-x="275" 
d="M134 -229h-47q39 30 55 60q6 10 -6 12q-19 3 -32 16t-13 32q0 22 13 35t33 13t34.5 -13t14.5 -35q0 -17 -4 -33q-11 -45 -48 -87z" />
    <glyph glyph-name="interfinity" horiz-adv-x="500" 
d="M256 734q78 0 130.5 -42.5t52.5 -113.5q0 -60 -34.5 -97t-98.5 -72q90 -58 90 -128q0 -51 -39.5 -83t-101.5 -32t-102.5 32t-40.5 83q0 68 89 126q-62 36 -96 74.5t-34 96.5q0 69 53 112.5t132 43.5zM257 681q-54 0 -89 -27t-35 -76q0 -26 9.5 -47t30.5 -38.5t37 -27.5
t45 -26q30 16 45.5 26t37 27.5t31.5 38.5t10 47q0 49 -34 76t-88 27zM335 281q0 19 -7.5 34.5t-22 28t-25.5 19.5t-28 16q-80 -46 -80 -98q0 -28 22.5 -46.5t59.5 -18.5t59 18.5t22 46.5zM255 116q-24 0 -41 -16.5t-17 -41.5t17 -41.5t41 -16.5t41 16.5t17 41.5t-17 41.5
t-41 16.5z" />
    <glyph glyph-name="at.case" horiz-adv-x="844" 
d="M620 478v74q0 59 -36.5 89t-102.5 30q-140 0 -234.5 -90t-94.5 -238q0 -143 93.5 -228t235.5 -85q160 0 287 125l37 -48q-146 -132 -324 -132q-161 0 -275.5 100t-114.5 268q0 171 115 275t276 104q89 0 143 -43.5t54 -126.5v-252q0 -39 4 -77h-60q-3 26 -3 66h-4
q-25 -26 -44.5 -41.5t-54.5 -29.5t-75 -14q-64 0 -104.5 41.5t-40.5 100.5q0 64 44 108.5t116 46.5q68 3 163 -23zM619 347v86q-99 21 -146 19q-55 0 -83.5 -29t-28.5 -73q0 -45 28 -69.5t80 -23.5q77 1 150 90z" />
    <glyph glyph-name="zero.numr" 
d="M18 485q0 30 6.5 63.5t21.5 71t46.5 61.5t74.5 24q40 0 71 -20.5t47 -53.5t24 -67.5t8 -69.5q0 -55 -12.5 -102.5t-48 -84.5t-89.5 -37q-73 0 -111 65t-38 150zM69 486q0 -79 24.5 -125.5t73.5 -46.5q53 0 76 49.5t23 123.5q0 83 -25.5 129t-72.5 46q-51 0 -75 -51
t-24 -125z" />
    <glyph glyph-name="one.numr" 
d="M170 283v362h-4q-55 -104 -126 -190v71q45 50 115 167h66v-410h-51z" />
    <glyph glyph-name="two.numr" 
d="M305 283h-271q-2 18 -2 38q0 55 26.5 86.5t77.5 59.5q35 19 71 43q48 33 48 80q0 34 -22 54t-60 20q-43 0 -63 -24t-18 -61h-55q-2 56 35 91.5t102 35.5q60 0 97.5 -33.5t37.5 -83.5q0 -67 -76 -117q-16 -11 -76 -43q-25 -13 -38.5 -22.5t-26.5 -31t-10 -48.5h223v-44z
" />
    <glyph glyph-name="three.numr" 
d="M20 392h55q2 -37 24 -58t64 -21q41 0 64 21t23 53q0 80 -111 87l-33 2v41l25 1q116 6 116 77q0 34 -23 51t-58 17q-32 0 -55 -17.5t-26 -46.5h-54q8 52 49 79t85 27q63 0 98 -31t35 -77q0 -67 -85 -98v-3q89 -26 89 -108q0 -49 -37.5 -83t-103.5 -34q-59 0 -98 33.5
t-43 87.5z" />
    <glyph glyph-name="four.numr" 
d="M216 283v91h-199v56q86 119 179 264h71v-278h58v-42h-58v-91h-51zM61 415h156v233h-3q-35 -56 -73.5 -113.5t-58.5 -86.5l-21 -30v-3z" />
    <glyph glyph-name="five.numr" 
d="M29 391h53q3 -35 25.5 -56.5t57.5 -21.5q44 0 67.5 31t23.5 77q0 108 -83 108q-54 0 -86 -57h-46l4 220h247v-44h-203l-5 -128h2q43 51 99 51q59 0 90 -43t31 -104q0 -66 -38.5 -110t-105.5 -44q-53 0 -90.5 34.5t-42.5 86.5z" />
    <glyph glyph-name="six.numr" 
d="M306 604h-49q-7 63 -71 63q-51 0 -83 -48t-33 -136h3q47 74 113 74q55 0 92.5 -38.5t37.5 -104.5q0 -60 -38.5 -102.5t-99.5 -42.5q-72 0 -111.5 59.5t-39.5 148.5q0 54 14 103.5t52.5 88.5t94.5 39q59 0 87.5 -32t30.5 -72zM178 312q40 0 65 28.5t25 73.5q0 47 -24 74
t-65 28q-42 1 -68 -30.5t-26 -68.5q0 -43 24.5 -74t68.5 -31z" />
    <glyph glyph-name="seven.numr" 
d="M36 650v42h280v-40q-49 -80 -92 -172t-62 -144l-18 -53h-57q70 191 180 365v2h-231z" />
    <glyph glyph-name="eight.numr" 
d="M256 592q0 34 -25 54.5t-63 20.5t-64 -20.5t-26 -54.5q0 -32 24 -53.5t66 -21.5q40 0 64 21t24 54zM73 390q0 -33 25 -55t70 -22q44 0 69 22.5t25 55.5q0 38 -25.5 60.5t-68.5 22.5q-45 0 -70 -23.5t-25 -60.5zM304 597q0 -71 -74 -99v-3q37 -13 59.5 -41.5t22.5 -65.5
q0 -47 -38.5 -82.5t-105.5 -35.5q-64 0 -105 33.5t-41 83.5q0 37 22.5 66t60.5 41v3q-36 12 -55 40t-19 60q0 38 33.5 73.5t103.5 35.5q67 0 101.5 -33.5t34.5 -75.5z" />
    <glyph glyph-name="nine.numr" 
d="M29 373h49q7 -63 71 -63q51 0 83 48t33 136h-3q-47 -74 -113 -74q-55 0 -92.5 38.5t-37.5 104.5q0 60 38.5 102.5t99.5 42.5q72 0 111.5 -59.5t39.5 -148.5q0 -54 -14 -103.5t-52 -88.5t-95 -39q-59 0 -87.5 32t-30.5 72zM156 667q-40 0 -65 -28.5t-25 -73.5
q0 -47 24 -74t65 -28q42 -1 68 30.5t26 68.5q0 43 -24.5 74t-68.5 31z" />
    <glyph glyph-name="zero.dnom" 
d="M18 202q0 30 6.5 63.5t21.5 71t46.5 61.5t74.5 24q40 0 71 -20.5t47 -53.5t24 -67.5t8 -69.5q0 -55 -12.5 -102.5t-48 -84.5t-89.5 -37q-73 0 -111 65t-38 150zM69 203q0 -79 24.5 -125.5t73.5 -46.5q53 0 76 49.5t23 123.5q0 83 -25.5 129t-72.5 46q-51 0 -75 -51
t-24 -125z" />
    <glyph glyph-name="one.dnom" 
d="M170 0v362h-4q-55 -104 -126 -190v71q45 50 115 167h66v-410h-51z" />
    <glyph glyph-name="two.dnom" 
d="M305 0h-271q-2 18 -2 38q0 55 26.5 86.5t77.5 59.5q35 19 71 43q48 33 48 80q0 34 -22 54t-60 20q-43 0 -63 -24t-18 -61h-55q-2 56 35 91.5t102 35.5q60 0 97.5 -33.5t37.5 -83.5q0 -67 -76 -117q-16 -11 -76 -43q-25 -13 -38.5 -22.5t-26.5 -31t-10 -48.5h223v-44z" />
    <glyph glyph-name="three.dnom" 
d="M20 109h55q2 -37 24 -58t64 -21q41 0 64 21t23 53q0 80 -111 87l-33 2v41l25 1q116 6 116 77q0 34 -23 51t-58 17q-32 0 -55 -17.5t-26 -46.5h-54q8 52 49 79t85 27q63 0 98 -31t35 -77q0 -67 -85 -98v-3q89 -26 89 -108q0 -49 -37.5 -83t-103.5 -34q-59 0 -98 33.5
t-43 87.5z" />
    <glyph glyph-name="four.dnom" 
d="M216 0v91h-199v56q86 119 179 264h71v-278h58v-42h-58v-91h-51zM61 132h156v233h-3q-35 -56 -73.5 -113.5t-58.5 -87.5l-21 -29v-3z" />
    <glyph glyph-name="five.dnom" 
d="M29 108h53q3 -35 25.5 -56.5t57.5 -21.5q44 0 67.5 31t23.5 77q0 108 -83 108q-54 0 -86 -57h-46l4 220h247v-44h-203l-5 -128h2q43 51 99 51q59 0 90 -43t31 -104q0 -66 -38.5 -110t-105.5 -44q-53 0 -90.5 34.5t-42.5 86.5z" />
    <glyph glyph-name="six.dnom" 
d="M306 321h-49q-7 63 -71 63q-51 0 -83 -48t-33 -136h3q47 74 113 74q55 0 92.5 -38.5t37.5 -104.5q0 -60 -38.5 -102.5t-99.5 -42.5q-72 0 -111.5 59.5t-39.5 148.5q0 54 14 103.5t52.5 88.5t94.5 39q59 0 87.5 -32t30.5 -72zM178 29q40 0 65 28.5t25 73.5q0 47 -24 74
t-65 28q-42 1 -68 -30.5t-26 -68.5q0 -43 24.5 -74t68.5 -31z" />
    <glyph glyph-name="seven.dnom" 
d="M36 367v42h280v-40q-49 -80 -92 -172.5t-62 -144.5l-18 -52h-57q70 191 180 365v2h-231z" />
    <glyph glyph-name="eight.dnom" 
d="M256 309q0 34 -25 54.5t-63 20.5t-64 -20.5t-26 -54.5q0 -32 24 -53.5t66 -21.5q40 0 64 21t24 54zM73 107q0 -33 25 -55t70 -22q44 0 69 22.5t25 55.5q0 38 -25.5 60.5t-68.5 22.5q-45 0 -70 -23.5t-25 -60.5zM304 314q0 -71 -74 -99v-3q37 -13 59.5 -41.5t22.5 -65.5
q0 -47 -38.5 -82.5t-105.5 -35.5q-64 0 -105 33.5t-41 83.5q0 37 22.5 66t60.5 41v3q-36 12 -55 40t-19 60q0 38 33.5 73.5t103.5 35.5q67 0 101.5 -33.5t34.5 -75.5z" />
    <glyph glyph-name="nine.dnom" 
d="M29 90h49q7 -63 71 -63q51 0 83 48t33 136h-3q-47 -74 -113 -74q-55 0 -92.5 38.5t-37.5 104.5q0 60 38.5 102.5t99.5 42.5q72 0 111.5 -59.5t39.5 -148.5q0 -54 -14 -103.5t-52 -88.5t-95 -39q-59 0 -87.5 32t-30.5 72zM156 384q-40 0 -65 -28.5t-25 -73.5q0 -47 24 -74
t65 -28q42 -1 68 30.5t26 68.5q0 43 -24.5 74t-68.5 31z" />
    <glyph glyph-name="caron.salt" horiz-adv-x="275" 
d="M137 546h-49q43 36 54 63q4 11 -9 13q-19 2 -32.5 16t-13.5 34q0 22 13 36t35 14t37 -13.5t15 -36.5q0 -17 -4 -33q-13 -49 -46 -93z" />
    <glyph glyph-name="caron.case" horiz-adv-x="386" 
d="M336 919l-142 -152l-144 152h67l74 -68h6l72 68h67z" />
    <glyph glyph-name="circumflex.case" horiz-adv-x="386" 
d="M194 924l142 -152h-67l-72 69h-6l-74 -69h-67z" />
    <glyph glyph-name="acute.case" horiz-adv-x="313" 
d="M230 919l33 -57l-189 -97l-24 42z" />
    <glyph glyph-name="grave.case" horiz-adv-x="313" 
d="M50 862l33 57l180 -112l-24 -42z" />
    <glyph glyph-name="macron.case" horiz-adv-x="390" 
d="M50 787v56h290v-56h-290z" />
    <glyph glyph-name="breve.case" horiz-adv-x="373" 
d="M186 826q36 0 58 18t27 34t6 31h45q2 -64 -35 -102.5t-101 -38.5q-65 0 -101 38.5t-34 102.5h45q0 -8 1.5 -16t7.5 -21t15 -22.5t26 -16.5t40 -7z" />
    <glyph glyph-name="ring.case" horiz-adv-x="274" 
d="M50 850q0 36 25 59.5t62 23.5t62 -23.5t25 -59.5t-25 -60t-62 -24t-62 24t-25 60zM89 850q0 -21 13.5 -34t34.5 -13q20 0 33.5 13t13.5 34t-13.5 34t-33.5 13q-21 0 -34.5 -13t-13.5 -34z" />
    <glyph glyph-name="tilde.case" horiz-adv-x="401" 
d="M273 777q-34 0 -81 27q-44 25 -63 25q-21 0 -28.5 -13t-9.5 -37h-41q5 111 79 111q32 0 83 -30q37 -22 61 -22q21 0 28.5 13t9.5 37h40q-5 -111 -78 -111z" />
    <glyph glyph-name="dotaccent.case" horiz-adv-x="275" 
d="M137 781q-21 0 -34.5 13.5t-13.5 33.5q0 21 13.5 34.5t34.5 13.5t34.5 -13.5t13.5 -34.5q0 -20 -13.5 -33.5t-34.5 -13.5z" />
    <glyph glyph-name="hungarumlaut.case" horiz-adv-x="460" 
d="M197 937l41 -49l-157 -116l-28 34zM369 937l41 -49l-157 -116l-28 34z" />
    <glyph glyph-name="dieresis.case" horiz-adv-x="372" 
d="M97 782q-21 0 -34 13.5t-13 32.5q0 20 13 33.5t34 13.5t34 -13.5t13 -33.5q0 -19 -13 -32.5t-34 -13.5zM275 782q-21 0 -34 13.5t-13 32.5q0 20 13 33.5t34 13.5t34 -13.5t13 -33.5q0 -19 -13 -32.5t-34 -13.5z" />
    <glyph glyph-name="afii10072.BUL" horiz-adv-x="653" 
d="M298 260l-1 462h59l-1 -462h4l188 242h76l-207 -253l227 -249h-79l-205 233h-4l1 -233h-59l1 233h-4l-205 -233h-79l227 249l-207 253h76l188 -242h4z" />
    <glyph glyph-name="afii10096.BUL" horiz-adv-x="725" 
d="M80 0v722h60v-220l-1 -216h109q6 58 30 107.5t73 85t113 35.5q56 0 99.5 -25t68 -65t36.5 -84.5t12 -89.5q0 -108 -57.5 -187t-158.5 -79t-157 72t-61 177h-107l1 -233h-60zM309 251q0 -88 37.5 -150.5t116.5 -62.5q69 0 110.5 57.5t41.5 156.5q0 93 -41 150.5t-110 57.5
q-65 0 -110 -54t-45 -155z" />
    <glyph glyph-name="afii10068.BUL" horiz-adv-x="455" 
d="M340 139h65q-6 -75 -55.5 -114.5t-122.5 -39.5q-80 0 -127.5 40t-47.5 105q0 34 14.5 60.5t41 45t51.5 29.5t58 21q61 19 89.5 40t28.5 57q0 37 -28 58.5t-71 21.5q-45 0 -74 -25.5t-30 -64.5h-65q7 67 54 105.5t115 38.5q74 0 118 -38t44 -101q0 -58 -43.5 -90.5
t-116.5 -55.5q-65 -21 -94.5 -43.5t-29.5 -63.5q0 -39 30.5 -62t80.5 -23q57 0 87 31.5t28 67.5z" />
    <glyph glyph-name="afii10075.BUL" horiz-adv-x="557" 
d="M477 502v-355l4 -147h-56l-4 89h-4q-25 -42 -70.5 -73t-104.5 -31q-76 0 -119 45t-43 129v343h60v-344q0 -119 108 -119q58 0 105.5 43.5t63.5 107.5v312h60zM138 604v55h280v-55h-280z" />
    <glyph glyph-name="afii10077.BUL" horiz-adv-x="533" 
d="M25 0l211 504h70l202 -504h-68l-167 437h-4l-175 -437h-69z" />
    <glyph glyph-name="afii10081.BUL" horiz-adv-x="557" 
d="M80 0v355l-4 147h56l4 -89h4q25 41 72 72.5t106 31.5q76 0 117.5 -43.5t41.5 -128.5v-345h-60v344q0 119 -107 119q-58 0 -106 -44.5t-64 -108.5v-310h-60z" />
    <glyph glyph-name="afii10084.BUL" horiz-adv-x="858" 
d="M80 0v355l-4 147h56l4 -84h4q24 40 68.5 69.5t99.5 29.5q110 0 143 -104h4q25 41 69.5 72.5t99.5 31.5q71 0 112.5 -44t41.5 -125v-348h-60v347q0 57 -27 86.5t-74 29.5q-56 0 -99 -42t-59 -106v-315h-60v354q0 109 -101 109q-56 0 -99 -42t-59 -106v-315h-60z" />
    <glyph glyph-name="afii10088.BUL" horiz-adv-x="577" 
d="M537 56l-4 -174h-56v118h-56l-4 89h-4q-26 -42 -69.5 -73t-102.5 -31q-75 0 -118 45t-43 129v343h60v-344q0 -119 107 -119q58 0 104 43.5t62 107.5v312h59v-446h65z" />
    <glyph glyph-name="afii10090.BUL" horiz-adv-x="848" 
d="M768 502v-355l4 -147h-56l-4 84h-4q-60 -99 -161 -99q-54 0 -91.5 27t-53.5 77h-4q-26 -42 -68 -73t-96 -31q-71 0 -112.5 44t-41.5 125v348h60v-347q0 -58 26.5 -87t72.5 -29q56 0 97.5 41.5t57.5 106.5v315h60v-354q0 -109 99 -109q56 0 97.5 41.5t57.5 106.5v315h60z
" />
    <glyph glyph-name="afii10091.BUL" horiz-adv-x="867" 
d="M827 56l-4 -174h-56v118h-57l-4 84h-4q-60 -99 -160 -99q-109 0 -142 104h-4q-26 -42 -68 -73t-96 -31q-71 0 -111.5 44t-40.5 125v348h60v-347q0 -116 97 -116q56 0 97 41.5t57 106.5v315h60v-354q0 -109 97 -109q56 0 97 41.5t57 106.5v315h60v-446h65z" />
    <glyph glyph-name="afii10092.BUL" horiz-adv-x="521" 
d="M305 -10q-67 0 -121 41t-54 120l1 297l-113 -1v55h173l-1 -198l-1 -64h4q17 23 53 43t82 20q66 0 112 -43t46 -111q0 -67 -49.5 -113t-131.5 -46zM311 248q-40 0 -72.5 -22t-47.5 -59v-22q0 -44 33 -72.5t84 -28.5q50 0 82.5 27.5t32.5 75.5q0 46 -32 73.5t-80 27.5z" />
    <glyph glyph-name="afii10094.BUL" horiz-adv-x="471" 
d="M80 151v351h60v-198l-1 -64h4q17 23 53 43t82 20q66 0 112 -43t46 -111q0 -67 -49.5 -113t-131.5 -46q-67 0 -121 41t-54 120zM262 248q-40 0 -73 -22t-48 -59v-22q0 -44 33 -72.5t84 -28.5q50 0 82.5 27.5t32.5 75.5q0 47 -32 74t-79 27z" />
    <glyph glyph-name="afii10076.BUL" horiz-adv-x="485" 
d="M80 0v722h60v-457h4l238 238h82l-254 -249l263 -254h-81l-248 236h-4v-236h-60z" />
    <glyph glyph-name="afii10029.BUL" horiz-adv-x="700" 
d="M394 722l261 -722h-71l-229 658h-4l-237 -658h-71l269 722h82z" />
    <glyph glyph-name="afii10073.BUL" horiz-adv-x="464" 
d="M150 236v51q26 0 58 2q125 7 125 91q0 38 -30 60.5t-82 22.5q-92 0 -121 -82h-66q18 61 67 98t122 37q80 0 127.5 -35.5t47.5 -96.5q0 -38 -26.5 -70.5t-80.5 -50.5v-4q53 -14 83 -56t30 -94v-78q-1 -97 -53.5 -149t-145.5 -52q-86 0 -137 47.5t-58 109.5h67
q3 -42 38.5 -72.5t89.5 -30.5q138 0 138 140v89q0 105 -128 120q-25 3 -65 3z" />
    <glyph glyph-name="afii10074.BUL" horiz-adv-x="557" 
d="M477 502v-355l4 -147h-56l-4 89h-4q-25 -42 -70.5 -73t-104.5 -31q-76 0 -119 45t-43 129v343h60v-344q0 -119 108 -119q58 0 105.5 43.5t63.5 107.5v312h60z" />
    <glyph glyph-name="afii10067.BUL" horiz-adv-x="532" 
d="M135 534q-6 -165 0 -344q2 -65 40 -106.5t104 -41.5q67 0 103.5 40t36.5 105q0 67 -39.5 106t-109.5 46q-33 3 -64 3v54q35 0 55 2q70 7 106 45t36 98t-36 93.5t-96 33.5q-64 0 -99 -37t-37 -97zM76 193q-3 163 0 336q2 91 56.5 142t139.5 51q87 0 140 -48t53 -126
q0 -120 -121 -174v-4q62 -20 100 -68.5t38 -115.5q0 -85 -53.5 -142t-150.5 -57q-94 0 -147 58.5t-55 147.5z" />
    <glyph glyph-name="afii10069.BUL" horiz-adv-x="548" 
d="M424 502h60q-4 -22 -10 -74.5t-6 -72.5v-345q0 -97 -53 -149t-146 -52q-85 0 -136 47t-58 105h67q2 -41 38 -69.5t90 -28.5q138 0 138 139l2 88h-4q-24 -37 -66.5 -62t-93.5 -25q-90 0 -145.5 73.5t-55.5 182.5q0 111 57.5 184.5t150.5 73.5q41 0 77 -19t52.5 -37
t25.5 -34h4zM109 262q0 -90 38.5 -147.5t111.5 -57.5q57 0 100 44.5t49 94.5v125q-7 52 -50.5 97.5t-99.5 45.5q-72 0 -110.5 -57.5t-38.5 -144.5z" />
    <glyph glyph-name="afii10021.BUL" horiz-adv-x="715" 
d="M100 0v-133h-61l-4 133v62h80l202 660h86l196 -660h81v-62l-4 -133h-61v133h-515zM359 661l-180 -604h356l-172 604h-4z" />
    <glyph glyph-name="afii10038.BUL" horiz-adv-x="822" 
d="M378 -102v174q-147 9 -240 84t-93 203q0 125 95.5 202t237.5 86v147h65v-147q141 -9 237.5 -86t96.5 -202q0 -127 -93.5 -202.5t-240.5 -83.5v-175h-65zM113 359q0 -103 72 -161.5t193 -65.5v456q-116 -8 -190.5 -68t-74.5 -161zM709 359q0 102 -75 162t-191 68v-457
q121 7 193.5 65t72.5 162z" />
    <glyph glyph-name="afii10017.BULgrave" horiz-adv-x="605" 
d="M154 862l33 57l180 -112l-24 -42zM524 0l-66 195h-316l-64 -195h-68l244 722h88l253 -722h-71zM297 659l-135 -404h275l-136 404h-4z" />
    <glyph glyph-name="afii10022.BULgrave" horiz-adv-x="571" 
d="M100 0v722h400v-60h-335v-264h321v-60h-321v-278h346v-60h-411zM194 862l33 57l180 -112l-24 -42z" />
    <glyph glyph-name="afii10026.BULgrave" horiz-adv-x="756" 
d="M666 722v-722h-65v629h-4l-422 -629h-85v722h65v-640h4l431 640h76zM271 862l33 57l180 -112l-24 -42z" />
    <glyph glyph-name="afii10032.BULgrave" horiz-adv-x="802" 
d="M60 366q0 98 39 181.5t118 136.5t183 53q157 0 249.5 -108t92.5 -267q0 -174 -96.5 -275.5t-246.5 -101.5q-146 0 -242.5 105t-96.5 276zM130 364q0 -138 74.5 -228.5t194.5 -90.5q130 0 201.5 90.5t71.5 227.5q0 138 -73.5 226t-199.5 88q-124 0 -196.5 -90.5
t-72.5 -222.5zM254 862l33 57l180 -112l-24 -42z" />
    <glyph glyph-name="afii10037.BULgrave" horiz-adv-x="581" 
d="M480 722h71l-237 -642q-35 -94 -134 -94q-33 0 -79 18l10 63q31 -19 68 -19q48 0 68 49l37 98q6 15 -3.5 25.5t-25.5 8.5l-225 493h78l201 -460h5zM154 862l33 57l180 -112l-24 -42z" />
    <glyph glyph-name="afii10044.BULgrave" horiz-adv-x="629" 
d="M174 663l-154 -2v61h219v-300h97q107 0 180 -56t73 -154q0 -102 -76.5 -157t-186.5 -55h-152v663zM239 363v-303l91 1q84 1 136.5 38t52.5 112q0 73 -52 111.5t-125 39.5zM8 862l33 57l180 -112l-24 -42z" />
    <glyph glyph-name="afii10045.BULgrave" horiz-adv-x="745" 
d="M165 722v-306h47q106 0 178 -54.5t72 -152.5q0 -101 -75.5 -155t-185.5 -54h-101v722h65zM165 357v-297l40 1q84 1 136 37.5t52 109.5q0 72 -51.5 109.5t-124.5 38.5zM645 0h-65v722h65v-722zM266 862l33 57l180 -112l-24 -42z" />
    <glyph glyph-name="afii10047.BULgrave" horiz-adv-x="679" 
d="M115 521h-69q16 102 84 158t175 56q79 0 141 -32.5t98.5 -86.5t55.5 -119t19 -136q0 -64 -17.5 -127t-53 -120t-98.5 -92.5t-145 -35.5q-110 0 -181 59t-84 162h69q6 -70 56.5 -115t137.5 -45q112 0 177 85t71 207l-296 -1v61l296 -1q-8 124 -73 201.5t-174 77.5
q-85 0 -133 -43t-56 -113zM143 862l33 57l180 -112l-24 -42z" />
    <glyph glyph-name="afii10048.BULgrave" horiz-adv-x="972" 
d="M100 722h65l-1 -318h139q7 89 42 163t103 122t157 48q146 0 226.5 -108t80.5 -266q0 -171 -83.5 -274.5t-223.5 -103.5q-130 0 -213.5 99t-89.5 260h-138l1 -344h-65v722zM369 364q0 -140 63 -229.5t173 -89.5q79 0 134 44.5t79.5 114.5t24.5 160q0 139 -62.5 226
t-175.5 87q-111 0 -173.5 -90t-62.5 -223zM339 862l33 57l180 -112l-24 -42z" />
    <glyph glyph-name="afii10049.BULgrave" horiz-adv-x="579" 
d="M489 722v-722h-65v325h-74l-266 -325h-84l281 333q-102 11 -158 63t-56 130q0 91 70 143.5t175 52.5h177zM424 386v277l-115 -1q-75 -1 -123.5 -36.5t-48.5 -100.5q0 -64 50 -99.5t129 -37.5zM213 862l33 57l180 -112l-24 -42z" />
    <glyph glyph-name="afii10065.BULgrave" horiz-adv-x="504" 
d="M99 681l37 53l168 -127l-25 -37zM435 0h-63l4 74h-4q-79 -88 -182 -88q-69 0 -110 41.5t-41 110.5q0 71 50 115.5t127 44.5q72 0 156 -20v66q-1 119 -126 119q-56 0 -88 -29t-37 -70h-70q13 67 66 108.5t130 41.5q85 0 134.5 -42.5t49.5 -125.5v-272q0 -54 4 -74z
M372 139v93q-74 16 -138 16q-63 0 -98 -29t-35 -80q0 -47 29 -73.5t79 -26.5q51 0 96 32.5t67 67.5z" />
    <glyph glyph-name="afii10070.BULgrave" horiz-adv-x="515" 
d="M115 681l37 53l168 -127l-25 -37zM472 245h-360q-1 -84 43.5 -144.5t118.5 -60.5q58 0 91.5 31.5t41.5 83.5h63q-9 -71 -59 -120.5t-141 -49.5q-99 0 -160.5 79.5t-62.5 191.5q-1 110 60 185t163 75t153 -71t51 -169q0 -11 -2 -31zM114 299l295 2q0 24 -5.5 49
t-19.5 51.5t-43.5 43.5t-70.5 17q-71 0 -109 -45t-47 -118z" />
    <glyph glyph-name="afii10074.BULgrave" horiz-adv-x="577" 
d="M80 0v502h59l-1 -423h4l280 423h75v-502h-59l1 423h-4l-280 -423h-75zM156 681l37 53l168 -127l-25 -37z" />
    <glyph glyph-name="afii10080.BULgrave" horiz-adv-x="558" 
d="M45 251q0 46 14 90.5t41 84.5t74.5 64.5t107.5 24.5q59 0 105.5 -25t72.5 -65.5t39.5 -85t13.5 -89.5q0 -108 -61 -187.5t-171 -79.5q-112 0 -174 78.5t-62 189.5zM110 251q0 -86 43.5 -149.5t126.5 -63.5q75 0 121.5 57t46.5 157q0 95 -46 151.5t-121 56.5
q-71 0 -121 -52.5t-50 -156.5zM126 681l37 53l168 -127l-25 -37z" />
    <glyph glyph-name="afii10085.BULgrave" horiz-adv-x="476" 
d="M95 681l37 53l168 -127l-25 -37zM88 502l157 -435h4l138 435h66q-56 -168 -98 -295.5t-58 -177.5t-27.5 -84.5l-18.5 -55.5q-27 -80 -117 -80q-32 0 -61 12l5 54q27 -11 56 -11q46 0 63 43q20 52 30 93q4 17 -5.5 28.5t-28.5 8.5l-173 465h68z" />
    <glyph glyph-name="afii10092.BULgrave" horiz-adv-x="510" 
d="M20 447v55h177v-201h70q91 0 149.5 -37t58.5 -110q0 -71 -59.5 -112.5t-147.5 -41.5h-131v448zM197 52l77 1q60 1 98.5 27.5t38.5 73.5q0 48 -37.5 71t-99.5 24l-77 1v-198zM2 681l37 53l168 -127l-25 -37z" />
    <glyph glyph-name="afii10093.BULgrave" horiz-adv-x="585" 
d="M80 502h60v-205h26q88 0 141.5 -37t53.5 -108q0 -69 -54 -110.5t-140 -41.5h-87v502zM171 53q58 2 92 27.5t34 70.5q0 91 -126 94l-31 1v-194zM445 0v502h60v-502h-60zM180 681l37 53l168 -127l-25 -37z" />
    <glyph glyph-name="afii10095.BULgrave" horiz-adv-x="503" 
d="M90 681l37 53l168 -127l-25 -37zM177 234v56l216 -2q-8 77 -48.5 125.5t-111.5 48.5q-59 0 -91 -32t-38 -82h-65q8 74 61 121t133 47q101 0 163 -72.5t62 -194.5q0 -115 -61 -189t-163 -74q-87 0 -137 48t-64 125h65q7 -51 41.5 -85t92.5 -34q73 0 115.5 57.5t46.5 137.5
z" />
    <glyph glyph-name="afii10096.BULgrave" horiz-adv-x="725" 
d="M230 681l37 53l168 -127l-25 -37zM80 0v502h60l-1 -216h109q6 58 30 107.5t73 85t113 35.5q56 0 99.5 -25t68 -65t36.5 -84.5t12 -89.5q0 -108 -57.5 -187t-158.5 -79t-157 72t-61 177h-107l1 -233h-60zM309 251q0 -88 37.5 -150.5t116.5 -62.5q69 0 110.5 57.5
t41.5 156.5q0 93 -41 150.5t-110 57.5q-65 0 -110 -54t-45 -155z" />
    <glyph glyph-name="afii10097.BULgrave" horiz-adv-x="475" 
d="M395 0h-60v223h-47l-194 -223h-79l205 229q-62 9 -108 42t-46 92q0 66 54 102.5t142 36.5h133v-502zM257 275l78 -1v178l-78 -1q-56 -1 -91 -24.5t-35 -64.5q0 -39 35 -62.5t91 -24.5zM135 681l37 53l168 -127l-25 -37z" />
    <glyph glyph-name="RP" horiz-adv-x="810" 
d="M361 433l-140 246l6 4l140 -247zM450 433l140 246l-6 4l-140 -247zM361 297l-140 -246l6 -4l140 247zM450 297l140 -246l-6 -4l-140 247zM338 319l-230 -164l4 -6l230 165zM473 411l230 164l-4 6l-230 -165zM338 411l-230 164l4 6l230 -165zM473 319l230 -164l-4 -6
l-230 165zM377 441l-87 269l7 2l86 -269zM377 289l-87 -269l7 -2l86 269zM434 441l87 269l-7 2l-86 -269zM434 289l87 -269l-7 -2l-86 269zM349 307l-190 -210l5 -5l190 211zM349 423l-190 210l5 5l190 -211zM462 423l190 210l-5 5l-190 -211zM462 307l190 -210l-5 -5
l-190 211zM330 335l-260 -114l3 -6l260 114zM481 395l260 114l-3 6l-260 -114zM481 335l260 -114l-3 -6l-260 114zM330 395l-260 114l3 6l260 -114zM325 379l-277 57l2 7l276 -58zM325 351l-277 -57l2 -7l276 58zM486 379l277 57l-2 7l-276 -58zM486 351l277 -57l-2 -7
l-276 58zM394 285l-31 -281l7 -1l30 281zM417 445l31 281l-7 1l-30 -281zM417 285l31 -281l-7 -1l-30 281zM394 445l-31 281l7 1l30 -281zM40 368h284v-6h-284v6zM770 368h-283v-6h283v6zM490 476l133 181l-6 5l-133 -182zM321 476l-133 181l6 5l133 -182zM321 254
l-133 -181l6 -5l133 182zM490 254l133 -181l-6 -5l-133 182zM373 501l-46 219l7 2l46 -220zM373 229l-46 -219l7 -2l46 220zM438 501l46 219l-7 2l-46 -220zM438 229l46 -219l-7 -2l-46 220zM402 225v-225h7v225h-7zM402 505v225h7v-225h-7zM528 299l196 -112l-3 -6
l-197 112zM283 299l-196 -112l3 -6l197 112zM283 431l-196 112l3 6l197 -112zM528 431l196 112l-3 6l-197 -112zM540 325l214 -68l-2 -7l-214 69zM540 405l214 68l-2 7l-214 -69zM271 325l-214 -68l2 -7l214 69zM271 405l-214 68l2 7l214 -69zM679 606l-5 5l-167 -151l4 -5z
M132 606l5 5l167 -151l-4 -5zM679 124l-5 -5l-167 151l4 5zM132 124l5 -5l167 151l-4 5zM347 491l-92 206l6 3l92 -206zM464 491l92 206l-6 3l-92 -206zM464 239l92 -206l-6 -3l-92 206zM347 239l-92 -206l6 -3l92 206zM769 331l-1 -7l-224 24l1 6zM42 399l1 7l224 -24
l-1 -6zM769 399l-1 7l-224 -24l1 -6zM42 331l1 -7l224 24l-1 6z" />
    <glyph glyph-name="M.ss01" horiz-adv-x="942" 
d="M95 0v722h107l270 -653h4l265 653h106v-722h-65l2 657h-7l-275 -675h-58l-280 675h-5l2 -657h-66z" />
    <glyph glyph-name="G.ss01" horiz-adv-x="740" 
d="M657 532h-75q-10 69 -59 107.5t-132 38.5q-122 0 -192 -90.5t-70 -221.5q0 -142 62.5 -232t185.5 -90q99 0 165.5 71t65.5 166l-297 -22v73h360v-332h-51l-5 132h-4q-31 -66 -95.5 -106.5t-144.5 -40.5q-77 0 -138 32t-98 86t-56 121t-19 142q0 97 39 180.5t116.5 137
t178.5 53.5q107 0 175.5 -54t87.5 -151z" />
    <glyph glyph-name="i.ss01" horiz-adv-x="220" 
d="M80 0v502h60v-502h-60zM145 722v-75h-70v75h70z" />
    <glyph glyph-name="j.ss01" horiz-adv-x="232" 
d="M89 -57v559h60v-555q0 -140 -111 -140q-22 0 -38 4v54q45 -5 67 13.5t22 64.5zM154 722v-75h-70v75h70z" />
    <glyph glyph-name="adieresis.ss01" horiz-adv-x="504" 
d="M372 0h63q-4 20 -4 74v272q0 83 -49.5 125.5t-134.5 42.5q-77 0 -130 -41.5t-66 -108.5h70q5 41 37 70t88 29q125 0 126 -119v-66q-84 20 -156 20q-77 0 -127 -44.5t-50 -115.5q0 -69 41 -110.5t110 -41.5q103 0 182 88h4zM372 232v-93q-22 -35 -67 -67.5t-96 -32.5
q-50 0 -79 26.5t-29 73.5q0 51 35 80t98 29q64 0 138 -16zM206 692v-75h-70v75h70zM368 692v-75h-70v75h70z" />
    <glyph glyph-name="cdotaccent.ss01" horiz-adv-x="508" 
d="M457 346h-65q-6 51 -37 83.5t-89 32.5q-80 0 -118 -60t-38 -152q0 -86 40 -148t117 -62q58 0 90.5 35t40.5 87h65q-14 -79 -63 -128t-135 -49q-102 0 -161 74t-59 190q0 122 60.5 195t161.5 73q80 0 131 -47.5t59 -123.5zM289 702v-75h-70v75h70z" />
    <glyph glyph-name="dcaron.ss01" horiz-adv-x="608" 
d="M418 502v220h60v-644q0 -58 4 -78h-64l4 79h-4q-25 -40 -68 -67t-95 -27q-99 0 -154.5 78t-55.5 193q0 112 56 186.5t150 74.5q60 0 102.5 -28.5t61.5 -59.5h4q-1 38 -1 73zM110 256q0 -100 39.5 -158t111.5 -58q61 0 106 46.5t51 104.5v118q-4 58 -48.5 105.5
t-109.5 47.5q-71 0 -110.5 -56t-39.5 -150zM556 633h-36v89h86v-73q-20 -59 -55 -103h-47q40 36 60 73q3 5 0.5 9.5t-8.5 4.5z" />
    <glyph glyph-name="edieresis.ss01" horiz-adv-x="527" 
d="M472 245h-360q-1 -84 43.5 -144.5t118.5 -60.5q58 0 91.5 31.5t41.5 83.5h63q-9 -71 -59 -120.5t-141 -49.5q-99 0 -160.5 79.5t-62.5 191.5q-1 110 60 185t163 75t153 -71t51 -169q0 -11 -2 -31zM114 299l295 2q0 24 -5.5 49t-19.5 51.5t-43.5 43.5t-70.5 17
q-71 0 -109 -45t-47 -118zM211 692v-75h-70v75h70zM373 692v-75h-70v75h70z" />
    <glyph glyph-name="edotaccent.ss01" horiz-adv-x="527" 
d="M472 245h-360q-1 -84 43.5 -144.5t118.5 -60.5q58 0 91.5 31.5t41.5 83.5h63q-9 -71 -59 -120.5t-141 -49.5q-99 0 -160.5 79.5t-62.5 191.5q-1 110 60 185t163 75t153 -71t51 -169q0 -11 -2 -31zM114 299l295 2q0 24 -5.5 49t-19.5 51.5t-43.5 43.5t-70.5 17
q-71 0 -109 -45t-47 -118zM298 702v-75h-70v75h70z" />
    <glyph glyph-name="gdotaccent.ss01" horiz-adv-x="548" 
d="M484 502h-60l-12 -75h-4q-9 16 -25.5 34t-52.5 37t-77 19q-93 0 -150.5 -73.5t-57.5 -184.5q0 -109 55.5 -182.5t145.5 -73.5q51 0 93.5 25t66.5 62h4l-2 -88q0 -139 -138 -139q-54 0 -90 28.5t-38 69.5h-67q7 -58 58 -105t136 -47q93 0 146 52t53 149v345q0 20 6 72.5
t10 74.5zM109 262q0 87 38.5 144.5t110.5 57.5q56 0 99.5 -45.5t50.5 -97.5v-125q-6 -50 -49 -94.5t-100 -44.5q-73 0 -111.5 57.5t-38.5 147.5zM291 702v-75h-70v75h70z" />
    <glyph glyph-name="gcommaaccent.ss01" horiz-adv-x="548" 
d="M484 502h-60l-12 -75h-4q-9 16 -25.5 34t-52.5 37t-77 19q-93 0 -150.5 -73.5t-57.5 -184.5q0 -109 55.5 -182.5t145.5 -73.5q51 0 93.5 25t66.5 62h4l-2 -88q0 -139 -138 -139q-54 0 -90 28.5t-38 69.5h-67q7 -58 58 -105t136 -47q93 0 146 52t53 149v345q0 20 6 72.5
t10 74.5zM109 262q0 87 38.5 144.5t110.5 57.5q56 0 99.5 -45.5t50.5 -97.5v-125q-6 -50 -49 -94.5t-100 -44.5q-73 0 -111.5 57.5t-38.5 147.5zM274 650h36v-87h-86v71q19 57 54 96h48q-40 -32 -60 -66q-3 -5 -0.5 -9.5t8.5 -4.5z" />
    <glyph glyph-name="idieresis.ss01" horiz-adv-x="228" 
d="M84 0v502h60v-502h-60zM68 692v-75h-70v75h70zM230 692v-75h-70v75h70z" />
    <glyph glyph-name="iogonek.ss01" horiz-adv-x="220" 
d="M80 0v502h60v-502q-114 -57 -114 -112q0 -38 45 -38q28 0 69 22v-35q-46 -30 -87 -30q-37 0 -59 19t-22 52q0 65 112 122h-4zM145 722v-75h-70v75h70z" />
    <glyph glyph-name="kcommaaccent.ss01" horiz-adv-x="485" 
d="M80 0v722h60v-442h4l237 222h83l-255 -235l264 -267h-82l-247 251h-4v-251h-60zM262 -149h-36v87h86v-71q-19 -57 -54 -96h-48q40 32 60 66q3 5 0.5 9.5t-8.5 4.5z" />
    <glyph glyph-name="lcaron.ss01" horiz-adv-x="271" 
d="M140 519v-519h-60v722h52zM224 633h-36v89h86v-73q-20 -59 -55 -103h-47q40 36 60 73q3 5 0.5 9.5t-8.5 4.5z" />
    <glyph glyph-name="lcommaaccent.ss01" horiz-adv-x="220" 
d="M140 519v-519h-60v722h52zM105 -149h-36v87h86v-71q-19 -57 -54 -96h-48q40 32 60 66q3 5 0.5 9.5t-8.5 4.5z" />
    <glyph glyph-name="ldot.ss01" horiz-adv-x="314" 
d="M140 519v-519h-60v722h52zM224 266v108h90v-108h-90z" />
    <glyph glyph-name="ncommaaccent.ss01" horiz-adv-x="557" 
d="M80 0v355l-4 147h56l4 -89h4q25 41 72 72.5t106 31.5q76 0 117.5 -43.5t41.5 -128.5v-345h-60v344q0 119 -107 119q-58 0 -106 -44.5t-64 -108.5v-310h-60zM276 -149h-36v87h86v-71q-19 -57 -54 -96h-48q40 32 60 66q3 5 0.5 9.5t-8.5 4.5z" />
    <glyph glyph-name="odieresis.ss01" horiz-adv-x="558" 
d="M45 251q0 46 14 90.5t41 84.5t74.5 64.5t107.5 24.5q59 0 105.5 -25t72.5 -65.5t39.5 -85t13.5 -89.5q0 -108 -61 -187.5t-171 -79.5q-112 0 -174 78.5t-62 189.5zM110 251q0 -86 43.5 -149.5t126.5 -63.5q75 0 121.5 57t46.5 157q0 95 -46 151.5t-121 56.5
q-71 0 -121 -52.5t-50 -156.5zM233 692v-75h-70v75h70zM395 692v-75h-70v75h70z" />
    <glyph glyph-name="rcommaaccent.ss01" horiz-adv-x="348" 
d="M80 0v355q0 84 -4 147h56l4 -105h4q14 53 49.5 86.5t90.5 33.5q27 0 53 -15v-58q-25 16 -55 16q-64 0 -96.5 -58t-41.5 -148v-254h-60zM104 -149h-36v87h86v-71q-19 -57 -54 -96h-48q40 32 60 66q3 5 0.5 9.5t-8.5 4.5z" />
    <glyph glyph-name="uni0219.ss01" horiz-adv-x="450" 
d="M45 139h65q-2 -36 28 -67.5t87 -31.5q50 0 80.5 23t30.5 62q0 41 -27 62.5t-95 44.5q-31 10 -54 20.5t-50 27.5t-41.5 42t-14.5 56q0 62 45.5 100.5t119.5 38.5q67 0 113 -38.5t53 -105.5h-64q-1 39 -30 64.5t-74 25.5q-43 0 -71.5 -21t-28.5 -58q0 -36 28.5 -57
t88.5 -40q27 -8 46 -15.5t43.5 -20.5t39.5 -28t25.5 -38t10.5 -51q0 -65 -48 -107t-128 -42q-73 0 -122.5 39.5t-55.5 114.5zM216 -149h-36v87h86v-71q-19 -57 -54 -96h-48q40 32 60 66q3 5 0.5 9.5t-8.5 4.5z" />
    <glyph glyph-name="tcaron.ss01" horiz-adv-x="340" 
d="M25 447v55h89l16 144h47v-144h133v-55h-134v-324q0 -77 70 -77q27 0 64 21v-54q-33 -23 -77 -23q-57 0 -87 34.5t-30 99.5v323h-91zM281 663h-36v89h86v-73q-20 -59 -55 -103h-47q40 36 60 73q3 5 0.5 9.5t-8.5 4.5z" />
    <glyph glyph-name="uni021B.ss01" horiz-adv-x="340" 
d="M25 447v55h89l16 144h47v-144h133v-55h-134v-324q0 -77 70 -77q27 0 64 21v-54q-33 -23 -77 -23q-57 0 -87 34.5t-30 99.5v323h-91zM208 -149h-36v87h86v-71q-19 -57 -54 -96h-48q40 32 60 66q3 5 0.5 9.5t-8.5 4.5z" />
    <glyph glyph-name="udieresis.ss01" horiz-adv-x="557" 
d="M477 502v-355l4 -147h-56l-4 89h-4q-25 -42 -70.5 -73t-104.5 -31q-76 0 -119 45t-43 129v343h60v-344q0 -119 108 -119q58 0 105.5 43.5t63.5 107.5v312h60zM232 692v-75h-70v75h70zM394 692v-75h-70v75h70z" />
    <glyph glyph-name="wdieresis.ss01" horiz-adv-x="795" 
d="M775 502h-65l-134 -417h-4l-139 417h-71l-145 -417h-4l-128 417h-65l161 -502h61l150 433h4l147 -433h57zM348 692v-75h-70v75h70zM510 692v-75h-70v75h70z" />
    <glyph glyph-name="ydieresis.ss01" horiz-adv-x="473" 
d="M88 502l157 -435h4l138 435h66q-56 -168 -98 -295.5t-58 -177.5t-27.5 -84.5l-18.5 -55.5q-27 -80 -117 -80q-32 0 -61 12l5 54q27 -11 56 -11q46 0 63 43q20 52 30 93q4 17 -5.5 28.5t-28.5 8.5l-173 465h68zM198 692v-75h-70v75h70zM360 692v-75h-70v75h70z" />
    <glyph glyph-name="zdotaccent.ss01" horiz-adv-x="435" 
d="M30 0v59l296 384v4h-288v55h357v-59l-296 -384v-4h296v-55h-365zM261 702v-75h-70v75h70z" />
    <glyph glyph-name="Adieresis.ss01" horiz-adv-x="605" 
d="M524 0l-66 195h-316l-64 -195h-68l244 722h88l253 -722h-71zM297 659l-135 -404h275l-136 404h-4zM251 866v-77h-74v77h74zM423 866v-77h-74v77h74z" />
    <glyph glyph-name="Cdotaccent.ss01" horiz-adv-x="723" 
d="M655 518h-70q-8 71 -56.5 115.5t-134.5 44.5q-122 0 -193 -88t-71 -229q0 -127 71.5 -220.5t193.5 -93.5q87 0 139 46.5t58 116.5h71q-13 -104 -86 -164.5t-183 -60.5q-67 0 -123.5 23.5t-94.5 62t-65 88.5t-39 101t-12 101q0 71 20.5 136.5t60.5 120t105.5 87
t147.5 32.5q108 0 179 -58.5t82 -160.5zM436 868v-79h-78v79h78z" />
    <glyph glyph-name="Edieresis.ss01" horiz-adv-x="571" 
d="M100 0v722h400v-60h-335v-264h321v-60h-321v-278h346v-60h-411zM241 866v-77h-74v77h74zM413 866v-77h-74v77h74z" />
    <glyph glyph-name="Edotaccent.ss01" horiz-adv-x="571" 
d="M100 0v722h400v-60h-335v-264h321v-60h-321v-278h346v-60h-411zM348 868v-79h-78v79h78z" />
    <glyph glyph-name="Gbreve.ss01" horiz-adv-x="740" 
d="M657 532h-75q-10 69 -59 107.5t-132 38.5q-122 0 -192 -90.5t-70 -221.5q0 -142 62.5 -232t185.5 -90q99 0 165.5 71t65.5 166l-297 -22v73h360v-332h-51l-5 132h-4q-31 -66 -95.5 -106.5t-144.5 -40.5q-77 0 -138 32t-98 86t-56 121t-19 142q0 97 39 180.5t116.5 137
t178.5 53.5q107 0 175.5 -54t87.5 -151zM396 826q36 0 58 18t27 34t6 31h45q2 -64 -35 -102.5t-101 -38.5q-65 0 -101 38.5t-34 102.5h45q0 -8 1.5 -16t7.5 -21t15 -22.5t26 -16.5t40 -7z" />
    <glyph glyph-name="Gcircumflex.ss01" horiz-adv-x="740" 
d="M657 532h-75q-10 69 -59 107.5t-132 38.5q-122 0 -192 -90.5t-70 -221.5q0 -142 62.5 -232t185.5 -90q99 0 165.5 71t65.5 166l-297 -22v73h360v-332h-51l-5 132h-4q-31 -66 -95.5 -106.5t-144.5 -40.5q-77 0 -138 32t-98 86t-56 121t-19 142q0 97 39 180.5t116.5 137
t178.5 53.5q107 0 175.5 -54t87.5 -151zM387 924l142 -152h-67l-72 69h-6l-74 -69h-67z" />
    <glyph glyph-name="Gcommaaccent.ss01" horiz-adv-x="740" 
d="M657 532h-75q-10 69 -59 107.5t-132 38.5q-122 0 -192 -90.5t-70 -221.5q0 -142 62.5 -232t185.5 -90q99 0 165.5 71t65.5 166l-297 -22v73h360v-332h-51l-5 132h-4q-31 -66 -95.5 -106.5t-144.5 -40.5q-77 0 -138 32t-98 86t-56 121t-19 142q0 97 39 180.5t116.5 137
t178.5 53.5q107 0 175.5 -54t87.5 -151zM381 -149h-36v87h86v-71q-19 -57 -54 -96h-48q40 32 60 66q3 5 0.5 9.5t-8.5 4.5z" />
    <glyph glyph-name="Gdotaccent.ss01" horiz-adv-x="740" 
d="M657 532h-75q-10 69 -59 107.5t-132 38.5q-122 0 -192 -90.5t-70 -221.5q0 -142 62.5 -232t185.5 -90q99 0 165.5 71t65.5 166l-297 -22v73h360v-332h-51l-5 132h-4q-31 -66 -95.5 -106.5t-144.5 -40.5q-77 0 -138 32t-98 86t-56 121t-19 142q0 97 39 180.5t116.5 137
t178.5 53.5q107 0 175.5 -54t87.5 -151zM428 868v-79h-78v79h78z" />
    <glyph glyph-name="Idieresis.ss01" horiz-adv-x="265" 
d="M100 0v722h65v-722h-65zM84 866v-77h-74v77h74zM256 866v-77h-74v77h74z" />
    <glyph glyph-name="Idotaccent.ss01" horiz-adv-x="265" 
d="M100 0v722h65v-722h-65zM172 868v-79h-78v79h78z" />
    <glyph glyph-name="Kcommaaccent.ss01" horiz-adv-x="622" 
d="M100 0v722h64v-343h4l315 343h81l-328 -353l358 -369h-86l-340 352h-4v-352h-64zM311 -149h-36v87h86v-71q-19 -57 -54 -96h-48q40 32 60 66q3 5 0.5 9.5t-8.5 4.5z" />
    <glyph glyph-name="Lcommaaccent.ss01" horiz-adv-x="505" 
d="M100 0v722h65v-662h310v-60h-375zM278 -149h-36v87h86v-71q-19 -57 -54 -96h-48q40 32 60 66q3 5 0.5 9.5t-8.5 4.5z" />
    <glyph glyph-name="Lcaron.ss01" horiz-adv-x="505" 
d="M100 0v722h65v-662h310v-60h-375zM263 633h-36v89h86v-73q-20 -59 -55 -103h-47q40 36 60 73q3 5 0.5 9.5t-8.5 4.5z" />
    <glyph glyph-name="Ldot.ss01" horiz-adv-x="505" 
d="M344 266v108h90v-108h-90zM100 0v722h65v-662h310v-60h-375z" />
    <glyph glyph-name="Ncommaaccent.ss01" horiz-adv-x="776" 
d="M100 0v722h75l433 -632h4v632h64v-722h-84l-424 619h-4v-619h-64zM388 -149h-36v87h86v-71q-19 -57 -54 -96h-48q40 32 60 66q3 5 0.5 9.5t-8.5 4.5z" />
    <glyph glyph-name="Odieresis.ss01" horiz-adv-x="802" 
d="M60 366q0 98 39 181.5t118 136.5t183 53q157 0 249.5 -108t92.5 -267q0 -174 -96.5 -275.5t-246.5 -101.5q-145 0 -242 105t-97 276zM130 364q0 -138 74.5 -228.5t194.5 -90.5q130 0 201.5 90.5t71.5 227.5q0 138 -73.5 226t-199.5 88q-124 0 -196.5 -90.5t-72.5 -222.5z
M352 866v-77h-74v77h74zM524 866v-77h-74v77h74z" />
    <glyph glyph-name="Rcommaaccent.ss01" horiz-adv-x="589" 
d="M90 0v722h172q105 0 175 -51t70 -141q0 -78 -57.5 -130.5t-159.5 -63.5l289 -336h-84l-279 329h-61v-329h-65zM155 663v-274l104 2q80 1 129 36t49 100t-48 99.5t-124 35.5zM304 -149h-36v87h86v-71q-19 -57 -54 -96h-48q40 32 60 66q3 5 0.5 9.5t-8.5 4.5z" />
    <glyph glyph-name="uni0218.ss01" horiz-adv-x="608" 
d="M60 192h70q0 -23 10 -47t29.5 -47.5t56 -38t83.5 -14.5q84 0 126.5 36.5t42.5 94.5q0 60 -43.5 95.5t-136.5 60.5q-104 28 -166.5 80t-62.5 129q0 90 65 143t163 53q100 0 162 -47t70 -133h-71q-15 120 -163 120q-75 0 -116 -36t-41 -98q0 -57 48.5 -92.5t131.5 -58.5
q49 -14 84.5 -29t71.5 -39t55 -59.5t19 -80.5q0 -92 -65.5 -145.5t-179.5 -53.5q-94 0 -167 55t-76 152zM296 -149h-36v87h86v-71q-19 -57 -54 -96h-48q40 32 60 66q3 5 0.5 9.5t-8.5 4.5z" />
    <glyph glyph-name="uni021A.ss01" horiz-adv-x="535" 
d="M300 0h-64v662h-216v60h495v-60h-215v-662zM260 -149h-36v87h86v-71q-19 -57 -54 -96h-48q40 32 60 66q3 5 0.5 9.5t-8.5 4.5z" />
    <glyph glyph-name="Udieresis.ss01" horiz-adv-x="693" 
d="M347 -15q-119 0 -188 72.5t-69 198.5v466h68v-467q0 -102 50 -156t139 -54q58 0 98 20t59 54.5t26.5 67t7.5 69.5v466h65v-464q0 -133 -70.5 -203t-185.5 -70zM297 866v-77h-74v77h74zM469 866v-77h-74v77h74z" />
    <glyph glyph-name="Wdieresis.ss01" horiz-adv-x="951" 
d="M45 722h69l142 -641h4l177 643h79l179 -642h4l144 640h63l-166 -722h-88l-175 636h-4l-174 -636h-89zM427 866v-77h-74v77h74zM599 866v-77h-74v77h74z" />
    <glyph glyph-name="Ydieresis.ss01" horiz-adv-x="581" 
d="M551 722l-213 -439q-12 -5 -12 -17v-266h-65v266q0 14 -13 17l-218 439h77l185 -387h4l184 387h71zM245 866v-77h-74v77h74zM417 866v-77h-74v77h74z" />
    <glyph glyph-name="Zdotaccent.ss01" horiz-adv-x="562" 
d="M50 0v60l392 598v4h-377v60h457v-61l-395 -597v-4h389v-60h-466zM330 868v-79h-78v79h78z" />
    <glyph glyph-name="f_i.ss01" horiz-adv-x="532" 
d="M292 722v-48q-50 12 -78.5 -5.5t-28.5 -65.5v-101h108v-55h-108v-447h-60v447h-95v55h95v105q0 63 30.5 94.5t85.5 31.5q29 0 51 -11zM389 502h60v-502h-60v502zM454 722v-75h-70v75h70z" />
    <glyph glyph-name="f_l.ss01" horiz-adv-x="529" 
d="M389 519v-519h60v722h-52zM241 733q29 0 51 -11v-48q-50 12 -78.5 -5.5t-28.5 -65.5v-101h108v-55h-108v-447h-60v447h-95v55h95v105q0 63 30.5 94.5t85.5 31.5z" />
    <glyph glyph-name="f_f_i.ss01" horiz-adv-x="797" 
d="M556 722v-48q-50 12 -78.5 -5.5t-28.5 -65.5v-101h108v-55h-108v-447h-60v447h-204v-447h-60v447h-95v55h95v105q0 63 30.5 94.5t85.5 31.5q29 0 51 -11v-48q-50 12 -78.5 -5.5t-28.5 -65.5v-101h204v105q0 63 30.5 94.5t85.5 31.5q29 0 51 -11zM652 502h60v-502h-60v502
zM717 722v-75h-70v75h70z" />
    <glyph glyph-name="f_f_l.ss01" horiz-adv-x="793" 
d="M556 722v-48q-50 12 -78.5 -5.5t-28.5 -65.5v-101h108v-55h-108v-447h-60v447h-204v-447h-60v447h-95v55h95v105q0 63 30.5 94.5t85.5 31.5q29 0 51 -11v-48q-50 12 -78.5 -5.5t-28.5 -65.5v-101h204v105q0 63 30.5 94.5t85.5 31.5q29 0 51 -11zM653 0v519l8 203h52v-722
h-60z" />
    <glyph glyph-name="f_f.ss01" horiz-adv-x="587" 
d="M292 722v-48q-50 12 -78.5 -5.5t-28.5 -65.5v-101h204v105q0 63 30.5 94.5t85.5 31.5q29 0 51 -11v-48q-50 12 -78.5 -5.5t-28.5 -65.5v-101h108v-55h-108v-447h-60v447h-204v-447h-60v447h-95v55h95v105q0 63 30.5 94.5t85.5 31.5q29 0 51 -11z" />
    <glyph glyph-name="afii10078.ss01" horiz-adv-x="700" 
d="M558 414l-190 -428h-44l-182 428h-4l1 -414h-59v502h84l183 -433h4l188 433h81v-502h-59l1 414h-4z" />
    <glyph glyph-name="afii10030.ss01" horiz-adv-x="942" 
d="M95 0v722h107l270 -653h4l265 653h106v-722h-65l2 657h-7l-275 -675h-58l-280 675h-5l2 -657h-66z" />
    <glyph glyph-name="afii10103.ss01" horiz-adv-x="220" 
d="M80 0v502h60v-502h-60zM145 722v-75h-70v75h70z" />
    <glyph glyph-name="afii10105.ss01" horiz-adv-x="232" 
d="M89 -57v559h60v-555q0 -140 -111 -140q-22 0 -38 4v54q45 -5 67 13.5t22 64.5zM154 722v-75h-70v75h70z" />
    <glyph glyph-name="afii10023.ss01" horiz-adv-x="571" 
d="M100 0v722h400v-60h-335v-264h321v-60h-321v-278h346v-60h-411zM241 866v-77h-74v77h74zM413 866v-77h-74v77h74z" />
    <glyph glyph-name="afii10056.ss01" horiz-adv-x="265" 
d="M100 0v722h65v-722h-65zM83 866v-77h-74v77h74zM255 866v-77h-74v77h74z" />
    <glyph glyph-name="afii10071.ss01" horiz-adv-x="515" 
d="M211 692v-75h-70v75h70zM373 692v-75h-70v75h70zM472 245h-360q-1 -84 43.5 -144.5t118.5 -60.5q58 0 91.5 31.5t41.5 83.5h63q-9 -71 -59 -120.5t-141 -49.5q-99 0 -160.5 79.5t-62.5 191.5q-1 110 60 185t163 75t153 -71t51 -169q0 -11 -2 -31zM114 299l295 2
q0 24 -5.5 49t-19.5 51.5t-43.5 43.5t-70.5 17q-71 0 -109 -45t-47 -118z" />
    <glyph glyph-name="afii10104.ss01" horiz-adv-x="220" 
d="M80 0v502h60v-502h-60zM64 692v-75h-70v75h70zM226 692v-75h-70v75h70z" />
    <glyph glyph-name="comma.ss01" horiz-adv-x="292" 
d="M134 14h-34v103h92v-81q-21 -70 -75 -132h-61q63 52 86 96q3 5 0.5 9.5t-8.5 4.5z" />
    <glyph glyph-name="period.ss01" horiz-adv-x="290" 
d="M100 0v108h90v-108h-90z" />
    <glyph glyph-name="ellipsis.ss01" horiz-adv-x="970" 
d="M870 108v-108h-90v108h90zM530 108v-108h-90v108h90zM190 108v-108h-90v108h90z" />
    <glyph glyph-name="colon.ss01" horiz-adv-x="290" 
d="M100 0v108h90v-108h-90zM100 394v108h90v-108h-90z" />
    <glyph glyph-name="semicolon.ss01" horiz-adv-x="292" 
d="M101 394v108h90v-108h-90zM134 14h-34v103h92v-81q-21 -70 -75 -132h-61q63 52 86 96q3 5 0.5 9.5t-8.5 4.5z" />
    <glyph glyph-name="periodcentered.ss01" horiz-adv-x="250" 
d="M80 266v108h90v-108h-90z" />
    <glyph glyph-name="exclam.ss01" horiz-adv-x="372" 
d="M226 722l-14 -553h-53l-13 553h80zM141 0v108h90v-108h-90z" />
    <glyph glyph-name="exclamdown.ss01" horiz-adv-x="372" 
d="M212 333l14 -553h-80l13 553h53zM141 394v108h90v-108h-90z" />
    <glyph glyph-name="question.ss01" horiz-adv-x="500" 
d="M127 545h-65q4 95 63.5 143.5t136.5 48.5q83 0 139 -50t56 -130q0 -58 -29 -101.5t-87 -91.5q-38 -31 -51.5 -66.5t-13.5 -85.5l2 -43h-57q-2 20 -2 43q0 66 21 109.5t66 85.5q34 32 47 46.5t26.5 42t13.5 59.5q0 64 -39 95.5t-93 31.5q-56 0 -94.5 -33t-39.5 -104z
M205 0v108h90v-108h-90z" />
    <glyph glyph-name="questiondown.ss01" horiz-adv-x="500" 
d="M373 -43h65q-4 -95 -63.5 -143.5t-136.5 -48.5q-83 0 -139 50t-56 130q0 58 29 101.5t87 91.5q38 31 51.5 66.5t13.5 85.5l-2 43h57q2 -20 2 -43q0 -66 -21 -109.5t-66 -85.5q-34 -32 -47 -46.5t-26.5 -42t-13.5 -59.5q0 -64 39 -95.5t93 -31.5q56 0 94.5 33t39.5 104z
M295 502v-108h-90v108h90z" />
    <glyph glyph-name="quoteleft.ss01" horiz-adv-x="260" 
d="M137 612h35v-101h-92v88q21 65 73 123h60q-58 -46 -84 -96q-3 -5 -0.5 -9.5t8.5 -4.5z" />
    <glyph glyph-name="quoteright.ss01" horiz-adv-x="260" 
d="M123 621h-35v101h92v-88q-21 -65 -73 -123h-60q58 46 84 96q3 5 0.5 9.5t-8.5 4.5z" />
    <glyph glyph-name="quotedblleft.ss01" horiz-adv-x="415" 
d="M294 612h35v-101h-92v88q21 65 73 123h60q-58 -46 -84 -96q-3 -5 -0.5 -9.5t8.5 -4.5zM140 612h32v-101h-92v88q19 60 81 123h62q-68 -51 -91 -96q-3 -5 -0.5 -9.5t8.5 -4.5z" />
    <glyph glyph-name="quotedblright.ss01" horiz-adv-x="415" 
d="M121 621h-35v101h92v-88q-21 -65 -73 -123h-60q58 46 84 96q3 5 0.5 9.5t-8.5 4.5zM275 621h-32v101h92v-88q-19 -60 -81 -123h-62q68 51 91 96q3 5 0.5 9.5t-8.5 4.5z" />
    <glyph glyph-name="quotesinglbase.ss01" horiz-adv-x="260" 
d="M123 14h-35v101h92v-88q-21 -65 -73 -123h-60q58 46 84 96q3 5 0.5 9.5t-8.5 4.5z" />
    <glyph glyph-name="quotedblbase.ss01" horiz-adv-x="415" 
d="M121 14h-35v101h92v-88q-21 -65 -73 -123h-60q58 46 84 96q3 5 0.5 9.5t-8.5 4.5zM275 14h-32v101h92v-88q-19 -60 -81 -123h-62q68 51 91 96q3 5 0.5 9.5t-8.5 4.5z" />
    <glyph glyph-name="divide.ss01" horiz-adv-x="570" 
d="M540 222h-510v58h510v-58zM241 0v107h88v-107h-88zM241 395v107h88v-107h-88z" />
    <glyph glyph-name="because.ss01" horiz-adv-x="1000" 
d="M885 692v-108h-90v108h90zM205 692v-108h-90v108h90zM545 108v-108h-90v108h90z" />
    <glyph glyph-name="therefore.ss01" horiz-adv-x="1000" 
d="M885 108v-108h-90v108h90zM205 108v-108h-90v108h90zM545 692v-108h-90v108h90z" />
    <glyph glyph-name="commaaccent.ss01" horiz-adv-x="275" 
d="M132 -149h-36v87h86v-71q-19 -57 -54 -96h-48q40 32 60 66q3 5 0.5 9.5t-8.5 4.5z" />
    <glyph glyph-name="caron.salt..ss01" horiz-adv-x="275" 
d="M131 633h-36v89h86v-73q-20 -59 -55 -103h-47q40 36 60 73q3 5 0.5 9.5t-8.5 4.5z" />
    <glyph glyph-name="trademark.ss01" horiz-adv-x="780" 
d="M181 361h-44v318h-102v43h248v-43h-102v-318zM513 413l-120 309h-65v-361h43l-1 308h4l123 -320h33l125 319h4l-1 -307h43v361h-64l-119 -309h-5z" />
    <glyph glyph-name="dieresis.ss01" horiz-adv-x="332" 
d="M120 692v-75h-70v75h70zM282 692v-75h-70v75h70z" />
    <glyph glyph-name="dieresis.case.ss01" horiz-adv-x="372" 
d="M137 866v-77h-74v77h74zM309 866v-77h-74v77h74z" />
    <glyph glyph-name="dotaccent.ss01" horiz-adv-x="170" 
d="M120 702v-75h-70v75h70z" />
    <glyph glyph-name="dotaccent.case.ss01" horiz-adv-x="275" 
d="M177 868v-79h-78v79h78z" />
    <glyph glyph-name="interrobang.ss01" horiz-adv-x="500" 
d="M206 0v108h90v-108h-90zM116 543h-65q3 65 36 110t76.5 63t92.5 18q83 0 139 -49.5t56 -129.5q0 -59 -27 -101.5t-84 -89.5q-39 -32 -52.5 -67t-11.5 -85l2 -43h-52l-8 506q-43 -8 -72 -41.5t-30 -90.5zM387 555q0 52 -28.5 83t-71.5 38l-9 -298h3q10 15 25 28
q43 41 62 73t19 76z" />
    <glyph glyph-name="interfinity.ss01" horiz-adv-x="500" 
d="M256 734q78 0 130.5 -42.5t52.5 -113.5q0 -60 -34.5 -97t-98.5 -72q90 -58 90 -128q0 -51 -39.5 -83t-101.5 -32t-102.5 32t-40.5 83q0 68 89 126q-62 36 -96 74.5t-34 96.5q0 69 53 112.5t132 43.5zM257 681q-54 0 -89 -27t-35 -76q0 -26 9.5 -47t30.5 -38.5t37 -27.5
t45 -26q30 16 45.5 26t37 27.5t31.5 38.5t10 47q0 49 -34 76t-88 27zM335 281q0 19 -7.5 34.5t-22 28t-25.5 19.5t-28 16q-80 -46 -80 -98q0 -28 22.5 -46.5t59.5 -18.5t59 18.5t22 46.5zM211 0v108h90v-108h-90z" />
    <glyph glyph-name="one.ss02" horiz-adv-x="500" 
d="M475 0h-399v60h173v559h-6q-29 -49 -94 -144t-114 -154v89q38 45 99.5 136.5t94.5 146.5h85v-633h161v-60z" />
    <glyph glyph-name="one.numr..ss02" 
d="M57 327h104v316h-4q-61 -123 -118 -192v74q40 48 105 168h67v-366h99v-44h-253v44z" />
    <glyph glyph-name="one.dnom..ss02" 
d="M57 44h104v316h-4q-61 -123 -118 -192v74q40 48 105 168h67v-366h99v-44h-253v44z" />
    <glyph glyph-name="one.sups..ss02" 
d="M57 507h104v316h-4q-61 -123 -118 -192v74q40 48 105 168h67v-366h99v-44h-253v44z" />
    <glyph glyph-name="one.sinf..ss02" 
d="M57 -136h104v316h-4q-61 -123 -118 -192v74q40 48 105 168h67v-366h99v-44h-253v44z" />
    <glyph glyph-name="onehalf.ss02" horiz-adv-x="835" 
d="M762 0h-271q-2 18 -2 38q0 55 26.5 86.5t77.5 59.5q35 19 71 43q48 33 48 80q0 34 -22 54t-60 20q-43 0 -63 -24t-18 -61h-55q-2 56 35 91.5t102 35.5q60 0 97.5 -33.5t37.5 -83.5q0 -67 -76 -117q-16 -11 -76 -43q-25 -13 -38.5 -22.5t-26.5 -31t-10 -48.5h223v-44z
M49 327h104v316h-4q-61 -123 -118 -192v74q40 48 105 168h67v-366h99v-44h-253v44zM656 722l-425 -722h-54l426 722h53z" />
    <glyph glyph-name="onequarter.ss02" horiz-adv-x="835" 
d="M670 722l-425 -722h-54l426 722h53zM645 0v91h-199v56q86 119 179 264h71v-278h58v-42h-58v-91h-51zM490 132h156v233h-3q-35 -56 -73.5 -113.5t-59.5 -87.5l-20 -29v-3zM55 327h104v316h-4q-61 -123 -118 -192v74q40 48 105 168h67v-366h99v-44h-253v44z" />
    <glyph glyph-name="ampersand.ss03" horiz-adv-x="796" 
d="M294 443l238 -238q23 82 5 169h229v-67l-163 21q2 -99 -26 -162l168 -166h-90l-107 110q-94 -128 -237 -128q-105 0 -162.5 58.5t-57.5 148.5q0 71 43 129.5t111 90.5q-97 90 -97 170q0 69 52 113.5t136 44.5q80 0 129.5 -46t58.5 -117h-70q-4 52 -36.5 81.5t-84.5 29.5
t-85.5 -28t-33.5 -77q0 -35 19.5 -65.5t60.5 -71.5zM503 148l-217 216q-61 -25 -94.5 -72.5t-33.5 -100.5q0 -73 43.5 -112t112.5 -39q118 0 189 108z" />
    </font>
</defs>
</svg>
