<?xml version="1.0" standalone="no"?>
<!DOCTYPE svg PUBLIC "-//W3C//DTD SVG 1.1//EN" "http://www.w3.org/Graphics/SVG/1.1/DTD/svg11.dtd" >
<svg xmlns="http://www.w3.org/2000/svg" xmlns:xlink="http://www.w3.org/1999/xlink" version="1.1">
<metadata>
Created by FontForge 20190801 at Wed Feb 19 10:36:35 2014
 By www-data
Copyright (c) 2011 by Radim Pesko. All rights reserved.
</metadata>
<defs>
<font id="AgipoBoldCondensed" horiz-adv-x="335" >
  <font-face 
    font-family="AgipoBoldCondensed"
    font-weight="1000"
    font-stretch="normal"
    units-per-em="1000"
    panose-1="2 0 5 3 4 0 0 2 0 3"
    ascent="722"
    descent="-278"
    x-height="506"
    cap-height="723"
    bbox="-140 -255 880 1131"
    underline-thickness="50"
    underline-position="-100"
    unicode-range="U+000D-FB04"
  />
<missing-glyph horiz-adv-x="500" 
 />
    <glyph glyph-name="f_f" unicode="ff" horiz-adv-x="565" 
d="M218 506h124v70q0 73 36.5 114.5t101.5 41.5q28 0 75 -9v-101q-16 2 -26 2q-41 0 -41 -52v-66h62v-102h-62v-404h-146v404h-124v-404h-146v404h-57v102h57v70q0 73 38 114.5t103 41.5q30 0 77 -9v-101q-16 2 -28 2q-22 0 -33 -14.5t-11 -37.5v-66z" />
    <glyph glyph-name="f_i" unicode="fi" horiz-adv-x="550" 
d="M282 723v-101q-12 2 -21 2q-41 0 -41 -52v-66h272v-506h-146v404h-126v-404h-147v404h-58v102h59v70q0 73 37 114.5t102 41.5q22 0 69 -9zM337 644q0 35 23 57t58 22q34 0 58 -22t24 -57q0 -36 -24 -57t-58 -21q-35 0 -58 21t-23 57z" />
    <glyph glyph-name="f_l" unicode="fl" horiz-adv-x="545" 
d="M343 0v506l6 113q-38 6 -62 6q-32 0 -49.5 -16t-17.5 -46v-57h62v-102h-62v-404h-147v404h-58v102h59v70q0 75 43 116.5t117 41.5q33 0 135 -11h121v-723h-147z" />
    <glyph glyph-name="f_f_i" unicode="ffi" horiz-adv-x="815" 
d="M488 506h269v-506h-146v404h-123v-404h-146v404h-124v-404h-146v404h-57v102h57v70q0 73 38 114.5t103 41.5q30 0 77 -9v-101q-16 2 -28 2q-22 0 -33 -14.5t-11 -37.5v-66h124v70q0 73 36.5 114.5t101.5 41.5q28 0 75 -9v-101q-16 2 -26 2q-41 0 -41 -52v-66zM602 644
q0 35 23 57t58 22q34 0 58 -22t24 -57q0 -36 -24 -57t-58 -21q-35 0 -58 21t-23 57z" />
    <glyph glyph-name="f_f_l" unicode="ffl" horiz-adv-x="810" 
d="M637 723h118v-723h-146v506l6 113q-38 6 -60 6q-32 0 -49.5 -16t-17.5 -46v-57h62v-102h-62v-404h-145v404h-125v-404h-146v404h-57v102h57v70q0 73 38 114.5t103 41.5q30 0 77 -9v-101q-16 2 -28 2q-22 0 -33 -14.5t-11 -37.5v-66h125v70q0 75 42.5 116.5t116.5 41.5
q19 0 43 -2t52 -5t40 -4z" />
    <glyph glyph-name=".notdef" horiz-adv-x="500" 
 />
    <glyph glyph-name=".null" horiz-adv-x="0" 
 />
    <glyph glyph-name=".null" horiz-adv-x="0" 
 />
    <glyph glyph-name="nonmarkingreturn" horiz-adv-x="333" 
 />
    <glyph glyph-name="CR" unicode="&#xd;" horiz-adv-x="0" 
 />
    <glyph glyph-name="space" unicode=" " horiz-adv-x="230" 
 />
    <glyph glyph-name="exclam" unicode="!" horiz-adv-x="270" 
d="M211 723l-25 -500h-102l-24 500h151zM56 79q0 35 22 57.5t56 22.5t56.5 -23t22.5 -57t-22.5 -56.5t-56.5 -22.5t-56 22.5t-22 56.5z" />
    <glyph glyph-name="quotedbl" unicode="&#x22;" horiz-adv-x="420" 
d="M50 698h132l-26 -270h-80zM237 698h133l-27 -270h-80z" />
    <glyph glyph-name="numbersign" unicode="#" horiz-adv-x="480" 
d="M301 506l21 186h94l-21 -186h55v-100h-66l-14 -126h57v-100h-68l-20 -180h-95l20 180h-85l-20 -180h-95l20 180h-54v100h65l14 126h-56v100h68l21 186h94l-21 -186h86zM204 406l-14 -126h85l14 126h-85z" />
    <glyph glyph-name="dollar" unicode="$" horiz-adv-x="500" 
d="M209 781h78v-83q61 -11 102.5 -58t49.5 -128h-158q5 42 -3.5 68.5t-30.5 26.5q-19 0 -30 -17.5t-11 -48.5q0 -60 84 -123q37 -28 58.5 -46.5t47 -47t37.5 -60.5t12 -69q0 -76 -43.5 -129.5t-111.5 -65.5v-93h-78v93q-63 12 -107 61.5t-50 139.5h159q-9 -46 0.5 -77
t35.5 -31q23 0 35 18.5t10 49.5q-1 33 -22 61.5t-64 61.5q-151 114 -151 224q0 77 42.5 127.5t108.5 62.5v83z" />
    <glyph glyph-name="percent" unicode="%" horiz-adv-x="674" 
d="M191 -32h-83l369 755h82zM520 376q60 0 97 -55t37 -133q0 -82 -36.5 -135t-97.5 -53q-60 0 -95.5 52.5t-35.5 135.5q0 78 36 133t95 55zM520 73q31 0 31 114q0 118 -31 118q-30 0 -30 -118q0 -114 30 -114zM153 698q59 0 95.5 -55t36.5 -133q0 -83 -36 -135.5t-96 -52.5
q-61 0 -97 53t-36 135q0 78 37 133t96 55zM153 395q31 0 31 114q0 118 -31 118q-30 0 -30 -118q0 -114 30 -114z" />
    <glyph glyph-name="ampersand" unicode="&#x26;" horiz-adv-x="610" 
d="M552 440q7 -160 -66 -289l98 -151h-158l-29 43q-73 -63 -166 -63q-84 0 -138.5 50.5t-54.5 138.5q0 67 37.5 126t92.5 94q-68 93 -68 170q0 76 53 124.5t133 48.5q76 0 126 -55.5t54 -138.5h-157q11 36 4 65t-28 29q-36 0 -36 -66q0 -47 41 -111l130 -202q26 92 -8 187
h140zM256 95q47 0 86 31l-112 172q-48 -48 -48 -119q0 -35 21 -59.5t53 -24.5z" />
    <glyph glyph-name="quotesingle" unicode="'" horiz-adv-x="245" 
d="M50 698h145l-26 -271h-93z" />
    <glyph glyph-name="parenleft" unicode="(" horiz-adv-x="305" 
d="M65 328q0 213 114 419h106q-93 -203 -93 -419q0 -215 93 -418h-106q-114 206 -114 418z" />
    <glyph glyph-name="parenright" unicode=")" horiz-adv-x="305" 
d="M240 328q0 -212 -114 -418h-106q93 203 93 418q0 216 -93 419h106q114 -206 114 -419z" />
    <glyph glyph-name="asterisk" unicode="*" horiz-adv-x="424" 
d="M147 541l-127 47l52 94l102 -89l6 3l-18 127h100l-18 -127l6 -3l102 89l52 -94l-127 -47v-8l127 -46l-52 -94l-102 89l-6 -3l18 -127h-100l18 127l-6 3l-102 -89l-52 94l127 46v8z" />
    <glyph glyph-name="plus" unicode="+" horiz-adv-x="540" 
d="M333 506v-137h137v-125h-137v-137h-126v137h-137v125h137v137h126z" />
    <glyph glyph-name="comma" unicode="," horiz-adv-x="230" 
d="M37 92q0 34 22 56t56 22q32 0 55 -22t24 -57q2 -28 -7 -54q-28 -82 -76 -144h-81q53 48 89 107q3 5 1 9.5t-9 4.5q-31 0 -52.5 23t-21.5 55z" />
    <glyph glyph-name="hyphen" unicode="-" horiz-adv-x="350" 
d="M48 207v114h254v-114h-254z" />
    <glyph glyph-name="period" unicode="." horiz-adv-x="230" 
d="M36 80q0 35 22 58t56 23t56.5 -23t22.5 -58q0 -34 -22.5 -57t-56.5 -23t-56 23t-22 57z" />
    <glyph glyph-name="slash" unicode="/" horiz-adv-x="318" 
d="M15 -97l189 820h89l-188 -820h-90z" />
    <glyph glyph-name="zero" unicode="0" horiz-adv-x="470" 
d="M32 341q0 54 11 114t33.5 118.5t64.5 96.5t95 38q50 0 90 -33.5t63.5 -87t36 -113t12.5 -117.5q0 -66 -12 -129t-35.5 -118t-64.5 -88.5t-93 -33.5q-49 0 -89 32.5t-63.5 85t-36 113t-12.5 122.5zM185 346q0 -122 10 -185t39 -63q32 0 41.5 66.5t9.5 183.5q0 255 -49 255
q-31 0 -41 -70t-10 -187z" />
    <glyph glyph-name="one" unicode="1" horiz-adv-x="408" 
d="M190 0v523h-6q-45 -120 -147 -304v247q35 43 81 116t68 117h149v-699h-145z" />
    <glyph glyph-name="two" unicode="2" horiz-adv-x="470" 
d="M413 0h-364q-1 5 -2 13t-2 28t0 33q3 59 25.5 110.5t44.5 78.5t59 64q31 31 60 70q36 49 36 112q0 94 -39 94q-25 0 -30 -42t5 -90h-161q-6 100 49.5 168t142.5 68q80 0 132 -56.5t52 -145.5q0 -51 -19.5 -96t-40 -69.5t-53.5 -54.5q-70 -65 -75 -69q-23 -21 -32.5 -30.5
t-20.5 -30t-10 -40.5l243 2v-117z" />
    <glyph glyph-name="three" unicode="3" horiz-adv-x="470" 
d="M35 199h161q-10 -106 34 -106q39 0 39 87q0 54 -21 85t-56 33l-40 3v102l37 4q74 9 74 112q0 82 -35 82q-17 0 -25.5 -26t-2.5 -69h-158q7 100 64.5 150.5t130.5 50.5q76 0 127.5 -51t51.5 -130q0 -112 -111 -165v-8q51 -15 85.5 -61.5t34.5 -108.5q0 -89 -57.5 -144.5
t-139.5 -55.5q-77 0 -135 59.5t-58 156.5z" />
    <glyph glyph-name="four" unicode="4" horiz-adv-x="470" 
d="M228 0v160h-198v147q106 184 190 391h156v-423h64v-115h-64v-160h-148zM121 272h114v274h-6q-23 -64 -50 -130.5t-43 -101.5l-15 -34v-8z" />
    <glyph glyph-name="five" unicode="5" horiz-adv-x="470" 
d="M45 203h155q-2 -57 4.5 -84t28.5 -27q40 0 40 143q0 151 -34 151q-27 0 -40 -82h-145l4 394h345v-114h-231l-8 -164h6q10 28 39.5 51t67.5 23q67 0 109 -66t42 -183t-54 -189t-141 -72q-79 0 -133 61t-55 158z" />
    <glyph glyph-name="six" unicode="6" horiz-adv-x="470" 
d="M422 518h-153q25 92 -10 92q-17 0 -33.5 -23.5t-29 -79t-12.5 -130.5h6q36 77 107 77q56 0 97 -59.5t41 -164.5q0 -99 -54 -170.5t-132 -71.5q-65 0 -112.5 47t-70.5 123t-23 170q0 71 13.5 137t40.5 122t72.5 89.5t103.5 33.5q73 0 112.5 -56t36.5 -136zM246 85
q41 0 41 122q0 141 -43 141q-42 0 -42 -117q0 -146 44 -146z" />
    <glyph glyph-name="seven" unicode="7" horiz-adv-x="470" 
d="M45 578v120h375v-118q-53 -128 -95 -273t-57 -226l-16 -81h-175q104 314 216 570v9z" />
    <glyph glyph-name="eight" unicode="8" horiz-adv-x="470" 
d="M274 515q0 98 -38 98t-38 -98q0 -106 38 -106t38 106zM193 193q0 -111 43 -111t43 111q0 116 -43 116t-43 -116zM422 527q0 -110 -101 -165v-6q112 -53 112 -173q0 -80 -57.5 -138.5t-139.5 -58.5q-80 0 -139.5 55.5t-59.5 141.5q0 117 111 173v6q-99 55 -99 165
q0 69 55 125.5t132 56.5t131.5 -51.5t54.5 -130.5z" />
    <glyph glyph-name="nine" unicode="9" horiz-adv-x="470" 
d="M48 180h153q-25 -92 10 -92q17 0 33.5 23.5t29 79t12.5 130.5h-6q-14 -33 -41.5 -55.5t-65.5 -22.5q-56 0 -97 59.5t-41 165.5q0 99 54 170t132 71q97 0 151.5 -97t54.5 -242q0 -71 -13.5 -137t-40.5 -122t-72.5 -89.5t-103.5 -33.5q-73 0 -112.5 56t-36.5 136zM224 612
q-41 0 -41 -122q0 -141 43 -141q42 0 42 117q0 146 -44 146z" />
    <glyph glyph-name="colon" unicode=":" horiz-adv-x="230" 
d="M36 425q0 35 22 58t56 23t56.5 -23t22.5 -58q0 -34 -22.5 -57t-56.5 -23t-56 23t-22 57zM36 80q0 35 22 58t56 23t56.5 -23t22.5 -58q0 -34 -22.5 -57t-56.5 -23t-56 23t-22 57z" />
    <glyph glyph-name="semicolon" unicode=";" horiz-adv-x="230" 
d="M36 425q0 35 22 58t56 23t56.5 -23t22.5 -58q0 -34 -22.5 -57t-56.5 -23t-56 23t-22 57zM37 92q0 34 22 56t56 22q32 0 55 -22t24 -57q2 -28 -7 -54q-28 -82 -76 -144h-81q53 48 89 107q3 5 1 9.5t-9 4.5q-31 0 -52.5 23t-21.5 55z" />
    <glyph glyph-name="less" unicode="&#x3c;" horiz-adv-x="540" 
d="M70 250v112l400 208v-134l-273 -126v-8l273 -126v-136z" />
    <glyph glyph-name="equal" unicode="=" horiz-adv-x="540" 
d="M70 363v124h400v-124h-400zM70 126v124h400v-124h-400z" />
    <glyph glyph-name="greater" unicode="&#x3e;" horiz-adv-x="540" 
d="M470 362v-112l-400 -210v136l273 126v8l-273 126v134z" />
    <glyph glyph-name="question" unicode="?" horiz-adv-x="437" 
d="M133 79q0 35 22 57.5t56 22.5t56.5 -23t22.5 -57t-22.5 -56.5t-56.5 -22.5t-56 22.5t-22 56.5zM187 536h-157q8 99 63 147.5t126 48.5q77 0 132.5 -45t55.5 -128q0 -38 -19 -77.5t-36.5 -60.5t-54.5 -63q-35 -40 -35 -109q0 -13 3 -26h-117q-2 9 -2 28q0 54 17.5 96.5
t52.5 91.5q37 51 37 105q0 81 -41 81q-40 0 -25 -89z" />
    <glyph glyph-name="at" unicode="@" horiz-adv-x="580" 
d="M326 581q72 0 116.5 -38.5t44.5 -124.5v-248l5 -97h-111l3 63h-6q-45 -71 -101 -71q-49 0 -75 42t-26 112q0 69 34.5 108t97.5 39q28 0 70 -17v73q1 44 -12.5 65t-45.5 21q-89 0 -147.5 -81.5t-58.5 -211.5q0 -131 56 -208t155 -77q115 0 189 115l51 -61
q-52 -63 -108.5 -94t-130.5 -31q-127 0 -206.5 94.5t-79.5 260.5q0 165 84 266t202 101zM373 203v75q-26 14 -44 14q-36 0 -36 -67q0 -71 31 -71q23 0 49 49z" />
    <glyph glyph-name="A" unicode="A" horiz-adv-x="507" 
d="M345 0l-23 142h-142l-24 -142h-146l148 723h183l156 -723h-152zM304 258l-48 278h-8l-50 -278h106z" />
    <glyph glyph-name="B" unicode="B" horiz-adv-x="511" 
d="M60 0v723h202q86 0 146 -50.5t60 -135.5q0 -58 -33 -99.5t-82 -59.5v-8q52 -14 92.5 -59.5t40.5 -113.5q0 -90 -65.5 -143.5t-153.5 -53.5h-207zM214 313v-202l40 2q34 1 53 28t19 72t-21.5 70.5t-55.5 27.5zM214 617v-194l28 2q28 2 48.5 26t20.5 68q0 45 -18.5 69.5
t-47.5 26.5z" />
    <glyph glyph-name="C" unicode="C" horiz-adv-x="538" 
d="M518 496h-167q-2 119 -57 119q-88 0 -88 -262q0 -110 21 -182.5t67 -72.5q58 0 60 122h169q-16 -105 -81 -170t-148 -65q-67 0 -118.5 33.5t-81 88.5t-44.5 117t-15 127q0 55 9.5 108t30.5 102t50.5 86t73 59t95.5 22q83 0 146.5 -64t77.5 -168z" />
    <glyph glyph-name="D" unicode="D" horiz-adv-x="546" 
d="M60 0v723h178q121 0 197 -96.5t76 -269.5q0 -160 -72.5 -258.5t-205.5 -98.5h-173zM215 612v-502l28 2q57 4 83.5 71t26.5 174q0 67 -11 121.5t-36.5 91.5t-63.5 40z" />
    <glyph glyph-name="E" unicode="E" horiz-adv-x="425" 
d="M60 0v723h333v-118h-181v-172h167v-118h-167v-195h188v-120h-340z" />
    <glyph glyph-name="F" unicode="F" horiz-adv-x="406" 
d="M60 0v723h321v-118h-165v-177h153v-120h-153v-308h-156z" />
    <glyph glyph-name="G" unicode="G" horiz-adv-x="565" 
d="M521 506h-161q2 50 -15 87.5t-50 37.5q-54 0 -81 -74t-27 -192q0 -272 115 -272q43 0 67.5 42.5t19.5 117.5l-135 -22v131h279q-3 -191 -65 -282.5t-171 -91.5q-127 0 -193.5 105.5t-66.5 272.5q0 159 70 264.5t192 105.5q91 0 152.5 -64t69.5 -166z" />
    <glyph glyph-name="H" unicode="H" horiz-adv-x="570" 
d="M60 723h153v-289h140v289h157v-723h-157v317h-140v-317h-153v723z" />
    <glyph glyph-name="I" unicode="I" horiz-adv-x="275" 
d="M60 0v723h155v-723h-155z" />
    <glyph glyph-name="J" unicode="J" horiz-adv-x="470" 
d="M15 233h158q-4 -64 3 -97t34 -33q50 0 50 124v496h155v-491q0 -112 -56.5 -177.5t-147.5 -65.5t-143.5 67.5t-52.5 176.5z" />
    <glyph glyph-name="K" unicode="K" horiz-adv-x="535" 
d="M60 0v723h156v-308h8l116 309h171l-161 -343l178 -381h-179l-125 332h-8v-332h-156z" />
    <glyph glyph-name="L" unicode="L" horiz-adv-x="400" 
d="M60 0v723h157v-600h168v-123h-325z" />
    <glyph glyph-name="M" unicode="M" horiz-adv-x="715" 
d="M44 0l53 723h182l75 -470h8l76 470h181l52 -723h-133l-23 476h-8l-98 -491h-107l-95 491h-8l-24 -476h-131z" />
    <glyph glyph-name="N" unicode="N" horiz-adv-x="580" 
d="M60 0v723h185l145 -474h6l-1 474h125v-723h-181l-145 470h-6l1 -470h-129z" />
    <glyph glyph-name="O" unicode="O" horiz-adv-x="597" 
d="M35 361q0 174 74.5 275.5t189.5 101.5t189 -104t74 -277q0 -100 -30 -183.5t-91.5 -136t-142.5 -52.5q-121 0 -192 107t-71 269zM196 360q0 -266 103 -266q102 0 102 265q0 274 -102 274q-103 0 -103 -273z" />
    <glyph glyph-name="P" unicode="P" horiz-adv-x="505" 
d="M60 0v723h191q95 0 166 -61.5t71 -166.5q0 -103 -70.5 -167.5t-166.5 -64.5h-34v-263h-157zM215 607v-231l30 1q34 1 58.5 31.5t24.5 84.5t-23.5 82t-55.5 30z" />
    <glyph glyph-name="Q" unicode="Q" horiz-adv-x="610" 
d="M35 361q0 174 74.5 276t189.5 102q114 0 186 -103.5t72 -274.5q0 -116 -48 -217q44 -30 86 -27l-42 -117q-41 -3 -104 53q-64 -69 -152 -69q-121 0 -191.5 107.5t-70.5 269.5zM196 360q0 -272 103 -272q48 0 74 63q-25 33 -51.5 45t-62.5 10l40 116q48 6 98 -54
q4 37 4 91q0 274 -102 274q-103 0 -103 -273z" />
    <glyph glyph-name="R" unicode="R" horiz-adv-x="535" 
d="M60 0v723h204q89 0 159 -53.5t70 -145.5q0 -127 -127 -188l154 -336h-170l-127 310h-8l1 -310h-156zM215 611v-211l36 1q36 1 58.5 29.5t22.5 76.5q0 45 -23.5 73.5t-56.5 29.5z" />
    <glyph glyph-name="S" unicode="S" horiz-adv-x="460" 
d="M25 202h164q-9 -46 2.5 -79t39.5 -33q22 0 33.5 18t11.5 46q0 72 -87 131q-157 103 -157 239q0 96 56.5 153t138.5 57q78 0 132 -53t63 -152h-156q5 41 -5.5 69.5t-32.5 28.5q-19 0 -30.5 -20t-11.5 -51q0 -60 85 -113q161 -99 161 -248q0 -95 -56 -152.5t-144 -57.5
q-34 0 -67 11t-64 35t-51.5 68t-24.5 103z" />
    <glyph glyph-name="T" unicode="T" horiz-adv-x="440" 
d="M298 0h-158v603h-125v120h410v-120h-127v-603z" />
    <glyph glyph-name="U" unicode="U" horiz-adv-x="538" 
d="M270 -14q-96 0 -154.5 68t-58.5 203v466h155v-488q0 -134 59 -134q58 0 58 134v488h152v-466q0 -135 -57 -203t-154 -68z" />
    <glyph glyph-name="V" unicode="V" horiz-adv-x="502" 
d="M492 723l-146 -723h-181l-155 723h163l87 -524h6l82 524h144z" />
    <glyph glyph-name="W" unicode="W" horiz-adv-x="715" 
d="M30 723h141l35 -477h8l81 479h139l78 -474h8l38 472h127l-87 -723h-160l-70 455h-8l-76 -455h-162z" />
    <glyph glyph-name="X" unicode="X" horiz-adv-x="515" 
d="M24 723h164l71 -222h8l79 222h147l-144 -348l156 -375h-162l-84 242h-8l-78 -242h-163l147 374z" />
    <glyph glyph-name="Y" unicode="Y" horiz-adv-x="510" 
d="M502 723l-152 -440q-19 -2 -19 -22v-261h-155v261q0 20 -20 22l-146 440h164l86 -346h6l89 346h147z" />
    <glyph glyph-name="Z" unicode="Z" horiz-adv-x="450" 
d="M28 0v116l226 481v8h-208v118h376v-120l-224 -476v-8h220v-119h-390z" />
    <glyph glyph-name="bracketleft" unicode="[" horiz-adv-x="305" 
d="M75 -171v961h210v-92h-91v-776h91v-93h-210z" />
    <glyph glyph-name="backslash" unicode="\" horiz-adv-x="318" 
d="M114 723l189 -820h-90l-188 820h89z" />
    <glyph glyph-name="bracketright" unicode="]" horiz-adv-x="305" 
d="M230 790v-961h-210v93h91v776h-91v92h210z" />
    <glyph glyph-name="asciicircum" unicode="^" horiz-adv-x="542" 
d="M214 698h112l185 -448h-133l-104 287h-8l-104 -287h-131z" />
    <glyph glyph-name="underscore" unicode="_" horiz-adv-x="435" 
d="M30 -115v98h375v-98h-375z" />
    <glyph glyph-name="grave" unicode="`" horiz-adv-x="340" 
d="M50 664l56 87l184 -137l-48 -68z" />
    <glyph glyph-name="a" unicode="a" horiz-adv-x="433" 
d="M251 141v84q-28 12 -46 10q-21 -2 -32 -24t-11 -54q0 -75 36 -75q25 0 53 59zM383 339v-220q0 -69 9 -119h-136q3 36 3 65h-6q-47 -77 -109 -77q-52 0 -81.5 45t-29.5 117q0 70 39 111t100 43q39 1 79 -16q-1 10 -1 16v36q0 49 -7.5 72.5t-28.5 23.5q-36 0 -29 -82h-148
q12 71 59 116.5t121 45.5q76 0 121 -41.5t45 -135.5z" />
    <glyph glyph-name="b" unicode="b" horiz-adv-x="451" 
d="M192 63h-6l-4 -63h-132q3 50 3 94v629h136v-217l-2 -60h6q37 69 94 69q62 0 98 -73t36 -184q0 -117 -37.5 -193t-97.5 -76q-54 0 -94 74zM283 257q0 83 -9 121t-36 38q-40 0 -47 -105v-115q2 -22 3.5 -35.5t6.5 -33.5t14.5 -30t23.5 -10q44 0 44 170z" />
    <glyph glyph-name="c" unicode="c" horiz-adv-x="430" 
d="M406 326h-147q10 93 -29 93q-53 0 -51 -169q2 -164 52 -164q21 0 29 27.5t4 66.5h146q-14 -88 -61 -140t-118 -52q-87 0 -144 72t-57 188q0 123 57.5 195t142.5 72q67 0 117 -51.5t59 -137.5z" />
    <glyph glyph-name="d" unicode="d" horiz-adv-x="451" 
d="M265 63h-6q-40 -74 -94 -74q-60 0 -97.5 76t-37.5 193q0 111 36 184t98 73q57 0 94 -69h6q-2 30 -2 60v217h136v-629l3 -94h-132zM168 257q0 -170 44 -170q14 0 23.5 10t14.5 30t6.5 33.5t3.5 35.5v115q-7 105 -46 105q-27 0 -36.5 -38.5t-9.5 -120.5z" />
    <glyph glyph-name="e" unicode="e" horiz-adv-x="440" 
d="M414 222h-242q6 -150 58 -150q19 0 29 21t9 56h140q-12 -70 -61.5 -118.5t-120.5 -48.5q-86 0 -141 76t-55 199q0 109 56 186t142 77q92 0 140.5 -75.5t48.5 -174.5q0 -21 -3 -48zM174 311h101q1 46 -11.5 80t-37.5 34q-26 0 -38.5 -33t-13.5 -81z" />
    <glyph glyph-name="f" unicode="f" horiz-adv-x="300" 
d="M290 723v-101q-16 2 -28 2q-42 0 -42 -52v-66h63v-102h-63v-404h-147v404h-58v102h59v70q0 73 37 114.5t102 41.5q30 0 77 -9z" />
    <glyph glyph-name="g" unicode="g" horiz-adv-x="453" 
d="M259 443h6l12 63h133q-12 -66 -12 -134v-366q0 -183 -174 -183q-82 0 -126 40t-52 103h144q0 -59 30 -59q42 0 42 95l2 78h-6q-38 -65 -94 -65q-61 0 -97.5 67t-36.5 174q0 116 37.5 187t98.5 71q54 0 93 -71zM168 257q0 -81 9.5 -116.5t36.5 -35.5q39 0 46 105v97
q-2 22 -3.5 35.5t-6.5 33.5t-14.5 30t-23.5 10q-44 0 -44 -159z" />
    <glyph glyph-name="h" unicode="h" horiz-adv-x="455" 
d="M53 723h134v-217l-3 -80h6q42 89 109 89q106 0 106 -179v-336h-137v340q0 68 -26 68q-19 0 -33.5 -32t-21.5 -84v-292h-134v723z" />
    <glyph glyph-name="i" unicode="i" horiz-adv-x="254" 
d="M53 0v506h148v-506h-148zM48 647q0 34 22.5 54.5t55.5 20.5t56 -21t23 -54q0 -34 -23 -54t-56 -20t-55.5 20t-22.5 54z" />
    <glyph glyph-name="j" unicode="j" horiz-adv-x="254" 
d="M5 -164v99q25 -2 36.5 12.5t11.5 45.5v513h148v-529q0 -70 -31.5 -110t-96.5 -40q-35 0 -68 9zM48 647q0 34 22.5 54.5t55.5 20.5t56 -21t23 -54q0 -34 -23 -54t-56 -20t-55.5 20t-22.5 54z" />
    <glyph glyph-name="k" unicode="k" horiz-adv-x="435" 
d="M53 0v723h141v-217l-1 -222h6l78 222h143l-99 -243l109 -263h-148l-84 230h-6v-230h-139z" />
    <glyph glyph-name="l" unicode="l" horiz-adv-x="255" 
d="M202 507v-507h-148v723h136z" />
    <glyph glyph-name="m" unicode="m" horiz-adv-x="639" 
d="M46 506h130l5 -77h6q41 86 104 86q62 0 83 -85h6q41 85 108 85q101 0 101 -168v-347h-133v349q0 66 -22 66q-16 0 -29 -29t-20 -80v-306h-127v349q0 36 -4.5 51t-17.5 15q-16 0 -29 -29t-20 -80v-306h-132v360q0 74 -9 146z" />
    <glyph glyph-name="n" unicode="n" horiz-adv-x="457" 
d="M46 506h133l5 -80h6q42 89 111 89q106 0 106 -179v-336h-136v340q0 68 -26 68q-19 0 -33.5 -32t-21.5 -84v-292h-135v360q0 74 -9 146z" />
    <glyph glyph-name="o" unicode="o" horiz-adv-x="453" 
d="M30 253q0 102 53.5 183t144.5 81q63 0 109 -42.5t66 -100.5t20 -120q0 -111 -52 -191t-143 -80q-90 0 -144 77t-54 193zM175 253q0 -178 53 -178q28 0 39.5 45t11.5 134q0 172 -51 172q-53 0 -53 -173z" />
    <glyph glyph-name="p" unicode="p" horiz-adv-x="451" 
d="M186 439h6q40 73 94 73q60 0 97.5 -73.5t37.5 -190.5q0 -110 -36 -180.5t-98 -70.5q-58 0 -94 67h-6q2 -34 2 -64v-173h-136v585l-3 94h132zM283 249q0 165 -44 165q-14 0 -23.5 -10t-14.5 -30t-6.5 -33.5t-3.5 -35.5v-109q7 -105 46 -105q27 0 36.5 38t9.5 120z" />
    <glyph glyph-name="q" unicode="q" horiz-adv-x="451" 
d="M259 439h6l4 67h132q-3 -50 -3 -94v-585h-136v173l2 64h-6q-36 -67 -94 -67q-62 0 -98 70.5t-36 180.5q0 117 37.5 190.5t97.5 73.5q54 0 94 -73zM168 249q0 -82 9.5 -120t36.5 -38q39 0 46 105v109q-2 22 -3.5 35.5t-6.5 33.5t-14.5 30t-23.5 10q-44 0 -44 -165z" />
    <glyph glyph-name="r" unicode="r" horiz-adv-x="324" 
d="M57 0v360q0 74 -9 146h137l5 -140h6q47 154 123 154v-163q-9 4 -24 4q-40 0 -64 -36.5t-26 -104.5v-220h-148z" />
    <glyph glyph-name="s" unicode="s" horiz-adv-x="401" 
d="M22 141h148q-2 -28 6.5 -48.5t26.5 -20.5q33 0 33 46q0 43 -61 69q-149 63 -149 172q0 70 49.5 114.5t119.5 44.5q65 0 115 -36t56 -112h-144q2 28 -5.5 46.5t-21.5 18.5q-13 0 -22 -13t-9 -36q0 -42 63 -67q150 -58 150 -173q0 -73 -53.5 -116.5t-121.5 -43.5
q-41 0 -78 13t-67.5 50t-34.5 92z" />
    <glyph glyph-name="t" unicode="t" horiz-adv-x="318" 
d="M15 406v100h65l37 141h108v-141h75v-100h-75v-269q0 -37 27 -37q20 0 46 11l-2 -89q-50 -32 -99 -32q-61 0 -90.5 34t-29.5 107v275h-62z" />
    <glyph glyph-name="u" unicode="u" horiz-adv-x="455" 
d="M405 0h-124l-5 75h-6q-49 -85 -115 -85q-105 0 -105 180v336h137v-345q0 -37 5.5 -52.5t19.5 -15.5q19 0 33.5 32t21.5 84v297h135v-412z" />
    <glyph glyph-name="v" unicode="v" horiz-adv-x="422" 
d="M133 0l-123 506h145l58 -337h6l60 337h133l-121 -506h-158z" />
    <glyph glyph-name="w" unicode="w" horiz-adv-x="582" 
d="M448 506h119l-77 -506h-141l-51 344h-6l-56 -344h-141l-80 506h133l28 -333h6l52 335h129l48 -335h6z" />
    <glyph glyph-name="x" unicode="x" horiz-adv-x="435" 
d="M300 258l125 -258h-150l-55 161h-6l-57 -161h-147l111 259l-104 247h156l43 -149h6l48 149h141z" />
    <glyph glyph-name="y" unicode="y" horiz-adv-x="435" 
d="M288 506h132l-128 -553q-29 -130 -167 -130q-46 0 -82 9v105q20 -5 53 -5q35 0 54.5 20t19.5 52q0 20 -12.5 31.5t-32.5 10.5l-115 460h144l64 -348h5z" />
    <glyph glyph-name="z" unicode="z" horiz-adv-x="360" 
d="M20 0v109l164 292v6h-156v99h307v-103l-164 -295v-6h169v-102h-320z" />
    <glyph glyph-name="braceleft" unicode="{" horiz-adv-x="305" 
d="M112 315q112 -32 112 -131q0 -22 -7.5 -71t-7.5 -73q0 -16 2.5 -28t10 -26.5t26.5 -24t47 -11.5v-82q-208 5 -208 182q0 20 6.5 67t6.5 70q0 18 -1.5 28t-9 26t-27.5 24.5t-52 10.5v86q32 2 52.5 10.5t27.5 24.5t8.5 25.5t1.5 28.5q0 24 -6.5 70.5t-6.5 66.5
q0 177 208 182v-82q-28 -2 -47 -11.5t-26.5 -24t-10 -26.5t-2.5 -28q0 -24 7.5 -73t7.5 -71q0 -99 -112 -131v-8z" />
    <glyph glyph-name="bar" unicode="|" horiz-adv-x="270" 
d="M80 747h110v-930h-110v930z" />
    <glyph glyph-name="braceright" unicode="}" horiz-adv-x="305" 
d="M193 315v8q-112 32 -112 131q0 22 7.5 71t7.5 73q0 16 -2.5 28t-10 26.5t-26.5 24t-47 11.5v82q208 -5 208 -182q0 -20 -6.5 -66.5t-6.5 -70.5q0 -19 1.5 -28.5t8.5 -25.5t27.5 -24.5t52.5 -10.5v-86q-32 -2 -52 -10.5t-27.5 -24.5t-9 -26t-1.5 -28q0 -23 6.5 -70
t6.5 -67q0 -177 -208 -182v82q28 2 47 11.5t26.5 24t10 26.5t2.5 28q0 24 -7.5 73t-7.5 71q0 99 112 131z" />
    <glyph glyph-name="asciitilde" unicode="~" horiz-adv-x="540" 
d="M143 215h-86q5 73 37 128.5t89 55.5q34 0 100 -36q61 -32 77 -32q34 0 38 60h85q-5 -74 -37 -130t-89 -56q-43 0 -105 37q-52 31 -72 31q-32 0 -37 -58z" />
    <glyph glyph-name="nbspace" unicode="&#xa0;" horiz-adv-x="230" 
 />
    <glyph glyph-name="exclamdown" unicode="&#xa1;" horiz-adv-x="270" 
d="M186 292l25 -500h-151l24 500h102zM56 436q0 34 22 56.5t56 22.5t56.5 -22.5t22.5 -56.5t-22.5 -57t-56.5 -23t-56 22.5t-22 57.5z" />
    <glyph glyph-name="cent" unicode="&#xa2;" horiz-adv-x="500" 
d="M106 -128l55 151q-94 70 -94 225q0 124 56.5 196.5t141.5 72.5q27 0 51 -9l44 122h75l-60 -159q53 -52 64 -145h-143q4 39 -3 67t-28 28q-29 0 -42.5 -50t-12.5 -121q2 -166 56 -166q21 0 30 28.5t5 67.5h142q-14 -88 -60 -140t-117 -52q-17 0 -45 6l-42 -122h-73z" />
    <glyph glyph-name="sterling" unicode="&#xa3;" horiz-adv-x="500" 
d="M111 386v121q0 85 49 141.5t133 56.5q76 0 121.5 -53t50.5 -140h-150q11 88 -20 88q-35 0 -35 -84v-130h94v-85h-94v-186h188v-115h-388v115h51v186h-51v85h51z" />
    <glyph glyph-name="currency" unicode="&#xa4;" horiz-adv-x="470" 
d="M235 513q53 0 94 -26l46 47l68 -68l-46 -45q27 -43 27 -95t-27 -95l47 -46l-68 -66l-46 47q-39 -27 -95 -27t-95 27l-46 -47l-68 66l47 46q-27 43 -27 95t27 95l-46 45l68 68l46 -47q41 26 94 26zM235 234q41 0 66.5 25.5t25.5 66.5t-25.5 66.5t-66.5 25.5t-66.5 -25.5
t-25.5 -66.5t25.5 -66.5t66.5 -25.5z" />
    <glyph glyph-name="yen" unicode="&#xa5;" horiz-adv-x="500" 
d="M76 352h80l-126 346h161l66 -289h8l66 289h139l-121 -346h81v-77h-103v-59h103v-76h-102v-140h-149v140h-103v76h104v59h-104v77z" />
    <glyph glyph-name="brokenbar" unicode="&#xa6;" horiz-adv-x="270" 
d="M85 160h100v-343h-100v343zM85 698h100v-343h-100v343z" />
    <glyph glyph-name="section" unicode="&#xa7;" horiz-adv-x="490" 
d="M449 272q0 -77 -93 -124q83 -76 83 -160q0 -74 -52.5 -120t-133.5 -46q-127 0 -180 127l138 42q2 -69 43 -69q20 0 33 17.5t13 43.5q0 45 -37 74q-63 48 -80 60q-79 55 -103 81q-39 44 -39 96q0 77 93 124q-83 73 -83 160q0 74 52.5 120t133.5 46q127 0 180 -127
l-138 -42q-2 69 -43 69q-20 0 -33 -17.5t-13 -43.5q0 -45 37 -74q63 -48 80 -60q79 -55 103 -81q39 -44 39 -96zM237 337q-23 16 -37 27q-28 -18 -28 -46q0 -6 1 -11t4 -10.5t5.5 -9.5t8.5 -9.5t9 -9t11.5 -9.5t12.5 -9t14.5 -10.5t14.5 -10.5l37 -28q28 18 28 47q0 6 -1 11
t-4 10.5t-5.5 9.5t-8.5 9.5t-9 9t-11.5 9.5t-12.5 9t-14.5 10.5t-14.5 10.5z" />
    <glyph glyph-name="dieresis" unicode="&#xa8;" horiz-adv-x="415" 
d="M187 637q0 -29 -20.5 -50t-48.5 -21t-48 21t-20 50q0 30 19.5 50t48.5 20t49 -20t20 -50zM227 637q0 30 20 50t49 20t49 -20t20 -50q0 -29 -20.5 -50t-48.5 -21t-48.5 21t-20.5 50z" />
    <glyph glyph-name="copyright" unicode="&#xa9;" horiz-adv-x="615" 
d="M457 431h-110q0 81 -35 81q-24 0 -37.5 -41.5t-13.5 -106.5q0 -144 52 -144q39 0 37 81h110q-6 -71 -48 -115.5t-97 -44.5q-53 0 -92 37.5t-55 86t-16 98.5q0 85 45 154.5t120 69.5q54 0 94.5 -43t45.5 -113zM308 723q117 0 197 -98.5t80 -262.5q0 -161 -80 -261.5
t-197 -100.5t-197.5 100t-80.5 262q0 163 81 262t197 99zM309 672q-100 0 -161.5 -84t-61.5 -225t60.5 -226t160.5 -85t161.5 86t61.5 225q0 140 -60.5 224.5t-160.5 84.5z" />
    <glyph glyph-name="ordfeminine" unicode="&#xaa;" horiz-adv-x="340" 
d="M196 484v54q-15 7 -31 6q-26 -3 -26 -48q0 -49 21 -49q18 0 36 37zM282 610v-141q0 -41 5 -76h-90q2 15 2 41h-4q-29 -49 -71 -49q-35 0 -53.5 27.5t-18.5 74.5q0 46 26 73.5t65 27.5q30 0 53 -10q-1 6 -1 10v22q0 62 -26 62q-22 0 -17 -51h-98q8 45 39 73.5t79 28.5
q49 0 79.5 -26.5t30.5 -86.5z" />
    <glyph glyph-name="guillemotleft" unicode="&#xab;" horiz-adv-x="425" 
d="M230 44h-100l-100 209l100 202h99l-84 -202zM395 44h-99l-99 209l99 202h99l-83 -202z" />
    <glyph glyph-name="logicalnot" unicode="&#xac;" horiz-adv-x="540" 
d="M70 362v125h400v-315h-126v190h-274z" />
    <glyph glyph-name="uni00AD" unicode="&#xad;" horiz-adv-x="350" 
d="M48 207v114h254v-114h-254z" />
    <glyph glyph-name="registered" unicode="&#xae;" horiz-adv-x="615" 
d="M180 155v422h106q56 0 101 -31.5t45 -88.5q0 -37 -20 -64t-52 -41l103 -197h-107l-76 167h-6v-167h-94zM274 506v-114l17 1q18 1 31 16t13 40q0 26 -13 40.5t-31 15.5zM308 723q117 0 197 -98.5t80 -262.5q0 -161 -80 -261.5t-197 -100.5t-197.5 100t-80.5 262
q0 163 81 262t197 99zM309 672q-100 0 -161.5 -84t-61.5 -225t60.5 -226t160.5 -85t161.5 86t61.5 225q0 140 -60.5 224.5t-160.5 84.5z" />
    <glyph glyph-name="macron" unicode="&#xaf;" horiz-adv-x="390" 
d="M63 594v94h266v-94h-266z" />
    <glyph glyph-name="degree" unicode="&#xb0;" horiz-adv-x="400" 
d="M200 708q67 0 114.5 -46t47.5 -113q0 -66 -47.5 -113t-114.5 -47q-66 0 -113.5 47t-47.5 113q0 67 47 113t114 46zM200 619q-28 0 -48.5 -20t-20.5 -50q0 -29 20 -49.5t49 -20.5q30 0 50 20.5t20 49.5t-20.5 49.5t-49.5 20.5z" />
    <glyph glyph-name="plusminus" unicode="&#xb1;" horiz-adv-x="540" 
d="M333 597v-137h137v-125h-137v-137h-126v137h-137v125h137v137h126zM70 125h400v-125h-400v125z" />
    <glyph glyph-name="two.sups" unicode="&#xb2;" 
d="M290 461h-247l-3 45q2 35 17.5 66t30.5 47t40 39q23 20 40 42q25 28 25 67q0 56 -27 56q-32 0 -17 -79h-109q-4 60 33.5 101t96.5 41q55 0 90.5 -34t35.5 -88q0 -30 -13.5 -57.5t-27 -41t-36.5 -33.5l-51 -41q-33 -27 -40 -42q-4 -9 -3 -19l165 2v-71z" />
    <glyph glyph-name="three.sups" unicode="&#xb3;" 
d="M27 581h110q-7 -63 23 -63q26 0 26 52q0 31 -15 49t-38 20l-25 3v62l25 3q49 6 49 66q0 50 -23 50q-12 0 -17.5 -16t-1.5 -41h-108q5 60 44 90t89 30q51 0 86 -30.5t35 -77.5q0 -68 -74 -99v-5q34 -9 57.5 -37t23.5 -65q0 -53 -39 -86.5t-95 -33.5q-53 0 -92.5 35.5
t-39.5 93.5z" />
    <glyph glyph-name="acute" unicode="&#xb4;" horiz-adv-x="340" 
d="M234 751l56 -87l-192 -118l-48 68z" />
    <glyph glyph-name="uni00B5" unicode="&#xb5;" horiz-adv-x="455" 
d="M405 0h-124l-5 75h-6q-14 -30 -37.5 -51.5t-51.5 -24.5l2 -173h-133v680h135v-345q0 -68 26 -68q19 0 34 32t22 84v297h135v-412z" />
    <glyph glyph-name="paragraph" unicode="&#xb6;" horiz-adv-x="493" 
d="M423 723v-906h-104v803h-76v-803h-102v458q-73 12 -112 79t-39 148q0 85 49.5 153t140.5 68h243z" />
    <glyph glyph-name="periodcentered" unicode="&#xb7;" horiz-adv-x="230" 
d="M36 351q0 35 22 58t56 23t56.5 -23t22.5 -58q0 -34 -22.5 -57t-56.5 -23t-56 23t-22 57z" />
    <glyph glyph-name="cedilla" unicode="&#xb8;" horiz-adv-x="287" 
d="M50 -187l23 63q21 -21 52 -21q14 0 23 7.5t9 19.5q0 22 -24 22q-17 0 -32 -9l-28 30l47 107h71l-52 -75l4 -4q10 4 23 4q31 0 50.5 -19.5t19.5 -52.5q0 -39 -30 -66.5t-79 -27.5q-45 0 -77 22z" />
    <glyph glyph-name="one.sups" unicode="&#xb9;" 
d="M159 461v313h-4q-31 -70 -95 -172v146q68 81 96 131h103v-418h-100z" />
    <glyph glyph-name="ordmasculine" unicode="&#xba;" horiz-adv-x="340" 
d="M44 557q0 65 34.5 117t92.5 52q60 0 92.5 -52.5t32.5 -115.5q0 -71 -33.5 -122.5t-91.5 -51.5q-57 0 -92 49.5t-35 123.5zM140 557q0 -116 31 -116t31 117q0 112 -31 112t-31 -113z" />
    <glyph glyph-name="guillemotright" unicode="&#xbb;" horiz-adv-x="425" 
d="M295 44h-100l85 209l-84 202h99l100 -202zM129 44h-99l83 209l-83 202h99l99 -202z" />
    <glyph glyph-name="onequarter" unicode="&#xbc;" horiz-adv-x="720" 
d="M153 -26l325 749h82l-324 -749h-83zM139 281v313h-4q-31 -70 -95 -172v146q68 81 96 131h103v-418h-100zM531 0v96h-133v88q72 110 129 234h106v-253h43v-69h-43v-96h-102zM459 163h77v164h-4q-15 -39 -33.5 -78.5t-28.5 -60.5l-11 -20v-5z" />
    <glyph glyph-name="onehalf" unicode="&#xbd;" horiz-adv-x="720" 
d="M684 0h-247l-3 45q2 35 17.5 66t30.5 47t40 39q23 20 40 42q25 28 25 67q0 56 -27 56q-32 0 -17 -79h-109q-4 60 33.5 101t96.5 41q55 0 90.5 -34t35.5 -88q0 -30 -13.5 -57.5t-27 -41t-36.5 -33.5l-51 -41q-33 -27 -40 -42q-4 -9 -3 -19l165 2v-71zM153 -26l325 749h82
l-324 -749h-83zM139 281v313h-4q-31 -70 -95 -172v146q68 81 96 131h103v-418h-100z" />
    <glyph glyph-name="threequarters" unicode="&#xbe;" horiz-adv-x="720" 
d="M163 -26l325 749h82l-324 -749h-83zM24 401h110q-7 -63 23 -63q26 0 26 52q0 31 -15 49t-38 20l-25 3v62l25 3q49 6 49 66q0 50 -23 50q-12 0 -17.5 -16t-1.5 -41h-108q5 60 44 90t89 30q51 0 86 -30.5t35 -77.5q0 -68 -74 -99v-5q34 -9 57.5 -37t23.5 -65
q0 -53 -39 -86.5t-95 -33.5q-53 0 -92.5 35.5t-39.5 93.5zM536 0v96h-133v88q72 110 129 234h106v-253h43v-69h-43v-96h-102zM464 163h77v164h-4q-15 -39 -33.5 -78.5t-29.5 -60.5l-10 -20v-5z" />
    <glyph glyph-name="questiondown" unicode="&#xbf;" horiz-adv-x="437" 
d="M304 436q0 -35 -22 -57.5t-56 -22.5t-56.5 23t-22.5 57t22.5 56.5t56.5 22.5t56 -22.5t22 -56.5zM250 -21h157q-8 -99 -63 -147.5t-126 -48.5q-77 0 -132.5 45t-55.5 128q0 38 19 77.5t36.5 60.5t54.5 63q35 40 35 109q0 12 -3 26h117q2 -9 2 -28q0 -54 -17.5 -96.5
t-52.5 -91.5q-37 -51 -37 -105q0 -81 41 -81q40 0 25 89z" />
    <glyph glyph-name="Agrave" unicode="&#xc0;" horiz-adv-x="507" 
d="M345 0l-23 142h-142l-24 -142h-146l148 723h183l156 -723h-152zM304 258l-48 278h-8l-50 -278h106zM100 852l48 89l192 -118l-41 -70z" />
    <glyph glyph-name="Aacute" unicode="&#xc1;" horiz-adv-x="507" 
d="M345 0l-23 142h-142l-24 -142h-146l148 723h183l156 -723h-152zM304 258l-48 278h-8l-50 -278h106zM349 941l48 -89l-199 -99l-41 70z" />
    <glyph glyph-name="Acircumflex" unicode="&#xc2;" horiz-adv-x="507" 
d="M345 0l-23 142h-142l-24 -142h-146l148 723h183l156 -723h-152zM304 258l-48 278h-8l-50 -278h106zM253 940l147 -170h-101l-43 55h-6l-43 -55h-103z" />
    <glyph glyph-name="Atilde" unicode="&#xc3;" horiz-adv-x="507" 
d="M345 0l-23 142h-142l-24 -142h-146l148 723h183l156 -723h-152zM304 258l-48 278h-8l-50 -278h106zM315 773q-24 0 -71 17q-40 15 -52 15q-26 0 -31 -40h-69q-1 69 27.5 100.5t69.5 31.5q24 0 71 -17q40 -15 52 -15q26 0 31 40h69q1 -69 -27.5 -100.5t-69.5 -31.5z" />
    <glyph glyph-name="Adieresis" unicode="&#xc4;" horiz-adv-x="507" 
d="M345 0l-23 142h-142l-24 -142h-146l148 723h183l156 -723h-152zM304 258l-48 278h-8l-50 -278h106zM94 841q0 29 20 48.5t48 19.5q27 0 47 -19.5t20 -48.5q0 -28 -20 -47.5t-47 -19.5q-28 0 -48 19.5t-20 47.5zM275 841q0 29 20 48.5t47 19.5q28 0 48.5 -19.5t20.5 -48.5
q0 -28 -20.5 -47.5t-48.5 -19.5q-27 0 -47 19.5t-20 47.5z" />
    <glyph glyph-name="Aring" unicode="&#xc5;" horiz-adv-x="507" 
d="M345 0l-23 142h-142l-24 -142h-146l148 723h183l156 -723h-152zM304 258l-48 278h-8l-50 -278h106zM165 843q0 35 25.5 59.5t61.5 24.5t62 -24.5t26 -59.5q0 -36 -26 -61t-62 -25t-61.5 25t-25.5 61zM216 843q0 -16 10 -25.5t26 -9.5q17 0 27 9.5t10 25.5t-10 25.5
t-27 9.5q-16 0 -26 -9.5t-10 -25.5z" />
    <glyph glyph-name="AE" unicode="&#xc6;" horiz-adv-x="695" 
d="M652 315h-182l25 -195h175v-120h-314l-14 158h-138l-41 -158h-153l223 723h431v-118h-231l22 -172h197v-118zM303 532l-69 -261h98l-23 261h-6z" />
    <glyph glyph-name="Ccedilla" unicode="&#xc7;" horiz-adv-x="538" 
d="M199 -187l23 63q21 -21 52 -21q14 0 23 7.5t9 19.5q0 22 -24 22q-17 0 -32 -9l-28 30l28 65q-73 14 -123.5 73.5t-71 133t-20.5 154.5q0 55 9.5 108t30.5 102t50.5 86t73 59t95.5 22q83 0 146.5 -64t77.5 -168h-167q-2 119 -57 119q-88 0 -88 -262q0 -110 21 -182.5
t67 -72.5q58 0 60 122h169q-15 -101 -76 -165t-140 -69l-19 -29l4 -4q10 4 23 4q31 0 50.5 -19.5t19.5 -52.5q0 -39 -30 -66.5t-79 -27.5q-45 0 -77 22z" />
    <glyph glyph-name="Egrave" unicode="&#xc8;" horiz-adv-x="425" 
d="M60 0v723h333v-118h-181v-172h167v-118h-167v-195h188v-120h-340zM102 852l48 89l192 -118l-41 -70z" />
    <glyph glyph-name="Eacute" unicode="&#xc9;" horiz-adv-x="425" 
d="M60 0v723h333v-118h-181v-172h167v-118h-167v-195h188v-120h-340zM324 941l48 -89l-199 -99l-41 70z" />
    <glyph glyph-name="Ecircumflex" unicode="&#xca;" horiz-adv-x="425" 
d="M60 0v723h333v-118h-181v-172h167v-118h-167v-195h188v-120h-340zM230 940l147 -170h-101l-43 55h-6l-43 -55h-103z" />
    <glyph glyph-name="Edieresis" unicode="&#xcb;" horiz-adv-x="425" 
d="M60 0v723h333v-118h-181v-172h167v-118h-167v-195h188v-120h-340zM71 841q0 29 20 48.5t48 19.5q27 0 47 -19.5t20 -48.5q0 -28 -20 -47.5t-47 -19.5q-28 0 -48 19.5t-20 47.5zM252 841q0 29 20 48.5t47 19.5q28 0 48.5 -19.5t20.5 -48.5q0 -28 -20.5 -47.5t-48.5 -19.5
q-27 0 -47 19.5t-20 47.5z" />
    <glyph glyph-name="Igrave" unicode="&#xcc;" horiz-adv-x="275" 
d="M60 0v723h155v-723h-155zM0 852l48 89l192 -118l-41 -70z" />
    <glyph glyph-name="Iacute" unicode="&#xcd;" horiz-adv-x="275" 
d="M60 0v723h155v-723h-155zM227 941l48 -89l-199 -99l-41 70z" />
    <glyph glyph-name="Icircumflex" unicode="&#xce;" horiz-adv-x="275" 
d="M60 0v723h155v-723h-155zM138 940l147 -170h-101l-43 55h-6l-43 -55h-103z" />
    <glyph glyph-name="Idieresis" unicode="&#xcf;" horiz-adv-x="275" 
d="M60 0v723h155v-723h-155zM-21 841q0 29 20 48.5t48 19.5q27 0 47 -19.5t20 -48.5q0 -28 -20 -47.5t-47 -19.5q-28 0 -48 19.5t-20 47.5zM160 841q0 29 20 48.5t47 19.5q28 0 48.5 -19.5t20.5 -48.5q0 -28 -20.5 -47.5t-48.5 -19.5q-27 0 -47 19.5t-20 47.5z" />
    <glyph glyph-name="Eth" unicode="&#xd0;" horiz-adv-x="546" 
d="M62 0v328h-40v87h40v308h176q121 0 197 -96.5t76 -269.5q0 -160 -72.5 -258.5t-205.5 -98.5h-171zM297 328h-83v-218l29 2q57 4 84 71t27 174q0 67 -11 121.5t-37 91.5t-64 40l-28 2v-197h83v-87z" />
    <glyph glyph-name="Ntilde" unicode="&#xd1;" horiz-adv-x="580" 
d="M60 0v723h185l145 -474h6l-1 474h125v-723h-181l-145 470h-6l1 -470h-129zM353 773q-24 0 -71 17q-40 15 -52 15q-26 0 -31 -40h-69q-1 69 27.5 100.5t69.5 31.5q24 0 71 -17q40 -15 52 -15q26 0 31 40h69q1 -69 -27.5 -100.5t-69.5 -31.5z" />
    <glyph glyph-name="Ograve" unicode="&#xd2;" horiz-adv-x="597" 
d="M35 361q0 174 74.5 275.5t189.5 101.5t189 -104t74 -277q0 -100 -30 -183.5t-91.5 -136t-142.5 -52.5q-121 0 -192 107t-71 269zM196 360q0 -266 103 -266q102 0 102 265q0 274 -102 274q-103 0 -103 -273zM157 852l48 89l192 -118l-41 -70z" />
    <glyph glyph-name="Oacute" unicode="&#xd3;" horiz-adv-x="597" 
d="M35 361q0 174 74.5 275.5t189.5 101.5t189 -104t74 -277q0 -100 -30 -183.5t-91.5 -136t-142.5 -52.5q-121 0 -192 107t-71 269zM196 360q0 -266 103 -266q102 0 102 265q0 274 -102 274q-103 0 -103 -273zM400 941l48 -89l-199 -99l-41 70z" />
    <glyph glyph-name="Ocircumflex" unicode="&#xd4;" horiz-adv-x="597" 
d="M35 361q0 174 74.5 275.5t189.5 101.5t189 -104t74 -277q0 -100 -30 -183.5t-91.5 -136t-142.5 -52.5q-121 0 -192 107t-71 269zM196 360q0 -266 103 -266q102 0 102 265q0 274 -102 274q-103 0 -103 -273zM299 940l147 -170h-101l-43 55h-6l-43 -55h-103z" />
    <glyph glyph-name="Otilde" unicode="&#xd5;" horiz-adv-x="597" 
d="M35 361q0 174 74.5 275.5t189.5 101.5t189 -104t74 -277q0 -100 -30 -183.5t-91.5 -136t-142.5 -52.5q-121 0 -192 107t-71 269zM196 360q0 -266 103 -266q102 0 102 265q0 274 -102 274q-103 0 -103 -273zM361 773q-24 0 -71 17q-40 15 -52 15q-26 0 -31 -40h-69
q-1 69 27.5 100.5t69.5 31.5q24 0 71 -17q40 -15 52 -15q26 0 31 40h69q1 -69 -27.5 -100.5t-69.5 -31.5z" />
    <glyph glyph-name="Odieresis" unicode="&#xd6;" horiz-adv-x="597" 
d="M35 361q0 174 74.5 275.5t189.5 101.5t189 -104t74 -277q0 -100 -30 -183.5t-91.5 -136t-142.5 -52.5q-121 0 -192 107t-71 269zM196 360q0 -266 103 -266q102 0 102 265q0 274 -102 274q-103 0 -103 -273zM140 841q0 29 20 48.5t48 19.5q27 0 47 -19.5t20 -48.5
q0 -28 -20 -47.5t-47 -19.5q-28 0 -48 19.5t-20 47.5zM321 841q0 29 20 48.5t47 19.5q28 0 48.5 -19.5t20.5 -48.5q0 -28 -20.5 -47.5t-48.5 -19.5q-27 0 -47 19.5t-20 47.5z" />
    <glyph glyph-name="multiply" unicode="&#xd7;" horiz-adv-x="540" 
d="M475 426l-120 -120l120 -120l-85 -85l-120 120l-120 -120l-85 85l120 120l-120 120l85 85l120 -120l120 120z" />
    <glyph glyph-name="Oslash" unicode="&#xd8;" horiz-adv-x="592" 
d="M33 361q0 174 74.5 276t189.5 102q77 0 139 -50l53 95l66 -36l-66 -119q71 -107 71 -272q0 -100 -30 -184t-91.5 -137t-142.5 -53t-139 49l-56 -101l-65 36l68 123q-71 106 -71 271zM194 360q0 -60 4 -101l172 311q-26 63 -73 63q-103 0 -103 -273zM399 359q0 48 -5 100
l-171 -308q25 -57 74 -57q102 0 102 265z" />
    <glyph glyph-name="Ugrave" unicode="&#xd9;" horiz-adv-x="538" 
d="M270 -14q-96 0 -154.5 68t-58.5 203v466h155v-488q0 -134 59 -134q58 0 58 134v488h152v-466q0 -135 -57 -203t-154 -68zM109 852l48 89l192 -118l-41 -70z" />
    <glyph glyph-name="Uacute" unicode="&#xda;" horiz-adv-x="538" 
d="M270 -14q97 0 154 68t57 203v466h-152v-488q0 -134 -58 -134q-59 0 -59 134v488h-155v-466q0 -135 58.5 -203t154.5 -68zM391 941l48 -89l-199 -99l-41 70z" />
    <glyph glyph-name="Ucircumflex" unicode="&#xdb;" horiz-adv-x="538" 
d="M270 -14q-96 0 -154.5 68t-58.5 203v466h155v-488q0 -134 59 -134q58 0 58 134v488h152v-466q0 -135 -57 -203t-154 -68zM271 940l147 -170h-101l-43 55h-6l-43 -55h-103z" />
    <glyph glyph-name="Udieresis" unicode="&#xdc;" horiz-adv-x="538" 
d="M270 -14q97 0 154 68t57 203v466h-152v-488q0 -134 -58 -134q-59 0 -59 134v488h-155v-466q0 -135 58.5 -203t154.5 -68zM114 841q0 29 20 48.5t48 19.5q27 0 47 -19.5t20 -48.5q0 -28 -20 -47.5t-47 -19.5q-28 0 -48 19.5t-20 47.5zM295 841q0 29 20 48.5t47 19.5
q28 0 48.5 -19.5t20.5 -48.5q0 -28 -20.5 -47.5t-48.5 -19.5q-27 0 -47 19.5t-20 47.5z" />
    <glyph glyph-name="Yacute" unicode="&#xdd;" horiz-adv-x="510" 
d="M502 723l-152 -440q-19 -2 -19 -22v-261h-155v261q0 20 -20 22l-146 440h164l86 -346h6l89 346h147zM387 941l48 -89l-199 -99l-41 70z" />
    <glyph glyph-name="Thorn" unicode="&#xde;" horiz-adv-x="508" 
d="M215 486v-231l30 1q34 1 58.5 31.5t24.5 84.5t-23.5 82t-55.5 30zM217 597h34q96 0 166.5 -59t70.5 -164q0 -103 -70.5 -165t-166.5 -62h-34v-147h-157v723h157v-126z" />
    <glyph glyph-name="germandbls" unicode="&#xdf;" horiz-adv-x="530" 
d="M196 532v-458q0 -46 -3 -74h-138q3 30 3 74v450q0 98 62 148.5t153 50.5q72 0 126 -40.5t54 -116.5q0 -55 -53 -119q-4 -6 -11 -13.5t-10 -11.5t-5.5 -10t-2.5 -12t2 -11.5t8 -13t10.5 -12.5t15 -15t17.5 -17q26 -26 40 -43.5t30 -55t16 -78.5q0 -76 -45.5 -123.5
t-114.5 -47.5q-60 0 -98 43.5t-42 116.5h126q-10 -52 0 -59q3 -2 7 -2q14 0 24 18t10 45q0 39 -51 98q-6 6 -24 26t-28 31.5t-23 29.5t-19 34.5t-6 31.5t6 31.5t11 24t18.5 25t15.5 19.5q28 39 28 74q0 64 -44 66q-30 1 -47.5 -26.5t-17.5 -77.5z" />
    <glyph glyph-name="agrave" unicode="&#xe0;" horiz-adv-x="433" 
d="M251 141v84q-28 12 -46 10q-21 -2 -32 -24t-11 -54q0 -75 36 -75q25 0 53 59zM383 339v-220q0 -69 9 -119h-136q3 36 3 65h-6q-47 -77 -109 -77q-52 0 -81.5 45t-29.5 117q0 70 39 111t100 43q39 1 79 -16q-1 10 -1 16v36q0 49 -7.5 72.5t-28.5 23.5q-36 0 -29 -82h-148
q12 71 59 116.5t121 45.5q76 0 121 -41.5t45 -135.5zM86 664l56 87l184 -137l-48 -68z" />
    <glyph glyph-name="aacute" unicode="&#xe1;" horiz-adv-x="433" 
d="M251 225v-84q-28 -59 -53 -59q-36 0 -36 75q0 32 11 54t32 24q18 2 46 -10zM383 119v220q0 94 -45 135.5t-121 41.5q-74 0 -121 -45.5t-59 -116.5h148q-7 82 29 82q21 0 28.5 -23.5t7.5 -72.5v-36l1 -16q-40 17 -79 16q-61 -2 -100 -43t-39 -111q0 -72 29.5 -117
t81.5 -45q62 0 109 77h6q0 -29 -3 -65h136q-9 50 -9 119zM300 751l56 -87l-192 -118l-48 68z" />
    <glyph glyph-name="acircumflex" unicode="&#xe2;" horiz-adv-x="433" 
d="M251 141v84q-28 12 -46 10q-21 -2 -32 -24t-11 -54q0 -75 36 -75q25 0 53 59zM383 339v-220q0 -69 9 -119h-136q3 36 3 65h-6q-47 -77 -109 -77q-52 0 -81.5 45t-29.5 117q0 70 39 111t100 43q39 1 79 -16q-1 10 -1 16v36q0 49 -7.5 72.5t-28.5 23.5q-36 0 -29 -82h-148
q12 71 59 116.5t121 45.5q76 0 121 -41.5t45 -135.5zM217 735l145 -180h-97l-45 58h-6l-45 -58h-99z" />
    <glyph glyph-name="atilde" unicode="&#xe3;" horiz-adv-x="433" 
d="M251 225v-84q-28 -59 -53 -59q-36 0 -36 75q0 32 11 54t32 24q18 2 46 -10zM383 119v220q0 94 -45 135.5t-121 41.5q-74 0 -121 -45.5t-59 -116.5h148q-7 82 29 82q21 0 28.5 -23.5t7.5 -72.5v-36l1 -16q-40 17 -79 16q-61 -2 -100 -43t-39 -111q0 -72 29.5 -117
t81.5 -45q62 0 109 77h6q0 -29 -3 -65h136q-9 50 -9 119zM282 574q-27 0 -74 17q-40 15 -52 15q-23 0 -28 -42h-63q1 72 24.5 105.5t60.5 33.5q27 0 74 -17q40 -15 52 -15q23 0 28 42h63q-1 -72 -24.5 -105.5t-60.5 -33.5z" />
    <glyph glyph-name="adieresis" unicode="&#xe4;" horiz-adv-x="433" 
d="M251 225v-84q-28 -59 -53 -59q-36 0 -36 75q0 32 11 54t32 24q18 2 46 -10zM383 119v220q0 94 -45 135.5t-121 41.5q-74 0 -121 -45.5t-59 -116.5h148q-7 82 29 82q21 0 28.5 -23.5t7.5 -72.5v-36l1 -16q-40 17 -79 16q-61 -2 -100 -43t-39 -111q0 -72 29.5 -117
t81.5 -45q62 0 109 77h6q0 -29 -3 -65h136q-9 50 -9 119zM195 637q0 -29 -20.5 -50t-48.5 -21t-48 21t-20 50q0 30 19.5 50t48.5 20t49 -20t20 -50zM235 637q0 30 20 50t49 20t49 -20t20 -50q0 -29 -20.5 -50t-48.5 -21t-48.5 21t-20.5 50z" />
    <glyph glyph-name="aring" unicode="&#xe5;" horiz-adv-x="433" 
d="M251 225v-84q-28 -59 -53 -59q-36 0 -36 75q0 32 11 54t32 24q18 2 46 -10zM383 119v220q0 94 -45 135.5t-121 41.5q-74 0 -121 -45.5t-59 -116.5h148q-7 82 29 82q21 0 28.5 -23.5t7.5 -72.5v-36l1 -16q-40 17 -79 16q-61 -2 -100 -43t-39 -111q0 -72 29.5 -117
t81.5 -45q62 0 109 77h6q0 -29 -3 -65h136q-9 50 -9 119zM118 642q0 39 28.5 66t68.5 27q41 0 69.5 -27t28.5 -66q0 -40 -28.5 -67.5t-69.5 -27.5q-40 0 -68.5 27.5t-28.5 67.5zM175 642q0 -18 11 -28.5t29 -10.5t29.5 10.5t11.5 28.5q0 17 -11.5 28t-29.5 11
q-17 0 -28.5 -11t-11.5 -28z" />
    <glyph glyph-name="ae" unicode="&#xe6;" horiz-adv-x="645" 
d="M331 471h6q46 49 107 49q58 0 98.5 -39t57.5 -93.5t17 -117.5q0 -21 -3 -48h-235q6 -150 58 -150q19 0 29 21t9 56h135q-12 -71 -59 -119t-117 -48q-44 0 -79 25.5t-55 72.5h-6q-60 -95 -149 -95q-53 0 -81.5 44.5t-28.5 117.5q0 69 38 112t98 45q37 1 82 -17q-1 9 -1 16
v37q0 96 -40 96q-36 0 -29 -81h-142q12 71 56.5 116t118.5 45q70 0 115 -45zM264 140q-8 39 -10 83q-30 12 -49 12q-43 0 -43 -78q0 -79 38 -79q18 0 35.5 18.5t28.5 43.5zM380 311h102q1 30 -3 55t-15.5 43t-28.5 18q-26 0 -40 -34.5t-15 -81.5z" />
    <glyph glyph-name="ccedilla" unicode="&#xe7;" horiz-adv-x="430" 
d="M135 -187l23 63q21 -21 52 -21q14 0 23 7.5t9 19.5q0 22 -24 22q-17 0 -32 -9l-28 30l30 69q-70 17 -114 85.5t-44 168.5q0 123 57.5 195t142.5 72q67 0 117 -51.5t59 -137.5h-147q10 93 -29 93q-53 0 -51 -169q2 -164 52 -164q21 0 29 27.5t4 66.5h146
q-13 -83 -56 -134.5t-108 -56.5l-22 -32l4 -4q10 4 23 4q31 0 50.5 -19.5t19.5 -52.5q0 -39 -30 -66.5t-79 -27.5q-45 0 -77 22z" />
    <glyph glyph-name="egrave" unicode="&#xe8;" horiz-adv-x="440" 
d="M414 222h-242q6 -150 58 -150q19 0 29 21t9 56h140q-12 -70 -61.5 -118.5t-120.5 -48.5q-86 0 -141 76t-55 199q0 109 56 186t142 77q92 0 140.5 -75.5t48.5 -174.5q0 -21 -3 -48zM174 311h101q1 46 -11.5 80t-37.5 34q-26 0 -38.5 -33t-13.5 -81zM83 664l56 87l184 -137
l-48 -68z" />
    <glyph glyph-name="eacute" unicode="&#xe9;" horiz-adv-x="440" 
d="M414 222h-242q6 -150 58 -150q19 0 29 21t9 56h140q-12 -70 -61.5 -118.5t-120.5 -48.5q-86 0 -141 76t-55 199q0 109 56 186t142 77q92 0 140.5 -75.5t48.5 -174.5q0 -21 -3 -48zM174 311h101q1 46 -11.5 80t-37.5 34q-26 0 -38.5 -33t-13.5 -81zM319 751l56 -87
l-192 -118l-48 68z" />
    <glyph glyph-name="ecircumflex" unicode="&#xea;" horiz-adv-x="440" 
d="M414 222h-242q6 -150 58 -150q19 0 29 21t9 56h140q-12 -70 -61.5 -118.5t-120.5 -48.5q-86 0 -141 76t-55 199q0 109 56 186t142 77q92 0 140.5 -75.5t48.5 -174.5q0 -21 -3 -48zM174 311h101q1 46 -11.5 80t-37.5 34q-26 0 -38.5 -33t-13.5 -81zM228 735l145 -180h-97
l-45 58h-6l-45 -58h-99z" />
    <glyph glyph-name="edieresis" unicode="&#xeb;" horiz-adv-x="440" 
d="M414 222h-242q6 -150 58 -150q19 0 29 21t9 56h140q-12 -70 -61.5 -118.5t-120.5 -48.5q-86 0 -141 76t-55 199q0 109 56 186t142 77q92 0 140.5 -75.5t48.5 -174.5q0 -21 -3 -48zM174 311h101q1 46 -11.5 80t-37.5 34q-26 0 -38.5 -33t-13.5 -81zM209 637
q0 -29 -20.5 -50t-48.5 -21t-48 21t-20 50q0 30 19.5 50t48.5 20t49 -20t20 -50zM249 637q0 30 20 50t49 20t49 -20t20 -50q0 -29 -20.5 -50t-48.5 -21t-48.5 21t-20.5 50z" />
    <glyph glyph-name="igrave" unicode="&#xec;" horiz-adv-x="254" 
d="M53 0v506h148v-506h-148zM-6 664l56 87l184 -137l-48 -68z" />
    <glyph glyph-name="iacute" unicode="&#xed;" horiz-adv-x="254" 
d="M53 0v506h148v-506h-148zM203 751l56 -87l-192 -118l-48 68z" />
    <glyph glyph-name="icircumflex" unicode="&#xee;" horiz-adv-x="254" 
d="M53 0v506h148v-506h-148zM129 735l145 -180h-97l-45 58h-6l-45 -58h-99z" />
    <glyph glyph-name="idieresis" unicode="&#xef;" horiz-adv-x="265" 
d="M58 0v506h148v-506h-148zM112 637q0 -29 -20.5 -50t-48.5 -21t-48 21t-20 50q0 30 19.5 50t48.5 20t49 -20t20 -50zM152 637q0 30 20 50t49 20t49 -20t20 -50q0 -29 -20.5 -50t-48.5 -21t-48.5 21t-20.5 50z" />
    <glyph glyph-name="eth" unicode="&#xf0;" horiz-adv-x="460" 
d="M100 574l68 51q-36 21 -107 31l89 90q65 -19 105 -50l65 52l34 -44l-57 -45q128 -138 128 -386q0 -122 -57 -206.5t-145 -84.5t-140.5 76t-52.5 186q0 102 51 180t125 78q69 0 113 -72h6q-14 55 -44 97.5t-67 65.5l-80 -63zM174 241q0 -162 55 -162q54 0 54 164
q0 162 -54 162q-27 0 -41 -44t-14 -120z" />
    <glyph glyph-name="ntilde" unicode="&#xf1;" horiz-adv-x="457" 
d="M46 506h133l5 -80h6q42 89 111 89q106 0 106 -179v-336h-136v340q0 68 -26 68q-19 0 -33.5 -32t-21.5 -84v-292h-135v360q0 74 -9 146zM296 574q-27 0 -74 17q-40 15 -52 15q-23 0 -28 -42h-63q1 72 24.5 105.5t60.5 33.5q27 0 74 -17q40 -15 52 -15q23 0 28 42h63
q-1 -72 -24.5 -105.5t-60.5 -33.5z" />
    <glyph glyph-name="ograve" unicode="&#xf2;" horiz-adv-x="453" 
d="M30 253q0 102 53.5 183t144.5 81q63 0 109 -42.5t66 -100.5t20 -120q0 -111 -52 -191t-143 -80q-90 0 -144 77t-54 193zM175 253q0 -178 53 -178q28 0 39.5 45t11.5 134q0 172 -51 172q-53 0 -53 -173zM68 664l56 87l184 -137l-48 -68z" />
    <glyph glyph-name="oacute" unicode="&#xf3;" horiz-adv-x="453" 
d="M30 253q0 102 53.5 183t144.5 81q63 0 109 -42.5t66 -100.5t20 -120q0 -111 -52 -191t-143 -80q-90 0 -144 77t-54 193zM175 253q0 -178 53 -178q28 0 39.5 45t11.5 134q0 172 -51 172q-53 0 -53 -173zM332 751l56 -87l-192 -118l-48 68z" />
    <glyph glyph-name="ocircumflex" unicode="&#xf4;" horiz-adv-x="453" 
d="M30 253q0 102 53.5 183t144.5 81q63 0 109 -42.5t66 -100.5t20 -120q0 -111 -52 -191t-143 -80q-90 0 -144 77t-54 193zM175 253q0 -178 53 -178q28 0 39.5 45t11.5 134q0 172 -51 172q-53 0 -53 -173zM227 735l145 -180h-97l-45 58h-6l-45 -58h-99z" />
    <glyph glyph-name="otilde" unicode="&#xf5;" horiz-adv-x="453" 
d="M30 253q0 102 53.5 183t144.5 81q63 0 109 -42.5t66 -100.5t20 -120q0 -111 -52 -191t-143 -80q-90 0 -144 77t-54 193zM175 253q0 -178 53 -178q28 0 39.5 45t11.5 134q0 172 -51 172q-53 0 -53 -173zM292 574q-27 0 -74 17q-40 15 -52 15q-23 0 -28 -42h-63
q1 72 24.5 105.5t60.5 33.5q27 0 74 -17q40 -15 52 -15q23 0 28 42h63q-1 -72 -24.5 -105.5t-60.5 -33.5z" />
    <glyph glyph-name="odieresis" unicode="&#xf6;" horiz-adv-x="453" 
d="M30 253q0 102 53.5 183t144.5 81q63 0 109 -42.5t66 -100.5t20 -120q0 -111 -52 -191t-143 -80q-90 0 -144 77t-54 193zM175 253q0 -178 53 -178q28 0 39.5 45t11.5 134q0 172 -51 172q-53 0 -53 -173zM207 637q0 -29 -20.5 -50t-48.5 -21t-48 21t-20 50q0 30 19.5 50
t48.5 20t49 -20t20 -50zM247 637q0 30 20 50t49 20t49 -20t20 -50q0 -29 -20.5 -50t-48.5 -21t-48.5 21t-20.5 50z" />
    <glyph glyph-name="divide" unicode="&#xf7;" horiz-adv-x="540" 
d="M70 329h400v-125h-400v125zM189 80q0 35 23.5 57.5t57.5 22.5t58 -22.5t24 -57.5t-24 -57.5t-58 -22.5t-57.5 22.5t-23.5 57.5zM189 452q0 35 23.5 57.5t57.5 22.5t58 -22.5t24 -57.5t-24 -57.5t-58 -22.5t-57.5 22.5t-23.5 57.5z" />
    <glyph glyph-name="oslash" unicode="&#xf8;" horiz-adv-x="452" 
d="M29 253q0 102 53.5 183t144.5 81q48 0 93 -33l57 102l54 -32l-66 -118q57 -82 57 -182q0 -111 -52 -191t-143 -80q-51 0 -98 34l-54 -97l-54 32l63 113q-55 78 -55 188zM286 254q0 7 -0.5 20.5t-0.5 19.5l-103 -184q14 -45 45 -45q59 0 59 189zM166 253v-42l103 182
q-16 43 -42 43q-61 0 -61 -183z" />
    <glyph glyph-name="ugrave" unicode="&#xf9;" horiz-adv-x="455" 
d="M405 0h-124l-5 75h-6q-49 -85 -115 -85q-105 0 -105 180v336h137v-345q0 -37 5.5 -52.5t19.5 -15.5q19 0 33.5 32t21.5 84v297h135v-412zM87 664l56 87l184 -137l-48 -68z" />
    <glyph glyph-name="uacute" unicode="&#xfa;" horiz-adv-x="455" 
d="M405 0h-124l-5 75h-6q-49 -85 -115 -85q-105 0 -105 180v336h137v-345q0 -37 5.5 -52.5t19.5 -15.5q19 0 33.5 32t21.5 84v297h135v-412zM321 751l56 -87l-192 -118l-48 68z" />
    <glyph glyph-name="ucircumflex" unicode="&#xfb;" horiz-adv-x="455" 
d="M405 0h-124l-5 75h-6q-49 -85 -115 -85q-105 0 -105 180v336h137v-345q0 -37 5.5 -52.5t19.5 -15.5q19 0 33.5 32t21.5 84v297h135v-412zM228 735l145 -180h-97l-45 58h-6l-45 -58h-99z" />
    <glyph glyph-name="udieresis" unicode="&#xfc;" horiz-adv-x="455" 
d="M405 0h-124l-5 75h-6q-49 -85 -115 -85q-105 0 -105 180v336h137v-345q0 -37 5.5 -52.5t19.5 -15.5q19 0 33.5 32t21.5 84v297h135v-412zM207 637q0 -29 -20.5 -50t-48.5 -21t-48 21t-20 50q0 30 19.5 50t48.5 20t49 -20t20 -50zM247 637q0 30 20 50t49 20t49 -20t20 -50
q0 -29 -20.5 -50t-48.5 -21t-48.5 21t-20.5 50z" />
    <glyph glyph-name="yacute" unicode="&#xfd;" horiz-adv-x="435" 
d="M288 506h132l-128 -553q-29 -130 -167 -130q-46 0 -82 9v105q20 -5 53 -5q35 0 54.5 20t19.5 52q0 20 -12.5 31.5t-32.5 10.5l-115 460h144l64 -348h5zM328 751l56 -87l-192 -118l-48 68z" />
    <glyph glyph-name="thorn" unicode="&#xfe;" horiz-adv-x="450" 
d="M53 723h135v-217l-2 -60h6q37 69 96 69q62 0 97 -75t35 -187q0 -111 -36 -183.5t-98 -72.5q-58 0 -94 67h-6q2 -34 2 -64v-173h-135v896zM190 311v-115q7 -105 46 -105q46 0 46 162q0 163 -45 163q-40 0 -47 -105z" />
    <glyph glyph-name="ydieresis" unicode="&#xff;" horiz-adv-x="435" 
d="M288 506h132l-128 -553q-29 -130 -167 -130q-46 0 -82 9v105q20 -5 53 -5q35 0 54.5 20t19.5 52q0 20 -12.5 31.5t-32.5 10.5l-115 460h144l64 -348h5zM201 637q0 -29 -20.5 -50t-48.5 -21t-48 21t-20 50q0 30 19.5 50t48.5 20t49 -20t20 -50zM241 637q0 30 20 50t49 20
t49 -20t20 -50q0 -29 -20.5 -50t-48.5 -21t-48.5 21t-20.5 50z" />
    <glyph glyph-name="Amacron" unicode="&#x100;" horiz-adv-x="507" 
d="M345 0l-23 142h-142l-24 -142h-146l148 723h183l156 -723h-152zM304 258l-48 278h-8l-50 -278h106zM112 779v91h280v-91h-280z" />
    <glyph glyph-name="amacron" unicode="&#x101;" horiz-adv-x="433" 
d="M251 225v-84q-28 -59 -53 -59q-36 0 -36 75q0 32 11 54t32 24q18 2 46 -10zM383 119v220q0 94 -45 135.5t-121 41.5q-74 0 -121 -45.5t-59 -116.5h148q-7 82 29 82q21 0 28.5 -23.5t7.5 -72.5v-36l1 -16q-40 17 -79 16q-61 -2 -100 -43t-39 -111q0 -72 29.5 -117
t81.5 -45q62 0 109 77h6q0 -29 -3 -65h136q-9 50 -9 119zM84 594v94h266v-94h-266z" />
    <glyph glyph-name="Abreve" unicode="&#x102;" horiz-adv-x="507" 
d="M345 0l-23 142h-142l-24 -142h-146l148 723h183l156 -723h-152zM304 258l-48 278h-8l-50 -278h106zM252 845q62 0 66 68h67q3 -70 -31.5 -109.5t-101.5 -39.5q-68 0 -102 39t-31 110h67q4 -68 66 -68z" />
    <glyph glyph-name="abreve" unicode="&#x103;" horiz-adv-x="433" 
d="M251 141v84q-28 12 -46 10q-21 -2 -32 -24t-11 -54q0 -75 36 -75q25 0 53 59zM383 339v-220q0 -69 9 -119h-136q3 36 3 65h-6q-47 -77 -109 -77q-52 0 -81.5 45t-29.5 117q0 70 39 111t100 43q39 1 79 -16q-1 10 -1 16v36q0 49 -7.5 72.5t-28.5 23.5q-36 0 -29 -82h-148
q12 71 59 116.5t121 45.5q76 0 121 -41.5t45 -135.5zM215 645q58 0 62 78h73q2 -78 -32.5 -122.5t-102.5 -44.5q-67 0 -101.5 44.5t-32.5 122.5h73q4 -78 61 -78z" />
    <glyph glyph-name="Aogonek" unicode="&#x104;" horiz-adv-x="507" 
d="M345 0l-23 142h-142l-24 -142h-146l148 723h183l156 -723h-152zM304 258l-48 278h-8l-50 -278h106zM486 -182v69q-31 -22 -51 -22q-22 0 -22 22q0 36 84 113h-73q-105 -68 -105 -139q0 -32 21.5 -53t61.5 -21q43 0 84 31z" />
    <glyph glyph-name="aogonek" unicode="&#x105;" horiz-adv-x="433" 
d="M381 -113v-69q-41 -31 -84 -31q-40 0 -61.5 21t-21.5 53q0 71 105 139h-63q3 36 3 65h-6q-47 -77 -109 -77q-52 0 -81.5 45t-29.5 117q0 70 39 111t100 43q39 1 79 -16q-1 10 -1 16v36q0 49 -7.5 72.5t-28.5 23.5q-36 0 -29 -82h-148q12 71 59 116.5t121 45.5
q76 0 121 -41.5t45 -135.5v-220q0 -69 9 -119q-84 -77 -84 -113q0 -22 22 -22q20 0 51 22zM251 141v84q-28 12 -46 10q-21 -2 -32 -24t-11 -54q0 -75 36 -75q25 0 53 59z" />
    <glyph glyph-name="Cacute" unicode="&#x106;" horiz-adv-x="538" 
d="M518 496h-167q-2 119 -57 119q-88 0 -88 -262q0 -110 21 -182.5t67 -72.5q58 0 60 122h169q-16 -105 -81 -170t-148 -65q-67 0 -118.5 33.5t-81 88.5t-44.5 117t-15 127q0 55 9.5 108t30.5 102t50.5 86t73 59t95.5 22q83 0 146.5 -64t77.5 -168zM399 941l48 -89l-199 -99
l-41 70z" />
    <glyph glyph-name="cacute" unicode="&#x107;" horiz-adv-x="430" 
d="M406 326h-147q10 93 -29 93q-53 0 -51 -169q2 -164 52 -164q21 0 29 27.5t4 66.5h146q-14 -88 -61 -140t-118 -52q-87 0 -144 72t-57 188q0 123 57.5 195t142.5 72q67 0 117 -51.5t59 -137.5zM344 751l56 -87l-192 -118l-48 68z" />
    <glyph glyph-name="Ccircumflex" unicode="&#x108;" horiz-adv-x="538" 
d="M518 496h-167q-2 119 -57 119q-88 0 -88 -262q0 -110 21 -182.5t67 -72.5q58 0 60 122h169q-16 -105 -81 -170t-148 -65q-67 0 -118.5 33.5t-81 88.5t-44.5 117t-15 127q0 55 9.5 108t30.5 102t50.5 86t73 59t95.5 22q83 0 146.5 -64t77.5 -168zM292 940l147 -170h-101
l-43 55h-6l-43 -55h-103z" />
    <glyph glyph-name="ccircumflex" unicode="&#x109;" horiz-adv-x="430" 
d="M406 326h-147q10 93 -29 93q-53 0 -51 -169q2 -164 52 -164q21 0 29 27.5t4 66.5h146q-14 -88 -61 -140t-118 -52q-87 0 -144 72t-57 188q0 123 57.5 195t142.5 72q67 0 117 -51.5t59 -137.5zM227 735l145 -180h-97l-45 58h-6l-45 -58h-99z" />
    <glyph glyph-name="Cdotaccent" unicode="&#x10a;" horiz-adv-x="538" 
d="M518 496h-167q-2 119 -57 119q-88 0 -88 -262q0 -110 21 -182.5t67 -72.5q58 0 60 122h169q-16 -105 -81 -170t-148 -65q-67 0 -118.5 33.5t-81 88.5t-44.5 117t-15 127q0 55 9.5 108t30.5 102t50.5 86t73 59t95.5 22q83 0 146.5 -64t77.5 -168zM218 841q0 33 22 53.5
t54 20.5t54.5 -20.5t22.5 -53.5t-22.5 -53t-54.5 -20q-33 0 -54.5 19.5t-21.5 53.5z" />
    <glyph glyph-name="cdotaccent" unicode="&#x10b;" horiz-adv-x="430" 
d="M406 326h-147q10 93 -29 93q-53 0 -51 -169q2 -164 52 -164q21 0 29 27.5t4 66.5h146q-14 -88 -61 -140t-118 -52q-87 0 -144 72t-57 188q0 123 57.5 195t142.5 72q67 0 117 -51.5t59 -137.5zM149 647q0 34 22.5 54.5t55.5 20.5t56 -21t23 -54q0 -34 -23 -54t-56 -20
t-55.5 20t-22.5 54z" />
    <glyph glyph-name="Ccaron" unicode="&#x10c;" horiz-adv-x="538" 
d="M518 496h-167q-2 119 -57 119q-88 0 -88 -262q0 -110 21 -182.5t67 -72.5q58 0 60 122h169q-16 -105 -81 -170t-148 -65q-67 0 -118.5 33.5t-81 88.5t-44.5 117t-15 127q0 55 9.5 108t30.5 102t50.5 86t73 59t95.5 22q83 0 146.5 -64t77.5 -168zM439 927l-147 -170
l-149 170h103l43 -55h6l43 55h101z" />
    <glyph glyph-name="ccaron" unicode="&#x10d;" horiz-adv-x="430" 
d="M406 326h-147q10 93 -29 93q-53 0 -51 -169q2 -164 52 -164q21 0 29 27.5t4 66.5h146q-14 -88 -61 -140t-118 -52q-87 0 -144 72t-57 188q0 123 57.5 195t142.5 72q67 0 117 -51.5t59 -137.5zM373 723l-145 -179l-147 179h99l45 -58h6l45 58h97z" />
    <glyph glyph-name="Dcaron" unicode="&#x10e;" horiz-adv-x="546" 
d="M60 0v723h178q121 0 197 -96.5t76 -269.5q0 -160 -72.5 -258.5t-205.5 -98.5h-173zM215 612v-502l28 2q57 4 83.5 71t26.5 174q0 67 -11 121.5t-36.5 91.5t-63.5 40zM399 927l-147 -170l-149 170h103l43 -55h6l43 55h101z" />
    <glyph glyph-name="dcaron" unicode="&#x10f;" horiz-adv-x="550" 
d="M265 63h-6q-40 -74 -94 -74q-60 0 -97.5 76t-37.5 193q0 111 36 184t98 73q57 0 94 -69h6q-2 30 -2 60v217h136v-629l3 -94h-132zM168 257q0 -170 44 -170q14 0 23.5 10t14.5 30t6.5 33.5t3.5 35.5v115q-7 105 -46 105q-27 0 -36.5 -38.5t-9.5 -120.5zM510 525h-60
q29 36 42 57q3 4 1 8t-8 4q-28 0 -45 19t-17 46t19 45.5t46 18.5q28 0 47.5 -18t20.5 -47q2 -32 -9.5 -61t-36.5 -72z" />
    <glyph glyph-name="Dcroat" unicode="&#x110;" horiz-adv-x="546" 
d="M60 0v328h-38v87h38v308h178q121 0 197 -96.5t76 -269.5q0 -160 -72.5 -258.5t-205.5 -98.5h-173zM215 612v-197h82v-87h-82v-218l28 2q57 4 83.5 71t26.5 174q0 67 -11 121.5t-36.5 91.5t-63.5 40z" />
    <glyph glyph-name="dcroat" unicode="&#x111;" horiz-adv-x="451" 
d="M156 564v94h106v65h136v-65h24v-94h-24v-470l3 -94h-132l-4 63h-6q-40 -74 -94 -74q-60 0 -97.5 76t-37.5 193q0 111 36 184t98 73q57 0 94 -69h6q-2 30 -2 60v58h-106zM168 257q0 -170 44 -170q14 0 23.5 10t14.5 30t6.5 33.5t3.5 35.5v115q-7 105 -46 105
q-27 0 -36.5 -38.5t-9.5 -120.5z" />
    <glyph glyph-name="Emacron" unicode="&#x112;" horiz-adv-x="425" 
d="M60 0v723h333v-118h-181v-172h167v-118h-167v-195h188v-120h-340zM91 779v91h280v-91h-280z" />
    <glyph glyph-name="emacron" unicode="&#x113;" horiz-adv-x="440" 
d="M414 222h-242q6 -150 58 -150q19 0 29 21t9 56h140q-12 -70 -61.5 -118.5t-120.5 -48.5q-86 0 -141 76t-55 199q0 109 56 186t142 77q92 0 140.5 -75.5t48.5 -174.5q0 -21 -3 -48zM174 311h101q1 46 -11.5 80t-37.5 34q-26 0 -38.5 -33t-13.5 -81zM97 594v94h266v-94
h-266z" />
    <glyph glyph-name="Ebreve" unicode="&#x114;" horiz-adv-x="425" 
d="M60 0v723h333v-118h-181v-172h167v-118h-167v-195h188v-120h-340zM227 845q62 0 66 68h67q3 -70 -31.5 -109.5t-101.5 -39.5q-68 0 -102 39t-31 110h67q4 -68 66 -68z" />
    <glyph glyph-name="ebreve" unicode="&#x115;" horiz-adv-x="440" 
d="M414 222h-242q6 -150 58 -150q19 0 29 21t9 56h140q-12 -70 -61.5 -118.5t-120.5 -48.5q-86 0 -141 76t-55 199q0 109 56 186t142 77q92 0 140.5 -75.5t48.5 -174.5q0 -21 -3 -48zM174 311h101q1 46 -11.5 80t-37.5 34q-26 0 -38.5 -33t-13.5 -81zM227 645q58 0 62 78h73
q2 -78 -32.5 -122.5t-102.5 -44.5q-67 0 -101.5 44.5t-32.5 122.5h73q4 -78 61 -78z" />
    <glyph glyph-name="Edotaccent" unicode="&#x116;" horiz-adv-x="425" 
d="M60 0v723h333v-118h-181v-172h167v-118h-167v-195h188v-120h-340zM154 841q0 33 22 53.5t54 20.5t54.5 -20.5t22.5 -53.5t-22.5 -53t-54.5 -20q-33 0 -54.5 19.5t-21.5 53.5z" />
    <glyph glyph-name="edotaccent" unicode="&#x117;" horiz-adv-x="440" 
d="M414 222h-242q6 -150 58 -150q19 0 29 21t9 56h140q-12 -70 -61.5 -118.5t-120.5 -48.5q-86 0 -141 76t-55 199q0 109 56 186t142 77q92 0 140.5 -75.5t48.5 -174.5q0 -21 -3 -48zM174 311h101q1 46 -11.5 80t-37.5 34q-26 0 -38.5 -33t-13.5 -81zM150 647
q0 34 22.5 54.5t55.5 20.5t56 -21t23 -54q0 -34 -23 -54t-56 -20t-55.5 20t-22.5 54z" />
    <glyph glyph-name="Eogonek" unicode="&#x118;" horiz-adv-x="425" 
d="M60 0v723h333v-118h-181v-172h167v-118h-167v-195h188v-120h-340zM389 -182v69q-31 -22 -51 -22q-22 0 -22 22q0 36 84 113h-73q-105 -68 -105 -139q0 -32 21.5 -53t61.5 -21q43 0 84 31z" />
    <glyph glyph-name="eogonek" unicode="&#x119;" horiz-adv-x="440" 
d="M414 222h-242q6 -150 58 -150q19 0 29 21t9 56h140q-11 -61 -46 -101h1q-32 -37 -54 -81t-22 -76q0 -26 26 -26q21 0 52 22v-69q-43 -30 -80 -30q-40 0 -62 21t-22 59q0 51 61 118q-15 -4 -36 -4q-86 0 -141 76t-55 199q0 109 56 186t142 77q92 0 140.5 -75.5
t48.5 -174.5q0 -21 -3 -48zM174 311h101q1 46 -11.5 80t-37.5 34q-26 0 -38.5 -33t-13.5 -81z" />
    <glyph glyph-name="Ecaron" unicode="&#x11a;" horiz-adv-x="425" 
d="M60 0v723h333v-118h-181v-172h167v-118h-167v-195h188v-120h-340zM373 927l-147 -170l-149 170h103l43 -55h6l43 55h101z" />
    <glyph glyph-name="ecaron" unicode="&#x11b;" horiz-adv-x="440" 
d="M414 222h-242q6 -150 58 -150q19 0 29 21t9 56h140q-12 -70 -61.5 -118.5t-120.5 -48.5q-86 0 -141 76t-55 199q0 109 56 186t142 77q92 0 140.5 -75.5t48.5 -174.5q0 -21 -3 -48zM174 311h101q1 46 -11.5 80t-37.5 34q-26 0 -38.5 -33t-13.5 -81zM371 723l-145 -179
l-147 179h99l45 -58h6l45 58h97z" />
    <glyph glyph-name="Gcircumflex" unicode="&#x11c;" horiz-adv-x="565" 
d="M521 506h-161q2 50 -15 87.5t-50 37.5q-54 0 -81 -74t-27 -192q0 -272 115 -272q43 0 67.5 42.5t19.5 117.5l-135 -22v131h279q-3 -191 -65 -282.5t-171 -91.5q-127 0 -193.5 105.5t-66.5 272.5q0 159 70 264.5t192 105.5q91 0 152.5 -64t69.5 -166zM295 940l147 -170
h-101l-43 55h-6l-43 -55h-103z" />
    <glyph glyph-name="gcircumflex" unicode="&#x11d;" horiz-adv-x="453" 
d="M259 443h6l12 63h133q-12 -66 -12 -134v-366q0 -183 -174 -183q-82 0 -126 40t-52 103h144q0 -59 30 -59q42 0 42 95l2 78h-6q-38 -65 -94 -65q-61 0 -97.5 67t-36.5 174q0 116 37.5 187t98.5 71q54 0 93 -71zM168 257q0 -81 9.5 -116.5t36.5 -35.5q39 0 46 105v97
q-2 22 -3.5 35.5t-6.5 33.5t-14.5 30t-23.5 10q-44 0 -44 -159zM227 735l145 -180h-97l-45 58h-6l-45 -58h-99z" />
    <glyph glyph-name="Gbreve" unicode="&#x11e;" horiz-adv-x="565" 
d="M521 506h-161q2 50 -15 87.5t-50 37.5q-54 0 -81 -74t-27 -192q0 -272 115 -272q43 0 67.5 42.5t19.5 117.5l-135 -22v131h279q-3 -191 -65 -282.5t-171 -91.5q-127 0 -193.5 105.5t-66.5 272.5q0 159 70 264.5t192 105.5q91 0 152.5 -64t69.5 -166zM299 845q62 0 66 68
h67q3 -70 -31.5 -109.5t-101.5 -39.5q-68 0 -102 39t-31 110h67q4 -68 66 -68z" />
    <glyph glyph-name="gbreve" unicode="&#x11f;" horiz-adv-x="453" 
d="M259 443h6l12 63h133q-12 -66 -12 -134v-366q0 -183 -174 -183q-82 0 -126 40t-52 103h144q0 -59 30 -59q42 0 42 95l2 78h-6q-38 -65 -94 -65q-61 0 -97.5 67t-36.5 174q0 116 37.5 187t98.5 71q54 0 93 -71zM168 257q0 -81 9.5 -116.5t36.5 -35.5q39 0 46 105v97
q-2 22 -3.5 35.5t-6.5 33.5t-14.5 30t-23.5 10q-44 0 -44 -159zM216 645q58 0 62 78h73q2 -78 -32.5 -122.5t-102.5 -44.5q-67 0 -101.5 44.5t-32.5 122.5h73q4 -78 61 -78z" />
    <glyph glyph-name="Gdotaccent" unicode="&#x120;" horiz-adv-x="565" 
d="M521 506h-161q2 50 -15 87.5t-50 37.5q-54 0 -81 -74t-27 -192q0 -272 115 -272q43 0 67.5 42.5t19.5 117.5l-135 -22v131h279q-3 -191 -65 -282.5t-171 -91.5q-127 0 -193.5 105.5t-66.5 272.5q0 159 70 264.5t192 105.5q91 0 152.5 -64t69.5 -166zM223 841
q0 33 22 53.5t54 20.5t54.5 -20.5t22.5 -53.5t-22.5 -53t-54.5 -20q-33 0 -54.5 19.5t-21.5 53.5z" />
    <glyph glyph-name="gdotaccent" unicode="&#x121;" horiz-adv-x="453" 
d="M265 443h-6q-39 71 -93 71q-61 0 -98.5 -71t-37.5 -187q0 -107 36.5 -174t97.5 -67q56 0 94 65h6q-2 -42 -2 -78q0 -95 -42 -95q-30 0 -30 59h-144q8 -63 52 -103t126 -40q174 0 174 183v366q0 68 12 134h-133zM168 257q0 159 44 159q14 0 23.5 -10t14.5 -30t6.5 -33.5
t3.5 -35.5v-97q-7 -105 -46 -105q-27 0 -36.5 35.5t-9.5 116.5zM138 647q0 34 22.5 54.5t55.5 20.5t56 -21t23 -54q0 -34 -23 -54t-56 -20t-55.5 20t-22.5 54z" />
    <glyph glyph-name="Gcommaaccent" unicode="&#x122;" horiz-adv-x="565" 
d="M521 506h-161q2 50 -15 87.5t-50 37.5q-54 0 -81 -74t-27 -192q0 -272 115 -272q43 0 67.5 42.5t19.5 117.5l-135 -22v131h279q-3 -191 -65 -282.5t-171 -91.5q-127 0 -193.5 105.5t-66.5 272.5q0 159 70 264.5t192 105.5q91 0 152.5 -64t69.5 -166zM319 -255h-60
q30 35 43 59q3 4 1 8.5t-8 4.5q-27 0 -45 19t-18 47q0 29 19.5 48t47.5 19q29 0 48 -18.5t20 -48.5q1 -23 -6 -48t-16 -42.5t-26 -47.5z" />
    <glyph glyph-name="gcommaaccent" unicode="&#x123;" horiz-adv-x="453" 
d="M265 443h-6q-39 71 -93 71q-61 0 -98.5 -71t-37.5 -187q0 -107 36.5 -174t97.5 -67q56 0 94 65h6q-2 -42 -2 -78q0 -95 -42 -95q-30 0 -30 59h-144q8 -63 52 -103t126 -40q174 0 174 183v366q0 68 12 134h-133zM168 257q0 159 44 159q14 0 23.5 -10t14.5 -30t6.5 -33.5
t3.5 -35.5v-97q-7 -105 -46 -105q-27 0 -36.5 35.5t-9.5 116.5zM206 758h60q-30 -35 -43 -59q-3 -5 -1 -9t8 -4q27 0 45 -19t18 -47q0 -29 -19.5 -48t-47.5 -19q-29 0 -48 18.5t-20 48.5q-1 23 6 48t16 42.5t26 47.5z" />
    <glyph glyph-name="Hcircumflex" unicode="&#x124;" horiz-adv-x="570" 
d="M60 723h153v-289h140v289h157v-723h-157v317h-140v-317h-153v723zM285 940l147 -170h-101l-43 55h-6l-43 -55h-103z" />
    <glyph glyph-name="hcircumflex" unicode="&#x125;" horiz-adv-x="455" 
d="M53 723h134v-217l-3 -80h6q42 89 109 89q106 0 106 -179v-336h-137v340q0 68 -26 68q-19 0 -33.5 -32t-21.5 -84v-292h-134v723zM228 925l145 -180h-97l-45 58h-6l-45 -58h-99z" />
    <glyph glyph-name="Hbar" unicode="&#x126;" horiz-adv-x="570" 
d="M60 723h153v-102h140v102h157v-102h40v-96h-40v-525h-157v317h-140v-317h-153v525h-40v96h40v102zM213 434h140v91h-140v-91z" />
    <glyph glyph-name="hbar" unicode="&#x127;" horiz-adv-x="455" 
d="M30 564v94h23v65h134v-65h109v-94h-109v-58l-3 -80h6q42 89 109 89q106 0 106 -179v-336h-137v340q0 68 -26 68q-19 0 -33.5 -32t-21.5 -84v-292h-134v564h-23z" />
    <glyph glyph-name="Itilde" unicode="&#x128;" horiz-adv-x="275" 
d="M60 0v723h155v-723h-155zM201 773q-24 0 -71 17q-40 15 -52 15q-26 0 -31 -40h-69q-1 69 27.5 100.5t69.5 31.5q24 0 71 -17q40 -15 52 -15q26 0 31 40h69q1 -69 -27.5 -100.5t-69.5 -31.5z" />
    <glyph glyph-name="itilde" unicode="&#x129;" horiz-adv-x="254" 
d="M53 0v506h148v-506h-148zM194 574q-27 0 -74 17q-40 15 -52 15q-23 0 -28 -42h-63q1 72 24.5 105.5t60.5 33.5q27 0 74 -17q40 -15 52 -15q23 0 28 42h63q-1 -72 -24.5 -105.5t-60.5 -33.5z" />
    <glyph glyph-name="Imacron" unicode="&#x12a;" horiz-adv-x="275" 
d="M60 0v723h155v-723h-155zM-3 779v91h280v-91h-280z" />
    <glyph glyph-name="imacron" unicode="&#x12b;" horiz-adv-x="254" 
d="M53 0v506h148v-506h-148zM-6 594v94h266v-94h-266z" />
    <glyph glyph-name="Ibreve" unicode="&#x12c;" horiz-adv-x="275" 
d="M60 0v723h155v-723h-155zM138 845q62 0 66 68h67q3 -70 -31.5 -109.5t-101.5 -39.5q-68 0 -102 39t-31 110h67q4 -68 66 -68z" />
    <glyph glyph-name="ibreve" unicode="&#x12d;" horiz-adv-x="254" 
d="M53 0v506h148v-506h-148zM127 645q58 0 62 78h73q2 -78 -32.5 -122.5t-102.5 -44.5q-67 0 -101.5 44.5t-32.5 122.5h73q4 -78 61 -78z" />
    <glyph glyph-name="Iogonek" unicode="&#x12e;" horiz-adv-x="275" 
d="M60 0v723h155v-723h-155zM204 -182v69q-31 -22 -51 -22q-22 0 -22 22q0 36 84 113h-73q-105 -68 -105 -139q0 -32 21.5 -53t61.5 -21q43 0 84 31z" />
    <glyph glyph-name="iogonek" unicode="&#x12f;" horiz-adv-x="254" 
d="M53 0v506h148v-506h-148zM48 647q0 34 22.5 54.5t55.5 20.5t56 -21t23 -54q0 -34 -23 -54t-56 -20t-55.5 20t-22.5 54zM190 -182v69q-31 -22 -51 -22q-22 0 -22 22q0 36 84 113h-73q-105 -68 -105 -139q0 -32 21.5 -53t61.5 -21q43 0 84 31z" />
    <glyph glyph-name="Idotaccent" unicode="&#x130;" horiz-adv-x="275" 
d="M60 0v723h155v-723h-155zM61 841q0 33 22 53.5t54 20.5t54.5 -20.5t22.5 -53.5t-22.5 -53t-54.5 -20q-33 0 -54.5 19.5t-21.5 53.5z" />
    <glyph glyph-name="dotlessi" unicode="&#x131;" horiz-adv-x="265" 
d="M58 0v506h148v-506h-148z" />
    <glyph glyph-name="Jcircumflex" unicode="&#x134;" horiz-adv-x="470" 
d="M15 233h158q-4 -64 3 -97t34 -33q50 0 50 124v496h155v-491q0 -112 -56.5 -177.5t-147.5 -65.5t-143.5 67.5t-52.5 176.5zM236 940l147 -170h-101l-43 55h-6l-43 -55h-103z" />
    <glyph glyph-name="jcircumflex" unicode="&#x135;" horiz-adv-x="254" 
d="M5 -164v99q25 -2 36.5 12.5t11.5 45.5v513h148v-529q0 -70 -31.5 -110t-96.5 -40q-35 0 -68 9zM128 735l145 -180h-97l-45 58h-6l-45 -58h-99z" />
    <glyph glyph-name="Kcommaaccent" unicode="&#x136;" horiz-adv-x="535" 
d="M60 0v723h156v-308h8l116 309h171l-161 -343l178 -381h-179l-125 332h-8v-332h-156zM296 -255h-60q30 35 43 59q3 4 1 8.5t-8 4.5q-27 0 -45 19t-18 47q0 29 19.5 48t47.5 19q29 0 48 -18.5t20 -48.5q1 -23 -6 -48t-16 -42.5t-26 -47.5z" />
    <glyph glyph-name="kcommaaccent" unicode="&#x137;" horiz-adv-x="435" 
d="M53 0v723h141v-217l-1 -222h6l78 222h143l-99 -243l109 -263h-148l-84 230h-6v-230h-139zM248 -255h-60q30 35 43 59q3 4 1 8.5t-8 4.5q-27 0 -45 19t-18 47q0 29 19.5 48t47.5 19q29 0 48 -18.5t20 -48.5q1 -23 -6 -48t-16 -42.5t-26 -47.5z" />
    <glyph glyph-name="Lacute" unicode="&#x139;" horiz-adv-x="400" 
d="M60 0v723h157v-600h168v-123h-325zM252 941l48 -89l-199 -99l-41 70z" />
    <glyph glyph-name="lacute" unicode="&#x13a;" horiz-adv-x="255" 
d="M202 507v-507h-148v723h136zM217 941l48 -89l-199 -99l-41 70z" />
    <glyph glyph-name="Lcommaaccent" unicode="&#x13b;" horiz-adv-x="400" 
d="M60 0v723h157v-600h168v-123h-325zM235 -255h-60q30 35 43 59q3 4 1 8.5t-8 4.5q-27 0 -45 19t-18 47q0 29 19.5 48t47.5 19q29 0 48 -18.5t20 -48.5q1 -23 -6 -48t-16 -42.5t-26 -47.5z" />
    <glyph glyph-name="lcommaaccent" unicode="&#x13c;" horiz-adv-x="255" 
d="M202 507v-507h-148v723h136zM147 -255h-60q30 35 43 59q3 4 1 8.5t-8 4.5q-27 0 -45 19t-18 47q0 29 19.5 48t47.5 19q29 0 48 -18.5t20 -48.5q1 -23 -6 -48t-16 -42.5t-26 -47.5z" />
    <glyph glyph-name="Lcaron" unicode="&#x13d;" horiz-adv-x="400" 
d="M60 0v723h157v-600h168v-123h-325zM327 525h-60q29 36 42 57q3 4 1 8t-8 4q-28 0 -45 19t-17 46t19 45.5t46 18.5t47 -18t21 -47q2 -32 -9.5 -61t-36.5 -72z" />
    <glyph glyph-name="lcaron" unicode="&#x13e;" horiz-adv-x="354" 
d="M202 507v-507h-148v723h136zM313 525h-60q29 36 42 57q3 4 1 8t-8 4q-28 0 -45 19t-17 46t19 45.5t46 18.5t47 -18t21 -47q2 -32 -9.5 -61t-36.5 -72z" />
    <glyph glyph-name="Ldot" unicode="&#x13f;" horiz-adv-x="415" 
d="M60 0v723h157v-600h168v-123h-325zM258 351q0 35 22 58t56 23t56.5 -23t22.5 -58q0 -34 -22.5 -57t-56.5 -23t-56 23t-22 57z" />
    <glyph glyph-name="ldot" unicode="&#x140;" horiz-adv-x="398" 
d="M202 507v-507h-148v723h136zM247 351q0 35 22 58t56 23t56.5 -23t22.5 -58q0 -34 -22.5 -57t-56.5 -23t-56 23t-22 57z" />
    <glyph glyph-name="Lslash" unicode="&#x141;" horiz-adv-x="400" 
d="M60 0v242l-45 -37v101l45 38v379h157v-247l80 68v-103l-80 -67v-251h168v-123h-325z" />
    <glyph glyph-name="lslash" unicode="&#x142;" horiz-adv-x="255" 
d="M203 507v-45l42 34v-103l-42 -34v-359h-148v241l-45 -36v101l45 36v381h136z" />
    <glyph glyph-name="Nacute" unicode="&#x143;" horiz-adv-x="580" 
d="M60 0v723h185l145 -474h6l-1 474h125v-723h-181l-145 470h-6l1 -470h-129zM393 941l48 -89l-199 -99l-41 70z" />
    <glyph glyph-name="nacute" unicode="&#x144;" horiz-adv-x="457" 
d="M46 506h133l5 -80h6q42 89 111 89q106 0 106 -179v-336h-136v340q0 68 -26 68q-19 0 -33.5 -32t-21.5 -84v-292h-135v360q0 74 -9 146zM335 751l56 -87l-192 -118l-48 68z" />
    <glyph glyph-name="Ncommaaccent" unicode="&#x145;" horiz-adv-x="580" 
d="M60 0v723h185l145 -474h6l-1 474h125v-723h-181l-145 470h-6l1 -470h-129zM236 -173v114h111v-107q-18 -47 -52 -89h-62q41 39 59 68q3 5 0.5 9.5t-8.5 4.5h-48z" />
    <glyph glyph-name="ncommaaccent" unicode="&#x146;" horiz-adv-x="457" 
d="M46 506h133l5 -80h6q42 89 111 89q106 0 106 -179v-336h-136v340q0 68 -26 68q-19 0 -33.5 -32t-21.5 -84v-292h-135v360q0 74 -9 146zM250 -255h-60q30 35 43 59q3 4 1 8.5t-8 4.5q-27 0 -45 19t-18 47q0 29 19.5 48t47.5 19q29 0 48 -18.5t20 -48.5q1 -23 -6 -48
t-16 -42.5t-26 -47.5z" />
    <glyph glyph-name="Ncaron" unicode="&#x147;" horiz-adv-x="580" 
d="M60 0v723h185l145 -474h6l-1 474h125v-723h-181l-145 470h-6l1 -470h-129zM438 927l-147 -170l-149 170h103l43 -55h6l43 55h101z" />
    <glyph glyph-name="ncaron" unicode="&#x148;" horiz-adv-x="457" 
d="M46 506h133l5 -80h6q42 89 111 89q106 0 106 -179v-336h-136v340q0 68 -26 68q-19 0 -33.5 -32t-21.5 -84v-292h-135v360q0 74 -9 146zM374 723l-145 -179l-147 179h99l45 -58h6l45 58h97z" />
    <glyph glyph-name="Eng" unicode="&#x14a;" horiz-adv-x="580" 
d="M167 -26h138q-17 -87 22 -87q47 0 47 85q0 30 -33 28l-147 470h-6l1 -470h-129v723h185l145 -477h6l-1 477h125v-722q0 -97 -50 -153t-139 -56q-75 0 -118.5 49t-45.5 133z" />
    <glyph glyph-name="eng" unicode="&#x14b;" horiz-adv-x="457" 
d="M213 -164v99q26 -2 42 12t16 44v349q0 68 -26 68q-19 0 -33.5 -32t-21.5 -84v-292h-135v360q0 74 -9 146h133l5 -80h6q42 89 111 89q106 0 106 -179v-364q0 -69 -32.5 -107t-94.5 -38q-34 0 -67 9z" />
    <glyph glyph-name="Omacron" unicode="&#x14c;" horiz-adv-x="597" 
d="M35 361q0 174 74.5 275.5t189.5 101.5t189 -104t74 -277q0 -100 -30 -183.5t-91.5 -136t-142.5 -52.5q-121 0 -192 107t-71 269zM196 360q0 -266 103 -266q102 0 102 265q0 274 -102 274q-103 0 -103 -273zM158 779v91h280v-91h-280z" />
    <glyph glyph-name="omacron" unicode="&#x14d;" horiz-adv-x="453" 
d="M30 253q0 102 53.5 183t144.5 81q63 0 109 -42.5t66 -100.5t20 -120q0 -111 -52 -191t-143 -80q-90 0 -144 77t-54 193zM175 253q0 -178 53 -178q28 0 39.5 45t11.5 134q0 172 -51 172q-53 0 -53 -173zM94 594v94h266v-94h-266z" />
    <glyph glyph-name="Obreve" unicode="&#x14e;" horiz-adv-x="597" 
d="M35 361q0 174 74.5 275.5t189.5 101.5t189 -104t74 -277q0 -100 -30 -183.5t-91.5 -136t-142.5 -52.5q-121 0 -192 107t-71 269zM196 360q0 -266 103 -266q102 0 102 265q0 274 -102 274q-103 0 -103 -273zM298 845q62 0 66 68h67q3 -70 -31.5 -109.5t-101.5 -39.5
q-68 0 -102 39t-31 110h67q4 -68 66 -68z" />
    <glyph glyph-name="obreve" unicode="&#x14f;" horiz-adv-x="453" 
d="M30 253q0 102 53.5 183t144.5 81q63 0 109 -42.5t66 -100.5t20 -120q0 -111 -52 -191t-143 -80q-90 0 -144 77t-54 193zM175 253q0 -178 53 -178q28 0 39.5 45t11.5 134q0 172 -51 172q-53 0 -53 -173zM226 645q58 0 62 78h73q2 -78 -32.5 -122.5t-102.5 -44.5
q-67 0 -101.5 44.5t-32.5 122.5h73q4 -78 61 -78z" />
    <glyph glyph-name="Ohungarumlaut" unicode="&#x150;" horiz-adv-x="597" 
d="M35 361q0 174 74.5 275.5t189.5 101.5t189 -104t74 -277q0 -100 -30 -183.5t-91.5 -136t-142.5 -52.5q-121 0 -192 107t-71 269zM196 360q0 -266 103 -266q102 0 102 265q0 274 -102 274q-103 0 -103 -273zM314 944l53 -75l-169 -116l-43 60zM497 944l53 -75l-170 -116
l-43 60z" />
    <glyph glyph-name="ohungarumlaut" unicode="&#x151;" horiz-adv-x="453" 
d="M30 253q0 102 53.5 183t144.5 81q63 0 109 -42.5t66 -100.5t20 -120q0 -111 -52 -191t-143 -80q-90 0 -144 77t-54 193zM175 253q0 -178 53 -178q28 0 39.5 45t11.5 134q0 172 -51 172q-53 0 -53 -173zM212 752l71 -63l-134 -143l-57 50zM373 752l70 -63l-134 -143
l-57 50z" />
    <glyph glyph-name="OE" unicode="&#x152;" horiz-adv-x="744" 
d="M719 0h-327q-45 -17 -98 -17q-119 0 -189 108t-70 270q0 170 73 274.5t186 104.5q34 0 98 -17h320v-118h-181v-172h167v-118h-167v-195h188v-120zM193 360q0 -267 98 -267q51 0 74 76t23 190q0 120 -23.5 197t-73.5 77q-35 0 -58 -40t-31.5 -98.5t-8.5 -134.5z" />
    <glyph glyph-name="oe" unicode="&#x153;" horiz-adv-x="684" 
d="M471 -18q-74 0 -122 72h-6q-47 -71 -123 -71q-86 0 -138 77t-52 193q0 102 52 183t140 81q74 0 121 -71h6q23 34 58 54t72 20q88 0 132.5 -75t44.5 -175q0 -21 -3 -48h-236q6 -150 58 -150q19 0 29 21t9 56h135q-12 -71 -59.5 -119t-117.5 -48zM170 253q0 -178 53 -178
q28 0 39.5 45t11.5 134q0 172 -51 172q-53 0 -53 -173zM419 311h101q1 30 -3 55t-15.5 43t-28.5 18q-26 0 -39.5 -34.5t-14.5 -81.5z" />
    <glyph glyph-name="Racute" unicode="&#x154;" horiz-adv-x="535" 
d="M60 0v723h204q89 0 159 -53.5t70 -145.5q0 -127 -127 -188l154 -336h-170l-127 310h-8l1 -310h-156zM215 611v-211l36 1q36 1 58.5 29.5t22.5 76.5q0 45 -23.5 73.5t-56.5 29.5zM339 941l48 -89l-199 -99l-41 70z" />
    <glyph glyph-name="racute" unicode="&#x155;" horiz-adv-x="324" 
d="M57 0v360q0 74 -9 146h137l5 -140h6q47 154 123 154v-163q-9 4 -24 4q-40 0 -64 -36.5t-26 -104.5v-220h-148zM298 751l56 -87l-192 -118l-48 68z" />
    <glyph glyph-name="Rcommaaccent" unicode="&#x156;" horiz-adv-x="535" 
d="M60 0v723h204q89 0 159 -53.5t70 -145.5q0 -127 -127 -188l154 -336h-170l-127 310h-8l1 -310h-156zM215 611v-211l36 1q36 1 58.5 29.5t22.5 76.5q0 45 -23.5 73.5t-56.5 29.5zM296 -255h-60q30 35 43 59q3 4 1 8.5t-8 4.5q-27 0 -45 19t-18 47q0 29 19.5 48t47.5 19
q29 0 48 -18.5t20 -48.5q1 -23 -6 -48t-16 -42.5t-26 -47.5z" />
    <glyph glyph-name="rcommaaccent" unicode="&#x157;" horiz-adv-x="324" 
d="M57 0v360q0 74 -9 146h137l5 -140h6q47 154 123 154v-163q-9 4 -24 4q-40 0 -64 -36.5t-26 -104.5v-220h-148zM146 -255h-60q30 35 43 59q3 4 1 8.5t-8 4.5q-27 0 -45 19t-18 47q0 29 19.5 48t47.5 19q29 0 48 -18.5t20 -48.5q1 -23 -6 -48t-16 -42.5t-26 -47.5z" />
    <glyph glyph-name="Rcaron" unicode="&#x158;" horiz-adv-x="535" 
d="M60 0v723h204q89 0 159 -53.5t70 -145.5q0 -127 -127 -188l154 -336h-170l-127 310h-8l1 -310h-156zM215 611v-211l36 1q36 1 58.5 29.5t22.5 76.5q0 45 -23.5 73.5t-56.5 29.5zM400 927l-147 -170l-149 170h103l43 -55h6l43 55h101z" />
    <glyph glyph-name="rcaron" unicode="&#x159;" horiz-adv-x="324" 
d="M57 0v360q0 74 -9 146h137l5 -140h6q47 154 123 154v-163q-9 4 -24 4q-40 0 -64 -36.5t-26 -104.5v-220h-148zM342 723l-145 -179l-147 179h99l45 -58h6l45 58h97z" />
    <glyph glyph-name="Sacute" unicode="&#x15a;" horiz-adv-x="460" 
d="M25 202h164q-9 -46 2.5 -79t39.5 -33q22 0 33.5 18t11.5 46q0 72 -87 131q-157 103 -157 239q0 96 56.5 153t138.5 57q78 0 132 -53t63 -152h-156q5 41 -5.5 69.5t-32.5 28.5q-19 0 -30.5 -20t-11.5 -51q0 -60 85 -113q161 -99 161 -248q0 -95 -56 -152.5t-144 -57.5
q-34 0 -67 11t-64 35t-51.5 68t-24.5 103zM342 941l48 -89l-199 -99l-41 70z" />
    <glyph glyph-name="sacute" unicode="&#x15b;" horiz-adv-x="401" 
d="M22 141h148q-2 -28 6.5 -48.5t26.5 -20.5q33 0 33 46q0 43 -61 69q-149 63 -149 172q0 70 49.5 114.5t119.5 44.5q65 0 115 -36t56 -112h-144q2 28 -5.5 46.5t-21.5 18.5q-13 0 -22 -13t-9 -36q0 -42 63 -67q150 -58 150 -173q0 -73 -53.5 -116.5t-121.5 -43.5
q-41 0 -78 13t-67.5 50t-34.5 92zM304 751l56 -87l-192 -118l-48 68z" />
    <glyph glyph-name="Scircumflex" unicode="&#x15c;" horiz-adv-x="460" 
d="M25 202h164q-9 -46 2.5 -79t39.5 -33q22 0 33.5 18t11.5 46q0 72 -87 131q-157 103 -157 239q0 96 56.5 153t138.5 57q78 0 132 -53t63 -152h-156q5 41 -5.5 69.5t-32.5 28.5q-19 0 -30.5 -20t-11.5 -51q0 -60 85 -113q161 -99 161 -248q0 -95 -56 -152.5t-144 -57.5
q-34 0 -67 11t-64 35t-51.5 68t-24.5 103zM232 940l147 -170h-101l-43 55h-6l-43 -55h-103z" />
    <glyph glyph-name="scircumflex" unicode="&#x15d;" horiz-adv-x="401" 
d="M22 141h148q-2 -28 6.5 -48.5t26.5 -20.5q33 0 33 46q0 43 -61 69q-149 63 -149 172q0 70 49.5 114.5t119.5 44.5q65 0 115 -36t56 -112h-144q2 28 -5.5 46.5t-21.5 18.5q-13 0 -22 -13t-9 -36q0 -42 63 -67q150 -58 150 -173q0 -73 -53.5 -116.5t-121.5 -43.5
q-41 0 -78 13t-67.5 50t-34.5 92zM201 735l145 -180h-97l-45 58h-6l-45 -58h-99z" />
    <glyph glyph-name="Scedilla" unicode="&#x15e;" horiz-adv-x="460" 
d="M136 -187l23 63q21 -21 52 -21q14 0 23 7.5t9 19.5q0 22 -24 22q-17 0 -32 -9l-28 30l28 65q-64 13 -110 64.5t-52 147.5h164q-9 -46 2.5 -79t39.5 -33q22 0 33.5 18t11.5 46q0 72 -87 131q-157 103 -157 239q0 96 56.5 153t138.5 57q78 0 132 -53t63 -152h-156
q5 41 -5.5 69.5t-32.5 28.5q-19 0 -30.5 -20t-11.5 -51q0 -60 85 -113q161 -99 161 -248q0 -92 -52.5 -148.5t-135.5 -61.5l-19 -28l4 -4q10 4 23 4q31 0 50.5 -19.5t19.5 -52.5q0 -39 -30 -66.5t-79 -27.5q-45 0 -77 22z" />
    <glyph glyph-name="scedilla" unicode="&#x15f;" horiz-adv-x="401" 
d="M114 -187l23 63q21 -21 52 -21q14 0 23 7.5t9 19.5q0 22 -24 22q-17 0 -32 -9l-28 30l28 64q-57 10 -98 47t-45 105h148q-2 -28 6.5 -48.5t26.5 -20.5q33 0 33 46q0 43 -61 69q-149 63 -149 172q0 70 49.5 114.5t119.5 44.5q65 0 115 -36t56 -112h-144q2 28 -5.5 46.5
t-21.5 18.5q-13 0 -22 -13t-9 -36q0 -42 63 -67q150 -58 150 -173q0 -67 -45.5 -109.5t-107.5 -49.5l-21 -30l4 -4q10 4 23 4q31 0 50.5 -19.5t19.5 -52.5q0 -39 -30 -66.5t-79 -27.5q-45 0 -77 22z" />
    <glyph glyph-name="Scaron" unicode="&#x160;" horiz-adv-x="460" 
d="M25 202h164q-9 -46 2.5 -79t39.5 -33q22 0 33.5 18t11.5 46q0 72 -87 131q-157 103 -157 239q0 96 56.5 153t138.5 57q78 0 132 -53t63 -152h-156q5 41 -5.5 69.5t-32.5 28.5q-19 0 -30.5 -20t-11.5 -51q0 -60 85 -113q161 -99 161 -248q0 -95 -56 -152.5t-144 -57.5
q-34 0 -67 11t-64 35t-51.5 68t-24.5 103zM379 927l-147 -170l-149 170h103l43 -55h6l43 55h101z" />
    <glyph glyph-name="scaron" unicode="&#x161;" horiz-adv-x="401" 
d="M22 141h148q-2 -28 6.5 -48.5t26.5 -20.5q33 0 33 46q0 43 -61 69q-149 63 -149 172q0 70 49.5 114.5t119.5 44.5q65 0 115 -36t56 -112h-144q2 28 -5.5 46.5t-21.5 18.5q-13 0 -22 -13t-9 -36q0 -42 63 -67q150 -58 150 -173q0 -73 -53.5 -116.5t-121.5 -43.5
q-41 0 -78 13t-67.5 50t-34.5 92zM340 723l-145 -179l-147 179h99l45 -58h6l45 58h97z" />
    <glyph glyph-name="uni0162" unicode="&#x162;" horiz-adv-x="440" 
d="M186 0h-46v603h-125v120h410v-120h-127v-603h-49l22 32h-71zM130 -187l23 63q21 -21 52 -21q14 0 23 7.5t9 19.5q0 22 -24 22q-17 0 -32 -9l-28 30l33 75h63l-30 -43l4 -4q10 4 23 4q31 0 50.5 -19.5t19.5 -52.5q0 -39 -30 -66.5t-79 -27.5q-45 0 -77 22z" />
    <glyph glyph-name="uni0163" unicode="&#x163;" horiz-adv-x="318" 
d="M95 -187l23 63q21 -21 52 -21q14 0 23 7.5t9 19.5q0 22 -24 22q-17 0 -32 -9l-28 30l31 72q-72 21 -72 134v275h-62v100h65l37 141h108v-141h75v-100h-75v-269q0 -37 27 -37q20 0 46 11l-2 -89q-43 -28 -89 -31l-23 -34l4 -4q10 4 23 4q31 0 50.5 -19.5t19.5 -52.5
q0 -39 -30 -66.5t-79 -27.5q-45 0 -77 22z" />
    <glyph glyph-name="Tcaron" unicode="&#x164;" horiz-adv-x="440" 
d="M298 0h-158v603h-125v120h410v-120h-127v-603zM367 927l-147 -170l-149 170h103l43 -55h6l43 55h101z" />
    <glyph glyph-name="tcaron" unicode="&#x165;" horiz-adv-x="364" 
d="M15 406v100h65l37 141h108v-141h75v-100h-75v-269q0 -37 27 -37q20 0 46 11l-2 -89q-50 -32 -99 -32q-61 0 -90.5 34t-29.5 107v275h-62zM323 575h-60q29 36 42 57q3 4 1 8t-8 4q-28 0 -45 19t-17 46t19 45.5t46 18.5t47 -18t21 -47q2 -32 -9.5 -61t-36.5 -72z" />
    <glyph glyph-name="Tbar" unicode="&#x166;" horiz-adv-x="440" 
d="M298 0h-158v309h-53v94h53v200h-125v120h410v-120h-127v-200h55v-94h-55v-309z" />
    <glyph glyph-name="tbar" unicode="&#x167;" horiz-adv-x="318" 
d="M26 205v94h51v107h-62v100h65l37 141h108v-141h75v-100h-75v-107h67v-94h-67v-68q0 -37 27 -37q20 0 46 11l-2 -89q-50 -32 -99 -32q-61 0 -90.5 34t-29.5 107v74h-51z" />
    <glyph glyph-name="Utilde" unicode="&#x168;" horiz-adv-x="538" 
d="M270 -14q97 0 154 68t57 203v466h-152v-488q0 -134 -58 -134q-59 0 -59 134v488h-155v-466q0 -135 58.5 -203t154.5 -68zM332 773q-24 0 -71 17q-40 15 -52 15q-26 0 -31 -40h-69q-1 69 27.5 100.5t69.5 31.5q24 0 71 -17q40 -15 52 -15q26 0 31 40h69
q1 -69 -27.5 -100.5t-69.5 -31.5z" />
    <glyph glyph-name="utilde" unicode="&#x169;" horiz-adv-x="455" 
d="M405 0h-124l-5 75h-6q-49 -85 -115 -85q-105 0 -105 180v336h137v-345q0 -37 5.5 -52.5t19.5 -15.5q19 0 33.5 32t21.5 84v297h135v-412zM293 574q-27 0 -74 17q-40 15 -52 15q-23 0 -28 -42h-63q1 72 24.5 105.5t60.5 33.5q27 0 74 -17q40 -15 52 -15q23 0 28 42h63
q-1 -72 -24.5 -105.5t-60.5 -33.5z" />
    <glyph glyph-name="Umacron" unicode="&#x16a;" horiz-adv-x="538" 
d="M270 -14q97 0 154 68t57 203v466h-152v-488q0 -134 -58 -134q-59 0 -59 134v488h-155v-466q0 -135 58.5 -203t154.5 -68zM131 779v91h280v-91h-280z" />
    <glyph glyph-name="umacron" unicode="&#x16b;" horiz-adv-x="455" 
d="M405 0h-124l-5 75h-6q-49 -85 -115 -85q-105 0 -105 180v336h137v-345q0 -37 5.5 -52.5t19.5 -15.5q19 0 33.5 32t21.5 84v297h135v-412zM95 594v94h266v-94h-266z" />
    <glyph glyph-name="Ubreve" unicode="&#x16c;" horiz-adv-x="538" 
d="M270 -14q-96 0 -154.5 68t-58.5 203v466h155v-488q0 -134 59 -134q58 0 58 134v488h152v-466q0 -135 -57 -203t-154 -68zM271 845q62 0 66 68h67q3 -70 -31.5 -109.5t-101.5 -39.5q-68 0 -102 39t-31 110h67q4 -68 66 -68z" />
    <glyph glyph-name="ubreve" unicode="&#x16d;" horiz-adv-x="455" 
d="M405 0h-124l-5 75h-6q-49 -85 -115 -85q-105 0 -105 180v336h137v-345q0 -37 5.5 -52.5t19.5 -15.5q19 0 33.5 32t21.5 84v297h135v-412zM227 645q58 0 62 78h73q2 -78 -32.5 -122.5t-102.5 -44.5q-67 0 -101.5 44.5t-32.5 122.5h73q4 -78 61 -78z" />
    <glyph glyph-name="Uring" unicode="&#x16e;" horiz-adv-x="538" 
d="M270 -14q97 0 154 68t57 203v466h-152v-488q0 -134 -58 -134q-59 0 -59 134v488h-155v-466q0 -135 58.5 -203t154.5 -68zM184 843q0 35 25.5 59.5t61.5 24.5t62 -24.5t26 -59.5q0 -36 -26 -61t-62 -25t-61.5 25t-25.5 61zM235 843q0 -16 10 -25.5t26 -9.5q17 0 27 9.5
t10 25.5t-10 25.5t-27 9.5q-16 0 -26 -9.5t-10 -25.5z" />
    <glyph glyph-name="uring" unicode="&#x16f;" horiz-adv-x="455" 
d="M405 0h-124l-5 75h-6q-49 -85 -115 -85q-105 0 -105 180v336h137v-345q0 -37 5.5 -52.5t19.5 -15.5q19 0 33.5 32t21.5 84v297h135v-412zM130 642q0 39 28.5 66t68.5 27q41 0 69.5 -27t28.5 -66q0 -40 -28.5 -67.5t-69.5 -27.5q-40 0 -68.5 27.5t-28.5 67.5zM187 642
q0 -18 11 -28.5t29 -10.5t29.5 10.5t11.5 28.5q0 17 -11.5 28t-29.5 11q-17 0 -28.5 -11t-11.5 -28z" />
    <glyph glyph-name="Uhungarumlaut" unicode="&#x170;" horiz-adv-x="538" 
d="M270 -14q97 0 154 68t57 203v466h-152v-488q0 -134 -58 -134q-59 0 -59 134v488h-155v-466q0 -135 58.5 -203t154.5 -68zM261 944l53 -75l-169 -116l-43 60zM444 944l53 -75l-170 -116l-43 60z" />
    <glyph glyph-name="uhungarumlaut" unicode="&#x171;" horiz-adv-x="455" 
d="M405 0h-124l-5 75h-6q-49 -85 -115 -85q-105 0 -105 180v336h137v-345q0 -37 5.5 -52.5t19.5 -15.5q19 0 33.5 32t21.5 84v297h135v-412zM185 752l71 -63l-134 -143l-57 50zM346 752l70 -63l-134 -143l-57 50z" />
    <glyph glyph-name="Uogonek" unicode="&#x172;" horiz-adv-x="538" 
d="M341 -113v-69q-41 -31 -84 -31q-40 0 -61.5 21t-21.5 53q0 63 84 125q-91 4 -146 72t-55 199v466h155v-488q0 -134 59 -134q58 0 58 134v488h152v-466q0 -206 -132 -257h3q-84 -77 -84 -113q0 -22 22 -22q20 0 51 22z" />
    <glyph glyph-name="uogonek" unicode="&#x173;" horiz-adv-x="455" 
d="M405 0h-124l-5 75h-6q-49 -85 -115 -85q-105 0 -105 180v336h137v-345q0 -37 5.5 -52.5t19.5 -15.5q19 0 33.5 32t21.5 84v297h135v-412zM394 -182v69q-31 -22 -51 -22q-22 0 -22 22q0 36 84 113h-73q-105 -68 -105 -139q0 -32 21.5 -53t61.5 -21q43 0 84 31z" />
    <glyph glyph-name="Wcircumflex" unicode="&#x174;" horiz-adv-x="715" 
d="M30 723h141l35 -477h8l81 479h139l78 -474h8l38 472h127l-87 -723h-160l-70 455h-8l-76 -455h-162zM364 940l147 -170h-101l-43 55h-6l-43 -55h-103z" />
    <glyph glyph-name="wcircumflex" unicode="&#x175;" horiz-adv-x="582" 
d="M448 506h119l-77 -506h-141l-51 344h-6l-56 -344h-141l-80 506h133l28 -333h6l52 335h129l48 -335h6zM296 735l145 -180h-97l-45 58h-6l-45 -58h-99z" />
    <glyph glyph-name="Ycircumflex" unicode="&#x176;" horiz-adv-x="510" 
d="M502 723l-152 -440q-19 -2 -19 -22v-261h-155v261q0 20 -20 22l-146 440h164l86 -346h6l89 346h147zM264 940l147 -170h-101l-43 55h-6l-43 -55h-103z" />
    <glyph glyph-name="ycircumflex" unicode="&#x177;" horiz-adv-x="435" 
d="M288 506h132l-128 -553q-29 -130 -167 -130q-46 0 -82 9v105q20 -5 53 -5q35 0 54.5 20t19.5 52q0 20 -12.5 31.5t-32.5 10.5l-115 460h144l64 -348h5zM221 735l145 -180h-97l-45 58h-6l-45 -58h-99z" />
    <glyph glyph-name="Ydieresis" unicode="&#x178;" horiz-adv-x="510" 
d="M502 723l-152 -440q-19 -2 -19 -22v-261h-155v261q0 20 -20 22l-146 440h164l86 -346h6l89 346h147zM105 841q0 29 20 48.5t48 19.5q27 0 47 -19.5t20 -48.5q0 -28 -20 -47.5t-47 -19.5q-28 0 -48 19.5t-20 47.5zM286 841q0 29 20 48.5t47 19.5q28 0 48.5 -19.5
t20.5 -48.5q0 -28 -20.5 -47.5t-48.5 -19.5q-27 0 -47 19.5t-20 47.5z" />
    <glyph glyph-name="Zacute" unicode="&#x179;" horiz-adv-x="450" 
d="M28 0v116l226 481v8h-208v118h376v-120l-224 -476v-8h220v-119h-390zM319 941l48 -89l-199 -99l-41 70z" />
    <glyph glyph-name="zacute" unicode="&#x17a;" horiz-adv-x="360" 
d="M20 0v109l164 292v6h-156v99h307v-103l-164 -295v-6h169v-102h-320zM263 751l56 -87l-192 -118l-48 68z" />
    <glyph glyph-name="Zdotaccent" unicode="&#x17b;" horiz-adv-x="450" 
d="M28 0v116l226 481v8h-208v118h376v-120l-224 -476v-8h220v-119h-390zM161 841q0 33 22 53.5t54 20.5t54.5 -20.5t22.5 -53.5t-22.5 -53t-54.5 -20q-33 0 -54.5 19.5t-21.5 53.5z" />
    <glyph glyph-name="zdotaccent" unicode="&#x17c;" horiz-adv-x="360" 
d="M20 0v109l164 292v6h-156v99h307v-103l-164 -295v-6h169v-102h-320zM102 647q0 34 22.5 54.5t55.5 20.5t56 -21t23 -54q0 -34 -23 -54t-56 -20t-55.5 20t-22.5 54z" />
    <glyph glyph-name="Zcaron" unicode="&#x17d;" horiz-adv-x="450" 
d="M28 0v116l226 481v8h-208v118h376v-120l-224 -476v-8h220v-119h-390zM380 927l-147 -170l-149 170h103l43 -55h6l43 55h101z" />
    <glyph glyph-name="zcaron" unicode="&#x17e;" horiz-adv-x="360" 
d="M20 0v109l164 292v6h-156v99h307v-103l-164 -295v-6h169v-102h-320zM328 723l-145 -179l-147 179h99l45 -58h6l45 58h97z" />
    <glyph glyph-name="florin" unicode="&#x192;" horiz-adv-x="505" 
d="M137 -25l54 342h-53v120h73l17 105q12 79 56.5 121.5t115.5 42.5q32 0 65 -11v-114q-30 7 -47 7q-48 0 -57 -53l-15 -98h54v-120h-74l-54 -348q-12 -78 -58 -119t-117 -41q-29 0 -64 12v112q36 -6 50 -6q46 0 54 48z" />
    <glyph glyph-name="Aringacute" unicode="&#x1fa;" horiz-adv-x="507" 
d="M345 0l-23 142h-142l-24 -142h-146l148 723h183l156 -723h-152zM304 258l-48 278h-8l-50 -278h106zM165 843q0 35 25.5 59.5t61.5 24.5t62 -24.5t26 -59.5q0 -36 -26 -61t-62 -25t-61.5 25t-25.5 61zM216 843q0 -16 10 -25.5t26 -9.5q17 0 27 9.5t10 25.5t-10 25.5
t-27 9.5q-16 0 -26 -9.5t-10 -25.5zM355 1131l48 -89l-199 -99l-41 70z" />
    <glyph glyph-name="aringacute" unicode="&#x1fb;" horiz-adv-x="433" 
d="M251 225v-84q-28 -59 -53 -59q-36 0 -36 75q0 32 11 54t32 24q18 2 46 -10zM383 119v220q0 94 -45 135.5t-121 41.5q-74 0 -121 -45.5t-59 -116.5h148q-7 82 29 82q21 0 28.5 -23.5t7.5 -72.5v-36l1 -16q-40 17 -79 16q-61 -2 -100 -43t-39 -111q0 -72 29.5 -117
t81.5 -45q62 0 109 77h6q0 -29 -3 -65h136q-9 50 -9 119zM118 642q0 39 28.5 66t68.5 27q41 0 69.5 -27t28.5 -66q0 -40 -28.5 -67.5t-69.5 -27.5q-40 0 -68.5 27.5t-28.5 67.5zM175 642q0 -18 11 -28.5t29 -10.5t29.5 10.5t11.5 28.5q0 17 -11.5 28t-29.5 11
q-17 0 -28.5 -11t-11.5 -28zM310 951l56 -87l-192 -118l-48 68z" />
    <glyph glyph-name="AEacute" unicode="&#x1fc;" horiz-adv-x="695" 
d="M470 315h182v118h-197l-22 172h231v118h-431l-223 -723h153l41 158h138l14 -158h314v120h-175zM234 271l69 261h6l23 -261h-98zM549 941l48 -89l-199 -99l-41 70z" />
    <glyph glyph-name="aeacute" unicode="&#x1fd;" horiz-adv-x="648" 
d="M334 471h6q46 49 107 49q58 0 98.5 -39t57.5 -93.5t17 -117.5q0 -21 -3 -48h-235q6 -150 58 -150q19 0 29 21t9 56h135q-12 -71 -59 -119t-117 -48q-44 0 -79 25.5t-55 72.5h-6q-60 -95 -149 -95q-53 0 -81.5 44.5t-28.5 117.5q0 69 38 112t98 45q37 1 82 -17q-1 9 -1 16
v37q0 96 -40 96q-36 0 -29 -81h-142q12 71 56.5 116t118.5 45q70 0 115 -45zM267 140q-8 39 -10 83q-30 12 -49 12q-43 0 -43 -78q0 -79 38 -79q18 0 35.5 18.5t28.5 43.5zM383 311h102q1 30 -3 55t-15.5 43t-28.5 18q-26 0 -40 -34.5t-15 -81.5zM458 751l56 -87l-192 -118
l-48 68z" />
    <glyph glyph-name="Oslashacute" unicode="&#x1fe;" horiz-adv-x="597" 
d="M36 361q0 174 74.5 276t189.5 102q77 0 139 -50l53 95l66 -36l-66 -119q71 -107 71 -272q0 -100 -30 -184t-91.5 -137t-142.5 -53t-139 49l-56 -101l-65 36l68 123q-71 106 -71 271zM197 360q0 -60 4 -101l172 311q-26 63 -73 63q-103 0 -103 -273zM402 359q0 48 -5 100
l-171 -308q25 -57 74 -57q102 0 102 265zM410 941l48 -89l-199 -99l-41 70z" />
    <glyph glyph-name="oslashacute" unicode="&#x1ff;" horiz-adv-x="460" 
d="M33 253q0 102 53.5 183t144.5 81q48 0 93 -33l57 102l54 -32l-66 -118q57 -82 57 -182q0 -111 -52 -191t-143 -80q-51 0 -98 34l-54 -97l-54 32l63 113q-55 78 -55 188zM290 254q0 7 -0.5 20.5t-0.5 19.5l-103 -184q14 -45 45 -45q59 0 59 189zM170 253v-42l103 182
q-16 43 -42 43q-61 0 -61 -183zM345 751l56 -87l-192 -118l-48 68z" />
    <glyph glyph-name="uni0218" unicode="&#x218;" horiz-adv-x="460" 
d="M25 202h164q-9 -46 2.5 -79t39.5 -33q22 0 33.5 18t11.5 46q0 72 -87 131q-157 103 -157 239q0 96 56.5 153t138.5 57q78 0 132 -53t63 -152h-156q5 41 -5.5 69.5t-32.5 28.5q-19 0 -30.5 -20t-11.5 -51q0 -60 85 -113q161 -99 161 -248q0 -95 -56 -152.5t-144 -57.5
q-34 0 -67 11t-64 35t-51.5 68t-24.5 103zM250 -255h-60q30 35 43 59q3 4 1 8.5t-8 4.5q-27 0 -45 19t-18 47q0 29 19.5 48t47.5 19q29 0 48 -18.5t20 -48.5q1 -23 -6 -48t-16 -42.5t-26 -47.5z" />
    <glyph glyph-name="uni0219" unicode="&#x219;" horiz-adv-x="401" 
d="M22 141h148q-2 -28 6.5 -48.5t26.5 -20.5q33 0 33 46q0 43 -61 69q-149 63 -149 172q0 70 49.5 114.5t119.5 44.5q65 0 115 -36t56 -112h-144q2 28 -5.5 46.5t-21.5 18.5q-13 0 -22 -13t-9 -36q0 -42 63 -67q150 -58 150 -173q0 -73 -53.5 -116.5t-121.5 -43.5
q-41 0 -78 13t-67.5 50t-34.5 92zM222 -255h-60q30 35 43 59q3 4 1 8.5t-8 4.5q-27 0 -45 19t-18 47q0 29 19.5 48t47.5 19q29 0 48 -18.5t20 -48.5q1 -23 -6 -48t-16 -42.5t-26 -47.5z" />
    <glyph glyph-name="uni021A" unicode="&#x21a;" horiz-adv-x="440" 
d="M298 0h-158v603h-125v120h410v-120h-127v-603zM235 -255h-60q30 35 43 59q3 4 1 8.5t-8 4.5q-27 0 -45 19t-18 47q0 29 19.5 48t47.5 19q29 0 48 -18.5t20 -48.5q1 -23 -6 -48t-16 -42.5t-26 -47.5z" />
    <glyph glyph-name="uni021B" unicode="&#x21b;" horiz-adv-x="318" 
d="M15 406v100h65l37 141h108v-141h75v-100h-75v-269q0 -37 27 -37q20 0 46 11l-2 -89q-50 -32 -99 -32q-61 0 -90.5 34t-29.5 107v275h-62zM201 -255h-60q30 35 43 59q3 4 1 8.5t-8 4.5q-27 0 -45 19t-18 47q0 29 19.5 48t47.5 19q29 0 48 -18.5t20 -48.5q1 -23 -6 -48
t-16 -42.5t-26 -47.5z" />
    <glyph glyph-name="circumflex" unicode="&#x2c6;" horiz-adv-x="400" 
d="M201 735l145 -180h-97l-45 58h-6l-45 -58h-99z" />
    <glyph glyph-name="caron" unicode="&#x2c7;" horiz-adv-x="400" 
d="M346 723l-145 -179l-147 179h99l45 -58h6l45 58h97z" />
    <glyph glyph-name="breve" unicode="&#x2d8;" horiz-adv-x="393" 
d="M196 645q58 0 62 78h73q2 -78 -32.5 -122.5t-102.5 -44.5q-67 0 -101.5 44.5t-32.5 122.5h73q4 -78 61 -78z" />
    <glyph glyph-name="dotaccent" unicode="&#x2d9;" horiz-adv-x="265" 
d="M54 647q0 34 22.5 54.5t55.5 20.5t56 -21t23 -54q0 -34 -23 -54t-56 -20t-55.5 20t-22.5 54z" />
    <glyph glyph-name="ring" unicode="&#x2da;" horiz-adv-x="295" 
d="M50 642q0 39 28.5 66t68.5 27q41 0 69.5 -27t28.5 -66q0 -40 -28.5 -67.5t-69.5 -27.5q-40 0 -68.5 27.5t-28.5 67.5zM107 642q0 -18 11 -28.5t29 -10.5t29.5 10.5t11.5 28.5q0 17 -11.5 28t-29.5 11q-17 0 -28.5 -11t-11.5 -28z" />
    <glyph glyph-name="ogonek" unicode="&#x2db;" horiz-adv-x="271" 
d="M213 -113v-69q-41 -31 -84 -31q-40 0 -61.5 21t-21.5 53q0 71 105 139h73q-84 -77 -84 -113q0 -22 22 -22q20 0 51 22z" />
    <glyph glyph-name="tilde" unicode="&#x2dc;" horiz-adv-x="402" 
d="M267 574q-27 0 -74 17q-40 15 -52 15q-23 0 -28 -42h-63q1 72 24.5 105.5t60.5 33.5q27 0 74 -17q40 -15 52 -15q23 0 28 42h63q-1 -72 -24.5 -105.5t-60.5 -33.5z" />
    <glyph glyph-name="hungarumlaut" unicode="&#x2dd;" horiz-adv-x="461" 
d="M176 752l71 -63l-134 -143l-57 50zM337 752l70 -63l-134 -143l-57 50z" />
    <glyph glyph-name="pi" unicode="&#x3c0;" horiz-adv-x="535" 
d="M498 118v-102q-49 -27 -94 -27q-58 0 -83.5 32t-25.5 95v285h-79v-401h-133v398h-63l11 108h467v-108h-72v-275q0 -20 20 -20t52 15z" />
    <glyph glyph-name="afii10023" unicode="&#x401;" horiz-adv-x="425" 
d="M60 0v723h333v-118h-181v-172h167v-118h-167v-195h188v-120h-340zM71 841q0 29 20 48.5t48 19.5q27 0 47 -19.5t20 -48.5q0 -28 -20 -47.5t-47 -19.5q-28 0 -48 19.5t-20 47.5zM252 841q0 29 20 48.5t47 19.5q28 0 48.5 -19.5t20.5 -48.5q0 -28 -20.5 -47.5t-48.5 -19.5
q-27 0 -47 19.5t-20 47.5z" />
    <glyph glyph-name="afii10051" unicode="&#x402;" horiz-adv-x="549" 
d="M15 723h408v-119h-136v-98l-3 -88h6q42 88 110 88q104 0 104 -178v-191q0 -145 -118 -145q-25 0 -60 8v99q23 -2 33.5 10.5t10.5 41.5v181q0 69 -26 69q-19 0 -35 -32.5t-23 -84.5v-284h-144v604h-127v119z" />
    <glyph glyph-name="afii10052" unicode="&#x403;" horiz-adv-x="400" 
d="M60 0v723h330v-127l-174 5v-601h-156zM344 941l48 -89l-199 -99l-41 70z" />
    <glyph glyph-name="afii10053" unicode="&#x404;" horiz-adv-x="540" 
d="M520 499h-165q0 51 -15.5 85.5t-44.5 34.5q-39 0 -63 -52t-31 -139h153v-114h-155q4 -98 28.5 -159.5t67.5 -61.5q31 0 47 37t16 88h167q-16 -106 -80.5 -170.5t-149.5 -64.5q-67 0 -119 33.5t-81.5 88.5t-44.5 117.5t-15 128.5q0 96 26.5 179.5t87.5 141t146 57.5
q83 0 147 -63t78 -167z" />
    <glyph glyph-name="afii10054" unicode="&#x405;" horiz-adv-x="460" 
d="M25 202h164q-9 -46 2.5 -79t39.5 -33q22 0 33.5 18t11.5 46q0 72 -87 131q-157 103 -157 239q0 96 56.5 153t138.5 57q78 0 132 -53t63 -152h-156q5 41 -5.5 69.5t-32.5 28.5q-19 0 -30.5 -20t-11.5 -51q0 -60 85 -113q161 -99 161 -248q0 -95 -56 -152.5t-144 -57.5
q-34 0 -67 11t-64 35t-51.5 68t-24.5 103z" />
    <glyph glyph-name="afii10055" unicode="&#x406;" horiz-adv-x="275" 
d="M60 0v723h155v-723h-155z" />
    <glyph glyph-name="afii10056" unicode="&#x407;" horiz-adv-x="275" 
d="M60 0v723h155v-723h-155zM-21 841q0 29 20 48.5t48 19.5q27 0 47 -19.5t20 -48.5q0 -28 -20 -47.5t-47 -19.5q-28 0 -48 19.5t-20 47.5zM160 841q0 29 20 48.5t47 19.5q28 0 48.5 -19.5t20.5 -48.5q0 -28 -20.5 -47.5t-48.5 -19.5q-27 0 -47 19.5t-20 47.5z" />
    <glyph glyph-name="afii10057" unicode="&#x408;" horiz-adv-x="470" 
d="M15 233h158q-4 -64 3 -95.5t34 -31.5q50 0 50 121v496h155v-491q0 -112 -56.5 -176t-147.5 -64t-143.5 66.5t-52.5 174.5z" />
    <glyph glyph-name="afii10058" unicode="&#x409;" horiz-adv-x="755" 
d="M18 6v114q38 -5 57.5 29.5t23.5 133.5l18 440h369v-287h21q97 0 164 -56.5t67 -157.5q0 -103 -68 -162.5t-163 -59.5h-174v613h-67l-12 -339q-6 -154 -48 -218.5t-121 -64.5q-39 0 -67 15zM484 329v-221l23 2q31 2 53 30.5t22 79.5q0 50 -22.5 78t-55.5 30z" />
    <glyph glyph-name="afii10059" unicode="&#x40a;" horiz-adv-x="733" 
d="M60 0v723h153l-1 -287h97v287h155v-287h21q97 0 164 -56.5t67 -157.5q0 -103 -68 -162.5t-163 -59.5h-176v326h-97l1 -326h-153zM462 329v-221l23 2q31 2 53 30.5t22 79.5q0 50 -22.5 78t-55.5 30z" />
    <glyph glyph-name="afii10060" unicode="&#x40b;" horiz-adv-x="560" 
d="M15 723h408v-119h-136v-150h43q85 0 132.5 -43t47.5 -129v-282h-137v278q0 72 -60 77l-27 2v-357h-144v604h-127v119z" />
    <glyph glyph-name="afii10061" unicode="&#x40c;" horiz-adv-x="535" 
d="M60 0v723h156v-319h8l116 320h171l-161 -354l178 -370h-179l-125 321h-8v-321h-156zM379 941l48 -89l-199 -99l-41 70z" />
    <glyph glyph-name="afii10062" unicode="&#x40e;" horiz-adv-x="506" 
d="M496 723l-163 -600q-36 -132 -177 -132q-35 0 -77 10v116q20 -5 51 -5q36 0 56.5 23t20.5 61q0 20 -12.5 31t-30.5 9l-159 487h165l93 -385h6l84 385h143zM264 845q62 0 66 68h67q3 -70 -31.5 -109.5t-101.5 -39.5q-68 0 -102 39t-31 110h67q4 -68 66 -68z" />
    <glyph glyph-name="afii10145" unicode="&#x40f;" horiz-adv-x="570" 
d="M222 1l-162 -1v723h156v-611h142v611h152v-723l-159 1l-2 -128h-126z" />
    <glyph glyph-name="afii10017" unicode="&#x410;" horiz-adv-x="507" 
d="M345 0l-23 142h-142l-24 -142h-146l148 723h183l156 -723h-152zM304 258l-48 278h-8l-50 -278h106z" />
    <glyph glyph-name="afii10018" unicode="&#x411;" horiz-adv-x="510" 
d="M454 601l-238 6v-156h34q97 0 166.5 -60.5t69.5 -162.5q0 -105 -70.5 -166.5t-165.5 -61.5h-190v723h394v-122zM214 340v-228l34 2q32 2 55.5 30t23.5 82q0 53 -23.5 82.5t-58.5 30.5z" />
    <glyph glyph-name="afii10019" unicode="&#x412;" horiz-adv-x="511" 
d="M60 0v723h202q86 0 146 -50.5t60 -135.5q0 -58 -33 -99.5t-82 -59.5v-8q52 -14 92.5 -59.5t40.5 -113.5q0 -90 -65.5 -143.5t-153.5 -53.5h-207zM214 313v-202l40 2q34 1 53 28t19 72t-21.5 70.5t-55.5 27.5zM214 617v-194l28 2q28 2 48.5 26t20.5 68q0 45 -18.5 69.5
t-47.5 26.5z" />
    <glyph glyph-name="afii10020" unicode="&#x413;" horiz-adv-x="400" 
d="M60 0v723h330v-127l-174 5v-601h-156z" />
    <glyph glyph-name="afii10021" unicode="&#x414;" horiz-adv-x="623" 
d="M15 122h17q45 0 68 34t31 129l36 438h359v-601h82l-6 -249h-131v127h-319v-127h-131zM375 619h-69l-26 -344q-8 -103 -50 -159h144z" />
    <glyph glyph-name="afii10022" unicode="&#x415;" horiz-adv-x="425" 
d="M60 0v723h333v-118h-181v-172h167v-118h-167v-195h188v-120h-340z" />
    <glyph glyph-name="afii10024" unicode="&#x416;" horiz-adv-x="732" 
d="M292 409l-2 314h152l-2 -314h7l99 315h159l-138 -351l158 -373h-168l-110 335h-7l2 -335h-152l2 335h-7l-110 -335h-168l158 373l-138 351h159l99 -315h7z" />
    <glyph glyph-name="afii10025" unicode="&#x417;" horiz-adv-x="476" 
d="M10 208h171q-2 -112 48 -112q53 0 53 99q0 48 -19 77.5t-50 34.5q-28 4 -62 4v111q24 0 51 4q33 5 53.5 31.5t20.5 73.5q0 91 -45 91q-42 0 -42 -95h-169q11 100 76 153.5t143 53.5q79 0 140 -51.5t61 -141.5q0 -103 -101 -164v-8q49 -21 80.5 -68.5t31.5 -103.5
q0 -99 -65 -156.5t-155 -57.5q-85 0 -149.5 61t-71.5 164z" />
    <glyph glyph-name="afii10026" unicode="&#x418;" horiz-adv-x="580" 
d="M520 723v-723h-136l1 502h-6l-137 -502h-182v723h133l-1 -498h6l133 498h189z" />
    <glyph glyph-name="afii10027" unicode="&#x419;" horiz-adv-x="580" 
d="M520 723v-723h-136l1 502h-6l-137 -502h-182v723h133l-1 -498h6l133 498h189zM298 845q62 0 66 68h67q3 -70 -31.5 -109.5t-101.5 -39.5q-68 0 -102 39t-31 110h67q4 -68 66 -68z" />
    <glyph glyph-name="afii10028" unicode="&#x41a;" horiz-adv-x="535" 
d="M60 0v723h156v-319h8l116 320h171l-161 -354l178 -370h-179l-125 321h-8v-321h-156z" />
    <glyph glyph-name="afii10029" unicode="&#x41b;" horiz-adv-x="575" 
d="M15 6v114q39 -5 59 29.5t23 133.5l14 440h404v-723h-155v612h-94l-10 -336q-4 -154 -47 -219.5t-122 -65.5q-44 0 -72 15z" />
    <glyph glyph-name="afii10030" unicode="&#x41c;" horiz-adv-x="715" 
d="M44 0l53 723h182l75 -470h8l76 470h181l52 -723h-133l-23 476h-8l-98 -491h-107l-95 491h-8l-24 -476h-131z" />
    <glyph glyph-name="afii10031" unicode="&#x41d;" horiz-adv-x="570" 
d="M60 723h153v-289h140v289h157v-723h-157v317h-140v-317h-153v723z" />
    <glyph glyph-name="afii10032" unicode="&#x41e;" horiz-adv-x="597" 
d="M35 361q0 174 74.5 275.5t189.5 101.5t189 -104t74 -277q0 -100 -30 -183.5t-91.5 -136t-142.5 -52.5q-121 0 -192 107t-71 269zM196 360q0 -266 103 -266q102 0 102 265q0 274 -102 274q-103 0 -103 -273z" />
    <glyph glyph-name="afii10033" unicode="&#x41f;" horiz-adv-x="570" 
d="M60 723h450v-723h-155v606h-142v-606h-153v723z" />
    <glyph glyph-name="afii10034" unicode="&#x420;" horiz-adv-x="505" 
d="M60 0v723h191q95 0 166 -61.5t71 -166.5q0 -103 -70.5 -167.5t-166.5 -64.5h-34v-263h-157zM215 607v-231l30 1q34 1 58.5 31.5t24.5 84.5t-23.5 82t-55.5 30z" />
    <glyph glyph-name="afii10035" unicode="&#x421;" horiz-adv-x="538" 
d="M518 496h-167q-2 119 -57 119q-88 0 -88 -262q0 -110 21 -182.5t67 -72.5q58 0 60 122h169q-16 -105 -81 -170t-148 -65q-67 0 -118.5 33.5t-81 88.5t-44.5 117t-15 127q0 55 9.5 108t30.5 102t50.5 86t73 59t95.5 22q83 0 146.5 -64t77.5 -168z" />
    <glyph glyph-name="afii10036" unicode="&#x422;" horiz-adv-x="440" 
d="M298 0h-158v603h-125v120h410v-120h-127v-603z" />
    <glyph glyph-name="afii10037" unicode="&#x423;" horiz-adv-x="506" 
d="M496 723l-163 -600q-36 -132 -177 -132q-35 0 -77 10v116q20 -5 51 -5q36 0 56.5 23t20.5 61q0 20 -12.5 31t-30.5 9l-159 487h165l93 -385h6l84 385h143z" />
    <glyph glyph-name="afii10038" unicode="&#x424;" horiz-adv-x="656" 
d="M400 569v-418q38 17 60.5 74t22.5 135t-22.5 135t-60.5 74zM402 49l1 -105h-150l1 105q-94 18 -161.5 105t-67.5 206t67.5 205.5t161.5 105.5l-1 94h150l-1 -94q101 -18 165 -104t64 -207t-64 -207t-165 -104zM256 151v418q-38 -17 -60.5 -74t-22.5 -135t22.5 -135
t60.5 -74z" />
    <glyph glyph-name="afii10039" unicode="&#x425;" horiz-adv-x="515" 
d="M24 723h164l71 -222h8l79 222h147l-144 -348l156 -375h-162l-84 242h-8l-78 -242h-163l147 374z" />
    <glyph glyph-name="afii10040" unicode="&#x426;" horiz-adv-x="610" 
d="M458 0h-398v723h156v-611h142v611h150v-601h87l-6 -249h-131v127z" />
    <glyph glyph-name="afii10041" unicode="&#x427;" horiz-adv-x="520" 
d="M30 723h154v-202q0 -102 81 -108l38 -3v313h157v-723h-157v302h-64q-94 0 -151.5 56.5t-57.5 157.5v207z" />
    <glyph glyph-name="afii10042" unicode="&#x428;" horiz-adv-x="734" 
d="M674 0h-614v723h147v-617h93v617h138v-617h93v617h143v-723z" />
    <glyph glyph-name="afii10043" unicode="&#x429;" horiz-adv-x="764" 
d="M612 0h-552v723h146v-617h88v617h138v-617h88v617h142v-601h87l-6 -249h-131v127z" />
    <glyph glyph-name="afii10044" unicode="&#x42a;" horiz-adv-x="563" 
d="M121 0v610l-111 -4v117h267v-272h34q97 0 167 -60.5t70 -162.5q0 -105 -71 -166.5t-166 -61.5h-190zM275 340v-228l34 2q32 2 55.5 30t23.5 82q0 53 -23.5 82.5t-58.5 30.5z" />
    <glyph glyph-name="afii10045" unicode="&#x42b;" horiz-adv-x="730" 
d="M60 0v723h156v-278h21q96 0 163.5 -59.5t67.5 -160.5q0 -104 -68.5 -164.5t-162.5 -60.5h-177zM214 338v-230l23 2q31 2 53 31t22 82t-22 82.5t-56 31.5zM517 0v723h153v-723h-153z" />
    <glyph glyph-name="afii10046" unicode="&#x42c;" horiz-adv-x="503" 
d="M60 0v723h157v-272h34q97 0 167 -60.5t70 -162.5q0 -105 -71 -166.5t-166 -61.5h-191zM215 340v-228l34 2q32 2 55.5 30t23.5 82q0 53 -23.5 82.5t-58.5 30.5z" />
    <glyph glyph-name="afii10047" unicode="&#x42d;" horiz-adv-x="540" 
d="M185 499h-165q14 104 78 167t147 63q85 0 146 -57.5t87.5 -141t26.5 -179.5q0 -66 -15 -128.5t-44.5 -117.5t-81.5 -88.5t-119 -33.5q-85 0 -149.5 64.5t-80.5 170.5h167q0 -51 16 -88t47 -37q43 0 67 61t29 160h-155v114h153q-8 88 -32 139.5t-62 51.5
q-29 0 -44.5 -34.5t-15.5 -85.5z" />
    <glyph glyph-name="afii10048" unicode="&#x42e;" horiz-adv-x="815" 
d="M60 0v723h153l-1 -290h68q14 142 81 223.5t167 81.5q113 0 182.5 -103.5t69.5 -277.5q0 -101 -27.5 -183.5t-86.5 -135.5t-139 -53q-110 0 -175 92.5t-74 238.5h-66l1 -316h-153zM435 360q0 -266 93 -266q92 0 92 265q0 274 -92 274q-93 0 -93 -273z" />
    <glyph glyph-name="afii10049" unicode="&#x42f;" horiz-adv-x="544" 
d="M484 723v-723h-156l1 295h-8l-139 -295h-172l173 328q-131 63 -131 187q0 92 69 150t158 58h205zM329 393v218l-34 -1q-32 -1 -57 -32t-25 -74q0 -46 23.5 -77.5t58.5 -32.5z" />
    <glyph glyph-name="afii10065" unicode="&#x430;" horiz-adv-x="433" 
d="M251 141v84q-28 12 -46 10q-21 -2 -32 -24t-11 -54q0 -75 36 -75q25 0 53 59zM383 339v-220q0 -69 9 -119h-136q3 36 3 65h-6q-47 -77 -109 -77q-52 0 -81.5 45t-29.5 117q0 70 39 111t100 43q39 1 79 -16q-1 10 -1 16v36q0 49 -7.5 72.5t-28.5 23.5q-36 0 -29 -82h-148
q12 71 59 116.5t121 45.5q76 0 121 -41.5t45 -135.5z" />
    <glyph glyph-name="afii10066" unicode="&#x431;" horiz-adv-x="471" 
d="M116 331h6q6 27 16.5 52.5t28 50.5t45 40.5t61.5 15.5q75 0 122 -70.5t47 -173.5q0 -108 -53 -184.5t-141 -76.5q-56 0 -100.5 35t-69.5 91t-37.5 119.5t-10.5 126.5q2 90 25 167t69.5 128t108.5 51q30 0 67 -19.5t47 -19.5q19 0 19 34h59q8 -77 -12.5 -121.5
t-53.5 -44.5q-23 0 -65 25.5t-64 25.5q-40 0 -67.5 -37t-38.5 -93t-8 -122zM299 237q0 162 -51 162q-25 0 -40 -43.5t-15 -116.5q0 -164 52 -164q54 0 54 162z" />
    <glyph glyph-name="afii10067" unicode="&#x432;" horiz-adv-x="439" 
d="M53 0v506h181q70 0 117 -36t47 -92q0 -74 -85 -110v-6q42 -14 69 -47t27 -74q0 -63 -51.5 -102t-127.5 -39h-177zM191 223v-145l25 2q22 2 36 21.5t14 46.5q0 28 -14.5 49.5t-36.5 23.5zM191 297l22 2q22 2 35 21.5t13 46.5t-13.5 44.5t-31.5 18.5l-25 1v-134z" />
    <glyph glyph-name="afii10068" unicode="&#x433;" horiz-adv-x="343" 
d="M333 506v-105l-133 4v-405h-147v506h280z" />
    <glyph glyph-name="afii10069" unicode="&#x434;" horiz-adv-x="495" 
d="M482 110l-5 -222h-112v113h-238v-113h-112l-5 222h13q71 -8 81 130l20 266h297v-396h61zM295 105l1 309h-54l-13 -194q-6 -80 -42 -115h108z" />
    <glyph glyph-name="afii10070" unicode="&#x435;" horiz-adv-x="445" 
d="M414 222h-242q6 -150 58 -150q19 0 29 21t9 56h140q-12 -70 -61.5 -118.5t-120.5 -48.5q-86 0 -141 76t-55 199q0 109 56 186t142 77q92 0 140.5 -75.5t48.5 -174.5q0 -21 -3 -48zM174 311h101q1 46 -11.5 80t-37.5 34q-26 0 -38.5 -33t-13.5 -81z" />
    <glyph glyph-name="afii10072" unicode="&#x436;" horiz-adv-x="603" 
d="M234 0l4 234h-6l-81 -234h-146l118 257l-101 250h142l68 -229h6l-4 228h136l-4 -228h6l68 229h142l-101 -250l117 -257h-146l-81 234h-6l4 -234h-135z" />
    <glyph glyph-name="afii10073" unicode="&#x437;" horiz-adv-x="413" 
d="M192 211q-22 2 -50 2v87q24 0 48 4q45 7 45 68t-32 61t-34 -71h-144q17 77 67 116.5t120 39.5q68 0 114.5 -38t46.5 -97q0 -77 -75 -115v-7q85 -33 85 -125q0 -67 -48.5 -109.5t-128.5 -42.5q-71 0 -123 44t-63 124h146q-2 -78 37 -78q21 0 31 19.5t10 47.5
q0 29 -14.5 48.5t-37.5 21.5z" />
    <glyph glyph-name="afii10074" unicode="&#x438;" horiz-adv-x="486" 
d="M53 0v506h120l-2 -319h6l96 319h160v-506h-121l2 326h-6l-98 -326h-157z" />
    <glyph glyph-name="afii10075" unicode="&#x439;" horiz-adv-x="486" 
d="M53 0v506h120l-2 -319h6l96 319h160v-506h-121l2 326h-6l-98 -326h-157zM247 645q58 0 62 78h73q2 -78 -32.5 -122.5t-102.5 -44.5q-67 0 -101.5 44.5t-32.5 122.5h73q4 -78 61 -78z" />
    <glyph glyph-name="afii10076" unicode="&#x43a;" horiz-adv-x="435" 
d="M53 0v506h140v-222h6l78 222h143l-99 -243l109 -263h-148l-84 229h-6v-229h-139z" />
    <glyph glyph-name="afii10077" unicode="&#x43b;" horiz-adv-x="487" 
d="M10 3v95q38 -4 52 29.5t16 100.5l5 278h351v-506h-130l1 410h-86l-5 -202q-6 -214 -143 -214q-25 0 -61 9z" />
    <glyph glyph-name="afii10078" unicode="&#x43c;" horiz-adv-x="613" 
d="M573 0h-117l-23 315h-6l-66 -329h-106l-65 329h-6l-22 -315h-122l50 506h165l50 -316h6l50 316h162z" />
    <glyph glyph-name="afii10079" unicode="&#x43d;" horiz-adv-x="463" 
d="M278 0v217h-88v-217h-137v506h137v-190h88v190h132v-506h-132z" />
    <glyph glyph-name="afii10080" unicode="&#x43e;" horiz-adv-x="453" 
d="M30 253q0 102 53.5 183t144.5 81q63 0 109 -42.5t66 -100.5t20 -120q0 -111 -52 -191t-143 -80q-90 0 -144 77t-54 193zM175 253q0 -178 53 -178q28 0 39.5 45t11.5 134q0 172 -51 172q-53 0 -53 -173z" />
    <glyph glyph-name="afii10081" unicode="&#x43f;" horiz-adv-x="463" 
d="M279 0v408h-89v-408h-137v506h357v-506h-131z" />
    <glyph glyph-name="afii10082" unicode="&#x440;" horiz-adv-x="448" 
d="M183 439h6q40 73 94 73q60 0 97.5 -73.5t37.5 -190.5q0 -110 -36 -180.5t-98 -70.5q-58 0 -94 67h-6q2 -34 2 -64v-183h-130v595l-3 94h126zM280 249q0 165 -44 165q-14 0 -23.5 -10t-14.5 -30t-6.5 -33.5t-3.5 -35.5v-109q7 -105 46 -105q27 0 36.5 38t9.5 120z" />
    <glyph glyph-name="afii10083" unicode="&#x441;" horiz-adv-x="430" 
d="M406 326h-147q10 93 -29 93q-53 0 -51 -169q2 -164 52 -164q21 0 29 27.5t4 66.5h146q-14 -88 -61 -140t-118 -52q-87 0 -144 72t-57 188q0 123 57.5 195t142.5 72q67 0 117 -51.5t59 -137.5z" />
    <glyph glyph-name="afii10084" unicode="&#x442;" horiz-adv-x="393" 
d="M20 404v102h353v-102l-103 2v-406h-147v406z" />
    <glyph glyph-name="afii10085" unicode="&#x443;" horiz-adv-x="435" 
d="M288 506h132l-128 -553q-29 -130 -167 -130q-46 0 -82 9v105q20 -5 53 -5q35 0 54.5 20t19.5 52q0 20 -12.5 31.5t-32.5 10.5l-115 460h144l64 -348h5z" />
    <glyph glyph-name="afii10086" unicode="&#x444;" horiz-adv-x="640" 
d="M389 0v-173h-138v173l1 53h-6q-36 -59 -87 -59q-54 0 -91.5 71t-37.5 186q0 117 37.5 188.5t94.5 71.5q53 0 88 -64h6q-1 29 -1 59v115h122l8 -115l-1 -59h6q35 64 88 64q57 0 94.5 -71.5t37.5 -188.5q0 -115 -37.5 -186t-91.5 -71q-51 0 -87 59h-6q1 -25 1 -53zM163 251
q0 -160 42 -160q34 0 47 89v150q-12 86 -46 86q-43 0 -43 -165zM477 251q0 165 -43 165q-34 0 -46 -86v-150q13 -89 47 -89q42 0 42 160z" />
    <glyph glyph-name="afii10087" unicode="&#x445;" horiz-adv-x="445" 
d="M305 258l125 -258h-150l-55 161h-6l-57 -161h-147l111 259l-104 247h156l43 -149h6l48 149h141z" />
    <glyph glyph-name="afii10088" unicode="&#x446;" horiz-adv-x="488" 
d="M275 91v415h129v-396h74l-5 -222h-118v112h-302v506h137v-415h85z" />
    <glyph glyph-name="afii10089" unicode="&#x447;" horiz-adv-x="438" 
d="M383 0h-134v153l3 77h-6q-46 -83 -114 -83q-102 0 -102 172v187h137v-187q0 -68 27 -68q19 0 33.5 32t21.5 84v139h134v-506z" />
    <glyph glyph-name="afii10090" unicode="&#x448;" horiz-adv-x="645" 
d="M385 506v-413h75l-1 413h131v-506h-535v506h132l-1 -413h75v413h124z" />
    <glyph glyph-name="afii10091" unicode="&#x449;" horiz-adv-x="659" 
d="M376 506v-413h70l-1 413h130v-396h73l-5 -222h-118v112h-470v506h132l-1 -413h70v413h120z" />
    <glyph glyph-name="afii10092" unicode="&#x44a;" horiz-adv-x="462" 
d="M5 506h219v-189h55q68 0 115.5 -44.5t47.5 -111.5q0 -68 -50.5 -114.5t-123.5 -46.5h-180v405l-83 -3v104zM223 80l22 1q26 1 41.5 22.5t15.5 56.5q0 34 -16 55.5t-39 22.5l-24 1v-159z" />
    <glyph glyph-name="afii10093" unicode="&#x44b;" horiz-adv-x="630" 
d="M189 317h44q68 0 115 -44.5t47 -111.5q0 -68 -49 -114.5t-122 -46.5h-171v506h136v-189zM577 506v-506h-144v506h144zM187 81l19 1q24 1 38 22t14 56q0 34 -14.5 55t-35.5 22l-21 1v-157z" />
    <glyph glyph-name="afii10094" unicode="&#x44c;" horiz-adv-x="436" 
d="M193 317h56q70 0 118.5 -44t48.5 -112q0 -69 -51.5 -115t-126.5 -46h-185v506h140v-189zM192 81l24 1q27 1 42.5 22t15.5 56q0 34 -16 55t-40 22l-26 1v-157z" />
    <glyph glyph-name="afii10095" unicode="&#x44d;" horiz-adv-x="425" 
d="M159 337h-138q10 82 59.5 130t116.5 48q84 0 141 -72t57 -195q0 -116 -56.5 -188t-142.5 -72q-71 0 -117.5 49t-61.5 132h137q-4 -37 7.5 -61.5t34.5 -24.5q50 0 59 128h-98v88h98q-4 53 -19 88t-39 35q-22 0 -32 -24.5t-6 -60.5z" />
    <glyph glyph-name="afii10096" unicode="&#x44e;" horiz-adv-x="653" 
d="M53 506h144l-2 -204h50q12 89 61.5 152t127.5 63q61 0 105.5 -42.5t64 -100.5t19.5 -120q0 -112 -50 -191.5t-139 -79.5q-80 0 -130.5 63t-59.5 164h-49l2 -210h-144v506zM381 253q0 -179 52 -179q50 0 50 180q0 174 -50 174q-52 0 -52 -175z" />
    <glyph glyph-name="afii10097" unicode="&#x44f;" horiz-adv-x="450" 
d="M20 0l108 228q-40 18 -64.5 52.5t-24.5 76.5q0 64 51 106.5t121 42.5h186v-506h-139v200h-7l-78 -200h-153zM238 270l21 -1v160l-23 -1q-23 -1 -38 -24t-15 -55q0 -31 15.5 -54t39.5 -25z" />
    <glyph glyph-name="afii10071" unicode="&#x451;" horiz-adv-x="445" 
d="M414 222h-242q6 -150 58 -150q19 0 29 21t9 56h140q-12 -70 -61.5 -118.5t-120.5 -48.5q-86 0 -141 76t-55 199q0 109 56 186t142 77q92 0 140.5 -75.5t48.5 -174.5q0 -21 -3 -48zM174 311h101q1 46 -11.5 80t-37.5 34q-26 0 -38.5 -33t-13.5 -81zM207 637
q0 -29 -20.5 -50t-48.5 -21t-48 21t-20 50q0 30 19.5 50t48.5 20t49 -20t20 -50zM247 637q0 30 20 50t49 20t49 -20t20 -50q0 -29 -20.5 -50t-48.5 -21t-48.5 21t-20.5 50z" />
    <glyph glyph-name="afii10099" unicode="&#x452;" horiz-adv-x="474" 
d="M72 723h133v-72h92v-90h-92v-56l-3 -87h6q42 88 110 88q106 0 106 -178v-351q0 -150 -120 -150q-32 0 -65 9v99q25 -2 36.5 12.5t11.5 45.5v339q0 69 -26 69q-18 0 -33 -32t-22 -85v-284h-134v561h-62v90h62v72z" />
    <glyph glyph-name="afii10100" unicode="&#x453;" horiz-adv-x="338" 
d="M333 506v-105l-133 4v-405h-147v506h280zM300 751l56 -87l-192 -118l-48 68z" />
    <glyph glyph-name="afii10101" unicode="&#x454;" horiz-adv-x="425" 
d="M404 337h-138q4 36 -6 60.5t-32 24.5q-48 0 -59 -123h99v-88h-99q11 -128 60 -128q23 0 34.5 24.5t7.5 61.5h137q-15 -83 -61.5 -132t-117.5 -49q-86 0 -142.5 72t-56.5 188q0 123 57 195t141 72q67 0 116.5 -48t59.5 -130z" />
    <glyph glyph-name="afii10102" unicode="&#x455;" horiz-adv-x="395" 
d="M22 141h148q-2 -28 6.5 -48.5t26.5 -20.5q33 0 33 46q0 43 -61 69q-149 63 -149 172q0 70 49.5 114.5t119.5 44.5q65 0 115 -36t56 -112h-144q2 28 -5.5 46.5t-21.5 18.5q-13 0 -22 -13t-9 -36q0 -42 63 -67q150 -58 150 -173q0 -73 -53.5 -116.5t-121.5 -43.5
q-41 0 -78 13t-67.5 50t-34.5 92z" />
    <glyph glyph-name="afii10103" unicode="&#x456;" horiz-adv-x="254" 
d="M53 0v506h148v-506h-148zM48 647q0 34 22.5 54.5t55.5 20.5t56 -21t23 -54q0 -34 -23 -54t-56 -20t-55.5 20t-22.5 54z" />
    <glyph glyph-name="afii10104" unicode="&#x457;" horiz-adv-x="265" 
d="M58 0v506h148v-506h-148zM112 637q0 -29 -20.5 -50t-48.5 -21t-48 21t-20 50q0 30 19.5 50t48.5 20t49 -20t20 -50zM152 637q0 30 20 50t49 20t49 -20t20 -50q0 -29 -20.5 -50t-48.5 -21t-48.5 21t-20.5 50z" />
    <glyph glyph-name="afii10105" unicode="&#x458;" horiz-adv-x="254" 
d="M5 -164v99q25 -2 36.5 12.5t11.5 45.5v513h148v-529q0 -70 -31.5 -110t-96.5 -40q-35 0 -68 9zM48 647q0 34 22.5 54.5t55.5 20.5t56 -21t23 -54q0 -34 -23 -54t-56 -20t-55.5 20t-22.5 54z" />
    <glyph glyph-name="afii10106" unicode="&#x459;" horiz-adv-x="610" 
d="M10 3v95q38 -4 52.5 29.5t16.5 100.5l8 278h310v-189h34q66 0 112.5 -44.5t46.5 -111.5q0 -68 -48 -114.5t-118 -46.5h-157v412h-51l-7 -204q-7 -214 -139 -214q-24 0 -60 9zM395 81l16 1q20 2 34.5 23.5t14.5 54.5q0 32 -14.5 54t-32.5 23l-18 1v-157z" />
    <glyph glyph-name="afii10107" unicode="&#x45a;" horiz-adv-x="607" 
d="M53 0v506h139l-2 -198h71v198h133v-199h34q66 0 112.5 -42t46.5 -109q0 -68 -48 -112t-118 -44h-160v218h-71l2 -218h-139zM392 81l16 1q21 2 35 21t14 52q0 32 -14 51t-33 20l-18 1v-146z" />
    <glyph glyph-name="afii10108" unicode="&#x45b;" horiz-adv-x="474" 
d="M72 723h133v-72h92v-90h-92v-56l-3 -87h6q42 88 110 88q106 0 106 -178v-328h-137v332q0 69 -26 69q-18 0 -33 -32t-22 -85v-284h-134v561h-62v90h62v72z" />
    <glyph glyph-name="afii10109" unicode="&#x45c;" horiz-adv-x="435" 
d="M53 0v506h140v-222h6l78 222h143l-99 -243l109 -263h-148l-84 229h-6v-229h-139zM330 751l56 -87l-192 -118l-48 68z" />
    <glyph glyph-name="afii10110" unicode="&#x45e;" horiz-adv-x="435" 
d="M288 506h132l-128 -553q-29 -130 -167 -130q-46 0 -82 9v105q20 -5 53 -5q35 0 54.5 20t19.5 52q0 20 -12.5 31.5t-32.5 10.5l-115 460h144l64 -348h5zM217 645q58 0 62 78h73q2 -78 -32.5 -122.5t-102.5 -44.5q-67 0 -101.5 44.5t-32.5 122.5h73q4 -78 61 -78z" />
    <glyph glyph-name="afii10193" unicode="&#x45f;" horiz-adv-x="463" 
d="M279 93v413h131v-506h-114l-3 -122h-122l-2 122h-116v506h136v-413h90z" />
    <glyph glyph-name="afii10050" unicode="&#x490;" horiz-adv-x="430" 
d="M60 723h228v122h126l6 -249l-205 6v-602h-155v723z" />
    <glyph glyph-name="afii10098" unicode="&#x491;" horiz-adv-x="361" 
d="M346 622l5 -222l-156 5v-405h-142v506h180l-1 116h114z" />
    <glyph glyph-name="Wgrave" unicode="&#x1e80;" horiz-adv-x="715" 
d="M30 723h141l35 -477h8l81 479h139l78 -474h8l38 472h127l-87 -723h-160l-70 455h-8l-76 -455h-162zM197 852l48 89l192 -118l-41 -70z" />
    <glyph glyph-name="wgrave" unicode="&#x1e81;" horiz-adv-x="582" 
d="M448 506h119l-77 -506h-141l-51 344h-6l-56 -344h-141l-80 506h133l28 -333h6l52 335h129l48 -335h6zM142 664l56 87l184 -137l-48 -68z" />
    <glyph glyph-name="Wacute" unicode="&#x1e82;" horiz-adv-x="715" 
d="M30 723h141l35 -477h8l81 479h139l78 -474h8l38 472h127l-87 -723h-160l-70 455h-8l-76 -455h-162zM489 941l48 -89l-199 -99l-41 70z" />
    <glyph glyph-name="wacute" unicode="&#x1e83;" horiz-adv-x="582" 
d="M567 506h-119l-31 -333h-6l-48 335h-129l-52 -335h-6l-28 333h-133l80 -506h141l56 344h6l51 -344h141zM395 751l56 -87l-192 -118l-48 68z" />
    <glyph glyph-name="Wdieresis" unicode="&#x1e84;" horiz-adv-x="715" 
d="M30 723h141l35 -477h8l81 479h139l78 -474h8l38 472h127l-87 -723h-160l-70 455h-8l-76 -455h-162zM205 841q0 29 20 48.5t48 19.5q27 0 47 -19.5t20 -48.5q0 -28 -20 -47.5t-47 -19.5q-28 0 -48 19.5t-20 47.5zM386 841q0 29 20 48.5t47 19.5q28 0 48.5 -19.5
t20.5 -48.5q0 -28 -20.5 -47.5t-48.5 -19.5q-27 0 -47 19.5t-20 47.5z" />
    <glyph glyph-name="wdieresis" unicode="&#x1e85;" horiz-adv-x="582" 
d="M567 506h-119l-31 -333h-6l-48 335h-129l-52 -335h-6l-28 333h-133l80 -506h141l56 344h6l51 -344h141zM275 637q0 -29 -20.5 -50t-48.5 -21t-48 21t-20 50q0 30 19.5 50t48.5 20t49 -20t20 -50zM315 637q0 30 20 50t49 20t49 -20t20 -50q0 -29 -20.5 -50t-48.5 -21
t-48.5 21t-20.5 50z" />
    <glyph glyph-name="Ygrave" unicode="&#x1ef2;" horiz-adv-x="510" 
d="M502 723l-152 -440q-19 -2 -19 -22v-261h-155v261q0 20 -20 22l-146 440h164l86 -346h6l89 346h147zM95 852l48 89l192 -118l-41 -70z" />
    <glyph glyph-name="ygrave" unicode="&#x1ef3;" horiz-adv-x="435" 
d="M288 506h132l-128 -553q-29 -130 -167 -130q-46 0 -82 9v105q20 -5 53 -5q35 0 54.5 20t19.5 52q0 20 -12.5 31.5t-32.5 10.5l-115 460h144l64 -348h5zM56 664l56 87l184 -137l-48 -68z" />
    <glyph glyph-name="endash" unicode="&#x2013;" horiz-adv-x="455" 
d="M40 194v115h375v-115h-375z" />
    <glyph glyph-name="emdash" unicode="&#x2014;" horiz-adv-x="630" 
d="M0 194v115h630v-115h-630z" />
    <glyph glyph-name="quoteleft" unicode="&#x2018;" horiz-adv-x="245" 
d="M198 524q0 -34 -22 -56t-56 -22q-32 0 -55 22t-24 57q-2 28 7 54q28 82 76 144h81q-53 -48 -89 -107q-3 -5 -1 -9.5t9 -4.5q31 0 52.5 -23t21.5 -55z" />
    <glyph glyph-name="quoteright" unicode="&#x2019;" horiz-adv-x="245" 
d="M47 645q0 34 22 56t56 22q32 0 55 -22t24 -57q2 -28 -7 -54q-28 -82 -76 -144h-81q53 48 89 107q3 5 1 9.5t-9 4.5q-31 0 -52.5 23t-21.5 55z" />
    <glyph glyph-name="quotesinglbase" unicode="&#x201a;" horiz-adv-x="245" 
d="M47 92q0 34 22 56t56 22q32 0 55 -22t24 -57q2 -28 -7 -54q-28 -82 -76 -144h-81q53 48 89 107q3 5 1 9.5t-9 4.5q-31 0 -52.5 23t-21.5 55z" />
    <glyph glyph-name="quotedblleft" unicode="&#x201c;" horiz-adv-x="425" 
d="M378 524q0 -34 -22 -56t-56 -22q-32 0 -55 22t-24 57q-2 28 7 54q28 82 76 144h81q-53 -48 -89 -107q-3 -5 -1 -9.5t9 -4.5q31 0 52.5 -23t21.5 -55zM196 524q0 -33 -22 -55.5t-54 -22.5t-55 22t-24 57q-2 28 7 54q9 25 35 69t50 75h83q-71 -64 -97 -107q-3 -5 -1 -9.5
t9 -4.5q29 0 49 -22.5t20 -55.5z" />
    <glyph glyph-name="quotedblright" unicode="&#x201d;" horiz-adv-x="425" 
d="M47 645q0 34 22 56t56 22q32 0 55 -22t24 -57q2 -28 -7 -54q-28 -82 -76 -144h-81q53 48 89 107q3 5 1 9.5t-9 4.5q-31 0 -52.5 23t-21.5 55zM229 645q0 33 22 55.5t54 22.5t55 -22t24 -57q2 -28 -7 -54q-9 -25 -35 -69t-50 -75h-83q71 64 97 107q3 5 1 9.5t-9 4.5
q-29 0 -49 22.5t-20 55.5z" />
    <glyph glyph-name="quotedblbase" unicode="&#x201e;" horiz-adv-x="425" 
d="M47 92q0 34 22 56t56 22q32 0 55 -22t24 -57q2 -28 -7 -54q-28 -82 -76 -144h-81q53 48 89 107q3 5 1 9.5t-9 4.5q-31 0 -52.5 23t-21.5 55zM229 92q0 33 22 55.5t54 22.5t55 -22t24 -57q2 -28 -7 -54q-9 -25 -35 -69t-50 -75h-83q71 64 97 107q3 5 1 9.5t-9 4.5
q-29 0 -49 22.5t-20 55.5z" />
    <glyph glyph-name="dagger" unicode="&#x2020;" horiz-adv-x="447" 
d="M407 566v-101l-127 2v-467h-112v467l-128 -2v101l128 -2v159h112v-159z" />
    <glyph glyph-name="daggerdbl" unicode="&#x2021;" horiz-adv-x="447" 
d="M40 157v101l126 -2v211l-126 -2v101l126 -2v159h114v-159l126 2v-101l-126 2v-211l126 2v-101l-126 2v-159h-114v159z" />
    <glyph glyph-name="bullet" unicode="&#x2022;" horiz-adv-x="429" 
d="M215 547q76 0 130 -54.5t54 -130.5t-54 -130t-130 -54t-130.5 54t-54.5 130q0 77 54.5 131t130.5 54z" />
    <glyph glyph-name="ellipsis" unicode="&#x2026;" horiz-adv-x="717" 
d="M45 76q0 33 21 54.5t53 21.5t53.5 -21.5t21.5 -54.5t-21.5 -54.5t-53.5 -21.5t-53 21.5t-21 54.5zM284 76q0 33 21 54.5t53 21.5t53.5 -21.5t21.5 -54.5t-21.5 -54.5t-53.5 -21.5t-53 21.5t-21 54.5zM523 76q0 33 21 54.5t53 21.5t53.5 -21.5t21.5 -54.5t-21.5 -54.5
t-53.5 -21.5t-53 21.5t-21 54.5z" />
    <glyph glyph-name="perthousand" unicode="&#x2030;" horiz-adv-x="900" 
d="M170 -32h-80l348 755h79zM468 376q57 0 92 -55.5t35 -132.5q0 -81 -35 -134.5t-92 -53.5t-90.5 53.5t-33.5 134.5q0 77 34 132.5t90 55.5zM468 72q30 0 30 115q0 119 -30 119q-29 0 -29 -119q0 -115 29 -115zM753 376q57 0 92 -55.5t35 -132.5q0 -81 -35 -134.5
t-92 -53.5t-90.5 53.5t-33.5 134.5q0 77 34 132.5t90 55.5zM753 72q30 0 30 115q0 119 -30 119q-29 0 -29 -119q0 -115 29 -115zM144 698q57 0 92 -55.5t35 -132.5q0 -81 -35 -134.5t-92 -53.5t-90.5 53.5t-33.5 134.5q0 77 34 132.5t90 55.5zM144 394q30 0 30 115
q0 119 -30 119q-29 0 -29 -119q0 -115 29 -115z" />
    <glyph glyph-name="guilsinglleft" unicode="&#x2039;" horiz-adv-x="275" 
d="M245 44h-121l-94 209l94 202h121l-88 -202z" />
    <glyph glyph-name="guilsinglright" unicode="&#x203a;" horiz-adv-x="275" 
d="M151 44h-121l88 209l-88 202h121l94 -202z" />
    <glyph glyph-name="interrobang" unicode="&#x203d;" horiz-adv-x="437" 
d="M139 79q0 35 22 57.5t56 22.5t56.5 -23t22.5 -57t-22.5 -56.5t-56.5 -22.5t-56 22.5t-22 56.5zM133 538h-116q8 96 67 144t140 48q75 0 128 -47.5t53 -124.5q0 -16 -3 -31.5t-6.5 -27.5t-12.5 -28t-13.5 -25t-17.5 -25.5t-18 -22.5t-20.5 -24t-19.5 -22q-32 -40 -32 -88
q0 -24 5 -41h-93l-10 412q-42 -25 -31 -97zM297 551q0 64 -35 84l-11 -208h4q42 74 42 124z" />
    <glyph glyph-name="asterism" unicode="&#x2042;" horiz-adv-x="717" 
d="M306 552l-102 38l42 75l82 -71l4 2l-14 102h80l-14 -102l4 -2l82 71l42 -75l-102 -38v-6l102 -37l-42 -75l-82 71l-4 -2l14 -102h-80l14 102l-4 2l-82 -71l-42 75l102 37v6zM494 151l-102 38l42 75l82 -71l4 2l-14 102h80l-14 -102l4 -2l82 71l42 -75l-102 -38v-6
l102 -37l-42 -75l-82 71l-4 -2l14 -102h-80l14 102l-4 2l-82 -71l-42 75l102 37v6zM324 189l-102 -38v-6l102 -37l-42 -75l-82 71l-4 -2l14 -102h-80l14 102l-4 2l-82 -71l-42 75l102 37v6l-102 38l42 75l82 -71l4 2l-14 102h80l-14 -102l4 -2l82 71z" />
    <glyph glyph-name="fraction" unicode="&#x2044;" horiz-adv-x="125" 
d="M-140 -26l323 749h82l-322 -749h-83z" />
    <glyph glyph-name="zero.sups" unicode="&#x2070;" 
d="M30 665q0 46 12.5 93.5t45.5 87.5t81 40q65 0 101 -67t36 -144q0 -86 -35.5 -154t-103.5 -68q-65 0 -101 65.5t-36 146.5zM134 668q0 -149 33 -149q22 0 28.5 40t6.5 110q0 153 -33 153q-35 0 -35 -154z" />
    <glyph glyph-name="four.sups" unicode="&#x2074;" 
d="M161 461v96h-133v88q72 110 129 234h106v-253h43v-69h-43v-96h-102zM89 624h77v164h-4q-15 -39 -33.5 -78.5t-28.5 -59.5l-11 -21v-5z" />
    <glyph glyph-name="five.sups" unicode="&#x2075;" 
d="M46 581h106q-3 -66 22 -66q27 0 27 85q0 91 -23 91q-18 0 -27 -49h-99l3 236h235v-68h-157l-6 -99h4q7 17 27 31t46 14q46 0 74.5 -39.5t28.5 -110.5q0 -70 -37 -113t-96 -43q-54 0 -90.5 36.5t-37.5 94.5z" />
    <glyph glyph-name="six.sups" unicode="&#x2076;" 
d="M295 771h-104q17 56 -6 56q-19 0 -35 -37t-16 -103h4q24 46 72 46q38 0 66 -35.5t28 -98.5q0 -60 -36.5 -103t-89.5 -43q-66 0 -103 58.5t-37 145.5q0 92 40 161t116 69q50 0 76.5 -34t24.5 -82zM176 512q28 0 28 73q0 84 -30 84q-28 0 -28 -70q0 -87 30 -87z" />
    <glyph glyph-name="seven.sups" unicode="&#x2077;" 
d="M35 803v75h262v-72q-32 -80 -60.5 -166.5t-40.5 -133.5l-13 -46h-116q75 196 145 338v5h-177z" />
    <glyph glyph-name="eight.sups" unicode="&#x2078;" 
d="M195 770q0 59 -26 59t-26 -59q0 -64 26 -64t26 64zM139 577q0 -67 30 -67q29 0 29 67q0 69 -29 69q-30 0 -30 -69zM295 777q0 -67 -69 -99v-3q77 -33 77 -104q0 -48 -39.5 -83t-94.5 -35t-95.5 33t-40.5 85q0 70 76 104v3q-67 32 -67 99q0 42 37.5 75.5t89.5 33.5
t89 -30.5t37 -78.5z" />
    <glyph glyph-name="nine.sups" unicode="&#x2079;" 
d="M40 569h104q-17 -56 6 -56q19 0 35 37t16 103h-4q-9 -19 -28 -33t-44 -14q-38 0 -66 36t-28 99q0 60 36.5 103t89.5 43q66 0 103 -58.5t37 -145.5q0 -92 -40 -161t-116 -69q-50 0 -76.5 34t-24.5 82zM159 828q-28 0 -28 -73q0 -85 30 -85q28 0 28 70q0 88 -30 88z" />
    <glyph glyph-name="zero.sinf" unicode="&#x2080;" 
d="M30 22q0 46 12.5 93.5t45.5 87.5t81 40q65 0 101 -67t36 -144q0 -86 -35.5 -154t-103.5 -68q-65 0 -101 65.5t-36 146.5zM134 25q0 -149 33 -149q22 0 28.5 40t6.5 110q0 153 -33 153q-35 0 -35 -154z" />
    <glyph glyph-name="one.sinf" unicode="&#x2081;" 
d="M159 -183v313h-4q-31 -70 -95 -172v146q68 81 96 131h103v-418h-100z" />
    <glyph glyph-name="two.sinf" unicode="&#x2082;" 
d="M290 -183h-247l-3 45q2 35 17.5 66t30.5 47t40 39q19 16 40 42q25 32 25 67q0 56 -27 56q-32 0 -17 -79h-109q-4 60 33.5 101t96.5 41q55 0 90.5 -34t35.5 -88q0 -30 -13.5 -57.5t-27 -41t-36.5 -33.5l-51 -41q-33 -27 -40 -42q-4 -9 -3 -19l165 2v-71z" />
    <glyph glyph-name="three.sinf" unicode="&#x2083;" 
d="M27 -62h110q-7 -63 23 -63q26 0 26 52q0 31 -15 49t-38 20l-25 3v62l25 3q49 6 49 66q0 50 -23 50q-12 0 -17.5 -16t-1.5 -41h-108q5 60 44 90t89 30q51 0 86 -30.5t35 -77.5q0 -68 -74 -99v-5q34 -9 57.5 -37t23.5 -65q0 -53 -39 -86.5t-95 -33.5q-53 0 -92.5 35.5
t-39.5 93.5z" />
    <glyph glyph-name="four.sinf" unicode="&#x2084;" 
d="M161 -183v96h-133v88q72 110 129 234h106v-253h43v-69h-43v-96h-102zM89 -20h77v164h-4q-15 -39 -33.5 -78.5t-28.5 -59.5l-11 -21v-5z" />
    <glyph glyph-name="five.sinf" unicode="&#x2085;" 
d="M46 -60h106q-3 -66 22 -66q27 0 27 85q0 91 -23 91q-18 0 -27 -49h-99l3 236h235v-68h-157l-6 -99h4q7 17 27 31t46 14q46 0 74.5 -39.5t28.5 -110.5q0 -70 -37 -113t-96 -43q-54 0 -90.5 36.5t-37.5 94.5z" />
    <glyph glyph-name="six.sinf" unicode="&#x2086;" 
d="M295 128h-104q17 56 -6 56q-19 0 -35 -37t-16 -103h4q24 46 72 46q38 0 66 -36t28 -98q0 -60 -36.5 -103t-89.5 -43q-66 0 -103 58.5t-37 145.5q0 92 40 161t116 69q50 0 76.5 -34t24.5 -82zM176 -131q28 0 28 73q0 84 -30 84q-28 0 -28 -70q0 -87 30 -87z" />
    <glyph glyph-name="seven.sinf" unicode="&#x2087;" 
d="M35 160v75h262v-72q-32 -80 -60.5 -166.5t-40.5 -132.5l-13 -47h-116q75 196 145 338v5h-177z" />
    <glyph glyph-name="eight.sinf" unicode="&#x2088;" 
d="M195 127q0 59 -26 59t-26 -59q0 -64 26 -64t26 64zM139 -66q0 -67 30 -67q29 0 29 67q0 69 -29 69q-30 0 -30 -69zM295 134q0 -67 -69 -99v-3q77 -33 77 -104q0 -48 -39.5 -83t-94.5 -35t-95.5 33t-40.5 85q0 70 76 104v3q-67 32 -67 99q0 42 37.5 75.5t89.5 33.5
t89 -30.5t37 -78.5z" />
    <glyph glyph-name="nine.sinf" unicode="&#x2089;" 
d="M40 -74h104q-17 -56 6 -56q19 0 35 37t16 103h-4q-9 -19 -28 -33t-44 -14q-38 0 -66 36t-28 99q0 60 36.5 103t89.5 43q66 0 103 -58.5t37 -145.5q0 -92 -40 -161t-116 -69q-50 0 -76.5 34t-24.5 82zM159 185q-28 0 -28 -73q0 -85 30 -85q28 0 28 70q0 88 -30 88z" />
    <glyph glyph-name="Euro" unicode="&#x20ac;" horiz-adv-x="500" 
d="M251 465h77v-85h-80q-2 -32 0 -65h62v-85h-58q7 -94 17 -116q10 -19 27 -19q33 0 33 98h146q-8 -94 -57.5 -149t-118.5 -55q-81 0 -132.5 69t-64.5 172h-52v85h46q-2 33 0 65h-46v85h52q14 103 67 172t134 69q66 0 114 -53t57 -147h-146q2 48 -3.5 72.5t-25.5 24.5
q-22 0 -31.5 -34.5t-16.5 -103.5z" />
    <glyph glyph-name="afii61352" unicode="&#x2116;" horiz-adv-x="793" 
d="M60 0v723h172l84 -491h6l-1 491h107v-723h-166l-86 497h-6l1 -497h-111zM763 359q0 83 -41.5 146t-106.5 63q-66 0 -107.5 -64.5t-41.5 -144.5q0 -92 40.5 -154t108.5 -62q64 0 106 62.5t42 153.5zM650 358q0 -138 -36 -138q-37 0 -37 140q0 133 37 133q36 0 36 -135z
M740 0h-249v106q69 -6 124 -6l125 6v-106z" />
    <glyph glyph-name="trademark" unicode="&#x2122;" horiz-adv-x="635" 
d="M364 723l47 -240h4l48 240h92l25 -361h-69l-13 236h-5l-51 -245h-58l-51 243h-5l-12 -234h-70l26 361h92zM165 362h-78v296h-67v65h212v-65h-67v-296z" />
    <glyph glyph-name="uni2126" unicode="&#x2126;" horiz-adv-x="605" 
d="M303 723q117 0 191 -82t74 -203q0 -85 -41 -156.5t-116 -110.5v-58l129 3v-116h-218v257q111 38 111 175q0 75 -35.5 122.5t-95.5 47.5t-95.5 -47.5t-35.5 -122.5q0 -137 111 -175v-257h-218v116l129 -3v58q-75 39 -116 110t-41 157q0 121 75.5 203t191.5 82z" />
    <glyph glyph-name="arrowleft" unicode="&#x2190;" horiz-adv-x="700" 
d="M327 -1l-307 264l310 264l61 -77l-175 -133v-4h464v-99h-464v-4l173 -134z" />
    <glyph glyph-name="arrowup" unicode="&#x2191;" horiz-adv-x="600" 
d="M300 723l264 -307l-77 -62l-134 173h-4v-527h-99v527h-4l-133 -175l-77 61z" />
    <glyph glyph-name="arrowright" unicode="&#x2192;" horiz-adv-x="700" 
d="M680 263l-307 -264l-62 77l173 134v4h-464v99h464v4l-175 133l61 77z" />
    <glyph glyph-name="arrowdown" unicode="&#x2193;" horiz-adv-x="600" 
d="M564 307l-264 -307l-264 310l77 61l133 -175h4v527h99v-527h4l134 173z" />
    <glyph glyph-name="partialdiff" unicode="&#x2202;" horiz-adv-x="535" 
d="M475 362q0 -65 -13 -127.5t-39 -119t-73.5 -91.5t-108.5 -35q-87 0 -140 72t-53 168q0 100 50 168t131 68q71 0 116 -68h6q2 34 -1.5 68.5t-14.5 72t-36.5 61t-63.5 23.5q-57 0 -103 -65l-73 99q84 67 184 67q55 0 96.5 -22t67 -56.5t41 -83.5t21.5 -96.5t6 -102.5z
M330 286q-35 81 -78 81q-65 0 -65 -141q0 -139 60 -139q78 0 83 199z" />
    <glyph glyph-name="uni2206" unicode="&#x2206;" horiz-adv-x="605" 
d="M576 0h-547l192 698h160zM408 117l-103 414h-6l-100 -414h209z" />
    <glyph glyph-name="product" unicode="&#x220f;" horiz-adv-x="605" 
d="M535 -183h-146v795h-173v-795h-146v906h465v-906z" />
    <glyph glyph-name="summation" unicode="&#x2211;" horiz-adv-x="605" 
d="M560 -183h-510v114l255 362l-244 315v115h493v-123l-304 1v-6l227 -301l-245 -349v-6l328 1v-123z" />
    <glyph glyph-name="minus" unicode="&#x2212;" horiz-adv-x="540" 
d="M70 369h400v-125h-400v125z" />
    <glyph glyph-name="radical" unicode="&#x221a;" horiz-adv-x="535" 
d="M520 723l-168 -906h-133l-112 289l-49 -22l-48 108l164 77l94 -283h6l122 737h124z" />
    <glyph glyph-name="infinity" unicode="&#x221e;" horiz-adv-x="640" 
d="M320 351q39 45 72.5 66t78.5 21q60 0 99.5 -47.5t39.5 -125.5q0 -73 -40 -121.5t-100 -48.5q-46 0 -79 20t-71 64q-37 -44 -69 -64t-81 -20q-60 0 -100 48.5t-40 121.5q0 78 39.5 125.5t99.5 47.5q48 0 81 -20.5t70 -66.5zM268 265q-7 8 -22 27t-23 28t-21.5 17.5
t-26.5 8.5q-29 0 -46 -22.5t-17 -57.5t17.5 -57t46.5 -22q11 0 20.5 3.5t20.5 14.5t16 16.5t18.5 22.5t16.5 21zM372 265q3 -4 16.5 -21t18.5 -22.5t16 -16.5t20.5 -14.5t20.5 -3.5q29 0 46.5 22t17.5 57t-17 57.5t-46 22.5q-13 0 -26.5 -8.5t-21.5 -17.5t-23 -28t-22 -27z
" />
    <glyph glyph-name="integral" unicode="&#x222b;" horiz-adv-x="505" 
d="M156 -73q43 0 41 45q-17 411 -20 558q-1 85 43 130.5t125 45.5q39 0 89 -13v-112q-44 7 -77 7q-44 0 -42 -46l22 -560q4 -85 -40 -128.5t-130 -43.5q-45 0 -96 13v111q73 -7 85 -7z" />
    <glyph glyph-name="therefore" unicode="&#x2234;" horiz-adv-x="717" 
d="M45 76q0 33 21 54.5t53 21.5t53.5 -21.5t21.5 -54.5t-21.5 -54.5t-53.5 -21.5t-53 21.5t-21 54.5zM284 622q0 33 21 54.5t53 21.5t53.5 -21.5t21.5 -54.5t-21.5 -54.5t-53.5 -21.5t-53 21.5t-21 54.5zM523 76q0 33 21 54.5t53 21.5t53.5 -21.5t21.5 -54.5t-21.5 -54.5
t-53.5 -21.5t-53 21.5t-21 54.5z" />
    <glyph glyph-name="because" unicode="&#x2235;" horiz-adv-x="717" 
d="M45 622q0 33 21 54.5t53 21.5t53.5 -21.5t21.5 -54.5t-21.5 -54.5t-53.5 -21.5t-53 21.5t-21 54.5zM284 76q0 33 21 54.5t53 21.5t53.5 -21.5t21.5 -54.5t-21.5 -54.5t-53.5 -21.5t-53 21.5t-21 54.5zM523 622q0 33 21 54.5t53 21.5t53.5 -21.5t21.5 -54.5t-21.5 -54.5
t-53.5 -21.5t-53 21.5t-21 54.5z" />
    <glyph glyph-name="approxequal" unicode="&#x2248;" horiz-adv-x="540" 
d="M143 334h-86q5 72 37 126t89 54q34 0 100 -36q61 -32 77 -32q34 0 38 60h85q-5 -73 -37 -127.5t-89 -54.5q-43 0 -105 37q-52 31 -72 31q-32 0 -37 -58zM143 98h-86q5 72 37 126t89 54q34 0 100 -36q61 -32 77 -32q34 0 38 60h85q-5 -73 -37 -127.5t-89 -54.5
q-43 0 -105 37q-52 31 -72 31q-32 0 -37 -58z" />
    <glyph glyph-name="notequal" unicode="&#x2260;" horiz-adv-x="540" 
d="M70 363v124h221l57 142h101l-57 -142h78v-124h-127l-45 -113h172v-124h-222l-56 -142h-101l56 142h-77v124h127l45 113h-172z" />
    <glyph glyph-name="lessequal" unicode="&#x2264;" horiz-adv-x="540" 
d="M470 167l-400 155v139l400 170v-125l-284 -111v-6l284 -95v-127zM70 125h400v-125h-400v125z" />
    <glyph glyph-name="greaterequal" unicode="&#x2265;" horiz-adv-x="540" 
d="M470 322l-400 -155v127l284 95v6l-284 111v125l400 -170v-139zM70 125h400v-125h-400v125z" />
    <glyph glyph-name="lozenge" unicode="&#x25ca;" horiz-adv-x="535" 
d="M490 358l-164 -358h-117l-163 358l163 365h117zM264 569l-82 -211l82 -210h6l83 210l-83 211h-6z" />
    <glyph glyph-name="commaaccent" unicode="&#xf6c3;" horiz-adv-x="240" 
d="M142 -255h-60q30 35 43 59q3 4 1 8.5t-8 4.5q-27 0 -45 19t-18 47q0 29 19.5 48t47.5 19q29 0 48 -18.5t20 -48.5q1 -23 -6 -48t-16 -42.5t-26 -47.5z" />
    <glyph glyph-name="interfinity" horiz-adv-x="437" 
d="M217 732q73 0 125 -42.5t52 -111.5q0 -81 -100 -159q54 -52 54 -111q0 -45 -37 -78t-96 -33q-58 0 -91 33t-33 76q0 53 50 103q-99 80 -99 169q0 69 51 111.5t124 42.5zM140 79q0 35 22 57.5t56 22.5t56.5 -23t22.5 -57t-22.5 -56.5t-56.5 -22.5t-56 22.5t-22 56.5z
M223 633q-19 0 -30 -16.5t-11 -43.5q0 -42 41 -87q41 45 41 87q0 27 -11.5 43.5t-29.5 16.5zM240 304q0 26 -30 53q-25 -24 -25 -53q0 -39 27 -39q28 0 28 39z" />
    <glyph glyph-name="at.case" horiz-adv-x="580" 
d="M326 713q72 0 116.5 -38.5t44.5 -124.5v-248l5 -97h-111l3 63h-6q-45 -71 -101 -71q-49 0 -75 42t-26 112q0 69 34.5 108t97.5 39q28 0 70 -17v73q1 44 -12.5 65t-45.5 21q-89 0 -147.5 -81.5t-58.5 -211.5q0 -131 56 -208t155 -77q115 0 189 115l51 -61
q-52 -63 -108.5 -94.5t-130.5 -31.5q-127 0 -206.5 95t-79.5 261q0 165 84 266t202 101zM373 335v75q-26 14 -44 14q-36 0 -36 -67q0 -71 31 -71q23 0 49 49z" />
    <glyph glyph-name="zero.numr" 
d="M30 485q0 46 12.5 93.5t45.5 87.5t81 40q65 0 101 -67t36 -144q0 -86 -35.5 -154t-103.5 -68q-65 0 -101 65.5t-36 146.5zM134 488q0 -149 33 -149q22 0 28.5 40t6.5 110q0 153 -33 153q-35 0 -35 -154z" />
    <glyph glyph-name="one.numr" 
d="M159 281v313h-4q-31 -70 -95 -172v146q68 81 96 131h103v-418h-100z" />
    <glyph glyph-name="two.numr" 
d="M290 281h-247l-3 45q2 35 17.5 66t30.5 47t40 39q19 16 40 42q25 32 25 67q0 56 -27 56q-32 0 -17 -79h-109q-4 60 33.5 101t96.5 41q55 0 90.5 -34t35.5 -88q0 -30 -13.5 -57.5t-27 -41t-36.5 -33.5l-51 -41q-33 -27 -40 -42q-4 -9 -3 -19l165 2v-71z" />
    <glyph glyph-name="three.numr" 
d="M27 401h110q-7 -63 23 -63q26 0 26 52q0 31 -15 49t-38 20l-25 3v62l25 3q49 6 49 66q0 50 -23 50q-12 0 -17.5 -16t-1.5 -41h-108q5 60 44 90t89 30q51 0 86 -30.5t35 -77.5q0 -68 -74 -99v-5q34 -9 57.5 -37t23.5 -65q0 -53 -39 -86.5t-95 -33.5q-53 0 -92.5 35.5
t-39.5 93.5z" />
    <glyph glyph-name="four.numr" 
d="M161 281v96h-133v88q72 110 129 234h106v-253h43v-69h-43v-96h-102zM89 444h77v164h-4q-15 -39 -33.5 -78.5t-28.5 -59.5l-11 -21v-5z" />
    <glyph glyph-name="five.numr" 
d="M46 401h106q-3 -66 22 -66q27 0 27 85q0 91 -23 91q-18 0 -27 -49h-99l3 236h235v-68h-157l-6 -99h4q7 17 27 31t46 14q46 0 74.5 -39.5t28.5 -110.5q0 -70 -37 -113t-96 -43q-54 0 -90.5 36.5t-37.5 94.5z" />
    <glyph glyph-name="six.numr" 
d="M295 591h-104q17 56 -6 56q-19 0 -35 -37t-16 -103h4q24 46 72 46q38 0 66 -35.5t28 -98.5q0 -60 -36.5 -103t-89.5 -43q-66 0 -103 58.5t-37 145.5q0 92 40 161t116 69q50 0 76.5 -34t24.5 -82zM176 332q28 0 28 73q0 84 -30 84q-28 0 -28 -70q0 -87 30 -87z" />
    <glyph glyph-name="seven.numr" 
d="M35 623v75h262v-72q-32 -80 -60.5 -166.5t-40.5 -133.5l-13 -46h-116q75 196 145 338v5h-177z" />
    <glyph glyph-name="eight.numr" 
d="M195 590q0 59 -26 59t-26 -59q0 -64 26 -64t26 64zM139 397q0 -67 30 -67q29 0 29 67q0 69 -29 69q-30 0 -30 -69zM295 597q0 -67 -69 -99v-3q77 -33 77 -104q0 -48 -39.5 -83t-94.5 -35t-95.5 33t-40.5 85q0 70 76 104v3q-67 32 -67 99q0 42 37.5 75.5t89.5 33.5
t89 -30.5t37 -78.5z" />
    <glyph glyph-name="nine.numr" 
d="M40 389h104q-17 -56 6 -56q19 0 35 37t16 103h-4q-9 -19 -28 -33t-44 -14q-38 0 -66 36t-28 99q0 60 36.5 103t89.5 43q66 0 103 -58.5t37 -145.5q0 -92 -40 -161t-116 -69q-50 0 -76.5 34t-24.5 82zM159 648q-28 0 -28 -73q0 -85 30 -85q28 0 28 70q0 88 -30 88z" />
    <glyph glyph-name="zero.dnom" 
d="M30 204q0 46 12.5 93.5t45.5 87.5t81 40q65 0 101 -67t36 -144q0 -86 -35.5 -154t-103.5 -68q-65 0 -101 65.5t-36 146.5zM134 207q0 -149 33 -149q22 0 28.5 40t6.5 110q0 153 -33 153q-35 0 -35 -154z" />
    <glyph glyph-name="one.dnom" 
d="M159 0v313h-4q-31 -70 -95 -172v146q68 81 96 131h103v-418h-100z" />
    <glyph glyph-name="two.dnom" 
d="M290 0h-247l-3 45q2 35 17.5 66t30.5 47t40 39q23 20 40 42q25 28 25 67q0 56 -27 56q-32 0 -17 -79h-109q-4 60 33.5 101t96.5 41q55 0 90.5 -34t35.5 -88q0 -30 -13.5 -57.5t-27 -41t-36.5 -33.5l-51 -41q-33 -27 -40 -42q-4 -9 -3 -19l165 2v-71z" />
    <glyph glyph-name="three.dnom" 
d="M27 120h110q-7 -63 23 -63q26 0 26 52q0 31 -15 49t-38 20l-25 3v62l25 3q49 6 49 66q0 50 -23 50q-12 0 -17.5 -16t-1.5 -41h-108q5 60 44 90t89 30q51 0 86 -30.5t35 -77.5q0 -68 -74 -99v-5q34 -9 57.5 -37t23.5 -65q0 -53 -39 -86.5t-95 -33.5q-53 0 -92.5 35.5
t-39.5 93.5z" />
    <glyph glyph-name="four.dnom" 
d="M161 0v96h-133v88q72 110 129 234h106v-253h43v-69h-43v-96h-102zM89 163h77v164h-4q-15 -39 -33.5 -78.5t-28.5 -60.5l-11 -20v-5z" />
    <glyph glyph-name="five.dnom" 
d="M46 120h106q-3 -66 22 -66q27 0 27 85q0 91 -23 91q-18 0 -27 -49h-99l3 236h235v-68h-157l-6 -99h4q7 17 27 31t46 14q46 0 74.5 -39.5t28.5 -110.5q0 -70 -37 -113t-96 -43q-54 0 -90.5 36.5t-37.5 94.5z" />
    <glyph glyph-name="six.dnom" 
d="M295 310h-104q17 56 -6 56q-19 0 -35 -37t-16 -103h4q24 46 72 46q38 0 66 -36t28 -98q0 -60 -36.5 -103t-89.5 -43q-66 0 -103 58.5t-37 145.5q0 92 40 161t116 69q50 0 76.5 -34t24.5 -82zM176 51q28 0 28 73q0 84 -30 84q-28 0 -28 -70q0 -87 30 -87z" />
    <glyph glyph-name="seven.dnom" 
d="M35 342v75h262v-72q-32 -80 -60.5 -166.5t-40.5 -132.5l-13 -47h-116q75 196 145 338v5h-177z" />
    <glyph glyph-name="eight.dnom" 
d="M195 309q0 59 -26 59t-26 -59q0 -64 26 -64t26 64zM139 116q0 -67 30 -67q29 0 29 67q0 69 -29 69q-30 0 -30 -69zM295 316q0 -67 -69 -99v-3q77 -33 77 -104q0 -48 -39.5 -83t-94.5 -35t-95.5 33t-40.5 85q0 70 76 104v3q-67 32 -67 99q0 42 37.5 75.5t89.5 33.5
t89 -30.5t37 -78.5z" />
    <glyph glyph-name="nine.dnom" 
d="M40 108h104q-17 -56 6 -56q19 0 35 37t16 103h-4q-9 -19 -28 -33t-44 -14q-38 0 -66 36t-28 99q0 60 36.5 103t89.5 43q66 0 103 -58.5t37 -145.5q0 -92 -40 -161t-116 -69q-50 0 -76.5 34t-24.5 82zM159 367q-28 0 -28 -73q0 -85 30 -85q28 0 28 70q0 88 -30 88z" />
    <glyph glyph-name="caron.salt" horiz-adv-x="240" 
d="M140 525h-60q29 36 42 57q3 4 1 8t-8 4q-28 0 -45 19t-17 46t19 45.5t46 18.5q28 0 47.5 -18t20.5 -47q2 -32 -9.5 -61t-36.5 -72z" />
    <glyph glyph-name="caron.case" horiz-adv-x="410" 
d="M353 927l-147 -170l-149 170h103l43 -55h6l43 55h101z" />
    <glyph glyph-name="circumflex.case" horiz-adv-x="410" 
d="M206 940l147 -170h-101l-43 55h-6l-43 -55h-103z" />
    <glyph glyph-name="acute.case" horiz-adv-x="340" 
d="M242 941l48 -89l-199 -99l-41 70z" />
    <glyph glyph-name="grave.case" horiz-adv-x="340" 
d="M50 852l48 89l192 -118l-41 -70z" />
    <glyph glyph-name="macron.case" horiz-adv-x="390" 
d="M55 779v91h280v-91h-280z" />
    <glyph glyph-name="breve.case" horiz-adv-x="392" 
d="M196 845q62 0 66 68h67q3 -70 -31.5 -109.5t-101.5 -39.5q-68 0 -102 39t-31 110h67q4 -68 66 -68z" />
    <glyph glyph-name="ring.case" horiz-adv-x="275" 
d="M50 843q0 35 25.5 59.5t61.5 24.5t62 -24.5t26 -59.5q0 -36 -26 -61t-62 -25t-61.5 25t-25.5 61zM101 843q0 -16 10 -25.5t26 -9.5q17 0 27 9.5t10 25.5t-10 25.5t-27 9.5q-16 0 -26 -9.5t-10 -25.5z" />
    <glyph glyph-name="tilde.case" horiz-adv-x="422" 
d="M274 773q-24 0 -71 17q-40 15 -52 15q-26 0 -31 -40h-69q-1 69 27.5 100.5t69.5 31.5q24 0 71 -17q40 -15 52 -15q26 0 31 40h69q1 -69 -27.5 -100.5t-69.5 -31.5z" />
    <glyph glyph-name="dotaccent.case" horiz-adv-x="240" 
d="M44 841q0 33 22 53.5t54 20.5t54.5 -20.5t22.5 -53.5t-22.5 -53t-54.5 -20q-33 0 -54.5 19.5t-21.5 53.5z" />
    <glyph glyph-name="hungarumlaut.case" horiz-adv-x="495" 
d="M209 944l53 -75l-169 -116l-43 60zM392 944l53 -75l-170 -116l-43 60z" />
    <glyph glyph-name="dieresis.case" horiz-adv-x="413" 
d="M48 841q0 29 20 48.5t48 19.5q27 0 47 -19.5t20 -48.5q0 -28 -20 -47.5t-47 -19.5q-28 0 -48 19.5t-20 47.5zM229 841q0 29 20 48.5t47 19.5q28 0 48.5 -19.5t20.5 -48.5q0 -28 -20.5 -47.5t-48.5 -19.5q-27 0 -47 19.5t-20 47.5z" />
    <glyph glyph-name="afii10072.BUL" horiz-adv-x="603" 
d="M234 0l4 234h-6l-81 -234h-146l118 257l-101 250h142l68 -229h6l-4 228v217h136v-217l-4 -228h6l68 229h142l-101 -250l117 -257h-146l-81 234h-6l4 -234h-135z" />
    <glyph glyph-name="afii10096.BUL" horiz-adv-x="655" 
d="M53 723h125l19 -217l-2 -204h52q12 89 61.5 152t127.5 63q61 0 105.5 -42.5t64 -100.5t19.5 -120q0 -112 -50 -191.5t-139 -79.5q-80 0 -130.5 63t-59.5 164h-51l2 -210h-144v723zM383 253q0 -179 52 -179q50 0 50 180q0 174 -50 174q-52 0 -52 -175z" />
    <glyph glyph-name="afii10068.BUL" horiz-adv-x="401" 
d="M231 141h148q-4 -55 -34.5 -92t-67.5 -50t-78 -13q-68 0 -121.5 43.5t-53.5 116.5q0 115 150 173q63 25 63 67q0 23 -9 36t-22 13q-14 0 -21.5 -18.5t-5.5 -46.5h-144q6 76 56 112t115 36q70 0 119.5 -44.5t49.5 -114.5q0 -109 -149 -172q-61 -26 -61 -69q0 -46 33 -46
q18 0 26.5 20.5t6.5 48.5z" />
    <glyph glyph-name="afii10075.BUL" horiz-adv-x="455" 
d="M405 0h-124l-5 75h-6q-49 -85 -115 -85q-105 0 -105 180v336h137v-345q0 -37 5.5 -52.5t19.5 -15.5q19 0 33.5 32t21.5 84v297h135v-412zM94 594v94h266v-94h-266z" />
    <glyph glyph-name="afii10077.BUL" horiz-adv-x="454" 
d="M10 0l142 506h161l131 -506h-135l-72 339h-6l-74 -339h-147z" />
    <glyph glyph-name="afii10081.BUL" horiz-adv-x="457" 
d="M46 506h133l5 -80h6q42 89 111 89q106 0 106 -179v-336h-136v340q0 68 -26 68q-19 0 -33.5 -32t-21.5 -84v-292h-135v360q0 74 -9 146z" />
    <glyph glyph-name="afii10084.BUL" horiz-adv-x="640" 
d="M47 506h130l5 -77h6q41 86 104 86q62 0 83 -85h6q41 85 108 85q101 0 101 -168v-347h-133v349q0 66 -22 66q-16 0 -29 -29t-20 -80v-306h-127v349q0 36 -4.5 51t-17.5 15q-16 0 -29 -29t-20 -80v-306h-132v360q0 74 -9 146z" />
    <glyph glyph-name="afii10088.BUL" horiz-adv-x="476" 
d="M463 110l-5 -222h-117v112h-60l-5 75h-6q-49 -85 -115 -85q-105 0 -105 180v336h137v-345q0 -37 5.5 -52.5t19.5 -15.5q19 0 33.5 32t21.5 84v297h135v-396h61z" />
    <glyph glyph-name="afii10090.BUL" horiz-adv-x="637" 
d="M584 506v-412l3 -94h-124l-5 77h-6q-41 -86 -104 -86q-62 0 -83 85h-6q-41 -85 -108 -85q-101 0 -101 168v347h133v-349q0 -66 22 -66q16 0 29 29t20 80v306h127v-349q0 -36 4.5 -51t17.5 -15q16 0 29 29t20 80v306h132z" />
    <glyph glyph-name="afii10091.BUL" horiz-adv-x="655" 
d="M642 110l-5 -222h-117v112h-58l-5 77h-6q-41 -86 -104 -86q-62 0 -83 85h-6q-41 -85 -108 -85q-100 0 -100 168v347h132v-349q0 -66 22 -66q16 0 29 29t20 80v306h127v-349q0 -36 4.5 -51t17.5 -15q16 0 29 29t20 80v306h130v-396h61z" />
    <glyph glyph-name="afii10092.BUL" horiz-adv-x="465" 
d="M5 506h215v-182l-2 -60h6q15 24 42.5 40.5t58.5 16.5q54 0 87 -41t33 -108q0 -76 -53.5 -129t-127.5 -53q-79 0 -128.5 44.5t-49.5 134.5v236l-81 -3v104zM264 74q22 0 35 21.5t13 55.5q0 33 -11 55t-31 22q-34 0 -55 -71q-1 -35 12 -59t37 -24z" />
    <glyph glyph-name="afii10094.BUL" horiz-adv-x="436" 
d="M50 169v337h139v-182l-2 -60h6q15 24 43 40.5t61 16.5q54 0 86.5 -41.5t32.5 -108.5q0 -76 -54.5 -128.5t-128.5 -52.5q-80 0 -131.5 44.5t-51.5 134.5zM233 74q22 0 35 21.5t13 55.5q0 33 -11 55t-31 22q-34 0 -55 -71q-1 -35 12 -59t37 -24z" />
    <glyph glyph-name="afii10076.BUL" horiz-adv-x="435" 
d="M53 0v723h141v-217l-1 -222h6l78 222h143l-99 -243l109 -263h-148l-84 230h-6v-230h-139z" />
    <glyph glyph-name="afii10029.BUL" horiz-adv-x="500" 
d="M338 0l-85 514h-8l-84 -514h-151l145 723h183l152 -723h-152z" />
    <glyph glyph-name="afii10073.BUL" horiz-adv-x="381" 
d="M174 -166q-68 0 -115.5 43t-58.5 123h142q0 -76 29 -76q38 0 41 107q1 45 0 87q-2 81 -51 87q-27 3 -50 3v87q31 2 51 5q44 7 44 70q0 60 -28 60t-28 -68h-138q16 75 60.5 115.5t113.5 40.5q66 0 110 -37.5t44 -98.5q0 -38 -22.5 -70.5t-60.5 -49.5v-6q42 -13 66.5 -52
t26.5 -88q1 -39 0 -81q-3 -99 -51 -150t-125 -51z" />
    <glyph glyph-name="afii10074.BUL" horiz-adv-x="486" 
d="M53 0v506h120l-2 -319h6l96 319h160v-506h-121l2 326h-6l-98 -326h-157z" />
    <glyph glyph-name="afii10067.BUL" horiz-adv-x="474" 
d="M43 207q-6 148 0 304q4 100 65 155.5t144 55.5q73 0 125.5 -49.5t52.5 -129.5q0 -105 -99 -170v-6q50 -21 81.5 -69t31.5 -112q0 -90 -56 -144.5t-140 -54.5q-83 0 -142 60t-63 160zM186 527q-7 -159 0 -331q5 -121 59 -121q52 0 52 106q0 117 -58 132q-14 3 -26 4v89
q7 1 24 6q50 18 52 126q2 103 -43 103q-55 0 -60 -114z" />
    <glyph glyph-name="afii10069.BUL" horiz-adv-x="455" 
d="M259 443h6l12 63h133q-12 -66 -12 -134v-366q0 -98 -47.5 -143.5t-126.5 -45.5q-81 0 -125.5 41t-52.5 104h144q0 -59 30 -59q42 0 42 98l2 79h-6q-38 -65 -94 -65q-61 0 -97.5 67t-36.5 174q0 116 37.5 187t98.5 71q54 0 93 -71zM168 257q0 -81 9.5 -116.5t36.5 -35.5
q39 0 46 105v97q-2 22 -3.5 35.5t-6.5 33.5t-14.5 30t-23.5 10q-44 0 -44 -159z" />
    <glyph glyph-name="afii10021.BUL" horiz-adv-x="623" 
d="M21 -127l-6 249h76l122 601h193l120 -601h82l-6 -249h-134v127h-313v-127h-134zM309 533l-74 -417h148l-66 417h-8z" />
    <glyph glyph-name="afii10038.BUL" horiz-adv-x="656" 
d="M400 569v-418q38 17 60.5 74t22.5 135t-22.5 135t-60.5 74zM402 49l1 -154h-150l1 154q-94 18 -161.5 105t-67.5 206t67.5 205.5t161.5 105.5l-1 143h150l-1 -143q101 -18 165 -104t64 -207t-64 -207t-165 -104zM256 151v418q-38 -17 -60.5 -74t-22.5 -135t22.5 -135
t60.5 -74z" />
    <glyph glyph-name="afii10017.BULgrave" horiz-adv-x="507" 
d="M345 0l-23 142h-142l-24 -142h-146l148 723h183l156 -723h-152zM304 258l-48 278h-8l-50 -278h106zM92 852l48 89l192 -118l-41 -70z" />
    <glyph glyph-name="afii10022.BULgrave" horiz-adv-x="425" 
d="M60 0v723h333v-118h-181v-172h167v-118h-167v-195h188v-120h-340zM102 852l48 89l192 -118l-41 -70z" />
    <glyph glyph-name="afii10026.BULgrave" horiz-adv-x="585" 
d="M520 723v-723h-136l1 502h-6l-137 -502h-182v723h133l-1 -498h6l133 498h189zM172 852l48 89l192 -118l-41 -70z" />
    <glyph glyph-name="afii10032.BULgrave" horiz-adv-x="597" 
d="M35 361q0 174 74.5 275.5t189.5 101.5t189 -104t74 -277q0 -100 -30 -183.5t-91.5 -136t-142.5 -52.5q-121 0 -192 107t-71 269zM196 360q0 -266 103 -266q102 0 102 265q0 274 -102 274q-103 0 -103 -273zM148 852l48 89l192 -118l-41 -70z" />
    <glyph glyph-name="afii10037.BULgrave" horiz-adv-x="506" 
d="M496 723l-163 -600q-36 -132 -177 -132q-35 0 -77 10v116q20 -5 51 -5q36 0 56.5 23t20.5 61q0 20 -12.5 31t-30.5 9l-159 487h165l93 -385h6l84 385h143zM103 852l48 89l192 -118l-41 -70z" />
    <glyph glyph-name="afii10044.BULgrave" horiz-adv-x="563" 
d="M121 0v610l-111 -4v117h267v-272h34q97 0 167 -60.5t70 -162.5q0 -105 -71 -166.5t-166 -61.5h-190zM275 340v-228l34 2q32 2 55.5 30t23.5 82q0 53 -23.5 82.5t-58.5 30.5zM21 852l48 89l192 -118l-41 -70z" />
    <glyph glyph-name="afii10045.BULgrave" horiz-adv-x="730" 
d="M60 0v723h156v-278h21q96 0 163.5 -59.5t67.5 -160.5q0 -104 -68.5 -164.5t-162.5 -60.5h-177zM214 338v-230l23 2q31 2 53 31t22 82t-22 82.5t-56 31.5zM517 0v723h153v-723h-153zM245 852l48 89l192 -118l-41 -70z" />
    <glyph glyph-name="afii10047.BULgrave" horiz-adv-x="540" 
d="M185 499h-165q14 104 78 167t147 63q85 0 146 -57.5t87.5 -141t26.5 -179.5q0 -66 -15 -128.5t-44.5 -117.5t-81.5 -88.5t-119 -33.5q-85 0 -149.5 64.5t-80.5 170.5h167q0 -51 16 -88t47 -37q43 0 67 61t29 160h-155v114h153q-8 88 -32 139.5t-62 51.5
q-29 0 -44.5 -34.5t-15.5 -85.5zM70 852l48 89l192 -118l-41 -70z" />
    <glyph glyph-name="afii10048.BULgrave" horiz-adv-x="815" 
d="M60 0v723h153l-1 -290h68q14 142 81 223.5t167 81.5q113 0 182.5 -103.5t69.5 -277.5q0 -101 -27.5 -183.5t-86.5 -135.5t-139 -53q-110 0 -175 92.5t-74 238.5h-66l1 -316h-153zM435 360q0 -266 93 -266q92 0 92 265q0 274 -92 274q-93 0 -93 -273zM287 852l48 89
l192 -118l-41 -70z" />
    <glyph glyph-name="afii10049.BULgrave" horiz-adv-x="544" 
d="M484 723v-723h-156l1 295h-8l-139 -295h-172l173 328q-131 63 -131 187q0 92 69 150t158 58h205zM329 393v218l-34 -1q-32 -1 -57 -32t-25 -74q0 -46 23.5 -77.5t58.5 -32.5zM162 852l48 89l192 -118l-41 -70z" />
    <glyph glyph-name="afii10065.BULgrave" horiz-adv-x="443" 
d="M256 141v84q-28 12 -46 10q-21 -2 -32 -24t-11 -54q0 -75 36 -75q25 0 53 59zM388 339v-220q0 -69 9 -119h-136q3 36 3 65h-6q-47 -77 -109 -77q-52 0 -81.5 45t-29.5 117q0 70 39 111t100 43q39 1 79 -16q-1 10 -1 16v36q0 49 -7.5 72.5t-28.5 23.5q-36 0 -29 -82h-148
q12 71 59 116.5t121 45.5q76 0 121 -41.5t45 -135.5zM71 664l56 87l184 -137l-48 -68z" />
    <glyph glyph-name="afii10070.BULgrave" horiz-adv-x="445" 
d="M414 222h-242q6 -150 58 -150q19 0 29 21t9 56h140q-12 -70 -61.5 -118.5t-120.5 -48.5q-86 0 -141 76t-55 199q0 109 56 186t142 77q92 0 140.5 -75.5t48.5 -174.5q0 -21 -3 -48zM174 311h101q1 46 -11.5 80t-37.5 34q-26 0 -38.5 -33t-13.5 -81zM72 664l56 87l184 -137
l-48 -68z" />
    <glyph glyph-name="afii10074.BULgrave" horiz-adv-x="486" 
d="M53 0v506h120l-2 -319h6l96 319h160v-506h-121l2 326h-6l-98 -326h-157zM123 664l56 87l184 -137l-48 -68z" />
    <glyph glyph-name="afii10080.BULgrave" horiz-adv-x="453" 
d="M30 253q0 102 53.5 183t144.5 81q63 0 109 -42.5t66 -100.5t20 -120q0 -111 -52 -191t-143 -80q-90 0 -144 77t-54 193zM175 253q0 -178 53 -178q28 0 39.5 45t11.5 134q0 172 -51 172q-53 0 -53 -173zM76 664l56 87l184 -137l-48 -68z" />
    <glyph glyph-name="afii10085.BULgrave" horiz-adv-x="435" 
d="M288 506h132l-128 -553q-29 -130 -167 -130q-46 0 -82 9v105q20 -5 53 -5q35 0 54.5 20t19.5 52q0 20 -12.5 31.5t-32.5 10.5l-115 460h144l64 -348h5zM67 664l56 87l184 -137l-48 -68z" />
    <glyph glyph-name="afii10092.BULgrave" horiz-adv-x="462" 
d="M5 506h219v-189h55q68 0 115.5 -44.5t47.5 -111.5q0 -68 -50.5 -114.5t-123.5 -46.5h-180v405l-83 -3v104zM223 80l22 1q26 1 41.5 22.5t15.5 56.5q0 34 -16 55.5t-39 22.5l-24 1v-159zM-19 664l56 87l184 -137l-48 -68z" />
    <glyph glyph-name="afii10093.BULgrave" horiz-adv-x="630" 
d="M189 317h44q68 0 115 -44.5t47 -111.5q0 -68 -49 -114.5t-122 -46.5h-171v506h136v-189zM577 506v-506h-144v506h144zM187 81l19 1q24 1 38 22t14 56q0 34 -14.5 55t-35.5 22l-21 1v-157zM195 664l56 87l184 -137l-48 -68z" />
    <glyph glyph-name="afii10095.BULgrave" horiz-adv-x="425" 
d="M159 337h-138q10 82 59.5 130t116.5 48q84 0 141 -72t57 -195q0 -116 -56.5 -188t-142.5 -72q-71 0 -117.5 49t-61.5 132h137q-4 -37 7.5 -61.5t34.5 -24.5q50 0 59 128h-98v88h98q-4 53 -19 88t-39 35q-22 0 -32 -24.5t-6 -60.5zM32 664l56 87l184 -137l-48 -68z" />
    <glyph glyph-name="afii10096.BULgrave" horiz-adv-x="653" 
d="M53 506h144l-2 -204h50q12 89 61.5 152t127.5 63q61 0 105.5 -42.5t64 -100.5t19.5 -120q0 -112 -50 -191.5t-139 -79.5q-80 0 -130.5 63t-59.5 164h-49l2 -210h-144v506zM381 253q0 -179 52 -179q50 0 50 180q0 174 -50 174q-52 0 -52 -175zM205 664l56 87l184 -137
l-48 -68z" />
    <glyph glyph-name="afii10097.BULgrave" horiz-adv-x="450" 
d="M20 0l108 228q-40 18 -64.5 52.5t-24.5 76.5q0 64 51 106.5t121 42.5h186v-506h-139v200h-7l-78 -200h-153zM238 270l21 -1v160l-23 -1q-23 -1 -38 -24t-15 -55q0 -31 15.5 -54t39.5 -25zM105 664l56 87l184 -137l-48 -68z" />
    <glyph glyph-name="RP" horiz-adv-x="810" 
d="M361 433l-140 246l6 4l140 -247zM450 433l140 246l-6 4l-140 -247zM361 297l-140 -246l6 -4l140 247zM450 297l140 -246l-6 -4l-140 247zM338 319l-230 -164l4 -6l230 165zM473 411l230 164l-4 6l-230 -165zM338 411l-230 164l4 6l230 -165zM473 319l230 -164l-4 -6
l-230 165zM377 441l-87 269l7 2l86 -269zM377 289l-87 -269l7 -2l86 269zM434 441l87 269l-7 2l-86 -269zM434 289l87 -269l-7 -2l-86 269zM349 307l-190 -210l5 -5l190 211zM349 423l-190 210l5 5l190 -211zM462 423l190 210l-5 5l-190 -211zM462 307l190 -210l-5 -5
l-190 211zM330 335l-260 -114l3 -6l260 114zM481 395l260 114l-3 6l-260 -114zM481 335l260 -114l-3 -6l-260 114zM330 395l-260 114l3 6l260 -114zM325 379l-277 57l2 7l276 -58zM325 351l-277 -57l2 -7l276 58zM486 379l277 57l-2 7l-276 -58zM486 351l277 -57l-2 -7
l-276 58zM394 285l-31 -281l7 -1l30 281zM417 445l31 281l-7 1l-30 -281zM417 285l31 -281l-7 -1l-30 281zM394 445l-31 281l7 1l30 -281zM40 368h284v-6h-284v6zM770 368h-283v-6h283v6zM490 476l133 181l-6 5l-133 -182zM321 476l-133 181l6 5l133 -182zM321 254
l-133 -181l6 -5l133 182zM490 254l133 -181l-6 -5l-133 182zM373 501l-46 219l7 2l46 -220zM373 229l-46 -219l7 -2l46 220zM438 501l46 219l-7 2l-46 -220zM438 229l46 -219l-7 -2l-46 220zM402 225v-225h7v225h-7zM402 505v225h7v-225h-7zM528 299l196 -112l-3 -6
l-197 112zM283 299l-196 -112l3 -6l197 112zM283 431l-196 112l3 6l197 -112zM528 431l196 112l-3 6l-197 -112zM540 325l214 -68l-2 -7l-214 69zM540 405l214 68l-2 7l-214 -69zM271 325l-214 -68l2 -7l214 69zM271 405l-214 68l2 7l214 -69zM679 606l-5 5l-167 -151l4 -5z
M132 606l5 5l167 -151l-4 -5zM679 124l-5 -5l-167 151l4 5zM132 124l5 -5l167 151l-4 5zM347 491l-92 206l6 3l92 -206zM464 491l92 206l-6 3l-92 -206zM464 239l92 -206l-6 -3l-92 206zM347 239l-92 -206l6 -3l92 206zM769 331l-1 -7l-224 24l1 6zM42 399l1 7l224 -24
l-1 -6zM769 399l-1 7l-224 -24l1 -6zM42 331l1 -7l224 24l-1 6z" />
    <glyph glyph-name="M.ss01" horiz-adv-x="740" 
d="M670 723v-723h-129l1 496h-7l-101 -511h-125l-101 511h-8l1 -496h-131v723h209l92 -492h8l86 492h205z" />
    <glyph glyph-name="G.ss01" horiz-adv-x="570" 
d="M520 506h-162q2 50 -14 88t-49 38q-54 0 -82 -75t-28 -192q0 -274 112 -274q43 0 69 48t20 120l-131 -20v125h264v-364h-84l-6 96h-8q-52 -109 -158 -109q-111 0 -169.5 107t-58.5 271q0 159 70 265t192 106q91 0 153 -64t70 -166z" />
    <glyph glyph-name="i.ss01" horiz-adv-x="254" 
d="M53 0v506h148v-506h-148zM52 580v118h150v-118h-150z" />
    <glyph glyph-name="j.ss01" horiz-adv-x="254" 
d="M5 -174v99q25 -2 36.5 12.5t11.5 45.5v523h148v-539q0 -70 -31.5 -110t-96.5 -40q-35 0 -68 9zM52 580v118h150v-118h-150z" />
    <glyph glyph-name="adieresis.ss01" horiz-adv-x="433" 
d="M251 225v-84q-28 -59 -53 -59q-36 0 -36 75q0 32 11 54t32 24q18 2 46 -10zM383 119v220q0 94 -45 135.5t-121 41.5q-74 0 -121 -45.5t-59 -116.5h148q-7 82 29 82q21 0 28.5 -23.5t7.5 -72.5v-36l1 -16q-40 17 -79 16q-61 -2 -100 -43t-39 -111q0 -72 29.5 -117
t81.5 -45q62 0 109 77h6q0 -29 -3 -65h136q-9 50 -9 119zM74 575v123h116v-123h-116zM241 575v123h116v-123h-116z" />
    <glyph glyph-name="cdotaccent.ss01" horiz-adv-x="430" 
d="M406 326h-147q10 93 -29 93q-53 0 -51 -169q2 -164 52 -164q21 0 29 27.5t4 66.5h146q-14 -88 -61 -140t-118 -52q-87 0 -144 72t-57 188q0 123 57.5 195t142.5 72q67 0 117 -51.5t59 -137.5zM158 580v128h144v-128h-144z" />
    <glyph glyph-name="dcaron.ss01" horiz-adv-x="550" 
d="M265 63h-6q-40 -74 -94 -74q-60 0 -97.5 76t-37.5 193q0 111 36 184t98 73q57 0 94 -69h6q-2 30 -2 60v217h136v-629l3 -94h-132zM168 257q0 -170 44 -170q14 0 23.5 10t14.5 30t6.5 33.5t3.5 35.5v115q-7 105 -46 105q-27 0 -36.5 -38.5t-9.5 -120.5zM438 607v116h113
v-109q-18 -47 -52 -89h-63q41 38 60 68q3 5 0.5 9.5t-8.5 4.5h-50z" />
    <glyph glyph-name="edieresis.ss01" horiz-adv-x="440" 
d="M414 222h-242q6 -150 58 -150q19 0 29 21t9 56h140q-12 -70 -61.5 -118.5t-120.5 -48.5q-86 0 -141 76t-55 199q0 109 56 186t142 77q92 0 140.5 -75.5t48.5 -174.5q0 -21 -3 -48zM174 311h101q1 46 -11.5 80t-37.5 34q-26 0 -38.5 -33t-13.5 -81zM85 575v123h116v-123
h-116zM252 575v123h116v-123h-116z" />
    <glyph glyph-name="edotaccent.ss01" horiz-adv-x="440" 
d="M414 222h-242q6 -150 58 -150q19 0 29 21t9 56h140q-12 -70 -61.5 -118.5t-120.5 -48.5q-86 0 -141 76t-55 199q0 109 56 186t142 77q92 0 140.5 -75.5t48.5 -174.5q0 -21 -3 -48zM174 311h101q1 46 -11.5 80t-37.5 34q-26 0 -38.5 -33t-13.5 -81zM154 580v128h144v-128
h-144z" />
    <glyph glyph-name="gdotaccent.ss01" horiz-adv-x="453" 
d="M265 443h-6q-39 71 -93 71q-61 0 -98.5 -71t-37.5 -187q0 -107 36.5 -174t97.5 -67q56 0 94 65h6q-2 -42 -2 -78q0 -95 -42 -95q-30 0 -30 59h-144q8 -63 52 -103t126 -40q174 0 174 183v366q0 68 12 134h-133zM168 257q0 159 44 159q14 0 23.5 -10t14.5 -30t6.5 -33.5
t3.5 -35.5v-97q-7 -105 -46 -105q-27 0 -36.5 35.5t-9.5 116.5zM144 580v128h144v-128h-144z" />
    <glyph glyph-name="gcommaaccent.ss01" horiz-adv-x="453" 
d="M280 667v-114h-111v107q18 47 52 89h62q-41 -39 -59 -68q-3 -5 -0.5 -9.5t8.5 -4.5h48zM265 443h-6q-39 71 -93 71q-61 0 -98.5 -71t-37.5 -187q0 -107 36.5 -174t97.5 -67q56 0 94 65h6q-2 -42 -2 -78q0 -95 -42 -95q-30 0 -30 59h-144q8 -63 52 -103t126 -40
q174 0 174 183v366q0 68 12 134h-133zM168 257q0 159 44 159q14 0 23.5 -10t14.5 -30t6.5 -33.5t3.5 -35.5v-97q-7 -105 -46 -105q-27 0 -36.5 35.5t-9.5 116.5z" />
    <glyph glyph-name="idieresis.ss01" horiz-adv-x="265" 
d="M59 0v506h148v-506h-148zM-9 575v123h116v-123h-116zM158 575v123h116v-123h-116z" />
    <glyph glyph-name="iogonek.ss01" horiz-adv-x="254" 
d="M53 0v506h148v-506h-148zM52 580v118h150v-118h-150zM190 -182v69q-31 -22 -51 -22q-22 0 -22 22q0 36 84 113h-73q-105 -68 -105 -139q0 -32 21.5 -53t61.5 -21q43 0 84 31z" />
    <glyph glyph-name="kcommaaccent.ss01" horiz-adv-x="435" 
d="M53 0v723h141v-217l-1 -222h6l78 222h143l-99 -243l109 -263h-148l-84 230h-6v-230h-139zM183 -173v114h111v-107q-18 -47 -52 -89h-62q41 39 59 68q3 5 0.5 9.5t-8.5 4.5h-48z" />
    <glyph glyph-name="lcaron.ss01" horiz-adv-x="354" 
d="M202 507v-507h-148v723h136zM242 607v116h113v-109q-18 -47 -52 -89h-63q41 38 60 68q3 5 0.5 9.5t-8.5 4.5h-50z" />
    <glyph glyph-name="lcommaaccent.ss01" horiz-adv-x="255" 
d="M202 507v-507h-148v723h136zM73 -173v114h111v-107q-18 -47 -52 -89h-62q41 39 59 68q3 5 0.5 9.5t-8.5 4.5h-48z" />
    <glyph glyph-name="ldot.ss01" horiz-adv-x="404" 
d="M260 279v143h144v-143h-144zM202 507v-507h-148v723h136z" />
    <glyph glyph-name="ncommaaccent.ss01" horiz-adv-x="457" 
d="M46 506h133l5 -80h6q42 89 111 89q106 0 106 -179v-336h-136v340q0 68 -26 68q-19 0 -33.5 -32t-21.5 -84v-292h-135v360q0 74 -9 146zM174 -173v114h111v-107q-18 -47 -52 -89h-62q41 39 59 68q3 5 0.5 9.5t-8.5 4.5h-48z" />
    <glyph glyph-name="odieresis.ss01" horiz-adv-x="453" 
d="M30 253q0 102 53.5 183t144.5 81q63 0 109 -42.5t66 -100.5t20 -120q0 -111 -52 -191t-143 -80q-90 0 -144 77t-54 193zM175 253q0 -178 53 -178q28 0 39.5 45t11.5 134q0 172 -51 172q-53 0 -53 -173zM86 575v123h116v-123h-116zM253 575v123h116v-123h-116z" />
    <glyph glyph-name="rcommaaccent.ss01" horiz-adv-x="324" 
d="M57 0v360q0 74 -9 146h137l5 -140h6q47 154 123 154v-163q-9 4 -24 4q-40 0 -64 -36.5t-26 -104.5v-220h-148zM80 -173v114h111v-107q-18 -47 -52 -89h-62q41 39 59 68q3 5 0.5 9.5t-8.5 4.5h-48z" />
    <glyph glyph-name="uni0219.ss01" horiz-adv-x="401" 
d="M22 141h148q-2 -28 6.5 -48.5t26.5 -20.5q33 0 33 46q0 43 -61 69q-149 63 -149 172q0 70 49.5 114.5t119.5 44.5q65 0 115 -36t56 -112h-144q2 28 -5.5 46.5t-21.5 18.5q-13 0 -22 -13t-9 -36q0 -42 63 -67q150 -58 150 -173q0 -73 -53.5 -116.5t-121.5 -43.5
q-41 0 -78 13t-67.5 50t-34.5 92zM141 -173v114h111v-107q-18 -47 -52 -89h-62q41 39 59 68q3 5 0.5 9.5t-8.5 4.5h-48z" />
    <glyph glyph-name="tcaron.ss01" horiz-adv-x="364" 
d="M15 406v100h65l37 141h108v-141h75v-100h-75v-269q0 -37 27 -37q20 0 46 11l-2 -89q-50 -32 -99 -32q-61 0 -90.5 34t-29.5 107v275h-62zM260 627v116h113v-109q-18 -47 -52 -89h-63q41 38 60 68q3 5 0.5 9.5t-8.5 4.5h-50z" />
    <glyph glyph-name="uni021B.ss01" horiz-adv-x="318" 
d="M15 406v100h65l37 141h108v-141h75v-100h-75v-269q0 -37 27 -37q20 0 46 11l-2 -89q-50 -32 -99 -32q-61 0 -90.5 34t-29.5 107v275h-62zM135 -173v114h111v-107q-18 -47 -52 -89h-62q41 39 59 68q3 5 0.5 9.5t-8.5 4.5h-48z" />
    <glyph glyph-name="udieresis.ss01" horiz-adv-x="455" 
d="M405 0h-124l-5 75h-6q-49 -85 -115 -85q-105 0 -105 180v336h137v-345q0 -37 5.5 -52.5t19.5 -15.5q19 0 33.5 32t21.5 84v297h135v-412zM86 575v123h116v-123h-116zM253 575v123h116v-123h-116z" />
    <glyph glyph-name="wdieresis.ss01" horiz-adv-x="582" 
d="M567 506h-119l-31 -333h-6l-48 335h-129l-52 -335h-6l-28 333h-133l80 -506h141l56 344h6l51 -344h141zM154 575v123h116v-123h-116zM321 575v123h116v-123h-116z" />
    <glyph glyph-name="ydieresis.ss01" horiz-adv-x="435" 
d="M288 506h132l-128 -553q-29 -130 -167 -130q-46 0 -82 9v105q20 -5 53 -5q35 0 54.5 20t19.5 52q0 20 -12.5 31.5t-32.5 10.5l-115 460h144l64 -348h5zM80 575v123h116v-123h-116zM247 575v123h116v-123h-116z" />
    <glyph glyph-name="zdotaccent.ss01" horiz-adv-x="360" 
d="M20 0v109l164 292v6h-156v99h307v-103l-164 -295v-6h169v-102h-320zM110 580v128h144v-128h-144z" />
    <glyph glyph-name="Adieresis.ss01" horiz-adv-x="507" 
d="M345 0l-23 142h-142l-24 -142h-146l148 723h183l156 -723h-152zM304 258l-48 278h-8l-50 -278h106zM105 780v123h116v-123h-116zM283 780v123h116v-123h-116z" />
    <glyph glyph-name="Cdotaccent.ss01" horiz-adv-x="538" 
d="M518 496h-167q-2 119 -57 119q-88 0 -88 -262q0 -110 21 -182.5t67 -72.5q58 0 60 122h169q-16 -105 -81 -170t-148 -65q-67 0 -118.5 33.5t-81 88.5t-44.5 117t-15 127q0 55 9.5 108t30.5 102t50.5 86t73 59t95.5 22q83 0 146.5 -64t77.5 -168zM234 780v123h116v-123
h-116z" />
    <glyph glyph-name="Edieresis.ss01" horiz-adv-x="425" 
d="M60 0v723h333v-118h-181v-172h167v-118h-167v-195h188v-120h-340zM78 780v123h116v-123h-116zM256 780v123h116v-123h-116z" />
    <glyph glyph-name="Edotaccent.ss01" horiz-adv-x="425" 
d="M60 0v723h333v-118h-181v-172h167v-118h-167v-195h188v-120h-340zM168 780v123h116v-123h-116z" />
    <glyph glyph-name="Gbreve.ss01" horiz-adv-x="570" 
d="M520 506h-162q2 50 -14 88t-49 38q-54 0 -82 -75t-28 -192q0 -274 112 -274q43 0 69 48t20 120l-131 -20v125h264v-364h-84l-6 96h-8q-52 -109 -158 -109q-111 0 -169.5 107t-58.5 271q0 159 70 265t192 106q91 0 153 -64t70 -166zM299 845q62 0 66 68h67
q3 -70 -31.5 -109.5t-101.5 -39.5q-68 0 -102 39t-31 110h67q4 -68 66 -68z" />
    <glyph glyph-name="Gcircumflex.ss01" horiz-adv-x="570" 
d="M520 506h-162q2 50 -14 88t-49 38q-54 0 -82 -75t-28 -192q0 -274 112 -274q43 0 69 48t20 120l-131 -20v125h264v-364h-84l-6 96h-8q-52 -109 -158 -109q-111 0 -169.5 107t-58.5 271q0 159 70 265t192 106q91 0 153 -64t70 -166zM294 940l147 -170h-101l-43 55h-6
l-43 -55h-103z" />
    <glyph glyph-name="Gcommaaccent.ss01" horiz-adv-x="570" 
d="M520 506h-162q2 50 -14 88t-49 38q-54 0 -82 -75t-28 -192q0 -274 112 -274q43 0 69 48t20 120l-131 -20v125h264v-364h-84l-6 96h-8q-52 -109 -158 -109q-111 0 -169.5 107t-58.5 271q0 159 70 265t192 106q91 0 153 -64t70 -166zM241 -173v114h111v-107
q-18 -47 -52 -89h-62q41 39 59 68q3 5 0.5 9.5t-8.5 4.5h-48z" />
    <glyph glyph-name="Gdotaccent.ss01" horiz-adv-x="570" 
d="M520 506h-162q2 50 -14 88t-49 38q-54 0 -82 -75t-28 -192q0 -274 112 -274q43 0 69 48t20 120l-131 -20v125h264v-364h-84l-6 96h-8q-52 -109 -158 -109q-111 0 -169.5 107t-58.5 271q0 159 70 265t192 106q91 0 153 -64t70 -166zM239 780v123h116v-123h-116z" />
    <glyph glyph-name="Idieresis.ss01" horiz-adv-x="275" 
d="M60 0v723h155v-723h-155zM-10 780v123h116v-123h-116zM168 780v123h116v-123h-116z" />
    <glyph glyph-name="Idotaccent.ss01" horiz-adv-x="275" 
d="M60 0v723h155v-723h-155zM79 780v123h116v-123h-116z" />
    <glyph glyph-name="Kcommaaccent.ss01" horiz-adv-x="535" 
d="M60 0v723h156v-308h8l116 309h171l-161 -343l178 -381h-179l-125 332h-8v-332h-156zM221 -173v114h111v-107q-18 -47 -52 -89h-62q41 39 59 68q3 5 0.5 9.5t-8.5 4.5h-48z" />
    <glyph glyph-name="Lcommaaccent.ss01" horiz-adv-x="400" 
d="M60 0v723h157v-600h168v-123h-325zM163 -173v114h111v-107q-18 -47 -52 -89h-62q41 39 59 68q3 5 0.5 9.5t-8.5 4.5h-48z" />
    <glyph glyph-name="Lcaron.ss01" horiz-adv-x="400" 
d="M60 0v723h157v-600h168v-123h-325zM248 607v116h113v-109q-18 -47 -52 -89h-63q41 38 60 68q3 5 0.5 9.5t-8.5 4.5h-50z" />
    <glyph glyph-name="Ldot.ss01" horiz-adv-x="423" 
d="M274 279v143h144v-143h-144zM60 0v723h157v-600h168v-123h-325z" />
    <glyph glyph-name="Ncommaaccent.ss01" horiz-adv-x="580" 
d="M60 0v723h185l145 -474h6l-1 474h125v-723h-181l-145 470h-6l1 -470h-129zM237 -173v114h111v-107q-18 -47 -52 -89h-62q41 39 59 68q3 5 0.5 9.5t-8.5 4.5h-48z" />
    <glyph glyph-name="Odieresis.ss01" horiz-adv-x="597" 
d="M35 361q0 174 74.5 275.5t189.5 101.5t189 -104t74 -277q0 -100 -30 -183.5t-91.5 -136t-142.5 -52.5q-121 0 -192 107t-71 269zM196 360q0 -266 103 -266q102 0 102 265q0 274 -102 274q-103 0 -103 -273zM151 780v123h116v-123h-116zM329 780v123h116v-123h-116z" />
    <glyph glyph-name="Rcommaaccent.ss01" horiz-adv-x="535" 
d="M60 0v723h204q89 0 159 -53.5t70 -145.5q0 -127 -127 -188l154 -336h-170l-127 310h-8l1 -310h-156zM215 611v-211l36 1q36 1 58.5 29.5t22.5 76.5q0 45 -23.5 73.5t-56.5 29.5zM223 -173v114h111v-107q-18 -47 -52 -89h-62q41 39 59 68q3 5 0.5 9.5t-8.5 4.5h-48z" />
    <glyph glyph-name="uni0218.ss01" horiz-adv-x="460" 
d="M25 202h164q-9 -46 2.5 -79t39.5 -33q22 0 33.5 18t11.5 46q0 72 -87 131q-157 103 -157 239q0 96 56.5 153t138.5 57q78 0 132 -53t63 -152h-156q5 41 -5.5 69.5t-32.5 28.5q-19 0 -30.5 -20t-11.5 -51q0 -60 85 -113q161 -99 161 -248q0 -95 -56 -152.5t-144 -57.5
q-34 0 -67 11t-64 35t-51.5 68t-24.5 103zM170 -173v114h111v-107q-18 -47 -52 -89h-62q41 39 59 68q3 5 0.5 9.5t-8.5 4.5h-48z" />
    <glyph glyph-name="uni021A.ss01" horiz-adv-x="440" 
d="M298 0h-158v603h-125v120h410v-120h-127v-603zM166 -173v114h111v-107q-18 -47 -52 -89h-62q41 39 59 68q3 5 0.5 9.5t-8.5 4.5h-48z" />
    <glyph glyph-name="Udieresis.ss01" horiz-adv-x="538" 
d="M270 -14q97 0 154 68t57 203v466h-152v-488q0 -134 -58 -134q-59 0 -59 134v488h-155v-466q0 -135 58.5 -203t154.5 -68zM124 780v123h116v-123h-116zM302 780v123h116v-123h-116z" />
    <glyph glyph-name="Wdieresis.ss01" horiz-adv-x="715" 
d="M30 723h141l35 -477h8l81 479h139l78 -474h8l38 472h127l-87 -723h-160l-70 455h-8l-76 -455h-162zM217 780v123h116v-123h-116zM395 780v123h116v-123h-116z" />
    <glyph glyph-name="Ydieresis.ss01" horiz-adv-x="510" 
d="M502 723l-152 -440q-19 -2 -19 -22v-261h-155v261q0 20 -20 22l-146 440h164l86 -346h6l89 346h147zM116 780v123h116v-123h-116zM294 780v123h116v-123h-116z" />
    <glyph glyph-name="Zdotaccent.ss01" horiz-adv-x="450" 
d="M28 0v116l226 481v8h-208v118h376v-120l-224 -476v-8h220v-119h-390zM178 780v123h116v-123h-116z" />
    <glyph glyph-name="f_i.ss01" horiz-adv-x="550" 
d="M345 0v506h147v-506h-147zM343 580v118h150v-118h-150zM282 723v-101q-12 2 -21 2q-41 0 -41 -52v-66h62v-102h-62v-404h-148v404h-57v102h58v70q0 73 37.5 114.5t102.5 41.5q22 0 69 -9z" />
    <glyph glyph-name="f_l.ss01" horiz-adv-x="545" 
d="M343 0v506l12 217h135v-723h-147zM290 723v-101q-16 2 -28 2q-42 0 -42 -52v-66h63v-102h-63v-404h-147v404h-58v102h59v70q0 73 37 114.5t102 41.5q30 0 77 -9z" />
    <glyph glyph-name="f_f_i.ss01" horiz-adv-x="815" 
d="M218 506h124v70q0 73 36.5 114.5t101.5 41.5q28 0 75 -9v-101q-16 2 -26 2q-41 0 -41 -52v-66h62v-102h-62v-404h-146v404h-124v-404h-146v404h-57v102h57v70q0 73 38 114.5t103 41.5q30 0 77 -9v-101q-16 2 -28 2q-22 0 -33 -14.5t-11 -37.5v-66zM610 0v506h147v-506
h-147zM608 580v118h150v-118h-150z" />
    <glyph glyph-name="f_f_l.ss01" horiz-adv-x="810" 
d="M218 506h124v70q0 73 36.5 114.5t101.5 41.5q28 0 75 -9v-101q-16 2 -26 2q-41 0 -41 -52v-66h62v-102h-62v-404h-146v404h-124v-404h-146v404h-57v102h57v70q0 73 38 114.5t103 41.5q30 0 77 -9v-101q-16 2 -28 2q-22 0 -33 -14.5t-11 -37.5v-66zM609 0v506l12 217h134
v-723h-146z" />
    <glyph glyph-name="f_f.ss01" horiz-adv-x="565" 
d="M218 506h124v70q0 73 36.5 114.5t101.5 41.5q28 0 75 -9v-101q-16 2 -26 2q-41 0 -41 -52v-66h62v-102h-62v-404h-146v404h-124v-404h-146v404h-57v102h57v70q0 73 38 114.5t103 41.5q30 0 77 -9v-101q-16 2 -28 2q-22 0 -33 -14.5t-11 -37.5v-66z" />
    <glyph glyph-name="afii10078.ss01" horiz-adv-x="608" 
d="M553 0h-113l1 344h-6l-80 -358h-101l-77 358h-6l1 -344h-117v506h190l58 -312h6l59 312h185v-506z" />
    <glyph glyph-name="afii10030.ss01" horiz-adv-x="740" 
d="M670 723v-723h-129l1 496h-7l-101 -511h-125l-101 511h-8l1 -496h-131v723h209l92 -492h8l86 492h205z" />
    <glyph glyph-name="afii10103.ss01" horiz-adv-x="254" 
d="M53 0v506h148v-506h-148zM52 580v118h150v-118h-150z" />
    <glyph glyph-name="afii10105.ss01" horiz-adv-x="254" 
d="M5 -174v99q25 -2 36.5 12.5t11.5 45.5v523h148v-539q0 -70 -31.5 -110t-96.5 -40q-35 0 -68 9zM52 580v118h150v-118h-150z" />
    <glyph glyph-name="afii10023.ss01" horiz-adv-x="425" 
d="M60 0v723h333v-118h-181v-172h167v-118h-167v-195h188v-120h-340zM78 780v123h116v-123h-116zM256 780v123h116v-123h-116z" />
    <glyph glyph-name="afii10056.ss01" horiz-adv-x="275" 
d="M60 0v723h155v-723h-155zM-9 780v123h116v-123h-116zM169 780v123h116v-123h-116z" />
    <glyph glyph-name="afii10071.ss01" horiz-adv-x="445" 
d="M414 222h-242q6 -150 58 -150q19 0 29 21t9 56h140q-12 -70 -61.5 -118.5t-120.5 -48.5q-86 0 -141 76t-55 199q0 109 56 186t142 77q92 0 140.5 -75.5t48.5 -174.5q0 -21 -3 -48zM174 311h101q1 46 -11.5 80t-37.5 34q-26 0 -38.5 -33t-13.5 -81zM81 575v123h116v-123
h-116zM248 575v123h116v-123h-116z" />
    <glyph glyph-name="afii10104.ss01" horiz-adv-x="265" 
d="M58 0v506h148v-506h-148zM-9 575v123h116v-123h-116zM158 575v123h116v-123h-116z" />
    <glyph glyph-name="comma.ss01" horiz-adv-x="230" 
d="M48 15v144h142v-145q-22 -60 -78 -121h-77q53 44 91 107q3 4 0.5 9.5t-8.5 5.5h-70z" />
    <glyph glyph-name="period.ss01" horiz-adv-x="230" 
d="M43 0v144h144v-144h-144z" />
    <glyph glyph-name="ellipsis.ss01" horiz-adv-x="717" 
d="M53 0v144h134v-144h-134zM292 0v144h134v-144h-134zM531 0v144h134v-144h-134z" />
    <glyph glyph-name="colon.ss01" horiz-adv-x="230" 
d="M43 362v144h144v-144h-144zM43 0v144h144v-144h-144z" />
    <glyph glyph-name="semicolon.ss01" horiz-adv-x="230" 
d="M46 362v144h144v-144h-144zM48 15v144h142v-145q-22 -60 -78 -121h-77q53 44 91 107q3 4 0.5 9.5t-8.5 5.5h-70z" />
    <glyph glyph-name="periodcentered.ss01" horiz-adv-x="230" 
d="M43 279v143h144v-143h-144z" />
    <glyph glyph-name="exclam.ss01" horiz-adv-x="270" 
d="M62 0v134h146v-134h-146zM211 723l-25 -500h-102l-25 500h152z" />
    <glyph glyph-name="exclamdown.ss01" horiz-adv-x="270" 
d="M62 372v134h146v-134h-146zM186 292l25 -500h-152l25 500h102z" />
    <glyph glyph-name="question.ss01" horiz-adv-x="437" 
d="M187 536h-157q8 99 63 147.5t126 48.5q77 0 132.5 -45t55.5 -128q0 -38 -19 -77.5t-36.5 -60.5t-54.5 -63q-35 -40 -35 -109q0 -13 3 -26h-117q-2 9 -2 28q0 54 17.5 96.5t52.5 91.5q37 51 37 105q0 81 -41 81q-40 0 -25 -89zM140 0v134h146v-134h-146z" />
    <glyph glyph-name="questiondown.ss01" horiz-adv-x="437" 
d="M297 506v-134h-146v134h146zM250 -30h157q-8 -99 -63 -147.5t-126 -48.5q-77 0 -132.5 45t-55.5 128q0 38 19 77.5t36.5 60.5t54.5 63q35 40 35 109q0 13 -3 26h117q2 -9 2 -28q0 -54 -17.5 -96.5t-52.5 -91.5q-37 -51 -37 -105q0 -81 41 -81q40 0 25 89z" />
    <glyph glyph-name="quoteleft.ss01" horiz-adv-x="245" 
d="M192 601v-144h-142v145q22 60 78 121h77q-53 -44 -91 -107q-3 -4 -0.5 -9.5t8.5 -5.5h70z" />
    <glyph glyph-name="quoteright.ss01" horiz-adv-x="245" 
d="M53 579v144h142v-145q-22 -60 -78 -121h-77q53 44 91 107q3 4 0.5 9.5t-8.5 5.5h-70z" />
    <glyph glyph-name="quotedblleft.ss01" horiz-adv-x="425" 
d="M361 601v-144h-136v145q22 60 78 121h77q-53 -44 -91 -107q-3 -4 -0.5 -9.5t8.5 -5.5h64zM179 601v-144h-134v145q24 57 88 121h80q-71 -55 -102 -107q-3 -4 -0.5 -9.5t8.5 -5.5h60z" />
    <glyph glyph-name="quotedblright.ss01" horiz-adv-x="425" 
d="M64 579v144h136v-145q-22 -60 -78 -121h-77q53 44 91 107q3 4 0.5 9.5t-8.5 5.5h-64zM246 579v144h134v-145q-24 -57 -88 -121h-80q71 55 102 107q3 4 0.5 9.5t-8.5 5.5h-60z" />
    <glyph glyph-name="quotesinglbase.ss01" horiz-adv-x="245" 
d="M53 15v144h142v-145q-22 -60 -78 -121h-77q53 44 91 107q3 4 0.5 9.5t-8.5 5.5h-70z" />
    <glyph glyph-name="quotedblbase.ss01" horiz-adv-x="425" 
d="M64 15v144h136v-145q-22 -60 -78 -121h-77q53 44 91 107q3 4 0.5 9.5t-8.5 5.5h-64zM246 15v144h134v-145q-24 -57 -88 -121h-80q71 55 102 107q3 4 0.5 9.5t-8.5 5.5h-60z" />
    <glyph glyph-name="divide.ss01" horiz-adv-x="580" 
d="M489 204h-399v125h399v-125zM223 392v142h138v-142h-138zM223 0v142h138v-142h-138z" />
    <glyph glyph-name="because.ss01" horiz-adv-x="717" 
d="M53 554v144h134v-144h-134zM292 0v144h134v-144h-134zM531 554v144h134v-144h-134z" />
    <glyph glyph-name="therefore.ss01" horiz-adv-x="717" 
d="M53 0v144h134v-144h-134zM292 554v144h134v-144h-134zM531 0v144h134v-144h-134z" />
    <glyph glyph-name="commaaccent.ss01" horiz-adv-x="240" 
d="M66 -173v114h111v-107q-18 -47 -52 -89h-62q41 39 59 68q3 5 0.5 9.5t-8.5 4.5h-48z" />
    <glyph glyph-name="caron.salt..ss01" horiz-adv-x="240" 
d="M62 607v116h113v-109q-18 -47 -52 -89h-63q41 38 60 68q3 5 0.5 9.5t-8.5 4.5h-50z" />
    <glyph glyph-name="trademark.ss01" horiz-adv-x="635" 
d="M356 723l58 -249h5l55 249h101v-361h-68l1 242h-4l-61 -251h-56l-61 249h-4l1 -240h-68v361h101zM165 362h-78v296h-67v65h212v-65h-67v-296z" />
    <glyph glyph-name="dieresis.ss01" horiz-adv-x="383" 
d="M50 575v123h116v-123h-116zM217 575v123h116v-123h-116z" />
    <glyph glyph-name="dieresis.case.ss01" horiz-adv-x="394" 
d="M50 780v123h116v-123h-116zM228 780v123h116v-123h-116z" />
    <glyph glyph-name="dotaccent.ss01" horiz-adv-x="250" 
d="M53 580v128h144v-128h-144z" />
    <glyph glyph-name="dotaccent.case.ss01" horiz-adv-x="216" 
d="M50 780v123h116v-123h-116z" />
    <glyph glyph-name="interrobang.ss01" horiz-adv-x="437" 
d="M133 538h-116q8 96 67 144t140 48q75 0 128 -47.5t53 -124.5q0 -16 -3 -31.5t-6.5 -27.5t-12.5 -28t-13.5 -25t-17.5 -25.5t-18 -22.5t-20.5 -24t-19.5 -22q-32 -40 -32 -88q0 -24 5 -41h-93l-10 412q-42 -25 -31 -97zM297 551q0 64 -35 84l-11 -208h4q42 74 42 124z
M145 0v134h146v-134h-146z" />
    <glyph glyph-name="interfinity.ss01" horiz-adv-x="437" 
d="M217 732q73 0 125 -42.5t52 -111.5q0 -81 -100 -159q54 -52 54 -111q0 -45 -37 -78t-96 -33q-58 0 -91 33t-33 76q0 53 50 103q-99 80 -99 169q0 69 51 111.5t124 42.5zM145 0v134h146v-134h-146zM223 633q-19 0 -30 -16.5t-11 -43.5q0 -42 41 -87q41 45 41 87
q0 27 -11.5 43.5t-29.5 16.5zM240 304q0 26 -30 53q-25 -24 -25 -53q0 -39 27 -39q28 0 28 39z" />
    <glyph glyph-name="one.ss02" horiz-adv-x="470" 
d="M450 0h-385v117h124v407h-6q-64 -191 -123 -302v247q64 91 128 229h147v-581h115v-117z" />
    <glyph glyph-name="one.numr..ss02" 
d="M308 281h-266v72h89v242h-4q-40 -95 -84 -167v136q46 54 87 135h99v-346h79v-72z" />
    <glyph glyph-name="one.dnom..ss02" 
d="M308 0h-266v72h89v242h-4q-40 -95 -84 -167v136q47 54 87 135h99v-346h79v-72z" />
    <glyph glyph-name="one.sups..ss02" 
d="M308 461h-266v72h89v242h-4q-40 -95 -84 -167v136q46 54 87 135h99v-346h79v-72z" />
    <glyph glyph-name="one.sinf..ss02" 
d="M308 -183h-266v72h89v242h-4q-40 -95 -84 -167v136q47 54 87 135h99v-346h79v-72z" />
    <glyph glyph-name="onehalf.ss02" horiz-adv-x="720" 
d="M684 0h-247l-3 45q2 35 17.5 66t30.5 47t40 39q23 20 40 42q25 28 25 67q0 56 -27 56q-32 0 -17 -79h-109q-4 60 33.5 101t96.5 41q55 0 90.5 -34t35.5 -88q0 -30 -13.5 -57.5t-27 -41t-36.5 -33.5l-51 -41q-33 -27 -40 -42q-4 -9 -3 -19l165 2v-71zM271 281h-246v72h79
v247h-4q-36 -107 -74 -180v144q31 43 77 135h96v-346h72v-72zM163 -26l325 749h82l-324 -749h-83z" />
    <glyph glyph-name="onequarter.ss02" horiz-adv-x="720" 
d="M163 -26l325 749h82l-324 -749h-83zM271 281h-246v72h79v247h-4q-36 -107 -74 -180v144q31 43 77 135h96v-346h72v-72zM531 0v96h-133v88q72 110 129 234h106v-253h43v-69h-43v-96h-102zM459 163h77v164h-4q-15 -39 -33.5 -78.5t-28.5 -60.5l-11 -20v-5z" />
    <glyph glyph-name="ampersand.ss03" horiz-adv-x="602" 
d="M576 298l-91 23q8 -77 -22 -152l109 -169h-156l-32 47q-67 -64 -163 -64q-84 0 -137.5 51.5t-53.5 139.5q0 67 35.5 123t90.5 91q-27 37 -47 84.5t-20 86.5q0 76 53.5 124.5t133.5 48.5q76 0 126 -55.5t54 -138.5h-157q11 36 4 65t-28 29q-36 0 -36 -66q0 -47 41 -111
l112 -175q5 74 -22 143h206v-125zM244 94q48 0 85 35l-110 166q-49 -49 -49 -119q0 -36 21 -59t53 -23z" />
    </font>
</defs>
</svg>
