<?xml version="1.0" standalone="no"?>
<!DOCTYPE svg PUBLIC "-//W3C//DTD SVG 1.1//EN" "http://www.w3.org/Graphics/SVG/1.1/DTD/svg11.dtd" >
<svg xmlns="http://www.w3.org/2000/svg" xmlns:xlink="http://www.w3.org/1999/xlink" version="1.1">
<metadata>
Created by FontForge 20190801 at Wed Feb 19 10:36:51 2014
 By www-data
Copyright (c) 2011 by Radim Pesko. All rights reserved.
</metadata>
<defs>
<font id="AgipoRegular" horiz-adv-x="335" >
  <font-face 
    font-family="AgipoRegular"
    font-weight="400"
    font-stretch="normal"
    units-per-em="1000"
    panose-1="2 0 5 3 4 0 0 2 0 3"
    ascent="722"
    descent="-278"
    x-height="502"
    cap-height="722"
    bbox="-130 -246 984 1128"
    underline-thickness="50"
    underline-position="-100"
    unicode-range="U+000D-FB04"
  />
<missing-glyph horiz-adv-x="500" 
 />
    <glyph glyph-name="f_f" unicode="ff" horiz-adv-x="590" 
d="M555 725v-74q-42 7 -62 -14.5t-20 -58.5v-76h92v-73h-92v-429h-93v429h-179v-429h-93v429h-83v73h83v73q0 70 37 112t103 42q23 0 36 -4v-73q-42 7 -62.5 -14.5t-20.5 -58.5v-77h179v73q0 71 35.5 112.5t104.5 41.5q22 0 35 -4z" />
    <glyph glyph-name="f_i" unicode="fi" horiz-adv-x="542" 
d="M383 0v429h-182v-429h-93v429h-83v73h83v73q0 70 37 112t103 42q23 0 36 -4v-73q-42 7 -62.5 -14.5t-20.5 -58.5v-77h273v-502h-91zM489 661q0 27 -17.5 44t-43.5 17q-27 0 -44.5 -17t-17.5 -44t17.5 -43.5t44.5 -16.5t44 16.5t17 43.5z" />
    <glyph glyph-name="f_l" unicode="fl" horiz-adv-x="537" 
d="M380 0v519l6 131q-48 5 -95 5q-48 0 -69 -19.5t-21 -62.5v-71h102v-73h-102v-429h-93v429h-83v73h83v73q0 73 39.5 113.5t112.5 40.5q18 0 66.5 -3.5t63.5 -3.5h82v-722h-92z" />
    <glyph glyph-name="f_f_i" unicode="ffi" horiz-adv-x="815" 
d="M656 0v429h-182v-429h-93v429h-180v-429h-93v429h-83v73h83v73q0 70 37 112t103 42q23 0 36 -4v-73q-42 7 -62.5 -14.5t-20.5 -58.5v-77h180v73q0 71 35.5 112.5t104.5 41.5q22 0 35 -4v-74q-42 7 -62 -14.5t-20 -58.5v-76h273v-502h-91zM762 661q0 27 -17.5 44t-43.5 17
q-27 0 -44.5 -17t-17.5 -44t17.5 -43.5t44.5 -16.5t44 16.5t17 43.5z" />
    <glyph glyph-name="f_f_l" unicode="ffl" horiz-adv-x="810" 
d="M653 0v519l6 131q-48 5 -95 5q-48 0 -69 -19.5t-21 -62.5v-71h102v-73h-102v-429h-93v429h-180v-429h-93v429h-83v73h83v73q0 70 37 112t103 42q23 0 36 -4v-73q-42 7 -62.5 -14.5t-20.5 -58.5v-77h180v73q0 73 39.5 113.5t112.5 40.5q7 0 130 -7h82v-722h-92z" />
    <glyph glyph-name=".notdef" horiz-adv-x="500" 
 />
    <glyph glyph-name=".null" horiz-adv-x="0" 
 />
    <glyph glyph-name=".null" horiz-adv-x="0" 
 />
    <glyph glyph-name="nonmarkingreturn" horiz-adv-x="333" 
 />
    <glyph glyph-name="CR" unicode="&#xd;" horiz-adv-x="0" 
 />
    <glyph glyph-name="space" unicode=" " horiz-adv-x="260" 
 />
    <glyph glyph-name="exclam" unicode="!" horiz-adv-x="373" 
d="M244 722l-21 -524h-73l-17 524h111zM114 71q0 30 21 51t51 21t51 -21t21 -51t-21 -50.5t-51 -20.5t-51 20.5t-21 50.5z" />
    <glyph glyph-name="quotedbl" unicode="&#x22;" horiz-adv-x="400" 
d="M73 692h86l-7 -255h-64zM326 692h-86l7 -255h64z" />
    <glyph glyph-name="numbersign" unicode="#" horiz-adv-x="540" 
d="M25 197v69h93l23 149h-83v69h94l30 208h71l-31 -208h141l31 208h71l-31 -208h81v-69h-92l-22 -149h81v-69h-91l-30 -197h-72l31 197h-141l-30 -197h-71l31 197h-84zM189 266h141l23 149h-142z" />
    <glyph glyph-name="dollar" unicode="$" horiz-adv-x="550" 
d="M242 757h61v-65q84 -8 136 -55.5t59 -134.5h-94q-7 94 -101 112v-226q104 -26 157.5 -73.5t53.5 -125.5q0 -81 -57 -131t-154 -58v-131h-61v131q-40 4 -73.5 16t-64.5 35t-49 64t-19 96h96q0 -113 110 -130v230q-88 23 -141 72t-53 125q0 78 53.5 127t140.5 57v65z
M420 179q0 45 -28 72.5t-89 44.5v-216q61 6 89 35t28 64zM140 512q0 -77 102 -108v210q-48 -5 -75 -33.5t-27 -68.5z" />
    <glyph glyph-name="percent" unicode="%" horiz-adv-x="930" 
d="M240 692q70 0 112 -54.5t42 -131.5q0 -79 -43 -132t-111 -53t-111 53t-43 132q0 77 42 131.5t112 54.5zM240 381q30 0 48.5 23t24 48.5t5.5 52.5q0 26 -5.5 53t-24.5 51.5t-48 24.5t-48 -24.5t-24.5 -51.5t-5.5 -53q0 -27 5.5 -52.5t24 -48.5t48.5 -23zM264 -33h-75
l474 755h75zM690 371q70 0 112 -54.5t42 -131.5q0 -79 -43 -132t-111 -53t-111 53t-43 132q0 77 42 131.5t112 54.5zM690 60q30 0 48.5 23t24 48.5t5.5 52.5q0 26 -5.5 53t-24.5 51.5t-48 24.5t-48 -24.5t-24.5 -51.5t-5.5 -53q0 -27 5.5 -52.5t24 -48.5t48.5 -23z" />
    <glyph glyph-name="ampersand" unicode="&#x26;" horiz-adv-x="790" 
d="M303 452l225 -236q36 98 19 194h94q11 -138 -53 -257l147 -153h-118l-78 81q-88 -100 -216 -100q-104 0 -169 63t-65 154q0 70 40.5 126.5t101.5 86.5q-86 73 -86 161q0 70 52.5 116.5t138.5 46.5t138 -53t55 -131h-95q0 49 -28.5 80.5t-72.5 31.5q-42 0 -69.5 -24
t-27.5 -66q0 -31 16 -57.5t51 -63.5zM329 60q97 0 157 77l-202 212q-48 -19 -75 -60.5t-27 -86.5q0 -66 42.5 -104t104.5 -38z" />
    <glyph glyph-name="quotesingle" unicode="'" horiz-adv-x="280" 
d="M96 692h88l-10 -255h-68z" />
    <glyph glyph-name="parenleft" unicode="(" horiz-adv-x="330" 
d="M75 318q0 209 135 429h74q-121 -220 -121 -429q0 -217 121 -429h-74q-135 220 -135 429z" />
    <glyph glyph-name="parenright" unicode=")" horiz-adv-x="330" 
d="M255 318q0 -209 -135 -429h-74q121 212 121 429q0 209 -121 429h74q135 -220 135 -429z" />
    <glyph glyph-name="asterisk" unicode="*" horiz-adv-x="545" 
d="M235 722h75l-19 -174l140 103l40 -65l-160 -68l158 -73l-37 -68l-141 107l14 -168h-73l22 171l-142 -103l-36 66l157 68l-158 70l37 67l142 -106z" />
    <glyph glyph-name="plus" unicode="+" horiz-adv-x="570" 
d="M245 0v212h-215v78h215v212h80v-212h215v-78h-215v-212h-80z" />
    <glyph glyph-name="comma" unicode="," horiz-adv-x="280" 
d="M207 37q-19 -69 -83 -135h-73q66 52 93 98q3 5 1 10t-9 5q-30 0 -50 19.5t-20 49.5t21 49.5t51 19.5t51 -19t22 -50q2 -24 -4 -47z" />
    <glyph glyph-name="hyphen" unicode="-" horiz-adv-x="350" 
d="M45 225v76h260v-76h-260z" />
    <glyph glyph-name="period" unicode="." horiz-adv-x="280" 
d="M68 71q0 30 21 51t51 21t51 -21t21 -51t-21 -50.5t-51 -20.5t-51 20.5t-21 50.5z" />
    <glyph glyph-name="slash" unicode="/" horiz-adv-x="292" 
d="M-20 -96l254 818h78l-255 -818h-77z" />
    <glyph glyph-name="zero" unicode="0" horiz-adv-x="540" 
d="M41 339q0 39 4.5 80.5t19.5 95.5t39 95t67 69.5t99 28.5q51 0 92 -24t66 -61t41.5 -85.5t23 -93.5t6.5 -89q0 -63 -11.5 -123.5t-36.5 -118t-72 -92.5t-111 -35q-59 0 -105 33t-71.5 86.5t-38 113t-12.5 120.5zM137 344q0 -122 33.5 -199t98.5 -77q37 0 64 25.5
t41.5 67.5t21.5 88.5t7 96.5q0 127 -35 204.5t-97 77.5q-40 0 -67.5 -26t-41.5 -70.5t-19.5 -90t-5.5 -97.5z" />
    <glyph glyph-name="one" unicode="1" horiz-adv-x="450" 
d="M236 0v598h-6q-23 -41 -97.5 -157t-112.5 -158v141q36 42 99.5 134.5t86.5 134.5h124v-693h-94z" />
    <glyph glyph-name="two" unicode="2" horiz-adv-x="540" 
d="M470 0h-409q-3 44 0 74q8 87 46 139t104 93q44 27 99 70q73 55 73 134q0 48 -30 82t-80 34q-65 0 -94 -46.5t-22 -104.5h-97q-8 99 52 166t163 67q91 0 148 -58.5t57 -143.5q0 -115 -114 -200q-46 -34 -111 -72q-22 -13 -36.5 -23.5t-34 -30t-28.5 -44.5t-7 -55h321v-81z
" />
    <glyph glyph-name="three" unicode="3" horiz-adv-x="540" 
d="M38 197h98q-1 -59 33 -95.5t90 -36.5q52 0 84 31t32 82q0 69 -43.5 100.5t-107.5 34.5l-45 2v76l36 2q65 4 111.5 32.5t46.5 93.5q0 53 -32 81t-77 28q-46 0 -79 -28.5t-34 -80.5h-96q2 43 18.5 77.5t39.5 55t51.5 33.5t52.5 18t46 5q98 0 153 -55t55 -132
q0 -50 -32.5 -94t-97.5 -68v-6q67 -20 99.5 -68.5t32.5 -102.5q0 -82 -59 -140.5t-157 -58.5q-90 0 -154 58.5t-65 155.5z" />
    <glyph glyph-name="four" unicode="4" horiz-adv-x="540" 
d="M325 0v150h-293v110q123 196 261 440h128v-470h79v-80h-79v-150h-96zM110 229h219v373h-6q-45 -81 -98.5 -172.5t-84.5 -143.5l-30 -51v-6z" />
    <glyph glyph-name="five" unicode="5" horiz-adv-x="540" 
d="M63 194h96q-2 -55 28.5 -91t76.5 -36q61 0 94 49t33 120q0 75 -28.5 120t-78.5 45q-40 0 -72.5 -23.5t-46.5 -60.5h-76v375h374v-81h-290l-10 -192h6q50 60 131 60q90 0 138 -69.5t48 -167.5q0 -113 -61 -185t-163 -72q-84 0 -141 58.5t-58 150.5z" />
    <glyph glyph-name="six" unicode="6" horiz-adv-x="521" 
d="M458 529h-94q2 46 -17.5 74.5t-62.5 28.5q-65 0 -109.5 -74t-45.5 -205h6q19 34 59 61t96 27q76 0 131.5 -59t55.5 -163t-58 -169t-148 -65q-106 0 -168.5 96.5t-62.5 237.5q0 49 6.5 98.5t24 103t44.5 94t71 67t100 26.5q92 0 134.5 -56.5t37.5 -122.5zM271 65
q46 0 79 40.5t33 105.5q0 68 -29 109t-78 42t-87 -35t-40 -82q0 -73 32 -126.5t90 -53.5z" />
    <glyph glyph-name="seven" unicode="7" horiz-adv-x="505" 
d="M20 609v83h432v-96l-265 -596h-103q166 356 284 603v6h-348z" />
    <glyph glyph-name="eight" unicode="8" horiz-adv-x="540" 
d="M270 395q52 0 87 34.5t35 85.5q0 50 -34.5 82.5t-87.5 32.5t-87.5 -32.5t-34.5 -82.5q0 -51 35 -85.5t87 -34.5zM270 69q57 0 93 35.5t36 83.5q0 55 -37 89t-92 34t-92 -34t-37 -89q0 -48 36 -83.5t93 -35.5zM270 706q100 0 157.5 -57.5t57.5 -127.5q0 -52 -26.5 -95
t-77.5 -67v-6q44 -18 79.5 -62t35.5 -108q0 -79 -63 -137t-163 -58t-163 58t-63 137q0 64 35.5 108t79.5 62v6q-51 24 -77.5 67t-26.5 95q0 70 57.5 127.5t157.5 57.5z" />
    <glyph glyph-name="nine" unicode="9" horiz-adv-x="540" 
d="M48 192h96q-3 -59 25 -94t76 -35q67 0 107.5 72t36.5 211h-6q-53 -83 -150 -83q-76 0 -132 57.5t-56 159.5q0 99 60.5 163.5t149.5 64.5q108 0 167 -96t59 -243q0 -67 -9.5 -126.5t-33.5 -121.5t-74 -99t-121 -37q-94 0 -146.5 66t-48.5 141zM252 627q-48 0 -81 -39
t-33 -104q0 -66 29.5 -102t80.5 -37q49 -1 85.5 34t38.5 81q0 73 -30 120t-90 47z" />
    <glyph glyph-name="colon" unicode=":" horiz-adv-x="280" 
d="M68 71q0 30 21 51t51 21t51 -21t21 -51t-21 -50.5t-51 -20.5t-51 20.5t-21 50.5zM68 430q0 30 21 51t51 21t51 -21t21 -51t-21 -50.5t-51 -20.5t-51 20.5t-21 50.5z" />
    <glyph glyph-name="semicolon" unicode=";" horiz-adv-x="280" 
d="M207 37q-19 -69 -83 -135h-73q66 52 93 98q3 5 1 10t-9 5q-30 0 -50 19.5t-20 49.5t21 49.5t51 19.5t51 -19t22 -50q2 -24 -4 -47zM68 430q0 30 21 51t51 21t51 -21t21 -51t-21 -50.5t-51 -20.5t-51 20.5t-21 50.5z" />
    <glyph glyph-name="less" unicode="&#x3c;" horiz-adv-x="570" 
d="M30 211v82l510 202v-84l-415 -156v-6l415 -155v-85z" />
    <glyph glyph-name="equal" unicode="=" horiz-adv-x="570" 
d="M30 315v77h510v-77h-510zM30 113v77h510v-77h-510z" />
    <glyph glyph-name="greater" unicode="&#x3e;" horiz-adv-x="570" 
d="M540 293v-82l-510 -202v85l415 155v6l-415 156v84z" />
    <glyph glyph-name="question" unicode="?" horiz-adv-x="500" 
d="M145 519h-94q-3 55 14.5 97.5t47.5 66.5t66 36t75 12q85 0 143 -52.5t58 -137.5q0 -58 -29.5 -104t-86.5 -91q-62 -50 -57 -130l1 -18h-83l-1 20q-3 64 17.5 104.5t69.5 86.5q38 35 55.5 64t17.5 65q0 53 -30.5 83.5t-75.5 30.5q-50 0 -82.5 -34t-25.5 -99zM171 71
q0 30 21 51t51 21t51 -21t21 -51t-21 -50.5t-51 -20.5t-51 20.5t-21 50.5z" />
    <glyph glyph-name="at" unicode="@" horiz-adv-x="860" 
d="M611 332v67q0 54 -31 83t-88 29q-135 0 -230.5 -89t-95.5 -231q0 -140 93.5 -219.5t231.5 -79.5q95 0 161.5 32.5t124.5 92.5l48 -61q-142 -135 -335 -135q-168 0 -286.5 99.5t-118.5 269.5q0 87 34.5 161t92 123t130 76t150.5 27q91 0 147 -46.5t56 -132.5v-264l2 -72
h-88l2 62h-6q-72 -77 -159 -77q-70 0 -109.5 42t-39.5 108q0 68 46 110t122 43q72 1 146 -18zM610 189v86q-74 13 -128 12q-46 0 -71 -24.5t-25 -60.5q0 -39 25 -62.5t71 -22.5q70 1 128 72z" />
    <glyph glyph-name="A" unicode="A" horiz-adv-x="635" 
d="M453 183h-274l-58 -183h-101l238 722h110l247 -722h-101zM204 264h222l-110 344h-6z" />
    <glyph glyph-name="B" unicode="B" horiz-adv-x="564" 
d="M70 0v722h180q106 0 173 -53t67 -141q0 -64 -35.5 -104.5t-75.5 -53.5v-6q44 -8 89.5 -51t45.5 -114q0 -95 -68 -147t-180 -52h-196zM167 322v-241l105 1q62 0 101.5 31.5t39.5 87.5q0 50 -40 84.5t-100 35.5zM166 640v-236l83 1q21 0 41 4.5t45 15.5t40.5 36t15.5 61
q0 60 -43.5 88.5t-94.5 28.5z" />
    <glyph glyph-name="C" unicode="C" horiz-adv-x="700" 
d="M654 502h-103q-3 59 -46.5 103t-121.5 44q-112 0 -177 -81.5t-65 -209.5q0 -118 63 -200t179 -82q81 0 129 44.5t51 104.5h102q-12 -105 -92 -171t-191 -66q-71 0 -130 23.5t-97.5 61.5t-65 87t-38 98.5t-11.5 98.5q0 68 21 133t61.5 120t108 88.5t151.5 33.5
q111 0 187 -63.5t85 -166.5z" />
    <glyph glyph-name="D" unicode="D" horiz-adv-x="681" 
d="M70 0v722h172q172 0 285.5 -97.5t113.5 -269.5q0 -158 -109 -256.5t-297 -98.5h-165zM170 639v-557l68 1q141 2 220 75t79 196q0 122 -76.5 202.5t-213.5 81.5z" />
    <glyph glyph-name="E" unicode="E" horiz-adv-x="538" 
d="M70 0v722h417v-85h-318v-225h304v-84h-303v-240h328v-88h-428z" />
    <glyph glyph-name="F" unicode="F" horiz-adv-x="503" 
d="M70 0v722h403v-85h-301v-238h284v-84h-284v-315h-102z" />
    <glyph glyph-name="G" unicode="G" horiz-adv-x="733" 
d="M670 502h-106q-2 65 -49 109t-122 44q-117 0 -183.5 -83.5t-66.5 -211.5q0 -137 60 -215.5t178 -78.5q94 0 153.5 53.5t58.5 140.5l-298 -29v99h394l-2 -57q-5 -137 -93 -212.5t-215 -75.5q-161 0 -250 106t-89 268q0 156 96 265t257 109q112 0 191 -65t86 -166z" />
    <glyph glyph-name="H" unicode="H" horiz-adv-x="689" 
d="M70 722h100v-314h349v314h100v-722h-100v322h-349v-322h-100v722z" />
    <glyph glyph-name="I" unicode="I" horiz-adv-x="240" 
d="M70 0v722h100v-722h-100z" />
    <glyph glyph-name="J" unicode="J" horiz-adv-x="498" 
d="M20 210h101q-1 -59 23 -98t77 -39t80 36.5t27 102.5v510h100v-510q0 -104 -58 -163.5t-151 -59.5t-146 62t-53 159z" />
    <glyph glyph-name="K" unicode="K" horiz-adv-x="610" 
d="M70 0v722h99v-340h6l275 340h123l-297 -350l324 -372h-126l-299 349h-6v-349h-99z" />
    <glyph glyph-name="L" unicode="L" horiz-adv-x="485" 
d="M70 0v722h99v-633l296 1v-90h-395z" />
    <glyph glyph-name="M" unicode="M" horiz-adv-x="910" 
d="M50 0l99 722h124l182 -566h6l177 566h123l99 -722h-102l-70 573h-7l-188 -586h-73l-192 586h-7l-69 -573h-102z" />
    <glyph glyph-name="N" unicode="N" horiz-adv-x="750" 
d="M70 0v722h99l413 -566h6v566h92v-722h-100l-413 569h-6v-569h-91z" />
    <glyph glyph-name="O" unicode="O" horiz-adv-x="796" 
d="M756 362q0 -172 -105 -275.5t-255 -103.5q-149 0 -252.5 106.5t-103.5 276.5q0 99 42.5 183.5t125.5 138t189 53.5q160 0 259.5 -110.5t99.5 -268.5zM652 363q0 133 -72 213.5t-184 80.5q-113 0 -182.5 -84.5t-69.5 -208.5q0 -129 69 -212.5t183 -83.5q120 0 188 85
t68 210z" />
    <glyph glyph-name="P" unicode="P" horiz-adv-x="562" 
d="M70 0v722h188q117 0 195.5 -57.5t78.5 -163.5q0 -111 -81.5 -169t-202.5 -58h-78v-274h-100zM169 641v-283l79 1q29 0 56.5 6t57 20.5t47.5 44t18 71.5q0 40 -17.5 69t-45 43t-53.5 20.5t-51 6.5z" />
    <glyph glyph-name="Q" unicode="Q" horiz-adv-x="815" 
d="M40 360q0 172 105 275.5t255 103.5t253 -106.5t103 -276.5q0 -129 -77 -233q55 -35 101 -44l-39 -79q-49 6 -122 60q-91 -75 -220 -75q-160 0 -259.5 108.5t-99.5 266.5zM144 361q0 -133 72 -215.5t184 -82.5q96 0 153 55q-90 86 -198 106l42 79q108 -17 213 -122
q45 71 45 177q0 129 -70.5 213.5t-184.5 84.5q-120 0 -188 -85t-68 -210z" />
    <glyph glyph-name="R" unicode="R" horiz-adv-x="598" 
d="M70 0v722h170q112 0 190 -52t78 -149q0 -78 -55 -128.5t-138 -64.5l283 -328h-125l-267 316h-37v-316h-99zM167 638v-238l75 1q67 1 115 29.5t48 87.5q0 63 -48.5 90.5t-115.5 28.5z" />
    <glyph glyph-name="S" unicode="S" horiz-adv-x="596" 
d="M40 218h104q0 -24 7 -46.5t22.5 -47.5t49 -40.5t80.5 -15.5q79 0 115 37t36 80q0 56 -39 83t-133 48q-104 23 -167.5 76t-63.5 138q0 98 68.5 154t172.5 56q103 0 170.5 -55t73.5 -155h-103q-4 63 -44.5 95t-98.5 32q-62 0 -100.5 -35t-38.5 -87q0 -29 12.5 -51
t38.5 -36.5t53.5 -24t68.5 -18.5q113 -26 172.5 -74.5t59.5 -134.5q0 -96 -70.5 -154.5t-190.5 -58.5q-46 0 -88 12t-80.5 38t-62 73.5t-24.5 111.5z" />
    <glyph glyph-name="T" unicode="T" horiz-adv-x="565" 
d="M333 0h-99v637h-214v85h525v-85h-212v-637z" />
    <glyph glyph-name="U" unicode="U" horiz-adv-x="673" 
d="M70 722h100v-454q0 -101 44.5 -147.5t122.5 -46.5q169 0 169 195v453h97v-451q0 -149 -74 -217.5t-192 -68.5q-123 0 -195 71.5t-72 212.5v453z" />
    <glyph glyph-name="V" unicode="V" horiz-adv-x="624" 
d="M604 722l-224 -722h-117l-243 722h110l190 -607h6l177 607h101z" />
    <glyph glyph-name="W" unicode="W" horiz-adv-x="960" 
d="M30 722h109l120 -585h6l157 585h121l156 -585h6l124 585h101l-170 -722h-119l-157 599h-6l-162 -599h-118z" />
    <glyph glyph-name="X" unicode="X" horiz-adv-x="618" 
d="M29 722h122l156 -268h6l152 268h118l-214 -346l229 -376h-120l-167 290h-6l-164 -290h-121l227 374z" />
    <glyph glyph-name="Y" unicode="Y" horiz-adv-x="587" 
d="M347 266v-266h-101v266q0 14 -14 18l-217 438h118l163 -366h6l160 366h110l-212 -438q-13 -5 -13 -18z" />
    <glyph glyph-name="Z" unicode="Z" horiz-adv-x="542" 
d="M30 0v98l376 530v6h-356v88h462v-103l-373 -525v-6h367v-88h-476z" />
    <glyph glyph-name="bracketleft" unicode="[" horiz-adv-x="330" 
d="M100 -129v877h175v-56h-96v-765h96v-56h-175z" />
    <glyph glyph-name="backslash" unicode="\" horiz-adv-x="332" 
d="M78 722l254 -818h-77l-255 818h78z" />
    <glyph glyph-name="bracketright" unicode="]" horiz-adv-x="330" 
d="M230 748v-877h-175v56h96v765h-96v56h175z" />
    <glyph glyph-name="asciicircum" unicode="^" horiz-adv-x="570" 
d="M70 274l178 418h74l178 -418h-84l-128 320h-6l-128 -320h-84z" />
    <glyph glyph-name="underscore" unicode="_" horiz-adv-x="490" 
d="M0 -87v68h490v-68h-490z" />
    <glyph glyph-name="grave" unicode="`" horiz-adv-x="330" 
d="M50 669l41 73l189 -121l-35 -58z" />
    <glyph glyph-name="a" unicode="a" horiz-adv-x="523" 
d="M467 0h-95q4 41 4 64h-5q-72 -77 -169 -77q-73 0 -115 42.5t-42 110.5q0 70 48.5 115t127.5 46q73 1 152 -22v54q0 54 -28.5 83t-82.5 29q-52 0 -80 -26t-26 -63h-101q15 70 68.5 115t138.5 45q89 0 144 -46t55 -137v-250q0 -56 6 -83zM371 133v89q-74 15 -131 14
q-48 -1 -75.5 -26t-27.5 -65q0 -41 25 -63.5t72 -22.5q40 0 77.5 23.5t59.5 50.5z" />
    <glyph glyph-name="b" unicode="b" horiz-adv-x="562" 
d="M160 722v-220l-1 -68h6q52 81 148 81t152.5 -75t56.5 -187q0 -110 -59 -186t-161 -76q-92 0 -146 83h-6q0 -53 -1 -74h-85q2 40 2 74v648h94zM424 253q0 83 -33.5 136.5t-99.5 53.5q-55 0 -92 -43.5t-39 -89.5v-122q3 -43 40 -83.5t86 -40.5q67 0 102.5 51t35.5 138z" />
    <glyph glyph-name="c" unicode="c" horiz-adv-x="521" 
d="M486 341h-97q-3 35 -31.5 68t-79.5 33q-68 0 -103.5 -54t-35.5 -138q0 -81 37 -134.5t103 -53.5q49 0 79 31.5t38 74.5h95q-14 -78 -69 -129.5t-143 -51.5q-107 0 -173 74.5t-66 187.5q0 120 68.5 193t171.5 73q81 0 139.5 -50t66.5 -124z" />
    <glyph glyph-name="d" unicode="d" horiz-adv-x="561" 
d="M402 502v220h94v-648q0 -54 2 -74h-85q-1 21 -1 74h-6q-54 -83 -149 -83q-101 0 -159 76t-58 186q0 112 56.5 187t152.5 75t148 -81h6q-1 34 -1 68zM138 253q0 -87 35.5 -138t102.5 -51q49 0 86 40.5t40 83.5v122q-2 46 -39 89.5t-92 43.5q-66 0 -99.5 -53.5
t-33.5 -136.5z" />
    <glyph glyph-name="e" unicode="e" horiz-adv-x="533" 
d="M491 238h-358q1 -81 39 -130.5t108 -49.5q46 0 78.5 27t41.5 70h92q-9 -68 -67 -119t-150 -51q-106 0 -170.5 74t-64.5 196q0 109 63 184.5t166 75.5q53 0 94.5 -17.5t67 -46t41 -65.5t19.5 -74t0 -74zM137 306l261 2q0 20 -5.5 42t-19 45t-40 37.5t-62.5 14.5
q-52 0 -89.5 -37t-44.5 -104z" />
    <glyph glyph-name="f" unicode="f" horiz-adv-x="318" 
d="M283 725v-74q-42 7 -62 -14.5t-20 -58.5v-76h92v-73h-92v-429h-93v429h-83v73h83v73q0 71 35.5 112.5t104.5 41.5q22 0 35 -4z" />
    <glyph glyph-name="g" unicode="g" horiz-adv-x="564" 
d="M136 262q0 -85 37 -133.5t101 -48.5q49 0 85 37t41 80v123q-2 45 -39 83.5t-89 38.5q-68 0 -102 -50.5t-34 -129.5zM494 376v-359q0 -106 -60 -162t-156 -56q-99 0 -149 51t-58 114h95q4 -44 34 -72t79 -28q123 0 123 145l1 79h-6q-20 -36 -58 -58t-82 -22
q-102 0 -159.5 70.5t-57.5 177.5q0 110 59 181.5t155 71.5q59 0 94 -24t50 -51h6q1 5 4 29.5t6 38.5h90q-10 -46 -10 -126z" />
    <glyph glyph-name="h" unicode="h" horiz-adv-x="556" 
d="M65 0v722h93v-220q0 -40 -1 -86h6q10 17 26 35.5t53.5 39t80.5 20.5q19 0 39 -4t44 -16.5t42 -32t30.5 -53.5t12.5 -78v-327h-96v329q0 52 -23 81t-65 29q-51 0 -91.5 -41.5t-55.5 -105.5v-292h-95z" />
    <glyph glyph-name="i" unicode="i" horiz-adv-x="224" 
d="M65 0v502h94v-502h-94zM51 661q0 27 17.5 44t43.5 17q27 0 44.5 -17t17.5 -44t-17.5 -43.5t-44.5 -16.5t-44 16.5t-17 43.5z" />
    <glyph glyph-name="j" unicode="j" horiz-adv-x="233" 
d="M0 -193v71q38 0 55 18t17 68v538h94v-535q0 -27 -5 -51.5t-17 -52t-39.5 -44t-66.5 -16.5q-22 0 -38 4zM57 661q0 27 17.5 44t43.5 17q27 0 44.5 -17t17.5 -44t-17.5 -43.5t-44.5 -16.5t-44 16.5t-17 43.5z" />
    <glyph glyph-name="k" unicode="k" horiz-adv-x="500" 
d="M65 0v722h93v-443h6l208 224h120l-232 -235l240 -268h-119l-217 251h-6v-251h-93z" />
    <glyph glyph-name="l" unicode="l" horiz-adv-x="224" 
d="M159 519v-519h-94v722h84z" />
    <glyph glyph-name="m" unicode="m" horiz-adv-x="856" 
d="M385 0v343q0 48 -22 72.5t-58 24.5q-48 0 -89.5 -43t-54.5 -108v-289h-95v413q0 57 -6 89h98l1 -89h6q7 13 16 25.5t28 32.5t49 32t65 12q104 0 139 -102h6q11 19 21 32t29 31.5t47 28.5t63 10q28 0 54.5 -8t53.5 -26.5t43.5 -56t16.5 -89.5v-335h-95v345q0 47 -24 71.5
t-61 24.5q-43 0 -80 -37.5t-56 -102.5v-301h-95z" />
    <glyph glyph-name="n" unicode="n" horiz-adv-x="551" 
d="M65 0v416q0 50 -5 86h97v-86h6q10 17 27 36t54.5 39.5t80.5 20.5q26 0 52 -8t53 -27t44 -57.5t17 -92.5v-327h-96v329q0 52 -23 81t-65 29q-51 0 -91.5 -41.5t-55.5 -105.5v-292h-95z" />
    <glyph glyph-name="o" unicode="o" horiz-adv-x="578" 
d="M40 251q0 36 9.5 72t29.5 71t48.5 61.5t71 43t92.5 16.5q61 0 110.5 -25t78 -65.5t43.5 -85.5t15 -89q0 -107 -66.5 -187t-180.5 -80q-115 0 -183 78.5t-68 189.5zM138 251q0 -84 39 -140.5t113 -56.5q63 0 106.5 50.5t43.5 147.5q0 91 -43 141.5t-107 50.5
q-60 0 -106 -45.5t-46 -147.5z" />
    <glyph glyph-name="p" unicode="p" horiz-adv-x="561" 
d="M159 0v-193h-94v621q0 34 -2 74h88q1 -19 1 -75h6q55 84 149 84q100 0 157 -76t57 -186q0 -112 -56.5 -187t-152.5 -75t-148 81h-6q1 -35 1 -68zM423 249q0 87 -35 138t-102 51q-49 0 -86.5 -41t-40.5 -84v-121q2 -46 39 -89.5t92 -43.5q66 0 99.5 53.5t33.5 136.5z" />
    <glyph glyph-name="q" unicode="q" horiz-adv-x="562" 
d="M402 -193v193q0 32 1 68h-6q-52 -81 -148 -81t-152.5 75t-56.5 187q0 110 58 186t158 76q92 0 147 -84h6q0 51 2 75h89q-4 -31 -4 -74v-621h-94zM138 249q0 -83 33.5 -136.5t99.5 -53.5q55 0 92 43.5t39 89.5v121q-3 43 -40.5 84t-86.5 41q-67 0 -102 -51t-35 -138z" />
    <glyph glyph-name="r" unicode="r" horiz-adv-x="375" 
d="M65 0v371q0 79 -6 131h90l5 -131h6q14 54 54.5 96.5t91.5 42.5q34 0 64 -14v-86q-26 13 -56 13q-68 0 -109 -58t-45 -142v-223h-95z" />
    <glyph glyph-name="s" unicode="s" horiz-adv-x="463" 
d="M40 149h97q0 -35 25.5 -63t74.5 -28q42 0 68 20.5t26 53.5q0 31 -26.5 50.5t-81.5 33.5q-179 44 -179 153q0 67 51 106t133 39q74 0 125 -40t55 -110h-95q-2 37 -27 59t-61 22t-62 -17t-26 -52q0 -30 28.5 -49t86.5 -32q176 -41 176 -154q0 -70 -55 -112t-140 -42
q-77 0 -133 41.5t-60 120.5z" />
    <glyph glyph-name="t" unicode="t" horiz-adv-x="355" 
d="M20 430v72h82l17 150h74v-150h142v-72h-142v-283q0 -72 69 -72q38 0 73 15v-74q-35 -25 -84 -25q-72 0 -111.5 41t-39.5 114v284h-80z" />
    <glyph glyph-name="u" unicode="u" horiz-adv-x="563" 
d="M399 502h97v-416q0 -50 7 -86h-97q-3 31 -1 87h-6q-9 -16 -24.5 -34.5t-54 -39t-84.5 -20.5q-28 0 -55.5 8.5t-54.5 28.5t-44 59t-17 93v320h96v-321q0 -52 24 -82t71 -30q51 0 91 41t52 106v286z" />
    <glyph glyph-name="v" unicode="v" horiz-adv-x="507" 
d="M204 0l-184 502h101l138 -410h6l126 410h96l-168 -502h-115z" />
    <glyph glyph-name="w" unicode="w" horiz-adv-x="826" 
d="M707 502h99l-164 -502h-111l-119 415h-6l-125 -415h-108l-153 502h97l106 -400h6l122 400h122l111 -400h6z" />
    <glyph glyph-name="x" unicode="x" horiz-adv-x="505" 
d="M310 261l170 -261h-108l-117 194h-6l-115 -194h-109l168 256l-156 246h110l102 -181h6l107 181h107z" />
    <glyph glyph-name="y" unicode="y" horiz-adv-x="510" 
d="M490 502q-173 -524 -203 -602q-39 -102 -142 -102q-38 0 -66 10v80q25 -9 54 -9q46 0 66 41q21 44 30 80q4 16 -4.5 25.5t-24.5 8.5l-180 468h104l140 -398h6l122 398h98z" />
    <glyph glyph-name="z" unicode="z" horiz-adv-x="455" 
d="M30 0v89l293 336v6h-285v71h387v-82l-298 -341v-6h298v-73h-395z" />
    <glyph glyph-name="braceleft" unicode="{" horiz-adv-x="330" 
d="M30 276v70q44 2 70 15t33 32t9 42.5t-3 46.5q-1 4 -1 6l-7 62q-10 93 33 148t149 57v-63q-40 -4 -64.5 -17t-31.5 -32.5t-8.5 -43.5t3.5 -49l7 -62q3 -41 1.5 -76.5t-31.5 -62.5t-90 -35v-6q46 -6 74 -23t37 -40.5t11.5 -52.5t-2.5 -58l-7 -63q-2 -35 -2 -64.5t25 -51
t78 -26.5v-63q-106 2 -149 57t-33 148l7 63q7 67 -3 91q-20 46 -105 51z" />
    <glyph glyph-name="bar" unicode="|" horiz-adv-x="260" 
d="M89 747h82v-930h-82v930z" />
    <glyph glyph-name="braceright" unicode="}" horiz-adv-x="330" 
d="M300 346v-70q-99 -5 -110 -70q-4 -20 2 -72l7 -63q10 -93 -33 -148t-149 -57v63q53 5 78 26.5t25 51t-2 64.5l-7 63q-5 29 -2.5 58t11.5 52.5t37 40.5t74 23v6q-60 8 -90 35t-31.5 62.5t1.5 76.5l7 62q5 25 3.5 49t-8.5 43.5t-31.5 32.5t-64.5 17v63q106 -2 149 -57
t33 -148l-7 -62q-7 -67 3 -91q20 -46 105 -51z" />
    <glyph glyph-name="asciitilde" unicode="~" horiz-adv-x="570" 
d="M80 180h-62q15 153 138 153q49 0 140 -36q96 -38 122 -38q59 0 72 69h62q-6 -65 -38 -110.5t-100 -45.5q-57 0 -146 39q-85 37 -116 37q-59 0 -72 -68z" />
    <glyph glyph-name="nbspace" unicode="&#xa0;" horiz-adv-x="260" 
 />
    <glyph glyph-name="exclamdown" unicode="&#xa1;" horiz-adv-x="373" 
d="M223 304l21 -524h-111l17 524h73zM114 431q0 30 21 50.5t51 20.5t51 -20.5t21 -50.5t-21 -51t-51 -21t-51 21t-21 51z" />
    <glyph glyph-name="cent" unicode="&#xa2;" horiz-adv-x="550" 
d="M174 -128h-65l51 146q-55 32 -86 93t-31 138q0 120 69 193t172 73q25 0 53 -7l42 122h65l-51 -145q85 -47 96 -144h-97q-3 38 -29.5 69.5t-80.5 31.5q-68 0 -104.5 -54t-36.5 -138q0 -83 36.5 -135.5t105.5 -52.5q49 0 78 31t38 75h95q-14 -78 -69 -129.5t-143 -51.5
q-36 0 -66 8z" />
    <glyph glyph-name="sterling" unicode="&#xa3;" horiz-adv-x="550" 
d="M136 414v121q0 82 54 134.5t145 52.5q92 0 142 -52.5t53 -136.5h-95q1 51 -25.5 83.5t-74.5 32.5q-49 0 -76.5 -30.5t-27.5 -79.5v-125h166v-67h-166v-268h286v-79h-467v79h84v268h-84v67h86z" />
    <glyph glyph-name="currency" unicode="&#xa4;" horiz-adv-x="540" 
d="M270 550q73 0 131 -43l60 62l55 -55l-61 -60q43 -59 43 -130q0 -74 -43 -132l61 -59l-55 -54l-60 60q-56 -42 -131 -42t-131 42l-60 -60l-55 54l61 59q-43 58 -43 132q0 71 43 130l-61 60l55 55l60 -62q58 43 131 43zM270 174q65 0 107 42t42 108q0 65 -42 107t-107 42
t-107 -42t-42 -107q0 -66 42 -108t107 -42z" />
    <glyph glyph-name="yen" unicode="&#xa5;" horiz-adv-x="550" 
d="M44 345h153l-175 347h106l147 -331h6l147 331h101l-176 -347h154v-62h-182v-58h182v-62h-182v-163h-99v163h-182v62h182v58h-182v62z" />
    <glyph glyph-name="brokenbar" unicode="&#xa6;" horiz-adv-x="260" 
d="M89 157h82v-350h-82v350zM89 692h82v-350h-82v350z" />
    <glyph glyph-name="section" unicode="&#xa7;" horiz-adv-x="540" 
d="M60 336q0 70 75 121q-65 59 -65 134q0 72 54.5 117.5t141.5 45.5q133 0 199 -122l-76 -40q-36 90 -124 90q-54 0 -82 -26t-28 -64q0 -62 66 -103q76 -47 120 -72q68 -38 103 -76t35 -96q0 -68 -75 -121q65 -60 65 -134q0 -72 -54.5 -117.5t-141.5 -45.5q-133 0 -199 122
l76 40q36 -90 124 -90q54 0 82 26t28 64q0 62 -66 103q-76 47 -120 72q-68 38 -103 76t-35 96zM238 232q37 -21 114 -70v1q43 25 43 69q0 38 -21.5 62.5t-72.5 54.5q-41 24 -114 69q-43 -25 -43 -69q0 -38 21.5 -62.5t72.5 -54.5z" />
    <glyph glyph-name="dieresis" unicode="&#xa8;" horiz-adv-x="410" 
d="M50 645q0 27 17.5 44.5t44.5 17.5t45 -17.5t18 -44.5t-18 -44t-45 -17t-44.5 17t-17.5 44zM235 645q0 27 17.5 44.5t44.5 17.5t45 -17.5t18 -44.5t-18 -44t-45 -17t-44.5 17t-17.5 44z" />
    <glyph glyph-name="copyright" unicode="&#xa9;" horiz-adv-x="800" 
d="M570 449h-66q-3 36 -27.5 60.5t-71.5 24.5q-63 0 -99 -47t-36 -123q0 -71 35 -118.5t101 -47.5q48 0 75.5 25.5t29.5 61.5h66q-7 -63 -56 -102t-115 -39q-53 0 -94 21t-63 55t-33 70.5t-11 72.5q0 55 19.5 104t67 83.5t114.5 34.5q66 0 112.5 -37.5t51.5 -98.5zM39 361
q0 151 104.5 256t256.5 105t256.5 -105t104.5 -256t-104.5 -256t-256.5 -105t-256.5 105t-104.5 256zM94 361q0 -130 88.5 -219t217.5 -89t217.5 89t88.5 219t-88.5 219t-217.5 89t-217.5 -89t-88.5 -219z" />
    <glyph glyph-name="ordfeminine" unicode="&#xaa;" horiz-adv-x="370" 
d="M314 393h-62l3 39h-6q-46 -48 -101 -48q-48 0 -76 27t-28 72t32 73t82 28q42 0 96 -13v35q0 33 -18.5 52t-50.5 19q-31 0 -50 -17t-17 -40h-66q8 44 43.5 73t88.5 29q56 0 92 -28.5t36 -86.5v-163zM253 477v57q-45 9 -82 9q-31 -1 -47 -16.5t-16 -40.5t17 -40.5t46 -14.5
q45 1 82 46z" />
    <glyph glyph-name="guillemotleft" unicode="&#xab;" horiz-adv-x="522" 
d="M276 53h-87l-134 200l134 198h86l-127 -198zM472 53h-87l-134 200l134 198h86l-127 -198z" />
    <glyph glyph-name="logicalnot" unicode="&#xac;" horiz-adv-x="570" 
d="M30 316v78h510v-283h-77v205h-433z" />
    <glyph glyph-name="uni00AD" unicode="&#xad;" horiz-adv-x="350" 
d="M45 225v76h260v-76h-260z" />
    <glyph glyph-name="registered" unicode="&#xae;" horiz-adv-x="800" 
d="M39 361q0 151 104.5 256t256.5 105t256.5 -105t104.5 -256t-104.5 -256t-256.5 -105t-256.5 105t-104.5 256zM94 361q0 -130 88.5 -219t217.5 -89t217.5 89t88.5 219t-88.5 219t-217.5 89t-217.5 -89t-88.5 -219zM270 153v426h114q70 0 116 -30.5t46 -89.5
q0 -46 -35 -76.5t-85 -40.5l164 -189h-78l-152 182h-29v-182h-61zM331 528v-143l52 1q41 1 69.5 18t28.5 54q0 67 -98 69z" />
    <glyph glyph-name="macron" unicode="&#xaf;" horiz-adv-x="390" 
d="M50 594v71h290v-71h-290z" />
    <glyph glyph-name="degree" unicode="&#xb0;" horiz-adv-x="402" 
d="M201 692q65 0 110.5 -44.5t45.5 -109.5q0 -64 -45.5 -109t-110.5 -45t-110.5 45t-45.5 109q0 65 45.5 109.5t110.5 44.5zM201 627q-36 0 -62.5 -26t-26.5 -63t26 -63t63 -26t63 26.5t26 62.5q0 37 -26 63t-63 26z" />
    <glyph glyph-name="plusminus" unicode="&#xb1;" horiz-adv-x="570" 
d="M245 130v171h-215v78h215v169h80v-169h215v-78h-215v-171h-80zM540 0h-510v78h510v-78z" />
    <glyph glyph-name="two.sups" unicode="&#xb2;" 
d="M297 457h-267q-2 25 0 43q6 54 31 86.5t68 54.5q32 17 67 40q43 31 43 80q0 28 -19.5 48.5t-51.5 20.5q-42 0 -58.5 -27t-12.5 -62h-61q-5 60 31 99.5t102 39.5q61 0 97.5 -35t36.5 -86q0 -74 -76 -125q-25 -18 -70 -39q-21 -10 -34 -18.5t-25 -27.5t-11 -43h210v-49z
" />
    <glyph glyph-name="three.sups" unicode="&#xb3;" 
d="M21 576h66q0 -35 20 -55.5t55 -20.5q31 0 50.5 18.5t19.5 47.5q0 74 -97 78l-26 1v50l27 2q95 6 95 72q0 31 -19.5 47t-47.5 16q-29 0 -48.5 -15.5t-20.5 -46.5h-63q2 32 16.5 55.5t35.5 35t41 16.5t38 5q63 0 98 -33t35 -78q0 -71 -80 -97v-3q42 -12 62 -41.5t20 -62.5
q0 -49 -36.5 -83.5t-99.5 -34.5q-59 0 -98 35t-43 92z" />
    <glyph glyph-name="acute" unicode="&#xb4;" horiz-adv-x="330" 
d="M239 742l41 -73l-195 -106l-35 58z" />
    <glyph glyph-name="uni00B5" unicode="&#xb5;" horiz-adv-x="563" 
d="M164 16h-6l2 -82v-127h-95v695h96v-321q0 -52 24 -82t71 -30q51 0 91 41t52 106v286h97v-416q0 -50 7 -86h-97q-3 31 -1 87h-6q-8 -16 -24.5 -34.5t-54.5 -39t-81 -20.5q-48 0 -75 23z" />
    <glyph glyph-name="paragraph" unicode="&#xb6;" horiz-adv-x="530" 
d="M450 722v-915h-76v845h-104v-845h-77v467q-56 5 -96.5 27t-61.5 56t-30.5 69.5t-9.5 75.5t13 76.5t40 70t78 53.5t120 20h204z" />
    <glyph glyph-name="periodcentered" unicode="&#xb7;" horiz-adv-x="280" 
d="M68 346q0 30 21 51t51 21t51 -21t21 -51t-21 -50.5t-51 -20.5t-51 20.5t-21 50.5z" />
    <glyph glyph-name="cedilla" unicode="&#xb8;" horiz-adv-x="314" 
d="M50 -193l20 41q29 -17 67 -17q25 0 40.5 11.5t15.5 31.5q0 35 -45 35q-22 0 -44 -9l-27 22l61 87h58l-57 -65l3 -4q25 9 48 9q33 0 51.5 -19t18.5 -50q0 -39 -32 -66.5t-89 -27.5q-49 0 -89 21z" />
    <glyph glyph-name="one.sups" unicode="&#xb9;" 
d="M176 457v355h-4q-17 -30 -61 -93.5t-71 -92.5v87q22 22 58 73t58 87h82v-416h-62z" />
    <glyph glyph-name="ordmasculine" unicode="&#xba;" horiz-adv-x="370" 
d="M38 554q0 63 40.5 115.5t116.5 52.5q75 0 115 -51.5t40 -115.5q0 -68 -42.5 -119.5t-112.5 -51.5q-72 0 -114.5 49.5t-42.5 120.5zM101 554q0 -52 24.5 -85t69.5 -33q38 0 65 30t27 89q0 54 -27 85.5t-65 31.5t-66 -28.5t-28 -89.5z" />
    <glyph glyph-name="guillemotright" unicode="&#xbb;" horiz-adv-x="522" 
d="M333 53h-87l128 200l-127 198h86l134 -198zM137 53h-87l128 200l-127 198h86l134 -198z" />
    <glyph glyph-name="onequarter" unicode="&#xbc;" horiz-adv-x="835" 
d="M642 0v97h-190v65q78 109 170 256h83v-274h54v-48h-54v-96h-63zM503 144h142v216h-4l-138 -213v-3zM177 0l416 722h61l-416 -722h-61zM199 277v355h-4q-17 -30 -61 -93.5t-71 -92.5v87q22 22 58 73t58 87h82v-416h-62z" />
    <glyph glyph-name="onehalf" unicode="&#xbd;" horiz-adv-x="835" 
d="M185 277v355h-4q-17 -30 -61 -93.5t-71 -92.5v87q22 22 58 73t58 87h82v-416h-62zM164 0l416 722h61l-416 -722h-61zM757 0h-267q-2 25 0 43q10 96 99 142q39 21 67 40q43 31 43 79q0 28 -19.5 48.5t-51.5 20.5q-42 0 -58.5 -27t-12.5 -62h-61q-5 60 31 99.5t102 39.5
q61 0 97.5 -35t36.5 -86q0 -73 -68 -119q-31 -21 -76 -45q-16 -9 -24.5 -14t-22 -16.5t-19 -26t-4.5 -32.5h208v-49z" />
    <glyph glyph-name="threequarters" unicode="&#xbe;" horiz-adv-x="835" 
d="M642 0v97h-190v65q78 109 170 256h83v-274h54v-48h-54v-96h-63zM503 144h142v216h-4l-138 -213v-3zM194 0l416 722h61l-416 -722h-61zM46 396h66q0 -35 20 -55.5t55 -20.5q31 0 50.5 18.5t19.5 47.5q0 74 -97 78l-26 1v50l27 2q95 6 95 72q0 31 -19.5 47t-47.5 16
q-29 0 -48.5 -15.5t-20.5 -46.5h-63q2 32 16.5 55.5t35.5 35t41 16.5t38 5q63 0 98 -33t35 -78q0 -71 -80 -97v-3q42 -12 62 -41.5t20 -62.5q0 -49 -36.5 -83.5t-99.5 -34.5q-59 0 -98 35t-43 92z" />
    <glyph glyph-name="questiondown" unicode="&#xbf;" horiz-adv-x="500" 
d="M355 -17h94q3 -55 -14.5 -97.5t-47.5 -66.5t-66 -36t-75 -12q-85 0 -143 52.5t-58 137.5q0 58 29.5 104t86.5 91q62 50 57 130l-1 18h83l1 -20q3 -64 -17.5 -104.5t-69.5 -86.5q-38 -35 -55.5 -64t-17.5 -65q0 -53 30.5 -83.5t75.5 -30.5q50 0 82.5 34t25.5 99zM329 431
q0 -30 -21 -51t-51 -21t-51 21t-21 51t21 50.5t51 20.5t51 -20.5t21 -50.5z" />
    <glyph glyph-name="Agrave" unicode="&#xc0;" horiz-adv-x="635" 
d="M453 183h-274l-58 -183h-101l238 722h110l247 -722h-101zM204 264h222l-110 344h-6zM169 853l34 75l196 -102l-30 -59z" />
    <glyph glyph-name="Aacute" unicode="&#xc1;" horiz-adv-x="635" 
d="M453 183h-274l-58 -183h-101l238 722h110l247 -722h-101zM204 264h222l-110 344h-6zM424 928l34 -75l-200 -86l-30 59z" />
    <glyph glyph-name="Acircumflex" unicode="&#xc2;" horiz-adv-x="635" 
d="M453 183h-274l-58 -183h-101l238 722h110l247 -722h-101zM204 264h222l-110 344h-6zM314 934l158 -159h-95l-60 60h-6l-62 -60h-95z" />
    <glyph glyph-name="Atilde" unicode="&#xc3;" horiz-adv-x="635" 
d="M453 183h-274l-58 -183h-101l238 722h110l247 -722h-101zM204 264h222l-110 344h-6zM210 776h-50q-1 58 25.5 85t63.5 27q22 0 67 -15q47 -15 58 -15q39 0 43 38h50q1 -58 -25.5 -85t-63.5 -27q-22 0 -67 15q-47 15 -58 15q-39 0 -43 -38z" />
    <glyph glyph-name="Adieresis" unicode="&#xc4;" horiz-adv-x="635" 
d="M453 183h-274l-58 -183h-101l238 722h110l247 -722h-101zM204 264h222l-110 344h-6zM156 837q0 27 17.5 44t43.5 17t44 -17t18 -44q0 -26 -18 -43t-44 -17t-43.5 16.5t-17.5 43.5zM347 837q0 27 17.5 44t43.5 17t44 -17t18 -44q0 -26 -18 -43t-44 -17t-43.5 16.5
t-17.5 43.5z" />
    <glyph glyph-name="Aring" unicode="&#xc5;" horiz-adv-x="635" 
d="M453 183h-274l-58 -183h-101l238 722h110l247 -722h-101zM204 264h222l-110 344h-6zM223 849q0 37 26 61.5t64 24.5t64 -24.5t26 -61.5t-26 -62t-64 -25t-64 25t-26 62zM267 849q0 -19 13.5 -32t32.5 -13q18 0 32 13.5t14 31.5t-14 31.5t-32 13.5q-19 0 -32.5 -13
t-13.5 -32z" />
    <glyph glyph-name="AE" unicode="&#xc6;" horiz-adv-x="943" 
d="M483 183h-276l-83 -183h-104l344 722h531v-85h-401l43 -225h341v-84h-327l45 -240h307v-88h-387zM469 264l-62 341h-6l-158 -341h226z" />
    <glyph glyph-name="Ccedilla" unicode="&#xc7;" horiz-adv-x="700" 
d="M248 -193l20 41q29 -17 67 -17q25 0 40.5 11.5t15.5 31.5q0 35 -45 35q-22 0 -44 -9l-27 22l49 70q-73 11 -130 49t-89 91.5t-48.5 110.5t-16.5 114q0 68 21 133t61.5 120t108 88.5t151.5 33.5q111 0 187 -63.5t85 -166.5h-103q-3 59 -46.5 103t-121.5 44
q-112 0 -177 -81.5t-65 -209.5q0 -118 63 -200t179 -82q81 0 129 44.5t51 104.5h102q-12 -105 -92 -171t-191 -66h-7l-38 -44l3 -4q25 9 48 9q33 0 51.5 -19t18.5 -50q0 -39 -32 -66.5t-89 -27.5q-49 0 -89 21z" />
    <glyph glyph-name="Egrave" unicode="&#xc8;" horiz-adv-x="538" 
d="M70 0v722h417v-85h-318v-225h304v-84h-303v-240h328v-88h-428zM154 853l34 75l196 -102l-30 -59z" />
    <glyph glyph-name="Eacute" unicode="&#xc9;" horiz-adv-x="538" 
d="M70 0v722h417v-85h-318v-225h304v-84h-303v-240h328v-88h-428zM385 928l34 -75l-200 -86l-30 59z" />
    <glyph glyph-name="Ecircumflex" unicode="&#xca;" horiz-adv-x="538" 
d="M70 0v722h417v-85h-318v-225h304v-84h-303v-240h328v-88h-428zM281 934l158 -159h-95l-60 60h-6l-62 -60h-95z" />
    <glyph glyph-name="Edieresis" unicode="&#xcb;" horiz-adv-x="538" 
d="M70 0v722h417v-85h-318v-225h304v-84h-303v-240h328v-88h-428zM128 837q0 27 17.5 44t43.5 17t44 -17t18 -44q0 -26 -18 -43t-44 -17t-43.5 16.5t-17.5 43.5zM319 837q0 27 17.5 44t43.5 17t44 -17t18 -44q0 -26 -18 -43t-44 -17t-43.5 16.5t-17.5 43.5z" />
    <glyph glyph-name="Igrave" unicode="&#xcc;" horiz-adv-x="240" 
d="M70 0v722h100v-722h-100zM-30 853l34 75l196 -102l-30 -59z" />
    <glyph glyph-name="Iacute" unicode="&#xcd;" horiz-adv-x="240" 
d="M70 0v722h100v-722h-100zM236 928l34 -75l-200 -86l-30 59z" />
    <glyph glyph-name="Icircumflex" unicode="&#xce;" horiz-adv-x="240" 
d="M70 0v722h100v-722h-100zM121 934l158 -159h-95l-60 60h-6l-62 -60h-95z" />
    <glyph glyph-name="Idieresis" unicode="&#xcf;" horiz-adv-x="240" 
d="M70 0v722h100v-722h-100zM-37 837q0 27 17.5 44t43.5 17t44 -17t18 -44q0 -26 -18 -43t-44 -17t-43.5 16.5t-17.5 43.5zM154 837q0 27 17.5 44t43.5 17t44 -17t18 -44q0 -26 -18 -43t-44 -17t-43.5 16.5t-17.5 43.5z" />
    <glyph glyph-name="Eth" unicode="&#xd0;" horiz-adv-x="681" 
d="M70 0v337h-73v61h73v324h172q172 0 285.5 -97.5t113.5 -269.5q0 -158 -109 -256.5t-297 -98.5h-165zM359 337h-189v-255l68 1q141 2 220 75t79 196q0 122 -76.5 202.5t-213.5 81.5l-77 1v-241h189v-61z" />
    <glyph glyph-name="Ntilde" unicode="&#xd1;" horiz-adv-x="750" 
d="M70 0v722h99l413 -566h6v566h92v-722h-100l-413 569h-6v-569h-91zM281 776h-50q-1 58 25.5 85t63.5 27q22 0 67 -15q47 -15 58 -15q39 0 43 38h50q1 -58 -25.5 -85t-63.5 -27q-22 0 -67 15q-47 15 -58 15q-39 0 -43 -38z" />
    <glyph glyph-name="Ograve" unicode="&#xd2;" horiz-adv-x="796" 
d="M756 362q0 -172 -105 -275.5t-255 -103.5q-149 0 -252.5 106.5t-103.5 276.5q0 99 42.5 183.5t125.5 138t189 53.5q160 0 259.5 -110.5t99.5 -268.5zM652 363q0 133 -72 213.5t-184 80.5q-113 0 -182.5 -84.5t-69.5 -208.5q0 -129 69 -212.5t183 -83.5q120 0 188 85
t68 210zM253 853l34 75l196 -102l-30 -59z" />
    <glyph glyph-name="Oacute" unicode="&#xd3;" horiz-adv-x="796" 
d="M756 362q0 -172 -105 -275.5t-255 -103.5q-149 0 -252.5 106.5t-103.5 276.5q0 99 42.5 183.5t125.5 138t189 53.5q160 0 259.5 -110.5t99.5 -268.5zM652 363q0 133 -72 213.5t-184 80.5q-113 0 -182.5 -84.5t-69.5 -208.5q0 -129 69 -212.5t183 -83.5q120 0 188 85
t68 210zM519 928l34 -75l-200 -86l-30 59z" />
    <glyph glyph-name="Ocircumflex" unicode="&#xd4;" horiz-adv-x="796" 
d="M756 362q0 -172 -105 -275.5t-255 -103.5q-149 0 -252.5 106.5t-103.5 276.5q0 99 42.5 183.5t125.5 138t189 53.5q160 0 259.5 -110.5t99.5 -268.5zM652 363q0 133 -72 213.5t-184 80.5q-113 0 -182.5 -84.5t-69.5 -208.5q0 -129 69 -212.5t183 -83.5q120 0 188 85
t68 210zM399 934l158 -159h-95l-60 60h-6l-62 -60h-95z" />
    <glyph glyph-name="Otilde" unicode="&#xd5;" horiz-adv-x="796" 
d="M756 362q0 -172 -105 -275.5t-255 -103.5q-149 0 -252.5 106.5t-103.5 276.5q0 99 42.5 183.5t125.5 138t189 53.5q160 0 259.5 -110.5t99.5 -268.5zM652 363q0 133 -72 213.5t-184 80.5q-113 0 -182.5 -84.5t-69.5 -208.5q0 -129 69 -212.5t183 -83.5q120 0 188 85
t68 210zM294 776h-50q-1 58 25.5 85t63.5 27q22 0 67 -15q47 -15 58 -15q39 0 43 38h50q1 -58 -25.5 -85t-63.5 -27q-22 0 -67 15q-47 15 -58 15q-39 0 -43 -38z" />
    <glyph glyph-name="Odieresis" unicode="&#xd6;" horiz-adv-x="796" 
d="M756 362q0 -172 -105 -275.5t-255 -103.5q-149 0 -252.5 106.5t-103.5 276.5q0 99 42.5 183.5t125.5 138t189 53.5q160 0 259.5 -110.5t99.5 -268.5zM652 363q0 133 -72 213.5t-184 80.5q-113 0 -182.5 -84.5t-69.5 -208.5q0 -129 69 -212.5t183 -83.5q120 0 188 85
t68 210zM241 837q0 27 17.5 44t43.5 17t44 -17t18 -44q0 -26 -18 -43t-44 -17t-43.5 16.5t-17.5 43.5zM432 837q0 27 17.5 44t43.5 17t44 -17t18 -44q0 -26 -18 -43t-44 -17t-43.5 16.5t-17.5 43.5z" />
    <glyph glyph-name="multiply" unicode="&#xd7;" horiz-adv-x="570" 
d="M94 492l190 -191l191 191l51 -51l-191 -191l191 -190l-51 -51l-191 190l-190 -190l-51 51l190 190l-190 191z" />
    <glyph glyph-name="Oslash" unicode="&#xd8;" horiz-adv-x="796" 
d="M756 362q0 -172 -105 -275.5t-255 -103.5q-120 0 -210 69l-80 -100l-44 36l81 102q-103 108 -103 276q0 99 42.5 183.5t125.5 138t189 53.5q122 0 212 -68l78 98l45 -36l-80 -100q104 -110 104 -273zM652 363q0 118 -60 197l-350 -438q63 -54 154 -54q120 0 188 85
t68 210zM396 657q-113 0 -182.5 -84.5t-69.5 -208.5q0 -119 59 -200l349 439q-65 54 -156 54z" />
    <glyph glyph-name="Ugrave" unicode="&#xd9;" horiz-adv-x="673" 
d="M70 722h100v-454q0 -101 44.5 -147.5t122.5 -46.5q169 0 169 195v453h97v-451q0 -149 -74 -217.5t-192 -68.5q-123 0 -195 71.5t-72 212.5v453zM201 853l34 75l196 -102l-30 -59z" />
    <glyph glyph-name="Uacute" unicode="&#xda;" horiz-adv-x="673" 
d="M70 722h100v-454q0 -101 44.5 -147.5t122.5 -46.5q169 0 169 195v453h97v-451q0 -149 -74 -217.5t-192 -68.5q-123 0 -195 71.5t-72 212.5v453zM467 928l34 -75l-200 -86l-30 59z" />
    <glyph glyph-name="Ucircumflex" unicode="&#xdb;" horiz-adv-x="673" 
d="M70 722h100v-454q0 -101 44.5 -147.5t122.5 -46.5q169 0 169 195v453h97v-451q0 -149 -74 -217.5t-192 -68.5q-123 0 -195 71.5t-72 212.5v453zM337 934l158 -159h-95l-60 60h-6l-62 -60h-95z" />
    <glyph glyph-name="Udieresis" unicode="&#xdc;" horiz-adv-x="673" 
d="M70 722h100v-454q0 -101 44.5 -147.5t122.5 -46.5q169 0 169 195v453h97v-451q0 -149 -74 -217.5t-192 -68.5q-123 0 -195 71.5t-72 212.5v453zM181 837q0 27 17.5 44t43.5 17t44 -17t18 -44q0 -26 -18 -43t-44 -17t-43.5 16.5t-17.5 43.5zM372 837q0 27 17.5 44t43.5 17
t44 -17t18 -44q0 -26 -18 -43t-44 -17t-43.5 16.5t-17.5 43.5z" />
    <glyph glyph-name="Yacute" unicode="&#xdd;" horiz-adv-x="587" 
d="M347 266v-266h-101v266q0 14 -14 18l-217 438h118l163 -366h6l160 366h110l-212 -438q-13 -5 -13 -18zM434 928l34 -75l-200 -86l-30 59z" />
    <glyph glyph-name="Thorn" unicode="&#xde;" horiz-adv-x="558" 
d="M165 601h89q117 0 195.5 -57.5t78.5 -163.5q0 -111 -81.5 -169t-202.5 -58h-79v-153h-100v722h100v-121zM165 520v-283l79 1q29 0 56.5 6t57 20.5t47.5 44t18 71.5q0 40 -17.5 69t-45 43t-53.5 20.5t-51 6.5z" />
    <glyph glyph-name="germandbls" unicode="&#xdf;" horiz-adv-x="588" 
d="M163 544v-544h-94q2 36 2 78v462q0 97 59 144.5t146 47.5q83 0 138 -43t55 -114q0 -68 -57 -120q-33 -31 -33 -53q0 -36 66 -85q108 -82 108 -171q0 -74 -49.5 -116.5t-129.5 -42.5q-73 0 -122 41t-54 111h98q3 -35 25.5 -57t57.5 -22t57.5 22t22.5 59q0 55 -70 109
q-104 81 -104 148q0 22 11 43.5t19 30.5t28 30q30 32 30 70q0 40 -28 63t-71 23q-50 0 -80.5 -30.5t-30.5 -83.5z" />
    <glyph glyph-name="agrave" unicode="&#xe0;" horiz-adv-x="523" 
d="M467 0h-95q4 41 4 64h-5q-72 -77 -169 -77q-73 0 -115 42.5t-42 110.5q0 70 48.5 115t127.5 46q73 1 152 -22v54q0 54 -28.5 83t-82.5 29q-52 0 -80 -26t-26 -63h-101q15 70 68.5 115t138.5 45q89 0 144 -46t55 -137v-250q0 -56 6 -83zM371 133v89q-74 15 -131 14
q-48 -1 -75.5 -26t-27.5 -65q0 -41 25 -63.5t72 -22.5q40 0 77.5 23.5t59.5 50.5zM116 669l41 73l189 -121l-35 -58z" />
    <glyph glyph-name="aacute" unicode="&#xe1;" horiz-adv-x="523" 
d="M372 0h95q-6 27 -6 83v250q0 91 -55 137t-144 46q-85 0 -138.5 -45t-68.5 -115h101q-2 37 26 63t80 26q54 0 82.5 -29t28.5 -83v-54q-79 23 -152 22q-79 -1 -127.5 -46t-48.5 -115q0 -68 42 -110.5t115 -42.5q97 0 169 77h5zM371 222v-89q-22 -27 -59.5 -50.5
t-77.5 -23.5q-47 0 -72 22.5t-25 63.5q0 40 27.5 65t75.5 26q57 1 131 -14zM383 742l41 -73l-195 -106l-35 58z" />
    <glyph glyph-name="acircumflex" unicode="&#xe2;" horiz-adv-x="523" 
d="M467 0h-95q4 41 4 64h-5q-72 -77 -169 -77q-73 0 -115 42.5t-42 110.5q0 70 48.5 115t127.5 46q73 1 152 -22v54q0 54 -28.5 83t-82.5 29q-52 0 -80 -26t-26 -63h-101q15 70 68.5 115t138.5 45q89 0 144 -46t55 -137v-250q0 -56 6 -83zM371 133v89q-74 15 -131 14
q-48 -1 -75.5 -26t-27.5 -65q0 -41 25 -63.5t72 -22.5q40 0 77.5 23.5t59.5 50.5zM279 738l154 -171h-87l-64 65h-6l-66 -65h-87z" />
    <glyph glyph-name="atilde" unicode="&#xe3;" horiz-adv-x="523" 
d="M372 0h95q-6 27 -6 83v250q0 91 -55 137t-144 46q-85 0 -138.5 -45t-68.5 -115h101q-2 37 26 63t80 26q54 0 82.5 -29t28.5 -83v-54q-79 23 -152 22q-79 -1 -127.5 -46t-48.5 -115q0 -68 42 -110.5t115 -42.5q97 0 169 77h5zM371 222v-89q-22 -27 -59.5 -50.5
t-77.5 -23.5q-47 0 -72 22.5t-25 63.5q0 40 27.5 65t75.5 26q57 1 131 -14zM173 584h-51q-1 58 26 86.5t64 28.5q27 0 72 -15q47 -15 63 -15t28.5 9.5t14.5 29.5h51q1 -58 -26 -86.5t-64 -28.5q-27 0 -72 15q-47 15 -63 15t-28.5 -9.5t-14.5 -29.5z" />
    <glyph glyph-name="adieresis" unicode="&#xe4;" horiz-adv-x="523" 
d="M372 0h95q-6 27 -6 83v250q0 91 -55 137t-144 46q-85 0 -138.5 -45t-68.5 -115h101q-2 37 26 63t80 26q54 0 82.5 -29t28.5 -83v-54q-79 23 -152 22q-79 -1 -127.5 -46t-48.5 -115q0 -68 42 -110.5t115 -42.5q97 0 169 77h5zM371 222v-89q-22 -27 -59.5 -50.5
t-77.5 -23.5q-47 0 -72 22.5t-25 63.5q0 40 27.5 65t75.5 26q57 1 131 -14zM110 645q0 27 17.5 44.5t44.5 17.5t45 -17.5t18 -44.5t-18 -44t-45 -17t-44.5 17t-17.5 44zM295 645q0 27 17.5 44.5t44.5 17.5t45 -17.5t18 -44.5t-18 -44t-45 -17t-44.5 17t-17.5 44z" />
    <glyph glyph-name="aring" unicode="&#xe5;" horiz-adv-x="523" 
d="M372 0h95q-6 27 -6 83v250q0 91 -55 137t-144 46q-85 0 -138.5 -45t-68.5 -115h101q-2 37 26 63t80 26q54 0 82.5 -29t28.5 -83v-54q-79 23 -152 22q-79 -1 -127.5 -46t-48.5 -115q0 -68 42 -110.5t115 -42.5q97 0 169 77h5zM371 222v-89q-22 -27 -59.5 -50.5
t-77.5 -23.5q-47 0 -72 22.5t-25 63.5q0 40 27.5 65t75.5 26q57 1 131 -14zM180 652q0 39 27.5 64.5t66.5 25.5t66.5 -25.5t27.5 -64.5t-27.5 -65t-66.5 -26t-66.5 26t-27.5 65zM224 652q0 -21 15 -35t35 -14t35 14t15 35t-15 35t-35 14t-35 -14t-15 -35z" />
    <glyph glyph-name="ae" unicode="&#xe6;" horiz-adv-x="855" 
d="M251 516q113 0 170 -78h6q73 77 167 77q52 0 93 -17.5t66 -46t40 -65t19.5 -74t0.5 -74.5h-356q1 -81 39.5 -130.5t106.5 -49.5q46 0 78 27.5t41 69.5h92q-10 -68 -66 -119t-145 -51q-129 0 -192 105h-6q-33 -47 -85.5 -76t-114.5 -29q-76 0 -120.5 44t-44.5 115
q0 69 51.5 114t129.5 45q69 0 146 -20v48q0 54 -29.5 84.5t-81.5 30.5t-79.5 -26.5t-25.5 -63.5h-102q14 70 66 115t136 45zM460 307h259q0 23 -6 46t-19.5 45t-40 35.5t-62.5 13.5q-50 0 -87.5 -35.5t-43.5 -104.5zM368 224q-78 14 -131 14q-48 0 -76.5 -26t-28.5 -66
q0 -87 95 -87q50 0 89 26t62 57q-8 37 -10 82z" />
    <glyph glyph-name="ccedilla" unicode="&#xe7;" horiz-adv-x="521" 
d="M163 -193l20 41q29 -17 67 -17q25 0 40.5 11.5t15.5 31.5q0 35 -45 35q-22 0 -44 -9l-27 22l48 69q-90 14 -144 85t-54 173q0 120 68.5 193t171.5 73q81 0 139.5 -50t66.5 -124h-97q-3 35 -31.5 68t-79.5 33q-68 0 -103.5 -54t-35.5 -138q0 -81 37 -134.5t103 -53.5
q49 0 79 31.5t38 74.5h95q-14 -75 -66 -126t-135 -55l-38 -43l3 -4q25 9 48 9q33 0 51.5 -19t18.5 -50q0 -39 -32 -66.5t-89 -27.5q-49 0 -89 21z" />
    <glyph glyph-name="egrave" unicode="&#xe8;" horiz-adv-x="533" 
d="M491 238h-358q1 -81 39 -130.5t108 -49.5q46 0 78.5 27t41.5 70h92q-9 -68 -67 -119t-150 -51q-106 0 -170.5 74t-64.5 196q0 109 63 184.5t166 75.5q53 0 94.5 -17.5t67 -46t41 -65.5t19.5 -74t0 -74zM137 306l261 2q0 20 -5.5 42t-19 45t-40 37.5t-62.5 14.5
q-52 0 -89.5 -37t-44.5 -104zM131 669l41 73l189 -121l-35 -58z" />
    <glyph glyph-name="eacute" unicode="&#xe9;" horiz-adv-x="533" 
d="M491 238h-358q1 -81 39 -130.5t108 -49.5q46 0 78.5 27t41.5 70h92q-9 -68 -67 -119t-150 -51q-106 0 -170.5 74t-64.5 196q0 109 63 184.5t166 75.5q53 0 94.5 -17.5t67 -46t41 -65.5t19.5 -74t0 -74zM137 306l261 2q0 20 -5.5 42t-19 45t-40 37.5t-62.5 14.5
q-52 0 -89.5 -37t-44.5 -104zM382 742l41 -73l-195 -106l-35 58z" />
    <glyph glyph-name="ecircumflex" unicode="&#xea;" horiz-adv-x="533" 
d="M491 238h-358q1 -81 39 -130.5t108 -49.5q46 0 78.5 27t41.5 70h92q-9 -68 -67 -119t-150 -51q-106 0 -170.5 74t-64.5 196q0 109 63 184.5t166 75.5q53 0 94.5 -17.5t67 -46t41 -65.5t19.5 -74t0 -74zM137 306l261 2q0 20 -5.5 42t-19 45t-40 37.5t-62.5 14.5
q-52 0 -89.5 -37t-44.5 -104zM277 738l154 -171h-87l-64 65h-6l-66 -65h-87z" />
    <glyph glyph-name="edieresis" unicode="&#xeb;" horiz-adv-x="533" 
d="M491 238h-358q1 -81 39 -130.5t108 -49.5q46 0 78.5 27t41.5 70h92q-9 -68 -67 -119t-150 -51q-106 0 -170.5 74t-64.5 196q0 109 63 184.5t166 75.5q53 0 94.5 -17.5t67 -46t41 -65.5t19.5 -74t0 -74zM137 306l261 2q0 20 -5.5 42t-19 45t-40 37.5t-62.5 14.5
q-52 0 -89.5 -37t-44.5 -104zM121 645q0 27 17.5 44.5t44.5 17.5t45 -17.5t18 -44.5t-18 -44t-45 -17t-44.5 17t-17.5 44zM306 645q0 27 17.5 44.5t44.5 17.5t45 -17.5t18 -44.5t-18 -44t-45 -17t-44.5 17t-17.5 44z" />
    <glyph glyph-name="igrave" unicode="&#xec;" horiz-adv-x="224" 
d="M65 0v502h94v-502h-94zM-36 669l41 73l189 -121l-35 -58z" />
    <glyph glyph-name="iacute" unicode="&#xed;" horiz-adv-x="224" 
d="M65 0v502h94v-502h-94zM220 742l41 -73l-195 -106l-35 58z" />
    <glyph glyph-name="icircumflex" unicode="&#xee;" horiz-adv-x="224" 
d="M65 0v502h94v-502h-94zM113 738l154 -171h-87l-64 65h-6l-66 -65h-87z" />
    <glyph glyph-name="idieresis" unicode="&#xef;" horiz-adv-x="224" 
d="M65 0v502h94v-502h-94zM-43 645q0 27 17.5 44.5t44.5 17.5t45 -17.5t18 -44.5t-18 -44t-45 -17t-44.5 17t-17.5 44zM142 645q0 27 17.5 44.5t44.5 17.5t45 -17.5t18 -44.5t-18 -44t-45 -17t-44.5 17t-17.5 44z" />
    <glyph glyph-name="eth" unicode="&#xf0;" horiz-adv-x="585" 
d="M162 606l97 57q-72 37 -156 45l90 59q74 -22 139 -61l94 57l39 -41l-83 -49q155 -129 155 -391q0 -124 -64.5 -211.5t-181.5 -87.5q-112 0 -180 76.5t-68 186.5q0 101 64 180t171 79q52 0 95 -25t70 -63h6q-11 73 -47.5 121.5t-92.5 91.5l-108 -64zM139 247
q0 -83 39 -138t114 -55q62 0 105.5 49t43.5 145q0 86 -44.5 136t-107.5 50q-59 0 -104.5 -44t-45.5 -143z" />
    <glyph glyph-name="ntilde" unicode="&#xf1;" horiz-adv-x="551" 
d="M65 0v416q0 50 -5 86h97v-86h6q10 17 27 36t54.5 39.5t80.5 20.5q26 0 52 -8t53 -27t44 -57.5t17 -92.5v-327h-96v329q0 52 -23 81t-65 29q-51 0 -91.5 -41.5t-55.5 -105.5v-292h-95zM189 584h-51q-1 58 26 86.5t64 28.5q27 0 72 -15q47 -15 63 -15t28.5 9.5t14.5 29.5
h51q1 -58 -26 -86.5t-64 -28.5q-27 0 -72 15q-47 15 -63 15t-28.5 -9.5t-14.5 -29.5z" />
    <glyph glyph-name="ograve" unicode="&#xf2;" horiz-adv-x="578" 
d="M40 251q0 36 9.5 72t29.5 71t48.5 61.5t71 43t92.5 16.5q61 0 110.5 -25t78 -65.5t43.5 -85.5t15 -89q0 -107 -66.5 -187t-180.5 -80q-115 0 -183 78.5t-68 189.5zM138 251q0 -84 39 -140.5t113 -56.5q63 0 106.5 50.5t43.5 147.5q0 91 -43 141.5t-107 50.5
q-60 0 -106 -45.5t-46 -147.5zM144 669l41 73l189 -121l-35 -58z" />
    <glyph glyph-name="oacute" unicode="&#xf3;" horiz-adv-x="578" 
d="M40 251q0 36 9.5 72t29.5 71t48.5 61.5t71 43t92.5 16.5q61 0 110.5 -25t78 -65.5t43.5 -85.5t15 -89q0 -107 -66.5 -187t-180.5 -80q-115 0 -183 78.5t-68 189.5zM138 251q0 -84 39 -140.5t113 -56.5q63 0 106.5 50.5t43.5 147.5q0 91 -43 141.5t-107 50.5
q-60 0 -106 -45.5t-46 -147.5zM413 742l41 -73l-195 -106l-35 58z" />
    <glyph glyph-name="ocircumflex" unicode="&#xf4;" horiz-adv-x="578" 
d="M40 251q0 36 9.5 72t29.5 71t48.5 61.5t71 43t92.5 16.5q61 0 110.5 -25t78 -65.5t43.5 -85.5t15 -89q0 -107 -66.5 -187t-180.5 -80q-115 0 -183 78.5t-68 189.5zM138 251q0 -84 39 -140.5t113 -56.5q63 0 106.5 50.5t43.5 147.5q0 91 -43 141.5t-107 50.5
q-60 0 -106 -45.5t-46 -147.5zM290 738l154 -171h-87l-64 65h-6l-66 -65h-87z" />
    <glyph glyph-name="otilde" unicode="&#xf5;" horiz-adv-x="578" 
d="M40 251q0 36 9.5 72t29.5 71t48.5 61.5t71 43t92.5 16.5q61 0 110.5 -25t78 -65.5t43.5 -85.5t15 -89q0 -107 -66.5 -187t-180.5 -80q-115 0 -183 78.5t-68 189.5zM138 251q0 -84 39 -140.5t113 -56.5q63 0 106.5 50.5t43.5 147.5q0 91 -43 141.5t-107 50.5
q-60 0 -106 -45.5t-46 -147.5zM180 584h-51q-1 58 26 86.5t64 28.5q27 0 72 -15q47 -15 63 -15t28.5 9.5t14.5 29.5h51q1 -58 -26 -86.5t-64 -28.5q-27 0 -72 15q-47 15 -63 15t-28.5 -9.5t-14.5 -29.5z" />
    <glyph glyph-name="odieresis" unicode="&#xf6;" horiz-adv-x="578" 
d="M40 251q0 36 9.5 72t29.5 71t48.5 61.5t71 43t92.5 16.5q61 0 110.5 -25t78 -65.5t43.5 -85.5t15 -89q0 -107 -66.5 -187t-180.5 -80q-115 0 -183 78.5t-68 189.5zM138 251q0 -84 39 -140.5t113 -56.5q63 0 106.5 50.5t43.5 147.5q0 91 -43 141.5t-107 50.5
q-60 0 -106 -45.5t-46 -147.5zM134 645q0 27 17.5 44.5t44.5 17.5t45 -17.5t18 -44.5t-18 -44t-45 -17t-44.5 17t-17.5 44zM319 645q0 27 17.5 44.5t44.5 17.5t45 -17.5t18 -44.5t-18 -44t-45 -17t-44.5 17t-17.5 44z" />
    <glyph glyph-name="divide" unicode="&#xf7;" horiz-adv-x="570" 
d="M219 74q0 29 19 48t47 19t47.5 -19t19.5 -48t-19.5 -47.5t-47.5 -18.5t-47 18.5t-19 47.5zM219 427q0 29 19 48t47 19t47.5 -19t19.5 -48t-19.5 -47.5t-47.5 -18.5t-47 18.5t-19 47.5zM540 212h-510v78h510v-78z" />
    <glyph glyph-name="oslash" unicode="&#xf8;" horiz-adv-x="578" 
d="M40 251q0 36 9.5 72t29.5 71t48.5 61.5t71 43t92.5 16.5q73 0 131 -38l68 91l43 -33l-69 -93q74 -78 74 -192q0 -107 -66.5 -187t-180.5 -80q-78 0 -139 40l-67 -91l-42 33l69 93q-72 77 -72 193zM290 54q63 0 106.5 50.5t43.5 147.5q0 69 -28 120l-213 -286
q37 -32 91 -32zM138 251q0 -74 27 -122l211 285q-38 30 -86 30q-60 0 -106 -45.5t-46 -147.5z" />
    <glyph glyph-name="ugrave" unicode="&#xf9;" horiz-adv-x="563" 
d="M399 502h97v-416q0 -50 7 -86h-97q-3 31 -1 87h-6q-9 -16 -24.5 -34.5t-54 -39t-84.5 -20.5q-28 0 -55.5 8.5t-54.5 28.5t-44 59t-17 93v320h96v-321q0 -52 24 -82t71 -30q51 0 91 41t52 106v286zM136 669l41 73l189 -121l-35 -58z" />
    <glyph glyph-name="uacute" unicode="&#xfa;" horiz-adv-x="563" 
d="M399 502h97v-416q0 -50 7 -86h-97q-3 31 -1 87h-6q-9 -16 -24.5 -34.5t-54 -39t-84.5 -20.5q-28 0 -55.5 8.5t-54.5 28.5t-44 59t-17 93v320h96v-321q0 -52 24 -82t71 -30q51 0 91 41t52 106v286zM395 742l41 -73l-195 -106l-35 58z" />
    <glyph glyph-name="ucircumflex" unicode="&#xfb;" horiz-adv-x="563" 
d="M399 502h97v-416q0 -50 7 -86h-97q-3 31 -1 87h-6q-9 -16 -24.5 -34.5t-54 -39t-84.5 -20.5q-28 0 -55.5 8.5t-54.5 28.5t-44 59t-17 93v320h96v-321q0 -52 24 -82t71 -30q51 0 91 41t52 106v286zM282 738l154 -171h-87l-64 65h-6l-66 -65h-87z" />
    <glyph glyph-name="udieresis" unicode="&#xfc;" horiz-adv-x="563" 
d="M399 502h97v-416q0 -50 7 -86h-97q-3 31 -1 87h-6q-9 -16 -24.5 -34.5t-54 -39t-84.5 -20.5q-28 0 -55.5 8.5t-54.5 28.5t-44 59t-17 93v320h96v-321q0 -52 24 -82t71 -30q51 0 91 41t52 106v286zM126 645q0 27 17.5 44.5t44.5 17.5t45 -17.5t18 -44.5t-18 -44t-45 -17
t-44.5 17t-17.5 44zM311 645q0 27 17.5 44.5t44.5 17.5t45 -17.5t18 -44.5t-18 -44t-45 -17t-44.5 17t-17.5 44z" />
    <glyph glyph-name="yacute" unicode="&#xfd;" horiz-adv-x="510" 
d="M490 502q-173 -524 -203 -602q-39 -102 -142 -102q-38 0 -66 10v80q25 -9 54 -9q46 0 66 41q21 44 30 80q4 16 -4.5 25.5t-24.5 8.5l-180 468h104l140 -398h6l122 398h98zM399 742l41 -73l-195 -106l-35 58z" />
    <glyph glyph-name="thorn" unicode="&#xfe;" horiz-adv-x="561" 
d="M159 0v-193h-94v915h93v-220l-1 -75h6q58 84 144 84q100 0 157 -76t57 -186q0 -112 -56.5 -187t-152.5 -75t-148 81h-6q1 -35 1 -68zM423 249q0 87 -35 138t-102 51q-49 0 -86.5 -41t-40.5 -84v-121q2 -46 39 -89.5t92 -43.5q66 0 99.5 53.5t33.5 136.5z" />
    <glyph glyph-name="ydieresis" unicode="&#xff;" horiz-adv-x="510" 
d="M490 502q-173 -524 -203 -602q-39 -102 -142 -102q-38 0 -66 10v80q25 -9 54 -9q46 0 66 41q21 44 30 80q4 16 -4.5 25.5t-24.5 8.5l-180 468h104l140 -398h6l122 398h98zM104 645q0 27 17.5 44.5t44.5 17.5t45 -17.5t18 -44.5t-18 -44t-45 -17t-44.5 17t-17.5 44z
M289 645q0 27 17.5 44.5t44.5 17.5t45 -17.5t18 -44.5t-18 -44t-45 -17t-44.5 17t-17.5 44z" />
    <glyph glyph-name="Amacron" unicode="&#x100;" horiz-adv-x="635" 
d="M453 183h-274l-58 -183h-101l238 722h110l247 -722h-101zM204 264h222l-110 344h-6zM164 787v76h300v-76h-300z" />
    <glyph glyph-name="amacron" unicode="&#x101;" horiz-adv-x="523" 
d="M372 0h95q-6 27 -6 83v250q0 91 -55 137t-144 46q-85 0 -138.5 -45t-68.5 -115h101q-2 37 26 63t80 26q54 0 82.5 -29t28.5 -83v-54q-79 23 -152 22q-79 -1 -127.5 -46t-48.5 -115q0 -68 42 -110.5t115 -42.5q97 0 169 77h5zM371 222v-89q-22 -27 -59.5 -50.5
t-77.5 -23.5q-47 0 -72 22.5t-25 63.5q0 40 27.5 65t75.5 26q57 1 131 -14zM131 594v71h290v-71h-290z" />
    <glyph glyph-name="Abreve" unicode="&#x102;" horiz-adv-x="635" 
d="M453 183h-274l-58 -183h-101l238 722h110l247 -722h-101zM204 264h222l-110 344h-6zM313 831q27 0 46 9t27.5 23t12 25t4.5 21h55q2 -67 -37 -107t-108 -40t-107.5 40.5t-36.5 106.5h55q1 -10 4 -20.5t11.5 -25t27.5 -23.5t46 -9z" />
    <glyph glyph-name="abreve" unicode="&#x103;" horiz-adv-x="523" 
d="M467 0h-95q4 41 4 64h-5q-72 -77 -169 -77q-73 0 -115 42.5t-42 110.5q0 70 48.5 115t127.5 46q73 1 152 -22v54q0 54 -28.5 83t-82.5 29q-52 0 -80 -26t-26 -63h-101q15 70 68.5 115t138.5 45q89 0 144 -46t55 -137v-250q0 -56 6 -83zM371 133v89q-74 15 -131 14
q-48 -1 -75.5 -26t-27.5 -65q0 -41 25 -63.5t72 -22.5q40 0 77.5 23.5t59.5 50.5zM278 634q29 0 48.5 10.5t27.5 27t10.5 28t3.5 22.5h55q2 -73 -36.5 -115t-108.5 -42q-69 0 -107.5 42t-36.5 115h55q5 -88 89 -88z" />
    <glyph glyph-name="Aogonek" unicode="&#x104;" horiz-adv-x="635" 
d="M628 -129v-44q-46 -25 -95 -25q-45 0 -66.5 22t-21.5 50q0 71 116 126h-47l-61 183h-274l-58 -183h-101l238 722h110l247 -722q-96 -62 -96 -104q0 -40 50 -40q26 0 59 15zM204 264h222l-110 344h-6z" />
    <glyph glyph-name="aogonek" unicode="&#x105;" horiz-adv-x="523" 
d="M467 0h-95q4 41 4 64h-5q-72 -77 -169 -77q-73 0 -115 42.5t-42 110.5q0 70 48.5 115t127.5 46q73 1 152 -22v54q0 54 -28.5 83t-82.5 29q-52 0 -80 -26t-26 -63h-101q15 70 68.5 115t138.5 45q89 0 144 -46t55 -137v-250q0 -56 6 -83zM371 133v89q-74 15 -131 14
q-48 -1 -75.5 -26t-27.5 -65q0 -41 25 -63.5t72 -22.5q40 0 77.5 23.5t59.5 50.5zM480 -129v-44q-46 -25 -95 -25q-45 0 -66.5 22t-21.5 50q0 71 116 126h54q-96 -62 -96 -104q0 -40 50 -40q26 0 59 15z" />
    <glyph glyph-name="Cacute" unicode="&#x106;" horiz-adv-x="700" 
d="M654 502h-103q-3 59 -46.5 103t-121.5 44q-112 0 -177 -81.5t-65 -209.5q0 -118 63 -200t179 -82q81 0 129 44.5t51 104.5h102q-12 -105 -92 -171t-191 -66q-71 0 -130 23.5t-97.5 61.5t-65 87t-38 98.5t-11.5 98.5q0 68 21 133t61.5 120t108 88.5t151.5 33.5
q111 0 187 -63.5t85 -166.5zM501 928l34 -75l-200 -86l-30 59z" />
    <glyph glyph-name="cacute" unicode="&#x107;" horiz-adv-x="521" 
d="M486 341h-97q-3 35 -31.5 68t-79.5 33q-68 0 -103.5 -54t-35.5 -138q0 -81 37 -134.5t103 -53.5q49 0 79 31.5t38 74.5h95q-14 -78 -69 -129.5t-143 -51.5q-107 0 -173 74.5t-66 187.5q0 120 68.5 193t171.5 73q81 0 139.5 -50t66.5 -124zM413 742l41 -73l-195 -106
l-35 58z" />
    <glyph glyph-name="Ccircumflex" unicode="&#x108;" horiz-adv-x="700" 
d="M654 502h-103q-3 59 -46.5 103t-121.5 44q-112 0 -177 -81.5t-65 -209.5q0 -118 63 -200t179 -82q81 0 129 44.5t51 104.5h102q-12 -105 -92 -171t-191 -66q-71 0 -130 23.5t-97.5 61.5t-65 87t-38 98.5t-11.5 98.5q0 68 21 133t61.5 120t108 88.5t151.5 33.5
q111 0 187 -63.5t85 -166.5zM378 934l158 -159h-95l-60 60h-6l-62 -60h-95z" />
    <glyph glyph-name="ccircumflex" unicode="&#x109;" horiz-adv-x="521" 
d="M486 341h-97q-3 35 -31.5 68t-79.5 33q-68 0 -103.5 -54t-35.5 -138q0 -81 37 -134.5t103 -53.5q49 0 79 31.5t38 74.5h95q-14 -78 -69 -129.5t-143 -51.5q-107 0 -173 74.5t-66 187.5q0 120 68.5 193t171.5 73q81 0 139.5 -50t66.5 -124zM279 738l154 -171h-87l-64 65
h-6l-66 -65h-87z" />
    <glyph glyph-name="Cdotaccent" unicode="&#x10a;" horiz-adv-x="700" 
d="M654 502h-103q-3 59 -46.5 103t-121.5 44q-112 0 -177 -81.5t-65 -209.5q0 -118 63 -200t179 -82q81 0 129 44.5t51 104.5h102q-12 -105 -92 -171t-191 -66q-71 0 -130 23.5t-97.5 61.5t-65 87t-38 98.5t-11.5 98.5q0 68 21 133t61.5 120t108 88.5t151.5 33.5
q111 0 187 -63.5t85 -166.5zM318 837q0 27 17.5 44t43.5 17t44 -17t18 -44q0 -26 -18 -43t-44 -17t-43.5 16.5t-17.5 43.5z" />
    <glyph glyph-name="cdotaccent" unicode="&#x10b;" horiz-adv-x="521" 
d="M486 341h-97q-3 35 -31.5 68t-79.5 33q-68 0 -103.5 -54t-35.5 -138q0 -81 37 -134.5t103 -53.5q49 0 79 31.5t38 74.5h95q-14 -78 -69 -129.5t-143 -51.5q-107 0 -173 74.5t-66 187.5q0 120 68.5 193t171.5 73q81 0 139.5 -50t66.5 -124zM220 644q0 28 17.5 45.5
t45.5 17.5t46 -17.5t18 -45.5t-18 -45t-46 -17t-45.5 17t-17.5 45z" />
    <glyph glyph-name="Ccaron" unicode="&#x10c;" horiz-adv-x="700" 
d="M654 502h-103q-3 59 -46.5 103t-121.5 44q-112 0 -177 -81.5t-65 -209.5q0 -118 63 -200t179 -82q81 0 129 44.5t51 104.5h102q-12 -105 -92 -171t-191 -66q-71 0 -130 23.5t-97.5 61.5t-65 87t-38 98.5t-11.5 98.5q0 68 21 133t61.5 120t108 88.5t151.5 33.5
q111 0 187 -63.5t85 -166.5zM539 921l-158 -159l-160 159h95l62 -60h6l60 60h95z" />
    <glyph glyph-name="ccaron" unicode="&#x10d;" horiz-adv-x="521" 
d="M486 341h-97q-3 35 -31.5 68t-79.5 33q-68 0 -103.5 -54t-35.5 -138q0 -81 37 -134.5t103 -53.5q49 0 79 31.5t38 74.5h95q-14 -78 -69 -129.5t-143 -51.5q-107 0 -173 74.5t-66 187.5q0 120 68.5 193t171.5 73q81 0 139.5 -50t66.5 -124zM432 722l-154 -171l-156 171h87
l66 -64h6l64 64h87z" />
    <glyph glyph-name="Dcaron" unicode="&#x10e;" horiz-adv-x="681" 
d="M70 0v722h172q172 0 285.5 -97.5t113.5 -269.5q0 -158 -109 -256.5t-297 -98.5h-165zM170 639v-557l68 1q141 2 220 75t79 196q0 122 -76.5 202.5t-213.5 81.5zM469 921l-158 -159l-160 159h95l62 -60h6l60 60h95z" />
    <glyph glyph-name="dcaron" unicode="&#x10f;" horiz-adv-x="641" 
d="M402 502v220h94v-648q0 -54 2 -74h-85q-1 21 -1 74h-6q-54 -83 -149 -83q-101 0 -159 76t-58 186q0 112 56.5 187t152.5 75t148 -81h6q-1 34 -1 68zM138 253q0 -87 35.5 -138t102.5 -51q49 0 86 40.5t40 83.5v122q-2 46 -39 89.5t-92 43.5q-66 0 -99.5 -53.5
t-33.5 -136.5zM598 513h-61q42 37 59 72q3 6 0 10t-9 4q-27 0 -45 16.5t-18 43.5t18 45t45 18t45.5 -16.5t19.5 -44.5q1 -22 -3 -43q-15 -56 -51 -105z" />
    <glyph glyph-name="Dcroat" unicode="&#x110;" horiz-adv-x="681" 
d="M70 0v337h-73v61h73v324h172q172 0 285.5 -97.5t113.5 -269.5q0 -158 -109 -256.5t-297 -98.5h-165zM359 337h-189v-255l68 1q141 2 220 75t79 196q0 122 -76.5 202.5t-213.5 81.5l-77 1v-241h189v-61z" />
    <glyph glyph-name="dcroat" unicode="&#x111;" horiz-adv-x="562" 
d="M246 594v71h156v57h94v-57h40v-71h-40v-520q0 -54 2 -74h-85q-1 21 -1 74h-6q-54 -83 -149 -83q-101 0 -159 76t-58 186q0 112 56.5 187t152.5 75t148 -81h6q-1 34 -1 68v92h-156zM138 253q0 -87 35.5 -138t102.5 -51q49 0 86 40.5t40 83.5v122q-2 46 -39 89.5t-92 43.5
q-66 0 -99.5 -53.5t-33.5 -136.5z" />
    <glyph glyph-name="Emacron" unicode="&#x112;" horiz-adv-x="538" 
d="M70 0v722h417v-85h-318v-225h304v-84h-303v-240h328v-88h-428zM131 787v76h300v-76h-300z" />
    <glyph glyph-name="emacron" unicode="&#x113;" horiz-adv-x="533" 
d="M491 238h-358q1 -81 39 -130.5t108 -49.5q46 0 78.5 27t41.5 70h92q-9 -68 -67 -119t-150 -51q-106 0 -170.5 74t-64.5 196q0 109 63 184.5t166 75.5q53 0 94.5 -17.5t67 -46t41 -65.5t19.5 -74t0 -74zM137 306l261 2q0 20 -5.5 42t-19 45t-40 37.5t-62.5 14.5
q-52 0 -89.5 -37t-44.5 -104zM131 594v71h290v-71h-290z" />
    <glyph glyph-name="Ebreve" unicode="&#x114;" horiz-adv-x="538" 
d="M70 0v722h417v-85h-318v-225h304v-84h-303v-240h328v-88h-428zM281 831q27 0 46 9t27.5 23t12 25t4.5 21h55q2 -67 -37 -107t-108 -40t-107.5 40.5t-36.5 106.5h55q1 -10 4 -20.5t11.5 -25t27.5 -23.5t46 -9z" />
    <glyph glyph-name="ebreve" unicode="&#x115;" horiz-adv-x="533" 
d="M491 238h-358q1 -81 39 -130.5t108 -49.5q46 0 78.5 27t41.5 70h92q-9 -68 -67 -119t-150 -51q-106 0 -170.5 74t-64.5 196q0 109 63 184.5t166 75.5q53 0 94.5 -17.5t67 -46t41 -65.5t19.5 -74t0 -74zM137 306l261 2q0 20 -5.5 42t-19 45t-40 37.5t-62.5 14.5
q-52 0 -89.5 -37t-44.5 -104zM274 634q29 0 48.5 10.5t27.5 27t10.5 28t3.5 22.5h55q2 -73 -36.5 -115t-108.5 -42q-69 0 -107.5 42t-36.5 115h55q5 -88 89 -88z" />
    <glyph glyph-name="Edotaccent" unicode="&#x116;" horiz-adv-x="538" 
d="M70 0v722h417v-85h-318v-225h304v-84h-303v-240h328v-88h-428zM227 837q0 27 17.5 44t43.5 17t44 -17t18 -44q0 -26 -18 -43t-44 -17t-43.5 16.5t-17.5 43.5z" />
    <glyph glyph-name="edotaccent" unicode="&#x117;" horiz-adv-x="533" 
d="M491 238h-358q1 -81 39 -130.5t108 -49.5q46 0 78.5 27t41.5 70h92q-9 -68 -67 -119t-150 -51q-106 0 -170.5 74t-64.5 196q0 109 63 184.5t166 75.5q53 0 94.5 -17.5t67 -46t41 -65.5t19.5 -74t0 -74zM137 306l261 2q0 20 -5.5 42t-19 45t-40 37.5t-62.5 14.5
q-52 0 -89.5 -37t-44.5 -104zM211 644q0 28 17.5 45.5t45.5 17.5t46 -17.5t18 -45.5t-18 -45t-46 -17t-45.5 17t-17.5 45z" />
    <glyph glyph-name="Eogonek" unicode="&#x118;" horiz-adv-x="538" 
d="M70 0v722h417v-85h-318v-225h304v-84h-303v-240h328v-88q-96 -62 -96 -104q0 -40 50 -40q26 0 59 15v-44q-46 -25 -95 -25q-45 0 -66.5 22t-21.5 50q0 71 116 126h-374z" />
    <glyph glyph-name="eogonek" unicode="&#x119;" horiz-adv-x="533" 
d="M491 238h-358q1 -81 39 -130.5t108 -49.5q46 0 78.5 27t41.5 70h92q-12 -83 -84 -132q-29 -24 -51.5 -60t-22.5 -63q0 -43 53 -43q26 0 57 14v-44q-46 -25 -95 -25q-48 0 -69 22.5t-21 51.5q0 50 66 114q-27 -5 -50 -5q-106 0 -170.5 74t-64.5 196q0 109 63 184.5
t166 75.5q53 0 94.5 -17.5t67 -46t41 -65.5t19.5 -74t0 -74zM137 306l261 2q0 20 -5.5 42t-19 45t-40 37.5t-62.5 14.5q-52 0 -89.5 -37t-44.5 -104z" />
    <glyph glyph-name="Ecaron" unicode="&#x11a;" horiz-adv-x="538" 
d="M70 0v722h417v-85h-318v-225h304v-84h-303v-240h328v-88h-428zM448 921l-158 -159l-160 159h95l62 -60h6l60 60h95z" />
    <glyph glyph-name="ecaron" unicode="&#x11b;" horiz-adv-x="533" 
d="M491 238h-358q1 -81 39 -130.5t108 -49.5q46 0 78.5 27t41.5 70h92q-9 -68 -67 -119t-150 -51q-106 0 -170.5 74t-64.5 196q0 109 63 184.5t166 75.5q53 0 94.5 -17.5t67 -46t41 -65.5t19.5 -74t0 -74zM137 306l261 2q0 20 -5.5 42t-19 45t-40 37.5t-62.5 14.5
q-52 0 -89.5 -37t-44.5 -104zM431 722l-154 -171l-156 171h87l66 -64h6l64 64h87z" />
    <glyph glyph-name="Gcircumflex" unicode="&#x11c;" horiz-adv-x="733" 
d="M670 502h-106q-2 65 -49 109t-122 44q-117 0 -183.5 -83.5t-66.5 -211.5q0 -137 60 -215.5t178 -78.5q94 0 153.5 53.5t58.5 140.5l-298 -29v99h394l-2 -57q-5 -137 -93 -212.5t-215 -75.5q-161 0 -250 106t-89 268q0 156 96 265t257 109q112 0 191 -65t86 -166zM389 934
l158 -159h-95l-60 60h-6l-62 -60h-95z" />
    <glyph glyph-name="gcircumflex" unicode="&#x11d;" horiz-adv-x="564" 
d="M136 262q0 -85 37 -133.5t101 -48.5q49 0 85 37t41 80v123q-2 45 -39 83.5t-89 38.5q-68 0 -102 -50.5t-34 -129.5zM494 376v-359q0 -106 -60 -162t-156 -56q-99 0 -149 51t-58 114h95q4 -44 34 -72t79 -28q123 0 123 145l1 79h-6q-20 -36 -58 -58t-82 -22
q-102 0 -159.5 70.5t-57.5 177.5q0 110 59 181.5t155 71.5q59 0 94 -24t50 -51h6q1 5 4 29.5t6 38.5h90q-10 -46 -10 -126zM274 738l154 -171h-87l-64 65h-6l-66 -65h-87z" />
    <glyph glyph-name="Gbreve" unicode="&#x11e;" horiz-adv-x="733" 
d="M670 502h-106q-2 65 -49 109t-122 44q-117 0 -183.5 -83.5t-66.5 -211.5q0 -137 60 -215.5t178 -78.5q94 0 153.5 53.5t58.5 140.5l-298 -29v99h394l-2 -57q-5 -137 -93 -212.5t-215 -75.5q-161 0 -250 106t-89 268q0 156 96 265t257 109q112 0 191 -65t86 -166zM394 831
q27 0 46 9t27.5 23t12 25t4.5 21h55q2 -67 -37 -107t-108 -40t-107.5 40.5t-36.5 106.5h55q1 -10 4 -20.5t11.5 -25t27.5 -23.5t46 -9z" />
    <glyph glyph-name="gbreve" unicode="&#x11f;" horiz-adv-x="564" 
d="M136 262q0 -85 37 -133.5t101 -48.5q49 0 85 37t41 80v123q-2 45 -39 83.5t-89 38.5q-68 0 -102 -50.5t-34 -129.5zM494 376v-359q0 -106 -60 -162t-156 -56q-99 0 -149 51t-58 114h95q4 -44 34 -72t79 -28q123 0 123 145l1 79h-6q-20 -36 -58 -58t-82 -22
q-102 0 -159.5 70.5t-57.5 177.5q0 110 59 181.5t155 71.5q59 0 94 -24t50 -51h6q1 5 4 29.5t6 38.5h90q-10 -46 -10 -126zM280 634q29 0 48.5 10.5t27.5 27t10.5 28t3.5 22.5h55q2 -73 -36.5 -115t-108.5 -42q-69 0 -107.5 42t-36.5 115h55q5 -88 89 -88z" />
    <glyph glyph-name="Gdotaccent" unicode="&#x120;" horiz-adv-x="733" 
d="M670 502h-106q-2 65 -49 109t-122 44q-117 0 -183.5 -83.5t-66.5 -211.5q0 -137 60 -215.5t178 -78.5q94 0 153.5 53.5t58.5 140.5l-298 -29v99h394l-2 -57q-5 -137 -93 -212.5t-215 -75.5q-161 0 -250 106t-89 268q0 156 96 265t257 109q112 0 191 -65t86 -166zM335 837
q0 27 17.5 44t43.5 17t44 -17t18 -44q0 -26 -18 -43t-44 -17t-43.5 16.5t-17.5 43.5z" />
    <glyph glyph-name="gdotaccent" unicode="&#x121;" horiz-adv-x="564" 
d="M136 262q0 79 34 129.5t102 50.5q52 0 89 -38.5t39 -83.5v-123q-5 -43 -41 -80t-85 -37q-64 0 -101 48.5t-37 133.5zM494 17v359q0 80 10 126h-90q-3 -14 -6 -38.5t-4 -29.5h-6q-9 16 -23 30.5t-47 29.5t-74 15q-96 0 -155 -71.5t-59 -181.5q0 -107 57.5 -177.5
t159.5 -70.5q44 0 82 22t58 58h6q-1 -40 -1 -79q0 -145 -123 -145q-49 0 -79 28t-34 72h-95q8 -63 58 -114t149 -51q96 0 156 56t60 162zM202 644q0 28 17.5 45.5t45.5 17.5t46 -17.5t18 -45.5t-18 -45t-46 -17t-45.5 17t-17.5 45z" />
    <glyph glyph-name="Gcommaaccent" unicode="&#x122;" horiz-adv-x="733" 
d="M670 502h-106q-2 65 -49 109t-122 44q-117 0 -183.5 -83.5t-66.5 -211.5q0 -137 60 -215.5t178 -78.5q94 0 153.5 53.5t58.5 140.5l-298 -29v99h394l-2 -57q-5 -137 -93 -212.5t-215 -75.5q-161 0 -250 106t-89 268q0 156 96 265t257 109q112 0 191 -65t86 -166z
M399 -246h-58q37 30 54 64q2 4 0 8t-7 4q-24 0 -40.5 16t-16.5 40t17 40t41 16q25 0 41.5 -15.5t17.5 -40.5q4 -60 -49 -132z" />
    <glyph glyph-name="gcommaaccent" unicode="&#x123;" horiz-adv-x="564" 
d="M136 262q0 79 34 129.5t102 50.5q52 0 89 -38.5t39 -83.5v-123q-5 -43 -41 -80t-85 -37q-64 0 -101 48.5t-37 133.5zM494 17v359q0 80 10 126h-90q-3 -14 -6 -38.5t-4 -29.5h-6q-9 16 -23 30.5t-47 29.5t-74 15q-96 0 -155 -71.5t-59 -181.5q0 -107 57.5 -177.5
t159.5 -70.5q44 0 82 22t58 58h6q-1 -40 -1 -79q0 -145 -123 -145q-49 0 -79 28t-34 72h-95q8 -63 58 -114t149 -51q96 0 156 56t60 162zM263 748h58q-37 -30 -54 -64q-2 -4 0 -8t7 -4q24 0 40.5 -16t16.5 -40t-17 -40t-41 -16q-25 0 -41.5 15.5t-17.5 40.5q-4 60 49 132z
" />
    <glyph glyph-name="Hcircumflex" unicode="&#x124;" horiz-adv-x="689" 
d="M70 722h100v-314h349v314h100v-722h-100v322h-349v-322h-100v722zM345 934l158 -159h-95l-60 60h-6l-62 -60h-95z" />
    <glyph glyph-name="hcircumflex" unicode="&#x125;" horiz-adv-x="556" 
d="M65 0v722h93v-220q0 -40 -1 -86h6q10 17 26 35.5t53.5 39t80.5 20.5q19 0 39 -4t44 -16.5t42 -32t30.5 -53.5t12.5 -78v-327h-96v329q0 52 -23 81t-65 29q-51 0 -91.5 -41.5t-55.5 -105.5v-292h-95zM259 928l154 -171h-87l-64 65h-6l-66 -65h-87z" />
    <glyph glyph-name="Hbar" unicode="&#x126;" horiz-adv-x="689" 
d="M70 722h100v-117h349v117h100v-117h60v-71h-60v-534h-100v322h-349v-322h-100v534h-60v71h60v117zM170 408h349v126h-349v-126z" />
    <glyph glyph-name="hbar" unicode="&#x127;" horiz-adv-x="556" 
d="M25 594v71h40v57h93v-57h157v-71h-157v-92q0 -40 -1 -86h6q10 17 26 35.5t53.5 39t80.5 20.5q19 0 39 -4t44 -16.5t42 -32t30.5 -53.5t12.5 -78v-327h-96v329q0 52 -23 81t-65 29q-51 0 -91.5 -41.5t-55.5 -105.5v-292h-95v594h-40z" />
    <glyph glyph-name="Itilde" unicode="&#x128;" horiz-adv-x="240" 
d="M70 0v722h100v-722h-100zM17 776h-50q-1 58 25.5 85t63.5 27q22 0 67 -15q47 -15 58 -15q39 0 43 38h50q1 -58 -25.5 -85t-63.5 -27q-22 0 -67 15q-47 15 -58 15q-39 0 -43 -38z" />
    <glyph glyph-name="itilde" unicode="&#x129;" horiz-adv-x="224" 
d="M65 0v502h94v-502h-94zM4 584h-51q-1 58 26 86.5t64 28.5q27 0 72 -15q47 -15 63 -15t28.5 9.5t14.5 29.5h51q1 -58 -26 -86.5t-64 -28.5q-27 0 -72 15q-47 15 -63 15t-28.5 -9.5t-14.5 -29.5z" />
    <glyph glyph-name="Imacron" unicode="&#x12a;" horiz-adv-x="240" 
d="M70 0v722h100v-722h-100zM-30 787v76h300v-76h-300z" />
    <glyph glyph-name="imacron" unicode="&#x12b;" horiz-adv-x="224" 
d="M65 0v502h94v-502h-94zM-33 594v71h290v-71h-290z" />
    <glyph glyph-name="Ibreve" unicode="&#x12c;" horiz-adv-x="240" 
d="M70 0v722h100v-722h-100zM120 831q27 0 46 9t27.5 23t12 25t4.5 21h55q2 -67 -37 -107t-108 -40t-107.5 40.5t-36.5 106.5h55q1 -10 4 -20.5t11.5 -25t27.5 -23.5t46 -9z" />
    <glyph glyph-name="ibreve" unicode="&#x12d;" horiz-adv-x="224" 
d="M65 0v502h94v-502h-94zM112 634q29 0 48.5 10.5t27.5 27t10.5 28t3.5 22.5h55q2 -73 -36.5 -115t-108.5 -42q-69 0 -107.5 42t-36.5 115h55q5 -88 89 -88z" />
    <glyph glyph-name="Iogonek" unicode="&#x12e;" horiz-adv-x="240" 
d="M70 0v722h100v-722q-96 -62 -96 -104q0 -40 50 -40q26 0 59 15v-44q-46 -25 -95 -25q-45 0 -66.5 22t-21.5 50q0 71 116 126h-46z" />
    <glyph glyph-name="iogonek" unicode="&#x12f;" horiz-adv-x="224" 
d="M65 0v502h94v-502q-96 -62 -96 -104q0 -40 50 -40q26 0 59 15v-44q-46 -25 -95 -25q-45 0 -66.5 22t-21.5 50q0 71 116 126h-40zM51 661q0 27 17.5 44t43.5 17q27 0 44.5 -17t17.5 -44t-17.5 -43.5t-44.5 -16.5t-44 16.5t-17 43.5z" />
    <glyph glyph-name="Idotaccent" unicode="&#x130;" horiz-adv-x="240" 
d="M70 0v722h100v-722h-100zM59 837q0 27 17.5 44t43.5 17t44 -17t18 -44q0 -26 -18 -43t-44 -17t-43.5 16.5t-17.5 43.5z" />
    <glyph glyph-name="dotlessi" unicode="&#x131;" horiz-adv-x="228" 
d="M67 0v502h94v-502h-94z" />
    <glyph glyph-name="Jcircumflex" unicode="&#x134;" horiz-adv-x="498" 
d="M20 210h101q-1 -59 23 -98t77 -39t80 36.5t27 102.5v510h100v-510q0 -104 -58 -163.5t-151 -59.5t-146 62t-53 159zM250 934l158 -159h-95l-60 60h-6l-62 -60h-95z" />
    <glyph glyph-name="jcircumflex" unicode="&#x135;" horiz-adv-x="233" 
d="M0 -193v71q38 0 55 18t17 68v538h94v-535q0 -27 -5 -51.5t-17 -52t-39.5 -44t-66.5 -16.5q-22 0 -38 4zM118 738l154 -171h-87l-64 65h-6l-66 -65h-87z" />
    <glyph glyph-name="Kcommaaccent" unicode="&#x136;" horiz-adv-x="610" 
d="M70 0v722h99v-340h6l275 340h123l-297 -350l324 -372h-126l-299 349h-6v-349h-99zM320 -246h-58q37 30 54 64q2 4 0 8t-7 4q-24 0 -40.5 16t-16.5 40t17 40t41 16q25 0 41.5 -15.5t17.5 -40.5q4 -60 -49 -132z" />
    <glyph glyph-name="kcommaaccent" unicode="&#x137;" horiz-adv-x="500" 
d="M65 0v722h93v-443h6l208 224h120l-232 -235l240 -268h-119l-217 251h-6v-251h-93zM266 -246h-58q37 30 54 64q2 4 0 8t-7 4q-24 0 -40.5 16t-16.5 40t17 40t41 16q25 0 41.5 -15.5t17.5 -40.5q4 -60 -49 -132z" />
    <glyph glyph-name="Lacute" unicode="&#x139;" horiz-adv-x="485" 
d="M70 0v722h99v-633l296 1v-90h-395zM266 928l34 -75l-200 -86l-30 59z" />
    <glyph glyph-name="lacute" unicode="&#x13a;" horiz-adv-x="224" 
d="M159 519v-519h-94v722h84zM239 928l34 -75l-200 -86l-30 59z" />
    <glyph glyph-name="Lcommaaccent" unicode="&#x13b;" horiz-adv-x="485" 
d="M70 0v722h99v-633l296 1v-90h-395zM276 -246h-58q37 30 54 64q2 4 0 8t-7 4q-24 0 -40.5 16t-16.5 40t17 40t41 16q25 0 41.5 -15.5t17.5 -40.5q4 -60 -49 -132z" />
    <glyph glyph-name="lcommaaccent" unicode="&#x13c;" horiz-adv-x="224" 
d="M159 519v-519h-94v722h84zM121 -246h-58q37 30 54 64q2 4 0 8t-7 4q-24 0 -40.5 16t-16.5 40t17 40t41 16q25 0 41.5 -15.5t17.5 -40.5q4 -60 -49 -132z" />
    <glyph glyph-name="Lcaron" unicode="&#x13d;" horiz-adv-x="485" 
d="M70 0v722h99v-633l296 1v-90h-395zM301 513h-61q42 37 59 72q3 6 0 10t-9 4q-27 0 -45 16.5t-18 43.5t18 45t45 18t45.5 -16.5t19.5 -44.5q1 -22 -3 -43q-15 -56 -51 -105z" />
    <glyph glyph-name="lcaron" unicode="&#x13e;" horiz-adv-x="304" 
d="M159 519v-519h-94v722h84zM261 513h-61q42 37 59 72q3 6 0 10t-9 4q-27 0 -45 16.5t-18 43.5t18 45t45 18t45.5 -16.5t19.5 -44.5q1 -22 -3 -43q-15 -56 -51 -105z" />
    <glyph glyph-name="Ldot" unicode="&#x13f;" horiz-adv-x="485" 
d="M70 0v722h99v-633l296 1v-90h-395zM288 346q0 30 21 51t51 21t51 -21t21 -51t-21 -50.5t-51 -20.5t-51 20.5t-21 50.5z" />
    <glyph glyph-name="ldot" unicode="&#x140;" horiz-adv-x="374" 
d="M159 519v-519h-94v722h84zM220 346q0 30 21 51t51 21t51 -21t21 -51t-21 -50.5t-51 -20.5t-51 20.5t-21 50.5z" />
    <glyph glyph-name="Lslash" unicode="&#x141;" horiz-adv-x="496" 
d="M82 0v282l-72 -44v74l72 44v366h99v-304l195 121v-76l-195 -120v-254l296 1v-90h-395z" />
    <glyph glyph-name="lslash" unicode="&#x142;" horiz-adv-x="234" 
d="M163 519v-91l67 42v-72l-67 -42v-356h-94v298l-65 -40v72l65 40v352h84z" />
    <glyph glyph-name="Nacute" unicode="&#x143;" horiz-adv-x="750" 
d="M70 0v722h99l413 -566h6v566h92v-722h-100l-413 569h-6v-569h-91zM516 928l34 -75l-200 -86l-30 59z" />
    <glyph glyph-name="nacute" unicode="&#x144;" horiz-adv-x="551" 
d="M65 0v416q0 50 -5 86h97v-86h6q10 17 27 36t54.5 39.5t80.5 20.5q26 0 52 -8t53 -27t44 -57.5t17 -92.5v-327h-96v329q0 52 -23 81t-65 29q-51 0 -91.5 -41.5t-55.5 -105.5v-292h-95zM406 742l41 -73l-195 -106l-35 58z" />
    <glyph glyph-name="Ncommaaccent" unicode="&#x145;" horiz-adv-x="750" 
d="M70 0v722h99l413 -566h6v566h92v-722h-100l-413 569h-6v-569h-91zM391 -246h-58q37 30 54 64q2 4 0 8t-7 4q-24 0 -40.5 16t-16.5 40t17 40t41 16q25 0 41.5 -15.5t17.5 -40.5q4 -60 -49 -132z" />
    <glyph glyph-name="ncommaaccent" unicode="&#x146;" horiz-adv-x="551" 
d="M65 0v416q0 50 -5 86h97v-86h6q10 17 27 36t54.5 39.5t80.5 20.5q26 0 52 -8t53 -27t44 -57.5t17 -92.5v-327h-96v329q0 52 -23 81t-65 29q-51 0 -91.5 -41.5t-55.5 -105.5v-292h-95zM289 -246h-58q37 30 54 64q2 4 0 8t-7 4q-24 0 -40.5 16t-16.5 40t17 40t41 16
q25 0 41.5 -15.5t17.5 -40.5q4 -60 -49 -132z" />
    <glyph glyph-name="Ncaron" unicode="&#x147;" horiz-adv-x="750" 
d="M70 0v722h99l413 -566h6v566h92v-722h-100l-413 569h-6v-569h-91zM536 921l-158 -159l-160 159h95l62 -60h6l60 60h95z" />
    <glyph glyph-name="ncaron" unicode="&#x148;" horiz-adv-x="551" 
d="M65 0v416q0 50 -5 86h97v-86h6q10 17 27 36t54.5 39.5t80.5 20.5q26 0 52 -8t53 -27t44 -57.5t17 -92.5v-327h-96v329q0 52 -23 81t-65 29q-51 0 -91.5 -41.5t-55.5 -105.5v-292h-95zM441 722l-154 -171l-156 171h87l66 -64h6l64 64h87z" />
    <glyph glyph-name="Eng" unicode="&#x14a;" horiz-adv-x="750" 
d="M285 -20h100q-2 -119 98 -119q103 0 103 128q0 14 -14 12l-405 568h-6v-569h-91v722h99l413 -571h6v571h92v-733q0 -101 -53 -155t-145 -54t-144.5 53t-52.5 147z" />
    <glyph glyph-name="eng" unicode="&#x14b;" horiz-adv-x="551" 
d="M308 -193v71q42 0 64.5 19t22.5 67v365q0 52 -23 81t-65 29q-51 0 -91.5 -41.5t-55.5 -105.5v-292h-95v416q0 50 -5 86h97v-86h6q10 17 27 36t54.5 39.5t80.5 20.5q26 0 52 -8t53 -27t44 -57.5t17 -92.5v-365q0 -37 -11 -70.5t-44 -61t-85 -27.5q-27 0 -43 4z" />
    <glyph glyph-name="Omacron" unicode="&#x14c;" horiz-adv-x="796" 
d="M756 362q0 -172 -105 -275.5t-255 -103.5q-149 0 -252.5 106.5t-103.5 276.5q0 99 42.5 183.5t125.5 138t189 53.5q160 0 259.5 -110.5t99.5 -268.5zM652 363q0 133 -72 213.5t-184 80.5q-113 0 -182.5 -84.5t-69.5 -208.5q0 -129 69 -212.5t183 -83.5q120 0 188 85
t68 210zM248 787v76h300v-76h-300z" />
    <glyph glyph-name="omacron" unicode="&#x14d;" horiz-adv-x="578" 
d="M40 251q0 36 9.5 72t29.5 71t48.5 61.5t71 43t92.5 16.5q61 0 110.5 -25t78 -65.5t43.5 -85.5t15 -89q0 -107 -66.5 -187t-180.5 -80q-115 0 -183 78.5t-68 189.5zM138 251q0 -84 39 -140.5t113 -56.5q63 0 106.5 50.5t43.5 147.5q0 91 -43 141.5t-107 50.5
q-60 0 -106 -45.5t-46 -147.5zM144 594v71h290v-71h-290z" />
    <glyph glyph-name="Obreve" unicode="&#x14e;" horiz-adv-x="796" 
d="M756 362q0 -172 -105 -275.5t-255 -103.5q-149 0 -252.5 106.5t-103.5 276.5q0 99 42.5 183.5t125.5 138t189 53.5q160 0 259.5 -110.5t99.5 -268.5zM652 363q0 133 -72 213.5t-184 80.5q-113 0 -182.5 -84.5t-69.5 -208.5q0 -129 69 -212.5t183 -83.5q120 0 188 85
t68 210zM399 831q27 0 46 9t27.5 23t12 25t4.5 21h55q2 -67 -37 -107t-108 -40t-107.5 40.5t-36.5 106.5h55q1 -10 4 -20.5t11.5 -25t27.5 -23.5t46 -9z" />
    <glyph glyph-name="obreve" unicode="&#x14f;" horiz-adv-x="578" 
d="M40 251q0 36 9.5 72t29.5 71t48.5 61.5t71 43t92.5 16.5q61 0 110.5 -25t78 -65.5t43.5 -85.5t15 -89q0 -107 -66.5 -187t-180.5 -80q-115 0 -183 78.5t-68 189.5zM138 251q0 -84 39 -140.5t113 -56.5q63 0 106.5 50.5t43.5 147.5q0 91 -43 141.5t-107 50.5
q-60 0 -106 -45.5t-46 -147.5zM288 634q29 0 48.5 10.5t27.5 27t10.5 28t3.5 22.5h55q2 -73 -36.5 -115t-108.5 -42q-69 0 -107.5 42t-36.5 115h55q5 -88 89 -88z" />
    <glyph glyph-name="Ohungarumlaut" unicode="&#x150;" horiz-adv-x="796" 
d="M756 362q0 -172 -105 -275.5t-255 -103.5q-149 0 -252.5 106.5t-103.5 276.5q0 99 42.5 183.5t125.5 138t189 53.5q160 0 259.5 -110.5t99.5 -268.5zM652 363q0 133 -72 213.5t-184 80.5q-113 0 -182.5 -84.5t-69.5 -208.5q0 -129 69 -212.5t183 -83.5q120 0 188 85
t68 210zM424 935l43 -61l-155 -107l-38 50zM598 934l43 -61l-155 -106l-38 49z" />
    <glyph glyph-name="ohungarumlaut" unicode="&#x151;" horiz-adv-x="578" 
d="M40 251q0 36 9.5 72t29.5 71t48.5 61.5t71 43t92.5 16.5q61 0 110.5 -25t78 -65.5t43.5 -85.5t15 -89q0 -107 -66.5 -187t-180.5 -80q-115 0 -183 78.5t-68 189.5zM138 251q0 -84 39 -140.5t113 -56.5q63 0 106.5 50.5t43.5 147.5q0 91 -43 141.5t-107 50.5
q-60 0 -106 -45.5t-46 -147.5zM304 743l49 -59l-151 -120l-42 48zM471 743l49 -59l-151 -120l-42 48z" />
    <glyph glyph-name="OE" unicode="&#x152;" horiz-adv-x="982" 
d="M514 0q-54 -17 -116 -17q-159 0 -258.5 109t-99.5 264q0 173 104.5 279t253.5 106q59 0 116 -19h417v-85h-318v-225h304v-84h-303v-240h328v-88h-428zM143 362q0 -132 72.5 -212.5t185.5 -80.5q63 0 113 27v534q-52 27 -113 27q-120 0 -189 -86.5t-69 -208.5z" />
    <glyph glyph-name="oe" unicode="&#x153;" horiz-adv-x="935" 
d="M893 238h-358q1 -81 40 -130.5t108 -49.5q46 0 78 27.5t41 69.5h92q-10 -68 -66 -119t-145 -51q-125 0 -192 113h-7q-72 -115 -195 -115q-115 0 -182 78.5t-67 189.5q0 45 15 90.5t44.5 85t79 64t111.5 24.5q124 0 194 -109h6q65 109 180 109q53 0 95 -17.5t67 -46
t40.5 -65.5t20 -74t0.5 -74zM138 251q0 -84 38.5 -140t114.5 -56q62 0 107 50.5t45 146.5q0 87 -44 139.5t-108 52.5q-61 0 -107 -45.5t-46 -147.5zM540 307h259q0 23 -6 46t-19.5 45t-40 35.5t-62.5 13.5q-50 0 -87.5 -35.5t-43.5 -104.5z" />
    <glyph glyph-name="Racute" unicode="&#x154;" horiz-adv-x="598" 
d="M70 0v722h170q112 0 190 -52t78 -149q0 -78 -55 -128.5t-138 -64.5l283 -328h-125l-267 316h-37v-316h-99zM167 638v-238l75 1q67 1 115 29.5t48 87.5q0 63 -48.5 90.5t-115.5 28.5zM380 928l34 -75l-200 -86l-30 59z" />
    <glyph glyph-name="racute" unicode="&#x155;" horiz-adv-x="375" 
d="M65 0v371q0 79 -6 131h90l5 -131h6q14 54 54.5 96.5t91.5 42.5q34 0 64 -14v-86q-26 13 -56 13q-68 0 -109 -58t-45 -142v-223h-95zM338 742l41 -73l-195 -106l-35 58z" />
    <glyph glyph-name="Rcommaaccent" unicode="&#x156;" horiz-adv-x="598" 
d="M70 0v722h170q112 0 190 -52t78 -149q0 -78 -55 -128.5t-138 -64.5l283 -328h-125l-267 316h-37v-316h-99zM167 638v-238l75 1q67 1 115 29.5t48 87.5q0 63 -48.5 90.5t-115.5 28.5zM320 -246h-58q37 30 54 64q2 4 0 8t-7 4q-24 0 -40.5 16t-16.5 40t17 40t41 16
q25 0 41.5 -15.5t17.5 -40.5q4 -60 -49 -132z" />
    <glyph glyph-name="rcommaaccent" unicode="&#x157;" horiz-adv-x="375" 
d="M65 0v371q0 79 -6 131h90l5 -131h6q14 54 54.5 96.5t91.5 42.5q34 0 64 -14v-86q-26 13 -56 13q-68 0 -109 -58t-45 -142v-223h-95zM122 -246h-58q37 30 54 64q2 4 0 8t-7 4q-24 0 -40.5 16t-16.5 40t17 40t41 16q25 0 41.5 -15.5t17.5 -40.5q4 -60 -49 -132z" />
    <glyph glyph-name="Rcaron" unicode="&#x158;" horiz-adv-x="598" 
d="M70 0v722h170q112 0 190 -52t78 -149q0 -78 -55 -128.5t-138 -64.5l283 -328h-125l-267 316h-37v-316h-99zM167 638v-238l75 1q67 1 115 29.5t48 87.5q0 63 -48.5 90.5t-115.5 28.5zM428 921l-158 -159l-160 159h95l62 -60h6l60 60h95z" />
    <glyph glyph-name="rcaron" unicode="&#x159;" horiz-adv-x="375" 
d="M65 0v371q0 79 -6 131h90l5 -131h6q14 54 54.5 96.5t91.5 42.5q34 0 64 -14v-86q-26 13 -56 13q-68 0 -109 -58t-45 -142v-223h-95zM373 722l-154 -171l-156 171h87l66 -64h6l64 64h87z" />
    <glyph glyph-name="Sacute" unicode="&#x15a;" horiz-adv-x="596" 
d="M40 218h104q0 -24 7 -46.5t22.5 -47.5t49 -40.5t80.5 -15.5q79 0 115 37t36 80q0 56 -39 83t-133 48q-104 23 -167.5 76t-63.5 138q0 98 68.5 154t172.5 56q103 0 170.5 -55t73.5 -155h-103q-4 63 -44.5 95t-98.5 32q-62 0 -100.5 -35t-38.5 -87q0 -29 12.5 -51
t38.5 -36.5t53.5 -24t68.5 -18.5q113 -26 172.5 -74.5t59.5 -134.5q0 -96 -70.5 -154.5t-190.5 -58.5q-46 0 -88 12t-80.5 38t-62 73.5t-24.5 111.5zM419 928l34 -75l-200 -86l-30 59z" />
    <glyph glyph-name="sacute" unicode="&#x15b;" horiz-adv-x="463" 
d="M40 149h97q0 -35 25.5 -63t74.5 -28q42 0 68 20.5t26 53.5q0 31 -26.5 50.5t-81.5 33.5q-179 44 -179 153q0 67 51 106t133 39q74 0 125 -40t55 -110h-95q-2 37 -27 59t-61 22t-62 -17t-26 -52q0 -30 28.5 -49t86.5 -32q176 -41 176 -154q0 -70 -55 -112t-140 -42
q-77 0 -133 41.5t-60 120.5zM345 742l41 -73l-195 -106l-35 58z" />
    <glyph glyph-name="Scircumflex" unicode="&#x15c;" horiz-adv-x="596" 
d="M40 218h104q0 -24 7 -46.5t22.5 -47.5t49 -40.5t80.5 -15.5q79 0 115 37t36 80q0 56 -39 83t-133 48q-104 23 -167.5 76t-63.5 138q0 98 68.5 154t172.5 56q103 0 170.5 -55t73.5 -155h-103q-4 63 -44.5 95t-98.5 32q-62 0 -100.5 -35t-38.5 -87q0 -29 12.5 -51
t38.5 -36.5t53.5 -24t68.5 -18.5q113 -26 172.5 -74.5t59.5 -134.5q0 -96 -70.5 -154.5t-190.5 -58.5q-46 0 -88 12t-80.5 38t-62 73.5t-24.5 111.5zM299 934l158 -159h-95l-60 60h-6l-62 -60h-95z" />
    <glyph glyph-name="scircumflex" unicode="&#x15d;" horiz-adv-x="463" 
d="M40 149h97q0 -35 25.5 -63t74.5 -28q42 0 68 20.5t26 53.5q0 31 -26.5 50.5t-81.5 33.5q-179 44 -179 153q0 67 51 106t133 39q74 0 125 -40t55 -110h-95q-2 37 -27 59t-61 22t-62 -17t-26 -52q0 -30 28.5 -49t86.5 -32q176 -41 176 -154q0 -70 -55 -112t-140 -42
q-77 0 -133 41.5t-60 120.5zM235 738l154 -171h-87l-64 65h-6l-66 -65h-87z" />
    <glyph glyph-name="Scedilla" unicode="&#x15e;" horiz-adv-x="596" 
d="M191 -193l20 41q29 -17 67 -17q25 0 40.5 11.5t15.5 31.5q0 35 -45 35q-22 0 -44 -9l-27 22l44 63q-42 4 -79.5 18.5t-70 40.5t-52 71t-20.5 103h104q0 -24 7 -46.5t22.5 -47.5t49 -40.5t80.5 -15.5q79 0 115 37t36 80q0 56 -39 83t-133 48q-104 23 -167.5 76t-63.5 138
q0 98 68.5 154t172.5 56q103 0 170.5 -55t73.5 -155h-103q-4 63 -44.5 95t-98.5 32q-62 0 -100.5 -35t-38.5 -87q0 -29 12.5 -51t38.5 -36.5t53.5 -24t68.5 -18.5q113 -26 172.5 -74.5t59.5 -134.5q0 -92 -65 -150t-177 -62l-34 -40l3 -4q25 9 48 9q33 0 51.5 -19t18.5 -50
q0 -39 -32 -66.5t-89 -27.5q-49 0 -89 21z" />
    <glyph glyph-name="scedilla" unicode="&#x15f;" horiz-adv-x="463" 
d="M124 -193l20 41q29 -17 67 -17q25 0 40.5 11.5t15.5 31.5q0 35 -45 35q-22 0 -44 -9l-27 22l47 68q-65 8 -110 48.5t-48 110.5h97q0 -35 25.5 -63t74.5 -28q42 0 68 20.5t26 53.5q0 31 -26.5 50.5t-81.5 33.5q-179 44 -179 153q0 67 51 106t133 39q74 0 125 -40t55 -110
h-95q-2 37 -27 59t-61 22t-62 -17t-26 -52q0 -30 28.5 -49t86.5 -32q176 -41 176 -154q0 -67 -49.5 -107.5t-127.5 -45.5l-38 -44l3 -4q25 9 48 9q33 0 51.5 -19t18.5 -50q0 -39 -32 -66.5t-89 -27.5q-49 0 -89 21z" />
    <glyph glyph-name="Scaron" unicode="&#x160;" horiz-adv-x="596" 
d="M40 218h104q0 -24 7 -46.5t22.5 -47.5t49 -40.5t80.5 -15.5q79 0 115 37t36 80q0 56 -39 83t-133 48q-104 23 -167.5 76t-63.5 138q0 98 68.5 154t172.5 56q103 0 170.5 -55t73.5 -155h-103q-4 63 -44.5 95t-98.5 32q-62 0 -100.5 -35t-38.5 -87q0 -29 12.5 -51
t38.5 -36.5t53.5 -24t68.5 -18.5q113 -26 172.5 -74.5t59.5 -134.5q0 -96 -70.5 -154.5t-190.5 -58.5q-46 0 -88 12t-80.5 38t-62 73.5t-24.5 111.5zM457 921l-158 -159l-160 159h95l62 -60h6l60 60h95z" />
    <glyph glyph-name="scaron" unicode="&#x161;" horiz-adv-x="463" 
d="M40 149h97q0 -35 25.5 -63t74.5 -28q42 0 68 20.5t26 53.5q0 31 -26.5 50.5t-81.5 33.5q-179 44 -179 153q0 67 51 106t133 39q74 0 125 -40t55 -110h-95q-2 37 -27 59t-61 22t-62 -17t-26 -52q0 -30 28.5 -49t86.5 -32q176 -41 176 -154q0 -70 -55 -112t-140 -42
q-77 0 -133 41.5t-60 120.5zM387 722l-154 -171l-156 171h87l66 -64h6l64 64h87z" />
    <glyph glyph-name="uni0162" unicode="&#x162;" horiz-adv-x="565" 
d="M173 -193l20 41q29 -17 67 -17q25 0 40.5 11.5t15.5 31.5q0 35 -45 35q-22 0 -44 -9l-27 22l54 78h-20v637h-214v85h525v-85h-212v-637h-22l-49 -56l3 -4q25 9 48 9q33 0 51.5 -19t18.5 -50q0 -39 -32 -66.5t-89 -27.5q-49 0 -89 21z" />
    <glyph glyph-name="uni0163" unicode="&#x163;" horiz-adv-x="355" 
d="M100 -193l20 41q29 -17 67 -17q25 0 40.5 11.5t15.5 31.5q0 35 -45 35q-22 0 -44 -9l-27 22l56 80q-83 34 -83 144v284h-80v72h82l17 150h74v-150h142v-72h-142v-283q0 -72 69 -72q38 0 73 15v-74q-35 -25 -84 -25q-4 0 -10.5 0.5t-9.5 0.5l-42 -48l3 -4q25 9 48 9
q33 0 51.5 -19t18.5 -50q0 -39 -32 -66.5t-89 -27.5q-49 0 -89 21z" />
    <glyph glyph-name="Tcaron" unicode="&#x164;" horiz-adv-x="565" 
d="M333 0h-99v637h-214v85h525v-85h-212v-637zM442 921l-158 -159l-160 159h95l62 -60h6l60 60h95z" />
    <glyph glyph-name="tcaron" unicode="&#x165;" horiz-adv-x="355" 
d="M20 430v72h82l17 150h74v-150h142v-72h-142v-283q0 -72 69 -72q38 0 73 15v-74q-35 -25 -84 -25q-72 0 -111.5 41t-39.5 114v284h-80zM300 555h-61q42 37 59 72q3 6 0 10t-9 4q-27 0 -45 16.5t-18 43.5t18 45t45 18t45.5 -16.5t19.5 -44.5q1 -22 -3 -43q-15 -56 -51 -105
z" />
    <glyph glyph-name="Tbar" unicode="&#x166;" horiz-adv-x="565" 
d="M139 324v71h95v242h-214v85h525v-85h-212v-242h96v-71h-96v-324h-99v324h-95z" />
    <glyph glyph-name="tbar" unicode="&#x167;" horiz-adv-x="355" 
d="M20 430v72h82l17 150h74v-150h142v-72h-142v-129h142v-71h-142v-83q0 -72 69 -72q38 0 73 15v-74q-35 -25 -84 -25q-72 0 -111.5 41t-39.5 114v84h-80v71h80v129h-80z" />
    <glyph glyph-name="Utilde" unicode="&#x168;" horiz-adv-x="673" 
d="M70 722h100v-454q0 -101 44.5 -147.5t122.5 -46.5q169 0 169 195v453h97v-451q0 -149 -74 -217.5t-192 -68.5q-123 0 -195 71.5t-72 212.5v453zM233 776h-50q-1 58 25.5 85t63.5 27q22 0 67 -15q47 -15 58 -15q39 0 43 38h50q1 -58 -25.5 -85t-63.5 -27q-22 0 -67 15
q-47 15 -58 15q-39 0 -43 -38z" />
    <glyph glyph-name="utilde" unicode="&#x169;" horiz-adv-x="563" 
d="M399 502h97v-416q0 -50 7 -86h-97q-3 31 -1 87h-6q-9 -16 -24.5 -34.5t-54 -39t-84.5 -20.5q-28 0 -55.5 8.5t-54.5 28.5t-44 59t-17 93v320h96v-321q0 -52 24 -82t71 -30q51 0 91 41t52 106v286zM173 584h-51q-1 58 26 86.5t64 28.5q27 0 72 -15q47 -15 63 -15t28.5 9.5
t14.5 29.5h51q1 -58 -26 -86.5t-64 -28.5q-27 0 -72 15q-47 15 -63 15t-28.5 -9.5t-14.5 -29.5z" />
    <glyph glyph-name="Umacron" unicode="&#x16a;" horiz-adv-x="673" 
d="M70 722h100v-454q0 -101 44.5 -147.5t122.5 -46.5q169 0 169 195v453h97v-451q0 -149 -74 -217.5t-192 -68.5q-123 0 -195 71.5t-72 212.5v453zM188 787v76h300v-76h-300z" />
    <glyph glyph-name="umacron" unicode="&#x16b;" horiz-adv-x="563" 
d="M399 502h97v-416q0 -50 7 -86h-97q-3 31 -1 87h-6q-9 -16 -24.5 -34.5t-54 -39t-84.5 -20.5q-28 0 -55.5 8.5t-54.5 28.5t-44 59t-17 93v320h96v-321q0 -52 24 -82t71 -30q51 0 91 41t52 106v286zM136 594v71h290v-71h-290z" />
    <glyph glyph-name="Ubreve" unicode="&#x16c;" horiz-adv-x="673" 
d="M70 722h100v-454q0 -101 44.5 -147.5t122.5 -46.5q169 0 169 195v453h97v-451q0 -149 -74 -217.5t-192 -68.5q-123 0 -195 71.5t-72 212.5v453zM337 831q27 0 46 9t27.5 23t12 25t4.5 21h55q2 -67 -37 -107t-108 -40t-107.5 40.5t-36.5 106.5h55q1 -10 4 -20.5t11.5 -25
t27.5 -23.5t46 -9z" />
    <glyph glyph-name="ubreve" unicode="&#x16d;" horiz-adv-x="563" 
d="M399 502h97v-416q0 -50 7 -86h-97q-3 31 -1 87h-6q-9 -16 -24.5 -34.5t-54 -39t-84.5 -20.5q-28 0 -55.5 8.5t-54.5 28.5t-44 59t-17 93v320h96v-321q0 -52 24 -82t71 -30q51 0 91 41t52 106v286zM283 634q29 0 48.5 10.5t27.5 27t10.5 28t3.5 22.5h55q2 -73 -36.5 -115
t-108.5 -42q-69 0 -107.5 42t-36.5 115h55q5 -88 89 -88z" />
    <glyph glyph-name="Uring" unicode="&#x16e;" horiz-adv-x="673" 
d="M70 722h100v-454q0 -101 44.5 -147.5t122.5 -46.5q169 0 169 195v453h97v-451q0 -149 -74 -217.5t-192 -68.5q-123 0 -195 71.5t-72 212.5v453zM247 849q0 37 26 61.5t64 24.5t64 -24.5t26 -61.5t-26 -62t-64 -25t-64 25t-26 62zM291 849q0 -19 13.5 -32t32.5 -13
q18 0 32 13.5t14 31.5t-14 31.5t-32 13.5q-19 0 -32.5 -13t-13.5 -32z" />
    <glyph glyph-name="uring" unicode="&#x16f;" horiz-adv-x="563" 
d="M399 502h97v-416q0 -50 7 -86h-97q-3 31 -1 87h-6q-9 -16 -24.5 -34.5t-54 -39t-84.5 -20.5q-28 0 -55.5 8.5t-54.5 28.5t-44 59t-17 93v320h96v-321q0 -52 24 -82t71 -30q51 0 91 41t52 106v286zM193 652q0 39 27.5 64.5t66.5 25.5t66.5 -25.5t27.5 -64.5t-27.5 -65
t-66.5 -26t-66.5 26t-27.5 65zM237 652q0 -21 15 -35t35 -14t35 14t15 35t-15 35t-35 14t-35 -14t-15 -35z" />
    <glyph glyph-name="Uhungarumlaut" unicode="&#x170;" horiz-adv-x="673" 
d="M70 722h100v-454q0 -101 44.5 -147.5t122.5 -46.5q169 0 169 195v453h97v-451q0 -149 -74 -217.5t-192 -68.5q-123 0 -195 71.5t-72 212.5v453zM356 935l43 -61l-155 -107l-38 50zM530 934l43 -61l-155 -106l-38 49z" />
    <glyph glyph-name="uhungarumlaut" unicode="&#x171;" horiz-adv-x="563" 
d="M399 502h97v-416q0 -50 7 -86h-97q-3 31 -1 87h-6q-9 -16 -24.5 -34.5t-54 -39t-84.5 -20.5q-28 0 -55.5 8.5t-54.5 28.5t-44 59t-17 93v320h96v-321q0 -52 24 -82t71 -30q51 0 91 41t52 106v286zM280 743l49 -59l-151 -120l-42 48zM447 743l49 -59l-151 -120l-42 48z
" />
    <glyph glyph-name="Uogonek" unicode="&#x172;" horiz-adv-x="673" 
d="M452 -129v-44q-46 -25 -95 -25q-45 0 -66.5 22t-21.5 50q0 62 88 112q-7 -1 -20 -1q-123 0 -195 71.5t-72 212.5v453h100v-454q0 -101 44.5 -147.5t122.5 -46.5q169 0 169 195v453h97v-451q0 -219 -165 -271q-95 -62 -95 -104q0 -40 50 -40q26 0 59 15z" />
    <glyph glyph-name="uogonek" unicode="&#x173;" horiz-adv-x="563" 
d="M516 -129v-44q-46 -25 -95 -25q-45 0 -66.5 22t-21.5 50q0 71 116 126h-43q-3 31 -1 87h-6q-9 -16 -24.5 -34.5t-54 -39t-84.5 -20.5q-28 0 -55.5 8.5t-54.5 28.5t-44 59t-17 93v320h96v-321q0 -52 24 -82t71 -30q51 0 91 41t52 106v286h97v-416q0 -50 7 -86
q-96 -62 -96 -104q0 -40 50 -40q26 0 59 15z" />
    <glyph glyph-name="Wcircumflex" unicode="&#x174;" horiz-adv-x="960" 
d="M30 722h109l120 -585h6l157 585h121l156 -585h6l124 585h101l-170 -722h-119l-157 599h-6l-162 -599h-118zM482 934l158 -159h-95l-60 60h-6l-62 -60h-95z" />
    <glyph glyph-name="wcircumflex" unicode="&#x175;" horiz-adv-x="826" 
d="M707 502h99l-164 -502h-111l-119 415h-6l-125 -415h-108l-153 502h97l106 -400h6l122 400h122l111 -400h6zM410 738l154 -171h-87l-64 65h-6l-66 -65h-87z" />
    <glyph glyph-name="Ycircumflex" unicode="&#x176;" horiz-adv-x="587" 
d="M347 266v-266h-101v266q0 14 -14 18l-217 438h118l163 -366h6l160 366h110l-212 -438q-13 -5 -13 -18zM294 934l158 -159h-95l-60 60h-6l-62 -60h-95z" />
    <glyph glyph-name="ycircumflex" unicode="&#x177;" horiz-adv-x="510" 
d="M490 502q-173 -524 -203 -602q-39 -102 -142 -102q-38 0 -66 10v80q25 -9 54 -9q46 0 66 41q21 44 30 80q4 16 -4.5 25.5t-24.5 8.5l-180 468h104l140 -398h6l122 398h98zM261 738l154 -171h-87l-64 65h-6l-66 -65h-87z" />
    <glyph glyph-name="Ydieresis" unicode="&#x178;" horiz-adv-x="587" 
d="M347 266v-266h-101v266q0 14 -14 18l-217 438h118l163 -366h6l160 366h110l-212 -438q-13 -5 -13 -18zM142 837q0 27 17.5 44t43.5 17t44 -17t18 -44q0 -26 -18 -43t-44 -17t-43.5 16.5t-17.5 43.5zM333 837q0 27 17.5 44t43.5 17t44 -17t18 -44q0 -26 -18 -43t-44 -17
t-43.5 16.5t-17.5 43.5z" />
    <glyph glyph-name="Zacute" unicode="&#x179;" horiz-adv-x="542" 
d="M30 0v98l376 530v6h-356v88h462v-103l-373 -525v-6h367v-88h-476zM375 928l34 -75l-200 -86l-30 59z" />
    <glyph glyph-name="zacute" unicode="&#x17a;" horiz-adv-x="455" 
d="M30 0v89l293 336v6h-285v71h387v-82l-298 -341v-6h298v-73h-395zM326 742l41 -73l-195 -106l-35 58z" />
    <glyph glyph-name="Zdotaccent" unicode="&#x17b;" horiz-adv-x="542" 
d="M30 0v98l376 530v6h-356v88h462v-103l-373 -525v-6h367v-88h-476zM218 837q0 27 17.5 44t43.5 17t44 -17t18 -44q0 -26 -18 -43t-44 -17t-43.5 16.5t-17.5 43.5z" />
    <glyph glyph-name="zdotaccent" unicode="&#x17c;" horiz-adv-x="455" 
d="M30 0v89l293 336v6h-285v71h387v-82l-298 -341v-6h298v-73h-395zM172 644q0 28 17.5 45.5t45.5 17.5t46 -17.5t18 -45.5t-18 -45t-46 -17t-45.5 17t-17.5 45z" />
    <glyph glyph-name="Zcaron" unicode="&#x17d;" horiz-adv-x="542" 
d="M30 0v98l376 530v6h-356v88h462v-103l-373 -525v-6h367v-88h-476zM445 921l-158 -159l-160 159h95l62 -60h6l60 60h95z" />
    <glyph glyph-name="zcaron" unicode="&#x17e;" horiz-adv-x="455" 
d="M30 0v89l293 336v6h-285v71h387v-82l-298 -341v-6h298v-73h-395zM389 722l-154 -171l-156 171h87l66 -64h6l64 64h87z" />
    <glyph glyph-name="florin" unicode="&#x192;" horiz-adv-x="545" 
d="M178 -24q12 62 63 380h-77v71h90l18 114q12 75 54.5 116t108.5 41q25 0 56 -6v-71q-27 3 -46 3q-75 0 -88 -86l-17 -111h81v-71h-94l-61 -386q-13 -75 -57 -114t-110 -39q-29 0 -54 6v71q27 -3 46 -3q73 0 87 85z" />
    <glyph glyph-name="Aringacute" unicode="&#x1fa;" horiz-adv-x="635" 
d="M453 183h-274l-58 -183h-101l238 722h110l247 -722h-101zM204 264h222l-110 344h-6zM223 849q0 37 26 61.5t64 24.5t64 -24.5t26 -61.5t-26 -62t-64 -25t-64 25t-26 62zM267 849q0 -19 13.5 -32t32.5 -13q18 0 32 13.5t14 31.5t-14 31.5t-32 13.5q-19 0 -32.5 -13
t-13.5 -32zM418 1128l34 -75l-200 -86l-30 59z" />
    <glyph glyph-name="aringacute" unicode="&#x1fb;" horiz-adv-x="523" 
d="M372 0h95q-6 27 -6 83v250q0 91 -55 137t-144 46q-85 0 -138.5 -45t-68.5 -115h101q-2 37 26 63t80 26q54 0 82.5 -29t28.5 -83v-54q-79 23 -152 22q-79 -1 -127.5 -46t-48.5 -115q0 -68 42 -110.5t115 -42.5q97 0 169 77h5zM371 222v-89q-22 -27 -59.5 -50.5
t-77.5 -23.5q-47 0 -72 22.5t-25 63.5q0 40 27.5 65t75.5 26q57 1 131 -14zM187 652q0 39 27.5 64.5t66.5 25.5t66.5 -25.5t27.5 -64.5t-27.5 -65t-66.5 -26t-66.5 26t-27.5 65zM231 652q0 -21 15 -35t35 -14t35 14t15 35t-15 35t-35 14t-35 -14t-15 -35zM385 942l41 -73
l-195 -106l-35 58z" />
    <glyph glyph-name="AEacute" unicode="&#x1fc;" horiz-adv-x="943" 
d="M483 183h-276l-83 -183h-104l344 722h531v-85h-401l43 -225h341v-84h-327l45 -240h307v-88h-387zM469 264l-62 341h-6l-158 -341h226zM750 928l34 -75l-200 -86l-30 59z" />
    <glyph glyph-name="aeacute" unicode="&#x1fd;" horiz-adv-x="855" 
d="M251 516q-84 0 -136 -45t-66 -115h102q-2 37 25.5 63.5t79.5 26.5t81.5 -30.5t29.5 -84.5v-48q-77 20 -146 20q-78 0 -129.5 -45t-51.5 -114q0 -71 44.5 -115t120.5 -44q62 0 114.5 29t85.5 76h6q63 -105 192 -105q89 0 145 51t66 119h-92q-9 -42 -41 -69.5t-78 -27.5
q-68 0 -106.5 49.5t-39.5 130.5h356q4 37 -0.5 74.5t-19.5 74t-40 65t-66 46t-93 17.5q-94 0 -167 -77h-6q-57 78 -170 78zM719 307h-259q6 69 43.5 104.5t87.5 35.5q36 0 62.5 -13.5t40 -35.5t19.5 -45t6 -46zM368 224q2 -45 10 -82q-23 -31 -62 -57t-89 -26q-95 0 -95 87
q0 40 28.5 66t76.5 26q53 0 131 -14zM581 742l41 -73l-195 -106l-35 58z" />
    <glyph glyph-name="Oslashacute" unicode="&#x1fe;" horiz-adv-x="796" 
d="M756 362q0 163 -104 273l80 100l-45 36l-78 -98q-90 68 -212 68q-106 0 -189 -53.5t-125.5 -138t-42.5 -183.5q0 -168 103 -276l-81 -102l44 -36l80 100q90 -69 210 -69q150 0 255 103.5t105 275.5zM652 363q0 -125 -68 -210t-188 -85q-91 0 -154 54l350 438
q60 -79 60 -197zM396 657q91 0 156 -54l-349 -439q-59 81 -59 200q0 124 69.5 208.5t182.5 84.5zM519 928l34 -75l-200 -86l-30 59z" />
    <glyph glyph-name="oslashacute" unicode="&#x1ff;" horiz-adv-x="578" 
d="M40 251q0 -116 72 -193l-69 -93l42 -33l67 91q61 -40 139 -40q114 0 180.5 80t66.5 187q0 114 -74 192l69 93l-43 33l-68 -91q-58 38 -131 38q-50 0 -92.5 -16.5t-71 -43t-48.5 -61.5t-29.5 -71t-9.5 -72zM290 54q-54 0 -91 32l213 286q28 -51 28 -120
q0 -97 -43.5 -147.5t-106.5 -50.5zM138 251q0 102 46 147.5t106 45.5q48 0 86 -30l-211 -285q-27 48 -27 122zM423 742l41 -73l-195 -106l-35 58z" />
    <glyph glyph-name="uni0218" unicode="&#x218;" horiz-adv-x="596" 
d="M40 218h104q0 -24 7 -46.5t22.5 -47.5t49 -40.5t80.5 -15.5q79 0 115 37t36 80q0 56 -39 83t-133 48q-104 23 -167.5 76t-63.5 138q0 98 68.5 154t172.5 56q103 0 170.5 -55t73.5 -155h-103q-4 63 -44.5 95t-98.5 32q-62 0 -100.5 -35t-38.5 -87q0 -29 12.5 -51
t38.5 -36.5t53.5 -24t68.5 -18.5q113 -26 172.5 -74.5t59.5 -134.5q0 -96 -70.5 -154.5t-190.5 -58.5q-46 0 -88 12t-80.5 38t-62 73.5t-24.5 111.5zM314 -246h-58q37 30 54 64q2 4 0 8t-7 4q-24 0 -40.5 16t-16.5 40t17 40t41 16q25 0 41.5 -15.5t17.5 -40.5
q4 -60 -49 -132z" />
    <glyph glyph-name="uni0219" unicode="&#x219;" horiz-adv-x="463" 
d="M40 149h97q0 -35 25.5 -63t74.5 -28q42 0 68 20.5t26 53.5q0 31 -26.5 50.5t-81.5 33.5q-179 44 -179 153q0 67 51 106t133 39q74 0 125 -40t55 -110h-95q-2 37 -27 59t-61 22t-62 -17t-26 -52q0 -30 28.5 -49t86.5 -32q176 -41 176 -154q0 -70 -55 -112t-140 -42
q-77 0 -133 41.5t-60 120.5zM243 -246h-58q37 30 54 64q2 4 0 8t-7 4q-24 0 -40.5 16t-16.5 40t17 40t41 16q25 0 41.5 -15.5t17.5 -40.5q4 -60 -49 -132z" />
    <glyph glyph-name="uni021A" unicode="&#x21a;" horiz-adv-x="565" 
d="M333 0h-99v637h-214v85h525v-85h-212v-637zM294 -246h-58q37 30 54 64q2 4 0 8t-7 4q-24 0 -40.5 16t-16.5 40t17 40t41 16q25 0 41.5 -15.5t17.5 -40.5q4 -60 -49 -132z" />
    <glyph glyph-name="uni021B" unicode="&#x21b;" horiz-adv-x="355" 
d="M20 430v72h82l17 150h74v-150h142v-72h-142v-283q0 -72 69 -72q38 0 73 15v-74q-35 -25 -84 -25q-72 0 -111.5 41t-39.5 114v284h-80zM224 -246h-58q37 30 54 64q2 4 0 8t-7 4q-24 0 -40.5 16t-16.5 40t17 40t41 16q25 0 41.5 -15.5t17.5 -40.5q4 -60 -49 -132z" />
    <glyph glyph-name="circumflex" unicode="&#x2c6;" horiz-adv-x="410" 
d="M206 738l154 -171h-87l-64 65h-6l-66 -65h-87z" />
    <glyph glyph-name="caron" unicode="&#x2c7;" horiz-adv-x="410" 
d="M360 722l-154 -171l-156 171h87l66 -64h6l64 64h87z" />
    <glyph glyph-name="breve" unicode="&#x2d8;" horiz-adv-x="391" 
d="M195 634q29 0 48.5 10.5t27.5 27t10.5 28t3.5 22.5h55q2 -73 -36.5 -115t-108.5 -42q-69 0 -107.5 42t-36.5 115h55q5 -88 89 -88z" />
    <glyph glyph-name="dotaccent" unicode="&#x2d9;" horiz-adv-x="227" 
d="M50 644q0 28 17.5 45.5t45.5 17.5t46 -17.5t18 -45.5t-18 -45t-46 -17t-45.5 17t-17.5 45z" />
    <glyph glyph-name="ring" unicode="&#x2da;" horiz-adv-x="288" 
d="M50 652q0 39 27.5 64.5t66.5 25.5t66.5 -25.5t27.5 -64.5t-27.5 -65t-66.5 -26t-66.5 26t-27.5 65zM94 652q0 -21 15 -35t35 -14t35 14t15 35t-15 35t-35 14t-35 -14t-15 -35z" />
    <glyph glyph-name="ogonek" unicode="&#x2db;" horiz-adv-x="289" 
d="M232 -129v-44q-46 -25 -95 -25q-45 0 -66.5 22t-21.5 50q0 71 116 126h54q-96 -62 -96 -104q0 -40 50 -40q26 0 59 15z" />
    <glyph glyph-name="tilde" unicode="&#x2dc;" horiz-adv-x="421" 
d="M102 584h-51q-1 58 26 86.5t64 28.5q27 0 72 -15q47 -15 63 -15t28.5 9.5t14.5 29.5h51q1 -58 -26 -86.5t-64 -28.5q-27 0 -72 15q-47 15 -63 15t-28.5 -9.5t-14.5 -29.5z" />
    <glyph glyph-name="hungarumlaut" unicode="&#x2dd;" horiz-adv-x="460" 
d="M194 743l49 -59l-151 -120l-42 48zM361 743l49 -59l-151 -120l-42 48z" />
    <glyph glyph-name="pi" unicode="&#x3c0;" horiz-adv-x="575" 
d="M555 11q-38 -20 -80 -20q-98 0 -98 112v319h-189v-422h-90v421h-78l5 81h530v-81h-88v-304q0 -45 42 -45q18 0 46 12v-73z" />
    <glyph glyph-name="afii10023" unicode="&#x401;" horiz-adv-x="538" 
d="M70 0v722h417v-85h-318v-225h304v-84h-303v-240h328v-88h-428zM112 837q0 27 17.5 44t43.5 17t44 -17t18 -44q0 -26 -18 -43t-44 -17t-43.5 16.5t-17.5 43.5zM303 837q0 27 17.5 44t43.5 17t44 -17t18 -44q0 -26 -18 -43t-44 -17t-43.5 16.5t-17.5 43.5z" />
    <glyph glyph-name="afii10051" unicode="&#x402;" horiz-adv-x="725" 
d="M563 159v161q0 52 -22.5 80t-65.5 28q-50 0 -88.5 -40t-53.5 -104v-284h-99v637h-214v85h530v-85h-219v-135q0 -45 -1 -94h6q10 18 25 35.5t51 38t79 20.5q25 0 50.5 -7.5t54 -26t46.5 -57.5t18 -93v-157q0 -26 -5.5 -51t-18 -52.5t-40.5 -44t-67 -16.5q-22 0 -38 4v73
q38 0 55 17.5t17 67.5z" />
    <glyph glyph-name="afii10052" unicode="&#x403;" horiz-adv-x="485" 
d="M70 722v-722h100v633l295 -1v90h-395zM392 928l34 -75l-200 -86l-30 59z" />
    <glyph glyph-name="afii10053" unicode="&#x404;" horiz-adv-x="670" 
d="M626 502h-99q-3 60 -46 104t-121 44q-94 0 -150.5 -66t-66.5 -175l274 1v-84l-276 1q6 -109 61.5 -180.5t156.5 -71.5q79 0 125.5 43.5t50.5 103.5h100q-12 -105 -89 -169.5t-188 -64.5q-82 0 -146 34.5t-100 91t-54 118.5t-18 125q0 68 19 132.5t56 119.5t100 88.5
t143 33.5q110 0 184.5 -63t83.5 -166z" />
    <glyph glyph-name="afii10054" unicode="&#x405;" horiz-adv-x="596" 
d="M40 218h104q0 -18 4 -36t14.5 -39t27 -37t46 -26.5t67.5 -10.5q79 0 115 36.5t36 79.5q0 56 -39 83.5t-133 48.5q-104 23 -167.5 75.5t-63.5 137.5q0 98 68.5 154t172.5 56q103 0 170.5 -55t73.5 -155h-103q-4 63 -44.5 95t-98.5 32q-62 0 -100.5 -35t-38.5 -87
q0 -29 12.5 -51t38.5 -36.5t53.5 -24t68.5 -18.5q113 -26 172.5 -74.5t59.5 -134.5q0 -96 -70.5 -154.5t-190.5 -58.5q-46 0 -88 12t-80.5 38t-62 73.5t-24.5 111.5z" />
    <glyph glyph-name="afii10055" unicode="&#x406;" horiz-adv-x="240" 
d="M70 0v722h100v-722h-100z" />
    <glyph glyph-name="afii10056" unicode="&#x407;" horiz-adv-x="240" 
d="M70 0v722h100v-722h-100zM-37 837q0 27 17.5 44t43.5 17t44 -17t18 -44q0 -26 -18 -43t-44 -17t-43.5 16.5t-17.5 43.5zM154 837q0 27 17.5 44t43.5 17t44 -17t18 -44q0 -26 -18 -43t-44 -17t-43.5 16.5t-17.5 43.5z" />
    <glyph glyph-name="afii10057" unicode="&#x408;" horiz-adv-x="498" 
d="M20 210h101q-1 -59 23 -98t77 -39t80 36.5t27 102.5v510h100v-510q0 -104 -58 -163.5t-151 -59.5t-146 62t-53 159z" />
    <glyph glyph-name="afii10058" unicode="&#x409;" horiz-adv-x="835" 
d="M10 1v74q53 -1 84.5 35t36.5 130l25 482h317v-286h60q113 0 190 -55t77 -158q0 -107 -80 -165t-197 -58h-149v638h-122l-20 -405q-6 -123 -52.5 -181t-122.5 -58q-29 0 -47 7zM473 354v-270l51 1q29 0 55.5 6t54.5 19.5t45 42t17 69.5q0 39 -16 66.5t-43 40.5t-51 18.5
t-50 5.5z" />
    <glyph glyph-name="afii10059" unicode="&#x40a;" horiz-adv-x="792" 
d="M331 351h-161v-351h-100v722h100v-285h161v285h99v-286h60q113 0 190 -55t77 -158q0 -107 -80 -165t-197 -58h-149v351zM430 354v-270l51 1q29 0 55.5 6t54.5 19.5t45 42t17 69.5q0 39 -16 66.5t-43 40.5t-51 18.5t-50 5.5z" />
    <glyph glyph-name="afii10060" unicode="&#x40b;" horiz-adv-x="725" 
d="M234 0v637h-214v85h530v-85h-219v-176h119q92 0 151 -49.5t59 -143.5v-268h-97v265q0 118 -124 120l-107 2v-387h-98z" />
    <glyph glyph-name="afii10061" unicode="&#x40c;" horiz-adv-x="610" 
d="M70 0v722h99v-350h6l275 350h123l-298 -360l325 -362h-126l-299 339h-6v-339h-99zM436 928l34 -75l-200 -86l-30 59z" />
    <glyph glyph-name="afii10062" unicode="&#x40e;" horiz-adv-x="584" 
d="M569 722l-248 -615q-25 -61 -63 -87t-94 -26q-42 0 -74 15v80q25 -9 65 -9q54 0 73 48l35 84q8 21 -4 36t-34 11l-210 463h114l171 -411h6l154 411h109zM291 831q27 0 46 9t27.5 23t12 25t4.5 21h55q2 -67 -37 -107t-108 -40t-107.5 40.5t-36.5 106.5h55q1 -10 4 -20.5
t11.5 -25t27.5 -23.5t46 -9z" />
    <glyph glyph-name="afii10145" unicode="&#x40f;" horiz-adv-x="675" 
d="M288 -140l-2 140h-216v722h101v-635h335v635h99v-722h-216l-2 -140h-99z" />
    <glyph glyph-name="afii10017" unicode="&#x410;" horiz-adv-x="635" 
d="M453 183h-274l-58 -183h-101l238 722h110l247 -722h-101zM204 264h222l-110 344h-6z" />
    <glyph glyph-name="afii10018" unicode="&#x411;" horiz-adv-x="572" 
d="M70 0v722h424v-90l-326 1v-197h89q118 0 196.5 -54.5t78.5 -158.5q0 -109 -82 -166t-203 -57h-177zM169 354v-270l79 1q29 0 56.5 5.5t57 19.5t47.5 42.5t18 69.5q0 39 -17 66.5t-45.5 40.5t-53.5 18.5t-51 5.5z" />
    <glyph glyph-name="afii10019" unicode="&#x412;" horiz-adv-x="564" 
d="M70 0v722h180q106 0 173 -53t67 -141q0 -64 -35.5 -104.5t-75.5 -53.5v-6q44 -8 89.5 -51t45.5 -114q0 -95 -68 -147t-180 -52h-196zM167 322v-241l105 1q62 0 101.5 31.5t39.5 87.5q0 50 -40 84.5t-100 35.5zM166 640v-236l83 1q21 0 41 4.5t45 15.5t40.5 36t15.5 61
q0 60 -43.5 88.5t-94.5 28.5z" />
    <glyph glyph-name="afii10020" unicode="&#x413;" horiz-adv-x="485" 
d="M70 0v722h395v-90l-295 1v-633h-100z" />
    <glyph glyph-name="afii10021" unicode="&#x414;" horiz-adv-x="760" 
d="M30 88h31q51 -1 82 34.5t42 130.5l51 469h388v-634h101l-4 -227h-97v139h-493v-139h-97zM525 86v553h-200l-39 -393q-11 -108 -58 -160h297z" />
    <glyph glyph-name="afii10022" unicode="&#x415;" horiz-adv-x="538" 
d="M70 0v722h417v-85h-318v-225h304v-84h-303v-240h328v-88h-428z" />
    <glyph glyph-name="afii10024" unicode="&#x416;" horiz-adv-x="904" 
d="M404 363l-1 359h98l-1 -359h6l246 359h116l-265 -363l291 -359h-120l-268 338h-6l1 -338h-98l1 338h-6l-268 -338h-120l291 359l-265 363h116l246 -359h6z" />
    <glyph glyph-name="afii10025" unicode="&#x417;" horiz-adv-x="582" 
d="M35 196h114q5 -57 43.5 -91.5t98.5 -34.5t97 33.5t37 88.5q0 63 -40 96t-108 39q-36 3 -77 3v81q32 0 62 3q155 15 155 125q0 54 -35.5 84t-88.5 30q-52 0 -87.5 -29.5t-46.5 -80.5h-108q15 90 82.5 141.5t159.5 51.5q97 0 161 -50.5t64 -138.5q0 -113 -116 -170v-6
q65 -23 97.5 -70t32.5 -108q0 -95 -67 -152.5t-177 -57.5q-104 0 -174 60t-79 153z" />
    <glyph glyph-name="afii10026" unicode="&#x418;" horiz-adv-x="750" 
d="M680 722v-722h-92v579h-6l-412 -579h-100v722h93v-575h6l412 575h99z" />
    <glyph glyph-name="afii10027" unicode="&#x419;" horiz-adv-x="750" 
d="M680 722v-722h-92v579h-6l-412 -579h-100v722h93v-575h6l412 575h99zM374 831q27 0 46 9t27.5 23t12 25t4.5 21h55q2 -67 -37 -107t-108 -40t-107.5 40.5t-36.5 106.5h55q1 -10 4 -20.5t11.5 -25t27.5 -23.5t46 -9z" />
    <glyph glyph-name="afii10028" unicode="&#x41a;" horiz-adv-x="610" 
d="M70 0v722h99v-350h6l275 350h123l-298 -360l325 -362h-126l-299 339h-6v-339h-99z" />
    <glyph glyph-name="afii10029" unicode="&#x41b;" horiz-adv-x="690" 
d="M10 1v74q53 -1 84.5 35t36.5 130l25 482h464v-722h-99v638h-269l-21 -405q-6 -123 -52 -181t-122 -58q-29 0 -47 7z" />
    <glyph glyph-name="afii10030" unicode="&#x41c;" horiz-adv-x="910" 
d="M50 0l99 722h124l182 -566h6l177 566h123l99 -722h-102l-70 573h-7l-188 -586h-73l-192 586h-7l-69 -573h-102z" />
    <glyph glyph-name="afii10031" unicode="&#x41d;" horiz-adv-x="689" 
d="M70 722h100v-314h349v314h100v-722h-100v322h-349v-322h-100v722z" />
    <glyph glyph-name="afii10032" unicode="&#x41e;" horiz-adv-x="796" 
d="M756 362q0 -172 -105 -275.5t-255 -103.5q-149 0 -252.5 106.5t-103.5 276.5q0 99 42.5 183.5t125.5 138t189 53.5q160 0 259.5 -110.5t99.5 -268.5zM652 363q0 133 -72 213.5t-184 80.5q-113 0 -182.5 -84.5t-69.5 -208.5q0 -129 69 -212.5t183 -83.5q120 0 188 85
t68 210z" />
    <glyph glyph-name="afii10033" unicode="&#x41f;" horiz-adv-x="675" 
d="M70 722h535v-722h-99v636h-335v-636h-101v722z" />
    <glyph glyph-name="afii10034" unicode="&#x420;" horiz-adv-x="562" 
d="M70 0v722h188q117 0 195.5 -57.5t78.5 -163.5q0 -111 -81.5 -169t-202.5 -58h-78v-274h-100zM169 641v-283l79 1q29 0 56.5 6t57 20.5t47.5 44t18 71.5q0 40 -17.5 69t-45 43t-53.5 20.5t-51 6.5z" />
    <glyph glyph-name="afii10035" unicode="&#x421;" horiz-adv-x="700" 
d="M654 502h-103q-3 59 -46.5 103t-121.5 44q-112 0 -177 -81.5t-65 -209.5q0 -118 63 -200t179 -82q81 0 129 44.5t51 104.5h102q-12 -105 -92 -171t-191 -66q-71 0 -130 23.5t-97.5 61.5t-65 87t-38 98.5t-11.5 98.5q0 68 20.5 133t60.5 120t107.5 88.5t153.5 33.5
q111 0 187 -63.5t85 -166.5z" />
    <glyph glyph-name="afii10036" unicode="&#x422;" horiz-adv-x="565" 
d="M333 0h-99v637h-214v85h525v-85h-212v-637z" />
    <glyph glyph-name="afii10037" unicode="&#x423;" horiz-adv-x="584" 
d="M569 722l-248 -615q-25 -61 -63 -87t-94 -26q-42 0 -74 15v80q25 -9 65 -9q54 0 73 48l35 84q8 21 -4 36t-34 11l-210 463h114l171 -411h6l154 411h109z" />
    <glyph glyph-name="afii10038" unicode="&#x424;" horiz-adv-x="813" 
d="M456 -55h-99v121q-137 13 -229.5 91.5t-92.5 200.5q0 121 91.5 201t230.5 93v112h99v-111q147 -13 234.5 -96t87.5 -199q0 -115 -88 -196.5t-234 -95.5v-121zM677 358q0 90 -60 143.5t-161 64.5v-412q103 11 162 64.5t59 139.5zM136 358q0 -86 60 -139.5t161 -65.5v413
q-107 -10 -164 -65.5t-57 -142.5z" />
    <glyph glyph-name="afii10039" unicode="&#x425;" horiz-adv-x="618" 
d="M29 722h122l156 -268h6l152 268h118l-214 -346l229 -376h-120l-167 290h-6l-164 -290h-121l227 374z" />
    <glyph glyph-name="afii10040" unicode="&#x426;" horiz-adv-x="726" 
d="M590 -139v139h-520v722h101v-636h320v636h99v-634h101l-4 -227h-97z" />
    <glyph glyph-name="afii10041" unicode="&#x427;" horiz-adv-x="605" 
d="M535 722v-722h-99v309h-163q-107 0 -170 56t-63 157v200h99v-197q0 -130 140 -132l157 -2v331h99z" />
    <glyph glyph-name="afii10042" unicode="&#x428;" horiz-adv-x="937" 
d="M867 0h-797v722h101v-636h250v636h97v-636h250v636h99v-722z" />
    <glyph glyph-name="afii10043" unicode="&#x429;" horiz-adv-x="969" 
d="M833 -139v139h-763v722h101v-636h233v636h97v-636h233v636h99v-634h101l-4 -227h-97z" />
    <glyph glyph-name="afii10044" unicode="&#x42a;" horiz-adv-x="672" 
d="M180 634l-160 -2v90h259v-286h83q118 0 196.5 -54.5t78.5 -158.5q0 -109 -82 -166t-203 -57h-172v634zM279 354v-270l74 1q29 0 56.5 5.5t57 19.5t47.5 42.5t18 69.5q0 39 -17 66.5t-45.5 40.5t-53.5 18.5t-51 5.5z" />
    <glyph glyph-name="afii10045" unicode="&#x42b;" horiz-adv-x="770" 
d="M70 0v722h99v-286h60q113 0 190 -55t77 -158q0 -107 -80 -165t-197 -58h-149zM169 354v-270l51 1q29 0 55.5 6t54.5 19.5t45 42t17 69.5q0 39 -16 66.5t-43 40.5t-51 18.5t-50 5.5zM600 0v722h100v-722h-100z" />
    <glyph glyph-name="afii10046" unicode="&#x42c;" horiz-adv-x="557" 
d="M70 0v722h99v-286h78q118 0 196.5 -54.5t78.5 -158.5q0 -109 -82 -166t-203 -57h-167zM169 354v-270l69 1q29 0 56.5 5.5t57 19.5t47.5 42.5t18 69.5q0 39 -17 66.5t-45.5 40.5t-53.5 18.5t-51 5.5z" />
    <glyph glyph-name="afii10047" unicode="&#x42d;" horiz-adv-x="670" 
d="M143 502h-99q9 103 83.5 166t184.5 63q80 0 143 -33.5t100 -88.5t56 -119.5t19 -132.5q0 -63 -18 -125t-54 -118.5t-100 -91t-146 -34.5q-111 0 -188 64.5t-89 169.5h100q4 -60 50.5 -103.5t125.5 -43.5q101 0 156 71.5t61 180.5l-275 -1v84l274 -1q-10 109 -66.5 175
t-150.5 66q-78 0 -121 -44t-46 -104z" />
    <glyph glyph-name="afii10048" unicode="&#x42e;" horiz-adv-x="965" 
d="M925 362q0 -173 -91.5 -275.5t-226.5 -102.5q-126 0 -213.5 94.5t-97.5 250.5h-117l1 -329h-100v722h100l-1 -307h118q14 138 97.5 231t213.5 93q144 0 230.5 -109t86.5 -268zM822 363q0 135 -57.5 213.5t-157.5 78.5t-155 -82.5t-55 -208.5q0 -132 55 -213.5t155 -81.5
q107 0 161 83t54 211z" />
    <glyph glyph-name="afii10049" unicode="&#x42f;" horiz-adv-x="598" 
d="M528 722v-722h-99v311h-46l-252 -311h-126l276 323q-83 14 -137.5 64.5t-54.5 128.5q0 97 79 151.5t190 54.5h170zM431 396v242l-74 -1q-67 -1 -115.5 -30t-48.5 -92q0 -59 48.5 -88t114.5 -30z" />
    <glyph glyph-name="afii10065" unicode="&#x430;" horiz-adv-x="523" 
d="M467 0h-95q4 41 4 64h-5q-72 -77 -169 -77q-72 0 -114.5 43.5t-42.5 110.5q0 69 48.5 114t127.5 46q73 1 152 -22v54q0 54 -28.5 83t-82.5 29q-52 0 -80 -26t-26 -63h-101q15 70 68.5 115t138.5 45q89 0 144 -46t55 -137v-250q0 -56 6 -83zM371 133v89q-74 15 -131 14
q-48 -1 -75.5 -26t-27.5 -65q0 -41 25 -63.5t72 -22.5q40 0 77.5 23.5t59.5 50.5z" />
    <glyph glyph-name="afii10066" unicode="&#x431;" horiz-adv-x="562" 
d="M109 343h6q11 27 25.5 51.5t37.5 50.5t57 41.5t74 15.5q97 0 155 -75t58 -180q0 -109 -62.5 -186.5t-169.5 -77.5q-72 0 -124 35.5t-78.5 94t-37.5 121.5t-9 131q2 63 16 120t41 106.5t73 79t106 29.5q36 0 88 -19.5t71 -19.5q27 0 24 31h48q16 -132 -60 -132
q-29 0 -86 25t-92 26q-43 1 -76 -25.5t-51 -68t-26.5 -86.5t-7.5 -88zM424 241q0 96 -36.5 140t-95.5 44t-98.5 -50.5t-39.5 -134.5q0 -83 38.5 -133.5t96.5 -50.5q66 0 100.5 51.5t34.5 133.5z" />
    <glyph glyph-name="afii10067" unicode="&#x432;" horiz-adv-x="485" 
d="M65 0v502h146q98 0 156.5 -35t58.5 -97q0 -43 -31.5 -70t-71.5 -36v-6q41 -5 79 -35t38 -80q0 -68 -58.5 -105.5t-162.5 -37.5h-154zM159 223v-152l65 1q122 2 122 76q0 33 -33.5 53t-88.5 21zM158 432v-140l57 1q119 3 119 69q0 36 -36 52t-84 17z" />
    <glyph glyph-name="afii10068" unicode="&#x433;" horiz-adv-x="401" 
d="M391 502v-80l-231 3v-425h-95v502h326z" />
    <glyph glyph-name="afii10069" unicode="&#x434;" horiz-adv-x="624" 
d="M117 0v-117h-88l-4 198h39q80 3 94 151l26 270h318v-421h92l-4 -198h-88v117h-385zM410 79v349h-142l-18 -202q-9 -96 -52 -147h212z" />
    <glyph glyph-name="afii10070" unicode="&#x435;" horiz-adv-x="533" 
d="M491 238h-358q1 -81 39 -130.5t108 -49.5q46 0 78.5 27t41.5 70h92q-9 -68 -67 -119t-150 -51q-106 0 -170.5 74t-64.5 196q0 109 63 184.5t166 75.5q53 0 94.5 -17.5t67 -46t41 -65.5t19.5 -74t0 -74zM137 306l261 2q0 20 -5.5 42t-19 45t-40 37.5t-62.5 14.5
q-52 0 -89.5 -37t-44.5 -104z" />
    <glyph glyph-name="afii10072" unicode="&#x436;" horiz-adv-x="718" 
d="M315 260l-1 242h90l-1 -242h6l165 242h108l-187 -252l213 -250h-112l-187 231h-6l1 -231h-90l1 231h-6l-187 -231h-112l213 251l-187 251h108l165 -242h6z" />
    <glyph glyph-name="afii10073" unicode="&#x437;" horiz-adv-x="483" 
d="M30 146h99q6 -39 37 -63.5t78 -24.5q49 0 77 21t28 56q0 75 -115 86q-32 3 -63 3v69q31 0 56 3q57 7 85 24.5t28 51.5q0 33 -26.5 52.5t-70.5 19.5q-86 0 -107 -73h-96q13 66 68.5 105t134.5 39q85 0 139.5 -36.5t54.5 -99.5q0 -77 -107 -114v-6q57 -14 87.5 -47.5
t30.5 -78.5q0 -68 -56 -108t-152 -40q-89 0 -145 46.5t-65 114.5z" />
    <glyph glyph-name="afii10074" unicode="&#x438;" horiz-adv-x="574" 
d="M397 502h112v-502h-90l1 384h-6l-239 -384h-110v502h90l-1 -383h6z" />
    <glyph glyph-name="afii10075" unicode="&#x439;" horiz-adv-x="574" 
d="M397 502h112v-502h-90l1 384h-6l-239 -384h-110v502h90l-1 -383h6zM286 634q29 0 48.5 10.5t27.5 27t10.5 28t3.5 22.5h55q2 -73 -36.5 -115t-108.5 -42q-69 0 -107.5 42t-36.5 115h55q5 -88 89 -88z" />
    <glyph glyph-name="afii10076" unicode="&#x43a;" horiz-adv-x="500" 
d="M65 0v502h93v-238h6l208 238h120l-232 -248l240 -254h-119l-217 236h-6v-236h-93z" />
    <glyph glyph-name="afii10077" unicode="&#x43b;" horiz-adv-x="556" 
d="M15 1v71q41 0 64 30.5t27 105.5l14 294h371v-502h-94v426h-187l-10 -224q-9 -205 -142 -205q-27 0 -43 4z" />
    <glyph glyph-name="afii10078" unicode="&#x43c;" horiz-adv-x="726" 
d="M139 502h113l111 -377h6l107 377h110l105 -502h-94l-69 384h-6l-121 -398h-75l-122 398h-6l-68 -384h-95z" />
    <glyph glyph-name="afii10079" unicode="&#x43d;" horiz-adv-x="564" 
d="M405 304v198h94v-502h-94v228h-246v-228h-94v502h94v-198h246z" />
    <glyph glyph-name="afii10080" unicode="&#x43e;" horiz-adv-x="578" 
d="M40 251q0 36 9.5 72t29.5 71t48.5 61.5t71 43t92.5 16.5q61 0 110.5 -25t78 -65.5t43.5 -85.5t15 -89q0 -107 -66.5 -187t-180.5 -80q-115 0 -183 78.5t-68 189.5zM138 251q0 -84 39 -140.5t113 -56.5q63 0 106.5 50.5t43.5 147.5q0 91 -43 141.5t-107 50.5
q-60 0 -106 -45.5t-46 -147.5z" />
    <glyph glyph-name="afii10081" unicode="&#x43f;" horiz-adv-x="564" 
d="M499 502v-502h-94v425h-245v-425h-95v502h434z" />
    <glyph glyph-name="afii10082" unicode="&#x440;" horiz-adv-x="562" 
d="M160 0v-193h-94v621q0 34 -2 74h88q1 -19 1 -75h6q55 84 149 84q100 0 157 -76t57 -186q0 -112 -56.5 -187t-152.5 -75t-148 81h-6q1 -35 1 -68zM424 249q0 87 -35 138t-102 51q-49 0 -86.5 -41t-40.5 -84v-121q2 -46 39 -89.5t92 -43.5q66 0 99.5 53.5t33.5 136.5z" />
    <glyph glyph-name="afii10083" unicode="&#x441;" horiz-adv-x="521" 
d="M486 341h-97q-3 35 -31.5 68t-79.5 33q-68 0 -103.5 -54t-35.5 -138q0 -81 37 -134.5t103 -53.5q49 0 79 31.5t38 74.5h95q-14 -78 -69 -129.5t-143 -51.5q-107 0 -173 74.5t-66 187.5q0 120 68.5 193t171.5 73q81 0 139.5 -50t66.5 -124z" />
    <glyph glyph-name="afii10084" unicode="&#x442;" horiz-adv-x="446" 
d="M431 502v-76l-161 1v-427h-94v427l-161 -1v76h416z" />
    <glyph glyph-name="afii10085" unicode="&#x443;" horiz-adv-x="510" 
d="M490 502q-173 -524 -203 -602q-39 -102 -142 -102q-38 0 -66 10v80q25 -9 54 -9q46 0 66 41q21 44 30 80q4 16 -4.5 25.5t-24.5 8.5l-180 468h104l140 -398h6l122 398h98z" />
    <glyph glyph-name="afii10086" unicode="&#x444;" horiz-adv-x="819" 
d="M671 249q0 188 -107 188q-35 0 -64 -27.5t-44 -68.5v-179q32 -102 110 -102q105 0 105 189zM148 249q0 -189 105 -189q78 0 110 102v179q-15 41 -44 68.5t-64 27.5q-107 0 -107 -188zM363 -193v193l1 57h-6q-44 -69 -125 -69q-87 0 -132.5 74.5t-45.5 186.5
q0 108 48 184.5t136 76.5q75 0 120 -69h6q-1 33 -1 61v114h78l13 -114l-1 -61h6q44 69 121 69q88 0 135.5 -76t47.5 -185q0 -112 -45.5 -186.5t-132.5 -74.5q-81 0 -125 69h-6q1 -28 1 -57v-193h-93z" />
    <glyph glyph-name="afii10087" unicode="&#x445;" horiz-adv-x="505" 
d="M310 261l170 -261h-108l-117 194h-6l-115 -194h-109l168 256l-156 246h110l102 -181h6l107 181h107z" />
    <glyph glyph-name="afii10088" unicode="&#x446;" horiz-adv-x="610" 
d="M488 -117v117h-423v502h95v-423h235v423h93v-421h92l-4 -198h-88z" />
    <glyph glyph-name="afii10089" unicode="&#x447;" horiz-adv-x="535" 
d="M470 502v-502h-94l1 244h-6q-57 -82 -161 -82q-61 0 -113 41.5t-52 132.5v166h95v-164q0 -48 23 -73.5t65 -25.5q52 0 91 34t56 94v135h95z" />
    <glyph glyph-name="afii10090" unicode="&#x448;" horiz-adv-x="805" 
d="M448 502v-423h200v423h92v-502h-675v502h92v-423h201v423h90z" />
    <glyph glyph-name="afii10091" unicode="&#x449;" horiz-adv-x="822" 
d="M428 502v-424h180v424h92v-421h92l-4 -198h-88v117h-635v502h92v-424h181v424h90z" />
    <glyph glyph-name="afii10092" unicode="&#x44a;" horiz-adv-x="547" 
d="M235 303h68q86 0 150 -36.5t64 -109.5q0 -72 -58 -114.5t-159 -42.5h-159v425l-121 -3v80h215v-199zM235 232v-160l69 1q56 1 86.5 23t30.5 58q0 35 -30.5 55.5t-83.5 21.5z" />
    <glyph glyph-name="afii10093" unicode="&#x44b;" horiz-adv-x="642" 
d="M160 232v-160l38 1q52 1 81.5 23t29.5 58q0 35 -29.5 55.5t-78.5 21.5zM160 303h38q84 0 145.5 -36.5t61.5 -109.5q0 -71 -56 -114t-154 -43h-130v502h95v-199zM478 0v502h94v-502h-94z" />
    <glyph glyph-name="afii10094" unicode="&#x44c;" horiz-adv-x="481" 
d="M159 232v-160l79 1q56 1 86.5 23t30.5 58q0 35 -30.5 55.5t-83.5 21.5zM159 303h78q86 0 150 -36.5t64 -109.5q0 -72 -58 -114.5t-159 -42.5h-169v502h94v-199z" />
    <glyph glyph-name="afii10095" unicode="&#x44d;" horiz-adv-x="521" 
d="M132 343h-95q7 74 66 123t140 49q103 0 170.5 -73t67.5 -193q0 -115 -64.5 -189t-172.5 -74q-89 0 -144.5 51t-69.5 128h96q8 -42 38.5 -72.5t79.5 -30.5q60 0 97.5 45t43.5 115h-178v75l176 -2q-9 66 -44.5 106.5t-93.5 40.5q-51 0 -80.5 -32t-32.5 -67z" />
    <glyph glyph-name="afii10096" unicode="&#x44e;" horiz-adv-x="740" 
d="M472 515q59 0 105 -25t71.5 -65.5t38.5 -85t13 -89.5q0 -109 -59.5 -187.5t-168.5 -78.5q-103 0 -163 68t-67 171h-84l1 -223h-94v502h94l-1 -203h86q7 41 23.5 78t43.5 68.5t68.5 50.5t92.5 19zM337 251q0 -83 32.5 -139t100.5 -56q60 0 96 49.5t36 146.5
q0 91 -36.5 141.5t-96.5 50.5q-55 0 -93.5 -46t-38.5 -147z" />
    <glyph glyph-name="afii10097" unicode="&#x44f;" horiz-adv-x="497" 
d="M339 280v152l-81 -1q-56 -1 -87 -21.5t-31 -54.5q0 -33 32.5 -53t85.5 -21zM126 0h-116l180 222q-57 8 -101.5 42t-44.5 91q0 66 58.5 106.5t159.5 40.5h170v-502h-93v209h-56z" />
    <glyph glyph-name="afii10071" unicode="&#x451;" horiz-adv-x="533" 
d="M491 238h-358q1 -81 39 -130.5t108 -49.5q46 0 78.5 27t41.5 70h92q-9 -68 -67 -119t-150 -51q-106 0 -170.5 74t-64.5 196q0 109 63 184.5t166 75.5q53 0 94.5 -17.5t67 -46t41 -65.5t19.5 -74t0 -74zM137 306l261 2q0 20 -5.5 42t-19 45t-40 37.5t-62.5 14.5
q-52 0 -89.5 -37t-44.5 -104zM111 645q0 27 17.5 44.5t44.5 17.5t45 -17.5t18 -44.5t-18 -44t-45 -17t-44.5 17t-17.5 44zM296 645q0 27 17.5 44.5t44.5 17.5t45 -17.5t18 -44.5t-18 -44t-45 -17t-44.5 17t-17.5 44z" />
    <glyph glyph-name="afii10099" unicode="&#x452;" horiz-adv-x="591" 
d="M340 575h-147v-73q0 -45 -1 -95h6q10 17 26 35.5t53.5 39t80.5 20.5q19 0 39 -4t44 -16.5t42 -32t30.5 -53.5t12.5 -78v-351q0 -26 -5 -51t-17.5 -52.5t-40 -44t-66.5 -16.5q-22 0 -38 4v71q38 0 54.5 18t16.5 68v356q0 52 -23 81t-65 29q-51 0 -91.5 -41.5t-55.5 -105.5
v-283h-95v575h-80v69h80v78h93v-78h147v-69z" />
    <glyph glyph-name="afii10100" unicode="&#x453;" horiz-adv-x="401" 
d="M391 422v80h-326v-502h95v425zM330 742l41 -73l-195 -106l-35 58z" />
    <glyph glyph-name="afii10101" unicode="&#x454;" horiz-adv-x="521" 
d="M484 343h-95q-3 35 -32.5 67t-80.5 32q-58 0 -94 -40.5t-45 -106.5l176 2v-75h-177q5 -70 43 -115t98 -45q49 0 79.5 30.5t38.5 72.5h96q-14 -77 -69.5 -128t-144.5 -51q-108 0 -172.5 74t-64.5 189q0 120 67.5 193t170.5 73q81 0 140 -49t66 -123z" />
    <glyph glyph-name="afii10102" unicode="&#x455;" horiz-adv-x="463" 
d="M40 149h97q0 -35 25.5 -63t74.5 -28q42 0 68 20.5t26 53.5q0 31 -26.5 50.5t-81.5 33.5q-179 44 -179 153q0 67 51 106t133 39q74 0 125 -40t55 -110h-95q-2 37 -27 59t-61 22t-62 -17t-26 -52q0 -30 28.5 -49t86.5 -32q176 -41 176 -154q0 -70 -55 -112t-140 -42
q-77 0 -133 41.5t-60 120.5z" />
    <glyph glyph-name="afii10103" unicode="&#x456;" horiz-adv-x="229" 
d="M67 0v502h94v-502h-94zM53 661q0 27 17.5 44t43.5 17q27 0 44.5 -17t17.5 -44t-17.5 -43.5t-44.5 -16.5t-44 16.5t-17 43.5z" />
    <glyph glyph-name="afii10104" unicode="&#x457;" horiz-adv-x="228" 
d="M67 0v502h94v-502h-94zM-41 645q0 27 17.5 44.5t44.5 17.5t45 -17.5t18 -44.5t-18 -44t-45 -17t-44.5 17t-17.5 44zM144 645q0 27 17.5 44.5t44.5 17.5t45 -17.5t18 -44.5t-18 -44t-45 -17t-44.5 17t-17.5 44z" />
    <glyph glyph-name="afii10105" unicode="&#x458;" horiz-adv-x="233" 
d="M0 -193v71q38 0 55 18t17 68v538h94v-535q0 -27 -5 -51.5t-17 -52t-39.5 -44t-66.5 -16.5q-22 0 -38 4zM57 661q0 27 17.5 44t43.5 17q27 0 44.5 -17t17.5 -44t-17.5 -43.5t-44.5 -16.5t-44 16.5t-17 43.5z" />
    <glyph glyph-name="afii10106" unicode="&#x459;" horiz-adv-x="665" 
d="M15 1v71q40 0 63 30.5t27 105.5l14 294h271v-199h38q84 0 145.5 -36.5t61.5 -109.5q0 -71 -56 -114t-154 -43h-129v428h-88l-10 -226q-9 -205 -144 -205q-23 0 -39 4zM390 232v-160l38 1q52 1 81.5 23t29.5 58q0 35 -29.5 55.5t-78.5 21.5z" />
    <glyph glyph-name="afii10107" unicode="&#x45a;" horiz-adv-x="648" 
d="M373 303h38q84 0 145.5 -36.5t61.5 -109.5q0 -71 -56 -114t-154 -43h-130v230h-120v-230h-93v502h93v-198h120v198h95v-199zM373 232v-160l38 1q52 1 81.5 23t29.5 58q0 35 -29.5 55.5t-78.5 21.5z" />
    <glyph glyph-name="afii10108" unicode="&#x45b;" horiz-adv-x="591" 
d="M340 575h-147v-73q0 -46 -1 -95h6q10 17 26 35.5t53.5 39t80.5 20.5q19 0 39 -4t44 -16.5t42 -32t30.5 -53.5t12.5 -78v-318h-96v320q0 52 -23 81t-65 29q-51 0 -91.5 -41.5t-55.5 -105.5v-283h-95v575h-80v69h80v78h93v-78h147v-69z" />
    <glyph glyph-name="afii10109" unicode="&#x45c;" horiz-adv-x="500" 
d="M65 0v502h93v-238h6l208 238h120l-232 -248l240 -254h-119l-217 236h-6v-236h-93zM383 742l41 -73l-195 -106l-35 58z" />
    <glyph glyph-name="afii10110" unicode="&#x45e;" horiz-adv-x="510" 
d="M490 502q-173 -524 -203 -602q-39 -102 -142 -102q-38 0 -66 10v80q25 -9 54 -9q46 0 66 41q21 44 30 80q4 16 -4.5 25.5t-24.5 8.5l-180 468h104l140 -398h6l122 398h98zM254 634q29 0 48.5 10.5t27.5 27t10.5 28t3.5 22.5h55q2 -73 -36.5 -115t-108.5 -42
q-69 0 -107.5 42t-36.5 115h55q5 -88 89 -88z" />
    <glyph glyph-name="afii10193" unicode="&#x45f;" horiz-adv-x="564" 
d="M237 -117l-1 117h-171v502h94v-423h247v423h93v-502h-171l-1 -117h-90z" />
    <glyph glyph-name="afii10050" unicode="&#x490;" horiz-adv-x="475" 
d="M70 0v722h286v132h95l4 -222l-285 1v-633h-100z" />
    <glyph glyph-name="afii10098" unicode="&#x491;" horiz-adv-x="401" 
d="M285 502v113h87l4 -193l-216 3v-425h-95v502h220z" />
    <glyph glyph-name="Wgrave" unicode="&#x1e80;" horiz-adv-x="960" 
d="M30 722h109l120 -585h6l157 585h121l156 -585h6l124 585h101l-170 -722h-119l-157 599h-6l-162 -599h-118zM315 853l34 75l196 -102l-30 -59z" />
    <glyph glyph-name="wgrave" unicode="&#x1e81;" horiz-adv-x="826" 
d="M707 502h99l-164 -502h-111l-119 415h-6l-125 -415h-108l-153 502h97l106 -400h6l122 400h122l111 -400h6zM248 669l41 73l189 -121l-35 -58z" />
    <glyph glyph-name="Wacute" unicode="&#x1e82;" horiz-adv-x="960" 
d="M30 722h109l120 -585h6l157 585h121l156 -585h6l124 585h101l-170 -722h-119l-157 599h-6l-162 -599h-118zM622 928l34 -75l-200 -86l-30 59z" />
    <glyph glyph-name="wacute" unicode="&#x1e83;" horiz-adv-x="826" 
d="M806 502h-99l-117 -400h-6l-111 400h-122l-122 -400h-6l-106 400h-97l153 -502h108l125 415h6l119 -415h111zM547 742l41 -73l-195 -106l-35 58z" />
    <glyph glyph-name="Wdieresis" unicode="&#x1e84;" horiz-adv-x="960" 
d="M30 722h109l120 -585h6l157 585h121l156 -585h6l124 585h101l-170 -722h-119l-157 599h-6l-162 -599h-118zM324 837q0 27 17.5 44t43.5 17t44 -17t18 -44q0 -26 -18 -43t-44 -17t-43.5 16.5t-17.5 43.5zM515 837q0 27 17.5 44t43.5 17t44 -17t18 -44q0 -26 -18 -43
t-44 -17t-43.5 16.5t-17.5 43.5z" />
    <glyph glyph-name="wdieresis" unicode="&#x1e85;" horiz-adv-x="826" 
d="M806 502h-99l-117 -400h-6l-111 400h-122l-122 -400h-6l-106 400h-97l153 -502h108l125 415h6l119 -415h111zM254 645q0 27 17.5 44.5t44.5 17.5t45 -17.5t18 -44.5t-18 -44t-45 -17t-44.5 17t-17.5 44zM439 645q0 27 17.5 44.5t44.5 17.5t45 -17.5t18 -44.5t-18 -44
t-45 -17t-44.5 17t-17.5 44z" />
    <glyph glyph-name="Ygrave" unicode="&#x1ef2;" horiz-adv-x="587" 
d="M347 266v-266h-101v266q0 14 -14 18l-217 438h118l163 -366h6l160 366h110l-212 -438q-13 -5 -13 -18zM138 853l34 75l196 -102l-30 -59z" />
    <glyph glyph-name="ygrave" unicode="&#x1ef3;" horiz-adv-x="510" 
d="M490 502q-173 -524 -203 -602q-39 -102 -142 -102q-38 0 -66 10v80q25 -9 54 -9q46 0 66 41q21 44 30 80q4 16 -4.5 25.5t-24.5 8.5l-180 468h104l140 -398h6l122 398h98zM103 669l41 73l189 -121l-35 -58z" />
    <glyph glyph-name="endash" unicode="&#x2013;" horiz-adv-x="500" 
d="M0 222v81h500v-81h-500z" />
    <glyph glyph-name="emdash" unicode="&#x2014;" horiz-adv-x="1000" 
d="M30 222v81h940v-81h-940z" />
    <glyph glyph-name="quoteleft" unicode="&#x2018;" horiz-adv-x="275" 
d="M75 590q18 69 79 132h71q-59 -46 -88 -96q-3 -4 -1 -9t9 -5q29 0 48.5 -19t19.5 -49q0 -29 -20.5 -48t-50.5 -19q-29 0 -49.5 18t-21.5 49q-2 25 4 46z" />
    <glyph glyph-name="quoteright" unicode="&#x2019;" horiz-adv-x="275" 
d="M200 609q-18 -69 -79 -132h-71q59 46 88 96q3 5 0.5 9.5t-8.5 4.5q-29 0 -48.5 19t-19.5 49q0 29 20.5 48t50.5 19q29 0 49.5 -18t21.5 -49q2 -25 -4 -46z" />
    <glyph glyph-name="quotesinglbase" unicode="&#x201a;" horiz-adv-x="275" 
d="M200 36q-18 -69 -79 -132h-71q59 46 88 96q3 4 0.5 9t-8.5 5q-29 0 -48.5 19t-19.5 49q0 29 20.5 48t50.5 19q29 0 49.5 -18t21.5 -49q2 -25 -4 -46z" />
    <glyph glyph-name="quotedblleft" unicode="&#x201c;" horiz-adv-x="460" 
d="M260 590q18 69 79 132h71q-59 -46 -88 -96q-3 -4 -0.5 -9t8.5 -5q29 0 48.5 -19t19.5 -49q0 -29 -20.5 -48t-50.5 -19q-29 0 -49.5 18t-21.5 49q-2 25 4 46zM75 590q17 65 91 132h72q-74 -55 -98 -96q-3 -4 -0.5 -9t8.5 -5q27 0 46 -19.5t19 -48.5t-20.5 -48t-50.5 -19
q-29 0 -49 18t-22 49q-2 24 4 46z" />
    <glyph glyph-name="quotedblright" unicode="&#x201d;" horiz-adv-x="460" 
d="M200 609q-18 -69 -79 -132h-71q59 46 88 96q3 5 0.5 9.5t-8.5 4.5q-29 0 -48.5 19t-19.5 49q0 29 20.5 48t50.5 19q29 0 49.5 -18t21.5 -49q2 -25 -4 -46zM385 609q-17 -65 -91 -132h-72q74 55 98 96q3 5 0.5 9.5t-8.5 4.5q-27 0 -46 19.5t-19 48.5t20.5 48t50.5 19
q29 0 49 -18t22 -49q2 -24 -4 -46z" />
    <glyph glyph-name="quotedblbase" unicode="&#x201e;" horiz-adv-x="460" 
d="M200 36q-18 -69 -79 -132h-71q59 46 88 96q3 4 0.5 9t-8.5 5q-29 0 -48.5 19t-19.5 49q0 29 20.5 48t50.5 19q29 0 49.5 -18t21.5 -49q2 -25 -4 -46zM385 36q-17 -65 -91 -132h-72q74 55 98 96q3 4 0.5 9t-8.5 5q-27 0 -46 19.5t-19 48.5t20.5 48t50.5 19q29 0 49 -18
t22 -49q2 -24 -4 -46z" />
    <glyph glyph-name="dagger" unicode="&#x2020;" horiz-adv-x="545" 
d="M480 553v-74l-168 2v-481h-79v481l-168 -2v74l168 -2v171h79v-171z" />
    <glyph glyph-name="daggerdbl" unicode="&#x2021;" horiz-adv-x="545" 
d="M480 243v-74l-168 2v-171h-79v171l-168 -2v74l168 -2v240l-168 -2v74l168 -2v171h79v-171l168 2v-74l-168 2v-240z" />
    <glyph glyph-name="bullet" unicode="&#x2022;" horiz-adv-x="471" 
d="M236 537q72 0 123.5 -51.5t51.5 -124.5q0 -72 -51 -123.5t-124 -51.5t-124.5 51.5t-51.5 123.5q0 73 52 124.5t124 51.5z" />
    <glyph glyph-name="ellipsis" unicode="&#x2026;" horiz-adv-x="1000" 
d="M100 71q0 30 21 51t51 21t51 -21t21 -51t-21 -50.5t-51 -20.5t-51 20.5t-21 50.5zM428 71q0 30 21 51t51 21t51 -21t21 -51t-21 -50.5t-51 -20.5t-51 20.5t-21 50.5zM756 71q0 30 21 51t51 21t51 -21t21 -51t-21 -50.5t-51 -20.5t-51 20.5t-21 50.5z" />
    <glyph glyph-name="perthousand" unicode="&#x2030;" horiz-adv-x="1000" 
d="M197 692q63 0 99 -47t36 -116q0 -72 -37 -117t-98 -45q-62 0 -99 45.5t-37 116.5q0 69 36.5 116t99.5 47zM197 421q65 0 65 107q0 112 -65 112q-26 0 -42 -21t-20 -43.5t-4 -47.5q0 -107 66 -107zM150 -33h-68l461 755h69zM506 325q63 0 97.5 -46.5t34.5 -116.5
q0 -72 -35.5 -117t-96.5 -45t-98 45t-37 117q0 69 36 116t99 47zM506 54q65 0 65 107q0 112 -65 112q-26 0 -42 -21t-20 -43.5t-4 -47.5q0 -107 66 -107zM804 325q63 0 99 -47t36 -116q0 -72 -37 -117t-98 -45t-96.5 45t-35.5 117q0 70 34.5 116.5t97.5 46.5zM804 54
q66 0 66 107q0 25 -4 47.5t-20 43.5t-42 21q-65 0 -65 -112q0 -107 65 -107z" />
    <glyph glyph-name="guilsinglleft" unicode="&#x2039;" 
d="M285 53h-92l-138 200l138 198h91l-129 -198z" />
    <glyph glyph-name="guilsinglright" unicode="&#x203a;" 
d="M142 53h-92l130 200l-129 198h91l138 -198z" />
    <glyph glyph-name="interrobang" unicode="&#x203d;" horiz-adv-x="500" 
d="M132 519h-88q-3 56 15 98.5t49 66t67 35.5t76 12q87 0 145.5 -51.5t58.5 -137.5q0 -57 -28.5 -102.5t-84.5 -90.5q-65 -53 -60 -133l1 -18h-70l-14 448q-74 -29 -67 -127zM171 71q0 30 21 51t51 21t51 -21t21 -51t-21 -50.5t-51 -20.5t-51 20.5t-21 50.5zM363 537
q0 41 -18.5 69t-49.5 40l-9 -244h3q74 68 74 135z" />
    <glyph glyph-name="asterism" unicode="&#x2042;" horiz-adv-x="1000" 
d="M465 722h67l-17 -157l126 93l36 -59l-144 -61l142 -66l-33 -61l-127 96l13 -151h-66l20 154l-128 -93l-32 60l141 61l-142 63l33 60l128 -95zM212 366h67l-17 -157l126 93l36 -59l-144 -61l142 -66l-33 -61l-127 96l13 -151h-66l20 154l-128 -93l-32 60l141 61l-142 63
l33 60l128 -95zM721 366h67l-17 -157l126 93l36 -59l-144 -61l142 -66l-33 -61l-127 96l13 -151h-66l20 154l-128 -93l-32 60l141 61l-142 63l33 60l128 -95z" />
    <glyph glyph-name="fraction" unicode="&#x2044;" horiz-adv-x="217" 
d="M-130 0l416 722h61l-416 -722h-61z" />
    <glyph glyph-name="zero.sups" unicode="&#x2070;" 
d="M22 660q0 31 5.5 63.5t19.5 71t45 63t76 24.5q41 0 71 -21t45.5 -55t22.5 -68t7 -68q0 -53 -12 -100t-47 -84.5t-88 -37.5q-50 0 -84 35t-47.5 81t-13.5 96zM85 663q0 -73 21 -119t61 -46q30 0 50 27t27 62.5t7 76.5q0 76 -22 123t-60 47q-32 0 -52 -28.5t-26 -64
t-6 -78.5z" />
    <glyph glyph-name="four.sups" unicode="&#x2074;" 
d="M202 457v97h-190v65q78 109 170 256h83v-274h54v-48h-54v-96h-63zM63 601h142v216h-4l-138 -213v-3z" />
    <glyph glyph-name="five.sups" unicode="&#x2075;" 
d="M30 574h64q-1 -33 17.5 -54t48.5 -21q39 0 58.5 29.5t19.5 70.5q0 44 -19 71t-52 27q-49 0 -71 -50h-51l1 225h239v-47h-185q-4 -116 -5 -117h4q34 37 81 37q60 0 90 -41.5t30 -101.5q0 -67 -37 -110.5t-105 -43.5q-55 0 -91 36t-37 90z" />
    <glyph glyph-name="six.sups" unicode="&#x2076;" 
d="M302 773h-61q1 27 -12 43.5t-41 16.5q-42 0 -71.5 -44t-29.5 -121h4q37 54 100 54q50 0 85.5 -36t35.5 -99q0 -62 -37.5 -101t-97.5 -39q-69 0 -108.5 58t-39.5 142q0 51 14 101t52.5 91t94.5 41q62 0 89 -33.5t23 -73.5zM180 496q31 0 51.5 23.5t20.5 62.5q0 41 -19 66
t-52 26q-33 0 -57.5 -21.5t-24.5 -49.5q0 -44 21 -75.5t60 -31.5z" />
    <glyph glyph-name="seven.sups" unicode="&#x2077;" 
d="M26 822v50h279v-58l-174 -357h-69q108 213 187 361v4h-223z" />
    <glyph glyph-name="eight.sups" unicode="&#x2078;" 
d="M168 694q33 0 53.5 20.5t20.5 51.5q0 30 -20 49.5t-54 19.5t-54 -19.5t-20 -49.5q0 -31 20.5 -51.5t53.5 -20.5zM168 498q37 0 58 20t21 49q0 34 -22 55t-57 21t-57 -21t-22 -55q0 -29 21 -49t58 -20zM168 881q63 0 98.5 -35t35.5 -76q0 -70 -67 -98v-4
q29 -10 51.5 -36.5t22.5 -64.5q0 -47 -37.5 -82.5t-103.5 -35.5t-103.5 35.5t-37.5 82.5q0 38 22.5 64.5t51.5 36.5v4q-67 28 -67 98q0 41 35.5 76t98.5 35z" />
    <glyph glyph-name="nine.sups" unicode="&#x2079;" 
d="M33 554h62q-2 -60 52 -60q41 0 71 44t30 121h-4q-37 -54 -100 -54q-50 0 -85.5 36t-35.5 99q0 62 37.5 101t97.5 39q69 0 108.5 -58t39.5 -142q0 -37 -8.5 -75t-25.5 -75t-50 -60t-76 -23q-60 0 -88 34t-25 73zM154 833q-31 0 -51.5 -23.5t-20.5 -62.5q0 -41 19 -66
t52 -26q33 0 57.5 21.5t24.5 49.5q0 44 -21 75.5t-60 31.5z" />
    <glyph glyph-name="zero.sinf" unicode="&#x2080;" 
d="M22 10q0 31 5.5 63.5t19.5 71t45 63t76 24.5q41 0 71 -21t45.5 -55t22.5 -68t7 -68q0 -53 -12 -100t-47 -84.5t-88 -37.5q-50 0 -84 35t-47.5 81t-13.5 96zM85 13q0 -73 21 -119t61 -46q30 0 50 27t27 62.5t7 76.5q0 76 -22 123t-60 47q-32 0 -52 -28.5t-26 -64t-6 -78.5
z" />
    <glyph glyph-name="one.sinf" unicode="&#x2081;" 
d="M176 -193v355h-4q-17 -30 -61 -93.5t-71 -92.5v87q48 50 116 160h82v-416h-62z" />
    <glyph glyph-name="two.sinf" unicode="&#x2082;" 
d="M297 -193h-267q-2 25 0 43q6 54 31 86.5t68 54.5q32 17 67 40q43 31 43 80q0 28 -19.5 48.5t-51.5 20.5q-42 0 -58.5 -27t-12.5 -62h-61q-5 60 31 99.5t102 39.5q61 0 97.5 -35t36.5 -86q0 -74 -76 -125q-25 -18 -70 -39q-21 -10 -34 -18.5t-25 -27.5t-11 -43h210v-49z
" />
    <glyph glyph-name="three.sinf" unicode="&#x2083;" 
d="M21 -73h66q0 -35 20 -55.5t55 -20.5q31 0 50.5 18.5t19.5 47.5q0 74 -97 78l-26 1v50l27 2q95 6 95 72q0 31 -19.5 47t-47.5 16q-29 0 -48.5 -15.5t-20.5 -46.5h-63q2 32 16.5 55.5t35.5 35t41 16.5t38 5q63 0 98 -33t35 -78q0 -71 -80 -97v-3q42 -12 62 -41.5t20 -62.5
q0 -49 -36.5 -83.5t-99.5 -34.5q-59 0 -98 35t-43 92z" />
    <glyph glyph-name="four.sinf" unicode="&#x2084;" 
d="M202 -193v97h-190v65q78 109 170 256h83v-274h54v-48h-54v-96h-63zM63 -49h142v216h-4l-138 -213v-3z" />
    <glyph glyph-name="five.sinf" unicode="&#x2085;" 
d="M29 -76h64q-1 -33 17.5 -54t48.5 -21q39 0 58.5 29.5t19.5 70.5q0 44 -19 71t-52 27q-49 0 -71 -50h-51l1 225h239v-47h-185q-4 -116 -5 -117h4q34 37 81 37q60 0 90 -41.5t30 -101.5q0 -67 -37 -110.5t-105 -43.5q-55 0 -91 36t-37 90z" />
    <glyph glyph-name="six.sinf" unicode="&#x2086;" 
d="M302 124h-61q1 27 -12 43.5t-41 16.5q-42 0 -71.5 -44t-29.5 -121h4q37 54 100 54q50 0 85.5 -36t35.5 -99q0 -62 -37.5 -101t-97.5 -39q-69 0 -108.5 58t-39.5 142q0 51 14 101t52.5 91t94.5 41q62 0 89 -33.5t23 -73.5zM180 -153q31 0 51.5 23.5t20.5 62.5q0 41 -19 66
t-52 26q-33 0 -57.5 -21.5t-24.5 -49.5q0 -44 21 -75.5t60 -31.5z" />
    <glyph glyph-name="seven.sinf" unicode="&#x2087;" 
d="M26 171v50h279v-58l-174 -357h-69q108 213 187 361v4h-223z" />
    <glyph glyph-name="eight.sinf" unicode="&#x2088;" 
d="M168 43q33 0 53.5 20.5t20.5 51.5q0 30 -20 49.5t-54 19.5t-54 -19.5t-20 -49.5q0 -31 20.5 -51.5t53.5 -20.5zM168 -153q37 0 58 20t21 49q0 34 -22 55t-57 21t-57 -21t-22 -55q0 -29 21 -49t58 -20zM168 230q63 0 98.5 -35t35.5 -76q0 -70 -67 -98v-4
q29 -10 51.5 -36.5t22.5 -64.5q0 -47 -37.5 -82.5t-103.5 -35.5t-103.5 35.5t-37.5 82.5q0 38 22.5 64.5t51.5 36.5v4q-67 28 -67 98q0 41 35.5 76t98.5 35z" />
    <glyph glyph-name="nine.sinf" unicode="&#x2089;" 
d="M33 -96h62q-2 -60 52 -60q41 0 71 44t30 121h-4q-37 -54 -100 -54q-50 0 -85.5 36t-35.5 99q0 62 37.5 101t97.5 39q69 0 108.5 -58t39.5 -142q0 -37 -8.5 -75t-25.5 -75t-50 -60t-76 -23q-60 0 -88 34t-25 73zM154 183q-31 0 -51.5 -23.5t-20.5 -62.5q0 -41 19 -66
t52 -26q33 0 57.5 21.5t24.5 49.5q0 44 -21 75.5t-60 31.5z" />
    <glyph glyph-name="Euro" unicode="&#x20ac;" horiz-adv-x="550" 
d="M184 438h204v-62h-210q-1 -12 -1 -29l1 -29h178v-62h-171q10 -82 46.5 -136t102.5 -54q109 0 113 125h93q-4 -95 -62.5 -149t-145.5 -54q-54 0 -98 22t-72.5 60.5t-46.5 85t-26 100.5h-69v62h63q-1 15 -1 30l1 28h-63v62h69q17 115 79 192t167 77q86 0 143 -54t61 -151
h-92q-1 34 -10 59t-20.5 38t-28.5 21t-29 10t-26 2q-122 0 -149 -194z" />
    <glyph glyph-name="afii61352" unicode="&#x2116;" horiz-adv-x="1024" 
d="M60 0v722h111l280 -554h6v554h89v-722h-109l-281 558h-6v-558h-90zM984 375q0 88 -53 147t-135 59q-77 0 -131 -60t-54 -147t52.5 -147.5t133.5 -60.5q82 0 134.5 60.5t52.5 148.5zM704 377q0 62 24 97.5t68 35.5t68.5 -34t24.5 -100q0 -135 -92 -135q-93 0 -93 136z
M952 0h-309v84q78 -3 154 -3l155 3v-84z" />
    <glyph glyph-name="trademark" unicode="&#x2122;" horiz-adv-x="800" 
d="M187 361h-57v307h-105v54h266v-54h-104v-307zM516 441l-92 281h-82l-33 -361h57l23 287h6l101 -298h46l102 298h6l23 -287h57l-33 361h-82l-93 -281h-6z" />
    <glyph glyph-name="uni2126" unicode="&#x2126;" horiz-adv-x="645" 
d="M323 647q-101 0 -159.5 -64t-58.5 -168q0 -83 45.5 -143.5t126.5 -79.5v-192h-256v80h180v65q-88 35 -133.5 107t-45.5 166q0 131 84.5 218t216.5 87t216 -87t84 -218q0 -94 -45 -166t-133 -107v-65h180v-80h-256v192q81 19 126.5 79.5t45.5 143.5q0 104 -58.5 168
t-159.5 64z" />
    <glyph glyph-name="arrowleft" unicode="&#x2190;" horiz-adv-x="1000" 
d="M347 -1l-307 264l310 264l52 -65q-194 -155 -199 -155v-4h761v-80h-761v-4q2 0 51 -38.5t97 -77.5l48 -39z" />
    <glyph glyph-name="arrowup" unicode="&#x2191;" horiz-adv-x="600" 
d="M300 731l264 -307l-65 -52q-155 191 -155 196h-4v-761h-80v761h-4q0 -2 -39 -52t-77 -98l-39 -49l-65 52z" />
    <glyph glyph-name="arrowright" unicode="&#x2192;" horiz-adv-x="1000" 
d="M964 263l-307 -264l-52 65q191 155 196 155v4h-761v80h761v4q-2 0 -52 38.5t-99 77.5l-48 39l52 65z" />
    <glyph glyph-name="arrowdown" unicode="&#x2193;" horiz-adv-x="600" 
d="M564 104l-264 -307l-264 310l65 52q155 -194 155 -199h4v761h80v-761h4q0 2 38.5 51t77.5 97l39 48z" />
    <glyph glyph-name="partialdiff" unicode="&#x2202;" horiz-adv-x="575" 
d="M509 363q0 -53 -6.5 -102t-24 -100t-44.5 -88t-71.5 -61t-102.5 -24q-95 0 -153 68t-58 164q0 99 61.5 166.5t148.5 67.5q89 0 158 -76h6q3 42 -4.5 86.5t-26.5 87t-56.5 69.5t-88.5 27q-68 0 -123 -59l-53 66q76 68 178 68q71 0 123.5 -32t81 -86t42 -114.5t13.5 -127.5
zM415 291q-66 86 -144 86q-66 0 -101 -46.5t-35 -110.5q0 -62 35 -108t94 -46q51 0 87 37.5t50.5 86.5t13.5 101z" />
    <glyph glyph-name="uni2206" unicode="&#x2206;" horiz-adv-x="645" 
d="M635 0h-625l259 692h106zM319 612l-194 -532h394l-194 532h-6z" />
    <glyph glyph-name="product" unicode="&#x220f;" horiz-adv-x="645" 
d="M594 -193h-87v836h-369v-836h-87v915h543v-915z" />
    <glyph glyph-name="summation" unicode="&#x2211;" horiz-adv-x="645" 
d="M600 -193h-552v77l321 406l-308 356v76h532v-83l-410 1v-6l294 -344l-315 -394v-6l438 1v-84z" />
    <glyph glyph-name="minus" unicode="&#x2212;" horiz-adv-x="570" 
d="M540 212h-510v78h510v-78z" />
    <glyph glyph-name="radical" unicode="&#x221a;" horiz-adv-x="575" 
d="M555 722l-201 -915h-97l-146 307l-52 -26l-34 68l124 63l145 -316h6l173 819h82z" />
    <glyph glyph-name="infinity" unicode="&#x221e;" horiz-adv-x="730" 
d="M695 268q0 -72 -41 -118t-111 -46q-82 0 -177 105q-36 -36 -54.5 -53t-52.5 -34t-69 -17q-71 0 -113 44.5t-42 115.5t41.5 117t110.5 46q50 0 91.5 -28.5t87.5 -81.5q46 52 86.5 81.5t89.5 29.5q70 0 111.5 -45t41.5 -116zM618 266q0 39 -20 63t-57 24q-19 0 -38 -10.5
t-29 -20t-30.5 -32t-25.5 -27.5q5 -6 21 -23t23.5 -24t21.5 -17.5t28 -14.5t31 -4q36 0 55.5 24t19.5 62zM314 265q-5 5 -21 22t-24.5 25t-23.5 19t-29 16t-29 5q-35 0 -54.5 -25t-19.5 -61q0 -38 20.5 -61.5t57.5 -23.5q9 0 19 2.5t17.5 5.5t17 9.5t15 10.5t15.5 14
t13 13.5t13.5 15t12.5 13.5z" />
    <glyph glyph-name="integral" unicode="&#x222b;" horiz-adv-x="545" 
d="M245 -24q-18 418 -21 565q-1 74 40.5 115.5t109.5 41.5q29 0 61 -6v-71q-27 3 -51 3q-82 0 -78 -86q1 -40 11.5 -267.5t12.5 -300.5t-42.5 -113t-113.5 -40q-35 0 -60 6v71q27 -3 52 -3q82 0 79 85z" />
    <glyph glyph-name="therefore" unicode="&#x2234;" horiz-adv-x="1000" 
d="M100 72q0 30 21 50.5t51 20.5t51 -20.5t21 -50.5t-21 -51t-51 -21t-51 21t-21 51zM428 651q0 30 21 50.5t51 20.5t51 -20.5t21 -50.5t-21 -51t-51 -21t-51 21t-21 51zM756 72q0 30 21 50.5t51 20.5t51 -20.5t21 -50.5t-21 -51t-51 -21t-51 21t-21 51z" />
    <glyph glyph-name="because" unicode="&#x2235;" horiz-adv-x="1000" 
d="M100 650q0 30 21 51t51 21t51 -21t21 -51t-21 -50.5t-51 -20.5t-51 20.5t-21 50.5zM428 71q0 30 21 51t51 21t51 -21t21 -51t-21 -50.5t-51 -20.5t-51 20.5t-21 50.5zM756 650q0 30 21 51t51 21t51 -21t21 -51t-21 -50.5t-51 -20.5t-51 20.5t-21 50.5z" />
    <glyph glyph-name="approxequal" unicode="&#x2248;" horiz-adv-x="570" 
d="M80 288h-62q15 153 138 153q49 0 140 -36q96 -38 122 -38q59 0 72 69h62q-6 -65 -38 -110.5t-100 -45.5q-57 0 -146 39q-85 37 -116 37q-59 0 -72 -68zM80 79h-62q15 153 138 153q49 0 140 -36q96 -38 122 -38q59 0 72 69h62q-6 -65 -38 -110.5t-100 -45.5q-57 0 -146 39
q-85 37 -116 37q-59 0 -72 -68z" />
    <glyph glyph-name="notequal" unicode="&#x2260;" horiz-adv-x="570" 
d="M30 315v77h286l62 110h86l-62 -110h138v-77h-181l-70 -125h251v-77h-295l-63 -113h-85l63 113h-130v77h173l70 125h-243z" />
    <glyph glyph-name="lessequal" unicode="&#x2264;" horiz-adv-x="570" 
d="M540 121l-510 175v89l510 180v-86q-408 -134 -412 -134v-6l412 -128v-90zM540 0h-510v78h510v-78z" />
    <glyph glyph-name="greaterequal" unicode="&#x2265;" horiz-adv-x="570" 
d="M540 296l-510 -175v90q408 128 412 128v6l-412 134v86l510 -180v-89zM540 0h-510v78h510v-78z" />
    <glyph glyph-name="lozenge" unicode="&#x25ca;" horiz-adv-x="575" 
d="M523 358l-193 -358h-85l-193 358l193 364h85zM431 358l-141 280h-6l-140 -280l140 -274h6z" />
    <glyph glyph-name="commaaccent" unicode="&#xf6c3;" horiz-adv-x="280" 
d="M149 -246h-58q37 30 54 64q2 4 0 8t-7 4q-24 0 -40.5 16t-16.5 40t17 40t41 16q25 0 41.5 -15.5t17.5 -40.5q4 -60 -49 -132z" />
    <glyph glyph-name="interfinity" horiz-adv-x="500" 
d="M251 731q83 0 140.5 -40.5t57.5 -110.5q0 -50 -32 -84.5t-89 -67.5q77 -55 77 -123q0 -53 -45 -83.5t-110 -30.5t-111 31t-46 83q0 68 77 121q-56 32 -87.5 67.5t-31.5 85.5q0 69 58 110.5t142 41.5zM253 657q-47 0 -76.5 -22t-29.5 -56q0 -18 7 -32t25.5 -28t30.5 -21.5
t41 -23.5q37 20 54 31t33.5 31t16.5 43q0 35 -27 56.5t-75 21.5zM179 71q0 30 21 51t51 21t51 -21t21 -51t-21 -50.5t-51 -20.5t-51 20.5t-21 50.5zM314 310q0 23 -18 39.5t-49 34.5q-66 -40 -66 -74q0 -21 18 -35.5t49 -14.5t48.5 14.5t17.5 35.5z" />
    <glyph glyph-name="at.case" horiz-adv-x="862" 
d="M609 487v67q0 54 -31 83t-88 29q-135 0 -231 -89t-96 -231q0 -140 94 -219.5t232 -79.5q95 0 161.5 32.5t124.5 92.5l48 -61q-142 -135 -335 -135q-109 0 -200 42t-148.5 127.5t-57.5 199.5q0 87 34.5 161t92 123t130.5 76t151 27q91 0 147 -46.5t56 -132.5v-264l2 -72
h-88l2 62h-6q-72 -77 -159 -77q-70 0 -109.5 42t-39.5 108q0 68 46 110t122 43q72 1 146 -18zM608 344v86q-74 13 -128 12q-46 0 -71 -24t-25 -61q0 -39 25 -62.5t71 -22.5q70 1 128 72z" />
    <glyph glyph-name="zero.numr" 
d="M22 480q0 31 5.5 63.5t19.5 71t45 63t76 24.5q41 0 71 -21t45.5 -55t22.5 -68t7 -68q0 -53 -12 -100t-47 -84.5t-88 -37.5q-50 0 -84 35t-47.5 81t-13.5 96zM85 483q0 -73 21 -119t61 -46q30 0 50 27t27 62.5t7 76.5q0 76 -22 123t-60 47q-32 0 -52 -28.5t-26 -64
t-6 -78.5z" />
    <glyph glyph-name="one.numr" 
d="M176 277v355h-4q-17 -30 -61 -93.5t-71 -92.5v87q22 22 58 73t58 87h82v-416h-62z" />
    <glyph glyph-name="two.numr" 
d="M297 277h-267q-2 25 0 43q6 54 31 86.5t68 54.5q32 17 67 40q43 31 43 80q0 28 -19.5 48.5t-51.5 20.5q-42 0 -58.5 -27t-12.5 -62h-61q-5 60 31 99.5t102 39.5q61 0 97.5 -35t36.5 -86q0 -74 -76 -125q-25 -18 -70 -39q-21 -10 -34 -18.5t-25 -27.5t-11 -43h210v-49z
" />
    <glyph glyph-name="three.numr" 
d="M21 396h66q0 -35 20 -55.5t55 -20.5q31 0 50.5 18.5t19.5 47.5q0 74 -97 78l-26 1v50l27 2q95 6 95 72q0 31 -19.5 47t-47.5 16q-29 0 -48.5 -15.5t-20.5 -46.5h-63q2 32 16.5 55.5t35.5 35t41 16.5t38 5q63 0 98 -33t35 -78q0 -71 -80 -97v-3q42 -12 62 -41.5t20 -62.5
q0 -49 -36.5 -83.5t-99.5 -34.5q-59 0 -98 35t-43 92z" />
    <glyph glyph-name="four.numr" 
d="M202 277v97h-190v65q78 109 170 256h83v-274h54v-48h-54v-96h-63zM63 421h142v216h-4l-138 -213v-3z" />
    <glyph glyph-name="five.numr" 
d="M30 394h64q-1 -33 17.5 -54t48.5 -21q39 0 58.5 29.5t19.5 70.5q0 44 -19 71t-52 27q-49 0 -71 -50h-51l1 225h239v-47h-185q-4 -116 -5 -117h4q34 37 81 37q60 0 90 -41.5t30 -101.5q0 -67 -37 -110.5t-105 -43.5q-55 0 -91 36t-37 90z" />
    <glyph glyph-name="six.numr" 
d="M302 593h-61q1 27 -12 43.5t-41 16.5q-42 0 -71.5 -44t-29.5 -121h4q37 54 100 54q50 0 85.5 -36t35.5 -99q0 -62 -37.5 -101t-97.5 -39q-69 0 -108.5 58t-39.5 142q0 51 14 101t52.5 91t94.5 41q62 0 89 -33.5t23 -73.5zM180 316q31 0 51.5 23.5t20.5 62.5q0 41 -19 66
t-52 26q-33 0 -57.5 -21.5t-24.5 -49.5q0 -44 21 -75.5t60 -31.5z" />
    <glyph glyph-name="seven.numr" 
d="M26 642v50h279v-58l-174 -357h-69q108 213 187 361v4h-223z" />
    <glyph glyph-name="eight.numr" 
d="M168 514q33 0 53.5 20.5t20.5 51.5q0 30 -20 49.5t-54 19.5t-54 -19.5t-20 -49.5q0 -31 20.5 -51.5t53.5 -20.5zM168 318q37 0 58 20t21 49q0 34 -22 55t-57 21t-57 -21t-22 -55q0 -29 21 -49t58 -20zM168 701q63 0 98.5 -35t35.5 -76q0 -70 -67 -98v-4
q29 -10 51.5 -36.5t22.5 -64.5q0 -47 -37.5 -82.5t-103.5 -35.5t-103.5 35.5t-37.5 82.5q0 38 22.5 64.5t51.5 36.5v4q-67 28 -67 98q0 41 35.5 76t98.5 35z" />
    <glyph glyph-name="nine.numr" 
d="M33 374h62q-2 -60 52 -60q41 0 71 44t30 121h-4q-37 -54 -100 -54q-50 0 -85.5 36t-35.5 99q0 62 37.5 101t97.5 39q69 0 108.5 -58t39.5 -142q0 -37 -8.5 -75t-25.5 -75t-50 -60t-76 -23q-60 0 -88 34t-25 73zM154 653q-31 0 -51.5 -23.5t-20.5 -62.5q0 -41 19 -66
t52 -26q33 0 57.5 21.5t24.5 49.5q0 44 -21 75.5t-60 31.5z" />
    <glyph glyph-name="zero.dnom" 
d="M22 203q0 31 5.5 63.5t19.5 71t45 63t76 24.5q41 0 71 -21t45.5 -55t22.5 -68t7 -68q0 -53 -12 -100t-47 -84.5t-88 -37.5q-50 0 -84 35t-47.5 81t-13.5 96zM85 206q0 -73 21 -119t61 -46q30 0 50 27t27 62.5t7 76.5q0 76 -22 123t-60 47q-32 0 -52 -28.5t-26 -64
t-6 -78.5z" />
    <glyph glyph-name="one.dnom" 
d="M176 0v355h-4q-17 -30 -61 -93.5t-71 -92.5v87q48 50 116 160h82v-416h-62z" />
    <glyph glyph-name="two.dnom" 
d="M297 0h-267q-2 25 0 43q6 54 31 86.5t68 54.5q32 17 67 40q43 31 43 80q0 28 -19.5 48.5t-51.5 20.5q-42 0 -58.5 -27t-12.5 -62h-61q-5 60 31 99.5t102 39.5q61 0 97.5 -35t36.5 -86q0 -74 -76 -125q-25 -18 -70 -39q-21 -10 -34 -18.5t-25 -27.5t-11 -43h210v-49z" />
    <glyph glyph-name="three.dnom" 
d="M21 119h66q0 -35 20 -55.5t55 -20.5q31 0 50.5 18.5t19.5 47.5q0 74 -97 78l-26 1v50l27 2q95 6 95 72q0 31 -19.5 47t-47.5 16q-29 0 -48.5 -15.5t-20.5 -46.5h-63q2 32 16.5 55.5t35.5 35t41 16.5t38 5q63 0 98 -33t35 -78q0 -71 -80 -97v-3q42 -12 62 -41.5t20 -62.5
q0 -49 -36.5 -83.5t-99.5 -34.5q-59 0 -98 35t-43 92z" />
    <glyph glyph-name="four.dnom" 
d="M202 0v97h-190v65q78 109 170 256h83v-274h54v-48h-54v-96h-63zM63 144h142v216h-4l-138 -213v-3z" />
    <glyph glyph-name="five.dnom" 
d="M30 117h64q-1 -33 17.5 -54t48.5 -21q39 0 58.5 29.5t19.5 70.5q0 44 -19 71t-52 27q-49 0 -71 -50h-51l1 225h239v-47h-185q-4 -116 -5 -117h4q34 37 81 37q60 0 90 -41.5t30 -101.5q0 -67 -37 -110.5t-105 -43.5q-55 0 -91 36t-37 90z" />
    <glyph glyph-name="six.dnom" 
d="M302 316h-61q1 27 -12 43.5t-41 16.5q-42 0 -71.5 -44t-29.5 -121h4q37 54 100 54q50 0 85.5 -36t35.5 -99q0 -62 -37.5 -101t-97.5 -39q-69 0 -108.5 58t-39.5 142q0 51 14 101t52.5 91t94.5 41q62 0 89 -33.5t23 -73.5zM180 39q31 0 51.5 23.5t20.5 62.5q0 41 -19 66
t-52 26q-33 0 -57.5 -21.5t-24.5 -49.5q0 -44 21 -75.5t60 -31.5z" />
    <glyph glyph-name="seven.dnom" 
d="M26 365v50h279v-58l-174 -357h-69q108 213 187 361v4h-223z" />
    <glyph glyph-name="eight.dnom" 
d="M168 237q33 0 53.5 20.5t20.5 51.5q0 30 -20 49.5t-54 19.5t-54 -19.5t-20 -49.5q0 -31 20.5 -51.5t53.5 -20.5zM168 41q37 0 58 20t21 49q0 34 -22 55t-57 21t-57 -21t-22 -55q0 -29 21 -49t58 -20zM168 424q63 0 98.5 -35t35.5 -76q0 -70 -67 -98v-4q29 -10 51.5 -36.5
t22.5 -64.5q0 -47 -37.5 -82.5t-103.5 -35.5t-103.5 35.5t-37.5 82.5q0 38 22.5 64.5t51.5 36.5v4q-67 28 -67 98q0 41 35.5 76t98.5 35z" />
    <glyph glyph-name="nine.dnom" 
d="M33 97h62q-2 -60 52 -60q41 0 71 44t30 121h-4q-37 -54 -100 -54q-50 0 -85.5 36t-35.5 99q0 62 37.5 101t97.5 39q69 0 108.5 -58t39.5 -142q0 -37 -8.5 -75t-25.5 -75t-50 -60t-76 -23q-60 0 -88 34t-25 73zM154 376q-31 0 -51.5 -23.5t-20.5 -62.5q0 -41 19 -66
t52 -26q33 0 57.5 21.5t24.5 49.5q0 44 -21 75.5t-60 31.5z" />
    <glyph glyph-name="caron.salt" horiz-adv-x="280" 
d="M148 513h-61q42 37 59 72q3 6 0 10t-9 4q-27 0 -45 16.5t-18 43.5t18 45t45 18t45.5 -16.5t19.5 -44.5q1 -22 -3 -43q-15 -56 -51 -105z" />
    <glyph glyph-name="caron.case" horiz-adv-x="418" 
d="M368 921l-158 -159l-160 159h95l62 -60h6l60 60h95z" />
    <glyph glyph-name="circumflex.case" horiz-adv-x="418" 
d="M210 934l158 -159h-95l-60 60h-6l-62 -60h-95z" />
    <glyph glyph-name="acute.case" horiz-adv-x="330" 
d="M246 928l34 -75l-200 -86l-30 59z" />
    <glyph glyph-name="grave.case" horiz-adv-x="330" 
d="M50 853l34 75l196 -102l-30 -59z" />
    <glyph glyph-name="macron.case" horiz-adv-x="400" 
d="M50 787v76h300v-76h-300z" />
    <glyph glyph-name="breve.case" horiz-adv-x="391" 
d="M195 831q27 0 46 9t27.5 23t12 25t4.5 21h55q2 -67 -37 -107t-108 -40t-107.5 40.5t-36.5 106.5h55q1 -10 4 -20.5t11.5 -25t27.5 -23.5t46 -9z" />
    <glyph glyph-name="ring.case" horiz-adv-x="280" 
d="M50 849q0 37 26 61.5t64 24.5t64 -24.5t26 -61.5t-26 -62t-64 -25t-64 25t-26 62zM94 849q0 -19 13.5 -32t32.5 -13q18 0 32 13.5t14 31.5t-14 31.5t-32 13.5q-19 0 -32.5 -13t-13.5 -32z" />
    <glyph glyph-name="tilde.case" horiz-adv-x="409" 
d="M101 776h-50q-1 58 25.5 85t63.5 27q22 0 67 -15q47 -15 58 -15q39 0 43 38h50q1 -58 -25.5 -85t-63.5 -27q-22 0 -67 15q-47 15 -58 15q-39 0 -43 -38z" />
    <glyph glyph-name="dotaccent.case" horiz-adv-x="280" 
d="M78 837q0 27 17.5 44t43.5 17t44 -17t18 -44q0 -26 -18 -43t-44 -17t-43.5 16.5t-17.5 43.5z" />
    <glyph glyph-name="hungarumlaut.case" horiz-adv-x="467" 
d="M200 935l43 -61l-155 -107l-38 50zM374 934l43 -61l-155 -106l-38 49z" />
    <glyph glyph-name="dieresis.case" horiz-adv-x="414" 
d="M50 837q0 27 17.5 44t43.5 17t44 -17t18 -44q0 -26 -18 -43t-44 -17t-43.5 16.5t-17.5 43.5zM241 837q0 27 17.5 44t43.5 17t44 -17t18 -44q0 -26 -18 -43t-44 -17t-43.5 16.5t-17.5 43.5z" />
    <glyph glyph-name="afii10072.BUL" horiz-adv-x="719" 
d="M315 260l-1 462h91l-1 -462h6l165 243h108l-181 -252l207 -251h-112l-187 231h-6l1 -231h-91l1 231h-6l-187 -231h-112l207 252l-181 251h108l165 -243h6z" />
    <glyph glyph-name="afii10096.BUL" horiz-adv-x="740" 
d="M472 515q59 0 105 -25t71.5 -65.5t38.5 -85t13 -89.5q0 -109 -59.5 -187.5t-168.5 -78.5q-103 0 -163 68t-67 171h-84l1 -223h-94v722h94v-220l-1 -203h86q7 41 23.5 78t43.5 68.5t68.5 50.5t92.5 19zM337 251q0 -83 32.5 -139t100.5 -56q60 0 96 49.5t36 146.5
q0 91 -36.5 141.5t-96.5 50.5q-55 0 -93.5 -46t-38.5 -147z" />
    <glyph glyph-name="afii10068.BUL" horiz-adv-x="463" 
d="M323 149h97q-4 -80 -59 -121t-132 -41q-84 0 -138 41.5t-54 112.5q0 114 172 154q58 13 85 32t27 49q0 35 -25.5 52t-60.5 17q-36 0 -63 -22t-29 -59h-95q4 70 57 110t127 40q82 0 132 -39t50 -106q0 -109 -176 -153q-55 -14 -80 -33.5t-25 -50.5q0 -33 25.5 -53.5
t66.5 -20.5q49 0 73.5 27.5t24.5 63.5z" />
    <glyph glyph-name="afii10075.BUL" horiz-adv-x="563" 
d="M399 502h97v-416q0 -50 7 -86h-97q-3 31 -1 87h-6q-9 -16 -24.5 -34.5t-54 -39t-84.5 -20.5q-28 0 -55.5 8.5t-54.5 28.5t-44 59t-17 93v320h96v-321q0 -52 24 -82t71 -30q51 0 91 41t52 106v286zM136 594v71h290v-71h-290z" />
    <glyph glyph-name="afii10077.BUL" horiz-adv-x="556" 
d="M21 0l202 502h121l191 -502h-99l-150 415h-6l-159 -415h-100z" />
    <glyph glyph-name="afii10081.BUL" horiz-adv-x="554" 
d="M60 0v502h92v-86h6q17 30 61 63t105 33q26 0 52.5 -8t54.5 -27t45.5 -57.5t17.5 -92.5v-327h-96v329q0 52 -24.5 81t-67.5 29q-51 0 -93.5 -42t-57.5 -105v-292h-95z" />
    <glyph glyph-name="afii10084.BUL" horiz-adv-x="851" 
d="M380 0v343q0 48 -22 72.5t-58 24.5q-48 0 -89.5 -43t-54.5 -108v-289h-95v350l-1 152h93l1 -89h6q7 13 16 25.5t28 32.5t49 32t65 12q104 0 139 -102h6q11 19 21 32t29 31.5t47 28.5t63 10q28 0 54.5 -8t53.5 -26.5t43.5 -56t16.5 -89.5v-335h-95v345q0 47 -24 71.5
t-61 24.5q-43 0 -80 -37.5t-56 -102.5v-301h-95z" />
    <glyph glyph-name="afii10088.BUL" horiz-adv-x="611" 
d="M395 502h95v-421h91l-4 -198h-88v117h-85q-2 40 -2 87h-6q-9 -16 -24.5 -34.5t-53.5 -39t-84 -20.5q-28 0 -55 9t-54 28.5t-43.5 58.5t-16.5 92v321h95v-322q0 -52 23.5 -81.5t70.5 -29.5q51 0 90 41t51 106v286z" />
    <glyph glyph-name="afii10090.BUL" horiz-adv-x="850" 
d="M471 502v-343q0 -48 21.5 -72.5t56.5 -24.5q48 0 88 43t53 108v289h95v-350l1 -152h-93l-1 89h-6q-53 -102 -155 -102t-137 102h-6q-12 -21 -20.5 -32.5t-27.5 -31t-46.5 -29t-62.5 -9.5q-22 0 -43 4.5t-44 17t-40 32t-28 52t-11 74.5v335h95v-345q0 -47 23 -71.5
t60 -24.5q43 0 78.5 37.5t54.5 102.5v301h95z" />
    <glyph glyph-name="afii10091.BUL" horiz-adv-x="894" 
d="M465 502v-343q0 -97 74 -97q48 0 87 43t52 108v289h94v-421h92l-4 -198h-88v117h-91l-1 89h-6q-7 -13 -16 -25.5t-27.5 -32.5t-47.5 -32t-62 -12q-98 0 -133 102h-6q-11 -18 -21 -31.5t-29 -32t-46 -28.5t-59 -10q-28 0 -53.5 8t-51.5 26t-41.5 55t-15.5 89v337h95v-345
q0 -48 21 -72t58 -24q43 0 77.5 37.5t53.5 102.5v301h95z" />
    <glyph glyph-name="afii10092.BUL" horiz-adv-x="560" 
d="M20 422v80h210v-194l-1 -53h6q53 51 132 51q72 0 119 -44t47 -111q0 -70 -55 -117t-145 -47q-79 0 -138 43.5t-59 130.5v264zM230 176v-23q0 -45 31 -69t73 -24q51 0 78.5 24.5t27.5 63.5q0 38 -27.5 62t-75.5 24q-30 0 -61 -17t-46 -41z" />
    <glyph glyph-name="afii10094.BUL" horiz-adv-x="490" 
d="M159 176v-23q0 -45 31 -69t73 -24q51 0 78.5 24.5t27.5 63.5q0 38 -27.5 62t-75.5 24q-30 0 -60.5 -17t-46.5 -41zM158 255h6q53 51 132 51q72 0 119 -44t47 -111q0 -70 -55 -117t-145 -47q-79 0 -138 43.5t-59 130.5v341h94v-194z" />
    <glyph glyph-name="afii10076.BUL" horiz-adv-x="500" 
d="M65 0v722h93v-458h6l208 238h120l-232 -248l240 -254h-119l-217 236h-6v-236h-93z" />
    <glyph glyph-name="afii10029.BUL" horiz-adv-x="690" 
d="M412 722l247 -722h-105l-199 618h-6l-210 -618h-109l261 722h121z" />
    <glyph glyph-name="afii10073.BUL" horiz-adv-x="468" 
d="M432 112q1 -49 0 -97q-3 -105 -61 -156.5t-155 -51.5q-54 0 -95.5 17.5t-64.5 45.5t-35 56t-15 56h98q4 -45 34.5 -75t77.5 -30q117 0 121 134q1 51 0 102q-3 96 -115 106q-34 3 -85 3v71q31 0 78 3q113 8 113 76q0 33 -26.5 52.5t-70.5 19.5q-86 0 -107 -73h-96
q13 66 68.5 105t134.5 39q85 0 139 -36.5t54 -99.5q0 -37 -28 -67.5t-80 -48.5v-6q55 -14 84.5 -52.5t31.5 -92.5z" />
    <glyph glyph-name="afii10074.BUL" horiz-adv-x="574" 
d="M397 502h112v-502h-90l1 384h-6l-239 -384h-110v502h90l-1 -383h6z" />
    <glyph glyph-name="afii10067.BUL" horiz-adv-x="535" 
d="M151 535q-3 -158 0 -344q1 -59 37 -95t95 -36q60 0 95 33.5t35 90.5q0 65 -36.5 102t-103.5 42q-36 3 -70 3v70q31 0 63 3q137 13 137 133q0 53 -33 83.5t-87 30.5q-55 0 -93 -32.5t-39 -83.5zM62 197q-3 177 0 333q1 87 65.5 139.5t155.5 52.5q92 0 150 -50t58 -134
q0 -54 -31 -97t-91 -68v-6q64 -23 100 -71t36 -107q0 -91 -60.5 -146.5t-164.5 -55.5q-100 0 -158 59t-60 151z" />
    <glyph glyph-name="afii10069.BUL" horiz-adv-x="564" 
d="M136 262q0 -85 37 -133.5t101 -48.5q49 0 85 37t41 80v123q-2 45 -39 83.5t-89 38.5q-68 0 -102 -50.5t-34 -129.5zM494 376v-359q0 -106 -60 -162t-156 -56q-99 0 -149 51t-58 114h95q4 -44 34 -72t79 -28q123 0 123 145l1 79h-6q-20 -36 -58 -58t-82 -22
q-102 0 -159.5 70.5t-57.5 177.5q0 110 59 181.5t155 71.5q59 0 94 -24t50 -51h6q1 5 4 29.5t6 38.5h90q-10 -46 -10 -126z" />
    <glyph glyph-name="afii10021.BUL" horiz-adv-x="760" 
d="M634 88h91l-4 -227h-97v139h-488v-139h-97l-4 227h90l195 634h125zM387 619h-6l-156 -533h309z" />
    <glyph glyph-name="afii10038.BUL" horiz-adv-x="813" 
d="M456 -105h-99v171q-137 13 -229.5 91.5t-92.5 200.5q0 121 91.5 201t230.5 93v162h99v-161q147 -13 234.5 -96t87.5 -199q0 -115 -88 -196.5t-234 -95.5v-171zM677 358q0 90 -60 143.5t-161 64.5v-412q103 11 162 64.5t59 139.5zM136 358q0 -86 60 -139.5t161 -65.5v413
q-107 -10 -164 -65.5t-57 -142.5z" />
    <glyph glyph-name="afii10017.BULgrave" horiz-adv-x="635" 
d="M453 183h-274l-58 -183h-101l238 722h110l247 -722h-101zM204 264h222l-110 344h-6zM132 853l34 75l196 -102l-30 -59z" />
    <glyph glyph-name="afii10022.BULgrave" horiz-adv-x="538" 
d="M70 0v722h417v-85h-318v-225h304v-84h-303v-240h328v-88h-428zM154 853l34 75l196 -102l-30 -59z" />
    <glyph glyph-name="afii10026.BULgrave" horiz-adv-x="750" 
d="M680 722v-722h-92v579h-6l-412 -579h-100v722h93v-575h6l412 575h99zM260 853l34 75l196 -102l-30 -59z" />
    <glyph glyph-name="afii10032.BULgrave" horiz-adv-x="796" 
d="M756 362q0 -172 -105 -275.5t-255 -103.5q-149 0 -252.5 106.5t-103.5 276.5q0 99 42.5 183.5t125.5 138t189 53.5q160 0 259.5 -110.5t99.5 -268.5zM652 363q0 133 -72 213.5t-184 80.5q-113 0 -182.5 -84.5t-69.5 -208.5q0 -129 69 -212.5t183 -83.5q120 0 188 85
t68 210zM283 853l34 75l196 -102l-30 -59z" />
    <glyph glyph-name="afii10037.BULgrave" horiz-adv-x="584" 
d="M569 722l-248 -615q-25 -61 -63 -87t-94 -26q-42 0 -74 15v80q25 -9 65 -9q54 0 73 48l35 84q8 21 -4 36t-34 11l-210 463h114l171 -411h6l154 411h109zM177 853l34 75l196 -102l-30 -59z" />
    <glyph glyph-name="afii10044.BULgrave" horiz-adv-x="672" 
d="M180 634l-160 -2v90h259v-286h83q118 0 196.5 -54.5t78.5 -158.5q0 -109 -82 -166t-203 -57h-172v634zM279 354v-270l74 1q29 0 56.5 5.5t57 19.5t47.5 42.5t18 69.5q0 39 -17 66.5t-45.5 40.5t-53.5 18.5t-51 5.5zM42 853l34 75l196 -102l-30 -59z" />
    <glyph glyph-name="afii10045.BULgrave" horiz-adv-x="770" 
d="M70 0v722h99v-286h60q113 0 190 -55t77 -158q0 -107 -80 -165t-197 -58h-149zM169 354v-270l51 1q29 0 55.5 6t54.5 19.5t45 42t17 69.5q0 39 -16 66.5t-43 40.5t-51 18.5t-50 5.5zM600 0v722h100v-722h-100zM270 853l34 75l196 -102l-30 -59z" />
    <glyph glyph-name="afii10047.BULgrave" horiz-adv-x="670" 
d="M143 502h-99q9 103 83.5 166t184.5 63q80 0 143 -33.5t100 -88.5t56 -119.5t19 -132.5q0 -63 -18 -125t-54 -118.5t-100 -91t-146 -34.5q-111 0 -188 64.5t-89 169.5h100q4 -60 50.5 -103.5t125.5 -43.5q101 0 156 71.5t61 180.5l-275 -1v84l274 -1q-10 109 -66.5 175
t-150.5 66q-78 0 -121 -44t-46 -104zM180 853l34 75l196 -102l-30 -59z" />
    <glyph glyph-name="afii10048.BULgrave" horiz-adv-x="965" 
d="M925 362q0 -173 -91.5 -275.5t-226.5 -102.5q-126 0 -213.5 94.5t-97.5 250.5h-117l1 -329h-100v722h100l-1 -307h118q14 138 97.5 231t213.5 93q144 0 230.5 -109t86.5 -268zM822 363q0 135 -57.5 213.5t-157.5 78.5t-155 -82.5t-55 -208.5q0 -132 55 -213.5t155 -81.5
q107 0 161 83t54 211zM367 853l34 75l196 -102l-30 -59z" />
    <glyph glyph-name="afii10049.BULgrave" horiz-adv-x="598" 
d="M528 722v-722h-99v311h-46l-252 -311h-126l276 323q-83 14 -137.5 64.5t-54.5 128.5q0 97 79 151.5t190 54.5h170zM431 396v242l-74 -1q-67 -1 -115.5 -30t-48.5 -92q0 -59 48.5 -88t114.5 -30zM224 853l34 75l196 -102l-30 -59z" />
    <glyph glyph-name="afii10065.BULgrave" horiz-adv-x="523" 
d="M467 0h-95q4 41 4 64h-5q-72 -77 -169 -77q-72 0 -114.5 43.5t-42.5 110.5q0 69 48.5 114t127.5 46q73 1 152 -22v54q0 54 -28.5 83t-82.5 29q-52 0 -80 -26t-26 -63h-101q15 70 68.5 115t138.5 45q89 0 144 -46t55 -137v-250q0 -56 6 -83zM371 133v89q-74 15 -131 14
q-48 -1 -75.5 -26t-27.5 -65q0 -41 25 -63.5t72 -22.5q40 0 77.5 23.5t59.5 50.5zM136 669l41 73l189 -121l-35 -58z" />
    <glyph glyph-name="afii10070.BULgrave" horiz-adv-x="533" 
d="M491 238h-358q1 -81 39 -130.5t108 -49.5q46 0 78.5 27t41.5 70h92q-9 -68 -67 -119t-150 -51q-106 0 -170.5 74t-64.5 196q0 109 63 184.5t166 75.5q53 0 94.5 -17.5t67 -46t41 -65.5t19.5 -74t0 -74zM137 306l261 2q0 20 -5.5 42t-19 45t-40 37.5t-62.5 14.5
q-52 0 -89.5 -37t-44.5 -104zM131 669l41 73l189 -121l-35 -58z" />
    <glyph glyph-name="afii10074.BULgrave" horiz-adv-x="574" 
d="M397 502h112v-502h-90l1 384h-6l-239 -384h-110v502h90l-1 -383h6zM172 669l41 73l189 -121l-35 -58z" />
    <glyph glyph-name="afii10080.BULgrave" horiz-adv-x="578" 
d="M40 251q0 36 9.5 72t29.5 71t48.5 61.5t71 43t92.5 16.5q61 0 110.5 -25t78 -65.5t43.5 -85.5t15 -89q0 -107 -66.5 -187t-180.5 -80q-115 0 -183 78.5t-68 189.5zM138 251q0 -84 39 -140.5t113 -56.5q63 0 106.5 50.5t43.5 147.5q0 91 -43 141.5t-107 50.5
q-60 0 -106 -45.5t-46 -147.5zM144 669l41 73l189 -121l-35 -58z" />
    <glyph glyph-name="afii10085.BULgrave" horiz-adv-x="510" 
d="M490 502q-173 -524 -203 -602q-39 -102 -142 -102q-38 0 -66 10v80q25 -9 54 -9q46 0 66 41q21 44 30 80q4 16 -4.5 25.5t-24.5 8.5l-180 468h104l140 -398h6l122 398h98zM110 669l41 73l189 -121l-35 -58z" />
    <glyph glyph-name="afii10092.BULgrave" horiz-adv-x="547" 
d="M235 303h68q86 0 150 -36.5t64 -109.5q0 -72 -58 -114.5t-159 -42.5h-159v425l-121 -3v80h215v-199zM235 232v-160l69 1q56 1 86.5 23t30.5 58q0 35 -30.5 55.5t-83.5 21.5zM8 669l41 73l189 -121l-35 -58z" />
    <glyph glyph-name="afii10093.BULgrave" horiz-adv-x="642" 
d="M160 232v-160l38 1q52 1 81.5 23t29.5 58q0 35 -29.5 55.5t-78.5 21.5zM160 303h38q84 0 145.5 -36.5t61.5 -109.5q0 -71 -56 -114t-154 -43h-130v502h95v-199zM478 0v502h94v-502h-94zM206 669l41 73l189 -121l-35 -58z" />
    <glyph glyph-name="afii10095.BULgrave" horiz-adv-x="521" 
d="M132 343h-95q7 74 66 123t140 49q103 0 170.5 -73t67.5 -193q0 -115 -64.5 -189t-172.5 -74q-89 0 -144.5 51t-69.5 128h96q8 -42 38.5 -72.5t79.5 -30.5q60 0 97.5 45t43.5 115h-178v75l176 -2q-9 66 -44.5 106.5t-93.5 40.5q-51 0 -80.5 -32t-32.5 -67zM115 669l41 73
l189 -121l-35 -58z" />
    <glyph glyph-name="afii10096.BULgrave" horiz-adv-x="740" 
d="M472 515q59 0 105 -25t71.5 -65.5t38.5 -85t13 -89.5q0 -109 -59.5 -187.5t-168.5 -78.5q-103 0 -163 68t-67 171h-84l1 -223h-94v502h94l-1 -203h86q7 41 23.5 78t43.5 68.5t68.5 50.5t92.5 19zM337 251q0 -83 32.5 -139t100.5 -56q60 0 96 49.5t36 146.5
q0 91 -36.5 141.5t-96.5 50.5q-55 0 -93.5 -46t-38.5 -147zM255 669l41 73l189 -121l-35 -58z" />
    <glyph glyph-name="afii10097.BULgrave" horiz-adv-x="497" 
d="M339 280v152l-81 -1q-56 -1 -87 -21.5t-31 -54.5q0 -33 32.5 -53t85.5 -21zM126 0h-116l180 222q-57 8 -101.5 42t-44.5 91q0 66 58.5 106.5t159.5 40.5h170v-502h-93v209h-56zM143 669l41 73l189 -121l-35 -58z" />
    <glyph glyph-name="RP" horiz-adv-x="810" 
d="M361 433l-140 246l6 4l140 -247zM450 433l140 246l-6 4l-140 -247zM361 297l-140 -246l6 -4l140 247zM450 297l140 -246l-6 -4l-140 247zM338 319l-230 -164l4 -6l230 165zM473 411l230 164l-4 6l-230 -165zM338 411l-230 164l4 6l230 -165zM473 319l230 -164l-4 -6
l-230 165zM377 441l-87 269l7 2l86 -269zM377 289l-87 -269l7 -2l86 269zM434 441l87 269l-7 2l-86 -269zM434 289l87 -269l-7 -2l-86 269zM349 307l-190 -210l5 -5l190 211zM349 423l-190 210l5 5l190 -211zM462 423l190 210l-5 5l-190 -211zM462 307l190 -210l-5 -5
l-190 211zM330 335l-260 -114l3 -6l260 114zM481 395l260 114l-3 6l-260 -114zM481 335l260 -114l-3 -6l-260 114zM330 395l-260 114l3 6l260 -114zM325 379l-277 57l2 7l276 -58zM325 351l-277 -57l2 -7l276 58zM486 379l277 57l-2 7l-276 -58zM486 351l277 -57l-2 -7
l-276 58zM394 285l-31 -281l7 -1l30 281zM417 445l31 281l-7 1l-30 -281zM417 285l31 -281l-7 -1l-30 281zM394 445l-31 281l7 1l30 -281zM40 368h284v-6h-284v6zM770 368h-283v-6h283v6zM490 476l133 181l-6 5l-133 -182zM321 476l-133 181l6 5l133 -182zM321 254
l-133 -181l6 -5l133 182zM490 254l133 -181l-6 -5l-133 182zM373 501l-46 219l7 2l46 -220zM373 229l-46 -219l7 -2l46 220zM438 501l46 219l-7 2l-46 -220zM438 229l46 -219l-7 -2l-46 220zM402 225v-225h7v225h-7zM402 505v225h7v-225h-7zM528 299l196 -112l-3 -6
l-197 112zM283 299l-196 -112l3 -6l197 112zM283 431l-196 112l3 6l197 -112zM528 431l196 112l-3 6l-197 -112zM540 325l214 -68l-2 -7l-214 69zM540 405l214 68l-2 7l-214 -69zM271 325l-214 -68l2 -7l214 69zM271 405l-214 68l2 7l214 -69zM679 606l-5 5l-167 -151l4 -5z
M132 606l5 5l167 -151l-4 -5zM679 124l-5 -5l-167 151l4 5zM132 124l5 -5l167 151l-4 5zM347 491l-92 206l6 3l92 -206zM464 491l92 206l-6 3l-92 -206zM464 239l92 -206l-6 -3l-92 206zM347 239l-92 -206l6 -3l92 206zM769 331l-1 -7l-224 24l1 6zM42 399l1 7l224 -24
l-1 -6zM769 399l-1 7l-224 -24l1 -6zM42 331l1 -7l224 24l-1 6z" />
    <glyph glyph-name="M.ss01" horiz-adv-x="910" 
d="M840 722v-722h-99l1 576h-6l-243 -589h-72l-248 588h-6l1 -575h-98v722h139l247 -588h6l238 588h140z" />
    <glyph glyph-name="G.ss01" horiz-adv-x="738" 
d="M385 733q113 0 192 -65t86 -166h-107q-2 65 -48.5 109t-121.5 44q-116 0 -179.5 -82.5t-63.5 -211.5q0 -139 55.5 -217.5t172.5 -78.5q90 0 151.5 58t62.5 146l-279 -27v98h372v-340h-72l-8 115h-8q-81 -131 -234 -131q-103 0 -176.5 53.5t-106.5 136.5t-33 185
q0 157 92.5 265.5t252.5 108.5z" />
    <glyph glyph-name="i.ss01" horiz-adv-x="224" 
d="M65 0v502h94v-502h-94zM61 612v110h101v-110h-101z" />
    <glyph glyph-name="j.ss01" horiz-adv-x="233" 
d="M0 -193v71q38 0 55 18t17 68v538h94v-535q0 -27 -5 -51.5t-17 -52t-39.5 -44t-66.5 -16.5q-22 0 -38 4zM68 612v110h101v-110h-101z" />
    <glyph glyph-name="adieresis.ss01" horiz-adv-x="523" 
d="M372 0h95q-6 27 -6 83v250q0 91 -55 137t-144 46q-85 0 -138.5 -45t-68.5 -115h101q-2 37 26 63t80 26q54 0 82.5 -29t28.5 -83v-54q-79 23 -152 22q-79 -1 -127.5 -46t-48.5 -115q0 -68 42 -110.5t115 -42.5q97 0 169 77h5zM371 222v-89q-22 -27 -59.5 -50.5
t-77.5 -23.5q-47 0 -72 22.5t-25 63.5q0 40 27.5 65t75.5 26q57 1 131 -14zM119 597v110h100v-110h-100zM303 597v110h100v-110h-100z" />
    <glyph glyph-name="cdotaccent.ss01" horiz-adv-x="521" 
d="M486 341h-97q-3 35 -31.5 68t-79.5 33q-68 0 -103.5 -54t-35.5 -138q0 -81 37 -134.5t103 -53.5q49 0 79 31.5t38 74.5h95q-14 -78 -69 -129.5t-143 -51.5q-107 0 -173 74.5t-66 187.5q0 120 68.5 193t171.5 73q81 0 139.5 -50t66.5 -124zM224 597v110h101v-110h-101z
" />
    <glyph glyph-name="dcaron.ss01" horiz-adv-x="641" 
d="M402 502v220h94v-648q0 -54 2 -74h-85q-1 21 -1 74h-6q-54 -83 -149 -83q-101 0 -159 76t-58 186q0 112 56.5 187t152.5 75t148 -81h6q-1 34 -1 68zM138 253q0 -87 35.5 -138t102.5 -51q49 0 86 40.5t40 83.5v122q-2 46 -39 89.5t-92 43.5q-66 0 -99.5 -53.5
t-33.5 -136.5zM536 604v118h112v-106q-24 -57 -62 -103h-65q46 39 71 76q4 5 1.5 10t-9.5 5h-48z" />
    <glyph glyph-name="edieresis.ss01" horiz-adv-x="533" 
d="M491 238h-358q1 -81 39 -130.5t108 -49.5q46 0 78.5 27t41.5 70h92q-9 -68 -67 -119t-150 -51q-106 0 -170.5 74t-64.5 196q0 109 63 184.5t166 75.5q53 0 94.5 -17.5t67 -46t41 -65.5t19.5 -74t0 -74zM137 306l261 2q0 20 -5.5 42t-19 45t-40 37.5t-62.5 14.5
q-52 0 -89.5 -37t-44.5 -104zM124 597v110h100v-110h-100zM308 597v110h100v-110h-100z" />
    <glyph glyph-name="edotaccent.ss01" horiz-adv-x="533" 
d="M491 238h-358q1 -81 39 -130.5t108 -49.5q46 0 78.5 27t41.5 70h92q-9 -68 -67 -119t-150 -51q-106 0 -170.5 74t-64.5 196q0 109 63 184.5t166 75.5q53 0 94.5 -17.5t67 -46t41 -65.5t19.5 -74t0 -74zM137 306l261 2q0 20 -5.5 42t-19 45t-40 37.5t-62.5 14.5
q-52 0 -89.5 -37t-44.5 -104zM218 597v110h101v-110h-101z" />
    <glyph glyph-name="gdotaccent.ss01" horiz-adv-x="564" 
d="M136 262q0 79 34 129.5t102 50.5q52 0 89 -38.5t39 -83.5v-123q-5 -43 -41 -80t-85 -37q-64 0 -101 48.5t-37 133.5zM494 17v359q0 80 10 126h-90q-3 -14 -6 -38.5t-4 -29.5h-6q-9 16 -23 30.5t-47 29.5t-74 15q-96 0 -155 -71.5t-59 -181.5q0 -107 57.5 -177.5
t159.5 -70.5q44 0 82 22t58 58h6q-1 -40 -1 -79q0 -145 -123 -145q-49 0 -79 28t-34 72h-95q8 -63 58 -114t149 -51q96 0 156 56t60 162zM220 597v110h101v-110h-101z" />
    <glyph glyph-name="gcommaaccent.ss01" horiz-adv-x="564" 
d="M136 262q0 79 34 129.5t102 50.5q52 0 89 -38.5t39 -83.5v-123q-5 -43 -41 -80t-85 -37q-64 0 -101 48.5t-37 133.5zM494 17v359q0 80 10 126h-90q-3 -14 -6 -38.5t-4 -29.5h-6q-9 16 -23 30.5t-47 29.5t-74 15q-96 0 -155 -71.5t-59 -181.5q0 -107 57.5 -177.5
t159.5 -70.5q44 0 82 22t58 58h6q-1 -40 -1 -79q0 -145 -123 -145q-49 0 -79 28t-34 72h-95q8 -63 58 -114t149 -51q96 0 156 56t60 162zM326 662v-102h-106v90q22 55 56 94h63q-35 -27 -64 -68q-3 -4 -1 -9t8 -5h44z" />
    <glyph glyph-name="idieresis.ss01" horiz-adv-x="228" 
d="M67 0v502h94v-502h-94zM-28 597v110h100v-110h-100zM156 597v110h100v-110h-100z" />
    <glyph glyph-name="iogonek.ss01" horiz-adv-x="224" 
d="M65 0v502h94v-502q-96 -62 -96 -104q0 -40 50 -40q26 0 59 15v-44q-46 -25 -95 -25q-45 0 -66.5 22t-21.5 50q0 71 116 126h-40zM61 612v110h101v-110h-101z" />
    <glyph glyph-name="kcommaaccent.ss01" horiz-adv-x="500" 
d="M65 0v722h93v-443h6l208 224h120l-232 -235l240 -268h-119l-217 251h-6v-251h-93zM213 -164v102h106v-90q-22 -55 -56 -94h-63q35 27 64 68q3 4 1 9t-8 5h-44z" />
    <glyph glyph-name="lcaron.ss01" horiz-adv-x="304" 
d="M159 519v-519h-94v722h84zM204 604v118h112v-106q-24 -57 -62 -103h-65q46 39 71 76q4 5 1.5 10t-9.5 5h-48z" />
    <glyph glyph-name="lcommaaccent.ss01" horiz-adv-x="224" 
d="M159 519v-519h-94v722h84zM58 -164v102h106v-90q-22 -55 -56 -94h-63q35 27 64 68q3 4 1 9t-8 5h-44z" />
    <glyph glyph-name="ldot.ss01" horiz-adv-x="384" 
d="M240 280v132h124v-132h-124zM159 519v-519h-94v722h84z" />
    <glyph glyph-name="ncommaaccent.ss01" horiz-adv-x="551" 
d="M65 0v416q0 50 -5 86h97v-86h6q10 17 27 36t54.5 39.5t80.5 20.5q26 0 52 -8t53 -27t44 -57.5t17 -92.5v-327h-96v329q0 52 -23 81t-65 29q-51 0 -91.5 -41.5t-55.5 -105.5v-292h-95zM224 -164v102h106v-90q-22 -55 -56 -94h-63q35 27 64 68q3 4 1 9t-8 5h-44z" />
    <glyph glyph-name="odieresis.ss01" horiz-adv-x="578" 
d="M40 251q0 36 9.5 72t29.5 71t48.5 61.5t71 43t92.5 16.5q61 0 110.5 -25t78 -65.5t43.5 -85.5t15 -89q0 -107 -66.5 -187t-180.5 -80q-115 0 -183 78.5t-68 189.5zM138 251q0 -84 39 -140.5t113 -56.5q63 0 106.5 50.5t43.5 147.5q0 91 -43 141.5t-107 50.5
q-60 0 -106 -45.5t-46 -147.5zM147 597v110h100v-110h-100zM331 597v110h100v-110h-100z" />
    <glyph glyph-name="rcommaaccent.ss01" horiz-adv-x="375" 
d="M65 0v371q0 79 -6 131h90l5 -131h6q14 54 54.5 96.5t91.5 42.5q34 0 64 -14v-86q-26 13 -56 13q-68 0 -109 -58t-45 -142v-223h-95zM59 -164v102h106v-90q-22 -55 -56 -94h-63q35 27 64 68q3 4 1 9t-8 5h-44z" />
    <glyph glyph-name="uni0219.ss01" horiz-adv-x="463" 
d="M40 149h97q0 -35 25.5 -63t74.5 -28q42 0 68 20.5t26 53.5q0 31 -26.5 50.5t-81.5 33.5q-179 44 -179 153q0 67 51 106t133 39q74 0 125 -40t55 -110h-95q-2 37 -27 59t-61 22t-62 -17t-26 -52q0 -30 28.5 -49t86.5 -32q176 -41 176 -154q0 -70 -55 -112t-140 -42
q-77 0 -133 41.5t-60 120.5zM182 -164v102h106v-90q-22 -55 -56 -94h-63q35 27 64 68q3 4 1 9t-8 5h-44z" />
    <glyph glyph-name="tcaron.ss01" horiz-adv-x="355" 
d="M20 430v72h82l17 150h74v-150h142v-72h-142v-283q0 -72 69 -72q38 0 73 15v-74q-35 -25 -84 -25q-72 0 -111.5 41t-39.5 114v284h-80zM259 643v118h112v-106q-24 -57 -62 -103h-65q46 39 71 76q4 5 1.5 10t-9.5 5h-48z" />
    <glyph glyph-name="uni021B.ss01" horiz-adv-x="355" 
d="M20 430v72h82l17 150h74v-150h142v-72h-142v-283q0 -72 69 -72q38 0 73 15v-74q-35 -25 -84 -25q-72 0 -111.5 41t-39.5 114v284h-80zM176 -164v102h106v-90q-22 -55 -56 -94h-63q35 27 64 68q3 4 1 9t-8 5h-44z" />
    <glyph glyph-name="udieresis.ss01" horiz-adv-x="563" 
d="M399 502h97v-416q0 -50 7 -86h-97q-3 31 -1 87h-6q-9 -16 -24.5 -34.5t-54 -39t-84.5 -20.5q-28 0 -55.5 8.5t-54.5 28.5t-44 59t-17 93v320h96v-321q0 -52 24 -82t71 -30q51 0 91 41t52 106v286zM139 597v110h100v-110h-100zM323 597v110h100v-110h-100z" />
    <glyph glyph-name="wdieresis.ss01" horiz-adv-x="826" 
d="M806 502h-99l-117 -400h-6l-111 400h-122l-122 -400h-6l-106 400h-97l153 -502h108l125 415h6l119 -415h111zM267 597v110h100v-110h-100zM451 597v110h100v-110h-100z" />
    <glyph glyph-name="ydieresis.ss01" horiz-adv-x="510" 
d="M490 502q-173 -524 -203 -602q-39 -102 -142 -102q-38 0 -66 10v80q25 -9 54 -9q46 0 66 41q21 44 30 80q4 16 -4.5 25.5t-24.5 8.5l-180 468h104l140 -398h6l122 398h98zM122 597v110h100v-110h-100zM306 597v110h100v-110h-100z" />
    <glyph glyph-name="zdotaccent.ss01" horiz-adv-x="455" 
d="M30 0v89l293 336v6h-285v71h387v-82l-298 -341v-6h298v-73h-395zM189 597v110h101v-110h-101z" />
    <glyph glyph-name="Adieresis.ss01" horiz-adv-x="635" 
d="M453 183h-274l-58 -183h-101l238 722h110l247 -722h-101zM204 264h222l-110 344h-6zM168 784v106h98v-106h-98zM360 784v106h98v-106h-98z" />
    <glyph glyph-name="Cdotaccent.ss01" horiz-adv-x="700" 
d="M654 502h-103q-3 59 -46.5 103t-121.5 44q-112 0 -177 -81.5t-65 -209.5q0 -118 63 -200t179 -82q81 0 129 44.5t51 104.5h102q-12 -105 -92 -171t-191 -66q-71 0 -130 23.5t-97.5 61.5t-65 87t-38 98.5t-11.5 98.5q0 68 21 133t61.5 120t108 88.5t151.5 33.5
q111 0 187 -63.5t85 -166.5zM315 784v107h110v-107h-110z" />
    <glyph glyph-name="Edieresis.ss01" horiz-adv-x="538" 
d="M70 0v722h417v-85h-318v-225h304v-84h-303v-240h328v-88h-428zM124 784v106h98v-106h-98zM316 784v106h98v-106h-98z" />
    <glyph glyph-name="Edotaccent.ss01" horiz-adv-x="538" 
d="M70 0v722h417v-85h-318v-225h304v-84h-303v-240h328v-88h-428zM234 784v107h110v-107h-110z" />
    <glyph glyph-name="Gbreve.ss01" horiz-adv-x="738" 
d="M385 733q113 0 192 -65t86 -166h-107q-2 65 -48.5 109t-121.5 44q-116 0 -179.5 -82.5t-63.5 -211.5q0 -139 55.5 -217.5t172.5 -78.5q90 0 151.5 58t62.5 146l-279 -27v98h372v-340h-72l-8 115h-8q-81 -131 -234 -131q-103 0 -176.5 53.5t-106.5 136.5t-33 185
q0 157 92.5 265.5t252.5 108.5zM390 831q27 0 46 9t27.5 23t12 25t4.5 21h55q2 -67 -37 -107t-108 -40t-107.5 40.5t-36.5 106.5h55q1 -10 4 -20.5t11.5 -25t27.5 -23.5t46 -9z" />
    <glyph glyph-name="Gcircumflex.ss01" horiz-adv-x="738" 
d="M385 733q113 0 192 -65t86 -166h-107q-2 65 -48.5 109t-121.5 44q-116 0 -179.5 -82.5t-63.5 -211.5q0 -139 55.5 -217.5t172.5 -78.5q90 0 151.5 58t62.5 146l-279 -27v98h372v-340h-72l-8 115h-8q-81 -131 -234 -131q-103 0 -176.5 53.5t-106.5 136.5t-33 185
q0 157 92.5 265.5t252.5 108.5zM377 934l158 -159h-95l-60 60h-6l-62 -60h-95z" />
    <glyph glyph-name="Gcommaaccent.ss01" horiz-adv-x="738" 
d="M385 733q113 0 192 -65t86 -166h-107q-2 65 -48.5 109t-121.5 44q-116 0 -179.5 -82.5t-63.5 -211.5q0 -139 55.5 -217.5t172.5 -78.5q90 0 151.5 58t62.5 146l-279 -27v98h372v-340h-72l-8 115h-8q-81 -131 -234 -131q-103 0 -176.5 53.5t-106.5 136.5t-33 185
q0 157 92.5 265.5t252.5 108.5zM320 -164v102h106v-90q-22 -55 -56 -94h-63q35 27 64 68q3 4 1 9t-8 5h-44z" />
    <glyph glyph-name="Gdotaccent.ss01" horiz-adv-x="738" 
d="M385 733q113 0 192 -65t86 -166h-107q-2 65 -48.5 109t-121.5 44q-116 0 -179.5 -82.5t-63.5 -211.5q0 -139 55.5 -217.5t172.5 -78.5q90 0 151.5 58t62.5 146l-279 -27v98h372v-340h-72l-8 115h-8q-81 -131 -234 -131q-103 0 -176.5 53.5t-106.5 136.5t-33 185
q0 157 92.5 265.5t252.5 108.5zM328 784v107h110v-107h-110z" />
    <glyph glyph-name="Idieresis.ss01" horiz-adv-x="240" 
d="M70 0v722h100v-722h-100zM-25 784v106h98v-106h-98zM167 784v106h98v-106h-98z" />
    <glyph glyph-name="Idotaccent.ss01" horiz-adv-x="240" 
d="M70 0v722h100v-722h-100zM65 784v107h110v-107h-110z" />
    <glyph glyph-name="Kcommaaccent.ss01" horiz-adv-x="610" 
d="M70 0v722h99v-340h6l275 340h123l-297 -350l324 -372h-126l-299 349h-6v-349h-99zM258 -164v102h106v-90q-22 -55 -56 -94h-63q35 27 64 68q3 4 1 9t-8 5h-44z" />
    <glyph glyph-name="Lcommaaccent.ss01" horiz-adv-x="485" 
d="M70 0v722h99v-633l296 1v-90h-395zM214 -164v102h106v-90q-22 -55 -56 -94h-63q35 27 64 68q3 4 1 9t-8 5h-44z" />
    <glyph glyph-name="Lcaron.ss01" horiz-adv-x="485" 
d="M70 0v722h99v-633l296 1v-90h-395zM230 604v118h112v-106q-24 -57 -62 -103h-65q46 39 71 76q4 5 1.5 10t-9.5 5h-48z" />
    <glyph glyph-name="Ldot.ss01" horiz-adv-x="485" 
d="M291 280v132h124v-132h-124zM70 0v722h99v-633l296 1v-90h-395z" />
    <glyph glyph-name="Ncommaaccent.ss01" horiz-adv-x="750" 
d="M70 0v722h99l413 -566h6v566h92v-722h-100l-413 569h-6v-569h-91zM318 -164v102h106v-90q-22 -55 -56 -94h-63q35 27 64 68q3 4 1 9t-8 5h-44z" />
    <glyph glyph-name="Odieresis.ss01" horiz-adv-x="796" 
d="M756 362q0 -172 -105 -275.5t-255 -103.5q-149 0 -252.5 106.5t-103.5 276.5q0 99 42.5 183.5t125.5 138t189 53.5q160 0 259.5 -110.5t99.5 -268.5zM652 363q0 133 -72 213.5t-184 80.5q-113 0 -182.5 -84.5t-69.5 -208.5q0 -129 69 -212.5t183 -83.5q120 0 188 85
t68 210zM253 784v106h98v-106h-98zM445 784v106h98v-106h-98z" />
    <glyph glyph-name="Rcommaaccent.ss01" horiz-adv-x="598" 
d="M70 0v722h170q112 0 190 -52t78 -149q0 -78 -55 -128.5t-138 -64.5l283 -328h-125l-267 316h-37v-316h-99zM167 638v-238l75 1q67 1 115 29.5t48 87.5q0 63 -48.5 90.5t-115.5 28.5zM260 -164v102h106v-90q-22 -55 -56 -94h-63q35 27 64 68q3 4 1 9t-8 5h-44z" />
    <glyph glyph-name="uni0218.ss01" horiz-adv-x="596" 
d="M40 218h104q0 -24 7 -46.5t22.5 -47.5t49 -40.5t80.5 -15.5q79 0 115 37t36 80q0 56 -39 83t-133 48q-104 23 -167.5 76t-63.5 138q0 98 68.5 154t172.5 56q103 0 170.5 -55t73.5 -155h-103q-4 63 -44.5 95t-98.5 32q-62 0 -100.5 -35t-38.5 -87q0 -29 12.5 -51
t38.5 -36.5t53.5 -24t68.5 -18.5q113 -26 172.5 -74.5t59.5 -134.5q0 -96 -70.5 -154.5t-190.5 -58.5q-46 0 -88 12t-80.5 38t-62 73.5t-24.5 111.5zM251 -164v102h106v-90q-22 -55 -56 -94h-63q35 27 64 68q3 4 1 9t-8 5h-44z" />
    <glyph glyph-name="uni021A.ss01" horiz-adv-x="565" 
d="M333 0h-99v637h-214v85h525v-85h-212v-637zM231 -164v102h106v-90q-22 -55 -56 -94h-63q35 27 64 68q3 4 1 9t-8 5h-44z" />
    <glyph glyph-name="Udieresis.ss01" horiz-adv-x="673" 
d="M70 722h100v-454q0 -101 44.5 -147.5t122.5 -46.5q169 0 169 195v453h97v-451q0 -149 -74 -217.5t-192 -68.5q-123 0 -195 71.5t-72 212.5v453zM191 784v106h98v-106h-98zM383 784v106h98v-106h-98z" />
    <glyph glyph-name="Wdieresis.ss01" horiz-adv-x="960" 
d="M30 722h109l120 -585h6l157 585h121l156 -585h6l124 585h101l-170 -722h-119l-157 599h-6l-162 -599h-118zM335 784v106h98v-106h-98zM527 784v106h98v-106h-98z" />
    <glyph glyph-name="Ydieresis.ss01" horiz-adv-x="587" 
d="M347 266v-266h-101v266q0 14 -14 18l-217 438h118l163 -366h6l160 366h110l-212 -438q-13 -5 -13 -18zM154 784v106h98v-106h-98zM346 784v106h98v-106h-98z" />
    <glyph glyph-name="Zdotaccent.ss01" horiz-adv-x="542" 
d="M30 0v98l376 530v6h-356v88h462v-103l-373 -525v-6h367v-88h-476zM235 784v107h110v-107h-110z" />
    <glyph glyph-name="f_i.ss01" horiz-adv-x="542" 
d="M284 725v-73q-42 7 -62.5 -14.5t-20.5 -58.5v-77h97v-73h-97v-429h-93v429h-83v73h83v73q0 70 37 112t103 42q23 0 36 -4zM380 0v502h94v-502h-94zM376 612v110h101v-110h-101z" />
    <glyph glyph-name="f_l.ss01" horiz-adv-x="537" 
d="M284 725v-73q-42 7 -62.5 -14.5t-20.5 -58.5v-77h102v-73h-102v-429h-93v429h-83v73h83v73q0 70 37 112t103 42q23 0 36 -4zM380 519v-519h92v722h-82z" />
    <glyph glyph-name="f_f_i.ss01" horiz-adv-x="815" 
d="M556 725v-74q-42 7 -62 -14.5t-20 -58.5v-76h97v-73h-97v-429h-93v429h-180v-429h-93v429h-83v73h83v73q0 70 37 112t103 42q23 0 36 -4v-73q-42 7 -62.5 -14.5t-20.5 -58.5v-77h180v73q0 71 35.5 112.5t104.5 41.5q22 0 35 -4zM653 0v502h94v-502h-94zM649 612v110h101
v-110h-101z" />
    <glyph glyph-name="f_f_l.ss01" horiz-adv-x="810" 
d="M556 725v-74q-42 7 -62 -14.5t-20 -58.5v-76h102v-73h-102v-429h-93v429h-180v-429h-93v429h-83v73h83v73q0 70 37 112t103 42q23 0 36 -4v-73q-42 7 -62.5 -14.5t-20.5 -58.5v-77h180v73q0 71 35.5 112.5t104.5 41.5q22 0 35 -4zM653 519v-519h92v722h-82z" />
    <glyph glyph-name="f_f.ss01" horiz-adv-x="590" 
d="M555 725v-74q-42 7 -62 -14.5t-20 -58.5v-76h92v-73h-92v-429h-93v429h-179v-429h-93v429h-83v73h83v73q0 70 37 112t103 42q23 0 36 -4v-73q-42 7 -62.5 -14.5t-20.5 -58.5v-77h179v73q0 71 35.5 112.5t104.5 41.5q22 0 35 -4z" />
    <glyph glyph-name="afii10078.ss01" horiz-adv-x="726" 
d="M65 502h130l167 -399h6l163 399h130v-502h-88l1 385h-6l-172 -399h-65l-173 398h-6l2 -384h-89v502z" />
    <glyph glyph-name="afii10030.ss01" horiz-adv-x="910" 
d="M840 722v-722h-99l1 576h-6l-243 -589h-72l-248 588h-6l1 -575h-98v722h139l247 -588h6l238 588h140z" />
    <glyph glyph-name="afii10103.ss01" horiz-adv-x="224" 
d="M65 0v502h94v-502h-94zM61 612v110h101v-110h-101z" />
    <glyph glyph-name="afii10105.ss01" horiz-adv-x="233" 
d="M0 -193v71q38 0 55 18t17 68v538h94v-535q0 -27 -5 -51.5t-17 -52t-39.5 -44t-66.5 -16.5q-22 0 -38 4zM68 612v110h101v-110h-101z" />
    <glyph glyph-name="afii10023.ss01" horiz-adv-x="538" 
d="M70 0v722h417v-85h-318v-225h304v-84h-303v-240h328v-88h-428zM134 784v106h98v-106h-98zM326 784v106h98v-106h-98z" />
    <glyph glyph-name="afii10056.ss01" horiz-adv-x="240" 
d="M70 0v722h100v-722h-100zM-25 784v106h98v-106h-98zM167 784v106h98v-106h-98z" />
    <glyph glyph-name="afii10071.ss01" horiz-adv-x="533" 
d="M491 238h-358q1 -81 39 -130.5t108 -49.5q46 0 78.5 27t41.5 70h92q-9 -68 -67 -119t-150 -51q-106 0 -170.5 74t-64.5 196q0 109 63 184.5t166 75.5q53 0 94.5 -17.5t67 -46t41 -65.5t19.5 -74t0 -74zM137 306l261 2q0 20 -5.5 42t-19 45t-40 37.5t-62.5 14.5
q-52 0 -89.5 -37t-44.5 -104zM124 597v110h100v-110h-100zM308 597v110h100v-110h-100z" />
    <glyph glyph-name="afii10104.ss01" horiz-adv-x="224" 
d="M65 0v502h94v-502h-94zM-30 597v110h100v-110h-100zM154 597v110h100v-110h-100z" />
    <glyph glyph-name="comma.ss01" horiz-adv-x="280" 
d="M81 15v132h124v-127q-30 -66 -79 -119h-73q52 43 90 99q3 4 0.5 9.5t-8.5 5.5h-54z" />
    <glyph glyph-name="period.ss01" horiz-adv-x="280" 
d="M78 0v132h124v-132h-124z" />
    <glyph glyph-name="ellipsis.ss01" horiz-adv-x="1000" 
d="M107 0v132h122v-132h-122zM439 0v132h122v-132h-122zM771 0v132h122v-132h-122z" />
    <glyph glyph-name="colon.ss01" horiz-adv-x="280" 
d="M78 370v132h124v-132h-124zM78 0v132h124v-132h-124z" />
    <glyph glyph-name="semicolon.ss01" horiz-adv-x="280" 
d="M78 15v132h124v-127q-30 -66 -79 -119h-73q52 43 90 99q3 4 0.5 9.5t-8.5 5.5h-54zM78 370v132h124v-132h-124z" />
    <glyph glyph-name="periodcentered.ss01" horiz-adv-x="280" 
d="M78 280v132h124v-132h-124z" />
    <glyph glyph-name="exclam.ss01" horiz-adv-x="373" 
d="M244 722l-21 -524h-73l-17 524h111zM125 0v129h122v-129h-122z" />
    <glyph glyph-name="exclamdown.ss01" horiz-adv-x="373" 
d="M223 304l21 -524h-111l17 524h73zM125 373v129h122v-129h-122z" />
    <glyph glyph-name="question.ss01" horiz-adv-x="500" 
d="M182 0v129h122v-129h-122zM145 519h-94q-3 55 14.5 97.5t47.5 66.5t66 36t75 12q85 0 143 -52.5t58 -137.5q0 -58 -29.5 -104t-86.5 -91q-62 -50 -57 -130l1 -18h-83l-1 20q-3 64 17.5 104.5t69.5 86.5q38 35 55.5 64t17.5 65q0 53 -30.5 83.5t-75.5 30.5
q-50 0 -82.5 -34t-25.5 -99z" />
    <glyph glyph-name="questiondown.ss01" horiz-adv-x="500" 
d="M318 502v-129h-122v129h122zM355 -17h94q3 -55 -14.5 -97.5t-47.5 -66.5t-66 -36t-75 -12q-85 0 -143 52.5t-58 137.5q0 58 29.5 104t86.5 91q62 50 57 130l-1 18h83l1 -20q3 -64 -17.5 -104.5t-69.5 -86.5q-38 -35 -55.5 -64t-17.5 -65q0 -53 30.5 -83.5t75.5 -30.5
q50 0 82.5 34t25.5 99z" />
    <glyph glyph-name="quoteleft.ss01" horiz-adv-x="275" 
d="M201 611v-126h-119v118q29 63 80 119h71q-59 -48 -91 -96q-3 -4 -0.5 -9.5t8.5 -5.5h51z" />
    <glyph glyph-name="quoteright.ss01" horiz-adv-x="275" 
d="M74 596v126h119v-118q-29 -63 -80 -119h-71q59 48 91 96q3 5 0.5 10t-8.5 5h-51z" />
    <glyph glyph-name="quotedblleft.ss01" horiz-adv-x="460" 
d="M261 596v126h119v-117q-21 -49 -87 -120h-73q73 57 99 96q3 5 0.5 10t-8.5 5h-50zM82 596v126h119v-118q-29 -63 -80 -119h-71q59 48 91 96q3 5 0.5 10t-8.5 5h-51z" />
    <glyph glyph-name="quotedblright.ss01" horiz-adv-x="460" 
d="M169 611v-126h-119v117q21 49 87 120h73q-73 -57 -99 -96q-3 -4 -0.5 -9.5t8.5 -5.5h50zM348 611v-126h-119v118q29 63 80 119h71q-59 -48 -91 -96q-3 -4 -0.5 -9.5t8.5 -5.5h51z" />
    <glyph glyph-name="quotesinglbase.ss01" horiz-adv-x="275" 
d="M74 15v126h119v-118q-29 -63 -80 -119h-71q59 48 91 96q3 4 0.5 9.5t-8.5 5.5h-51z" />
    <glyph glyph-name="quotedblbase.ss01" horiz-adv-x="460" 
d="M261 15v126h119v-117q-21 -49 -87 -120h-73q73 57 99 96q3 4 0.5 9.5t-8.5 5.5h-50zM82 15v126h119v-118q-29 -63 -80 -119h-71q59 48 91 96q3 4 0.5 9.5t-8.5 5.5h-51z" />
    <glyph glyph-name="divide.ss01" horiz-adv-x="570" 
d="M540 212h-510v78h510v-78zM226 373v129h120v-129h-120zM226 0v129h120v-129h-120z" />
    <glyph glyph-name="because.ss01" horiz-adv-x="1000" 
d="M107 590v132h122v-132h-122zM439 0v132h122v-132h-122zM771 590v132h122v-132h-122z" />
    <glyph glyph-name="therefore.ss01" horiz-adv-x="1000" 
d="M107 0v132h122v-132h-122zM439 590v132h122v-132h-122zM771 0v132h122v-132h-122z" />
    <glyph glyph-name="commaaccent.ss01" horiz-adv-x="280" 
d="M92 -164v102h106v-90q-22 -55 -56 -94h-63q35 27 64 68q3 4 1 9t-8 5h-44z" />
    <glyph glyph-name="caron.salt..ss01" horiz-adv-x="280" 
d="M88 604v118h112v-106q-24 -57 -62 -103h-65q46 39 71 76q4 5 1.5 10t-9.5 5h-48z" />
    <glyph glyph-name="trademark.ss01" horiz-adv-x="800" 
d="M187 361h-57v307h-105v54h266v-54h-104v-307zM525 435l-107 287h-86v-361h56l-2 290h6l112 -301h44l113 301h6l-2 -290h55v361h-84l-105 -287h-6z" />
    <glyph glyph-name="dieresis.ss01" horiz-adv-x="384" 
d="M50 597v110h100v-110h-100zM234 597v110h100v-110h-100z" />
    <glyph glyph-name="dieresis.case.ss01" horiz-adv-x="390" 
d="M50 784v106h98v-106h-98zM242 784v106h98v-106h-98z" />
    <glyph glyph-name="dotaccent.ss01" horiz-adv-x="201" 
d="M50 597v110h101v-110h-101z" />
    <glyph glyph-name="dotaccent.case.ss01" horiz-adv-x="198" 
d="M44 784v107h110v-107h-110z" />
    <glyph glyph-name="interrobang.ss01" horiz-adv-x="500" 
d="M184 0v129h122v-129h-122zM132 519h-88q-3 56 15 98.5t49 66t67 35.5t76 12q87 0 145.5 -51.5t58.5 -137.5q0 -57 -28.5 -102.5t-84.5 -90.5q-65 -53 -60 -133l1 -18h-70l-14 448q-74 -29 -67 -127zM363 537q0 41 -18.5 69t-49.5 40l-9 -244h3q74 68 74 135z" />
    <glyph glyph-name="interfinity.ss01" horiz-adv-x="500" 
d="M251 731q83 0 140.5 -40.5t57.5 -110.5q0 -50 -32 -84.5t-89 -67.5q77 -55 77 -123q0 -53 -45 -83.5t-110 -30.5t-111 31t-46 83q0 68 77 121q-56 32 -87.5 67.5t-31.5 85.5q0 69 58 110.5t142 41.5zM253 657q-47 0 -76.5 -22t-29.5 -56q0 -18 7 -32t25.5 -28t30.5 -21.5
t41 -23.5q37 20 54 31t33.5 31t16.5 43q0 35 -27 56.5t-75 21.5zM191 0v129h122v-129h-122zM314 310q0 23 -18 39.5t-49 34.5q-66 -40 -66 -74q0 -21 18 -35.5t49 -14.5t48.5 14.5t17.5 35.5z" />
    <glyph glyph-name="one.ss02" horiz-adv-x="510" 
d="M83 81h159v518h-6q-32 -61 -92.5 -162.5t-98.5 -147.5v132q33 41 88.5 132t79.5 139h121v-611h151v-81h-402v81z" />
    <glyph glyph-name="one.numr..ss02" 
d="M58 326h104v304h-4q-13 -28 -52.5 -93.5t-63.5 -91.5v79q20 25 53.5 82t46.5 87h81v-367h102v-49h-267v49z" />
    <glyph glyph-name="one.dnom..ss02" 
d="M58 49h104v304h-4q-13 -28 -52.5 -93.5t-63.5 -91.5v79q20 25 53.5 82t46.5 87h81v-367h102v-49h-267v49z" />
    <glyph glyph-name="one.sups..ss02" 
d="M58 506h104v304h-4q-13 -28 -52.5 -93.5t-63.5 -91.5v79q20 25 53.5 82t46.5 87h81v-367h102v-49h-267v49z" />
    <glyph glyph-name="one.sinf..ss02" 
d="M58 -131h104v304h-4q-13 -28 -52.5 -93.5t-63.5 -91.5v79q20 25 53.5 82t46.5 87h81v-367h102v-49h-267v49z" />
    <glyph glyph-name="onehalf.ss02" horiz-adv-x="835" 
d="M184 0l416 722h61l-416 -722h-61zM758 0h-267q-2 25 0 43q10 96 99 142q38 21 67 40q43 31 43 79q0 28 -19.5 48.5t-51.5 20.5q-42 0 -58.5 -27t-12.5 -62h-61q-5 60 31 99.5t102 39.5q61 0 97.5 -35t36.5 -86q0 -73 -68 -119q-31 -21 -76 -45q-16 -9 -24.5 -14
t-22 -16.5t-19 -26t-4.5 -32.5h208v-49zM47 326h104v304h-4q-13 -28 -52.5 -93.5t-63.5 -91.5v79q20 25 53.5 82t46.5 87h81v-367h102v-49h-267v49z" />
    <glyph glyph-name="onequarter.ss02" horiz-adv-x="835" 
d="M197 0l416 722h61l-416 -722h-61zM642 0v97h-190v65q78 109 170 256h83v-274h54v-48h-54v-96h-63zM503 144h142v216h-4l-138 -213v-3zM47 326h104v304h-4q-13 -28 -52.5 -93.5t-63.5 -91.5v79q20 25 53.5 82t46.5 87h81v-367h102v-49h-267v49z" />
    <glyph glyph-name="ampersand.ss03" horiz-adv-x="822" 
d="M303 452l222 -219q6 20 4.5 66t-10.5 83h247v-95l-153 21q2 -80 -23 -137l177 -171h-126l-93 96q-85 -112 -224 -112q-109 0 -172 62t-63 154q0 69 40.5 125t101.5 86q-87 74 -87 161q0 70 53 116.5t139 46.5t138 -53t55 -131h-98q0 49 -27 80.5t-71 31.5
q-42 0 -69.5 -24t-27.5 -66q0 -32 16 -59t51 -62zM485 151l-202 198q-48 -20 -74.5 -60t-26.5 -85q0 -65 43.5 -103t102.5 -38q98 0 157 88z" />
    </font>
</defs>
</svg>
