<svg width="529" height="193" viewBox="0 0 529 193" fill="none" xmlns="http://www.w3.org/2000/svg">
<g clip-path="url(#clip0_1_48)">
<path d="M0 141.829H10.9474V183.429H22.6637V191.958H0V141.824V141.829Z" fill="#FEC32E"/>
<path d="M42.521 140.791C53.052 140.791 60.8597 150.985 60.8597 167.209C60.8597 180.799 54.2374 193 42.4524 193C30.6675 193 24.1138 181.422 24.1138 166.927C24.1138 150.493 32.0586 140.786 42.521 140.786V140.791ZM42.521 185.445C48.1 185.445 49.6331 176.849 49.6331 167.068C49.6331 156.596 47.958 148.068 42.521 148.068C36.8049 148.068 35.3403 157.01 35.3403 166.995C35.3403 177.949 37.1526 185.44 42.521 185.44V185.445Z" fill="#FEC32E"/>
<path d="M87.7501 157.571C87.6816 153.134 86.6334 149.32 83.7728 149.32C79.3106 149.32 77.6355 157.294 77.6355 167.488C77.6355 176.503 79.1735 185.168 83.7728 185.168C86.844 185.168 87.8873 181.009 87.9559 176.708H99.7408C98.2028 186.625 91.3013 193.005 83.7728 193.005C70.8026 193.005 65.7134 178.997 65.7134 167.629C65.7134 155.146 71.2924 141.488 83.7728 141.488C91.3062 141.488 98.0705 147.801 99.393 157.576H87.7501V157.571Z" fill="#FEC32E"/>
<path d="M123.218 182.114H113.319L111.644 191.958H101.465L111.786 141.824H124.545L135.424 191.958H124.825L123.223 182.114H123.218ZM118.614 154.795H118.055L114.568 174.068H121.959L118.614 154.795Z" fill="#FEC32E"/>
<path d="M140.283 141.829H151.231V183.429H162.947V191.958H140.288V141.824L140.283 141.829Z" fill="#FEC32E"/>
<path d="M184.18 141.829H207.402V150.012H194.785V161.935H206.428V170.118H194.785V183.639H207.892V191.958H184.185V141.824L184.18 141.829Z" fill="#FEC32E"/>
<path d="M233.74 191.963H221.117L210.312 141.829H221.676L227.745 178.164H228.161L233.877 141.829H243.918L233.74 191.963Z" fill="#FEC32E"/>
<path d="M248.782 141.829H272.004V150.012H259.386V161.935H271.029V170.118H259.386V183.639H272.494V191.958H248.787V141.824L248.782 141.829Z" fill="#FEC32E"/>
<path d="M278.396 141.829H292.62C300.217 141.829 308.588 146.617 308.588 155.628C308.588 162.149 304.822 166.236 299.732 168.666L310.469 191.963H298.616L289.76 170.469H289.201L289.27 191.963H278.391V141.829H278.396ZM289.206 164.224L291.719 164.156C295.064 164.088 297.367 161.244 297.367 156.806C297.367 152.369 294.785 149.734 291.788 149.666L289.206 149.598V164.229V164.224Z" fill="#FEC32E"/>
<path d="M333.53 172.339C332.692 172.407 332.207 173.031 332.207 173.868V191.963H321.397V173.868C321.397 173.035 320.839 172.412 320.006 172.339L309.823 141.829H321.255L327.25 165.822H327.672L333.878 141.829H344.124L333.525 172.339H333.53Z" fill="#FEC32E"/>
<path d="M356.59 141.829L359.029 174.905H359.588L365.235 141.692H374.929L380.365 174.555H380.924L383.574 141.829H392.43L386.366 191.962H375.208L370.329 160.415H369.771L364.471 191.962H353.176L346.759 141.829H356.595H356.59Z" fill="#FEC32E"/>
<path d="M409.343 141.829V161.867H419.105V141.829H430.052V191.963H419.105V169.986H409.343V191.963H398.675V141.829H409.343Z" fill="#FEC32E"/>
<path d="M438.399 141.829H461.616V150.012H448.994V161.935H460.641V170.118H448.994V183.639H462.106V191.958H438.399V141.824V141.829Z" fill="#FEC32E"/>
<path d="M468.013 141.829H482.237C489.834 141.829 498.205 146.617 498.205 155.628C498.205 162.149 494.439 166.236 489.35 168.666L500.086 191.963H488.233L479.377 170.469H478.818L478.887 191.963H468.013V141.829ZM478.818 164.224L481.331 164.156C484.677 164.088 486.979 161.244 486.979 156.806C486.979 152.369 484.397 149.734 481.4 149.666L478.818 149.598V164.229V164.224Z" fill="#FEC32E"/>
<path d="M505.293 141.829H528.51V150.012H515.888V161.935H527.535V170.118H515.888V183.639H529V191.958H505.293V141.824V141.829Z" fill="#FEC32E"/>
<path d="M265.088 0.043836C264.892 0.0389653 264.696 0 264.5 0C264.304 0 264.108 0.0389653 263.912 0.043836C238.589 0.360429 218.08 20.9195 218.08 46.1739C218.08 71.4283 238.902 92.3331 264.5 92.3331C290.098 92.3331 310.92 71.628 310.92 46.1739C310.92 20.7198 290.411 0.3653 265.088 0.043836ZM223.321 48.7164H235.757C235.939 54.1715 236.649 59.3588 237.869 64.1125H227.391C225.08 59.4075 223.659 54.2105 223.316 48.7164H223.321ZM267.057 23.1551V5.33337C274.149 6.6582 280.316 13.4138 284.132 23.1551H267.057ZM285.797 28.2401C287.119 32.9452 287.937 38.1422 288.128 43.6363H267.052V28.2401H285.792H285.797ZM261.943 5.33337V23.1551H244.868C248.684 13.4138 254.85 6.65332 261.943 5.33337ZM261.943 28.2401V43.6363H240.866C241.062 38.1422 241.875 32.9452 243.198 28.2401H261.938H261.943ZM235.757 43.6363H223.321C223.659 38.1422 225.084 32.9452 227.396 28.2401H237.864C236.644 32.9939 235.934 38.1811 235.757 43.6363ZM240.866 48.7164H261.943V64.1125H243.212C241.885 59.4075 241.067 54.2105 240.871 48.7164H240.866ZM261.943 69.1975V86.9852C254.86 85.6603 248.703 78.9193 244.888 69.1975H261.943ZM267.057 86.99V69.2024H284.112C280.296 78.9242 274.139 85.6701 267.057 86.99ZM267.057 64.1125V48.7164H288.133C287.937 54.2105 287.119 59.4075 285.792 64.1125H267.062H267.057ZM293.242 48.7164H305.679C305.341 54.2105 303.915 59.4075 301.603 64.1125H291.126C292.346 59.3588 293.061 54.1715 293.237 48.7164H293.242ZM293.242 43.6363C293.066 38.1811 292.356 32.9939 291.136 28.2401H301.603C303.91 32.9452 305.336 38.1422 305.679 43.6363H293.242ZM298.689 23.1551H289.578C287.585 17.4954 284.861 12.6296 281.604 8.83051C288.53 11.9818 294.452 16.945 298.694 23.1551H298.689ZM247.4 8.83051C244.143 12.6296 241.42 17.4954 239.426 23.1551H230.316C234.557 16.945 240.479 11.9818 247.405 8.83051H247.4ZM230.311 69.1975H239.436C241.439 74.8718 244.173 79.7425 247.444 83.5416C240.499 80.3952 234.562 75.4173 230.311 69.1975ZM281.555 83.5416C284.827 79.7425 287.56 74.8718 289.564 69.1975H298.689C294.437 75.4173 288.501 80.3952 281.555 83.5416Z" fill="#FEC32E"/>
</g>
<defs>
<clipPath id="clip0_1_48">
<rect width="529" height="193" fill="white"/>
</clipPath>
</defs>
</svg>
