<svg width="870" height="721" viewBox="0 0 870 721" fill="none" xmlns="http://www.w3.org/2000/svg">
<g clip-path="url(#clip0_1_101)">
<path d="M822.904 705.007V687.308H813.341V684.215H837.51V687.308H827.9V705.007H822.952H822.904ZM840.793 705.007V684.215H848.025L855.495 700.82L862.679 684.215H869.816V705.007H865.296V687.546L857.683 705.007H853.211L845.265 687.308V705.007H840.746H840.793Z" fill="white"/>
<path d="M0 1.90314H101.198L130.363 214.576H131.79L159.052 1.90314H264.485V331.284H198.589V74.364H196.686L157.673 331.284H95.0603L55.999 74.364H54.0959V331.284H0V1.90314Z" fill="white"/>
<path d="M334.567 0H417.4L483.295 331.284H415.544L402.841 262.106H340.276L328.049 331.284H269.718L334.567 0ZM393.42 208.01L372.248 89.8743H369.917L350.125 208.01H393.42Z" fill="white"/>
<path d="M488.433 1.90314H586.3C638.065 1.90314 664.423 27.7854 664.423 81.8813V250.354C664.423 305.401 638.54 331.284 586.776 331.284H488.433V1.90314ZM575.024 274.381C594.293 274.381 599.003 265.436 599.003 248.974V84.2602C599.003 70.6054 595.245 58.8537 575.024 58.8537H553.852V274.381H575.024Z" fill="white"/>
<path d="M679.98 1.90314H828.661V58.8537H745.4V132.266H812.199V190.121H745.4V274.381H828.661V331.284H679.98V1.90314Z" fill="white"/>
<path d="M39.299 635.02V470.781C39.299 409.596 78.8361 379.956 128.222 379.956C177.607 379.956 212.434 411.975 212.434 467.023V504.657H149.87V468.403C149.87 455.223 144.684 440.617 127.27 440.617C109.857 440.617 104.671 454.272 104.671 468.878V633.592C104.671 644.44 106.574 661.378 126.319 661.378C141.401 661.378 149.87 650.102 149.87 636.447V588.441H121.608V539.484H212.434V714.998H181.366L171.47 694.777C155.008 718.328 128.65 720.66 112.664 720.66C62.8024 720.66 39.2515 690.543 39.2515 635.02" fill="white"/>
<path d="M227.517 633.592V466.547C227.517 414.782 262.819 379.956 315.964 379.956C369.108 379.956 403.507 414.782 403.507 468.878V634.068C403.507 684.881 368.204 720.66 315.012 720.66C254.779 720.66 227.469 686.784 227.469 633.592M338.135 633.117V467.451C338.135 453.32 331.094 440.617 315.06 440.617C299.026 440.617 292.936 453.32 292.936 467.451V633.117C292.936 647.723 298.598 659.95 315.06 659.95C331.522 659.95 338.135 648.199 338.135 633.117Z" fill="white"/>
<path d="M417.637 633.592V466.547C417.637 414.782 452.94 379.956 506.084 379.956C559.228 379.956 593.627 414.782 593.627 468.878V634.068C593.627 684.881 558.324 720.66 505.132 720.66C444.899 720.66 417.589 686.784 417.589 633.592M528.208 633.117V467.451C528.208 453.32 521.166 440.617 505.132 440.617C489.099 440.617 483.009 453.32 483.009 467.451V633.117C483.009 647.723 488.67 659.95 505.132 659.95C521.594 659.95 528.208 648.199 528.208 633.117Z" fill="white"/>
<path d="M609.138 385.617H707.005C758.77 385.617 785.128 411.5 785.128 465.596V634.068C785.128 689.116 759.245 714.998 707.481 714.998H609.138V385.57V385.617ZM695.729 658.047C714.998 658.047 719.708 649.103 719.708 632.641V467.927C719.708 454.272 715.95 442.52 695.729 442.52H674.557V658.047H695.729Z" fill="white"/>
</g>
<defs>
<clipPath id="clip0_1_101">
<rect width="869.863" height="720.66" fill="white"/>
</clipPath>
</defs>
</svg>
