<svg width="93" height="93" viewBox="0 0 93 93" fill="none" xmlns="http://www.w3.org/2000/svg">
<path d="M47.0075 0.043836C46.8116 0.0389653 46.6157 0 46.4197 0C46.2238 0 46.0279 0.0389653 45.832 0.043836C20.5085 0.360429 0 20.9195 0 46.1739C0 71.4283 20.822 92.3331 46.4197 92.3331C72.0175 92.3331 92.8395 71.628 92.8395 46.1739C92.8395 20.7198 72.331 0.3653 47.0075 0.043836ZM5.24101 48.7164H17.6774C17.8586 54.1715 18.5689 59.3588 19.7885 64.1125H9.31137C6.99944 59.4075 5.57899 54.2105 5.23612 48.7164H5.24101ZM48.9766 23.1551V5.33337C56.0691 6.6582 62.2359 13.4138 66.0515 23.1551H48.9766ZM67.7169 28.2401C69.0394 32.9452 69.8574 38.1422 70.0484 43.6363H48.9717V28.2401H67.712H67.7169ZM43.8629 5.33337V23.1551H26.788C30.6036 13.4138 36.7704 6.65332 43.8629 5.33337ZM43.8629 28.2401V43.6363H22.7862C22.9821 38.1422 23.7952 32.9452 25.1177 28.2401H43.858H43.8629ZM17.6774 43.6363H5.24101C5.57898 38.1422 7.00435 32.9452 9.31627 28.2401H19.7836C18.564 32.9939 17.8538 38.1811 17.6774 43.6363ZM22.7862 48.7164H43.8629V64.1125H25.1324C23.805 59.4075 22.987 54.2105 22.7911 48.7164H22.7862ZM43.8629 69.1975V86.9852C36.7802 85.6603 30.6232 78.9193 26.8076 69.1975H43.8629ZM48.9766 86.99V69.2024H66.0319C62.2163 78.9242 56.0593 85.6701 48.9766 86.99ZM48.9766 64.1125V48.7164H70.0533C69.8574 54.2105 69.0394 59.4075 67.712 64.1125H48.9815H48.9766ZM75.1621 48.7164H87.5985C87.2605 54.2105 85.8352 59.4075 83.5232 64.1125H73.0461C74.2657 59.3588 74.9808 54.1715 75.1572 48.7164H75.1621ZM75.1621 43.6363C74.9857 38.1811 74.2755 32.9939 73.0559 28.2401H83.5232C85.8303 32.9452 87.2556 38.1422 87.5985 43.6363H75.1621ZM80.6088 23.1551H71.4983C69.5047 17.4954 66.7813 12.6296 63.5241 8.83051C70.4501 11.9818 76.3719 16.945 80.6137 23.1551H80.6088ZM29.3203 8.83051C26.063 12.6296 23.3397 17.4954 21.3461 23.1551H12.2356C16.4774 16.945 22.3992 11.9818 29.3252 8.83051H29.3203ZM12.2307 69.1975H21.3559C23.3593 74.8718 26.0924 79.7425 29.3644 83.5416C22.4188 80.3951 16.4823 75.4173 12.2307 69.1975ZM63.4751 83.5416C66.7471 79.7425 69.4802 74.8718 71.4836 69.1975H80.6088C76.3572 75.4173 70.4207 80.3951 63.4751 83.5416Z" fill="#FEC32E"/>
</svg>
