<svg xmlns="http://www.w3.org/2000/svg" viewBox="0 0 685.01 685.01"><defs><style>.cls-1{fill:#ED2B30;}</style></defs><g id="Layer_2" data-name="Layer 2"><g id="Layer_1-2" data-name="Layer 1"><path class="cls-1" d="M176.07,49.76l9.46,20.3L182,72.16l-7.42-9.92,5.12,11.29-3.54,2.1-13.27-18L160,52.68l2.44-1.45,2.92,4.92L174.8,69l-7.45-16,2.45-1.46L180.33,65.7,173.6,51.23l-2.92-4.92,2.47-1.47Z"/><path class="cls-1" d="M176.79,42.8l2.51-1.34,5.83,11,3-1.59-5.83-11,2.51-1.33,13.13,24.73-2.51,1.33-6-11.23-3,1.59,6,11.23-2.51,1.34Z"/><path class="cls-1" d="M190.14,35.81l4.54-2.19,2.67.93,10.44,21.61-1,2.69L202.28,61l-2.67-.93L189.18,38.5Zm11.51,22,.46.13,2.42-1.17.18-.44-9.39-19.45-.47-.14-2.41,1.17-.18.45Z"/><path class="cls-1" d="M220.56,28.58,226.94,50l-3.81,1.56-5.9-10.89,3.42,11.91-3.82,1.56L206.35,34.4l-2.17-5.29L206.81,28l2.17,5.3,7.5,14.08-5-17,2.63-1.08L222.44,45l-4.55-15.3-2.16-5.29,2.66-1.1Z"/><path class="cls-1" d="M231.65,48.19,222.27,21.8l8.26-2.93,1,2.72-5.57,2,3.2,9,2.86-1,1,2.67-2.86,1,3.29,9.27,5.58-2,1,2.72Z"/><path class="cls-1" d="M251.28,37.45l-3.26,1,1.14,3.8L246.4,43l-1.54-5.13-4.3-22.35,4.4-1.31,8.64,21,1.54,5.14-2.72.81Zm-6.92-17.14,3,15.35,2.95-.89Z"/><path class="cls-1" d="M250.94,12.48l6.86-1.77,2.47,1.43,2.61,10.11-.56,1.05,1,.69,3.43,13.33L264,38,260.8,25.72l-.56-.4-2.87.74,3.31,12.82-2.75.71Zm8.88,9.44-2-7.9-.43-.22-2.94.76,2.25,8.71,2.86-.74Z"/><path class="cls-1" d="M269.55,36.6l-6-27.36,8.56-1.87.62,2.82L267,11.45l2,9.34,3-.65.6,2.78-3,.64,2.09,9.62,5.79-1.26.61,2.81Z"/><path class="cls-1" d="M300.73,8.38l.92,22.37-4.08.58-3-12,.39,12.39-4.08.58-5.32-21.75-.81-5.66,2.82-.4.8,5.66,3.82,15.5L291.46,8l2.81-.4,4.26,17.17-.65-15.95-.81-5.66,2.85-.41Z"/><path class="cls-1" d="M304.06,2.23,306.89,2l1.16,12.39,3.39-.32L310.27,1.64l2.83-.26,2.62,27.87-2.83.27L311.7,16.86l-3.38.31,1.19,12.67-2.83.26Z"/><path class="cls-1" d="M319.08.91l5-.28,2.11,1.88,1.34,24-1.92,2.11-5,.28L318.5,27,317.16,3Zm2.18,24.72.38.3,2.68-.15.34-.34L323.45,3.87l-.37-.3-2.68.15-.34.34Z"/><path class="cls-1" d="M350.1,6l-2.6,22.24-4.12-.07L342.26,15.8,340.7,28.1,336.58,28,334.74,5.72,334.83,0l2.84.05-.09,5.72,1.34,15.9L341,4.1l2.84.05,1.51,17.62,1.86-15.85L347.31.2l2.88,0Z"/><path class="cls-1" d="M352.66,28.25l1.4-28,8.75.45-.14,2.87-5.91-.3-.48,9.55,3,.15-.14,2.84-3-.15-.49,9.83,5.91.29-.15,2.88Z"/><path class="cls-1" d="M374.92,25.81l-3.38-.34-.39,3.94-2.87-.28.54-5.34,4.53-22.3,4.58.47,0,22.75L377.35,30l-2.82-.29Zm.14-18.48L372,22.66l3.06.31Z"/><path class="cls-1" d="M384.09,2.59l7,1,1.75,2.26L391.4,16.17l-.91.76.67,1-1.9,13.63-2.86-.39,1.76-12.6L387.8,18l-2.94-.41L383,30.72l-2.82-.4ZM388.7,14.7l1.13-8.08-.31-.36-3-.42-1.24,8.91,2.93.41Z"/><path class="cls-1" d="M392.12,32,397,4.41,405.66,6l-.51,2.83-5.83-1-1.67,9.41,3,.53-.5,2.8-3-.53-1.73,9.68,5.83,1-.5,2.84Z"/><path class="cls-1" d="M431.7,17.76,424,38.8l-4-1,1.76-12.27-4.36,11.61-4-1L416.81,14l1.42-5.55,2.75.7-1.41,5.55L417.2,30.45l6.09-16.61,2.75.7L423.44,32l5.47-15,1.41-5.55,2.79.71Z"/><path class="cls-1" d="M437.15,13.34l2.72.84-3.65,11.89,3.25,1,3.65-11.9,2.71.84-8.21,26.77-2.71-.84,3.73-12.16-3.26-1L431.66,41l-2.72-.84Z"/><path class="cls-1" d="M451.54,17.86l4.76,1.66,1.23,2.54-7.91,22.66L447,45.94l-4.76-1.66-1.23-2.55L449,19.07Zm-7.41,23.67.23.43,2.53.88.45-.19,7.12-20.39-.24-.42L451.69,21l-.44.18Z"/><path class="cls-1" d="M478.13,34.25,467.46,53.93l-3.81-1.59,3.55-11.88-6,10.84-3.8-1.59L464,28.31,466.17,23l2.62,1.1-2.21,5.28-4.66,15.26,8.46-15.53L473,30.23l-5.14,16.93,7.61-14,2.21-5.27L480.34,29Z"/><path class="cls-1" d="M472.11,56l12-25.28,7.91,3.76L490.82,37l-5.34-2.54-4.11,8.63,2.74,1.31L482.89,47l-2.74-1.3-4.23,8.88,5.34,2.54L480,59.73Z"/><path class="cls-1" d="M493.58,62.25l-3-1.61-1.88,3.48-2.53-1.37L488.72,58,501.48,39.2l4,2.18-8.78,21-2.55,4.72-2.5-1.35Zm7.23-17-8.73,13,2.71,1.47Z"/><path class="cls-1" d="M511,44.34l6.09,3.6.75,2.76-5.31,9-1.14.35.23,1.2-7,11.85-2.48-1.46,6.47-10.95-.12-.68-2.55-1.5L499.2,69.9l-2.44-1.44Zm-.4,13,4.15-7-.15-.46L512,48.27,507.4,56l2.55,1.5Z"/><path class="cls-1" d="M507.12,74.57,522.25,51l7.37,4.73-1.56,2.43-5-3.2-5.16,8,2.55,1.64L518.94,67l-2.56-1.64-5.32,8.28,5,3.2-1.56,2.42Z"/><path class="cls-1" d="M549.11,76.63,534,93.12l-3.3-2.47L537,80l-8.47,9-3.3-2.47,11.6-19.15,3.43-4.58,2.27,1.71-3.43,4.57-8.24,13.67,12-13,2.28,1.7L536,86.65l10.81-11.74,3.43-4.58,2.3,1.73Z"/><path class="cls-1" d="M555.81,74.63,558,76.44,550.07,86l2.63,2.16,7.92-9.58,2.19,1.81L545,102l-2.19-1.81,8.11-9.81-2.62-2.16L540.16,98,538,96.21Z"/><path class="cls-1" d="M567.39,84.32l3.76,3.36.16,2.82-16,17.91-2.86.13-3.76-3.35-.16-2.83,16-17.9Zm-15.92,19,.06.48,2,1.78H554l14.38-16.11,0-.48-2-1.78h-.48Z"/><path class="cls-1" d="M585.68,109.63,568.3,123.74l-2.91-2.92,7.81-9.62-9.7,7.72L560.6,116l14.26-17.27,4.06-4,2,2-4.06,4-10.14,12.32L580.48,102l2,2-11.22,13.68,12.39-10,4.06-4,2,2Z"/><path class="cls-1" d="M571.81,127.38l20.77-18.77,5.88,6.5L596.32,117l-4-4.39-7.09,6.41,2,2.25-2.11,1.91-2-2.26-7.3,6.6,4,4.39-2.13,1.93Z"/><path class="cls-1" d="M589.26,141.39l-2.15-2.63-3.07,2.5L582.22,139l4.15-3.39,19-12.55,2.91,3.56-16.12,16.06L588,146.1l-1.8-2.2Zm13.16-13-13,8.67,2,2.38Z"/><path class="cls-1" d="M612.18,131.48l4.27,5.65-.37,2.83-8.33,6.29-1.18-.1-.25,1.19-11,8.29-1.73-2.3,10.15-7.66.15-.67-1.78-2.36-10.57,8-1.71-2.27Zm-5.3,11.83,6.51-4.92,0-.48-1.83-2.43-7.19,5.43,1.79,2.36Z"/><path class="cls-1" d="M597.09,158l23-16,5,7.19-2.36,1.65-3.39-4.86-7.84,5.47,1.74,2.5-2.33,1.62L609.14,153l-8.07,5.63,3.39,4.85-2.36,1.65Z"/><path class="cls-1" d="M635.13,175.85l-20.29,9.47-2.11-3.54,9.91-7.43-11.28,5.13-2.11-3.54,18-13.29,4.92-2.92,1.45,2.44-4.91,2.92-12.83,9.5,16-7.46,1.45,2.45-14.2,10.54,14.47-6.74,4.91-2.93,1.47,2.48Z"/><path class="cls-1" d="M642.09,176.56l1.33,2.51-11,5.84,1.6,3,11-5.84,1.33,2.51-24.72,13.15-1.33-2.51,11.23-6-1.6-3-11.23,6-1.33-2.51Z"/><path class="cls-1" d="M649.08,189.91l2.2,4.54-.93,2.67-21.6,10.45-2.69-1-2.2-4.54.93-2.67,21.6-10.46Zm-22,11.52-.13.46,1.16,2.42.45.18L648,195.08l.13-.46L647,192.21l-.45-.19Z"/><path class="cls-1" d="M656.34,220.32l-21.46,6.39-1.57-3.81,10.9-5.9-11.91,3.42-1.57-3.81,19.77-10.5,5.29-2.17,1.08,2.62-5.29,2.18-14.08,7.51,17-5,1.07,2.63L640,222.21l15.3-4.56,5.29-2.17,1.09,2.66Z"/><path class="cls-1" d="M636.74,231.42,663.12,222l2.93,8.25-2.71,1-2-5.58-9,3.21,1,2.86-2.68.95-1-2.86-9.27,3.3,2,5.58-2.71,1Z"/><path class="cls-1" d="M647.49,251l-1-3.25-3.79,1.13-.83-2.75,5.14-1.54,22.34-4.33,1.32,4.41-21,8.65-5.14,1.54-.81-2.72Zm17.13-6.93-15.34,3,.88,2.95Z"/><path class="cls-1" d="M672.46,250.69l1.78,6.85L672.81,260l-10.11,2.61-1.05-.56-.69,1-13.32,3.44-.72-2.79,12.31-3.18.39-.56-.74-2.86-12.81,3.31-.72-2.75ZM663,259.57l7.9-2,.22-.43-.76-2.94-8.72,2.25.74,2.86Z"/><path class="cls-1" d="M648.37,269.34l27.35-6,1.87,8.55-2.81.62-1.27-5.79-9.34,2,.65,3-2.77.61-.65-3-9.61,2.1,1.26,5.78-2.82.62Z"/><path class="cls-1" d="M676.6,300.46l-22.37.94-.59-4.08,12-3.05-12.39.4-.58-4.08,21.74-5.33,5.67-.81.4,2.81-5.66.81-15.5,3.83,17.68-.71.4,2.81-17.16,4.28,15.94-.67,5.66-.81.41,2.85Z"/><path class="cls-1" d="M682.75,303.79l.27,2.83-12.38,1.17.32,3.38L683.34,310l.27,2.83-27.88,2.64-.26-2.83,12.66-1.2-.32-3.38-12.66,1.2-.27-2.83Z"/><path class="cls-1" d="M684.08,318.84l.29,5L682.48,326l-24,1.36-2.11-1.93-.28-5,1.88-2.11,24-1.35ZM659.37,321l-.3.38.15,2.67.34.35,21.57-1.22.3-.38-.16-2.68-.34-.34Z"/><path class="cls-1" d="M679,349.86l-22.24-2.6.07-4.12L669.21,342l-12.3-1.56.07-4.12,22.31-1.84,5.72.09,0,2.84-5.71-.09-15.91,1.34,17.57,2.09,0,2.84-17.62,1.51L679.09,347l5.72.09,0,2.88Z"/><path class="cls-1" d="M656.77,352.43l28,1.39-.43,8.75-2.88-.14.3-5.91-9.55-.48-.15,3-2.84-.14.15-3-9.83-.49-.29,5.92-2.88-.15Z"/><path class="cls-1" d="M659.22,374.67l.34-3.38-3.94-.39.29-2.87,5.33.53,22.3,4.52-.46,4.58-22.75,0L655,377.1l.28-2.82Zm18.48.12-15.33-3.06-.31,3.06Z"/><path class="cls-1" d="M682.45,383.85l-1,7-2.26,1.74-10.34-1.43-.76-.92-1,.67L653.46,389l.4-2.85,12.59,1.75.58-.37.41-2.93-13.12-1.82.39-2.81Zm-12.11,4.62,8.08,1.12.37-.31.41-3L670.29,385l-.41,2.94Z"/><path class="cls-1" d="M653.06,391.91l27.57,4.89-1.53,8.62-2.83-.5,1-5.83-9.41-1.67-.53,3-2.8-.5.53-3-9.69-1.72-1,5.83-2.84-.51Z"/><path class="cls-1" d="M667.32,431.45l-21-7.65,1-4,12.27,1.75L648,417.21l1-4,22.14,3.35,5.54,1.41-.69,2.75-5.55-1.41L654.62,417,671.23,423l-.7,2.75L653,423.2l15,5.46,5.55,1.4-.71,2.79Z"/><path class="cls-1" d="M671.74,436.9l-.83,2.71L659,436l-1,3.26,11.9,3.63-.84,2.72-26.77-8.19.83-2.71,12.16,3.72,1-3.26-12.17-3.72.83-2.71Z"/><path class="cls-1" d="M667.24,451.29l-1.66,4.76L663,457.28l-22.66-7.89-1.22-2.58,1.66-4.76,2.54-1.23L666,448.71Zm-23.69-7.4-.42.24-.88,2.53.19.44,20.39,7.11.42-.24.89-2.53L664,451Z"/><path class="cls-1" d="M650.87,477.89l-19.69-10.66,1.59-3.8L644.64,467l-10.84-6,1.59-3.8,21.4,6.56,5.28,2.21-1.1,2.62-5.27-2.21-15.27-4.65L656,470.14l-1.09,2.62L638,467.64l14,7.6,5.28,2.2-1.11,2.66Z"/><path class="cls-1" d="M629.15,471.89l25.29,12-3.76,7.91-2.6-1.23,2.54-5.35-8.64-4.1-1.3,2.74-2.57-1.22,1.31-2.74-8.89-4.22L628,481l-2.6-1.23Z"/><path class="cls-1" d="M622.87,493.37l1.62-3L621,488.5l1.36-2.54,4.72,2.55,18.86,12.74-2.19,4.05-21-8.76L618,494l1.35-2.5Zm17,7.21-13-8.71-1.46,2.71Z"/><path class="cls-1" d="M640.79,510.76l-3.59,6.1-2.76.74-9-5.29-.36-1.14-1.19.22-11.86-7,1.46-2.48,11,6.45.67-.11,1.5-2.55L615.23,499l1.44-2.45Zm-12.95-.39,7,4.14.46-.14,1.54-2.62-7.75-4.57-1.51,2.55Z"/><path class="cls-1" d="M610.56,506.92,634.14,522l-4.73,7.37L627,527.85l3.2-5-8-5.16-1.64,2.56-2.39-1.53,1.64-2.56-8.29-5.31-3.19,5-2.43-1.55Z"/><path class="cls-1" d="M608.53,548.91,592,533.77l2.46-3.3,10.66,6.32-9-8.47,2.47-3.3,19.16,11.59,4.58,3.43-1.71,2.27L616,538.89l-13.67-8.24,13,12-1.71,2.27-15.17-9.1,11.76,10.79,4.58,3.43-1.73,2.31Z"/><path class="cls-1" d="M610.54,555.61l-1.81,2.19-9.59-7.92L597,552.5l9.6,7.92-1.81,2.19-21.59-17.82,1.8-2.19,9.82,8.09,2.16-2.62L587.14,540l1.81-2.2Z"/><path class="cls-1" d="M600.86,567.19,597.5,571l-2.82.16-17.92-16-.13-2.85,3.35-3.77,2.82-.16,17.92,16Zm-19.05-15.9-.48.06-1.78,2v.48l16.12,14.37.48-.05,1.78-2v-.48Z"/><path class="cls-1" d="M575.56,585.51l-14.12-17.38,2.92-2.91L574,573l-7.72-9.7,2.92-2.9,17.27,14.24,4,4.06-2,2-4-4.05L572.1,566.55l11.14,13.74-2,2-13.68-11.21,10.06,12.39,4,4-2,2Z"/><path class="cls-1" d="M557.8,571.65l18.79,20.76-6.5,5.88-1.93-2.14,4.39-4-6.42-7.09-2.25,2L562,585l2.26-2-6.61-7.29-4.38,4-1.94-2.13Z"/><path class="cls-1" d="M543.8,589.11l2.64-2.16-2.51-3.06,2.23-1.82,3.39,4.14,12.57,19-3.56,2.91L542.49,592l-3.39-4.15,2.2-1.8Zm13,13.15-8.68-13-2.38,2Z"/><path class="cls-1" d="M553.73,612l-5.64,4.27-2.84-.36L539,607.6l.11-1.18-1.19-.25-8.3-11,2.3-1.73,7.67,10.14.66.15,2.36-1.79-8-10.56,2.26-1.71Zm-11.83-5.29,4.93,6.5.48,0,2.42-1.83-5.43-7.18-2.36,1.79Z"/><path class="cls-1" d="M527.25,596.94l16,22.95-7.18,5-1.65-2.36,4.85-3.39-5.47-7.83-2.49,1.74-1.63-2.33,2.49-1.74-5.64-8.07-4.85,3.39L520.07,602Z"/><path class="cls-1" d="M509.38,635l-9.48-20.29,3.53-2.11,7.45,9.91-5.14-11.28,3.54-2.11,13.29,18,2.93,4.91-2.44,1.45-2.93-4.91-9.5-12.82,7.46,16-2.44,1.45-10.55-14.2,6.75,14.46,2.93,4.92-2.47,1.47Z"/><path class="cls-1" d="M508.68,642l-2.51,1.34-5.85-11-3,1.6,5.85,11-2.51,1.33L487.5,621.52l2.5-1.34,6,11.23,3-1.6-6-11.22,2.51-1.34Z"/><path class="cls-1" d="M495.3,649l-4.53,2.2-2.67-.93-10.47-21.6,1-2.69,4.54-2.19,2.67.92,10.47,21.6Zm-11.53-22-.47-.13-2.41,1.17-.18.44,9.42,19.44.46.13,2.41-1.17.19-.44Z"/><path class="cls-1" d="M464.93,656.24l-6.41-21.45,3.81-1.57,5.91,10.89-3.43-11.91,3.81-1.57,10.51,19.77,2.18,5.29-2.62,1.08-2.18-5.29L469,637.4l5,17-2.63,1.08L463,639.85l4.56,15.3,2.18,5.29-2.66,1.09Z"/><path class="cls-1" d="M453.79,636.66,463.2,663,455,666l-1-2.72,5.57-2-3.21-9-2.86,1-1-2.67,2.87-1-3.31-9.27-5.58,2-1-2.72Z"/><path class="cls-1" d="M434.17,647.43l3.26-1-1.14-3.8,2.75-.82,1.55,5.13,4.34,22.34-4.41,1.32-8.67-21-1.54-5.13,2.72-.82Zm6.95,17.12-3-15.34-2.95.89Z"/><path class="cls-1" d="M434.58,672.39l-6.85,1.78-2.48-1.43-2.62-10.1.55-1-1-.69-3.46-13.32,2.79-.73,3.19,12.32.56.39,2.87-.74L424.8,646l2.75-.71ZM425.69,663l2.05,7.9.43.22,2.94-.76-2.26-8.72-2.87.75Z"/><path class="cls-1" d="M415.91,648.31l6,27.35-8.55,1.87-.62-2.81,5.78-1.27-2-9.34-3,.65-.61-2.77,3-.65-2.11-9.61L408,653l-.62-2.81Z"/><path class="cls-1" d="M384.78,676.57l-1-22.37,4.08-.59,3.06,12-.41-12.39,4.08-.59L400,674.38l.82,5.66-2.82.41-.81-5.66-3.84-15.49.72,17.67-2.81.41L387,660.21l.68,15.95.81,5.66-2.85.41Z"/><path class="cls-1" d="M381.46,682.72l-2.83.27-1.18-12.38-3.39.32,1.18,12.39-2.82.27-2.66-27.88,2.83-.27,1.2,12.67,3.39-.33L376,655.12l2.83-.27Z"/><path class="cls-1" d="M366.44,684.06l-5,.29-2.11-1.88-1.38-24,1.93-2.11,5-.29L367,658l1.37,24Zm-2.22-24.71-.38-.3-2.67.15-.34.34,1.23,21.57.38.3,2.68-.16.34-.34Z"/><path class="cls-1" d="M335.26,679l2.6-22.24,4.12.07,1.12,12.34,1.56-12.3,4.12.07,1.84,22.31-.09,5.72-2.84,0,.09-5.72-1.34-15.9-2.09,17.57-2.84,0L340,663.24l-1.86,15.85-.09,5.72-2.88,0Z"/><path class="cls-1" d="M332.83,656.77l-1.37,28-8.75-.43.14-2.87,5.91.28.47-9.54-3-.15.14-2.84,3,.15.48-9.83-5.91-.29.14-2.87Z"/><path class="cls-1" d="M310.59,659.24l3.38.34.39-3.94,2.87.28-.53,5.34-4.5,22.3-4.58-.45V660.36l.53-5.34,2.83.28Zm-.1,18.48,3-15.33-3.06-.3Z"/><path class="cls-1" d="M301.42,682.48l-7-1-1.75-2.26,1.43-10.34.91-.76-.67-1,1.88-13.63,2.86.4-1.74,12.6.36.57,2.94.41,1.8-13.12,2.82.39Zm-4.63-12.11-1.11,8.08.31.37,3,.42,1.23-8.92-2.93-.4Z"/><path class="cls-1" d="M293.34,653.1l-4.86,27.57-8.63-1.52.5-2.84,5.83,1,1.66-9.41-3-.53.49-2.8,3,.53,1.71-9.69-5.83-1,.5-2.83Z"/><path class="cls-1" d="M253.81,667.39l7.64-21,4,1-1.74,12.27L268,648l4,1-3.32,22.14-1.41,5.54-2.75-.7,1.4-5.54,2.34-15.79-6.06,16.62-2.75-.69,2.57-17.51-5.44,15-1.41,5.54-2.79-.7Z"/><path class="cls-1" d="M248.37,671.81l-2.72-.83,3.63-11.9-3.25-1L242.4,670l-2.72-.83,8.17-26.78,2.71.83-3.7,12.16,3.25,1,3.71-12.16,2.71.83Z"/><path class="cls-1" d="M234,667.32l-4.77-1.66L228,663.12l7.88-22.67,2.58-1.22,4.76,1.65,1.23,2.55-7.87,22.67Zm7.38-23.69-.24-.42-2.53-.88-.44.18-7.09,20.41.23.42,2.53.88.45-.19Z"/><path class="cls-1" d="M207.32,651,218,631.26l3.8,1.58-3.52,11.88,6-10.84,3.81,1.58-6.55,21.41-2.2,5.28-2.63-1.09,2.21-5.28,4.63-15.27-8.43,15.55-2.62-1.1L217.57,638l-7.59,14-2.2,5.27-2.66-1.1Z"/><path class="cls-1" d="M213.33,629.25l-12,25.29-7.91-3.75,1.23-2.6,5.35,2.54,4.1-8.64-2.75-1.31,1.22-2.56,2.75,1.3,4.21-8.89-5.35-2.54,1.24-2.6Z"/><path class="cls-1" d="M191.85,623l3,1.61,1.88-3.48,2.54,1.36-2.54,4.72L184,646.05l-4.05-2.18,8.75-21,2.53-4.72,2.5,1.35Zm-7.2,17,8.71-13-2.71-1.46Z"/><path class="cls-1" d="M174.47,640.92l-6.1-3.59-.74-2.76,5.29-9,1.13-.35-.22-1.2,7-11.86,2.49,1.46-6.45,11,.12.67,2.55,1.5,6.71-11.41,2.45,1.44Zm.38-13-4.13,7,.14.45,2.62,1.55,4.57-7.76-2.55-1.5Z"/><path class="cls-1" d="M178.3,610.68l-15.1,23.59-7.37-4.72,1.55-2.43,5,3.19,5.16-8L165,620.62l1.53-2.39,2.56,1.64,5.3-8.29-5-3.19,1.55-2.43Z"/><path class="cls-1" d="M136.3,608.69l15.13-16.51,3.3,2.46-6.32,10.66,8.47-9,3.3,2.46L148.6,617.88l-3.42,4.58-2.27-1.7,3.42-4.58,8.22-13.68-12,13-2.28-1.7,9.09-15.17-10.78,11.76L135.18,615l-2.3-1.72Z"/><path class="cls-1" d="M129.6,610.7l-2.19-1.81,7.91-9.6-2.62-2.16-7.91,9.6-2.19-1.81,17.8-21.6,2.2,1.8-8.09,9.82,2.62,2.16,8.09-9.82,2.19,1.81Z"/><path class="cls-1" d="M118,601l-3.77-3.35-.16-2.82,16-17.93,2.85-.14,3.76,3.35.17,2.83-16,17.92ZM133.9,582l-.06-.47-2-1.79h-.48L117,595.84l0,.48,2,1.78h.48Z"/><path class="cls-1" d="M99.68,575.74,117,561.6l2.91,2.92-7.8,9.63,9.69-7.73,2.91,2.92-14.23,17.28-4,4-2-2,4.05-4,10.13-12.34L104.9,583.42l-2-2,11.2-13.69-12.38,10.07-4,4-2-2Z"/><path class="cls-1" d="M113.52,558l-20.74,18.8-5.89-6.49L89,568.35l4,4.38,7.09-6.42-2-2.25,2.1-1.91,2,2.26,7.29-6.61-4-4.39,2.13-1.93Z"/><path class="cls-1" d="M96.05,544l2.16,2.63,3.06-2.51,1.83,2.22L99,549.73,80,562.32l-2.91-3.56,16.09-16.08,4.15-3.4,1.8,2.2ZM82.91,557l13-8.69-2-2.38Z"/><path class="cls-1" d="M73.15,553.93l-4.28-5.64.36-2.83,8.33-6.31,1.18.11.25-1.2,11-8.3,1.74,2.29-10.14,7.68-.15.67,1.79,2.36,10.55-8L95.47,537Zm5.28-11.83L71.93,547l0,.48,1.84,2.42,7.17-5.43-1.79-2.36Z"/><path class="cls-1" d="M88.21,527.44,65.27,543.5l-5-7.18,2.36-1.65,3.4,4.85L73.83,534l-1.74-2.49,2.32-1.63,1.75,2.49,8.06-5.64-3.4-4.85,2.36-1.65Z"/><path class="cls-1" d="M50.14,509.6l20.27-9.5,2.12,3.54-9.91,7.44,11.28-5.14L76,509.47,58,522.78l-4.91,2.94-1.46-2.44,4.91-2.93,12.82-9.52-16,7.48-1.45-2.44L66.07,505.3l-14.46,6.77L46.7,515l-1.47-2.47Z"/><path class="cls-1" d="M43.17,508.9l-1.33-2.51,11-5.85-1.6-3-11,5.85-1.34-2.5L63.6,487.7l1.34,2.51-11.22,6,1.6,3,11.22-6,1.34,2.5Z"/><path class="cls-1" d="M36.15,495.53,34,491l.92-2.67,21.59-10.49,2.69,1,2.2,4.54L60.43,486,38.84,496.49Zm22-11.55.13-.46-1.17-2.41-.45-.19-19.43,9.44-.13.46,1.17,2.41.45.19Z"/><path class="cls-1" d="M28.86,465.17l21.45-6.43,1.57,3.81L41,468.47,52.9,465l1.57,3.8L34.72,479.37l-5.29,2.18-1.08-2.63,5.28-2.18,14.07-7.53-17,5-1.09-2.62,15.59-8.38L30,467.83,24.67,470l-1.1-2.66Z"/><path class="cls-1" d="M48.44,454l-26.37,9.43-2.95-8.25,2.71-1,2,5.58,9-3.22-1-2.87,2.68-.95,1,2.86,9.27-3.32-2-5.57,2.71-1Z"/><path class="cls-1" d="M37.65,434.4l1,3.26,3.79-1.14.83,2.75-5.13,1.55-22.34,4.36-1.33-4.41,21-8.68,5.13-1.55.82,2.72Zm-17.12,7,15.34-3L35,435.38Z"/><path class="cls-1" d="M12.69,434.83,10.91,428l1.42-2.48,10.1-2.62,1.06.55.69-1L37.49,419l.73,2.79L25.91,425l-.39.55.74,2.87L39.07,425l.72,2.74Zm9.42-8.9L14.22,428l-.22.43.76,2.94,8.71-2.27-.74-2.86Z"/><path class="cls-1" d="M36.76,416.14l-27.35,6L7.53,413.6l2.82-.62,1.27,5.79L21,416.71l-.65-3,2.77-.61.66,3L33.34,414l-1.27-5.78,2.81-.62Z"/><path class="cls-1" d="M8.47,385l22.37-1,.59,4.08-12,3.07,12.39-.42.59,4.08-21.74,5.37L5,401.06l-.41-2.81,5.67-.82,15.48-3.86-17.67.74-.41-2.81,17.16-4.3-15.94.69-5.67.82-.41-2.85Z"/><path class="cls-1" d="M2.32,381.72,2,378.9l12.39-1.19-.33-3.39L1.72,375.51l-.27-2.82L29.32,370l.27,2.82-12.66,1.22.32,3.38,12.67-1.21.27,2.82Z"/><path class="cls-1" d="M1,366.68l-.29-5,1.88-2.12,24-1.39,2.12,1.92.29,5L27,367.21l-24,1.39Zm24.71-2.24.3-.38-.15-2.67-.34-.34L3.91,362.3l-.29.38.15,2.67.34.34Z"/><path class="cls-1" d="M6,335.55l22.24,2.6-.07,4.12L15.8,343.39,28.1,345,28,349.07,5.72,350.9,0,350.81.05,348l5.72.1,15.9-1.35L4.1,344.64l.05-2.84,17.62-1.52L5.92,338.43l-5.72-.1,0-2.88Z"/><path class="cls-1" d="M28.23,333.05l-28-1.35L.68,323l2.88.14L3.28,329l9.55.46.14-3,2.84.14-.15,3,9.83.47.29-5.91,2.87.14Z"/><path class="cls-1" d="M25.74,310.81l-.33,3.38,3.94.39-.28,2.86-5.33-.52L1.43,312.43l.45-4.57,22.75,0,5.33.53-.27,2.82Zm-18.48-.09,15.34,3,.3-3.06Z"/><path class="cls-1" d="M2.5,301.69l1-7,2.26-1.75,10.34,1.41.77.92,1-.67,13.63,1.87-.39,2.85-12.6-1.73-.58.37-.4,2.93,13.12,1.8-.39,2.81Zm12.1-4.64-8.08-1.11-.37.32-.41,3,8.92,1.22.4-2.93Z"/><path class="cls-1" d="M31.88,293.55,4.3,288.71l1.52-8.63,2.83.5-1,5.83L17,288.06l.53-3,2.8.49-.53,3,9.69,1.71,1-5.83,2.83.5Z"/><path class="cls-1" d="M17.56,254l21.06,7.62-1,4-12.27-1.74L37,268.24l-1,4-22.14-3.31-5.55-1.4L9,264.77l5.55,1.4,15.79,2.33-16.63-6,.7-2.76,17.5,2.56-15-5.44-5.55-1.39.7-2.8Z"/><path class="cls-1" d="M13.13,248.62,14,245.9l11.9,3.62,1-3.25-11.91-3.62.83-2.72,26.79,8.15-.83,2.71-12.17-3.7-1,3.26,12.17,3.7-.82,2.71Z"/><path class="cls-1" d="M17.61,234.21l1.65-4.76,2.54-1.24,22.68,7.86,1.22,2.58-1.65,4.77-2.54,1.23-22.68-7.86Zm23.69,7.37.42-.24.88-2.53-.18-.45L22,231.29l-.42.24-.88,2.53.18.44Z"/><path class="cls-1" d="M34,207.56l19.71,10.63L52.07,222l-11.88-3.52,10.85,6-1.58,3.81-21.41-6.53-5.28-2.2,1.09-2.62,5.28,2.19,15.27,4.63-15.55-8.43L30,212.69l16.94,5.1-14-7.58L27.56,208l1.11-2.66Z"/><path class="cls-1" d="M55.68,213.52l-25.31-12,3.75-7.92,2.6,1.23-2.53,5.36,8.64,4.09,1.3-2.75,2.57,1.21-1.3,2.75,8.89,4.21,2.53-5.35,2.61,1.23Z"/><path class="cls-1" d="M61.91,192.06l-1.61,3,3.49,1.87-1.36,2.54-4.72-2.54L38.84,184.22,41,180.16l21,8.74,4.72,2.53-1.34,2.5Zm-17-7.19,13,8.7,1.45-2.71Z"/><path class="cls-1" d="M44,174.7l3.59-6.11,2.76-.75,9,5.29.35,1.13,1.2-.22,11.87,7-1.46,2.48-11-6.44-.67.12-1.5,2.55,11.42,6.7-1.44,2.45Zm13,.37-7-4.13-.45.14-1.54,2.63,7.76,4.55,1.5-2.55Z"/><path class="cls-1" d="M74.2,178.5,50.61,163.42,55.32,156l2.43,1.55-3.19,5,8.06,5.15,1.63-2.57,2.4,1.53L65,169.25l8.29,5.3,3.19-5,2.43,1.55Z"/><path class="cls-1" d="M76.17,136.5l16.52,15.11-2.46,3.31-10.67-6.31,9.06,8.45-2.46,3.31L67,148.81l-4.59-3.42,1.7-2.28,4.58,3.42,13.69,8.21-13-12L71,140.5l15.18,9.08L74.45,138.81l-4.59-3.42,1.72-2.31Z"/><path class="cls-1" d="M74.15,129.8,76,127.61l9.6,7.9,2.16-2.62L78.12,125l1.8-2.19,21.62,17.79-1.8,2.19-9.82-8.08-2.16,2.63,9.82,8.08-1.81,2.19Z"/><path class="cls-1" d="M83.82,118.2l3.35-3.77,2.82-.16,17.94,15.94.14,2.85-3.35,3.77-2.82.17L84,121.05Zm19.07,15.88.48-.06,1.78-2v-.48L89,117.19l-.48,0-1.78,2v.48Z"/><path class="cls-1" d="M109.09,99.85l14.15,17.36-2.92,2.91-9.63-7.79,7.73,9.68-2.91,2.91L98.21,110.7l-4-4,2-2,4,4,12.35,10.12-11.15-13.74,2-2,13.7,11.19-10.08-12.37-4-4,2-2Z"/><path class="cls-1" d="M126.89,113.66,108.07,92.93,114.56,87l1.94,2.13-4.39,4,6.43,7.08,2.25-2,1.91,2.1-2.25,2,6.61,7.28,4.38-4,1.94,2.13Z"/><path class="cls-1" d="M140.84,96.2l-2.63,2.16,2.51,3.06-2.22,1.83-3.4-4.15L122.5,80.16l3.55-2.92,16.1,16.08,3.4,4.14-2.2,1.8Zm-13-13.13,8.69,13,2.38-2Z"/><path class="cls-1" d="M130.88,73.3,136.52,69l2.83.36,6.31,8.32-.11,1.19,1.2.24,8.31,11-2.29,1.74L145.08,81.7l-.66-.14-2.36,1.79,8,10.54-2.26,1.72Zm11.83,5.28-4.93-6.5-.48,0-2.42,1.84,5.44,7.17,2.36-1.79Z"/><path class="cls-1" d="M157.38,88.34,141.3,65.42l7.17-5,1.66,2.36-4.85,3.39L150.77,74l2.49-1.74,1.63,2.32L152.4,76.3l5.65,8L162.9,81l1.65,2.35Z"/></g></g></svg>