<svg id="Group_4799" data-name="Group 4799" xmlns="http://www.w3.org/2000/svg" xmlns:xlink="http://www.w3.org/1999/xlink" width="358.905" height="358.998" viewBox="0 0 358.905 358.998">
  <defs>
    <clipPath id="clip-path">
      <rect id="Rectangle_578" data-name="Rectangle 578" width="358.905" height="358.998" fill="#fec32e"/>
    </clipPath>
  </defs>
  <path id="Path_2203" data-name="Path 2203" d="M219.709,4.68l-1.561,8.954.148.037L222,5.216l2.561.643-.753,9.1.147.037,2.883-8.524,2.341.587-4.947,12.925-2.949-.74.814-8.71-.148-.038-3.5,8.036-2.986-.749,1.646-13.752Z" fill="#fec32e"/>
  <path id="Path_2204" data-name="Path 2204" d="M234.384,8.755l-1.72,5.213,2.525.833,1.719-5.213,2.832.935-4.3,13.04-2.832-.935,1.886-5.717-2.524-.833-1.887,5.717-2.759-.91,4.3-13.04Z" fill="#fec32e"/>
  <g id="Group_4798" data-name="Group 4798">
    <g id="Group_4797" data-name="Group 4797" clip-path="url(#clip-path)">
      <path id="Path_2205" data-name="Path 2205" d="M246.91,13c2.658,1.078,3.58,4.466,1.909,8.587-1.4,3.452-4.329,5.873-7.3,4.666-2.924-1.185-3.438-4.819-1.946-8.5,1.692-4.173,4.7-5.824,7.342-4.754m-4.6,11.34c1.407.571,2.681-1.455,3.687-3.938,1.079-2.659,1.535-5,.162-5.553-1.445-.586-2.736,1.536-3.764,4.072-1.129,2.782-1.442,4.869-.085,5.419" fill="#fec32e"/>
      <rect id="Rectangle_572" data-name="Rectangle 572" width="13.74" height="2.946" transform="translate(251.78 30.508) rotate(-63.548)" fill="#fec32e"/>
      <path id="Path_2206" data-name="Path 2206" d="M260.4,30.637c-.733.9-.961,1.9-.328,2.25.5.274,1.006-.054,1.336-.653a3.093,3.093,0,0,0-.247-2.979c-.838-1.59-1.44-3.57-.422-5.418a3.694,3.694,0,0,1,5.172-1.708c1.648.908,2.423,2.811,1.366,5.2l-2.6-1.43c.586-.827.766-1.7.267-1.981-.417-.228-.975.114-1.351.8a2.735,2.735,0,0,0,.379,2.661c.977,1.732,1.488,3.641.4,5.6a3.7,3.7,0,0,1-5.254,1.662c-1.415-.779-2.8-2.672-1.456-5.511Z" fill="#fec32e"/>
      <path id="Path_2207" data-name="Path 2207" d="M275.969,28.275l2.86,1.944-3.841,8.188.126.085,6.214-6.574,2.845,1.932-6.9,11.919-2.091-1.421,4.724-7.726-.126-.086-6.785,6.671-1.682-1.144,3.752-8.731-.126-.085-5.462,7.224-2.059-1.4Z" fill="#fec32e"/>
      <path id="Path_2208" data-name="Path 2208" d="M284.271,47.856l-2.121-1.667-2.025,1.84-2.181-1.713,10.694-9.063,2.735,2.146L285.22,52.031l-2.272-1.784Zm3.637-6.66-.119-.094-4.009,3.566,1.583,1.244Z" fill="#fec32e"/>
      <path id="Path_2209" data-name="Path 2209" d="M295.276,42.555l2.532,2.243c2.218,1.967,2.257,5.276-.731,8.647-2.609,2.943-5.865,3.866-8.453,1.572l-2.46-2.18Zm-5.521,10.671.423.324c1.214.924,2.988-.22,4.652-2.1,1.613-1.821,2.658-3.916,1.611-5l-.359-.368Z" fill="#fec32e"/>
      <path id="Path_2210" data-name="Path 2210" d="M303.427,49.924l4.5,4.446-1.575,1.6-2.448-2.416-2.295,2.325,2.257,2.23-1.576,1.6-2.257-2.23-2.6,2.637,2.541,2.509-1.6,1.623-4.6-4.54Z" fill="#fec32e"/>
      <path id="Path_2211" data-name="Path 2211" d="M310.384,63.109c.912-.748,1.531-1.847.933-2.508-.969-1.07-3.052-.005-5.122,1.868-2.226,2.013-3.437,3.9-2.367,5.085.7.775,2,.6,3.363-.813L305.16,65.12l1.846-1.669,3.555,3.929c-3.77,3.307-6.491,3.414-8.275,1.442-2.242-2.48-.974-5.777,2.011-8.479,2.873-2.6,6.409-3.389,8.55-1.024,1.554,1.719,1.35,4.183-.411,6.058Z" fill="#fec32e"/>
      <path id="Path_2212" data-name="Path 2212" d="M320.312,68.088c1.781,2.249.913,5.651-2.572,8.41-2.919,2.313-6.661,2.974-8.654.457-1.958-2.472-.615-5.886,2.5-8.352,3.53-2.795,6.959-2.749,8.729-.515m-9.591,7.6c.943,1.191,3.05.057,5.149-1.606,2.249-1.782,3.8-3.589,2.878-4.751-.967-1.221-3.136-.013-5.281,1.686-2.352,1.863-3.654,3.525-2.746,4.671" fill="#fec32e"/>
      <path id="Path_2213" data-name="Path 2213" d="M327.529,77.853c1.627,2.363.532,5.7-3.131,8.221-3.068,2.112-6.847,2.52-8.668-.126-1.788-2.6-.219-5.916,3.053-8.168,3.711-2.553,7.131-2.276,8.746.073M317.447,84.79c.862,1.252,3.04.261,5.248-1.258,2.363-1.627,4.031-3.328,3.19-4.549-.882-1.284-3.128-.222-5.383,1.328-2.474,1.7-3.884,3.273-3.055,4.479" fill="#fec32e"/>
      <path id="Path_2214" data-name="Path 2214" d="M331.477,84.308l1.734,2.9c1.518,2.545.553,5.709-3.313,8.017-3.377,2.014-6.758,1.909-8.529-1.06l-1.685-2.822Zm-8.489,8.5.3.437c.877,1.247,2.914.694,5.067-.59,2.088-1.246,3.718-2.927,3.046-4.275l-.23-.459Z" fill="#fec32e"/>
      <path id="Path_2215" data-name="Path 2215" d="M328.811,101.236a1.511,1.511,0,0,1-2.676,1.4,1.511,1.511,0,0,1,2.676-1.4m4.749-6.371c2.486-1.067,4.225.038,4.965,1.452a3.293,3.293,0,0,1-1.253,4.69c-1.363.714-2.893.293-4.354-.079a2.886,2.886,0,0,0-2.142.373,2.141,2.141,0,0,0-.411.279l-1.033-1.969a2.43,2.43,0,0,1,.454-.28,5.7,5.7,0,0,1,3.782-.481,3.281,3.281,0,0,0,2.093-.3c.825-.433,1.249-.934,1-1.406s-.982-.193-1.719.365Z" fill="#fec32e"/>
      <path id="Path_2216" data-name="Path 2216" d="M350.577,125.708l-8.511,3.179.042.145,9.166-1.074.74,2.535-8.227,3.946.042.146,8.81-1.82.675,2.315-13.646,2.265-.853-2.918,7.924-3.7-.042-.147-8.7,1.038-.863-2.954,12.693-5.528Z" fill="#fec32e"/>
      <path id="Path_2217" data-name="Path 2217" d="M354.493,140.419l-5.371,1.151.558,2.6,5.371-1.15.625,2.918-13.437,2.878-.625-2.918,5.891-1.261-.557-2.6-5.892,1.263-.609-2.844,13.437-2.879Z" fill="#fec32e"/>
      <path id="Path_2218" data-name="Path 2218" d="M357.156,153.378c.415,2.839-2.041,5.349-6.439,5.992-3.685.538-7.254-.765-7.719-3.942-.455-3.121,2.417-5.4,6.347-5.976,4.455-.652,7.4,1.107,7.811,3.926m-12.106,1.77c.22,1.5,2.611,1.576,5.263,1.189,2.838-.415,5.085-1.2,4.87-2.669-.225-1.542-2.708-1.583-5.415-1.187-2.97.434-4.929,1.219-4.718,2.667" fill="#fec32e"/>
      <rect id="Rectangle_573" data-name="Rectangle 573" width="13.734" height="2.945" transform="matrix(0.998, -0.069, 0.069, 0.998, 344.52, 166.433)" fill="#fec32e"/>
      <path id="Path_2219" data-name="Path 2219" d="M348.776,173.933c-1.146-.177-2.126.136-2.105.857.016.571.555.84,1.24.822a3.1,3.1,0,0,0,2.442-1.723c.945-1.529,2.348-3.052,4.456-3.11a3.694,3.694,0,0,1,4.094,3.591c.053,1.881-1.194,3.513-3.791,3.815l-.083-2.964c1.01.086,1.857-.2,1.842-.774-.014-.475-.593-.782-1.371-.76-.742.02-1.449.554-2.1,1.675-1,1.72-2.384,3.128-4.625,3.191a3.706,3.706,0,0,1-4.1-3.687c-.045-1.615.883-3.771,4.012-4.048Z" fill="#fec32e"/>
      <path id="Path_2220" data-name="Path 2220" d="M358.714,186.129l-.219,3.451-9.005.857-.009.151L358.3,192.6l-.218,3.433-13.775.115.16-2.523,9.056.138.009-.151-9.194-2.452.129-2.029,9.427-1.21.009-.151-9-1.03.159-2.484Z" fill="#fec32e"/>
      <path id="Path_2221" data-name="Path 2221" d="M346.072,203.235l.355-2.674-2.614-.808.365-2.749,13.244,4.6-.457,3.446-14.005,1.128.381-2.862Zm7.584-.257.02-.15-5.11-1.638-.264,2Z" fill="#fec32e"/>
      <path id="Path_2222" data-name="Path 2222" d="M356.224,210.008l-.646,3.319c-.567,2.908-3.4,4.622-7.817,3.761-3.859-.752-6.307-3.086-5.646-6.479l.628-3.227Zm-11.993.664-.064.529c-.179,1.514,1.707,2.462,4.168,2.941,2.387.465,4.722.3,5.121-1.151l.135-.5Z" fill="#fec32e"/>
      <path id="Path_2223" data-name="Path 2223" d="M354,220.821l-1.55,6.134-2.173-.55.843-3.333-3.168-.8-.777,3.075-2.173-.548.776-3.076-3.591-.908-.875,3.463-2.209-.559,1.582-6.261Z" fill="#fec32e"/>
      <path id="Path_2224" data-name="Path 2224" d="M346.178,233.487c1.107.407,2.369.386,2.637-.467.432-1.378-1.543-2.635-4.208-3.471-2.864-.9-5.107-.987-5.585.537-.313,1,.5,2.028,2.4,2.487L341.8,230l2.374.745-1.588,5.057c-4.762-1.575-6.233-3.868-5.436-6.406,1-3.19,4.489-3.768,8.332-2.561,3.7,1.161,6.173,3.809,5.216,6.854-.7,2.212-2.923,3.284-5.433,2.716Z" fill="#fec32e"/>
      <path id="Path_2225" data-name="Path 2225" d="M346.907,244.58c-1.039,2.674-4.414,3.647-8.559,2.037-3.473-1.349-5.937-4.243-4.774-7.238,1.143-2.94,4.769-3.509,8.471-2.071,4.2,1.631,5.894,4.614,4.862,7.272M335.5,240.148c-.551,1.417,1.5,2.66,3.993,3.63,2.675,1.04,5.019,1.461,5.556.079.564-1.453-1.576-2.713-4.128-3.7-2.8-1.088-4.891-1.37-5.421-.006" fill="#fec32e"/>
      <path id="Path_2226" data-name="Path 2226" d="M342.108,255.762c-1.219,2.6-4.65,3.337-8.675,1.448-3.37-1.583-5.629-4.636-4.265-7.542,1.34-2.855,4.994-3.175,8.589-1.489,4.075,1.913,5.562,5,4.351,7.583m-11.074-5.2c-.646,1.376,1.309,2.756,3.733,3.894,2.6,1.218,4.907,1.8,5.536.458.662-1.411-1.387-2.813-3.864-3.976-2.717-1.275-4.784-1.7-5.4-.376" fill="#fec32e"/>
      <path id="Path_2227" data-name="Path 2227" d="M338.543,262.436l-1.632,2.963c-1.431,2.6-4.651,3.362-8.6,1.188-3.446-1.9-5.062-4.872-3.393-7.9l1.587-2.88Zm-11.626-3.041-.224.484c-.633,1.387.873,2.868,3.071,4.078,2.131,1.174,4.4,1.733,5.229.472l.281-.43Z" fill="#fec32e"/>
      <path id="Path_2228" data-name="Path 2228" d="M322.605,268.64a1.511,1.511,0,0,1-2.563-1.6,1.511,1.511,0,0,1,2.563,1.6m7.9.881c2.177,1.607,2.1,3.666,1.255,5.02a3.294,3.294,0,0,1-4.682,1.286c-1.3-.816-1.714-2.348-2.131-3.8a2.885,2.885,0,0,0-1.4-1.662,2.157,2.157,0,0,0-.449-.214l1.178-1.885a2.44,2.44,0,0,1,.471.25,5.7,5.7,0,0,1,2.324,3.021,3.28,3.28,0,0,0,1.32,1.654c.789.493,1.435.606,1.718.155.292-.468-.329-.945-1.182-1.3Z" fill="#fec32e"/>
      <path id="Path_2229" data-name="Path 2229" d="M312.515,299.79l-7.057-5.725-.1.112,5.575,7.355-1.81,1.924-7.575-5.09-.1.111,6.037,6.668-1.653,1.758-8.873-10.614,2.082-2.214,7.208,4.953.1-.111-5.308-6.974,2.109-2.242,11.2,8.138Z" fill="#fec32e"/>
      <path id="Path_2230" data-name="Path 2230" d="M301.807,310.631l-3.718-4.039-1.957,1.8,3.718,4.039-2.194,2.019-9.3-10.105,2.194-2.02,4.077,4.431,1.957-1.8-4.078-4.43,2.139-1.968,9.3,10.105Z" fill="#fec32e"/>
      <path id="Path_2231" data-name="Path 2231" d="M292,319.512c-2.235,1.8-5.645.959-8.433-2.505-2.336-2.9-3.027-6.637-.526-8.652,2.457-1.978,5.883-.662,8.374,2.432,2.824,3.507,2.806,6.938.585,8.725m-7.675-9.531c-1.184.953-.031,3.051,1.648,5.138,1.8,2.234,3.622,3.769,4.776,2.84,1.214-.978-.013-3.137-1.73-5.269-1.882-2.338-3.554-3.627-4.694-2.709" fill="#fec32e"/>
      <rect id="Rectangle_574" data-name="Rectangle 574" width="2.946" height="13.74" transform="translate(271.924 316.925) rotate(-34.532)" fill="#fec32e"/>
      <path id="Path_2232" data-name="Path 2232" d="M270.056,322.728c-.429-1.077-1.2-1.763-1.808-1.379-.482.3-.441.9-.078,1.484a3.092,3.092,0,0,0,2.724,1.231c1.8.039,3.82.475,4.942,2.262a3.693,3.693,0,0,1-1.018,5.349c-1.594,1-3.633.754-5.21-1.33l2.511-1.576c.439.914,1.12,1.5,1.6,1.194.4-.253.373-.907-.041-1.567a2.735,2.735,0,0,0-2.51-.961c-1.988.014-3.9-.466-5.1-2.365a3.706,3.706,0,0,1,1.1-5.4c1.369-.858,3.7-1.152,5.525,1.4Z" fill="#fec32e"/>
      <path id="Path_2233" data-name="Path 2233" d="M264.573,337.479l-3.086,1.559-5.295-7.327-.135.069,2.735,8.618-3.069,1.55-7.07-11.812L250.908,329l4.464,7.873.136-.07-2.541-9.162,1.813-.916,5.814,7.511.135-.068-3.668-8.276,2.221-1.121Z" fill="#fec32e"/>
      <path id="Path_2234" data-name="Path 2234" d="M243.4,335.259l2.488-1.046-.626-2.664,2.557-1.076,2.736,13.755-3.205,1.349-8.062-11.515,2.663-1.12Zm4.06,6.416.141-.06-1.174-5.238-1.857.781Z" fill="#fec32e"/>
      <path id="Path_2235" data-name="Path 2235" d="M242.7,347.445l-3.192,1.122c-2.8.983-5.707-.593-7.2-4.842-1.3-3.711-.528-7.006,2.734-8.152l3.1-1.091Zm-6.642-10.014-.49.213c-1.4.611-1.26,2.719-.428,5.086.807,2.295,2.13,4.226,3.584,3.836l.5-.134Z" fill="#fec32e"/>
      <path id="Path_2236" data-name="Path 2236" d="M232.246,351l-6.077,1.764-.625-2.155,3.3-.958-.911-3.138-3.047.883-.625-2.153,3.047-.884-1.032-3.558-3.43.995-.636-2.19,6.205-1.8Z" fill="#fec32e"/>
      <path id="Path_2237" data-name="Path 2237" d="M217.367,350.645c.208,1.161.865,2.239,1.736,2.039,1.409-.323,1.494-2.664.868-5.387-.672-2.927-1.732-4.907-3.288-4.549-1.018.234-1.5,1.456-.93,3.335l2.407-.983.558,2.427-5.168,1.187c-1.05-4.907.185-7.337,2.779-7.932,3.26-.749,5.522,1.967,6.426,5.895.868,3.779-.166,7.254-3.279,7.969-2.259.52-4.313-.861-5.091-3.315Z" fill="#fec32e"/>
      <path id="Path_2238" data-name="Path 2238" d="M208.165,356.874c-2.831.456-5.376-1.963-6.083-6.35-.591-3.676.659-7.264,3.827-7.774,3.114-.5,5.437,2.337,6.069,6.256.716,4.445-1,7.415-3.813,7.868M206.22,344.8c-1.5.241-1.538,2.634-1.112,5.277.456,2.832,1.278,5.067,2.741,4.83,1.537-.247,1.541-2.729,1.106-5.43-.477-2.963-1.291-4.909-2.735-4.677" fill="#fec32e"/>
      <path id="Path_2239" data-name="Path 2239" d="M196.122,358.4c-2.858.265-5.234-2.32-5.645-6.748-.343-3.708,1.145-7.205,4.342-7.5,3.142-.291,5.27,2.7,5.637,6.653.415,4.483-1.5,7.333-4.334,7.6m-1.13-12.185c-1.514.141-1.713,2.525-1.465,5.192.265,2.858.935,5.143,2.41,5.006,1.552-.143,1.723-2.622,1.47-5.346-.277-2.99-.958-4.988-2.415-4.852" fill="#fec32e"/>
      <path id="Path_2240" data-name="Path 2240" d="M188.542,358.7l-3.38.1c-2.964.083-5.256-2.305-5.382-6.807-.112-3.933,1.633-6.833,5.09-6.931l3.287-.092Zm-3.271-11.563-.531.053c-1.517.157-2.03,2.206-1.959,4.714.068,2.431.74,4.674,2.244,4.747l.514.023Z" fill="#fec32e"/>
      <path id="Path_2241" data-name="Path 2241" d="M178.348,355.366c-.278,2.691-2.09,3.672-3.686,3.631a3.293,3.293,0,0,1-3.487-3.378c.04-1.539,1.152-2.67,2.188-3.766a2.887,2.887,0,0,0,.718-2.052,2.149,2.149,0,0,0-.045-.5l2.223.058a2.387,2.387,0,0,1,.024.532,5.705,5.705,0,0,1-1.42,3.538,3.271,3.271,0,0,0-.755,1.977c-.024.931.208,1.545.739,1.559.552.013.647-.763.518-1.679Zm-3.254-7.251a1.511,1.511,0,0,1,.077-3.021,1.511,1.511,0,0,1-.077,3.021" fill="#fec32e"/>
      <path id="Path_2242" data-name="Path 2242" d="M143.145,355.256l1.353-8.99-.149-.034-3.512,8.541-2.576-.583.542-9.116-.147-.034-2.686,8.592-2.354-.533,4.646-13.039,2.967.672-.611,8.728.148.034,3.317-8.117,3,.681-1.328,13.79Z" fill="#fec32e"/>
      <path id="Path_2243" data-name="Path 2243" d="M128.371,351.519l1.6-5.252-2.545-.775-1.6,5.252-2.853-.87,4-13.139,2.854.87-1.756,5.761,2.544.775,1.756-5.761,2.78.847-4,13.14Z" fill="#fec32e"/>
      <path id="Path_2244" data-name="Path 2244" d="M115.737,347.551c-2.683-1.016-3.683-4.38-2.107-8.537,1.318-3.481,4.19-5.967,7.191-4.83,2.949,1.117,3.548,4.736,2.142,8.448-1.6,4.21-4.562,5.928-7.226,4.919m4.333-11.438c-1.421-.538-2.646,1.516-3.6,4.021-1.015,2.681-1.417,5.028-.032,5.552,1.457.552,2.7-1.6,3.667-4.155,1.063-2.807,1.328-4.9-.04-5.418" fill="#fec32e"/>
      <rect id="Rectangle_575" data-name="Rectangle 575" width="13.735" height="2.944" transform="translate(101.966 341.351) rotate(-64.854)" fill="#fec32e"/>
      <path id="Path_2245" data-name="Path 2245" d="M101.864,330.243c.712-.914.917-1.922.276-2.256-.5-.264-1,.076-1.32.683a3.088,3.088,0,0,0,.315,2.971c.873,1.571,1.519,3.537.543,5.407a3.692,3.692,0,0,1-5.13,1.823c-1.667-.87-2.486-2.754-1.484-5.167l2.629,1.371c-.567.84-.726,1.722-.222,1.985.421.22.972-.136,1.331-.827a2.727,2.727,0,0,0-.438-2.65c-1.016-1.709-1.569-3.606-.532-5.593a3.7,3.7,0,0,1,5.215-1.78c1.431.747,2.861,2.607,1.58,5.474Z" fill="#fec32e"/>
      <path id="Path_2246" data-name="Path 2246" d="M86.339,332.96l-2.905-1.877,3.651-8.275-.128-.082-6.06,6.716-2.889-1.866L84.635,315.5l2.123,1.372-4.543,7.834.128.083,6.629-6.826,1.708,1.1-3.549,8.817.128.083,5.293-7.35,2.091,1.352Z" fill="#fec32e"/>
      <path id="Path_2247" data-name="Path 2247" d="M77.578,313.57l2.161,1.616L81.72,313.3l2.221,1.662-10.482,9.315-2.784-2.084,5.858-12.774,2.312,1.73ZM74.1,320.315l.122.091,3.925-3.66-1.612-1.206Z" fill="#fec32e"/>
      <path id="Path_2248" data-name="Path 2248" d="M66.725,319.137l-2.583-2.184c-2.263-1.914-2.378-5.22.529-8.66,2.539-3,5.772-4,8.414-1.769l2.51,2.122ZM72,308.34l-.431-.314c-1.234-.895-2.982.291-4.6,2.206-1.571,1.857-2.567,3.976-1.493,5.033l.367.36Z" fill="#fec32e"/>
      <path id="Path_2249" data-name="Path 2249" d="M58.375,311.922l-4.6-4.344,1.539-1.63,2.5,2.362,2.245-2.375-2.307-2.179,1.54-1.63L61.6,304.3l2.544-2.693-2.6-2.453,1.565-1.656,4.7,4.436Z" fill="#fec32e"/>
      <path id="Path_2250" data-name="Path 2250" d="M51.142,298.93c-.895.768-1.489,1.881-.876,2.529.993,1.048,3.053-.065,5.08-1.985,2.18-2.064,3.348-3.981,2.25-5.139-.719-.759-2.014-.551-3.344.89L56.32,296.8l-1.808,1.711-3.643-3.849c3.693-3.393,6.413-3.56,8.241-1.629,2.3,2.427,1.106,5.754-1.819,8.523-2.813,2.665-6.331,3.536-8.525,1.219-1.594-1.683-1.445-4.152.272-6.067Z" fill="#fec32e"/>
      <path id="Path_2251" data-name="Path 2251" d="M41.088,294.157c-1.832-2.207-1.042-5.627,2.379-8.466,2.865-2.377,6.591-3.123,8.64-.654,2.014,2.427.749,5.87-2.305,8.407-3.465,2.875-6.895,2.906-8.714.713m9.414-7.812c-.971-1.169-3.05.014-5.111,1.724-2.207,1.832-3.714,3.674-2.768,4.815.994,1.2,3.135-.06,5.24-1.807,2.31-1.916,3.573-3.606,2.639-4.732" fill="#fec32e"/>
      <path id="Path_2252" data-name="Path 2252" d="M33.65,284.562c-1.679-2.327-.66-5.687,2.946-8.291,3.021-2.18,6.79-2.674,8.669-.069,1.847,2.558.353,5.911-2.869,8.235-3.652,2.637-7.078,2.438-8.746.125m9.925-7.163c-.89-1.233-3.046-.192-5.219,1.376-2.327,1.68-3.956,3.417-3.088,4.619.912,1.264,3.134.153,5.353-1.449,2.435-1.757,3.81-3.359,2.954-4.546" fill="#fec32e"/>
      <path id="Path_2253" data-name="Path 2253" d="M29.553,278.208l-1.8-2.866c-1.576-2.511-.68-5.7,3.134-8.092,3.333-2.09,6.717-2.06,8.556.87l1.747,2.785Zm8.3-8.688-.315-.43c-.9-1.227-2.93-.63-5.055.7-2.061,1.293-3.653,3.011-2.952,4.343l.241.455Z" fill="#fec32e"/>
      <path id="Path_2254" data-name="Path 2254" d="M27.251,267.716c-2.461,1.124-4.222.058-5-1.337a3.292,3.292,0,0,1,1.146-4.716c1.345-.745,2.884-.36,4.351-.022a2.888,2.888,0,0,0,2.134-.421,2.132,2.132,0,0,0,.4-.289l1.077,1.945a2.448,2.448,0,0,1-.448.29,5.7,5.7,0,0,1-3.767.567,3.274,3.274,0,0,0-2.085.351c-.815.451-1.227.962-.969,1.427.267.482.984.17,1.709-.4Zm4.6-6.476a1.511,1.511,0,0,1,2.643-1.464,1.511,1.511,0,0,1-2.643,1.464" fill="#fec32e"/>
      <path id="Path_2255" data-name="Path 2255" d="M9.515,237.284l8.438-3.378-.045-.145L8.766,235.05l-.8-2.518,8.137-4.14-.046-.145-8.768,2.027-.73-2.3,13.595-2.584.921,2.9-7.839,3.885.047.145,8.677-1.241.932,2.935-12.565,5.825Z" fill="#fec32e"/>
      <path id="Path_2256" data-name="Path 2256" d="M5.273,222.668l5.34-1.274L10,218.807l-5.341,1.274-.692-2.9,13.36-3.189.692,2.9-5.857,1.4.617,2.587,5.857-1.4.675,2.827L5.947,225.495Z" fill="#fec32e"/>
      <path id="Path_2257" data-name="Path 2257" d="M2.292,209.739c-.48-2.83,1.92-5.4,6.3-6.138,3.672-.622,7.272.6,7.808,3.767.527,3.11-2.294,5.458-6.21,6.121-4.441.752-7.427-.94-7.9-3.75M14.359,207.7c-.254-1.5-2.647-1.518-5.29-1.07-2.829.479-5.058,1.319-4.81,2.78.26,1.537,2.745,1.521,5.442,1.064,2.961-.5,4.9-1.332,4.658-2.774" fill="#fec32e"/>
      <rect id="Rectangle_576" data-name="Rectangle 576" width="13.738" height="2.945" transform="translate(0.68 194.757) rotate(-5.279)" fill="#fec32e"/>
      <path id="Path_2258" data-name="Path 2258" d="M10.206,189.019c1.149.151,2.122-.184,2.085-.9-.028-.57-.574-.827-1.258-.793a3.091,3.091,0,0,0-2.4,1.777c-.911,1.55-2.278,3.1-4.386,3.21a3.7,3.7,0,0,1-4.174-3.5c-.094-1.879,1.115-3.539,3.7-3.9l.151,2.962c-1.012-.064-1.853.246-1.824.815.024.475.61.768,1.388.728.74-.037,1.436-.585,2.063-1.721.959-1.742,2.313-3.182,4.552-3.3a3.7,3.7,0,0,1,4.179,3.6c.082,1.613-.8,3.789-3.92,4.137Z" fill="#fec32e"/>
      <path id="Path_2259" data-name="Path 2259" d="M0,177.043l.142-3.455,8.979-1.058.007-.152L.266,170.569l.14-3.435,13.765-.424-.1,2.524-9.053.067-.006.151,9.243,2.242-.083,2.032-9.394,1.421-.006.152,9.016.826-.1,2.486Z" fill="#fec32e"/>
      <path id="Path_2260" data-name="Path 2260" d="M12.244,159.634l-.294,2.683,2.632.748-.3,2.758-13.35-4.3.38-3.457,13.981-1.447-.315,2.872Zm-7.579.429-.017.151L9.8,161.736l.22-2Z" fill="#fec32e"/>
      <path id="Path_2261" data-name="Path 2261" d="M1.937,153.125l.571-3.332c.5-2.92,3.29-4.7,7.726-3.938,3.876.663,6.377,2.94,5.794,6.349l-.555,3.238Zm11.974-.937.052-.531c.144-1.517-1.763-2.421-4.235-2.844-2.4-.41-4.727-.192-5.092,1.268l-.124.5Z" fill="#fec32e"/>
      <path id="Path_2262" data-name="Path 2262" d="M3.9,142.267,5.308,136.1l2.186.5-.766,3.353,3.187.726.706-3.093,2.185.5-.706,3.094,3.613.824.794-3.482,2.223.507-1.436,6.3Z" fill="#fec32e"/>
      <path id="Path_2263" data-name="Path 2263" d="M11.446,129.4c-1.115-.382-2.376-.331-2.624.526-.4,1.387,1.6,2.6,4.284,3.375,2.884.835,5.128.871,5.571-.662.29-1-.544-2.016-2.46-2.432l-.312,2.58-2.391-.692L14.988,127c4.8,1.466,6.318,3.726,5.579,6.281-.93,3.212-4.4,3.868-8.271,2.749-3.723-1.077-6.256-3.669-5.37-6.735.645-2.226,2.849-3.349,5.371-2.837Z" fill="#fec32e"/>
      <path id="Path_2264" data-name="Path 2264" d="M10.456,118.332c.977-2.7,4.328-3.748,8.509-2.234,3.5,1.267,6.032,4.1,4.939,7.124-1.074,2.965-4.685,3.618-8.42,2.266-4.235-1.533-6-4.476-5.028-7.156M21.963,122.5c.518-1.43-1.556-2.625-4.075-3.537-2.7-.977-5.051-1.344-5.556.05-.53,1.466,1.639,2.675,4.212,3.607,2.823,1.022,4.921,1.256,5.419-.12" fill="#fec32e"/>
      <path id="Path_2265" data-name="Path 2265" d="M14.98,107.075c1.159-2.625,4.573-3.443,8.639-1.647,3.407,1.5,5.737,4.506,4.44,7.443-1.275,2.885-4.921,3.29-8.554,1.685-4.118-1.819-5.677-4.875-4.525-7.481m11.192,4.942c.614-1.391-1.372-2.725-3.822-3.807-2.625-1.159-4.947-1.685-5.545-.33-.63,1.425,1.451,2.781,3.954,3.886,2.745,1.212,4.822,1.59,5.413.251" fill="#fec32e"/>
      <path id="Path_2266" data-name="Path 2266" d="M18.4,100.3l1.564-3c1.371-2.628,4.572-3.465,8.565-1.382,3.488,1.819,5.17,4.755,3.571,7.821l-1.521,2.914ZM30.09,103.08l.212-.489c.6-1.4-.937-2.846-3.16-4.006C24.986,97.46,22.7,96.953,21.9,98.23l-.271.438Z" fill="#fec32e"/>
      <path id="Path_2267" data-name="Path 2267" d="M26.291,93c-2.213-1.558-2.184-3.618-1.368-4.991a3.293,3.293,0,0,1,4.651-1.394c1.324.786,1.768,2.31,2.218,3.749a2.888,2.888,0,0,0,1.441,1.629,2.171,2.171,0,0,0,.455.2l-1.136,1.912a2.418,2.418,0,0,1-.477-.239A5.7,5.7,0,0,1,29.682,90.9a3.286,3.286,0,0,0-1.357-1.624c-.8-.474-1.45-.573-1.721-.115-.282.474.349.936,1.211,1.271Zm7.918.7a1.511,1.511,0,0,1,2.6,1.543,1.512,1.512,0,0,1-2.6-1.543" fill="#fec32e"/>
      <path id="Path_2268" data-name="Path 2268" d="M43.58,62.34,50.765,67.9l.1-.114-5.74-7.225L46.891,58.6l7.687,4.916.1-.113-6.187-6.53,1.612-1.794,9.112,10.408-2.032,2.26-7.317-4.787-.1.113,5.463,6.851-2.056,2.289L41.79,64.332Z" fill="#fec32e"/>
      <path id="Path_2269" data-name="Path 2269" d="M54.015,51.271l3.81,3.956,1.917-1.846-3.811-3.956,2.148-2.069,9.533,9.895-2.149,2.071-4.179-4.339-1.916,1.846,4.178,4.338-2.094,2.017-9.532-9.9Z" fill="#fec32e"/>
      <path id="Path_2270" data-name="Path 2270" d="M63.637,42.154c2.194-1.852,5.622-1.088,8.49,2.311,2.4,2.848,3.177,6.568.722,8.638-2.411,2.034-5.867.8-8.427-2.24-2.9-3.442-2.963-6.873-.785-8.709m7.891,9.353c1.162-.978-.037-3.051-1.765-5.1-1.85-2.193-3.706-3.685-4.839-2.73-1.191,1.006.084,3.136,1.849,5.227,1.936,2.3,3.637,3.546,4.755,2.6" fill="#fec32e"/>
      <rect id="Rectangle_577" data-name="Rectangle 577" width="2.947" height="13.742" transform="matrix(0.811, -0.585, 0.585, 0.811, 73.332, 34.871)" fill="#fec32e"/>
      <path id="Path_2271" data-name="Path 2271" d="M85.491,38.45c.454,1.066,1.236,1.733,1.838,1.336.475-.315.421-.915.044-1.486a3.092,3.092,0,0,0-2.751-1.166c-1.8,0-3.828-.386-4.99-2.146a3.691,3.691,0,0,1,.893-5.37c1.57-1.037,3.612-.838,5.237,1.208L83.289,32.46c-.46-.9-1.152-1.471-1.628-1.156-.4.261-.353.915.077,1.565a2.733,2.733,0,0,0,2.53.9c1.988-.059,3.913.376,5.149,2.247a3.7,3.7,0,0,1-.973,5.423c-1.348.89-3.667,1.238-5.553-1.274Z" fill="#fec32e"/>
      <path id="Path_2272" data-name="Path 2272" d="M90.639,23.564l3.049-1.63,5.467,7.2.133-.071L96.352,20.51l3.032-1.622,7.348,11.648L104.5,31.727l-4.648-7.768-.135.071,2.756,9.1-1.792.958-5.989-7.375-.135.072,3.861,8.19-2.194,1.173Z" fill="#fec32e"/>
      <path id="Path_2273" data-name="Path 2273" d="M111.846,25.311l-2.461,1.1.687,2.648L107.541,30.2l-3.05-13.682,3.172-1.421,8.32,11.321-2.635,1.18Zm-4.2-6.317-.139.062,1.293,5.208,1.837-.824Z" fill="#fec32e"/>
      <path id="Path_2274" data-name="Path 2274" d="M112.277,13.107l3.164-1.2c2.772-1.048,5.719.46,7.31,4.673,1.39,3.68.69,6.991-2.545,8.213l-3.076,1.161Zm6.87,9.856.484-.224c1.382-.643,1.2-2.747.311-5.093-.859-2.276-2.227-4.176-3.672-3.752l-.493.145Z" fill="#fec32e"/>
      <path id="Path_2275" data-name="Path 2275" d="M122.616,9.328l6.032-1.9.675,2.137L126.045,10.6l.984,3.115,3.024-.955.676,2.136-3.025.957,1.116,3.531,3.4-1.075.687,2.173-6.158,1.946Z" fill="#fec32e"/>
      <path id="Path_2276" data-name="Path 2276" d="M137.537,9.318c-.235-1.156-.917-2.218-1.782-2-1.4.356-1.432,2.7-.743,5.405.74,2.91,1.844,4.864,3.391,4.471,1.014-.258,1.465-1.49.854-3.355l-2.384,1.039-.613-2.414L141.4,11.16c1.163,4.881-.016,7.338-2.594,7.993-3.242.825-5.567-1.839-6.56-5.743-.955-3.758,0-7.255,3.092-8.042,2.247-.571,4.331.761,5.167,3.2Z" fill="#fec32e"/>
      <path id="Path_2277" data-name="Path 2277" d="M146.563,2.89c2.821-.522,5.419,1.838,6.227,6.209.676,3.66-.492,7.275-3.649,7.857-3.1.573-5.487-2.212-6.208-6.115-.817-4.427.83-7.435,3.63-7.951m2.221,12.027c1.494-.275,1.478-2.668.991-5.3-.52-2.82-1.392-5.035-2.849-4.765-1.532.282-1.479,2.764-.983,5.454.545,2.95,1.4,4.878,2.841,4.612" fill="#fec32e"/>
      <path id="Path_2278" data-name="Path 2278" d="M158.593,1.078c2.85-.33,5.285,2.2,5.8,6.617.427,3.7-.982,7.228-4.172,7.6-3.133.362-5.328-2.579-5.784-6.524-.518-4.474,1.329-7.364,4.16-7.691M160,13.233c1.51-.175,1.654-2.563,1.347-5.225-.329-2.85-1.051-5.119-2.523-4.949-1.548.179-1.663,2.659-1.348,5.378.344,2.983,1.071,4.964,2.524,4.8" fill="#fec32e"/>
      <path id="Path_2279" data-name="Path 2279" d="M166.146.6l3.378-.171c2.962-.15,5.306,2.186,5.534,6.685.2,3.929-1.479,6.869-4.934,7.043l-3.284.167Zm3.531,11.487.529-.064c1.513-.192,1.98-2.251,1.853-4.757-.123-2.43-.845-4.658-2.351-4.7l-.513-.012Z" fill="#fec32e"/>
      <path id="Path_2280" data-name="Path 2280" d="M176.525,3.667c.252-2.694,2.054-3.692,3.65-3.667a3.293,3.293,0,0,1,3.519,3.345c-.025,1.538-1.126,2.681-2.152,3.784a2.89,2.89,0,0,0-.7,2.061,2.193,2.193,0,0,0,.049.5l-2.223-.037a2.37,2.37,0,0,1-.029-.532,5.7,5.7,0,0,1,1.387-3.55,3.281,3.281,0,0,0,.735-1.984c.015-.93-.223-1.543-.755-1.552-.551-.008-.639.771-.5,1.685Zm3.323,7.216A1.511,1.511,0,0,1,179.8,13.9a1.511,1.511,0,0,1,.048-3.022" fill="#fec32e"/>
      <path id="Path_2281" data-name="Path 2281" d="M199.7,5.856a1.5,1.5,0,1,1-1.5,1.5,1.5,1.5,0,0,1,1.5-1.5" fill="#fec32e"/>
      <path id="Path_2282" data-name="Path 2282" d="M338.047,112.1a1.5,1.5,0,1,1-1.5,1.5,1.5,1.5,0,0,1,1.5-1.5" fill="#fec32e"/>
      <path id="Path_2283" data-name="Path 2283" d="M316.691,280.312a1.5,1.5,0,1,1-1.5,1.5,1.5,1.5,0,0,1,1.5-1.5" fill="#fec32e"/>
      <path id="Path_2284" data-name="Path 2284" d="M159.392,350.223a1.5,1.5,0,1,1-1.5,1.5,1.5,1.5,0,0,1,1.5-1.5" fill="#fec32e"/>
      <path id="Path_2285" data-name="Path 2285" d="M20.466,247.149a1.5,1.5,0,1,1-1.5,1.5,1.5,1.5,0,0,1,1.5-1.5" fill="#fec32e"/>
      <path id="Path_2286" data-name="Path 2286" d="M38.392,76.542a1.5,1.5,0,1,1-1.5,1.5,1.5,1.5,0,0,1,1.5-1.5" fill="#fec32e"/>
    </g>
  </g>
</svg>
