<svg id="Group_4798" data-name="Group 4798" xmlns="http://www.w3.org/2000/svg" xmlns:xlink="http://www.w3.org/1999/xlink" width="358.729" height="358.729" viewBox="0 0 358.729 358.729">
  <defs>
    <clipPath id="clip-path">
      <rect id="Rectangle_584" data-name="Rectangle 584" width="358.729" height="358.729" fill="#fec32e"/>
    </clipPath>
  </defs>
  <g id="Group_4797" data-name="Group 4797" clip-path="url(#clip-path)">
    <path id="Path_2203" data-name="Path 2203" d="M221.854,9.5c.264-1.187.23-2.27-.527-2.451-1.183-.283-2.135,1.735-2.787,4.452-.575,2.4-.721,4.81.5,5.1.813.194,1.355-.848,1.649-1.99l3.122.748c-1.039,2.545-3.275,3.808-5.271,3.329-3.437-.823-3.892-4.878-3.166-7.909.795-3.326,3.146-6.612,6.454-5.82,2,.477,3.384,2.589,3.112,5.278Z" fill="#fec32e"/>
    <path id="Path_2204" data-name="Path 2204" d="M232.495,7.709c2.742.847,3.95,4.145,2.636,8.394-1.1,3.559-3.814,6.221-6.882,5.273-3.015-.933-3.838-4.509-2.664-8.3,1.33-4.3,4.187-6.206,6.91-5.363M228.879,19.4c1.453.449,2.549-1.679,3.34-4.239.848-2.741,1.1-5.111-.314-5.548-1.488-.461-2.594,1.764-3.4,4.379-.887,2.869-1.021,4.975.377,5.408" fill="#fec32e"/>
    <path id="Path_2205" data-name="Path 2205" d="M239.549,10.308l3.28,1.259-.655,9.391.106.04,3.208-8.411,2.217.852-4.921,12.818-3.209-1.231.628-9.321-.106-.041-3.181,8.341-2.288-.879Z" fill="#fec32e"/>
    <path id="Path_2206" data-name="Path 2206" d="M246.109,27.736l4.72-10.443-2.165-.979.939-2.078,7.1,3.209-.939,2.079-2.2-.994-4.72,10.442Z" fill="#fec32e"/>
    <path id="Path_2207" data-name="Path 2207" d="M258.411,18.3l5.63,2.881L263.02,23.18l-3.06-1.565-1.488,2.908,2.824,1.444-1.022,1.995-2.823-1.445-1.687,3.3,3.178,1.627L257.9,33.469l-5.748-2.941Z" fill="#fec32e"/>
    <path id="Path_2208" data-name="Path 2208" d="M266.134,22.3l3.031,1.775-2.173,9.16.1.057,4.532-7.777,2.049,1.2-6.939,11.849-2.966-1.738,2.135-9.093-.1-.058-4.494,7.712-2.114-1.238Z" fill="#fec32e"/>
    <path id="Path_2209" data-name="Path 2209" d="M269.742,40.545,276.092,31l-1.979-1.316,1.264-1.9,6.487,4.317L280.6,34l-2.008-1.337-6.349,9.541Z" fill="#fec32e"/>
    <path id="Path_2210" data-name="Path 2210" d="M287.909,36.482l2.693,2.17-4.49,7.85.118.1,6.726-6.051,2.68,2.158-7.847,11.321-1.969-1.586,5.332-7.319-.118-.095-7.3,6.1-1.584-1.276,4.446-8.4-.119-.1-6.028,6.759-1.938-1.561Z" fill="#fec32e"/>
    <path id="Path_2211" data-name="Path 2211" d="M301.74,47.861c2.1,1.953,1.753,5.445-1.274,8.7-2.537,2.725-6.134,3.941-8.484,1.754-2.307-2.148-1.495-5.725,1.209-8.629,3.068-3.3,6.463-3.766,8.549-1.824m-8.333,8.951c1.111,1.035,3.021-.4,4.847-2.363,1.953-2.1,3.212-4.119,2.127-5.129-1.14-1.061-3.1.461-4.964,2.462-2.045,2.2-3.08,4.034-2.01,5.03" fill="#fec32e"/>
    <path id="Path_2212" data-name="Path 2212" d="M297.7,63.486l8.263-7.94-1.647-1.713,1.645-1.58,5.4,5.618-1.643,1.58-1.673-1.74-8.263,7.94Z" fill="#fec32e"/>
    <rect id="Rectangle_572" data-name="Rectangle 572" width="13.73" height="2.943" transform="translate(302.31 68.381) rotate(-41.57)" fill="#fec32e"/>
    <path id="Path_2213" data-name="Path 2213" d="M319.478,66.926c1.8,2.237.952,5.646-2.515,8.431-2.9,2.334-6.642,3.02-8.654.516-1.976-2.46-.655-5.884,2.441-8.372,3.511-2.82,6.943-2.8,8.728-.575m-9.542,7.665c.952,1.186,3.052.035,5.141-1.643,2.237-1.8,3.773-3.617,2.845-4.773-.976-1.215-3.137.01-5.27,1.724-2.342,1.88-3.632,3.551-2.716,4.692" fill="#fec32e"/>
    <path id="Path_2214" data-name="Path 2214" d="M323.856,73l2.016,2.879-5.8,7.42.065.094,7.367-5.18,1.362,1.945-11.253,7.877-1.972-2.816,5.735-7.377-.065-.094-7.3,5.136L312.6,80.876Z" fill="#fec32e"/>
    <path id="Path_2215" data-name="Path 2215" d="M323.741,98.136l-1.721-2.977,10.419-9.422,1.55,2.68L326.2,94.829l.057.1,9.4-3.633,1.368,2.369Z" fill="#fec32e"/>
    <rect id="Rectangle_573" data-name="Rectangle 573" width="13.732" height="2.944" transform="matrix(0.887, -0.462, 0.462, 0.887, 325.652, 101.628)" fill="#fec32e"/>
    <path id="Path_2216" data-name="Path 2216" d="M340.465,100.324l1.423,3.068c1.247,2.691-.041,5.739-4.128,7.635-3.569,1.654-6.923,1.2-8.378-1.94L328,106.105Zm-9.33,7.574.258.467c.743,1.331,2.828.992,5.1-.063,2.207-1.023,4-2.527,3.476-3.937l-.182-.481Z" fill="#fec32e"/>
    <path id="Path_2217" data-name="Path 2217" d="M344.978,110.33l2.342,5.879-2.083.83-1.274-3.2-3.036,1.209L342.1,118l-2.083.83-1.175-2.949-3.443,1.372,1.323,3.319-2.119.844-2.392-6Z" fill="#fec32e"/>
    <path id="Path_2218" data-name="Path 2218" d="M349.845,122.609c.907,2.72-1.071,5.621-5.288,7.023-3.532,1.176-7.273.52-8.287-2.526-.995-2.991,1.433-5.741,5.2-6.994,4.271-1.421,7.477-.206,8.376,2.5m-11.6,3.861c.479,1.441,2.846,1.1,5.387.249,2.72-.9,4.794-2.075,4.326-3.481-.492-1.477-2.942-1.082-5.537-.219-2.848.947-4.638,2.064-4.176,3.451" fill="#fec32e"/>
    <path id="Path_2219" data-name="Path 2219" d="M343.985,139c-1.158.062-2.052.568-1.884,1.271.133.555.716.708,1.382.548a3.093,3.093,0,0,0,2.035-2.186c.612-1.691,1.671-3.469,3.722-3.959a3.692,3.692,0,0,1,4.743,2.674c.439,1.829-.446,3.681-2.925,4.509l-.69-2.882c1.006-.123,1.775-.581,1.642-1.135-.11-.463-.74-.644-1.5-.463-.72.174-1.3.84-1.712,2.071-.622,1.888-1.689,3.55-3.87,4.073a3.7,3.7,0,0,1-4.765-2.767c-.376-1.57.09-3.87,3.094-4.785Z" fill="#fec32e"/>
    <path id="Path_2220" data-name="Path 2220" d="M356.243,147.835c.5,2.824-1.879,5.406-6.257,6.182-3.666.648-7.273-.545-7.833-3.707-.55-3.106,2.253-5.473,6.163-6.165,4.434-.784,7.431.884,7.927,3.69M344.2,149.968c.266,1.5,2.658,1.5,5.3,1.03,2.824-.5,5.046-1.356,4.788-2.815-.271-1.534-2.755-1.5-5.448-1.024-2.956.524-4.891,1.368-4.636,2.809" fill="#fec32e"/>
    <path id="Path_2221" data-name="Path 2221" d="M353.485,161.231c1.206-.155,2.212-.555,2.125-1.328-.136-1.208-2.357-1.417-5.132-1.106-2.453.277-4.766.956-4.626,2.2.093.83,1.258.986,2.43.873l.358,3.19c-2.746-.112-4.692-1.786-4.921-3.824-.394-3.511,3.263-5.318,6.359-5.665,3.4-.382,7.286.711,7.665,4.09.229,2.038-1.282,4.061-3.9,4.718Z" fill="#fec32e"/>
    <rect id="Rectangle_574" data-name="Rectangle 574" width="13.732" height="2.944" transform="translate(344.524 166.827) rotate(-3.758)" fill="#fec32e"/>
    <path id="Path_2222" data-name="Path 2222" d="M347.668,176.8l-.061-2.7-2.708-.4-.062-2.773,13.8,2.5.078,3.476-13.669,3.272-.065-2.887Zm7.457-1.423,0-.151-5.3-.83.045,2.013Z" fill="#fec32e"/>
    <path id="Path_2223" data-name="Path 2223" d="M358.728,181.765l-.084,2.982-11.4-.32-.09,3.192-2.337-.065.174-6.175Z" fill="#fec32e"/>
    <path id="Path_2224" data-name="Path 2224" d="M349.225,221.853c1.187.265,2.27.23,2.451-.526.283-1.183-1.736-2.136-4.452-2.787-2.4-.574-4.81-.721-5.1.5-.194.812.848,1.355,1.99,1.648l-.748,3.123c-2.545-1.039-3.807-3.275-3.329-5.271.823-3.438,4.878-3.893,7.909-3.166,3.326.8,6.612,3.146,5.82,6.454-.477,2-2.589,3.385-5.278,3.112Z" fill="#fec32e"/>
    <path id="Path_2225" data-name="Path 2225" d="M351.019,232.495c-.847,2.742-4.146,3.951-8.4,2.637-3.559-1.1-6.221-3.814-5.272-6.883.932-3.014,4.509-3.838,8.3-2.664,4.3,1.331,6.2,4.188,5.363,6.91m-11.693-3.615c-.449,1.452,1.679,2.548,4.238,3.34,2.742.847,5.111,1.1,5.549-.314.46-1.489-1.765-2.594-4.379-3.4-2.869-.887-4.976-1.021-5.408.377" fill="#fec32e"/>
    <path id="Path_2226" data-name="Path 2226" d="M348.442,239.521l-1.259,3.283-9.4-.653-.041.106,8.419,3.209-.851,2.218-12.831-4.921,1.232-3.211,9.328.625.041-.107-8.348-3.18.878-2.289Z" fill="#fec32e"/>
    <path id="Path_2227" data-name="Path 2227" d="M331,246.082l10.443,4.72.979-2.165,2.078.939-3.21,7.1-2.078-.94.994-2.2-10.443-4.721Z" fill="#fec32e"/>
    <path id="Path_2228" data-name="Path 2228" d="M340.425,258.412l-2.881,5.629-1.995-1.021,1.566-3.059-2.908-1.488-1.444,2.823-1.995-1.021,1.444-2.824-3.3-1.686-1.626,3.178L325.26,257.9l2.941-5.748Z" fill="#fec32e"/>
    <path id="Path_2229" data-name="Path 2229" d="M336.45,266.107l-1.775,3.035-9.167-2.172-.058.1,7.785,4.532-1.2,2.05-11.86-6.939,1.737-2.969,9.1,2.133.058-.1-7.72-4.495,1.239-2.116Z" fill="#fec32e"/>
    <path id="Path_2230" data-name="Path 2230" d="M318.183,269.743l9.541,6.349,1.316-1.979,1.9,1.264-4.317,6.488-1.9-1.264,1.338-2.009-9.542-6.349Z" fill="#fec32e"/>
    <path id="Path_2231" data-name="Path 2231" d="M322.264,287.884l-2.169,2.694-7.85-4.491-.1.119,6.051,6.726-2.158,2.679-11.32-7.846,1.585-1.969,7.319,5.332.1-.119-6.1-7.3,1.275-1.584,8.4,4.446.1-.12-6.76-6.027,1.562-1.939Z" fill="#fec32e"/>
    <path id="Path_2232" data-name="Path 2232" d="M310.9,301.722c-1.954,2.1-5.449,1.758-8.7-1.271-2.728-2.536-3.948-6.135-1.761-8.487,2.148-2.309,5.727-1.5,8.635,1.205,3.3,3.068,3.771,6.465,1.831,8.553m-8.961-8.333c-1.036,1.113.4,3.023,2.366,4.849,2.1,1.953,4.124,3.211,5.134,2.125,1.061-1.141-.463-3.1-2.467-4.965-2.2-2.045-4.038-3.08-5.033-2.009" fill="#fec32e"/>
    <path id="Path_2233" data-name="Path 2233" d="M295.243,297.7l7.94,8.262,1.713-1.646,1.58,1.645-5.618,5.4-1.58-1.644,1.74-1.673-7.94-8.263Z" fill="#fec32e"/>
    <rect id="Rectangle_575" data-name="Rectangle 575" width="2.945" height="13.738" transform="matrix(0.748, -0.664, 0.664, 0.748, 288.167, 304.246)" fill="#fec32e"/>
    <path id="Path_2234" data-name="Path 2234" d="M291.825,319.459c-2.237,1.8-5.646.953-8.432-2.515-2.332-2.9-3.019-6.641-.515-8.653,2.46-1.977,5.884-.656,8.372,2.44,2.82,3.512,2.8,6.943.575,8.728m-7.665-9.541c-1.186.951-.035,3.051,1.643,5.141,1.8,2.236,3.617,3.773,4.772,2.845,1.215-.976-.009-3.137-1.723-5.271-1.88-2.341-3.551-3.631-4.692-2.715" fill="#fec32e"/>
    <path id="Path_2235" data-name="Path 2235" d="M285.728,323.856l-2.88,2.016-7.421-5.8-.093.066,5.18,7.365-1.946,1.363-7.877-11.253,2.817-1.972,7.378,5.735.093-.065-5.136-7.3,2.008-1.406Z" fill="#fec32e"/>
    <path id="Path_2236" data-name="Path 2236" d="M260.618,323.73l2.978-1.724,9.433,10.417-2.682,1.552-6.419-7.791-.1.058,3.641,9.4-2.37,1.371Z" fill="#fec32e"/>
    <rect id="Rectangle_576" data-name="Rectangle 576" width="2.946" height="13.738" transform="translate(254.516 327.001) rotate(-27.548)" fill="#fec32e"/>
    <path id="Path_2237" data-name="Path 2237" d="M258.4,340.463l-3.069,1.423c-2.69,1.248-5.738-.041-7.633-4.127-1.655-3.569-1.2-6.924,1.939-8.379L252.623,328Zm-7.573-9.33-.467.259c-1.332.742-.993,2.828.062,5.1,1.023,2.207,2.527,4,3.937,3.475l.482-.182Z" fill="#fec32e"/>
    <path id="Path_2238" data-name="Path 2238" d="M248.427,344.966l-5.879,2.344-.83-2.084,3.2-1.274-1.21-3.036-2.948,1.175-.83-2.084,2.948-1.174L241.5,335.39l-3.319,1.322-.844-2.118,6-2.392Z" fill="#fec32e"/>
    <path id="Path_2239" data-name="Path 2239" d="M236.119,349.847c-2.72.905-5.621-1.072-7.023-5.289-1.176-3.532-.52-7.273,2.526-8.287,2.991-.995,5.741,1.433,6.994,5.2,1.421,4.27.206,7.476-2.5,8.376m-3.861-11.6c-1.442.479-1.1,2.846-.249,5.387.9,2.72,2.075,4.794,3.481,4.326,1.478-.492,1.082-2.942.219-5.537-.947-2.848-2.063-4.638-3.451-4.176" fill="#fec32e"/>
    <path id="Path_2240" data-name="Path 2240" d="M219.762,343.978c-.062-1.158-.569-2.053-1.271-1.885-.555.133-.708.717-.549,1.383a3.091,3.091,0,0,0,2.187,2.035c1.691.612,3.468,1.67,3.959,3.722a3.693,3.693,0,0,1-2.674,4.743c-1.83.439-3.682-.446-4.51-2.925l2.882-.69c.123,1.006.581,1.775,1.136,1.642.462-.11.644-.74.462-1.5-.173-.72-.84-1.3-2.07-1.711-1.889-.623-3.551-1.69-4.073-3.871a3.7,3.7,0,0,1,2.766-4.765c1.571-.375,3.87.09,4.785,3.093Z" fill="#fec32e"/>
    <path id="Path_2241" data-name="Path 2241" d="M210.937,356.242c-2.826.5-5.41-1.875-6.188-6.252-.651-3.667.54-7.275,3.7-7.838,3.106-.552,5.476,2.25,6.171,6.159.788,4.434-.878,7.433-3.684,7.931M208.794,344.2c-1.5.266-1.5,2.658-1.026,5.3.5,2.824,1.36,5.045,2.819,4.786,1.534-.272,1.5-2.756,1.02-5.45-.527-2.955-1.373-4.889-2.813-4.633" fill="#fec32e"/>
    <path id="Path_2242" data-name="Path 2242" d="M197.53,353.482c.154,1.207.555,2.213,1.328,2.126,1.208-.136,1.417-2.357,1.106-5.132-.276-2.454-.956-4.766-2.2-4.627-.83.094-.986,1.258-.873,2.43l-3.19.359c.112-2.746,1.786-4.693,3.824-4.922,3.511-.394,5.318,3.264,5.665,6.36.382,3.4-.711,7.285-4.089,7.665-2.039.229-4.062-1.282-4.72-3.9Z" fill="#fec32e"/>
    <rect id="Rectangle_577" data-name="Rectangle 577" width="2.944" height="13.732" transform="translate(188.994 344.715) rotate(-3.778)" fill="#fec32e"/>
    <path id="Path_2243" data-name="Path 2243" d="M181.93,347.669l2.7-.061.395-2.708,2.773-.062-2.5,13.8-3.476.078-3.273-13.668,2.888-.066Zm1.422,7.457.152,0,.831-5.3-2.013.045Z" fill="#fec32e"/>
    <path id="Path_2244" data-name="Path 2244" d="M177.007,358.729l-2.982-.081.31-11.4-3.191-.088.064-2.336,6.174.168Z" fill="#fec32e"/>
    <path id="Path_2245" data-name="Path 2245" d="M136.907,349.231c-.265,1.187-.231,2.27.526,2.451,1.183.283,2.135-1.735,2.787-4.452.575-2.4.721-4.81-.5-5.1-.813-.194-1.355.848-1.648,1.99l-3.123-.748c1.039-2.545,3.275-3.808,5.271-3.329,3.437.823,3.892,4.878,3.166,7.909-.795,3.326-3.146,6.612-6.454,5.82-1.995-.477-3.384-2.589-3.112-5.278Z" fill="#fec32e"/>
    <path id="Path_2246" data-name="Path 2246" d="M126.264,351.029c-2.742-.848-3.95-4.146-2.636-8.395,1.1-3.56,3.814-6.222,6.882-5.273,3.015.932,3.838,4.51,2.664,8.3-1.33,4.3-4.187,6.205-6.91,5.363m3.616-11.694c-1.453-.449-2.549,1.679-3.34,4.239-.848,2.742-1.1,5.11.314,5.548,1.488.46,2.594-1.764,3.4-4.379.887-2.868,1.021-4.975-.377-5.408" fill="#fec32e"/>
    <path id="Path_2247" data-name="Path 2247" d="M119.208,348.443l-3.283-1.259.653-9.4-.106-.041-3.208,8.419-2.219-.852,4.921-12.83,3.212,1.232-.626,9.328.106.04,3.182-8.347,2.289.878Z" fill="#fec32e"/>
    <path id="Path_2248" data-name="Path 2248" d="M112.677,331.019l-4.711,10.443,2.165.977-.937,2.078-7.1-3.2.938-2.078,2.2.992,4.711-10.443Z" fill="#fec32e"/>
    <path id="Path_2249" data-name="Path 2249" d="M100.346,340.439l-5.63-2.882,1.021-1.995,3.06,1.566,1.488-2.908-2.824-1.445,1.022-1.994,2.823,1.444,1.687-3.3L99.815,327.3l1.038-2.029,5.748,2.941Z" fill="#fec32e"/>
    <path id="Path_2250" data-name="Path 2250" d="M92.648,336.466l-3.034-1.776,2.171-9.167-.1-.057-4.532,7.784-2.051-1.2,6.94-11.859,2.968,1.738-2.133,9.1.1.058,4.494-7.719,2.116,1.239Z" fill="#fec32e"/>
    <path id="Path_2251" data-name="Path 2251" d="M89.013,318.2l-6.35,9.541,1.979,1.316-1.264,1.9-6.487-4.317,1.264-1.9,2.008,1.336,6.349-9.541Z" fill="#fec32e"/>
    <path id="Path_2252" data-name="Path 2252" d="M70.844,322.265l-2.693-2.17,4.49-7.85-.118-.1L65.8,318.2l-2.68-2.158,7.847-11.321,1.969,1.586L67.6,313.627l.118.1,7.3-6.1L76.6,308.9l-4.446,8.4.119.1,6.028-6.759,1.938,1.561Z" fill="#fec32e"/>
    <path id="Path_2253" data-name="Path 2253" d="M57.03,310.921c-2.1-1.954-1.758-5.448,1.27-8.7,2.536-2.728,6.135-3.947,8.487-1.761,2.31,2.149,1.5,5.728-1.205,8.636-3.067,3.3-6.465,3.771-8.552,1.83m8.333-8.962c-1.113-1.035-3.024.406-4.849,2.368-1.954,2.1-3.212,4.124-2.126,5.133,1.141,1.062,3.1-.462,4.966-2.466,2.044-2.2,3.08-4.039,2.009-5.035" fill="#fec32e"/>
    <path id="Path_2254" data-name="Path 2254" d="M61.046,295.267l-8.253,7.94,1.646,1.711L52.8,306.5l-5.4-5.612,1.642-1.58,1.672,1.738,8.254-7.939Z" fill="#fec32e"/>
    <rect id="Rectangle_578" data-name="Rectangle 578" width="13.738" height="2.945" transform="translate(44.212 297.292) rotate(-41.614)" fill="#fec32e"/>
    <path id="Path_2255" data-name="Path 2255" d="M39.3,291.854c-1.8-2.235-.955-5.642,2.509-8.427,2.9-2.333,6.636-3.021,8.647-.52,1.977,2.457.659,5.88-2.435,8.368-3.507,2.82-6.936,2.8-8.721.579m9.531-7.665c-.952-1.184-3.049-.033-5.136,1.645-2.235,1.8-3.77,3.617-2.842,4.771.976,1.213,3.135-.012,5.267-1.725,2.339-1.88,3.628-3.55,2.711-4.691" fill="#fec32e"/>
    <path id="Path_2256" data-name="Path 2256" d="M34.891,285.765l-2.019-2.879,5.8-7.429-.066-.092-7.366,5.186-1.364-1.945,11.253-7.888,1.975,2.817-5.733,7.384.065.094,7.305-5.144,1.407,2.008Z" fill="#fec32e"/>
    <path id="Path_2257" data-name="Path 2257" d="M35,260.619l1.724,2.978L26.305,273.03l-1.552-2.681,7.791-6.42-.057-.1-9.4,3.641-1.371-2.37Z" fill="#fec32e"/>
    <rect id="Rectangle_579" data-name="Rectangle 579" width="13.738" height="2.945" transform="translate(19.562 260.898) rotate(-27.548)" fill="#fec32e"/>
    <path id="Path_2258" data-name="Path 2258" d="M18.279,258.432l-1.423-3.069c-1.247-2.69.041-5.738,4.128-7.633,3.569-1.655,6.923-1.2,8.378,1.939l1.384,2.983Zm9.33-7.573-.258-.467c-.743-1.332-2.828-.994-5.1.063-2.207,1.023-4,2.525-3.476,3.935l.182.483Z" fill="#fec32e"/>
    <path id="Path_2259" data-name="Path 2259" d="M13.773,248.457l-2.342-5.879,2.083-.83,1.274,3.2,3.036-1.21-1.175-2.948,2.083-.83,1.175,2.948,3.443-1.371-1.323-3.32,2.119-.844,2.392,6Z" fill="#fec32e"/>
    <path id="Path_2260" data-name="Path 2260" d="M8.9,236.15c-.907-2.72,1.071-5.621,5.288-7.024,3.532-1.175,7.273-.519,8.287,2.526,1,2.992-1.433,5.741-5.2,6.994-4.271,1.422-7.477.207-8.376-2.5m11.6-3.862c-.479-1.441-2.846-1.1-5.387-.249-2.72.906-4.794,2.076-4.326,3.481.492,1.478,2.942,1.083,5.537.22,2.848-.948,4.638-2.064,4.176-3.452" fill="#fec32e"/>
    <path id="Path_2261" data-name="Path 2261" d="M14.759,219.793c1.158-.062,2.052-.568,1.884-1.271-.133-.555-.716-.708-1.382-.548a3.093,3.093,0,0,0-2.035,2.186c-.612,1.691-1.671,3.469-3.722,3.959a3.692,3.692,0,0,1-4.743-2.674c-.439-1.829.446-3.681,2.925-4.509l.69,2.882c-1.006.123-1.775.581-1.642,1.135.11.463.74.644,1.5.463.72-.174,1.3-.84,1.712-2.071.622-1.888,1.689-3.55,3.87-4.073a3.7,3.7,0,0,1,4.765,2.767c.376,1.57-.09,3.87-3.094,4.785Z" fill="#fec32e"/>
    <path id="Path_2262" data-name="Path 2262" d="M2.486,210.937c-.5-2.826,1.875-5.41,6.253-6.188,3.667-.652,7.275.539,7.837,3.7.553,3.106-2.249,5.476-6.159,6.17-4.434.789-7.432-.878-7.931-3.683m12.048-2.143c-.267-1.5-2.659-1.5-5.3-1.027-2.825.5-5.046,1.361-4.786,2.82.272,1.534,2.756,1.5,5.449,1.019,2.956-.526,4.89-1.372,4.634-2.812" fill="#fec32e"/>
    <path id="Path_2263" data-name="Path 2263" d="M5.246,197.53c-1.206.155-2.212.555-2.125,1.328.136,1.208,2.357,1.417,5.132,1.106,2.453-.277,4.766-.956,4.626-2.2-.093-.83-1.258-.986-2.43-.873l-.358-3.19c2.746.112,4.692,1.786,4.921,3.824.394,3.511-3.263,5.318-6.359,5.665-3.4.382-7.286-.711-7.665-4.09-.229-2.038,1.282-4.061,3.9-4.718Z" fill="#fec32e"/>
    <rect id="Rectangle_580" data-name="Rectangle 580" width="13.732" height="2.944" transform="translate(0.315 189.929) rotate(-3.758)" fill="#fec32e"/>
    <path id="Path_2264" data-name="Path 2264" d="M11.062,181.964l.061,2.7,2.708.4.062,2.773-13.8-2.5-.079-3.475,13.669-3.273.065,2.887Zm-7.457,1.422,0,.152,5.3.831-.045-2.013Z" fill="#fec32e"/>
    <path id="Path_2265" data-name="Path 2265" d="M0,177.04l.082-2.982,11.4.311.087-3.191,2.337.063-.169,6.175Z" fill="#fec32e"/>
    <path id="Path_2266" data-name="Path 2266" d="M9.491,136.938c-1.187-.265-2.27-.231-2.451.526-.283,1.183,1.735,2.135,4.452,2.786,2.4.576,4.81.722,5.1-.5.194-.813-.848-1.356-1.99-1.648l.748-3.123c2.545,1.039,3.807,3.276,3.329,5.271-.823,3.437-4.878,3.892-7.909,3.167-3.326-.8-6.612-3.147-5.82-6.455.477-2,2.589-3.384,5.278-3.112Z" fill="#fec32e"/>
    <path id="Path_2267" data-name="Path 2267" d="M7.687,126.306c.845-2.742,4.142-3.953,8.391-2.642,3.559,1.1,6.223,3.808,5.277,6.877-.93,3.014-4.506,3.84-8.3,2.67-4.3-1.328-6.207-4.182-5.367-6.9m11.694,3.606c.448-1.453-1.681-2.547-4.241-3.336-2.741-.846-5.11-1.1-5.546.317-.459,1.49,1.766,2.593,4.38,3.4,2.869.885,4.975,1.017,5.407-.381" fill="#fec32e"/>
    <path id="Path_2268" data-name="Path 2268" d="M10.276,119.238l1.259-3.283,9.4.652.041-.106-8.419-3.208.851-2.219,12.831,4.921-1.232,3.212-9.328-.625-.041.106,8.348,3.181-.878,2.289Z" fill="#fec32e"/>
    <path id="Path_2269" data-name="Path 2269" d="M27.7,112.7l-10.443-4.711-.977,2.166-2.078-.937,3.2-7.1,2.078.938-.992,2.2,10.443,4.711Z" fill="#fec32e"/>
    <path id="Path_2270" data-name="Path 2270" d="M18.266,100.373l2.881-5.635,2,1.022-1.565,3.062,2.91,1.489,1.445-2.827,2,1.022-1.444,2.825,3.3,1.688,1.626-3.182,2.031,1.038L30.5,106.629Z" fill="#fec32e"/>
    <path id="Path_2271" data-name="Path 2271" d="M22.248,92.677l1.775-3.035,9.167,2.171.058-.1-7.785-4.533,1.2-2.05,11.86,6.939-1.737,2.969-9.1-2.133-.058.1,7.72,4.494-1.239,2.116Z" fill="#fec32e"/>
    <path id="Path_2272" data-name="Path 2272" d="M40.51,89.039,30.969,82.7l-1.314,1.979-1.9-1.262,4.311-6.488,1.9,1.261L32.63,80.2l9.541,6.34Z" fill="#fec32e"/>
    <path id="Path_2273" data-name="Path 2273" d="M36.444,70.88l2.166-2.693,7.85,4.483.094-.118L40.5,65.833l2.154-2.68,11.32,7.836-1.583,1.969-7.319-5.325-.095.118,6.1,7.3-1.274,1.583-8.4-4.437-.1.118,6.76,6.02-1.56,1.939Z" fill="#fec32e"/>
    <path id="Path_2274" data-name="Path 2274" d="M47.808,57.03c1.954-2.1,5.449-1.758,8.705,1.271,2.728,2.536,3.947,6.134,1.761,8.487-2.148,2.309-5.727,1.5-8.635-1.206-3.3-3.067-3.771-6.464-1.831-8.552m8.963,8.333c1.035-1.113-.406-3.023-2.368-4.848-2.1-1.954-4.124-3.212-5.134-2.127-1.061,1.142.463,3.1,2.467,4.967,2.2,2.044,4.038,3.08,5.035,2.008" fill="#fec32e"/>
    <path id="Path_2275" data-name="Path 2275" d="M63.439,61.069,55.5,52.816l-1.711,1.647-1.58-1.643,5.611-5.4L59.4,49.062l-1.738,1.673,7.94,8.253Z" fill="#fec32e"/>
    <rect id="Rectangle_581" data-name="Rectangle 581" width="2.946" height="13.738" transform="translate(59.212 46.189) rotate(-41.614)" fill="#fec32e"/>
    <path id="Path_2276" data-name="Path 2276" d="M66.875,39.3c2.235-1.8,5.643-.953,8.428,2.51,2.333,2.9,3.021,6.636.519,8.647-2.457,1.976-5.88.659-8.367-2.436-2.821-3.506-2.8-6.935-.58-8.721m7.665,9.531c1.185-.952.034-3.048-1.645-5.135-1.8-2.235-3.616-3.77-4.77-2.843-1.214.978.011,3.136,1.725,5.267,1.88,2.34,3.55,3.629,4.69,2.711" fill="#fec32e"/>
    <path id="Path_2277" data-name="Path 2277" d="M72.938,34.91l2.879-2.02,7.429,5.8.092-.065-5.186-7.366L80.1,29.89l7.889,11.253-2.818,1.975-7.384-5.733-.094.066,5.144,7.3-2.008,1.407Z" fill="#fec32e"/>
    <path id="Path_2278" data-name="Path 2278" d="M98.084,35.015l-2.978,1.724L85.673,26.322l2.682-1.552,6.419,7.791.1-.058-3.641-9.4,2.37-1.371Z" fill="#fec32e"/>
    <rect id="Rectangle_582" data-name="Rectangle 582" width="2.946" height="13.738" transform="translate(95.193 20.94) rotate(-27.548)" fill="#fec32e"/>
    <path id="Path_2279" data-name="Path 2279" d="M100.267,18.305l3.066-1.424c2.688-1.247,5.734.039,7.629,4.123,1.655,3.565,1.2,6.917-1.935,8.373l-2.98,1.383Zm7.571,9.32.467-.258c1.33-.743.991-2.826-.065-5.1-1.023-2.2-2.526-4-3.934-3.471l-.482.181Z" fill="#fec32e"/>
    <path id="Path_2280" data-name="Path 2280" d="M110.271,13.775l5.879-2.344.83,2.084-3.195,1.274L115,17.825l2.948-1.175.83,2.084-2.948,1.174,1.371,3.443,3.319-1.322.844,2.118-6,2.392Z" fill="#fec32e"/>
    <path id="Path_2281" data-name="Path 2281" d="M122.537,8.9c2.722-.909,5.623,1.068,7.03,5.285,1.179,3.531.525,7.274-2.521,8.29-2.991,1-5.743-1.429-7-5.195-1.425-4.271-.212-7.478,2.491-8.38m3.872,11.6c1.441-.481,1.093-2.848.245-5.389-.908-2.721-2.08-4.793-3.485-4.324-1.479.492-1.081,2.943-.215,5.538.949,2.848,2.067,4.638,3.455,4.175" fill="#fec32e"/>
    <path id="Path_2282" data-name="Path 2282" d="M138.9,14.765c.062,1.157.571,2.052,1.273,1.883.554-.133.707-.717.547-1.383a3.089,3.089,0,0,0-2.189-2.033c-1.691-.612-3.469-1.668-3.962-3.72a3.694,3.694,0,0,1,2.671-4.747c1.829-.439,3.683.445,4.514,2.923l-2.883.692c-.125-1.006-.583-1.775-1.138-1.641-.462.11-.643.741-.461,1.5.174.72.841,1.3,2.073,1.711,1.889.621,3.552,1.686,4.076,3.868a3.7,3.7,0,0,1-2.763,4.767c-1.571.378-3.871-.086-4.788-3.089Z" fill="#fec32e"/>
    <path id="Path_2283" data-name="Path 2283" d="M147.76,2.494c2.826-.5,5.41,1.875,6.188,6.253.651,3.667-.54,7.274-3.7,7.837-3.106.553-5.476-2.249-6.171-6.158-.788-4.434.878-7.433,3.684-7.932M149.9,14.542c1.5-.267,1.495-2.659,1.026-5.3-.5-2.825-1.36-5.046-2.819-4.786-1.534.272-1.5,2.756-1.02,5.449.527,2.956,1.373,4.89,2.813,4.634" fill="#fec32e"/>
    <path id="Path_2284" data-name="Path 2284" d="M161.166,5.251c-.154-1.2-.555-2.212-1.328-2.125-1.208.136-1.417,2.358-1.106,5.133.276,2.454.956,4.766,2.2,4.626.83-.093.986-1.259.873-2.431L165,10.1c-.112,2.746-1.786,4.693-3.824,4.922-3.511.393-5.318-3.264-5.665-6.359-.382-3.4.711-7.287,4.089-7.666,2.039-.229,4.062,1.283,4.72,3.9Z" fill="#fec32e"/>
    <rect id="Rectangle_583" data-name="Rectangle 583" width="2.944" height="13.732" transform="translate(165.859 0.508) rotate(-3.777)" fill="#fec32e"/>
    <path id="Path_2285" data-name="Path 2285" d="M176.729,11.059l-2.7.063-.392,2.708-2.774.064,2.492-13.8,3.476-.081,3.283,13.666-2.887.067ZM175.3,3.6l-.151,0-.828,5.3,2.014-.047Z" fill="#fec32e"/>
    <path id="Path_2286" data-name="Path 2286" d="M181.689,0l2.982.081-.31,11.4,3.191.087-.064,2.337-6.174-.169Z" fill="#fec32e"/>
    <path id="Path_2287" data-name="Path 2287" d="M202.9,5.994a1.5,1.5,0,1,1-1.5,1.5,1.5,1.5,0,0,1,1.5-1.5" fill="#fec32e"/>
    <path id="Path_2288" data-name="Path 2288" d="M350.415,199.081a1.5,1.5,0,1,1-1.5,1.5,1.5,1.5,0,0,1,1.5-1.5" fill="#fec32e"/>
    <path id="Path_2289" data-name="Path 2289" d="M8.081,155.506a1.5,1.5,0,1,1-1.5,1.5,1.5,1.5,0,0,1,1.5-1.5" fill="#fec32e"/>
    <path id="Path_2290" data-name="Path 2290" d="M156.676,348.8a1.5,1.5,0,1,1-1.5,1.5,1.5,1.5,0,0,1,1.5-1.5" fill="#fec32e"/>
  </g>
</svg>
