<svg id="Group_4798" data-name="Group 4798" xmlns="http://www.w3.org/2000/svg" xmlns:xlink="http://www.w3.org/1999/xlink" width="359.053" height="359.059" viewBox="0 0 359.053 359.059">
  <defs>
    <clipPath id="clip-path">
      <rect id="Rectangle_576" data-name="Rectangle 576" width="359.053" height="359.059" fill="#fec32e"/>
    </clipPath>
  </defs>
  <g id="Group_4797" data-name="Group 4797" clip-path="url(#clip-path)">
    <path id="Path_2203" data-name="Path 2203" d="M217.641,4.19l3.77.9c2.015.482,3.927,2.288,3.352,4.69a3.819,3.819,0,0,1-3.179,2.913l1.358,6.889-3.14-.752-.976-6.29-.147-.035-1.354,5.733-2.883-.691Zm1.436,6.654.669.141c.892.193,1.683-.418,1.966-1.6a1.759,1.759,0,0,0-1.023-2.257l-.678-.182Z" fill="#fec32e"/>
    <path id="Path_2204" data-name="Path 2204" d="M228.1,6.811l6.062,1.81-.641,2.147-3.295-.983-.935,3.131,3.04.908-.64,2.147-3.04-.907-1.06,3.55,3.423,1.021-.652,2.185-6.19-1.848Z" fill="#fec32e"/>
    <path id="Path_2205" data-name="Path 2205" d="M237.359,21.407l-2.541-.908-1.338,2.388-2.613-.933,7.271-12,3.276,1.17-1.83,13.939-2.721-.973Zm1.338-7.474-.144-.052-2.671,4.656,1.9.678Z" fill="#fec32e"/>
    <path id="Path_2206" data-name="Path 2206" d="M248.948,18.789c.455-1.126.6-2.2-.119-2.5-1.12-.472-2.39,1.362-3.476,3.937-.96,2.274-1.5,4.625-.343,5.112.771.325,1.476-.614,1.952-1.692l2.958,1.249c-1.442,2.338-3.854,3.217-5.743,2.419-3.256-1.372-3.042-5.446-1.831-8.318,1.33-3.149,4.185-6.006,7.318-4.684,1.889.8,2.915,3.106,2.207,5.713Z" fill="#fec32e"/>
    <path id="Path_2207" data-name="Path 2207" d="M258.148,18.272,255.7,23.189l2.383,1.186,2.447-4.917,2.671,1.329-6.123,12.3-2.671-1.329,2.684-5.393-2.381-1.186-2.685,5.394-2.6-1.3,6.123-12.3Z" fill="#fec32e"/>
    <path id="Path_2208" data-name="Path 2208" d="M273.911,26.653c2.44,1.51,2.781,5,.442,8.785-1.959,3.167-5.253,5.061-7.984,3.373-2.682-1.659-2.581-5.327-.492-8.7,2.369-3.83,5.61-4.953,8.034-3.454m-6.436,10.406c1.292.8,2.887-.983,4.3-3.263,1.51-2.439,2.351-4.667,1.091-5.446-1.325-.82-2.954,1.055-4.393,3.382-1.579,2.553-2.239,4.557-.994,5.327" fill="#fec32e"/>
    <path id="Path_2209" data-name="Path 2209" d="M274.9,38.118l5.127-7.217,2.4,1.7-5.368,7.558c-1.078,1.517-1.134,2.317-.56,2.725s1.3.065,2.372-1.438l5.369-7.558,2.353,1.672-5.126,7.218c-2.057,2.9-4.344,3.229-6.25,1.875-1.889-1.342-2.374-3.644-.317-6.54" fill="#fec32e"/>
    <path id="Path_2210" data-name="Path 2210" d="M281.472,48.983l7.14-8.962-1.858-1.479,1.421-1.785,6.093,4.856L292.847,43.4l-1.887-1.5-7.14,8.962Z" fill="#fec32e"/>
    <path id="Path_2211" data-name="Path 2211" d="M288.611,50.642a1.492,1.492,0,0,1,.175,2.116,2.785,2.785,0,0,1-.765.7,11.6,11.6,0,0,1-2.87,1.154l-1.175-1a8.941,8.941,0,0,0,2.6-.458.164.164,0,0,0,.056-.3,1.483,1.483,0,0,1,1.974-2.213" fill="#fec32e"/>
    <path id="Path_2212" data-name="Path 2212" d="M301.683,48.168l4.4,4.222-1.552,1.619-2.263-2.17-2.328,2.428,2.1,2.012-1.578,1.646-2.1-2.012-4.052,4.225-2.14-2.052Z" fill="#fec32e"/>
    <rect id="Rectangle_572" data-name="Rectangle 572" width="13.732" height="2.944" transform="matrix(0.719, -0.695, 0.695, 0.719, 297.619, 63.398)" fill="#fec32e"/>
    <path id="Path_2213" data-name="Path 2213" d="M311.492,57.986l2.317,2.642-4.953,8.008.075.086,6.757-5.952,1.567,1.785-10.326,9.058-2.268-2.585,4.9-7.959-.075-.086-6.7,5.9-1.616-1.842Z" fill="#fec32e"/>
    <path id="Path_2214" data-name="Path 2214" d="M319.148,66.858l2.067,2.678c1.812,2.346,1.229,5.6-2.337,8.357-3.114,2.4-6.485,2.7-8.6-.037l-2.01-2.6Zm-7.423,9.45.355.4c1.02,1.134,2.978.343,4.963-1.189,1.926-1.486,3.345-3.35,2.518-4.608l-.283-.429Z" fill="#fec32e"/>
    <path id="Path_2215" data-name="Path 2215" d="M320.975,84.212l7.452-4.778,1.589,2.478-7.8,5c-1.567,1-1.917,1.726-1.538,2.317.39.608,1.187.548,2.739-.446l7.8-5,1.559,2.431-7.452,4.778c-2.991,1.917-5.237,1.371-6.5-.595s-.841-4.268,2.149-6.185" fill="#fec32e"/>
    <path id="Path_2216" data-name="Path 2216" d="M326.815,95.668c-1.1.378-1.815,1.112-1.461,1.74.28.5.884.484,1.48.147a3.094,3.094,0,0,0,1.354-2.662c.122-1.792.65-3.792,2.486-4.829a3.693,3.693,0,0,1,5.295,1.264c.924,1.638.584,3.662-1.57,5.14l-1.456-2.58c.933-.4,1.546-1.048,1.266-1.544-.234-.413-.889-.414-1.567-.031a2.731,2.731,0,0,0-1.075,2.46c-.079,1.986-.648,3.877-2.6,4.98a3.7,3.7,0,0,1-5.341-1.348c-.793-1.406-.98-3.744,1.656-5.45Z" fill="#fec32e"/>
    <path id="Path_2217" data-name="Path 2217" d="M329.787,102.433a1.492,1.492,0,0,1-.648,2.021,2.8,2.8,0,0,1-.973.35,11.6,11.6,0,0,1-3.093-.034l-.7-1.368a8.92,8.92,0,0,0,2.58.575.164.164,0,0,0,.167-.257,1.482,1.482,0,0,1,2.67-1.287" fill="#fec32e"/>
    <path id="Path_2218" data-name="Path 2218" d="M342.81,105.151l2.449,5.589-2.053.9-1.259-2.873-3.082,1.351,1.167,2.664-2.089.915-1.167-2.664-5.363,2.35-1.19-2.716Z" fill="#fec32e"/>
    <path id="Path_2219" data-name="Path 2219" d="M347.973,116.964c1,2.689-.876,5.657-5.043,7.206-3.49,1.3-7.254.772-8.373-2.237-1.1-2.956,1.232-5.789,4.954-7.174,4.221-1.569,7.468-.466,8.462,2.2m-11.468,4.265c.529,1.425,2.883,1,5.394.062,2.689-1,4.72-2.243,4.2-3.631-.543-1.46-2.98-.981-5.543-.027-2.815,1.046-4.566,2.225-4.055,3.6" fill="#fec32e"/>
    <path id="Path_2220" data-name="Path 2220" d="M350.16,124.055l.88,2.851-10.9,3.36.942,3.051-2.234.688-1.82-5.9Z" fill="#fec32e"/>
    <path id="Path_2221" data-name="Path 2221" d="M352.482,131.8l.75,2.887L342.2,137.555l.8,3.089-2.262.588-1.553-5.977Z" fill="#fec32e"/>
    <path id="Path_2222" data-name="Path 2222" d="M355.57,143.59c.572,2.811-1.741,5.453-6.1,6.337-3.649.743-7.285-.36-7.924-3.506-.628-3.09,2.113-5.528,6-6.319,4.412-.9,7.45.7,8.017,3.488m-11.989,2.437c.3,1.489,2.7,1.43,5.319.9,2.812-.571,5.01-1.484,4.715-2.935-.31-1.527-2.791-1.43-5.472-.885-2.941.6-4.853,1.49-4.562,2.924" fill="#fec32e"/>
    <path id="Path_2223" data-name="Path 2223" d="M356.946,152.846l-8.9,1.816.019.152,9.223.364.337,2.619-8.742,2.62.018.151,8.987-.429.308,2.393-13.835.115-.389-3.016,8.4-2.423-.02-.15-8.758-.328-.393-3.054,13.4-3.487Z" fill="#fec32e"/>
    <path id="Path_2224" data-name="Path 2224" d="M349.813,169.876l8.853-.284.094,2.944-9.27.3c-1.862.061-2.532.5-2.51,1.2.023.722.738,1.079,2.581,1.02l9.271-.3.092,2.888-8.852.285c-3.553.113-5.2-1.507-5.278-3.844-.074-2.317,1.466-4.1,5.019-4.212" fill="#fec32e"/>
    <path id="Path_2225" data-name="Path 2225" d="M348.962,182.681c-1.136-.234-2.13.028-2.146.75-.012.57.513.867,1.2.883a3.093,3.093,0,0,0,2.525-1.6c1.023-1.478,2.5-2.929,4.608-2.881a3.693,3.693,0,0,1,3.906,3.794c-.042,1.881-1.37,3.447-3.978,3.617l.067-2.963c1.005.136,1.865-.111,1.878-.68.01-.475-.552-.811-1.33-.828-.742-.017-1.475.479-2.184,1.566-1.083,1.667-2.538,3-4.78,2.952a3.7,3.7,0,0,1-3.9-3.888c.037-1.616,1.072-3.721,4.211-3.84Z" fill="#fec32e"/>
    <path id="Path_2226" data-name="Path 2226" d="M354.9,217.508l-.9,3.769c-.481,2.014-2.284,3.927-4.687,3.354a3.817,3.817,0,0,1-2.914-3.176l-6.887,1.364.75-3.142,6.288-.979.035-.147L340.85,217.2l.688-2.883Zm-6.652,1.439-.141.67c-.193.892.419,1.682,1.6,1.964a1.758,1.758,0,0,0,2.256-1.024l.181-.679Z" fill="#fec32e"/>
    <path id="Path_2227" data-name="Path 2227" d="M352.3,227.942l-1.8,6.066-2.15-.638.98-3.3-3.133-.932-.9,3.042-2.15-.638.9-3.043-3.553-1.057-1.018,3.426-2.187-.651,1.842-6.194Z" fill="#fec32e"/>
    <path id="Path_2228" data-name="Path 2228" d="M337.709,237.208l.906-2.541-2.389-1.336.932-2.612,12,7.259-1.167,3.276-13.936-1.819.97-2.721Zm7.473,1.332.051-.144-4.657-2.668-.676,1.9Z" fill="#fec32e"/>
    <path id="Path_2229" data-name="Path 2229" d="M340.341,248.8c1.129.454,2.2.6,2.505-.121.472-1.121-1.366-2.39-3.942-3.473-2.277-.958-4.628-1.494-5.115-.338-.324.771.616,1.476,1.7,1.951l-1.247,2.96c-2.342-1.439-3.224-3.852-2.428-5.744,1.371-3.257,5.447-3.047,8.32-1.839,3.153,1.327,6.015,4.18,4.7,7.315-.8,1.893-3.105,2.921-5.714,2.215Z" fill="#fec32e"/>
    <path id="Path_2230" data-name="Path 2230" d="M340.858,258l-4.917-2.443-1.184,2.381,4.917,2.444-1.327,2.671-12.3-6.112,1.328-2.67,5.393,2.679,1.184-2.382-5.394-2.679,1.294-2.6,12.3,6.112Z" fill="#fec32e"/>
    <path id="Path_2231" data-name="Path 2231" d="M332.5,273.771c-1.507,2.442-5,2.787-8.787.452-3.17-1.956-5.069-5.249-3.383-7.983,1.657-2.684,5.326-2.586,8.706-.5,3.834,2.365,4.961,5.606,3.464,8.032m-10.417-6.427c-.8,1.294.988,2.888,3.269,4.3,2.442,1.507,4.671,2.346,5.45,1.084.818-1.326-1.059-2.953-3.388-4.39-2.556-1.577-4.562-2.234-5.331-.989" fill="#fec32e"/>
    <path id="Path_2232" data-name="Path 2232" d="M321.034,274.768l7.224,5.119-1.7,2.4-7.565-5.361c-1.519-1.077-2.319-1.131-2.726-.557s-.064,1.3,1.44,2.371l7.565,5.361-1.67,2.356-7.223-5.119c-2.9-2.054-3.235-4.342-1.884-6.249,1.341-1.89,3.643-2.379,6.542-.324" fill="#fec32e"/>
    <path id="Path_2233" data-name="Path 2233" d="M310.174,281.351l8.971,7.131,1.478-1.86,1.785,1.418-4.848,6.1-1.785-1.419,1.5-1.889L308.3,283.7Z" fill="#fec32e"/>
    <path id="Path_2234" data-name="Path 2234" d="M308.522,288.494a1.491,1.491,0,0,1-2.115.177,2.8,2.8,0,0,1-.7-.764,11.586,11.586,0,0,1-1.157-2.87l.993-1.175a8.971,8.971,0,0,0,.461,2.605.165.165,0,0,0,.3.055,1.483,1.483,0,0,1,2.214,1.972" fill="#fec32e"/>
    <path id="Path_2235" data-name="Path 2235" d="M311.01,301.561l-4.217,4.408-1.621-1.551,2.168-2.265-2.431-2.325-2.009,2.1-1.649-1.576,2.01-2.1-4.23-4.045,2.05-2.143Z" fill="#fec32e"/>
    <rect id="Rectangle_573" data-name="Rectangle 573" width="2.946" height="13.739" transform="matrix(0.719, -0.695, 0.695, 0.719, 293.657, 299.562)" fill="#fec32e"/>
    <path id="Path_2236" data-name="Path 2236" d="M301.2,311.376l-2.639,2.321-8.014-4.944-.085.075,5.959,6.75-1.783,1.569-9.069-10.316,2.582-2.27,7.964,4.886.086-.075-5.909-6.692,1.84-1.618Z" fill="#fec32e"/>
    <path id="Path_2237" data-name="Path 2237" d="M292.324,319.04l-2.675,2.066c-2.344,1.812-5.6,1.232-8.353-2.331-2.4-3.111-2.7-6.48.033-8.593l2.6-2.009Zm-9.447-7.414-.4.355c-1.133,1.02-.342,2.976,1.191,4.96,1.486,1.924,3.35,3.341,4.606,2.514l.429-.284Z" fill="#fec32e"/>
    <path id="Path_2238" data-name="Path 2238" d="M274.982,320.886l4.785,7.445-2.475,1.592-5.012-7.8c-1.007-1.566-1.728-1.915-2.319-1.535-.607.39-.546,1.187.45,2.736l5.011,7.8-2.428,1.562-4.785-7.446c-1.921-2.987-1.377-5.233.587-6.5s4.266-.845,6.186,2.142" fill="#fec32e"/>
    <path id="Path_2239" data-name="Path 2239" d="M263.531,326.74c-.38-1.1-1.114-1.815-1.743-1.46-.5.281-.483.884-.146,1.48a3.1,3.1,0,0,0,2.665,1.353c1.793.121,3.794.648,4.832,2.484a3.693,3.693,0,0,1-1.26,5.3c-1.638.926-3.663.587-5.144-1.567l2.58-1.459c.4.933,1.05,1.546,1.546,1.266.413-.235.414-.89.03-1.568a2.733,2.733,0,0,0-2.463-1.074c-1.986-.077-3.878-.645-4.982-2.6a3.7,3.7,0,0,1,1.344-5.345c1.406-.794,3.745-.982,5.453,1.654Z" fill="#fec32e"/>
    <path id="Path_2240" data-name="Path 2240" d="M256.768,329.717a1.491,1.491,0,0,1-2.021-.646,2.788,2.788,0,0,1-.352-.974,11.585,11.585,0,0,1,.031-3.093l1.368-.7a8.92,8.92,0,0,0-.572,2.582.164.164,0,0,0,.257.166,1.483,1.483,0,0,1,1.289,2.67" fill="#fec32e"/>
    <path id="Path_2241" data-name="Path 2241" d="M254.065,342.737l-5.584,2.454-.9-2.053,2.871-1.261L249.1,338.8l-2.661,1.169-.918-2.086,2.662-1.17-2.354-5.358,2.713-1.193Z" fill="#fec32e"/>
    <path id="Path_2242" data-name="Path 2242" d="M242.254,347.919c-2.688,1-5.659-.871-7.212-5.038-1.3-3.491-.777-7.255,2.232-8.377,2.956-1.1,5.792,1.228,7.179,4.95,1.573,4.22.472,7.47-2.2,8.465m-4.274-11.467c-1.425.53-.993,2.885-.058,5.4,1,2.688,2.246,4.719,3.635,4.2,1.461-.544.979-2.981.023-5.545-1.049-2.814-2.229-4.565-3.6-4.053" fill="#fec32e"/>
    <path id="Path_2243" data-name="Path 2243" d="M235.168,350.1l-2.849.881L228.95,340.1l-3.048.943-.691-2.232,5.9-1.824Z" fill="#fec32e"/>
    <path id="Path_2244" data-name="Path 2244" d="M227.424,352.441l-2.887.753-2.875-11.032-3.089.8-.589-2.261,5.975-1.557Z" fill="#fec32e"/>
    <path id="Path_2245" data-name="Path 2245" d="M215.638,355.539c-2.811.575-5.455-1.737-6.343-6.092-.746-3.65.354-7.287,3.5-7.929,3.09-.631,5.531,2.109,6.325,6,.9,4.412-.69,7.452-3.482,8.021m-2.447-11.988c-1.489.3-1.428,2.7-.892,5.32.574,2.812,1.488,5.01,2.94,4.714,1.526-.311,1.428-2.793.88-5.473-.6-2.942-1.494-4.854-2.928-4.561" fill="#fec32e"/>
    <path id="Path_2246" data-name="Path 2246" d="M206.4,356.927l-1.831-8.9-.151.02-.35,9.226-2.619.341-2.635-8.741-.15.02.443,8.988-2.394.312-.136-13.838,3.015-.394,2.437,8.4.151-.02.315-8.761,3.052-.4,3.51,13.4Z" fill="#fec32e"/>
    <path id="Path_2247" data-name="Path 2247" d="M189.359,349.8l.3,8.845-2.943.1-.313-9.262c-.063-1.861-.5-2.531-1.2-2.506-.722.024-1.077.739-1.016,2.58l.314,9.264-2.886.1-.3-8.846c-.12-3.549,1.5-5.2,3.832-5.279,2.316-.078,4.1,1.458,4.217,5.008" fill="#fec32e"/>
    <path id="Path_2248" data-name="Path 2248" d="M176.549,348.967c.233-1.136-.029-2.129-.752-2.145-.569-.012-.866.513-.881,1.2a3.091,3.091,0,0,0,1.6,2.524c1.479,1.021,2.93,2.5,2.884,4.6a3.694,3.694,0,0,1-3.791,3.909c-1.88-.041-3.449-1.367-3.62-3.975l2.963.065c-.135,1,.113,1.865.682,1.877.476.01.811-.553.827-1.331.017-.742-.481-1.475-1.568-2.182-1.668-1.082-3.005-2.536-2.956-4.778a3.7,3.7,0,0,1,3.885-3.907c1.616.035,3.722,1.069,3.843,4.207Z" fill="#fec32e"/>
    <path id="Path_2249" data-name="Path 2249" d="M141.722,354.934l-3.769-.9c-2.014-.479-3.928-2.281-3.357-4.684a3.817,3.817,0,0,1,3.173-2.916l-1.369-6.884,3.141.747.984,6.286.149.035,1.343-5.733,2.883.686Zm-1.444-6.649-.67-.14c-.892-.192-1.682.42-1.963,1.6A1.76,1.76,0,0,0,138.672,352l.678.181Z" fill="#fec32e"/>
    <path id="Path_2250" data-name="Path 2250" d="M131.285,352.348l-6.067-1.8.637-2.149,3.3.977.93-3.133-3.043-.9.638-2.15,3.043.9,1.052-3.553-3.425-1.015.648-2.187,6.2,1.837Z" fill="#fec32e"/>
    <path id="Path_2251" data-name="Path 2251" d="M122,337.769l2.542.9,1.331-2.389,2.614.927-7.239,12-3.275-1.162,1.8-13.931,2.721.965Zm-1.319,7.472.144.051,2.659-4.659-1.9-.673Z" fill="#fec32e"/>
    <path id="Path_2252" data-name="Path 2252" d="M110.385,340.393c-.453,1.129-.6,2.2.124,2.5,1.121.471,2.387-1.367,3.468-3.942.956-2.278,1.49-4.629.334-5.115-.771-.323-1.475.617-1.948,1.7l-2.96-1.244c1.436-2.342,3.847-3.226,5.739-2.432,3.259,1.368,3.052,5.443,1.846,8.316-1.325,3.154-4.175,6.016-7.31,4.7-1.893-.794-2.922-3.1-2.218-5.711Z" fill="#fec32e"/>
    <path id="Path_2253" data-name="Path 2253" d="M101.216,340.94l2.438-4.922-2.383-1.182-2.44,4.922-2.673-1.325,6.1-12.311,2.674,1.325-2.676,5.4,2.385,1.182,2.675-5.4,2.6,1.292-6.1,12.312Z" fill="#fec32e"/>
    <path id="Path_2254" data-name="Path 2254" d="M85.436,332.585c-2.442-1.505-2.789-5-.458-8.783,1.953-3.17,5.243-5.071,7.977-3.387,2.685,1.654,2.589,5.322.507,8.7-2.361,3.834-5.6,4.962-8.026,3.468m6.417-10.417c-1.294-.8-2.886.989-4.29,3.271-1.505,2.442-2.343,4.67-1.081,5.448,1.326.816,2.951-1.061,4.387-3.39,1.574-2.556,2.229-4.561.984-5.329" fill="#fec32e"/>
    <path id="Path_2255" data-name="Path 2255" d="M84.427,321.123l-5.112,7.225-2.4-1.7,5.354-7.565c1.075-1.52,1.13-2.319.556-2.725s-1.305-.063-2.37,1.441L75.1,325.363,72.741,323.7l5.113-7.224c2.052-2.9,4.337-3.237,6.244-1.887,1.891,1.339,2.381,3.64.329,6.538" fill="#fec32e"/>
    <path id="Path_2256" data-name="Path 2256" d="M77.835,310.272l-7.121,8.971,1.859,1.476L71.156,322.5l-6.1-4.841,1.417-1.786,1.889,1.5,7.121-8.971Z" fill="#fec32e"/>
    <path id="Path_2257" data-name="Path 2257" d="M70.688,308.628a1.494,1.494,0,0,1-.18-2.116,2.782,2.782,0,0,1,.764-.7,11.622,11.622,0,0,1,2.868-1.162l1.177.994a8.919,8.919,0,0,0-2.6.463.164.164,0,0,0-.055.3,1.484,1.484,0,0,1-1.97,2.218" fill="#fec32e"/>
    <path id="Path_2258" data-name="Path 2258" d="M57.627,311.118l-4.408-4.212,1.548-1.621,2.266,2.166,2.323-2.432-2.1-2.006,1.574-1.649,2.1,2.008,4.041-4.23,2.142,2.047Z" fill="#fec32e"/>
    <rect id="Rectangle_574" data-name="Rectangle 574" width="13.739" height="2.946" transform="translate(49.743 303.336) rotate(-44.12)" fill="#fec32e"/>
    <path id="Path_2259" data-name="Path 2259" d="M47.8,301.329l-2.323-2.636,4.934-8.019-.075-.085-6.743,5.967-1.569-1.783,10.3-9.079,2.274,2.579-4.878,7.969.075.086,6.687-5.916L58.1,292.25Z" fill="#fec32e"/>
    <path id="Path_2260" data-name="Path 2260" d="M40.13,292.458l-2.071-2.673c-1.813-2.342-1.237-5.6,2.322-8.354,3.108-2.407,6.476-2.709,8.592.023l2.012,2.6Zm7.4-9.455-.355-.4c-1.021-1.132-2.976-.338-4.958,1.2-1.922,1.488-3.336,3.352-2.508,4.608l.284.429Z" fill="#fec32e"/>
    <path id="Path_2261" data-name="Path 2261" d="M38.262,275.117l-7.444,4.793-1.594-2.477,7.8-5.018c1.565-1.008,1.914-1.73,1.534-2.32-.391-.608-1.188-.547-2.737.451l-7.8,5.018-1.563-2.428,7.445-4.792c2.987-1.923,5.234-1.381,6.5.584,1.254,1.949.848,4.266-2.14,6.189" fill="#fec32e"/>
    <path id="Path_2262" data-name="Path 2262" d="M32.4,263.672c1.094-.381,1.812-1.115,1.457-1.743-.281-.5-.885-.482-1.479-.145a3.091,3.091,0,0,0-1.35,2.665c-.119,1.793-.645,3.794-2.479,4.834a3.69,3.69,0,0,1-5.3-1.255c-.928-1.635-.591-3.661,1.56-5.143l1.461,2.578c-.932.4-1.544,1.051-1.263,1.546.234.413.889.413,1.567.029a2.735,2.735,0,0,0,1.071-2.464c.075-1.985.64-3.878,2.59-4.983a3.7,3.7,0,0,1,5.344,1.337c.8,1.4.986,3.743-1.647,5.454Z" fill="#fec32e"/>
    <path id="Path_2263" data-name="Path 2263" d="M29.418,256.913a1.49,1.49,0,0,1,.646-2.021,2.759,2.759,0,0,1,.971-.353,11.575,11.575,0,0,1,3.093.028l.705,1.367a8.931,8.931,0,0,0-2.581-.57c-.152-.006-.245.106-.166.257a1.483,1.483,0,0,1-2.668,1.292" fill="#fec32e"/>
    <path id="Path_2264" data-name="Path 2264" d="M16.39,254.221l-2.459-5.584,2.053-.9,1.263,2.87,3.08-1.356-1.172-2.661,2.087-.92,1.171,2.662,5.359-2.359,1.194,2.713Z" fill="#fec32e"/>
    <path id="Path_2265" data-name="Path 2265" d="M11.211,242.418c-1.005-2.686.865-5.657,5.028-7.214,3.488-1.3,7.251-.785,8.375,2.222,1.1,2.954-1.221,5.791-4.939,7.181-4.217,1.577-7.467.48-8.464-2.189m11.458-4.284c-.533-1.424-2.885-.99-5.394-.052-2.686,1-4.715,2.25-4.2,3.638.545,1.459,2.981.974,5.542.016,2.812-1.051,4.56-2.232,4.048-3.6" fill="#fec32e"/>
    <path id="Path_2266" data-name="Path 2266" d="M9.008,235.332l-.884-2.849,10.886-3.378-.946-3.047,2.231-.693,1.83,5.9Z" fill="#fec32e"/>
    <path id="Path_2267" data-name="Path 2267" d="M6.653,227.56,5.9,224.673l11.032-2.884-.807-3.089,2.261-.591,1.563,5.975Z" fill="#fec32e"/>
    <path id="Path_2268" data-name="Path 2268" d="M3.548,215.778c-.576-2.81,1.733-5.456,6.089-6.349,3.649-.748,7.288.349,7.932,3.5.633,3.089-2.105,5.533-6,6.33-4.412.9-7.453-.684-8.025-3.477m11.988-2.456c-.305-1.489-2.7-1.426-5.322-.888C7.4,213.01,5.2,213.926,5.5,215.378c.313,1.526,2.8,1.425,5.475.876,2.942-.6,4.853-1.5,4.559-2.932" fill="#fec32e"/>
    <path id="Path_2269" data-name="Path 2269" d="M2.159,206.573l8.9-1.839-.02-.151-9.227-.342-.343-2.619,8.739-2.642-.02-.151L1.2,199.28l-.314-2.394,13.839-.147.4,3.015-8.4,2.444.021.15,8.762.308.4,3.053-13.4,3.52Z" fill="#fec32e"/>
    <path id="Path_2270" data-name="Path 2270" d="M9.267,189.5.421,189.8l-.1-2.943,9.263-.32c1.861-.064,2.53-.505,2.505-1.207-.025-.722-.741-1.077-2.583-1.014l-9.261.321-.1-2.885,8.844-.307c3.55-.122,5.2,1.492,5.284,3.828.08,2.315-1.456,4.1-5.005,4.22" fill="#fec32e"/>
    <path id="Path_2271" data-name="Path 2271" d="M10.092,176.688c1.136.232,2.13-.031,2.145-.753.011-.57-.514-.866-1.2-.881a3.092,3.092,0,0,0-2.522,1.6c-1.02,1.48-2.494,2.931-4.6,2.887A3.692,3.692,0,0,1,0,175.755c.039-1.88,1.364-3.45,3.972-3.623L3.91,175.1c-1-.135-1.864.114-1.876.684-.01.474.553.809,1.332.826.741.015,1.473-.482,2.18-1.57,1.08-1.669,2.534-3.007,4.775-2.96a3.7,3.7,0,0,1,3.911,3.883c-.034,1.614-1.067,3.721-4.2,3.845Z" fill="#fec32e"/>
    <path id="Path_2272" data-name="Path 2272" d="M4.083,141.892l.893-3.772c.478-2.017,2.28-3.934,4.684-3.365a3.819,3.819,0,0,1,2.92,3.172l6.888-1.376-.744,3.144-6.29.991-.034.149,5.737,1.338-.683,2.885Zm6.652-1.452.14-.67c.191-.892-.423-1.683-1.607-1.963a1.76,1.76,0,0,0-2.255,1.029l-.18.68Z" fill="#fec32e"/>
    <path id="Path_2273" data-name="Path 2273" d="M6.678,131.421l1.794-6.067,2.15.635-.975,3.3,3.134.926.9-3.042,2.15.636-.9,3.042,3.553,1.051,1.011-3.426,2.187.646-1.831,6.2Z" fill="#fec32e"/>
    <path id="Path_2274" data-name="Path 2274" d="M21.237,122.157l-.9,2.544,2.393,1.33-.925,2.615L9.79,121.416l1.159-3.278,13.94,1.783-.963,2.724Zm-7.476-1.312-.051.143,4.663,2.656.672-1.9Z" fill="#fec32e"/>
    <path id="Path_2275" data-name="Path 2275" d="M18.6,110.537c-1.129-.452-2.2-.593-2.505.126-.47,1.122,1.371,2.387,3.948,3.466,2.28.954,4.632,1.485,5.117.328.323-.771-.62-1.475-1.7-1.947l1.241-2.963c2.345,1.435,3.232,3.846,2.439,5.74-1.365,3.261-5.442,3.058-8.318,1.854-3.156-1.321-6.023-4.169-4.708-7.307.792-1.894,3.1-2.927,5.711-2.225Z" fill="#fec32e"/>
    <path id="Path_2276" data-name="Path 2276" d="M18.066,101.342l4.921,2.435,1.18-2.384-4.922-2.435,1.322-2.674,12.312,6.09-1.322,2.674-5.4-2.67-1.18,2.384,5.4,2.67-1.29,2.6-12.311-6.09Z" fill="#fec32e"/>
    <path id="Path_2277" data-name="Path 2277" d="M26.4,85.554c1.5-2.446,5-2.8,8.785-.468,3.173,1.95,5.078,5.239,3.4,7.975-1.652,2.687-5.32,2.6-8.7.517-3.837-2.358-4.97-5.6-3.478-8.024M36.825,91.96c.8-1.295-.993-2.885-3.275-4.287C31.1,86.17,28.875,85.335,28.1,86.6c-.815,1.328,1.064,2.951,3.4,4.383,2.558,1.573,4.564,2.226,5.331.979" fill="#fec32e"/>
    <path id="Path_2278" data-name="Path 2278" d="M37.864,84.532,30.633,79.42l1.7-2.406,7.572,5.354c1.521,1.075,2.321,1.129,2.728.555.416-.59.061-1.306-1.444-2.37L33.617,75.2l1.668-2.359,7.231,5.113c2.9,2.051,3.241,4.339,1.891,6.247s-3.641,2.384-6.543.332" fill="#fec32e"/>
    <path id="Path_2279" data-name="Path 2279" d="M48.693,77.958l-8.98-7.112-1.475,1.861-1.787-1.415,4.836-6.105L43.074,66.6l-1.5,1.891,8.979,7.112Z" fill="#fec32e"/>
    <path id="Path_2280" data-name="Path 2280" d="M50.333,70.813a1.491,1.491,0,0,1,2.114-.181,2.766,2.766,0,0,1,.7.763,11.66,11.66,0,0,1,1.163,2.866l-.992,1.177a8.938,8.938,0,0,0-.465-2.6.164.164,0,0,0-.3-.054,1.483,1.483,0,0,1-2.218-1.968" fill="#fec32e"/>
    <path id="Path_2281" data-name="Path 2281" d="M47.828,57.753l4.207-4.413,1.622,1.547-2.162,2.268,2.434,2.32,2-2.1,1.651,1.573-2.006,2.1,4.234,4.037L57.767,67.23Z" fill="#fec32e"/>
    <rect id="Rectangle_575" data-name="Rectangle 575" width="2.945" height="13.739" transform="translate(53.489 51.917) rotate(-44.188)" fill="#fec32e"/>
    <path id="Path_2282" data-name="Path 2282" d="M57.608,47.908l2.637-2.325,8.026,4.931.085-.075L62.382,43.7l1.782-1.571,9.09,10.3L70.674,54.7,62.7,49.829l-.086.076,5.924,6.686L66.7,58.213Z" fill="#fec32e"/>
    <path id="Path_2283" data-name="Path 2283" d="M66.47,40.23l2.674-2.073c2.341-1.816,5.6-1.242,8.359,2.317,2.41,3.108,2.715,6.478-.018,8.6l-2.6,2.015Zm9.465,7.4.4-.356c1.132-1.022.336-2.978-1.2-4.959-1.491-1.922-3.356-3.336-4.612-2.507l-.429.285Z" fill="#fec32e"/>
    <path id="Path_2284" data-name="Path 2284" d="M83.811,38.355l-4.8-7.437,2.474-1.6L86.51,37.11c1.011,1.563,1.733,1.912,2.322,1.53.607-.39.545-1.187-.454-2.735l-5.025-7.789,2.425-1.566,4.8,7.438c1.925,2.984,1.387,5.231-.578,6.5-1.946,1.257-4.264.853-6.189-2.131" fill="#fec32e"/>
    <path id="Path_2285" data-name="Path 2285" d="M95.252,32.482c.382,1.1,1.117,1.813,1.745,1.457.5-.281.482-.885.144-1.479a3.092,3.092,0,0,0-2.667-1.349c-1.794-.118-3.8-.642-4.838-2.477a3.692,3.692,0,0,1,1.252-5.3c1.635-.93,3.662-.594,5.146,1.557l-2.578,1.464c-.4-.933-1.052-1.544-1.548-1.263-.413.235-.412.89-.027,1.568a2.733,2.733,0,0,0,2.465,1.069c1.986.074,3.881.638,4.987,2.588A3.7,3.7,0,0,1,98,35.665c-1.4.8-3.743.989-5.457-1.644Z" fill="#fec32e"/>
    <path id="Path_2286" data-name="Path 2286" d="M102.006,29.493a1.489,1.489,0,0,1,2.022.644,2.766,2.766,0,0,1,.354.972,11.649,11.649,0,0,1-.025,3.093l-1.368.707a8.9,8.9,0,0,0,.568-2.582.164.164,0,0,0-.257-.167,1.483,1.483,0,0,1-1.294-2.667" fill="#fec32e"/>
    <path id="Path_2287" data-name="Path 2287" d="M104.686,16.47l5.579-2.464.906,2.051L108.3,17.324l1.359,3.076,2.659-1.174.921,2.085-2.66,1.175,2.365,5.352-2.711,1.2Z" fill="#fec32e"/>
    <path id="Path_2288" data-name="Path 2288" d="M116.484,11.268c2.687-1.007,5.66.861,7.22,5.024,1.307,3.488.791,7.252-2.216,8.379-2.954,1.108-5.793-1.216-7.187-4.935-1.581-4.217-.486-7.468,2.183-8.468m4.295,11.458c1.423-.534.987-2.887.047-5.4-1.007-2.686-2.254-4.714-3.642-4.194-1.459.547-.972,2.982-.011,5.544,1.053,2.811,2.236,4.559,3.606,4.046" fill="#fec32e"/>
    <path id="Path_2289" data-name="Path 2289" d="M123.6,9.05l2.849-.887,3.386,10.886,3.048-.948.7,2.231-5.9,1.835Z" fill="#fec32e"/>
    <path id="Path_2290" data-name="Path 2290" d="M131.335,6.71l2.885-.757,2.892,11.023,3.086-.81.594,2.26-5.971,1.566Z" fill="#fec32e"/>
    <path id="Path_2291" data-name="Path 2291" d="M143.115,3.583c2.812-.578,5.459,1.729,6.356,6.085.751,3.649-.344,7.289-3.491,7.936-3.089.636-5.535-2.1-6.335-5.992-.908-4.412.678-7.455,3.47-8.029m2.467,11.988c1.489-.307,1.424-2.7.884-5.323-.578-2.812-1.5-5.009-2.948-4.71-1.527.313-1.423,2.8-.873,5.476.606,2.941,1.5,4.852,2.937,4.557" fill="#fec32e"/>
    <path id="Path_2292" data-name="Path 2292" d="M152.348,2.192l1.845,8.9.151-.02.333-9.221,2.618-.345,2.648,8.731.15-.02-.458-8.982,2.391-.316.16,13.83-3.013.4-2.449-8.393-.151.019-.3,8.757-3.051.4-3.53-13.385Z" fill="#fec32e"/>
    <path id="Path_2293" data-name="Path 2293" d="M169.393,9.279,169.081.433l2.942-.1.327,9.262c.066,1.861.508,2.53,1.21,2.5.722-.025,1.076-.741,1.011-2.582L174.244.251l2.884-.1.314,8.846c.125,3.549-1.488,5.2-3.823,5.285-2.317.082-4.1-1.451-4.226-5" fill="#fec32e"/>
    <path id="Path_2294" data-name="Path 2294" d="M182.2,10.092c-.232,1.136.033,2.129.755,2.144.569.011.865-.515.879-1.2a3.093,3.093,0,0,0-1.6-2.522c-1.481-1.018-2.933-2.491-2.891-4.6A3.693,3.693,0,0,1,183.129,0c1.88.037,3.45,1.362,3.626,3.969l-2.964-.06c.135-1-.114-1.865-.685-1.876-.474-.009-.809.554-.825,1.332-.015.742.485,1.474,1.572,2.18,1.67,1.079,3.009,2.531,2.964,4.773a3.7,3.7,0,0,1-3.88,3.913c-1.614-.033-3.722-1.063-3.849-4.2Z" fill="#fec32e"/>
    <path id="Path_2295" data-name="Path 2295" d="M200.706,6.812a1.5,1.5,0,1,1-1.5,1.5,1.5,1.5,0,0,1,1.5-1.5" fill="#fec32e"/>
    <path id="Path_2296" data-name="Path 2296" d="M348.944,199.665a1.5,1.5,0,1,1-1.5,1.5,1.5,1.5,0,0,1,1.5-1.5" fill="#fec32e"/>
    <path id="Path_2297" data-name="Path 2297" d="M157.516,348.152a1.5,1.5,0,1,1-1.5,1.5,1.5,1.5,0,0,1,1.5-1.5" fill="#fec32e"/>
    <path id="Path_2298" data-name="Path 2298" d="M7.411,154.075a1.5,1.5,0,1,1-1.5,1.5,1.5,1.5,0,0,1,1.5-1.5" fill="#fec32e"/>
  </g>
</svg>
