<svg id="Group_4793" data-name="Group 4793" xmlns="http://www.w3.org/2000/svg" xmlns:xlink="http://www.w3.org/1999/xlink" width="358.834" height="358.826" viewBox="0 0 358.834 358.826">
  <defs>
    <clipPath id="clip-path">
      <rect id="Rectangle_570" data-name="Rectangle 570" width="358.834" height="358.826" fill="#fec32e"/>
    </clipPath>
  </defs>
  <path id="Path_2099" data-name="Path 2099" d="M215.835,17.8,218.448,6.65l-2.311-.541.519-2.22,7.583,1.777-.52,2.219-2.349-.55-2.613,11.152Z" fill="#fec32e"/>
  <path id="Path_2100" data-name="Path 2100" d="M226.741,17.832l-2.6-.737-1.175,2.471-2.669-.757L226.758,6.36l3.344.95-.9,14.026-2.778-.789Zm.837-7.545-.146-.041-2.356,4.822,1.938.55Z" fill="#fec32e"/>
  <path id="Path_2101" data-name="Path 2101" d="M234.64,8.676l2.8.973-1.922,5.527.144.05,4.009-4.821,3.069,1.067-5.03,5.151.817,7.947-3.212-1.117-.171-6.737-.144-.05-2.072,5.957-2.8-.973Z" fill="#fec32e"/>
  <path id="Path_2102" data-name="Path 2102" d="M244.588,12.237l5.858,2.393-.847,2.076-3.185-1.3-1.236,3.026,2.938,1.2-.848,2.076-2.938-1.2-1.4,3.43,3.307,1.351-.862,2.111-5.981-2.443Z" fill="#fec32e"/>
  <path id="Path_2103" data-name="Path 2103" d="M257.253,17.708l3.071,1.588-2.836,8.587.135.07,5.385-7.268,3.055,1.579L260.63,34.919l-2.245-1.16,3.766-8.234-.134-.07-5.94,7.431-1.8-.934,2.681-9.116-.135-.069-4.559,7.823-2.211-1.143Z" fill="#fec32e"/>
  <path id="Path_2104" data-name="Path 2104" d="M269.077,24.011l5.426,3.257-1.154,1.923-2.95-1.77-1.681,2.8,2.72,1.634-1.154,1.923-2.721-1.633-1.907,3.177,3.064,1.839-1.174,1.955-5.541-3.325Z" fill="#fec32e"/>
  <path id="Path_2105" data-name="Path 2105" d="M282.439,32.575l-3.192,4.467,2.164,1.547,3.192-4.468,2.427,1.735-7.987,11.176L276.615,45.3l3.5-4.9-2.164-1.547-3.5,4.9-2.365-1.69,7.988-11.175Z" fill="#fec32e"/>
  <g id="Group_4792" data-name="Group 4792">
    <g id="Group_4791" data-name="Group 4791" clip-path="url(#clip-path)">
      <path id="Path_2106" data-name="Path 2106" d="M292.972,40.2c2.224,1.815,2.106,5.326-.709,8.772-2.356,2.886-5.871,4.335-8.359,2.3-2.445-2-1.865-5.621.648-8.7,2.85-3.49,6.211-4.18,8.42-2.376m-7.743,9.482c1.178.962,2.992-.6,4.688-2.675,1.816-2.224,2.941-4.324,1.792-5.262-1.207-.985-3.067.662-4.8,2.782-1.9,2.326-2.816,4.229-1.682,5.155" fill="#fec32e"/>
      <path id="Path_2107" data-name="Path 2107" d="M298.777,45.451l2.516,2.372L296.205,55.3l.111.105,7.175-5.508,2.5,2.359-8.7,10.673-1.839-1.733,5.885-6.881-.111-.1-7.753,5.511-1.479-1.394,5.085-8.026-.111-.1-6.535,6.267-1.81-1.707Z" fill="#fec32e"/>
      <path id="Path_2108" data-name="Path 2108" d="M308.413,54.767l4.324,4.619L311.1,60.918l-2.351-2.51-2.386,2.233,2.168,2.316L306.9,64.49l-2.169-2.317L302.022,64.7l2.442,2.608L302.8,68.871l-4.415-4.716Z" fill="#fec32e"/>
      <path id="Path_2109" data-name="Path 2109" d="M319.3,90.7l9.726-6.054-1.255-2.016,1.935-1.205,4.116,6.613-1.935,1.2-1.274-2.048-9.726,6.054Z" fill="#fec32e"/>
      <path id="Path_2110" data-name="Path 2110" d="M326.991,98.391l-1.32-2.353-2.577.922-1.356-2.42,13.356-4.265,1.7,3.032-10.532,9.3-1.412-2.519Zm5.915-4.755-.074-.132-5.072,1.755.986,1.756Z" fill="#fec32e"/>
      <path id="Path_2111" data-name="Path 2111" d="M339.057,97.485l1.3,2.666-5.264,2.562.067.136,6.245-.587,1.422,2.922-7.2.1-5.031,6.211-1.488-3.059,4.634-4.9-.067-.137L328,106.164l-1.3-2.666Z" fill="#fec32e"/>
      <path id="Path_2112" data-name="Path 2112" d="M343.592,107.051l2.46,5.828-2.065.872-1.337-3.168-3.011,1.27,1.233,2.923-2.064.871-1.234-2.922-3.413,1.44,1.389,3.29-2.1.886-2.51-5.95Z" fill="#fec32e"/>
      <path id="Path_2113" data-name="Path 2113" d="M348.716,119.861l1.056,3.294-8.072,4.082.047.145,8.947-1.35,1.048,3.276-12.782,5.133-.771-2.407,8.481-3.176-.047-.145-9.454,1.074-.62-1.937,8.335-4.566-.047-.145-8.753,2.326-.76-2.371Z" fill="#fec32e"/>
      <path id="Path_2114" data-name="Path 2114" d="M352.63,132.662l1.545,6.133-2.173.547-.84-3.333-3.168.8.775,3.075-2.173.548-.775-3.076-3.591.9.872,3.463-2.21.557-1.577-6.262Z" fill="#fec32e"/>
      <path id="Path_2115" data-name="Path 2115" d="M356.058,148.163l-5.415.908.44,2.623,5.415-.908.494,2.942L343.445,156l-.494-2.941,5.94-1-.44-2.623-5.94,1-.481-2.867,13.548-2.272Z" fill="#fec32e"/>
      <path id="Path_2116" data-name="Path 2116" d="M358.122,161c.29,2.855-2.274,5.255-6.7,5.7-3.707.377-7.216-1.08-7.542-4.276-.319-3.138,2.653-5.293,6.6-5.694,4.48-.456,7.347,1.43,7.635,4.266m-12.176,1.238c.154,1.512,2.541,1.69,5.206,1.419,2.856-.291,5.135-.981,4.984-2.456-.157-1.549-2.636-1.7-5.359-1.422-2.987.3-4.978,1-4.831,2.459" fill="#fec32e"/>
      <path id="Path_2117" data-name="Path 2117" d="M358.531,168.838l.1,3.458-8.884,1.7.005.152,8.972,1.171.1,3.439-13.7,1.407-.077-2.527,9.029-.713,0-.152-9.385-1.577-.061-2.032,9.272-2.09-.005-.152-9.056-.18-.077-2.488Z" fill="#fec32e"/>
      <path id="Path_2118" data-name="Path 2118" d="M358.774,182.218l-.2,6.326-2.241-.071.107-3.438-3.268-.1-.1,3.172-2.241-.07.1-3.172-3.705-.117-.111,3.572-2.281-.071.2-6.46Z" fill="#fec32e"/>
      <path id="Path_2119" data-name="Path 2119" d="M341.133,215.332l11.16,2.576.534-2.313,2.221.512L353.3,223.7l-2.222-.513.543-2.351-11.161-2.576Z" fill="#fec32e"/>
      <path id="Path_2120" data-name="Path 2120" d="M341.137,226.242l.728-2.6-2.475-1.167.749-2.671,12.468,6.415-.938,3.348-14.027-.853.779-2.781Zm7.547.812.041-.146-4.83-2.34-.544,1.939Z" fill="#fec32e"/>
      <path id="Path_2121" data-name="Path 2121" d="M350.31,234.122l-.967,2.8-5.531-1.908-.05.143,4.831,4-1.059,3.071-5.162-5.017-7.947.837,1.11-3.215,6.737-.188.049-.144-5.962-2.056.966-2.8Z" fill="#fec32e"/>
      <path id="Path_2122" data-name="Path 2122" d="M346.776,244.083l-2.378,5.863-2.078-.842,1.293-3.188-3.029-1.228-1.193,2.941-2.078-.842,1.193-2.941-3.434-1.393-1.342,3.311-2.113-.857,2.428-5.987Z" fill="#fec32e"/>
      <path id="Path_2123" data-name="Path 2123" d="M341.353,256.756l-1.577,3.077-8.6-2.806-.069.136,7.288,5.358-1.569,3.06-12.674-5.387,1.152-2.249,8.247,3.737.07-.135-7.453-5.913.928-1.809,9.125,2.65.069-.136-7.839-4.531,1.134-2.214Z" fill="#fec32e"/>
      <path id="Path_2124" data-name="Path 2124" d="M335.081,268.6l-3.236,5.437-1.927-1.147,1.76-2.955-2.809-1.672-1.623,2.727-1.927-1.147,1.623-2.727-3.183-1.9-1.827,3.069-1.959-1.166,3.3-5.551Z" fill="#fec32e"/>
      <path id="Path_2125" data-name="Path 2125" d="M326.555,282l-4.477-3.179-1.54,2.168,4.477,3.179-1.728,2.432-11.2-7.954,1.727-2.432,4.91,3.488,1.54-2.169-4.91-3.487,1.683-2.37,11.2,7.954Z" fill="#fec32e"/>
      <path id="Path_2126" data-name="Path 2126" d="M318.958,292.55c-1.809,2.228-5.319,2.12-8.772-.683-2.892-2.348-4.351-5.858-2.327-8.351,1.989-2.45,5.615-1.881,8.7.623,3.5,2.839,4.2,6.2,2.4,8.411m-9.5-7.714c-.958,1.181.607,2.991,2.688,4.679,2.228,1.809,4.331,2.928,5.265,1.778.983-1.21-.67-3.065-2.795-4.79-2.331-1.893-4.236-2.8-5.158-1.667" fill="#fec32e"/>
      <path id="Path_2127" data-name="Path 2127" d="M313.734,298.372l-2.363,2.524-7.493-5.063-.1.111,5.532,7.157-2.35,2.511-10.7-8.667,1.726-1.844,6.9,5.861.1-.111-5.537-7.735,1.389-1.484,8.044,5.058.1-.111-6.291-6.514,1.7-1.817Z" fill="#fec32e"/>
      <path id="Path_2128" data-name="Path 2128" d="M304.442,308.045l-4.608,4.339-1.538-1.633,2.505-2.358-2.242-2.381-2.31,2.176-1.538-1.633,2.311-2.176-2.541-2.7-2.6,2.45-1.564-1.661,4.706-4.43Z" fill="#fec32e"/>
      <path id="Path_2129" data-name="Path 2129" d="M268.57,319.017l6.091,9.707,2.013-1.263,1.211,1.932-6.6,4.142-1.213-1.932,2.045-1.283-6.091-9.707Z" fill="#fec32e"/>
      <path id="Path_2130" data-name="Path 2130" d="M260.877,326.743l2.348-1.327-.929-2.573,2.415-1.363,4.3,13.341-3.027,1.709-9.332-10.5,2.514-1.42Zm4.771,5.9.132-.075-1.769-5.065-1.754.99Z" fill="#fec32e"/>
      <path id="Path_2131" data-name="Path 2131" d="M261.817,338.8l-2.662,1.305-2.575-5.255-.137.067.605,6.241-2.917,1.431-.122-7.2-6.222-5.011,3.053-1.5,4.91,4.618.136-.067-2.776-5.663,2.661-1.3Z" fill="#fec32e"/>
      <path id="Path_2132" data-name="Path 2132" d="M252.275,343.376l-5.823,2.48-.879-2.063,3.165-1.348-1.281-3.008-2.92,1.244-.879-2.064,2.921-1.243-1.452-3.411-3.288,1.4-.894-2.1,5.946-2.532Z" fill="#fec32e"/>
      <path id="Path_2133" data-name="Path 2133" d="M239.486,348.523l-3.287,1.066-4.109-8.051-.145.047,1.381,8.936-3.27,1.061-5.175-12.758,2.4-.779,3.205,8.465.144-.047-1.107-9.445,1.934-.627,4.593,8.314.145-.047-2.356-8.74,2.367-.768Z" fill="#fec32e"/>
      <path id="Path_2134" data-name="Path 2134" d="M226.7,352.5l-6.133,1.565-.554-2.173,3.333-.851-.808-3.167-3.076.784-.555-2.173,3.076-.785-.917-3.591-3.462.883-.564-2.21,6.262-1.6Z" fill="#fec32e"/>
      <path id="Path_2135" data-name="Path 2135" d="M211.184,355.962l-.927-5.411-2.621.449.927,5.411-2.94.5-2.317-13.536,2.94-.5,1.015,5.935,2.622-.449-1.016-5.935,2.865-.49,2.316,13.536Z" fill="#fec32e"/>
      <path id="Path_2136" data-name="Path 2136" d="M198.355,358.062c-2.852.3-5.259-2.256-5.723-6.676-.389-3.7,1.056-7.216,4.249-7.551,3.135-.329,5.3,2.633,5.714,6.581.47,4.477-1.406,7.348-4.24,7.646M197.078,345.9c-1.511.159-1.681,2.545-1.4,5.208.3,2.853,1,5.129,2.47,4.974,1.549-.162,1.69-2.641,1.4-5.361-.314-2.985-1.019-4.974-2.474-4.821" fill="#fec32e"/>
      <path id="Path_2137" data-name="Path 2137" d="M190.525,358.491l-3.455.117-1.725-8.874-.151.006-1.142,8.969-3.435.116-1.451-13.69,2.525-.085.741,9.02.153-.005,1.544-9.383,2.032-.068,2.118,9.259.151,0,.151-9.051,2.487-.084Z" fill="#fec32e"/>
      <path id="Path_2138" data-name="Path 2138" d="M177.146,358.781l-6.325-.178.062-2.242,3.439.1.092-3.267-3.173-.09.063-2.241,3.173.089.1-3.705-3.572-.1.065-2.28,6.459.182Z" fill="#fec32e"/>
      <path id="Path_2139" data-name="Path 2139" d="M143.991,341.243l-2.539,11.17,2.315.527-.5,2.222-7.6-1.726.506-2.223,2.352.535,2.539-11.17Z" fill="#fec32e"/>
      <path id="Path_2140" data-name="Path 2140" d="M133.078,341.275l2.6.722,1.161-2.478,2.673.742-6.383,12.486-3.352-.93.818-14.031,2.783.772Zm-.794,7.55.146.041,2.329-4.836-1.941-.539Z" fill="#fec32e"/>
      <path id="Path_2141" data-name="Path 2141" d="M125.227,350.486l-2.806-.957,1.889-5.541-.144-.049-3.982,4.848-3.076-1.05,5-5.182-.865-7.946,3.22,1.1.212,6.739.144.049,2.037-5.973,2.807.957Z" fill="#fec32e"/>
      <path id="Path_2142" data-name="Path 2142" d="M115.254,346.969l-5.868-2.358.835-2.079,3.19,1.281,1.218-3.031-2.943-1.183.835-2.079,2.943,1.182,1.381-3.437-3.314-1.331.85-2.114,5.992,2.407Z" fill="#fec32e"/>
      <path id="Path_2143" data-name="Path 2143" d="M102.552,341.588l-3.083-1.569,2.782-8.607-.136-.069-5.338,7.306-3.067-1.561,5.353-12.694,2.253,1.147L97.6,333.8l.136.069,5.892-7.471,1.813.922-2.624,9.135.134.07,4.511-7.856,2.219,1.129Z" fill="#fec32e"/>
      <path id="Path_2144" data-name="Path 2144" d="M90.69,335.351l-5.447-3.222,1.141-1.93,2.961,1.751,1.664-2.813-2.732-1.616,1.142-1.93,2.732,1.615,1.886-3.189L90.961,322.2l1.162-1.963,5.561,3.289Z" fill="#fec32e"/>
      <path id="Path_2145" data-name="Path 2145" d="M77.264,326.871l3.166-4.489-2.175-1.534-3.166,4.489-2.438-1.72,7.921-11.23,2.438,1.72-3.473,4.924,2.175,1.533,3.473-4.923,2.377,1.676-7.922,11.23Z" fill="#fec32e"/>
      <path id="Path_2146" data-name="Path 2146" d="M66.693,319.3c-2.233-1.8-2.134-5.312.658-8.772,2.339-2.9,5.843-4.367,8.341-2.35,2.456,1.981,1.9,5.607-.6,8.7-2.828,3.5-6.184,4.214-8.4,2.424m7.684-9.522c-1.183-.955-2.987.616-4.67,2.7-1.8,2.233-2.914,4.338-1.762,5.268,1.213.979,3.063-.678,4.782-2.807,1.884-2.336,2.789-4.244,1.65-5.162" fill="#fec32e"/>
      <path id="Path_2147" data-name="Path 2147" d="M60.858,314.084l-2.53-2.355,5.039-7.5-.112-.1-7.137,5.55L53.6,307.33l8.633-10.724,1.849,1.722-5.84,6.914.111.1,7.716-5.558,1.487,1.385-5.033,8.055.111.1,6.494-6.307,1.821,1.7Z" fill="#fec32e"/>
      <path id="Path_2148" data-name="Path 2148" d="M51.18,304.843l-4.35-4.593,1.628-1.542,2.365,2.5,2.372-2.246-2.181-2.3,1.627-1.541,2.182,2.3,2.689-2.547-2.455-2.593,1.655-1.567,4.441,4.69Z" fill="#fec32e"/>
      <path id="Path_2149" data-name="Path 2149" d="M40.074,268.99l-9.688,6.119,1.268,2.008-1.928,1.218-4.161-6.588,1.929-1.217,1.288,2.04,9.689-6.119Z" fill="#fec32e"/>
      <path id="Path_2150" data-name="Path 2150" d="M32.327,261.315l1.332,2.347,2.572-.936,1.37,2.413-13.337,4.339-1.717-3.025,10.484-9.362,1.426,2.512ZM26.435,266.1l.075.132,5.064-1.782-.995-1.752Z" fill="#fec32e"/>
      <path id="Path_2151" data-name="Path 2151" d="M20.271,262.3l-1.313-2.656,5.244-2.594-.068-.137-6.238.628-1.44-2.912,7.2-.148,4.988-6.24,1.508,3.048-4.6,4.925.068.136,5.653-2.8,1.315,2.657Z" fill="#fec32e"/>
      <path id="Path_2152" data-name="Path 2152" d="M15.674,252.769l-2.495-5.813,2.06-.884,1.356,3.159,3-1.288-1.252-2.915,2.06-.884,1.251,2.915,3.405-1.461-1.409-3.282,2.094-.9,2.548,5.935Z" fill="#fec32e"/>
      <path id="Path_2153" data-name="Path 2153" d="M10.481,240.008,9.4,236.723l8.04-4.136-.047-.145-8.935,1.411L7.39,230.586l12.743-5.22.787,2.4L12.464,231l.048.144,9.444-1.138.632,1.932-8.3,4.621.046.145,8.735-2.385.775,2.364Z" fill="#fec32e"/>
      <path id="Path_2154" data-name="Path 2154" d="M6.473,227.235l-1.585-6.128,2.172-.561.861,3.33,3.165-.819-.8-3.073,2.172-.561.8,3.072,3.588-.928-.894-3.459,2.208-.572,1.618,6.257Z" fill="#fec32e"/>
      <path id="Path_2155" data-name="Path 2155" d="M2.952,211.734l5.41-.944-.457-2.621-5.411.944-.513-2.94,13.537-2.36.513,2.939L10.1,207.787l.457,2.621,5.935-1.035.5,2.864L3.451,214.6Z" fill="#fec32e"/>
      <path id="Path_2156" data-name="Path 2156" d="M.811,198.887c-.309-2.853,2.239-5.269,6.66-5.747,3.7-.4,7.221,1.034,7.567,4.226.339,3.136-2.618,5.309-6.565,5.737C4,203.588,1.118,201.72.811,198.887m12.166-1.317c-.164-1.511-2.552-1.673-5.215-1.385-2.852.309-5.127,1.013-4.967,2.487.167,1.549,2.648,1.682,5.368,1.388,2.984-.323,4.971-1.035,4.814-2.49" fill="#fec32e"/>
      <path id="Path_2157" data-name="Path 2157" d="M.366,191.1l-.128-3.455,8.869-1.753-.006-.152L.127,184.628,0,181.193l13.687-1.5.093,2.525-9.018.771,0,.151,9.39,1.516.074,2.031L4.977,188.84l.006.152,9.052.121.092,2.487Z" fill="#fec32e"/>
      <path id="Path_2158" data-name="Path 2158" d="M.036,177.723.194,171.4l2.241.056-.085,3.438,3.267.082L5.7,171.8l2.242.056-.079,3.173,3.7.092.089-3.572,2.28.057-.161,6.459Z" fill="#fec32e"/>
      <path id="Path_2159" data-name="Path 2159" d="M17.478,144.461,6.3,141.949l-.521,2.318-2.225-.5,1.708-7.6,2.225.5-.529,2.354,11.179,2.512Z" fill="#fec32e"/>
      <path id="Path_2160" data-name="Path 2160" d="M17.4,133.578l-.713,2.6,2.481,1.152-.733,2.676L5.933,133.666l.919-3.354,14.032.771-.762,2.786Zm-7.552-.769-.04.147,4.843,2.311.533-1.942Z" fill="#fec32e"/>
      <path id="Path_2161" data-name="Path 2161" d="M8.174,125.756l.947-2.809,5.546,1.871.048-.145-4.858-3.964,1.038-3.079,5.2,4.981,7.94-.891-1.087,3.224-6.736.234-.049.144,5.978,2.016-.947,2.809Z" fill="#fec32e"/>
      <path id="Path_2162" data-name="Path 2162" d="M11.653,115.759,14,109.88l2.084.83-1.274,3.2,3.036,1.21,1.175-2.948L21.1,113l-1.175,2.949,3.444,1.371L24.69,114l2.118.844-2.391,6Z" fill="#fec32e"/>
      <path id="Path_2163" data-name="Path 2163" d="M16.994,103.079l1.559-3.085,8.609,2.752.068-.136L19.914,97.3l1.549-3.068,12.7,5.307-1.139,2.255L24.76,98.107l-.069.136,7.486,5.864-.916,1.814-9.138-2.592-.068.135,7.864,4.482-1.121,2.22Z" fill="#fec32e"/>
      <path id="Path_2164" data-name="Path 2164" d="M23.188,91.185l3.206-5.458,1.934,1.137L26.584,89.83,29.4,91.486l1.607-2.737,1.935,1.136-1.609,2.737,3.2,1.877,1.81-3.08,1.967,1.155-3.273,5.572Z" fill="#fec32e"/>
      <path id="Path_2165" data-name="Path 2165" d="M31.646,77.707l4.5,3.153,1.527-2.179-4.5-3.153,1.713-2.444,11.253,7.889-1.713,2.443-4.934-3.459-1.528,2.18L42.9,85.6l-1.67,2.381L29.976,80.088Z" fill="#fec32e"/>
      <path id="Path_2166" data-name="Path 2166" d="M39.18,67.111c1.795-2.24,5.307-2.154,8.778.628,2.906,2.33,4.387,5.831,2.378,8.337-1.973,2.462-5.6,1.916-8.7-.568-3.514-2.818-4.236-6.173-2.453-8.4m9.552,7.655c.951-1.187-.627-2.987-2.718-4.663-2.24-1.795-4.349-2.9-5.276-1.744-.975,1.216.688,3.061,2.824,4.773,2.344,1.878,4.255,2.776,5.17,1.634" fill="#fec32e"/>
      <path id="Path_2167" data-name="Path 2167" d="M44.359,61.276l2.35-2.538,7.522,5.021.1-.111L48.76,56.52,51.1,54,61.852,62.6l-1.717,1.855L53.2,58.635l-.1.112,5.583,7.7L57.3,67.944,49.223,62.93l-.1.112,6.328,6.48-1.691,1.826Z" fill="#fec32e"/>
      <path id="Path_2168" data-name="Path 2168" d="M53.592,51.56,58.17,47.2l1.546,1.623L57.228,51.19l2.255,2.365,2.3-2.189,1.546,1.622-2.3,2.189,2.556,2.681,2.585-2.464,1.572,1.649L63.069,61.5Z" fill="#fec32e"/>
      <path id="Path_2169" data-name="Path 2169" d="M89.413,40.345l-6.146-9.67-2,1.274-1.224-1.925,6.575-4.179,1.223,1.924-2.036,1.3,6.146,9.67Z" fill="#fec32e"/>
      <path id="Path_2170" data-name="Path 2170" d="M97.035,32.586l-2.342,1.342.945,2.569L93.23,37.876,88.842,24.552l3.019-1.728,9.4,10.452-2.508,1.435Zm-4.81-5.875-.132.076,1.8,5.057,1.748-1Z" fill="#fec32e"/>
      <path id="Path_2171" data-name="Path 2171" d="M96.04,20.517,98.693,19.2l2.609,5.24.136-.067-.643-6.24,2.909-1.448.166,7.2,6.255,4.975-3.046,1.516-4.938-4.59-.136.068,2.811,5.648-2.654,1.321Z" fill="#fec32e"/>
      <path id="Path_2172" data-name="Path 2172" d="M105.551,15.892l5.808-2.515.89,2.058L109.093,16.8l1.3,3L113.3,18.54,114.2,20.6l-2.913,1.261,1.473,3.4,3.279-1.42.907,2.093-5.93,2.568Z" fill="#fec32e"/>
      <path id="Path_2173" data-name="Path 2173" d="M118.3,10.666l3.283-1.086,4.156,8.029.145-.047-1.434-8.931,3.265-1.079,5.252,12.729-2.4.794-3.255-8.448-.144.048,1.161,9.44-1.929.638-4.643-8.289-.145.048,2.408,8.729-2.363.781Z" fill="#fec32e"/>
      <path id="Path_2174" data-name="Path 2174" d="M131.06,6.622l6.123-1.6.567,2.17-3.328.87.826,3.163,3.072-.8.566,2.169-3.07.8.937,3.585,3.457-.9.577,2.207-6.251,1.633Z" fill="#fec32e"/>
      <path id="Path_2175" data-name="Path 2175" d="M146.575,3.052l.957,5.406L150.151,8l-.957-5.407,2.937-.519,2.394,13.525-2.937.52-1.05-5.931-2.619.464,1.05,5.93-2.863.507L143.713,3.558Z" fill="#fec32e"/>
      <path id="Path_2176" data-name="Path 2176" d="M159.371.867c2.852-.317,5.278,2.224,5.77,6.644.413,3.7-1.011,7.227-4.2,7.583-3.136.35-5.32-2.6-5.76-6.549-.5-4.477,1.36-7.362,4.193-7.678m1.356,12.166c1.512-.168,1.666-2.557,1.369-5.221-.318-2.852-1.03-5.125-2.5-4.961-1.549.173-1.674,2.654-1.371,5.374.333,2.985,1.052,4.97,2.506,4.808" fill="#fec32e"/>
      <path id="Path_2177" data-name="Path 2177" d="M167.18.4l3.454-.139,1.782,8.865.153-.007L173.653.138,177.088,0l1.539,13.684-2.525.1-.8-9.017-.151,0-1.486,9.4-2.031.081L169.456,5l-.152.007-.092,9.054-2.487.1Z" fill="#fec32e"/>
      <path id="Path_2178" data-name="Path 2178" d="M180.566.033l6.325.143-.05,2.241L183.4,2.34l-.073,3.267,3.172.072-.05,2.241-3.173-.071-.083,3.705,3.571.08-.052,2.279-6.459-.145Z" fill="#fec32e"/>
      <path id="Path_2179" data-name="Path 2179" d="M316.694,72.817a1.5,1.5,0,1,1-1.5,1.5,1.5,1.5,0,0,1,1.5-1.5" fill="#fec32e"/>
      <path id="Path_2180" data-name="Path 2180" d="M349.594,199.946a1.5,1.5,0,1,1-1.5,1.5,1.5,1.5,0,0,1,1.5-1.5" fill="#fec32e"/>
      <path id="Path_2181" data-name="Path 2181" d="M283.651,313.652a1.5,1.5,0,1,1-1.5,1.5,1.5,1.5,0,0,1,1.5-1.5" fill="#fec32e"/>
      <path id="Path_2182" data-name="Path 2182" d="M157.369,348.339a1.5,1.5,0,1,1-1.5,1.5,1.5,1.5,0,0,1,1.5-1.5" fill="#fec32e"/>
      <path id="Path_2183" data-name="Path 2183" d="M41.88,282.948a1.5,1.5,0,1,1-1.5,1.5,1.5,1.5,0,0,1,1.5-1.5" fill="#fec32e"/>
      <path id="Path_2184" data-name="Path 2184" d="M8.521,155.069a1.5,1.5,0,1,1-1.5,1.5,1.5,1.5,0,0,1,1.5-1.5" fill="#fec32e"/>
      <path id="Path_2185" data-name="Path 2185" d="M72.682,41.522a1.5,1.5,0,1,1-1.5,1.5,1.5,1.5,0,0,1,1.5-1.5" fill="#fec32e"/>
      <path id="Path_2186" data-name="Path 2186" d="M201.618,6.393a1.5,1.5,0,1,1-1.5,1.5,1.5,1.5,0,0,1,1.5-1.5" fill="#fec32e"/>
    </g>
  </g>
</svg>
