<svg id="Group_4798" data-name="Group 4798" xmlns="http://www.w3.org/2000/svg" xmlns:xlink="http://www.w3.org/1999/xlink" width="358.76" height="358.806" viewBox="0 0 358.76 358.806">
  <defs>
    <clipPath id="clip-path">
      <rect id="Rectangle_572" data-name="Rectangle 572" width="358.76" height="358.806" fill="#fec32e"/>
    </clipPath>
  </defs>
  <g id="Group_4797" data-name="Group 4797" clip-path="url(#clip-path)">
    <path id="Path_2203" data-name="Path 2203" d="M221.844,9.547c.265-1.187.231-2.27-.526-2.451-1.183-.283-2.135,1.735-2.787,4.452-.575,2.4-.721,4.81.5,5.1.813.194,1.355-.848,1.648-1.99l3.123.748c-1.039,2.545-3.275,3.807-5.271,3.329-3.437-.823-3.892-4.878-3.166-7.909.795-3.326,3.146-6.612,6.454-5.82,2,.477,3.384,2.589,3.112,5.278Z" fill="#fec32e"/>
    <path id="Path_2204" data-name="Path 2204" d="M230.522,7.451,228.917,12.7l2.543.777,1.606-5.252,2.853.872L231.9,22.24l-2.854-.872,1.761-5.761-2.544-.777-1.761,5.761-2.78-.85L227.742,6.6Z" fill="#fec32e"/>
    <path id="Path_2205" data-name="Path 2205" d="M238.3,9.944l5.939,2.175-.77,2.105-3.229-1.182-1.123,3.068L242.1,17.2l-.771,2.1-2.978-1.09-1.274,3.478,3.354,1.228-.784,2.14-6.065-2.22Z" fill="#fec32e"/>
    <path id="Path_2206" data-name="Path 2206" d="M249.477,18.97c.46-1.125.608-2.2-.107-2.5-1.119-.477-2.4,1.353-3.493,3.921-.97,2.271-1.518,4.619-.365,5.111.769.329,1.479-.607,1.958-1.683l2.953,1.26c-1.451,2.335-3.868,3.2-5.755,2.4-3.249-1.388-3.017-5.462-1.794-8.327,1.343-3.145,4.211-5.989,7.338-4.655,1.887.806,2.9,3.121,2.183,5.725Z" fill="#fec32e"/>
    <path id="Path_2207" data-name="Path 2207" d="M255.724,17.036l2.652,1.321-2.608,5.236.136.067,4.589-4.27,2.906,1.448-5.642,4.468-.2,7.983-3.043-1.516.687-6.7L255.065,25l-2.812,5.642-2.652-1.32Z" fill="#fec32e"/>
    <path id="Path_2208" data-name="Path 2208" d="M272.874,26c2.449,1.495,2.81,4.988.493,8.784-1.941,3.179-5.225,5.093-7.967,3.419-2.692-1.644-2.611-5.313-.542-8.7,2.347-3.844,5.583-4.987,8.016-3.5M266.5,36.44c1.3.792,2.883-1,4.279-3.288,1.495-2.449,2.325-4.682,1.059-5.454-1.33-.813-2.948,1.072-4.374,3.407-1.565,2.564-2.213,4.572-.964,5.335" fill="#fec32e"/>
    <path id="Path_2209" data-name="Path 2209" d="M273.633,37.259,278.7,30l2.415,1.686-5.308,7.6c-1.068,1.527-1.116,2.326-.539,2.73s1.306.053,2.362-1.457l5.308-7.6,2.369,1.654-5.071,7.259C278.2,44.785,275.919,45.136,274,43.8c-1.9-1.327-2.4-3.626-.37-6.539" fill="#fec32e"/>
    <path id="Path_2210" data-name="Path 2210" d="M280.017,47.867l7.048-9.025-1.871-1.462,1.4-1.8,6.138,4.792-1.4,1.8-1.9-1.485-7.048,9.026Z" fill="#fec32e"/>
    <path id="Path_2211" data-name="Path 2211" d="M300.845,47.076c2.114,1.941,1.792,5.437-1.214,8.71-2.518,2.743-6.109,3.986-8.474,1.814-2.322-2.133-1.534-5.716,1.151-8.64,3.045-3.316,6.439-3.81,8.537-1.884m-8.273,9.012c1.119,1.027,3.021-.425,4.832-2.4,1.939-2.114,3.185-4.143,2.093-5.145-1.148-1.054-3.1.481-4.948,2.5-2.031,2.211-3.054,4.057-1.977,5.046" fill="#fec32e"/>
    <path id="Path_2212" data-name="Path 2212" d="M299.43,58.291l6.378-6.137,2.041,2.121-6.68,6.427c-1.341,1.29-1.544,2.066-1.056,2.572s1.27.307,2.6-.97l6.68-6.427,2,2.081-6.378,6.136c-2.56,2.463-4.868,2.364-6.487.68s-1.656-4.021.9-6.483" fill="#fec32e"/>
    <path id="Path_2213" data-name="Path 2213" d="M313.088,59.82l2.522,2.945c1.347,1.573,1.834,4.158-.042,5.764a3.817,3.817,0,0,1-4.284.491L308.337,75.4l-2.1-2.454,2.9-5.664-.1-.117-4.462,3.847-1.928-2.252Zm-2.746,6.229.459.508c.607.68,1.607.649,2.531-.142a1.759,1.759,0,0,0,.5-2.428l-.443-.545Z" fill="#fec32e"/>
    <path id="Path_2214" data-name="Path 2214" d="M322.446,71.194l2.13,2.938a4.3,4.3,0,0,1-.862,6.188,4.381,4.381,0,0,1-6.213-1.058l-.379-.522-4.045,2.934-1.751-2.415Zm-3.607,6.254.349.45c.5.651,1.556.82,2.71-.016,1.2-.871,1.234-1.858.841-2.465l-.348-.545Z" fill="#fec32e"/>
    <path id="Path_2215" data-name="Path 2215" d="M328.183,79.215l2.1,3.259c1.119,1.741,1.249,4.367-.827,5.7a3.818,3.818,0,0,1-4.309-.1l-3.786,5.911-1.746-2.715,3.649-5.213-.082-.128-4.943,3.2-1.6-2.492Zm-3.568,5.793.386.564c.509.757,1.5.864,2.524.207a1.757,1.757,0,0,0,.824-2.336l-.364-.6Z" fill="#fec32e"/>
    <path id="Path_2216" data-name="Path 2216" d="M336.13,91.641c1.4,2.5.008,5.723-3.869,7.9-3.248,1.821-7.048,1.883-8.618-.918-1.542-2.751.323-5.91,3.787-7.851,3.926-2.2,7.306-1.615,8.7.871m-10.672,5.984c.743,1.325,3,.538,5.34-.772,2.5-1.4,4.317-2.944,3.592-4.237-.762-1.358-3.1-.508-5.481.83-2.618,1.468-4.166,2.9-3.451,4.179" fill="#fec32e"/>
    <path id="Path_2217" data-name="Path 2217" d="M331.75,103.87c-1.322.54-2.236,1.049-1.912,1.715.3.615,1.236.454,2.534-.179l8.469-4.133,1.292,2.647-8.384,4.091c-2.6,1.266-4.857.573-5.849-1.459-1.033-2.118.109-4.2,2.534-5.379Z" fill="#fec32e"/>
    <path id="Path_2218" data-name="Path 2218" d="M343.119,106.106l2.495,5.813-2.06.884-1.356-3.159-3,1.288,1.252,2.915-2.06.885-1.251-2.915-3.4,1.461,1.409,3.281-2.094.9-2.548-5.936Z" fill="#fec32e"/>
    <path id="Path_2219" data-name="Path 2219" d="M344.224,120.433c1.135-.437,2.018-1.066,1.749-1.8-.42-1.141-2.629-.814-5.251.15-2.319.853-4.4,2.065-3.972,3.243.289.785,1.458.658,2.571.269l1.108,3.015c-2.694.546-4.985-.616-5.694-2.543-1.22-3.317,1.9-5.945,4.829-7.022,3.211-1.18,7.25-1.045,8.425,2.147.708,1.927-.279,4.254-2.669,5.518Z" fill="#fec32e"/>
    <path id="Path_2220" data-name="Path 2220" d="M337.155,128.949l10.949-3.386-.7-2.269,2.18-.674,2.3,7.444-2.179.674-.713-2.306-10.95,3.386Z" fill="#fec32e"/>
    <path id="Path_2221" data-name="Path 2221" d="M343.285,136.306c-1.156.082-2.042.6-1.862,1.3.141.552.727.7,1.39.525a3.092,3.092,0,0,0,2-2.221c.583-1.7,1.613-3.494,3.656-4.019a3.694,3.694,0,0,1,4.787,2.6c.468,1.822-.386,3.689-2.851,4.558l-.737-2.871c1-.14,1.765-.61,1.623-1.162-.118-.46-.75-.632-1.505-.437-.718.184-1.289.861-1.678,2.1-.591,1.9-1.63,3.578-3.8,4.136a3.7,3.7,0,0,1-4.811-2.687c-.4-1.564.025-3.871,3.015-4.836Z" fill="#fec32e"/>
    <path id="Path_2222" data-name="Path 2222" d="M353.986,167.258c1.211-.112,2.23-.477,2.17-1.253-.094-1.212-2.307-1.5-5.09-1.283-2.462.19-4.8.79-4.7,2.04.064.833,1.223,1.029,2.4.958l.247,3.2c-2.739-.208-4.627-1.947-4.785-3.992-.272-3.523,3.447-5.2,6.552-5.441,3.408-.264,7.256.962,7.518,4.352.158,2.045-1.423,4.016-4.065,4.582Z" fill="#fec32e"/>
    <path id="Path_2223" data-name="Path 2223" d="M358.661,174.822l-5.49.1.047,2.66,5.49-.1.053,2.983-13.736.243-.052-2.983,6.022-.106-.047-2.66-6.022.106-.051-2.906,13.734-.243Z" fill="#fec32e"/>
    <path id="Path_2224" data-name="Path 2224" d="M358.7,183l-.224,6.321-2.24-.079.122-3.436-3.264-.116-.113,3.17-2.24-.079.112-3.17-3.7-.131-.127,3.569-2.277-.08.228-6.454Z" fill="#fec32e"/>
    <path id="Path_2225" data-name="Path 2225" d="M353.584,196.427c1.213.087,2.278-.1,2.347-.881.106-1.211-2.03-1.856-4.811-2.1-2.46-.217-4.862-.008-4.972,1.24-.073.833,1.038,1.217,2.209,1.339l-.281,3.2c-2.669-.654-4.245-2.681-4.065-4.724.308-3.519,4.253-4.564,7.355-4.292,3.406.3,7,2.141,6.7,5.528-.179,2.044-2.062,3.727-4.761,3.852Z" fill="#fec32e"/>
    <path id="Path_2226" data-name="Path 2226" d="M357.376,201.76l-.431,2.933-5.79-.851-.022.15,5.488,3.035-.472,3.214-6-3.974-7.654,2.294.494-3.364,6.587-1.434.022-.15-6.241-.917.43-2.933Z" fill="#fec32e"/>
    <path id="Path_2227" data-name="Path 2227" d="M354.2,220.823c-.659,2.793-3.866,4.222-8.194,3.2-3.625-.856-6.465-3.38-5.728-6.506.725-3.07,4.237-4.135,8.1-3.223,4.383,1.034,6.474,3.753,5.82,6.528m-11.91-2.811c-.35,1.479,1.848,2.428,4.456,3.043,2.792.659,5.172.752,5.512-.69.358-1.517-1.936-2.468-4.6-3.1-2.923-.69-5.033-.68-5.369.744" fill="#fec32e"/>
    <path id="Path_2228" data-name="Path 2228" d="M343.727,225.062l8.476,2.567-.854,2.819-8.876-2.688c-1.782-.54-2.559-.338-2.762.335-.21.692.353,1.259,2.118,1.793l8.876,2.689-.837,2.764-8.477-2.567c-3.4-1.03-4.444-3.094-3.767-5.33.672-2.22,2.7-3.412,6.1-2.382" fill="#fec32e"/>
    <path id="Path_2229" data-name="Path 2229" d="M335.628,234.418l10.774,3.9.809-2.233,2.144.776-2.653,7.327-2.144-.777.822-2.269-10.774-3.9Z" fill="#fec32e"/>
    <path id="Path_2230" data-name="Path 2230" d="M342.824,254.011c-1.194,2.61-4.62,3.385-8.666,1.535-3.388-1.549-5.68-4.583-4.344-7.505,1.312-2.869,4.966-3.226,8.579-1.574,4.1,1.873,5.616,4.95,4.431,7.544M331.69,248.92c-.632,1.384,1.338,2.744,3.775,3.858,2.611,1.194,4.927,1.751,5.543.4.649-1.418-1.416-2.8-3.9-3.939-2.731-1.249-4.8-1.653-5.413-.322" fill="#fec32e"/>
    <path id="Path_2231" data-name="Path 2231" d="M331.724,256.109l7.808,4.174-1.388,2.6-8.177-4.372c-1.641-.878-2.441-.831-2.773-.211-.34.636.1,1.3,1.725,2.172l8.176,4.37-1.361,2.547-7.808-4.173c-3.133-1.675-3.752-3.9-2.65-5.962s3.315-2.817,6.448-1.142" fill="#fec32e"/>
    <path id="Path_2232" data-name="Path 2232" d="M334.48,269.575l-2.023,3.306c-1.081,1.767-3.39,3.026-5.5,1.737a3.818,3.818,0,0,1-1.787-3.923l-6.972-.836,1.686-2.755,6.283,1.016.079-.13-5.033-3.057,1.548-2.529Zm-6.771-.692-.341.594c-.46.788-.123,1.729.914,2.364a1.759,1.759,0,0,0,2.463-.275l.383-.59Z" fill="#fec32e"/>
    <path id="Path_2233" data-name="Path 2233" d="M326.544,281.979l-2.136,2.932A4.3,4.3,0,0,1,318.257,286a4.378,4.378,0,0,1-.911-6.232l.381-.522L313.69,276.3l1.756-2.41Zm-7.06-1.5-.32.472c-.466.672-.3,1.732.852,2.571,1.2.873,2.147.6,2.6.04l.411-.5Z" fill="#fec32e"/>
    <path id="Path_2234" data-name="Path 2234" d="M320.671,289.931l-2.456,3c-1.312,1.6-3.77,2.535-5.68.97a3.816,3.816,0,0,1-1.234-4.13l-6.792-1.782,2.047-2.5,6.084,1.866.1-.117-4.568-3.718,1.878-2.292Zm-6.612-1.611-.419.541c-.562.718-.357,1.7.583,2.467a1.76,1.76,0,0,0,2.477.064l.46-.532Z" fill="#fec32e"/>
    <path id="Path_2235" data-name="Path 2235" d="M311.324,301.3c-1.946,2.108-5.443,1.776-8.71-1.241-2.736-2.527-3.969-6.123-1.79-8.482,2.141-2.319,5.723-1.519,8.641,1.176,3.308,3.056,3.794,6.452,1.859,8.547m-8.991-8.305c-1.031,1.118.416,3.024,2.385,4.842,2.108,1.947,4.135,3.2,5.14,2.108,1.058-1.145-.472-3.1-2.483-4.958-2.206-2.037-4.049-3.066-5.042-1.992" fill="#fec32e"/>
    <path id="Path_2236" data-name="Path 2236" d="M298.306,300.931c-.922-1.092-1.688-1.8-2.222-1.289-.492.476-.049,1.316.953,2.355l6.547,6.782-2.119,2.046-6.48-6.713c-2.007-2.078-2.046-4.445-.419-6.015,1.695-1.637,4.026-1.193,5.9.748Z" fill="#fec32e"/>
    <path id="Path_2237" data-name="Path 2237" d="M299.725,312.4l-4.756,4.172-1.478-1.686,2.586-2.267-2.156-2.457-2.384,2.092-1.479-1.685,2.385-2.092L290,305.7l-2.685,2.355-1.5-1.713,4.856-4.26Z" fill="#fec32e"/>
    <path id="Path_2238" data-name="Path 2238" d="M286.438,317.9c.768.943,1.639,1.588,2.25,1.105.955-.752-.039-2.751-1.769-4.945-1.529-1.939-3.329-3.546-4.313-2.769-.656.517-.175,1.588.54,2.526l-2.522,1.988c-1.354-2.393-.959-4.93.653-6.2,2.775-2.188,6.241-.033,8.171,2.415,2.117,2.686,3.241,6.567.569,8.673-1.611,1.27-4.129,1.054-6.071-.827Z" fill="#fec32e"/>
    <path id="Path_2239" data-name="Path 2239" d="M276.139,313.828l6.616,9.357,1.94-1.372,1.316,1.863-6.362,4.5-1.317-1.863,1.971-1.392-6.615-9.358Z" fill="#fec32e"/>
    <path id="Path_2240" data-name="Path 2240" d="M271.054,321.938c-.437-1.074-1.209-1.754-1.818-1.365-.481.306-.435.909-.067,1.485a3.093,3.093,0,0,0,2.734,1.21c1.8.025,3.824.445,4.959,2.224a3.694,3.694,0,0,1-.978,5.358c-1.586,1.012-3.627.781-5.22-1.291l2.5-1.6c.446.911,1.13,1.489,1.611,1.182.4-.256.366-.91-.053-1.567a2.736,2.736,0,0,0-2.517-.942c-1.988.03-3.909-.436-5.115-2.327a3.7,3.7,0,0,1,1.058-5.409c1.361-.869,3.687-1.181,5.535,1.36Z" fill="#fec32e"/>
    <path id="Path_2241" data-name="Path 2241" d="M244.948,341.75c.483,1.115,1.146,1.972,1.866,1.673,1.123-.466.707-2.658-.363-5.237-.946-2.282-2.241-4.315-3.4-3.835-.773.32-.6,1.482-.166,2.578l-2.965,1.229c-.655-2.669.413-5,2.307-5.79,3.265-1.353,6.016,1.659,7.209,4.537,1.311,3.159,1.34,7.2-1.8,8.5-1.9.786-4.259-.105-5.619-2.441Z" fill="#fec32e"/>
    <path id="Path_2242" data-name="Path 2242" d="M239.207,348.534l-1.79-5.189-2.515.867,1.791,5.19-2.82.972-4.479-12.985,2.82-.972,1.964,5.693,2.514-.867-1.964-5.693,2.749-.949,4.478,12.986Z" fill="#fec32e"/>
    <path id="Path_2243" data-name="Path 2243" d="M231.439,351.1l-6.082,1.737-.615-2.155,3.3-.944-.9-3.142-3.051.871-.615-2.154,3.05-.872-1.018-3.562-3.433.982-.626-2.193,6.21-1.774Z" fill="#fec32e"/>
    <path id="Path_2244" data-name="Path 2244" d="M217.09,350.379c.29,1.182.8,2.137,1.562,1.963,1.185-.272,1.141-2.5.518-5.227-.552-2.408-1.489-4.631-2.712-4.35-.815.186-.839,1.361-.594,2.514l-3.13.717c-.2-2.742,1.244-4.867,3.245-5.325,3.445-.789,5.654,2.644,6.35,5.682.764,3.334.117,7.323-3.2,8.082-2,.458-4.183-.817-5.133-3.348Z" fill="#fec32e"/>
    <path id="Path_2245" data-name="Path 2245" d="M213.173,355.621l-2.923.49-.969-5.771-.149.025-1.2,6.154-3.2.539,1.938-6.934-4.533-6.579,3.355-.563,3.385,5.828.15-.025-1.044-6.221,2.924-.491Z" fill="#fec32e"/>
    <path id="Path_2246" data-name="Path 2246" d="M194.047,358.457c-2.859.233-5.207-2.378-5.567-6.809-.3-3.711,1.225-7.191,4.426-7.451,3.143-.256,5.237,2.756,5.559,6.714.365,4.489-1.578,7.315-4.418,7.546m-.992-12.2c-1.516.124-1.741,2.506-1.523,5.176.232,2.859.877,5.151,2.353,5.031,1.553-.127,1.752-2.6,1.53-5.328-.244-2.992-.9-5-2.36-4.879" fill="#fec32e"/>
    <path id="Path_2247" data-name="Path 2247" d="M186.785,349.8l.17,8.853-2.944.056-.179-9.27c-.036-1.862-.467-2.537-1.17-2.524-.722.014-1.088.724-1.053,2.567l.179,9.27-2.888.056-.171-8.853c-.068-3.552,1.574-5.18,3.91-5.225,2.318-.045,4.077,1.517,4.146,5.07" fill="#fec32e"/>
    <path id="Path_2248" data-name="Path 2248" d="M175.4,344.989l-.368,11.455,2.374.076-.073,2.28-7.788-.25.073-2.28,2.412.077.368-11.455Z" fill="#fec32e"/>
    <path id="Path_2249" data-name="Path 2249" d="M159.024,357.908c-2.85-.32-4.653-3.333-4.156-7.75.416-3.7,2.582-6.819,5.772-6.461,3.133.352,4.609,3.71,4.166,7.655-.5,4.473-2.951,6.874-5.782,6.556m1.366-12.156c-1.511-.17-2.188,2.124-2.487,4.786-.321,2.85-.129,5.223,1.343,5.388,1.548.174,2.218-2.217,2.524-4.935.335-2.982.073-5.076-1.38-5.239" fill="#fec32e"/>
    <path id="Path_2250" data-name="Path 2250" d="M153.573,348.021l-1.536,8.717-2.9-.511,1.609-9.129c.323-1.833.03-2.579-.662-2.7-.711-.125-1.207.5-1.528,2.315l-1.608,9.129-2.843-.5,1.535-8.716c.618-3.5,2.54-4.781,4.841-4.375,2.282.4,3.708,2.273,3.092,5.772" fill="#fec32e"/>
    <path id="Path_2251" data-name="Path 2251" d="M141.609,354.834l-3.772-.9c-2.016-.48-3.932-2.283-3.361-4.687a3.819,3.819,0,0,1,3.175-2.919l-1.371-6.89,3.144.747.986,6.291.148.035,1.343-5.737,2.886.685Zm-1.447-6.655-.67-.14c-.892-.192-1.683.421-1.964,1.605a1.762,1.762,0,0,0,1.028,2.257l.679.18Z" fill="#fec32e"/>
    <path id="Path_2252" data-name="Path 2252" d="M127.336,351.138l-3.451-1.122a4.3,4.3,0,0,1-2.943-5.512,4.381,4.381,0,0,1,5.645-2.8l.614.2,1.546-4.751,2.836.922Zm-.762-7.18-.548-.158c-.783-.235-1.741.253-2.181,1.608-.459,1.409.094,2.228.769,2.488l.6.235Z" fill="#fec32e"/>
    <path id="Path_2253" data-name="Path 2253" d="M117.99,348.032l-3.611-1.407c-1.929-.752-3.578-2.8-2.68-5.1a3.814,3.814,0,0,1,3.544-2.452l-.409-7.009,3.009,1.172.11,6.364.142.055,2.12-5.494,2.762,1.076Zm-.516-6.786-.644-.23c-.857-.314-1.723.184-2.165,1.317a1.76,1.76,0,0,0,.705,2.375l.649.272Z" fill="#fec32e"/>
    <path id="Path_2254" data-name="Path 2254" d="M104.261,342.647c-2.606-1.2-3.37-4.628-1.51-8.666,1.559-3.383,4.6-5.665,7.514-4.321,2.864,1.319,3.211,4.973,1.55,8.579-1.885,4.091-4.965,5.6-7.554,4.408m5.121-11.114c-1.382-.636-2.747,1.329-3.868,3.763-1.2,2.605-1.764,4.919-.418,5.539,1.415.652,2.8-1.407,3.948-3.893,1.256-2.726,1.666-4.8.338-5.409" fill="#fec32e"/>
    <path id="Path_2255" data-name="Path 2255" d="M100.612,330.165c.753-1.213,1.193-2.162.539-2.51-.6-.321-1.267.359-1.945,1.633l-4.427,8.317-2.6-1.382,4.383-8.235c1.357-2.549,3.6-3.316,5.59-2.254,2.08,1.108,2.377,3.46,1.109,5.842Z" fill="#fec32e"/>
    <path id="Path_2256" data-name="Path 2256" d="M90.1,335.035l-5.432-3.242,1.15-1.925,2.952,1.763,1.674-2.806L87.722,327.2l1.149-1.925L91.6,326.9l1.9-3.18-3.068-1.831,1.169-1.958,5.546,3.311Z" fill="#fec32e"/>
    <path id="Path_2257" data-name="Path 2257" d="M80.783,324.09c-.661,1.021-1.006,2.049-.358,2.481,1.01.677,2.606-.884,4.16-3.207,1.375-2.052,2.349-4.259,1.306-4.957-.694-.465-1.566.324-2.237,1.292l-2.669-1.787c1.86-2.025,4.4-2.431,6.1-1.29,2.937,1.967,1.954,5.929.219,8.52-1.9,2.843-5.25,5.107-8.076,3.215-1.706-1.143-2.275-3.6-1.085-6.033Z" fill="#fec32e"/>
    <path id="Path_2258" data-name="Path 2258" d="M81.506,313.052l-6.864,9.174,1.9,1.423-1.366,1.825-6.237-4.667,1.366-1.825,1.931,1.445,6.865-9.173Z" fill="#fec32e"/>
    <path id="Path_2259" data-name="Path 2259" d="M72.211,310.7c.887-.747,1.295-1.69.738-2.149-.44-.364-1-.134-1.433.394a3.089,3.089,0,0,0-.308,2.972c.53,1.718.756,3.774-.586,5.4a3.694,3.694,0,0,1-5.4.723c-1.452-1.2-1.862-3.209-.382-5.363l2.287,1.885c-.729.7-1.066,1.534-.627,1.9.367.3.979.067,1.475-.533a2.74,2.74,0,0,0,.119-2.685c-.641-1.882-.79-3.852.635-5.582A3.7,3.7,0,0,1,74.2,307c1.246,1.026,2.261,3.142.413,5.683Z" fill="#fec32e"/>
    <path id="Path_2260" data-name="Path 2260" d="M45.32,292.01c-.911.8-1.52,1.7-1.013,2.293.791.924,2.747-.151,4.869-1.968,1.877-1.606,3.41-3.47,2.594-4.422-.544-.634-1.6-.11-2.5.642l-2.089-2.44c2.336-1.45,4.888-1.158,6.223.4,2.3,2.684.285,6.235-2.082,8.262-2.6,2.224-6.431,3.5-8.644.92-1.334-1.558-1.219-4.084.582-6.1Z" fill="#fec32e"/>
    <path id="Path_2261" data-name="Path 2261" d="M37.087,288.658l4.379-3.316-1.607-2.121-4.378,3.315-1.8-2.378,10.954-8.3,1.8,2.379-4.8,3.638L43.239,284l4.8-3.638,1.756,2.318-10.955,8.3Z" fill="#fec32e"/>
    <path id="Path_2262" data-name="Path 2262" d="M32.239,282.072,28.7,276.829l1.857-1.256,1.926,2.851,2.708-1.83-1.776-2.629,1.858-1.255,1.777,2.63,3.07-2.075-2-2.96,1.89-1.276,3.616,5.354Z" fill="#fec32e"/>
    <path id="Path_2263" data-name="Path 2263" d="M28.479,268.222c-1.032.644-1.781,1.427-1.379,2.094.627,1.042,2.734.306,5.127-1.134,2.117-1.273,3.937-2.856,3.29-3.931-.431-.716-1.555-.372-2.574.219l-1.655-2.752c2.544-1.042,5.011-.332,6.069,1.427,1.822,3.028-.752,6.2-3.422,7.8-2.931,1.763-6.922,2.39-8.675-.524-1.058-1.759-.527-4.229,1.583-5.92Z" fill="#fec32e"/>
    <path id="Path_2264" data-name="Path 2264" d="M22.266,266.131l-1.379-2.626,5.185-2.721L26,260.65l-6.225.777-1.511-2.878,7.195-.32,4.84-6.363,1.582,3.013L27.4,259.916l.07.135,5.588-2.934,1.378,2.626Z" fill="#fec32e"/>
    <path id="Path_2265" data-name="Path 2265" d="M13.621,248.829c-1.111-2.645.64-5.688,4.74-7.409,3.433-1.441,7.215-1.072,8.458,1.889,1.221,2.908-.991,5.835-4.652,7.372-4.152,1.743-7.443.776-8.546-1.852M24.9,244.093c-.588-1.4-2.922-.875-5.393.162-2.644,1.11-4.623,2.436-4.048,3.8.6,1.436,3.016.855,5.539-.2,2.768-1.162,4.468-2.412,3.9-3.761" fill="#fec32e"/>
    <path id="Path_2266" data-name="Path 2266" d="M19.59,239.225l-8.361,2.908-.968-2.781,8.757-3.046c1.759-.611,2.267-1.231,2.036-1.894-.237-.683-1.026-.811-2.767-.206L9.53,237.252l-.948-2.727,8.362-2.908c3.356-1.167,5.413-.113,6.18,2.094.761,2.19-.179,4.347-3.534,5.514" fill="#fec32e"/>
    <path id="Path_2267" data-name="Path 2267" d="M20.64,226.914l-11,3.183.659,2.281-2.189.634-2.165-7.483,2.19-.633.67,2.318,11-3.184Z" fill="#fec32e"/>
    <path id="Path_2268" data-name="Path 2268" d="M3.305,215.274c-.57-2.811,1.745-5.449,6.1-6.332,3.649-.739,7.283.367,7.92,3.512.626,3.091-2.118,5.526-6.009,6.314-4.411.892-7.447-.7-8.012-3.494m11.988-2.427c-.3-1.489-2.692-1.432-5.317-.9-2.811.569-5.011,1.479-4.717,2.931.309,1.527,2.79,1.432,5.471.889,2.941-.6,4.853-1.486,4.563-2.92" fill="#fec32e"/>
    <path id="Path_2269" data-name="Path 2269" d="M11.038,207.069l-8.767,1.216-.4-2.916,9.181-1.274c1.844-.255,2.464-.763,2.367-1.46-.1-.714-.848-.994-2.672-.741l-9.182,1.274-.4-2.861,8.768-1.216c3.517-.487,5.328.949,5.648,3.263.318,2.3-1.024,4.227-4.543,4.715" fill="#fec32e"/>
    <path id="Path_2270" data-name="Path 2270" d="M.89,197.8l-.308-3.863c-.164-2.065.961-4.441,3.422-4.637a3.814,3.814,0,0,1,3.752,2.121l6.13-3.424.257,3.219-5.679,2.873.012.151,5.869-.487.236,2.954Zm5.882-3.423-.073-.681c-.092-.907-.918-1.47-2.13-1.374-1.154.093-1.875.856-1.829,1.671l.037.7Z" fill="#fec32e"/>
    <path id="Path_2271" data-name="Path 2271" d="M.059,183.318,0,179.689a4.3,4.3,0,0,1,4.259-4.571,4.38,4.38,0,0,1,4.48,4.431l.01.646,5-.08.047,2.982ZM6.6,180.267l-.027-.569c-.033-.817-.805-1.565-2.23-1.541-1.481.023-2.077.812-2.1,1.534l-.028.647Z" fill="#fec32e"/>
    <path id="Path_2272" data-name="Path 2272" d="M.062,173.232l.215-3.87c.114-2.067,1.55-4.27,4.014-4.133a3.816,3.816,0,0,1,3.433,2.607l6.535-2.567-.179,3.224-6.013,2.082-.009.152,5.881.307-.164,2.959Zm6.289-2.6.019-.684c.032-.911-.711-1.58-1.925-1.647a1.757,1.757,0,0,0-2.038,1.408l-.058.7Z" fill="#fec32e"/>
    <path id="Path_2273" data-name="Path 2273" d="M.912,158.542c.329-2.85,3.348-4.644,7.765-4.133,3.7.428,6.814,2.605,6.446,5.795-.363,3.133-3.727,4.6-7.671,4.143-4.474-.516-6.867-2.974-6.54-5.8m12.155,1.4c.175-1.51-2.118-2.2-4.779-2.5-2.85-.33-5.224-.145-5.4,1.327-.179,1.548,2.211,2.226,4.929,2.54,2.982.345,5.077.089,5.245-1.364" fill="#fec32e"/>
    <path id="Path_2274" data-name="Path 2274" d="M11.634,151.19c1.389.339,2.428.462,2.555-.268.118-.673-.736-1.092-2.159-1.34l-9.286-1.621.506-2.9,9.194,1.6c2.845.5,4.271,2.384,3.882,4.613-.4,2.321-2.548,3.336-5.208,2.873Z" fill="#fec32e"/>
    <path id="Path_2275" data-name="Path 2275" d="M3.729,142.727l1.388-6.174,2.187.492L6.55,140.4l3.189.717.695-3.1,2.189.492-.7,3.1,3.616.812.783-3.485,2.224.5-1.416,6.3Z" fill="#fec32e"/>
    <path id="Path_2276" data-name="Path 2276" d="M11.236,130.475c-1.176-.311-2.26-.319-2.471.431-.329,1.171,1.653,2.2,4.341,2.958,2.379.668,4.779.908,5.118-.3.227-.805-.794-1.388-1.924-1.726l.87-3.092c2.5,1.138,3.677,3.423,3.122,5.4-.956,3.4-5.028,3.7-8.028,2.856-3.294-.925-6.486-3.4-5.566-6.677.556-1.976,2.72-3.283,5.4-2.9Z" fill="#fec32e"/>
    <path id="Path_2277" data-name="Path 2277" d="M21.961,127.7l-10.849-3.671-.76,2.249-2.16-.731,2.5-7.375,2.158.73-.774,2.284,10.849,3.672Z" fill="#fec32e"/>
    <path id="Path_2278" data-name="Path 2278" d="M21.308,118.144c.984.612,2.008.708,2.272.036.209-.53-.181-.99-.818-1.241a3.1,3.1,0,0,0-2.923.627c-1.469,1.036-3.355,1.887-5.318,1.114a3.7,3.7,0,0,1-2.358-4.91c.689-1.751,2.476-2.763,4.983-2.022l-1.086,2.759c-.9-.475-1.788-.541-2-.01-.174.442.238.952.963,1.237a2.735,2.735,0,0,0,2.59-.717c1.592-1.191,3.42-1.943,5.506-1.122a3.7,3.7,0,0,1,2.323,5c-.592,1.5-2.291,3.122-5.279,2.151Z" fill="#fec32e"/>
    <path id="Path_2279" data-name="Path 2279" d="M30.78,86.8c-1.047-.618-2.087-.921-2.493-.256-.635,1.037.99,2.567,3.373,4.025,2.106,1.289,4.349,2.172,5.005,1.1.436-.713-.388-1.551-1.382-2.182l1.676-2.739c2.1,1.776,2.608,4.292,1.537,6.042-1.845,3.014-5.843,2.194-8.5.568-2.917-1.786-5.316-5.037-3.54-7.937,1.071-1.75,3.508-2.42,5.98-1.329Z" fill="#fec32e"/>
    <path id="Path_2280" data-name="Path 2280" d="M31.437,77.932l4.5,3.144L37.462,78.9l-4.5-3.145L34.668,73.3,45.932,81.17l-1.708,2.447-4.938-3.45-1.524,2.182L42.7,85.8l-1.665,2.384L29.772,80.315Z" fill="#fec32e"/>
    <path id="Path_2281" data-name="Path 2281" d="M36.2,71.293l3.9-4.984,1.766,1.38L39.748,70.4l2.575,2.013,1.954-2.5,1.767,1.381-1.955,2.5,2.919,2.282,2.2-2.814,1.8,1.4-3.98,5.089Z" fill="#fec32e"/>
    <path id="Path_2282" data-name="Path 2282" d="M48.233,63.425c-.931-.783-1.906-1.254-2.418-.666-.8.918.553,2.7,2.661,4.528,1.864,1.621,3.932,2.864,4.755,1.917.548-.631-.125-1.593-1-2.382L54.336,64.4c1.777,2.1,1.862,4.665.515,6.214-2.318,2.667-6.126,1.2-8.478-.848-2.581-2.243-4.41-5.847-2.178-8.414,1.346-1.549,3.86-1.807,6.12-.322Z" fill="#fec32e"/>
    <path id="Path_2283" data-name="Path 2283" d="M48.305,56.886l2.071-2.121,4.188,4.089.1-.109-2.661-5.679,2.271-2.325,2.526,6.743,7.543,2.637-2.377,2.434L55.8,59.847l-.106.109,4.513,4.408-2.07,2.12Z" fill="#fec32e"/>
    <path id="Path_2284" data-name="Path 2284" d="M62.081,43.326c2.173-1.873,5.607-1.147,8.51,2.22,2.432,2.82,3.248,6.531.816,8.628-2.389,2.059-5.856.859-8.448-2.147-2.941-3.412-3.036-6.839-.878-8.7m7.988,9.267c1.151-.992-.07-3.05-1.819-5.078-1.873-2.173-3.744-3.646-4.867-2.678-1.18,1.018.119,3.134,1.905,5.206,1.96,2.274,3.674,3.505,4.781,2.55" fill="#fec32e"/>
    <path id="Path_2285" data-name="Path 2285" d="M73.054,46.028l-5.361-7.047L70.036,37.2l5.615,7.379c1.128,1.482,1.874,1.773,2.433,1.347.575-.437.452-1.226-.664-2.693l-5.614-7.379L74.1,34.1l5.361,7.046c2.152,2.828,1.787,5.111-.072,6.526s-4.188,1.18-6.339-1.647" fill="#fec32e"/>
    <path id="Path_2286" data-name="Path 2286" d="M85.087,43.206l-6.44-9.478-1.965,1.336L75.4,33.178,81.844,28.8l1.282,1.886-2,1.356,6.44,9.478Z" fill="#fec32e"/>
    <path id="Path_2287" data-name="Path 2287" d="M90.734,23.11c2.495-1.417,5.726-.039,7.922,3.829,1.839,3.239,1.921,7.039-.872,8.625-2.743,1.557-5.913-.292-7.875-3.746-2.224-3.917-1.653-7.3.825-8.708m6.043,10.643c1.322-.751.522-3.007-.8-5.337-1.417-2.5-2.968-4.3-4.257-3.57-1.355.769-.491,3.1.86,5.477,1.483,2.612,2.926,4.153,4.2,3.43" fill="#fec32e"/>
    <path id="Path_2288" data-name="Path 2288" d="M100.969,27.9l-3.89-7.957,2.647-1.293,4.073,8.332c.818,1.673,1.494,2.1,2.126,1.8.648-.317.682-1.116-.128-2.773l-4.073-8.332,2.6-1.268,3.888,7.956c1.562,3.193.76,5.362-1.341,6.389-2.083,1.018-4.337.343-5.9-2.85" fill="#fec32e"/>
    <path id="Path_2289" data-name="Path 2289" d="M106.624,15.366l3.576-1.494c1.911-.8,4.521-.468,5.473,1.811a3.819,3.819,0,0,1-.85,4.227l5.161,4.762L117,25.917l-4.5-4.5-.141.058,2.288,5.428-2.735,1.142Zm5.083,4.527.624-.281c.834-.369,1.112-1.329.644-2.451a1.76,1.76,0,0,0-2.158-1.221l-.656.254Z" fill="#fec32e"/>
    <path id="Path_2290" data-name="Path 2290" d="M120.319,9.959l3.45-1.122a4.3,4.3,0,0,1,5.621,2.727,4.378,4.378,0,0,1-2.919,5.583l-.614.2L127.4,22.1l-2.837.923Zm4.839,5.358.536-.194c.771-.271,1.258-1.228.818-2.583-.458-1.41-1.387-1.746-2.085-1.56l-.626.164Z" fill="#fec32e"/>
    <path id="Path_2291" data-name="Path 2291" d="M129.725,6.965l3.747-.987c2-.527,4.541.16,5.17,2.549a3.815,3.815,0,0,1-1.424,4.067l4.454,5.429-3.123.822-3.832-5.081-.147.038,1.518,5.691-2.866.755Zm4.409,5.184.657-.192c.877-.25,1.285-1.163.976-2.339A1.76,1.76,0,0,0,133.8,8.112l-.685.161Z" fill="#fec32e"/>
    <path id="Path_2292" data-name="Path 2292" d="M144,3.247c2.813-.563,5.447,1.759,6.318,6.119.729,3.651-.385,7.284-3.534,7.913-3.092.618-5.522-2.132-6.3-6.025C139.6,6.838,141.2,3.806,144,3.247m2.4,12c1.49-.3,1.438-2.69.914-5.317-.562-2.813-1.468-5.016-2.921-4.725-1.527.3-1.438,2.787-.9,5.47.588,2.943,1.474,4.859,2.909,4.572" fill="#fec32e"/>
    <path id="Path_2293" data-name="Path 2293" d="M154.279,11.192c.1,1.424.308,2.45,1.042,2.347.677-.095.813-1.035.611-2.465l-1.317-9.332,2.917-.412,1.3,9.238c.4,2.859-.953,4.8-3.193,5.113-2.333.329-3.958-1.4-4.335-4.07Z" fill="#fec32e"/>
    <path id="Path_2294" data-name="Path 2294" d="M159.913,1.068l6.3-.579.205,2.232-3.425.316.3,3.254,3.16-.29.205,2.232-3.16.291.34,3.69,3.556-.328.209,2.271-6.432.591Z" fill="#fec32e"/>
    <path id="Path_2295" data-name="Path 2295" d="M173.872,4.444c-.067-1.215-.393-2.247-1.171-2.217-1.215.048-1.585,2.249-1.475,5.039.1,2.468.609,4.824,1.862,4.775.835-.033,1.074-1.183,1.047-2.361l3.208-.126c-.311,2.731-2.121,4.551-4.171,4.632-3.53.139-5.068-3.64-5.19-6.754-.134-3.417,1.237-7.216,4.634-7.349,2.051-.081,3.96,1.574,4.426,4.236Z" fill="#fec32e"/>
    <path id="Path_2296" data-name="Path 2296" d="M179.81,13.774,180,2.318,177.62,2.28,177.657,0l7.789.125L185.409,2.4,183,2.367l-.184,11.455Z" fill="#fec32e"/>
    <path id="Path_2297" data-name="Path 2297" d="M188.714,10.2c-.276,1.126-.05,2.129.671,2.171.569.033.885-.481.925-1.163a3.091,3.091,0,0,0-1.5-2.582c-1.441-1.074-2.835-2.6-2.712-4.708A3.693,3.693,0,0,1,190.026.152c1.878.11,3.4,1.493,3.47,4.106l-2.958-.174c.173-1-.043-1.867-.612-1.9-.474-.027-.83.523-.875,1.3-.044.74.426,1.491,1.486,2.239,1.626,1.142,2.908,2.644,2.778,4.882a3.7,3.7,0,0,1-4.028,3.761c-1.612-.1-3.678-1.206-3.683-4.347Z" fill="#fec32e"/>
    <path id="Path_2298" data-name="Path 2298" d="M205.043,6.849a1.5,1.5,0,1,1-1.5,1.5,1.5,1.5,0,0,1,1.5-1.5" fill="#fec32e"/>
    <path id="Path_2299" data-name="Path 2299" d="M348.975,147.783a1.5,1.5,0,1,1-1.5,1.5,1.5,1.5,0,0,1,1.5-1.5" fill="#fec32e"/>
    <path id="Path_2300" data-name="Path 2300" d="M23.9,100.056a1.5,1.5,0,1,1-1.5,1.5,1.5,1.5,0,0,1,1.5-1.5" fill="#fec32e"/>
    <path id="Path_2301" data-name="Path 2301" d="M258.09,328.645a1.5,1.5,0,1,1-1.5,1.5,1.5,1.5,0,0,1,1.5-1.5" fill="#fec32e"/>
    <path id="Path_2302" data-name="Path 2302" d="M58.3,300.7a1.5,1.5,0,1,1-1.5,1.5,1.5,1.5,0,0,1,1.5-1.5" fill="#fec32e"/>
  </g>
</svg>
