<?xml version="1.0" encoding="utf-8"?>
<!-- Generator: Adobe Illustrator 26.0.2, SVG Export Plug-In . SVG Version: 6.00 Build 0)  -->
<svg version="1.1" id="Group_4734" xmlns="http://www.w3.org/2000/svg" xmlns:xlink="http://www.w3.org/1999/xlink" x="0px" y="0px"
	 viewBox="0 0 732.1 732.1" style="enable-background:new 0 0 732.1 732.1;" xml:space="preserve">
<style type="text/css">
	.st0{enable-background:new    ;}
</style>
<g>
	<g class="st0">
		<path d="M201.3,84.1c1.2,3.4,3.6,5.7,5.5,4.6c1.6-0.9,1.5-2.8,0.4-4.7c-1.6-2.8-4.7-3.9-8.4-4.2c-5.7-0.3-12-2-15.3-7.7
			c-4-6.9-1.6-13.6,3.9-16.8c5.1-3,11.6-1.9,16.3,4.8l-8.1,4.7c-1.3-2.9-3.3-4.9-4.9-4c-1.3,0.7-1.3,2.8-0.1,4.9
			c1.2,2,3.7,3.2,7.8,3.3c6.3,0.2,12.3,1.9,15.8,8.1c3.9,6.7,1.9,13.5-4.1,16.9c-4.4,2.5-11.8,3.2-17.3-5.1L201.3,84.1z"/>
	</g>
	<g class="st0">
		<path d="M217.9,71l-11.6-25.4l8.5-3.8L227,68.4c2.4,5.4,4.5,6.8,6.5,5.8c2.1-0.9,2.2-3.5-0.2-8.8l-12.1-26.6l8.3-3.8l11.6,25.4
			c4.6,10.2,1.9,17-4.8,20C229.6,83.6,222.6,81.2,217.9,71z"/>
	</g>
	<g class="st0">
		<path d="M239.9,31l11.5-3.9c6.2-2.1,13-0.1,15.3,6.6c1.6,4.7-0.5,8.9-3.5,11.3l0.2,0.5c3.8-0.3,9,1.6,10.9,7.3
			c2.4,7.2-2.4,13.3-8.6,15.4l-11.8,4L239.9,31z M254.5,45l1.6-0.7c1.9-0.8,3.3-3.1,2.1-6.7c-1.2-3.5-3.5-4.8-5.6-4.2l-1.8,0.5
			L254.5,45z M260.5,62.8l2.2-0.9c2.5-1,3.3-3.7,2.2-7.1c-1.2-3.5-3.7-4.8-6.3-4.1l-2,0.6L260.5,62.8z"/>
	</g>
	<g class="st0">
		<path d="M287.6,49c0.2,3.7,1.8,6.5,4,6c1.8-0.4,2.2-2.3,1.7-4.4c-0.8-3.2-3.4-5.1-6.9-6.4c-5.3-1.9-10.9-5.3-12.5-11.8
			c-1.9-7.8,2.3-13.5,8.5-15c5.8-1.4,11.6,1.4,14.2,9.3l-9.1,2.2c-0.4-3.2-1.8-5.6-3.6-5.2c-1.5,0.3-2,2.3-1.5,4.7
			c0.5,2.3,2.6,4.1,6.5,5.4c6,2,11.2,5.3,12.8,12.2c1.8,7.5-2,13.4-8.8,15c-5,1.2-12.2-0.3-15.1-9.8L287.6,49z"/>
	</g>
	<g class="st0">
		<path d="M322.9,24.6c-0.6-3.8-1.9-6.9-4.4-6.6c-3.8,0.5-4.3,7.6-3.1,16.3c1.1,7.7,3.4,15,7.3,14.4c2.6-0.4,3-4.1,2.6-7.7l10-1.4
			c-0.1,8.7-5.2,15-11.7,15.9c-11.1,1.5-17.1-9.9-18.4-19.6c-1.5-10.7,1.6-23.1,12.3-24.6c6.4-0.9,12.9,3.7,15.2,11.9L322.9,24.6z"
			/>
	</g>
	<g class="st0">
		<path d="M339.9,9l12.2-0.5c6.5-0.2,13.9,3.6,14.2,11.4c0.2,5.6-2.9,9.3-7.2,11.6l10,19.8l-10.2,0.4l-8.3-18.3l-0.5,0l0.8,18.6
			l-9.4,0.4L339.9,9z M349.9,28l2.2-0.1c2.9-0.2,4.8-2.7,4.6-6.5c-0.1-3.7-2.5-6-5-6l-2.2,0L349.9,28z"/>
	</g>
	<g class="st0">
		<path d="M375.3,8.4l9.3,0.4l-1.7,43.3l-9.3-0.4L375.3,8.4z"/>
	</g>
	<g class="st0">
		<path d="M395.1,9.3l12,1.4c6.5,0.7,11.8,5.4,11,12.5c-0.6,4.9-4.3,7.8-7.9,8.7l-0.1,0.5c3.5,1.4,7.4,5.3,6.8,11.2
			c-0.9,7.5-7.8,11-14.4,10.3l-12.3-1.4L395.1,9.3z M400.1,46.8l2.4,0.2c2.7,0.2,4.6-2,5-5.5c0.4-3.6-1.3-5.9-3.9-6.4l-2.1-0.4
			L400.1,46.8z M402.2,28.2l1.7,0.1c2,0.1,4.3-1.4,4.7-5.1c0.4-3.7-1.1-5.8-3.3-6.2l-1.8-0.3L402.2,28.2z"/>
	</g>
	<g class="st0">
		<path d="M429.2,13.8l19.6,4l-1.4,6.9l-10.6-2.2l-2.1,10.1l9.8,2l-1.4,6.9l-9.8-2L430.9,51l11,2.3l-1.4,7.1l-20-4.1L429.2,13.8z"/>
	</g>
	<g class="st0">
		<path d="M484.2,61.6c-1.9,3.1-2.3,6.3-0.1,7.2c1.7,0.7,3.1-0.6,3.9-2.6c1.2-3,0.2-6.1-2-9.2c-3.3-4.6-5.9-10.6-3.5-16.8
			c2.9-7.4,9.7-9.7,15.5-7.4c5.5,2.2,8.7,7.8,6.3,15.7l-8.7-3.5c1.5-2.8,1.7-5.6,0.1-6.3c-1.4-0.6-3,0.7-3.9,3
			c-0.9,2.2-0.2,4.9,2.2,8.2c3.7,5,6.1,10.8,3.5,17.4c-2.9,7.2-9.4,9.8-15.8,7.3c-4.7-1.9-9.8-7.3-6.7-16.7L484.2,61.6z"/>
	</g>
	<g class="st0">
		<path d="M504.8,66.5l12.7-24.9l8.3,4.2l-13.3,26.1c-2.7,5.2-2.5,7.8-0.5,8.8c2,1,4.1-0.4,6.8-5.6l13.3-26.1l8.1,4.2l-12.7,24.9
			c-5.1,10-12.1,12.1-18.7,8.7C502.3,83.5,499.7,76.5,504.8,66.5z"/>
	</g>
	<g class="st0">
		<path d="M549.8,58.9l10.2,6.6c5.5,3.5,8.2,10.1,4.3,16.1c-2.7,4.1-7.3,5.1-11,4.3l-0.3,0.4c2.6,2.8,4.3,8.1,1.1,13
			c-4.1,6.4-11.9,6.4-17.4,2.8l-10.4-6.7L549.8,58.9z M537.7,94.7l2.1,1.2c2.3,1.4,5,0.3,6.9-2.7c2-3.1,1.5-5.9-0.7-7.4l-1.7-1.2
			L537.7,94.7z M547.8,79l1.5,0.8c1.8,1,4.5,0.7,6.5-2.5c2-3.1,1.6-5.7-0.2-7l-1.5-1.1L547.8,79z"/>
	</g>
	<g class="st0">
		<path d="M565.3,107.4c-2.7,2.4-4,5.4-2.2,6.8c1.4,1.1,3.2,0.3,4.5-1.4c2-2.6,1.9-5.8,0.7-9.4c-1.8-5.4-2.7-11.9,1.4-17.1
			c4.9-6.3,12-6.6,17-2.7c4.7,3.7,6.1,10,1.6,16.9l-7.4-5.8c2.2-2.3,3.2-4.9,1.8-6c-1.2-0.9-3.1-0.1-4.6,1.8
			c-1.4,1.8-1.6,4.6-0.2,8.5c2.2,5.9,2.8,12.1-1.6,17.7c-4.8,6.1-11.8,6.8-17.2,2.5c-4-3.1-7.4-9.7-1.7-17.9L565.3,107.4z"/>
	</g>
	<g class="st0">
		<path d="M606.4,119.7c2.6-2.8,4.2-5.8,2.4-7.5c-2.8-2.6-8.6,1.4-14.6,7.8c-5.4,5.7-9.6,12-6.7,14.7c1.9,1.8,5-0.2,7.6-2.8l7.4,7
			c-6.9,5.3-15,5.2-19.7,0.8c-8.1-7.7-2.9-19.5,3.8-26.6c7.4-7.8,19-13.1,26.8-5.7c4.7,4.5,5.2,12.4,0.2,19.3L606.4,119.7z"/>
	</g>
	<g class="st0">
		<path d="M629.2,123.3l8,9.3c4.3,5,5.8,13.1-0.1,18.2c-4.3,3.7-9.1,3.5-13.5,1.6l-9.3,20.2l-6.7-7.7l9.1-17.9l-0.3-0.4l-14.1,12.2
			l-6.1-7.1L629.2,123.3z M620.5,143l1.5,1.6c1.9,2.1,5.1,2,8-0.5c2.8-2.4,3.2-5.7,1.6-7.7l-1.4-1.7L620.5,143z"/>
	</g>
	<g class="st0">
		<path d="M651.8,150.7l5.5,7.5l-35,25.7l-5.5-7.5L651.8,150.7z"/>
	</g>
	<g class="st0">
		<path d="M663.4,166.7l6.4,10.3c3.5,5.5,3.1,12.6-2.9,16.4c-4.2,2.6-8.8,1.5-11.7-0.8l-0.4,0.3c1.1,3.6,0.5,9.1-4.6,12.3
			c-6.4,4-13.5,0.7-17-4.9l-6.6-10.5L663.4,166.7z M637.2,194l1.4,2c1.5,2.2,4.4,2.4,7.4,0.5c3.1-1.9,3.8-4.7,2.5-7l-1-1.8
			L637.2,194z M653,184.1l1,1.4c1.2,1.7,3.8,2.5,7,0.5c3.2-2,3.9-4.5,2.8-6.4l-0.9-1.6L653,184.1z"/>
	</g>
	<g class="st0">
		<path d="M681.1,196.3l9,17.8l-6.3,3.2l-4.9-9.7l-9.2,4.7l4.5,8.9l-6.3,3.2l-4.5-8.9l-10.4,5.3l5.1,10.1l-6.4,3.3l-9.2-18.2
			L681.1,196.3z"/>
	</g>
	<g class="st0">
		<path d="M677.9,269c-3.6,0.4-6.4,2.2-5.7,4.4c0.5,1.7,2.4,2.1,4.5,1.5c3.1-0.9,4.9-3.7,6-7.3c1.6-5.4,4.6-11.2,11-13.2
			c7.6-2.3,13.6,1.5,15.5,7.5c1.7,5.7-0.7,11.7-8.4,14.8l-2.7-9c3.1-0.6,5.5-2.2,5-3.9c-0.4-1.4-2.5-1.9-4.8-1.2
			c-2.2,0.7-4,2.9-5,6.8c-1.6,6.1-4.7,11.5-11.4,13.6c-7.4,2.2-13.5-1.2-15.5-7.8c-1.5-4.9-0.4-12.2,8.9-15.7L677.9,269z"/>
	</g>
	<g class="st0">
		<path d="M686.8,288.3l27.4-5.5l1.8,9.1l-28.7,5.8c-5.8,1.2-7.6,2.9-7.2,5.1c0.4,2.2,2.9,3,8.6,1.8l28.7-5.8l1.8,8.9l-27.4,5.5
			c-11,2.2-17-2-18.4-9.2C672,296.8,675.8,290.5,686.8,288.3z"/>
	</g>
	<g class="st0">
		<path d="M720.9,318.7l1.2,12.1c0.6,6.5-2.8,12.7-9.9,13.4c-4.9,0.5-8.5-2.5-10.2-5.9l-0.5,0c-0.6,3.7-3.6,8.4-9.5,9
			c-7.5,0.7-12.4-5.3-13.1-11.9l-1.2-12.4L720.9,318.7z M685.2,331.5l0.4,2.4c0.4,2.7,2.9,4.1,6.4,3.7c3.6-0.4,5.5-2.5,5.4-5.2
			l-0.1-2.1L685.2,331.5z M703.9,329.7l0.3,1.7c0.3,2,2.3,3.9,6,3.6c3.7-0.4,5.4-2.3,5.3-4.5l-0.1-1.9L703.9,329.7z"/>
	</g>
	<g class="st0">
		<path d="M692.5,360.9c-3.6-0.6-6.7,0.3-6.7,2.6c0,1.8,1.7,2.7,3.9,2.6c3.2-0.1,5.7-2.2,7.8-5.3c3-4.8,7.5-9.5,14.2-9.7
			c8-0.1,12.7,5.2,12.8,11.5c0.1,5.9-3.9,11-12.1,11.9l-0.2-9.4c3.2,0.3,5.9-0.6,5.8-2.4c0-1.5-1.8-2.5-4.3-2.5
			c-2.3,0-4.6,1.7-6.7,5.2c-3.2,5.4-7.6,9.8-14.7,9.9c-7.7,0.1-12.7-4.9-12.8-11.8c-0.1-5.1,2.9-11.9,12.8-12.6L692.5,360.9z"/>
	</g>
	<g class="st0">
		<path d="M708.5,400.9c3.8,0.3,7.2-0.3,7.4-2.8c0.3-3.8-6.4-5.9-15.2-6.6c-7.8-0.7-15.4,0-15.7,3.9c-0.2,2.6,3.3,3.8,7,4.2
			l-0.9,10.1c-8.4-2.1-13.4-8.4-12.9-14.9c1-11.1,13.4-14.4,23.2-13.6c10.8,0.9,22.1,6.7,21.2,17.4c-0.6,6.5-6.5,11.8-15,12.2
			L708.5,400.9z"/>
	</g>
	<g class="st0">
		<path d="M719.8,420.9l-2.3,12c-1.2,6.4-6.6,12.7-14.3,11.3c-5.5-1.1-8.4-4.9-9.7-9.6l-21.5,5.3l1.9-10l19.7-4l0.1-0.5l-18.3-3.4
			l1.8-9.2L719.8,420.9z M699,426.5l-0.3,2.1c-0.5,2.8,1.6,5.2,5.3,6c3.6,0.7,6.4-1,7-3.6l0.5-2.2L699,426.5z"/>
	</g>
	<g class="st0">
		<path d="M712.5,455.7l-2.4,9l-41.9-11.4l2.4-9L712.5,455.7z"/>
	</g>
	<g class="st0">
		<path d="M707.1,474.8l-4.1,11.4c-2.2,6.2-8,10.3-14.7,7.9c-4.6-1.6-6.6-5.9-6.7-9.7l-0.5-0.2c-2.1,3.1-6.9,6-12.5,4
			c-7.1-2.5-8.9-10.1-6.7-16.3l4.2-11.7L707.1,474.8z M669.4,471.2l-0.7,2.3c-0.8,2.6,0.9,4.9,4.2,6.1c3.4,1.2,6.1,0.1,7.1-2.4
			l0.8-1.9L669.4,471.2z M687.1,477.5l-0.4,1.6c-0.6,2,0.4,4.5,3.9,5.8c3.5,1.2,5.9,0.3,6.8-1.8l0.7-1.7L687.1,477.5z"/>
	</g>
	<g class="st0">
		<path d="M695,507l-8.3,18.2l-6.4-3l4.5-9.9l-9.4-4.3l-4.2,9.1l-6.4-3l4.2-9.1l-10.6-4.9l-4.7,10.2l-6.5-3l8.5-18.5L695,507z"/>
	</g>
	<g class="st0">
		<path d="M636,549.7c-2.6-2.6-5.7-3.6-7-1.8c-1,1.5-0.2,3.2,1.6,4.4c2.7,1.8,5.9,1.6,9.4,0.2c5.3-2.1,11.7-3.4,17.2,0.4
			c6.6,4.5,7.3,11.6,3.7,16.8c-3.4,4.9-9.6,6.7-16.8,2.6l5.3-7.7c2.4,2.1,5.1,3,6.1,1.5c0.9-1.2,0-3.1-2.1-4.5
			c-1.9-1.3-4.7-1.3-8.5,0.3c-5.8,2.5-11.9,3.5-17.7-0.5c-6.4-4.4-7.5-11.4-3.5-17c2.9-4.2,9.3-7.9,17.8-2.8L636,549.7z"/>
	</g>
	<g class="st0">
		<path d="M626.6,568.7l21.4,18l-6,7.1l-22.4-18.9c-4.5-3.8-7-4.2-8.4-2.5c-1.5,1.7-0.5,4.1,3.9,7.8l22.4,18.9l-5.9,7l-21.4-18
			c-8.6-7.2-9-14.5-4.3-20.2C610.6,562.4,618,561.4,626.6,568.7z"/>
	</g>
	<g class="st0">
		<path d="M623.9,614.3l-8.7,8.4c-4.7,4.6-11.7,5.7-16.6,0.6c-3.4-3.5-3.3-8.2-1.7-11.7l-0.3-0.3c-3.3,1.9-8.8,2.4-13-1.9
			c-5.3-5.4-3.5-13,1.2-17.6l8.9-8.7L623.9,614.3z M591.7,594.4l-1.6,1.8c-1.9,2-1.4,4.8,1.1,7.3c2.6,2.6,5.4,2.8,7.4,1l1.6-1.4
			L591.7,594.4z M604.7,607.8l-1.1,1.3c-1.4,1.5-1.7,4.2,1,6.9c2.6,2.7,5.2,2.8,6.9,1.4l1.4-1.2L604.7,607.8z"/>
	</g>
	<g class="st0">
		<path d="M573.1,618.5c-1.8-3.2-4.4-5.1-6.2-3.6c-1.4,1.1-1,3,0.3,4.7c2,2.5,5.3,3.2,9,2.8c5.7-0.6,12.2,0.1,16.3,5.2
			c5,6.2,3.7,13.2-1.2,17.2c-4.6,3.7-11.1,3.7-16.8-2.2l7.3-5.9c1.7,2.7,4.1,4.3,5.5,3.1c1.2-0.9,0.8-3-0.7-4.9
			c-1.5-1.8-4.2-2.6-8.2-2.1c-6.2,0.8-12.4,0-16.9-5.5c-4.9-6-4-13,1.4-17.4c4-3.2,11.2-5,17.9,2.3L573.1,618.5z"/>
	</g>
	<g class="st0">
		<path d="M551.9,655.7c2.2,3.2,4.7,5.4,6.8,4.1c3.2-2.1,0.6-8.7-4.3-16c-4.3-6.5-9.6-12-12.9-9.8c-2.2,1.5-1,5,1,8.1l-8.4,5.6
			c-3.6-7.9-1.8-15.8,3.6-19.3c9.3-6.2,19.6,1.5,25.1,9.7c6,9,8.5,21.5-0.4,27.4c-5.4,3.6-13.3,2.3-18.9-4.2L551.9,655.7z"/>
	</g>
	<g class="st0">
		<path d="M543.2,677.1l-10.8,5.7c-5.8,3-14.1,2.7-17.7-4.2c-2.6-5-1.4-9.6,1.5-13.5l-17.6-13.5l9-4.7l15.4,12.9l0.4-0.2l-8.7-16.4
			l8.3-4.4L543.2,677.1z M526,664.3l-1.9,1.1c-2.5,1.4-3.1,4.5-1.3,7.9c1.7,3.2,4.8,4.4,7.1,3.2l2-1L526,664.3z"/>
	</g>
	<g class="st0">
		<path d="M511.5,693l-8.5,3.7l-17.1-39.9l8.5-3.7L511.5,693z"/>
	</g>
	<g class="st0">
		<path d="M493.2,700.7l-11.5,3.9c-6.2,2.1-13,0.1-15.3-6.5c-1.6-4.7,0.5-8.9,3.4-11.3l-0.2-0.5c-3.8,0.3-9-1.6-10.9-7.2
			c-2.5-7.2,2.4-13.3,8.6-15.4l11.7-4L493.2,700.7z M472.5,669l-2.2,0.9c-2.5,1-3.3,3.7-2.1,7.1c1.2,3.5,3.7,4.8,6.3,4.1l2-0.6
			L472.5,669z M478.6,686.7l-1.6,0.7c-1.9,0.8-3.3,3.1-2.1,6.7c1.2,3.5,3.5,4.8,5.6,4.2l1.8-0.5L478.6,686.7z"/>
	</g>
	<g class="st0">
		<path d="M460.4,711.3l-19.4,4.8l-1.7-6.9l10.5-2.6l-2.5-10l-9.7,2.4l-1.7-6.9l9.7-2.4l-2.8-11.4l-11,2.7l-1.7-7l19.8-4.9
			L460.4,711.3z"/>
	</g>
	<g class="st0">
		<path d="M390.3,691.6c0.4-3.6-0.7-6.7-3-6.5c-1.8,0.1-2.6,1.9-2.4,4c0.2,3.2,2.5,5.6,5.7,7.5c4.9,2.8,9.9,7,10.3,13.7
			c0.5,8-4.6,12.9-10.8,13.3c-5.9,0.4-11.2-3.3-12.5-11.5l9.3-0.6c-0.2,3.2,0.9,5.8,2.7,5.7c1.5-0.1,2.4-2,2.2-4.4
			c-0.2-2.3-1.9-4.5-5.5-6.4c-5.5-2.9-10.2-7.1-10.6-14.2c-0.5-7.7,4.3-12.9,11.1-13.4c5.1-0.3,12,2.3,13.2,12.2L390.3,691.6z"/>
	</g>
	<g class="st0">
		<path d="M369.6,696l-0.8,27.9l-9.3-0.3l0.8-29.3c0.2-5.9-1.1-8.1-3.3-8.1c-2.3-0.1-3.5,2.1-3.7,7.9l-0.8,29.3l-9.1-0.2l0.8-27.9
			c0.3-11.2,5.7-16.1,13.1-15.9C364.5,679.6,369.9,684.8,369.6,696z"/>
	</g>
	<g class="st0">
		<path d="M332.3,722.4l-12-1.5c-6.5-0.8-11.7-5.6-10.9-12.6c0.6-4.9,4.4-7.7,8-8.6l0.1-0.5c-3.5-1.4-7.4-5.4-6.6-11.3
			c1-7.5,8-10.9,14.5-10.1l12.3,1.6L332.3,722.4z M325.4,703.4l-1.7-0.1c-2-0.1-4.3,1.3-4.8,5.1c-0.5,3.7,1,5.8,3.2,6.2l1.8,0.4
			L325.4,703.4z M327.7,684.8l-2.4-0.2c-2.7-0.2-4.6,1.9-5,5.4c-0.5,3.6,1.2,6,3.8,6.4l2.1,0.4L327.7,684.8z"/>
	</g>
	<g class="st0">
		<path d="M297.3,685.3c1.4-3.4,1.2-6.6-1-7.1c-1.8-0.4-3,1.1-3.5,3.2c-0.7,3.2,0.8,6.1,3.4,8.8c3.9,4.1,7.5,9.5,6.1,16
			c-1.7,7.8-8,11.1-14.2,9.8c-5.8-1.3-9.8-6.4-8.8-14.5l9.1,2c-1,3-0.8,5.8,0.9,6.2c1.5,0.3,2.9-1.2,3.4-3.6
			c0.5-2.3-0.6-4.9-3.5-7.7c-4.5-4.4-7.7-9.7-6.2-16.6c1.7-7.6,7.7-11.2,14.4-9.7c5,1.1,10.9,5.6,9.3,15.4L297.3,685.3z"/>
	</g>
	<g class="st0">
		<path d="M254.9,691.8c-1.1,3.7-1.3,7.1,1,7.8c3.7,1.2,7.2-4.9,9.9-13.3c2.4-7.4,3.5-15-0.3-16.2c-2.5-0.8-4.5,2.3-5.7,5.8
			l-9.6-3.1c3.9-7.8,11.3-11.2,17.4-9.2c10.6,3.4,11,16.3,8,25.7c-3.3,10.3-11.6,20-21.8,16.7c-6.2-2-10-9-8.5-17.4L254.9,691.8z"/>
	</g>
	<g class="st0">
		<path d="M232.8,698.4l-11.2-5c-6-2.6-10.9-9.3-7.7-16.5c2.3-5.2,6.7-7.1,11.5-7.2l-0.3-22.2l9.3,4.1l-0.6,20.1l0.4,0.2l7.5-17
			l8.6,3.8L232.8,698.4z M232.1,676.9l-2-0.8c-2.7-1.1-5.5,0.3-7,3.8c-1.5,3.3-0.4,6.5,1.9,7.6l2,1L232.1,676.9z"/>
	</g>
	<g class="st0">
		<path d="M200.6,683.3l-8.2-4.4l20.6-38.2l8.2,4.4L200.6,683.3z"/>
	</g>
	<g class="st0">
		<path d="M183.2,673.8l-10.2-6.5c-5.5-3.5-8.2-10.1-4.4-16.1c2.7-4.1,7.3-5.1,11-4.3l0.3-0.4c-2.6-2.8-4.3-8-1.1-13
			c4.1-6.4,11.9-6.4,17.4-2.9l10.5,6.7L183.2,673.8z M185.1,653.7l-1.5-0.8c-1.8-1-4.5-0.7-6.5,2.5c-2,3.1-1.6,5.7,0.2,7l1.5,1.1
			L185.1,653.7z M195.2,637.9l-2.1-1.2c-2.3-1.4-5-0.3-6.9,2.7c-2,3.1-1.4,5.9,0.7,7.4l1.7,1.2L195.2,637.9z"/>
	</g>
	<g class="st0">
		<path d="M154.6,654.8l-15.8-12.2l4.3-5.6l8.6,6.6l6.3-8.2l-7.9-6.1l4.3-5.6l7.9,6.1l7.2-9.3l-8.9-6.9l4.4-5.7l16.1,12.5
			L154.6,654.8z"/>
	</g>
	<g class="st0">
		<path d="M126.3,587.6c3.1-1.9,4.8-4.7,3.3-6.4c-1.2-1.3-3.1-0.9-4.7,0.6c-2.4,2.2-2.8,5.4-2.3,9.1c0.9,5.6,0.7,12.1-4.3,16.6
			c-5.9,5.4-12.9,4.5-17.2-0.2c-4-4.4-4.4-10.9,1.2-16.9l6.3,6.9c-2.6,1.9-4,4.3-2.8,5.6c1,1.1,3,0.7,4.8-1c1.7-1.6,2.3-4.3,1.6-8.3
			c-1.2-6.2-0.7-12.4,4.5-17.2c5.7-5.2,12.7-4.7,17.4,0.4c3.4,3.8,5.6,10.8-1.3,17.9L126.3,587.6z"/>
	</g>
	<g class="st0">
		<path d="M109.9,574.2L87.6,591l-5.6-7.4l23.4-17.6c4.7-3.5,5.6-5.9,4.3-7.7c-1.4-1.8-3.9-1.4-8.5,2l-23.4,17.6l-5.5-7.3l22.3-16.8
			c9-6.7,16.2-5.5,20.6,0.4C119.6,560,118.9,567.4,109.9,574.2z"/>
	</g>
	<g class="st0">
		<path d="M66.1,561.4L59.8,551c-3.4-5.6-2.9-12.7,3.1-16.4c4.2-2.6,8.8-1.4,11.7,1l0.4-0.2c-1.1-3.6-0.3-9.1,4.7-12.2
			c6.5-3.9,13.5-0.5,16.9,5.1l6.4,10.6L66.1,561.4z M76.7,544.1l-1-1.4c-1.2-1.7-3.7-2.6-7-0.6c-3.2,1.9-3.9,4.4-2.9,6.4l0.9,1.7
			L76.7,544.1z M92.7,534.4l-1.3-2c-1.5-2.2-4.3-2.4-7.4-0.6c-3.1,1.9-3.9,4.7-2.6,7l1,1.9L92.7,534.4z"/>
	</g>
	<g class="st0">
		<path d="M73.4,510.9c3.5-1,5.9-3.2,4.9-5.2c-0.8-1.6-2.7-1.7-4.6-0.7c-2.9,1.4-4.3,4.4-4.8,8.1c-0.7,5.6-2.8,11.8-8.8,14.7
			c-7.2,3.5-13.7,0.7-16.4-5c-2.6-5.3-1.1-11.7,5.9-15.9l4.1,8.4c-3,1.1-5.1,3-4.3,4.6c0.7,1.3,2.7,1.5,4.9,0.4
			c2.1-1,3.4-3.5,3.9-7.6c0.6-6.2,2.8-12.1,9.2-15.2c7-3.4,13.6-0.9,16.6,5.3c2.2,4.6,2.4,12-6.3,16.9L73.4,510.9z"/>
	</g>
	<g class="st0">
		<path d="M41.8,481.8c-3.6,1.4-6.4,3.4-5.5,5.7c1.3,3.6,8.3,2.5,16.6-0.6c7.3-2.7,13.9-6.6,12.5-10.3c-0.9-2.5-4.6-2.1-8.1-0.8
			l-3.5-9.5c8.5-1.8,15.8,1.9,18,7.9c3.9,10.5-5.9,18.8-15.1,22.2c-10.1,3.8-22.9,3.4-26.6-6.6c-2.3-6.1,0.8-13.4,8.3-17.5
			L41.8,481.8z"/>
	</g>
	<g class="st0">
		<path d="M23,468.5l-3.1-11.8c-1.6-6.3,0.5-14.3,8.1-16.3c5.5-1.4,9.7,0.8,12.8,4.5l17.2-14l2.6,9.9l-16.1,12.1l0.1,0.5l18-4.7
			l2.4,9.1L23,468.5z M39.4,454.6l-0.6-2.1c-0.8-2.8-3.7-4.1-7.4-3.1c-3.5,0.9-5.4,3.7-4.8,6.2l0.5,2.2L39.4,454.6z"/>
	</g>
	<g class="st0">
		<path d="M14.7,434l-1.6-9.2l42.7-7.6l1.6,9.2L14.7,434z"/>
	</g>
	<g class="st0">
		<path d="M11.4,414.5l-1.2-12.1c-0.7-6.5,2.8-12.7,9.8-13.4c4.9-0.5,8.5,2.5,10.2,5.9l0.5,0c0.6-3.7,3.6-8.4,9.5-9
			c7.5-0.8,12.4,5.3,13.1,11.9l1.3,12.4L11.4,414.5z M28.3,403.5l-0.3-1.7c-0.3-2-2.3-3.9-6-3.5c-3.7,0.4-5.4,2.3-5.3,4.5l0.1,1.9
			L28.3,403.5z M47,401.6l-0.4-2.4c-0.4-2.7-2.9-4-6.4-3.7c-3.6,0.4-5.5,2.6-5.4,5.2l0.1,2.1L47,401.6z"/>
	</g>
	<g class="st0">
		<path d="M8.5,380.2l-0.3-20l7.1-0.1l0.2,10.9l10.3-0.2l-0.2-10l7.1-0.1l0.2,10l11.7-0.2l-0.2-11.3l7.2-0.1l0.3,20.4L8.5,380.2z"/>
	</g>
	<g class="st0">
		<path d="M43.3,316.3c3.4,1.2,6.7,0.8,7-1.4c0.3-1.8-1.2-2.9-3.4-3.3c-3.2-0.5-6,1.2-8.6,3.9c-3.8,4.2-9.1,8.1-15.7,7
			c-7.9-1.3-11.6-7.3-10.6-13.6c0.9-5.9,5.8-10.2,14-9.6l-1.5,9.2c-3.1-0.9-5.9-0.5-6.2,1.3c-0.2,1.5,1.4,2.8,3.8,3.2
			c2.3,0.4,4.8-0.9,7.5-4c4.1-4.7,9.2-8.3,16.2-7.2c7.6,1.2,11.6,7,10.5,13.8c-0.8,5-5,11.2-14.8,10.2L43.3,316.3z"/>
	</g>
	<g class="st0">
		<path d="M43.7,295.1l-27.1-7l2.3-9l28.3,7.4c5.7,1.5,8.1,0.7,8.7-1.4c0.6-2.2-1.3-3.9-6.9-5.4l-28.3-7.4l2.3-8.8l27.1,7
			c10.9,2.8,14.4,9.2,12.5,16.3C60.8,293.9,54.5,297.9,43.7,295.1z"/>
	</g>
	<g class="st0">
		<path d="M26.4,252.8l4.2-11.4c2.3-6.1,8.1-10.2,14.8-7.7c4.6,1.7,6.5,6,6.5,9.8l0.4,0.2c2.2-3.1,6.9-5.9,12.5-3.9
			c7.1,2.6,8.8,10.2,6.5,16.4l-4.3,11.6L26.4,252.8z M46.5,250.3l0.5-1.6c0.6-2-0.3-4.5-3.8-5.8c-3.5-1.3-5.9-0.3-6.8,1.7l-0.8,1.7
			L46.5,250.3z M64.1,256.8l0.7-2.3c0.8-2.6-0.8-4.9-4.1-6.1c-3.4-1.3-6.1-0.1-7.1,2.3l-0.8,1.9L64.1,256.8z"/>
	</g>
	<g class="st0">
		<path d="M70.5,227.1c3,2.2,6.2,2.7,7.1,0.6c0.8-1.6-0.3-3.2-2.3-4.1c-2.9-1.4-6.1-0.6-9.3,1.3c-4.9,2.9-11,5.2-17,2.3
			c-7.2-3.5-9-10.3-6.3-16c2.6-5.4,8.4-8.1,16.2-5.2l-4.1,8.4c-2.7-1.7-5.5-2.1-6.3-0.5c-0.6,1.4,0.5,3.1,2.7,4.1
			c2.1,1,4.9,0.5,8.3-1.7c5.3-3.4,11.2-5.3,17.6-2.3c7,3.3,9.2,10.1,6.2,16.3c-2.2,4.6-7.9,9.3-17.1,5.6L70.5,227.1z"/>
	</g>
	<g class="st0">
		<path d="M73.7,184.4c-3.3-1.9-6.6-2.9-7.9-0.8c-2,3.3,3.2,8.1,10.7,12.6c6.7,4,13.8,6.8,15.8,3.4c1.4-2.3-1.3-4.9-4.4-6.9l5.2-8.7
			c6.7,5.6,8.3,13.5,5,19c-5.8,9.6-18.4,7-26.8,2c-9.2-5.6-16.9-15.8-11.3-25c3.3-5.5,11-7.7,18.9-4.3L73.7,184.4z"/>
	</g>
	<g class="st0">
		<path d="M72.4,161.3l7.3-9.8c3.9-5.2,11.6-8.5,17.8-3.8c4.5,3.4,5.4,8.1,4.4,12.9l21.7,4.7l-6.1,8.2L98,168.4l-0.3,0.4l14.9,11.1
			l-5.6,7.5L72.4,161.3z M93.4,165.5l1.2-1.8c1.7-2.3,0.9-5.4-2.2-7.7c-2.9-2.2-6.2-1.9-7.8,0.1l-1.4,1.7L93.4,165.5z"/>
	</g>
	<g class="st0">
		<path d="M94.2,133.4l6.1-7l32.6,28.6l-6.1,7L94.2,133.4z"/>
	</g>
	<g class="st0">
		<path d="M107.4,118.6l8.7-8.5c4.7-4.6,11.7-5.7,16.6-0.7c3.4,3.5,3.3,8.2,1.7,11.6l0.3,0.3c3.3-1.9,8.8-2.4,13,1.8
			c5.3,5.4,3.6,13-1.1,17.6l-8.9,8.7L107.4,118.6z M126.6,125l1.1-1.3c1.4-1.5,1.7-4.2-1-6.9c-2.6-2.7-5.2-2.8-6.9-1.3l-1.4,1.2
			L126.6,125z M139.7,138.4l1.6-1.8c1.8-2,1.4-4.8-1.1-7.3c-2.6-2.6-5.4-2.7-7.4-1l-1.6,1.4L139.7,138.4z"/>
	</g>
	<g class="st0">
		<path d="M132.4,95l15.5-12.7l4.5,5.5l-8.4,6.9l6.5,8l7.8-6.3l4.5,5.5l-7.8,6.3l7.4,9.1l8.7-7.1l4.6,5.6l-15.8,12.9L132.4,95z"/>
	</g>
	<path id="Path_2180_00000010280651578134068270000008318652879859491472_" d="M175.3,83.3c2.5,0,4.5,2,4.5,4.5s-2,4.5-4.5,4.5
		s-4.5-2-4.5-4.5S172.8,83.3,175.3,83.3"/>
	<path id="Path_2180_00000165945542767602234130000009487819323672215211_" d="M462.7,37.3c2.5,0,4.5,2,4.5,4.5s-2,4.5-4.5,4.5
		s-4.5-2-4.5-4.5S460.2,37.3,462.7,37.3"/>
	<path id="Path_2180_00000086673259884489024630000000119580644706823352_" d="M679,236.1c2.5,0,4.5,2,4.5,4.5s-2,4.5-4.5,4.5
		s-4.5-2-4.5-4.5S676.5,236.1,679,236.1"/>
	<path id="Path_2180_00000046320024858180559070000010264389462615820422_" d="M658.8,527.1c2.5,0,4.5,2,4.5,4.5s-2,4.5-4.5,4.5
		s-4.5-2-4.5-4.5S656.3,527.1,658.8,527.1"/>
	<path id="Path_2180_00000155104988026466979500000006023931737534197382_" d="M417.9,694.1c2.5,0,4.5,2,4.5,4.5s-2,4.5-4.5,4.5
		s-4.5-2-4.5-4.5S415.4,694.1,417.9,694.1"/>
	<path id="Path_2180_00000004522991680299038060000016186068695591127435_" d="M135.2,608.4c2.5,0,4.5,2,4.5,4.5s-2,4.5-4.5,4.5
		s-4.5-2-4.5-4.5S132.7,608.4,135.2,608.4"/>
	<path id="Path_2180_00000005251657704853481180000017002668101146917784_" d="M28.9,337.3c2.5,0,4.5,2,4.5,4.5s-2,4.5-4.5,4.5
		s-4.5-2-4.5-4.5S26.4,337.3,28.9,337.3"/>
</g>
</svg>
