<svg xmlns="http://www.w3.org/2000/svg" width="186.829" height="61.188" viewBox="0 0 186.829 61.188">
  <g id="Group_469" data-name="Group 469" transform="translate(-866.582 -582.876)">
    <g id="Group_310" data-name="Group 310" transform="translate(171.777 -218.701)">
      <path id="Path_394" data-name="Path 394" d="M705.01,858.6l-.924-.54.81-1.386,1.346.786.4,1.529-1.566,2.681-1.535.412-8.33-4.867-.407-1.546,1.567-2.68,1.54-.4,1.335.78-.81,1.387-.925-.541-1.08,1.849,7.5,4.381Z" fill="#fff"/>
      <path id="Path_395" data-name="Path 395" d="M704.084,843.658l7.785,5.7.251,1.569-1.84,2.516-1.573.235-7.785-5.7-.242-1.563,1.841-2.515Zm-1.82,3.312,7.008,5.128,1.264-1.728-7.008-5.128Z" fill="#fff"/>
      <path id="Path_396" data-name="Path 396" d="M709.258,835.836l1.077-1.192,8.827,7.975-1.077,1.191-6.475-2.964,5.04,4.554-1.077,1.191-8.826-7.974,1.076-1.191,6.476,2.963Z" fill="#fff"/>
      <path id="Path_397" data-name="Path 397" d="M718.245,827.127l1.075,1.193-1.4,1.258,6.893,7.641-1.183,1.068-6.893-7.64-1.4,1.258-1.075-1.192Z" fill="#fff"/>
      <path id="Path_398" data-name="Path 398" d="M732.669,830.962l-2.02-2.355-1.574,1.153L730.7,832.4l-1.295.948-6.29-10.138,3.081-2.257,7.768,9.056Zm-4.447-2.568,1.372-1.005-3.649-4.258-.681.5Z" fill="#fff"/>
      <path id="Path_399" data-name="Path 399" d="M739.971,824.394l-.54-.925,1.386-.81.787,1.346-.4,1.529-2.68,1.566-1.54-.395-4.867-8.33.406-1.546,2.68-1.566,1.536.412.78,1.335-1.386.81-.54-.925-1.849,1.08,4.38,7.5Z" fill="#fff"/>
      <path id="Path_400" data-name="Path 400" d="M745.953,809.948l.663,1.462-1.712.776,4.251,9.371-1.452.659-4.25-9.371-1.712.776-.663-1.462Z" fill="#fff"/>
      <path id="Path_401" data-name="Path 401" d="M764.32,804.113l1.576-.366,1.121,11.952-2.086.483-4.25-11.226,1.576-.365,2.8,7.386Z" fill="#fff"/>
      <path id="Path_402" data-name="Path 402" d="M772.923,814.6l-1.711-11.772,1.59-.231,1.71,11.772Z" fill="#fff"/>
      <path id="Path_403" data-name="Path 403" d="M783.7,802.753l.6,9.628-1.057,1.187-4.215.265-.747-11.872,4.215-.265Zm-3.71.71.545,8.666,2.138-.134-.546-8.667Z" fill="#fff"/>
      <path id="Path_404" data-name="Path 404" d="M790.618,808.4l-.148,3.531,3.744.157-.068,1.6-5.348-.225.5-11.885,5.349.225-.068,1.6-3.743-.158-.149,3.542,2.139.09-.068,1.6Z" fill="#fff"/>
      <path id="Path_405" data-name="Path 405" d="M805.39,804.21l-1.4,9.545-1.27.957-3.084-.452-.943-1.28,1.4-9.546,1.268-.944,3.084.451Zm-3.778-.061-1.258,8.592,2.119.311,1.258-8.592Z" fill="#fff"/>
      <path id="Path_406" data-name="Path 406" d="M825.007,811.277l-1.511-.544.363-1.008L821.845,809l-1.2,3.336,2.473.89.674,1.432-1.53,4.241-1.43.673-2.933-1.057-.673-1.431.529-1.466,1.511.544-.364,1.008,2.015.726,1.2-3.324-2.473-.891-.67-1.442,1.525-4.23,1.435-.684,2.932,1.056.669,1.443Z" fill="#fff"/>
      <path id="Path_407" data-name="Path 407" d="M835.849,813.226l-.7,1.448-1.693-.816-4.464,9.272-1.436-.692,4.464-9.271-1.694-.815.7-1.447Z" fill="#fff"/>
      <path id="Path_408" data-name="Path 408" d="M844.694,819.646l-2.361,3.84-1.538.367-1.746,4.973-1.4-.859,1.735-4.98-.831-.511-2.7,4.388-1.369-.841,6.231-10.134,3.607,2.218Zm-3.447-1.547-1.85,3.009,1.824,1.121,1.85-3.009Z" fill="#fff"/>
      <path id="Path_409" data-name="Path 409" d="M845.741,833.673l1.693-2.6-1.548-1.187-2.08,2.3-1.275-.977,7.966-8.883,3.03,2.324-6.512,10Zm1.217-4.988,1.349,1.035,3.062-4.7-.67-.514Z" fill="#fff"/>
      <path id="Path_410" data-name="Path 410" d="M862.254,832.385l-1.1,1.168-1.368-1.289-7.058,7.487-1.16-1.093,7.058-7.487-1.368-1.289,1.1-1.169Z" fill="#fff"/>
      <path id="Path_411" data-name="Path 411" d="M862.041,842.037l-2.673,2.31,2.45,2.836-1.215,1.05-3.5-4.051,9-7.777,3.5,4.049-1.215,1.051-2.449-2.836-2.683,2.319,1.4,1.62-1.215,1.05Z" fill="#fff"/>
      <path id="Path_412" data-name="Path 412" d="M871.9,852.234l-4.613,3.221-1.557-.276-1.784-2.556.277-1.557,7.909-5.523,1.567.27,1.784,2.555-.286,1.564-1.268.886-.919-1.317.878-.613-1.226-1.756-7.12,4.972,1.226,1.756,2.9-2.023-.382-.546,1.317-.92Z" fill="#fff"/>
      <path id="Path_413" data-name="Path 413" d="M880.831,857.172l.8,1.444-7.312,1.93-3.993,2.219-.78-1.4,3.993-2.22,5.491-5.2.8,1.446-2.986,2.83Z" fill="#fff"/>
    </g>
    <circle id="Ellipse_153" data-name="Ellipse 153" cx="1.5" cy="1.5" r="1.5" transform="translate(925.178 592.052)" fill="#fff"/>
    <circle id="Ellipse_153-2" data-name="Ellipse 153" cx="1.5" cy="1.5" r="1.5" transform="translate(982.178 589.552)" fill="#fff"/>
  </g>
</svg>
