<?xml version="1.0" encoding="utf-8"?>
<!-- Generator: Adobe Illustrator 26.0.2, SVG Export Plug-In . SVG Version: 6.00 Build 0)  -->
<svg version="1.1" id="Layer_1" xmlns="http://www.w3.org/2000/svg" xmlns:xlink="http://www.w3.org/1999/xlink" x="0px" y="0px"
	 viewBox="0 0 1619 2101.7" style="enable-background:new 0 0 1619 2101.7;" xml:space="preserve">
<style type="text/css">
	.st0{enable-background:new    ;}
</style>
<g>
	<g class="st0">
		<path d="M14.8,663.1c1.3-9,10.9-14.4,24.8-12.5c11.6,1.6,21.3,8.7,19.9,18.8c-1.4,9.9-12.1,14.2-24.5,12.5
			C20.9,680,13.5,672,14.8,663.1z M53,668.5c0.7-4.8-6.5-7.1-14.9-8.3c-9-1.3-16.5-0.8-17.1,3.8c-0.7,4.9,6.8,7.2,15.4,8.4
			C45.8,673.7,52.4,673.1,53,668.5z"/>
	</g>
	<g class="st0">
		<path d="M46.6,645.7l-27.5-5.2l1.7-9.1l28.8,5.4c5.8,1.1,8.1,0.2,8.6-2c0.4-2.2-1.5-3.8-7.3-4.9l-28.8-5.4l1.7-9l27.5,5.2
			c11,2.1,15,8.2,13.6,15.4C63.5,643.4,57.6,647.8,46.6,645.7z"/>
	</g>
	<g class="st0">
		<path d="M25.5,607.2l2.8-11.9c1.5-6.4,7.2-12.4,14.8-10.7c5.5,1.3,8.2,5.2,9.2,10l21.7-4.4l-2.3,9.9l-19.9,3.2l-0.1,0.5l18.1,4.2
			l-2.1,9.1L25.5,607.2z M46.5,602.5l0.4-2.1c0.6-2.8-1.3-5.3-5.1-6.2c-3.6-0.8-6.5,0.8-7.1,3.3l-0.6,2.1L46.5,602.5z"/>
	</g>
	<g class="st0">
		<path d="M55.4,547.6c-3.7-1.1-7.1-1.2-7.8,1.2c-1.1,3.7,5.1,7.1,13.5,9.6c7.5,2.3,15,3.2,16.2-0.6c0.8-2.5-2.4-4.4-6-5.6l2.9-9.7
			c7.8,3.8,11.4,11,9.5,17.2c-3.2,10.7-16.1,11.4-25.5,8.5c-10.3-3.1-20.3-11.2-17.1-21.4c1.9-6.2,8.8-10.2,17.2-8.8L55.4,547.6z"/>
	</g>
	<g class="st0">
		<path d="M51.3,514.1c3-8.5,13.6-11.9,26.8-7.2c11.1,3.9,19.1,12.8,15.7,22.4c-3.3,9.4-14.7,11.5-26.5,7.3
			C53.9,531.8,48.2,522.6,51.3,514.1z M87.7,527c1.6-4.5-5-8.3-12.9-11.1c-8.5-3-16-4.2-17.5,0.3c-1.6,4.6,5.2,8.4,13.4,11.3
			C79.5,530.7,86.1,531.4,87.7,527z"/>
	</g>
	<g class="st0">
		<path d="M60.1,492.6l4.6-11.3c2.5-6.1,9-11.1,16.3-8.2c5.2,2.1,7.3,6.5,7.5,11.3l22.2-0.9l-3.9,9.4l-20.1,0l-0.2,0.4l17.2,7
			l-3.5,8.7L60.1,492.6z M81.6,491.4l0.8-2c1-2.7-0.5-5.5-4-6.9c-3.4-1.4-6.5-0.3-7.5,2.1l-0.9,2L81.6,491.4z"/>
	</g>
	<g class="st0">
		<path d="M73,461.7l8.3-18.2l6.4,2.9l-4.5,9.9l9.4,4.3l4.2-9.1l6.4,2.9l-4.2,9.1l10.6,4.9l4.7-10.3l6.6,3l-8.5,18.6L73,461.7z"/>
	</g>
	<g class="st0">
		<path d="M137.2,429.4l-5.1,9.6l-42.7-12.1l4.6-8.6l30.2,10.1l0.2-0.3l-25.5-19l4-7.6L137.2,429.4z"/>
	</g>
	<g class="st0">
		<path d="M142.2,403.1l-4.3,7.4l6.7,5.5l-4.4,7.6l-33.1-29.4l5.5-9.5l42.2,13.6l-4.6,7.9L142.2,403.1z M119.7,394.7l-0.2,0.4
			l12.9,10.9l3.2-5.5L119.7,394.7z"/>
	</g>
	<g class="st0">
		<path d="M120.2,371.9l5-8l30.5,19.2l5.4-8.5l6.2,3.9L156.9,395L120.2,371.9z"/>
	</g>
	<g class="st0">
		<path d="M156.3,367.1l-23.1-15.8l5.2-7.7l24.2,16.5c4.9,3.3,7.4,3.4,8.6,1.6c1.3-1.9,0.1-4.1-4.7-7.4l-24.2-16.5l5.1-7.5
			l23.1,15.8c9.3,6.3,10.5,13.5,6.3,19.6C172.8,371.8,165.5,373.4,156.3,367.1z"/>
	</g>
	<g class="st0">
		<path d="M152.5,323.5l11.9-16l5.7,4.2l-6.5,8.7l8.3,6.2l6-8l5.7,4.2l-6,8l9.4,7l6.7-9.1l5.8,4.3l-12.2,16.4L152.5,323.5z"/>
	</g>
	<g class="st0">
		<path d="M197.8,315.5c2.4,2.8,5.4,4,6.8,2.2c1.1-1.4,0.4-3.2-1.3-4.5c-2.5-2-5.8-2-9.4-0.8c-5.4,1.8-11.9,2.6-17.1-1.6
			c-6.2-5-6.5-12.1-2.5-17c3.7-4.6,10-6,16.9-1.5l-5.8,7.3c-2.3-2.3-4.9-3.3-6-1.9c-0.9,1.2-0.2,3.1,1.8,4.6
			c1.8,1.5,4.6,1.6,8.5,0.3c5.9-2.1,12.1-2.7,17.7,1.8c6,4.8,6.7,11.9,2.3,17.2c-3.2,4-9.8,7.3-17.9,1.6L197.8,315.5z"/>
	</g>
	<g class="st0">
		<path d="M235.6,225.6c6.5-6.4,17.5-4.8,27.3,5.3c8.2,8.4,11.6,19.9,4.3,27c-7.1,7-18.3,3.9-27.1-5
			C230.2,242.7,229.2,231.9,235.6,225.6z M262.7,253.2c3.4-3.4-0.8-9.6-6.8-15.6c-6.4-6.5-12.6-10.7-15.9-7.4c-3.5,3.4,1,9.9,7.1,16
			C253.8,252.9,259.4,256.4,262.7,253.2z"/>
	</g>
	<g class="st0">
		<path d="M271.4,231.2l-18.6-20.8l6.9-6.2l19.5,21.8c3.9,4.4,6.3,5.1,8,3.6c1.7-1.5,1.1-4-2.8-8.3L265,199.5l6.8-6.1l18.6,20.8
			c7.5,8.4,6.9,15.6,1.4,20.6C286.4,239.7,278.9,239.5,271.4,231.2z"/>
	</g>
	<g class="st0">
		<path d="M278.3,187.8l9.5-7.7c5.1-4.1,13.3-5.5,18.2,0.5c3.6,4.4,3.3,9.2,1.2,13.6l19.9,9.8l-7.9,6.5l-17.7-9.6l-0.4,0.3
			l11.8,14.4l-7.2,5.9L278.3,187.8z M297.8,196.9l1.6-1.4c2.2-1.9,2.2-5-0.3-8c-2.3-2.8-5.6-3.3-7.6-1.7l-1.8,1.4L297.8,196.9z"/>
	</g>
	<g class="st0">
		<path d="M338.2,158.7c-2.3-3.1-4.9-5.2-6.9-3.8c-3.1,2.2-0.3,8.7,4.9,15.9c4.5,6.3,10,11.7,13.2,9.4c2.1-1.5,0.8-5-1.3-8l8.2-5.9
			c3.9,7.7,2.3,15.7-3,19.5c-9.1,6.5-19.7-0.8-25.4-8.8c-6.3-8.8-9.3-21.2-0.6-27.5c5.3-3.8,13.2-2.7,19,3.5L338.2,158.7z"/>
	</g>
	<g class="st0">
		<path d="M355.3,129.6c7.6-4.9,18-1.2,25.7,10.6c6.4,9.9,7.4,21.8-1.1,27.3c-8.4,5.4-18.7,0.2-25.5-10.3
			C346.6,145.3,347.8,134.5,355.3,129.6z M376.3,162.1c4-2.6,1.1-9.6-3.5-16.7c-4.9-7.6-10.2-13-14.1-10.5c-4.1,2.7-1,9.9,3.7,17.1
			C367.6,160,372.5,164.6,376.3,162.1z"/>
	</g>
	<g class="st0">
		<path d="M375.4,118l10.6-6.2c5.7-3.3,14-3.3,17.9,3.4c2.8,4.9,1.8,9.6-0.9,13.6l18.1,12.8l-8.8,5.1l-16-12.2l-0.4,0.2l9.4,16
			l-8.1,4.7L375.4,118z M393.2,130l1.8-1.1c2.5-1.5,2.9-4.6,1-7.9c-1.8-3.2-5-4.2-7.3-2.9l-1.9,1.1L393.2,130z"/>
	</g>
	<g class="st0">
		<path d="M404.4,101.3l17.6-9.4l3.3,6.3l-9.6,5.1l4.9,9.1l8.8-4.7l3.3,6.3l-8.8,4.7l5.5,10.3l10-5.3l3.4,6.4l-18,9.6L404.4,101.3z"
			/>
	</g>
	<g class="st0">
		<path d="M475.1,114.6l-9.9,4.5l-26.6-35.5l8.9-4.1l17.9,26.4l0.3-0.2L457,75.1l7.9-3.6L475.1,114.6z"/>
	</g>
	<g class="st0">
		<path d="M495,96.8l-7.9,3.3l1.9,8.4l-8.1,3.4l-8.4-43.5l10.1-4.2l25.3,36.5l-8.4,3.5L495,96.8z M482.2,76.5l-0.4,0.2l3.6,16.6
			l5.9-2.4L482.2,76.5z"/>
	</g>
	<g class="st0">
		<path d="M496.5,58.7l8.8-3.3l12.5,33.7l9.4-3.5l2.6,6.9l-18.3,6.8L496.5,58.7z"/>
	</g>
	<g class="st0">
		<path d="M528,76.8l-8.7-26.6l8.8-2.9l9.2,27.8c1.8,5.6,3.8,7.2,5.9,6.5c2.2-0.7,2.6-3.2,0.8-8.7l-9.2-27.8l8.7-2.8l8.7,26.6
			c3.5,10.7,0.1,17.1-6.9,19.4C538.3,90.6,531.5,87.5,528,76.8z"/>
	</g>
	<g class="st0">
		<path d="M551.6,39.9l19.2-5.5l1.9,6.8l-10.4,3l2.8,9.9l9.6-2.7l1.9,6.8l-9.6,2.7l3.2,11.3l10.8-3.1l2,6.9l-19.6,5.6L551.6,39.9z"
			/>
	</g>
	<g class="st0">
		<path d="M592.4,61.2c0.2,3.7,1.8,6.5,4.1,5.9c1.7-0.4,2.2-2.3,1.7-4.4c-0.8-3.1-3.4-5.1-6.9-6.4c-5.3-1.9-11-5.2-12.6-11.7
			c-1.9-7.7,2.2-13.5,8.4-15c5.8-1.4,11.6,1.3,14.3,9.2l-9.1,2.2c-0.4-3.2-1.9-5.6-3.6-5.2c-1.5,0.4-2,2.3-1.4,4.7
			c0.6,2.3,2.7,4.1,6.6,5.4c6,1.9,11.2,5.3,12.9,12.1c1.8,7.5-1.9,13.5-8.6,15.1c-5,1.2-12.2-0.2-15.2-9.7L592.4,61.2z"/>
	</g>
	<g class="st0">
		<path d="M677.2,12.9c9-1.1,16.7,6.9,18.4,20.8c1.4,11.7-3,22.8-13,24.1c-9.9,1.2-16.9-8.1-18.4-20.5
			C662.5,23.2,668.2,14,677.2,12.9z M681.8,51.3c4.8-0.6,5.2-8.1,4.2-16.5c-1.1-9-3.4-16.1-8-15.6c-4.9,0.6-5.2,8.4-4.2,17
			C674.9,45.6,677.2,51.9,681.8,51.3z"/>
	</g>
	<g class="st0">
		<path d="M702.2,39.2l-2-27.9l9.3-0.7l2.1,29.2c0.4,5.9,1.9,7.9,4.1,7.8c2.3-0.2,3.3-2.5,2.9-8.3l-2.1-29.2l9.1-0.7l2,27.9
			c0.8,11.2-4.1,16.6-11.4,17.1C708.8,55,703,50.4,702.2,39.2z"/>
	</g>
	<g class="st0">
		<path d="M734.1,9l12.2-0.4c6.5-0.2,13.9,3.7,14.1,11.5c0.2,5.6-3,9.3-7.3,11.5l9.8,19.9l-10.2,0.3l-8.2-18.4l-0.5,0l0.6,18.6
			l-9.4,0.3L734.1,9z M744,28.1l2.2-0.1c2.9-0.1,4.8-2.7,4.7-6.5c-0.1-3.7-2.4-6.1-5-6l-2.2,0L744,28.1z"/>
	</g>
	<g class="st0">
		<path d="M798.7,21.9c-0.1-3.8-1-7.1-3.4-7.1c-3.8,0-5.3,6.9-5.3,15.7c0,7.8,1.3,15.3,5.3,15.3c2.6,0,3.5-3.6,3.6-7.3H809
			c-1.3,8.6-7.3,14.1-13.7,14.1c-11.2,0-15.5-12.1-15.5-22c0-10.8,4.8-22.6,15.5-22.6c6.5,0,12.3,5.5,13.4,13.9H798.7z"/>
	</g>
	<g class="st0">
		<path d="M827.9,7.4c9.1,0,15.8,8.8,15.8,22.9c0,11.8-5.7,22.3-15.8,22.3c-10,0-15.8-10-15.8-22.6C812.1,15.8,818.9,7.4,827.9,7.4z
			 M827.9,46.1c4.8,0,6.1-7.4,6.1-15.9c0-9.1-1.4-16.4-6.1-16.4c-4.9,0-6.2,7.7-6.2,16.4C821.8,39.6,823.3,46.1,827.9,46.1z"/>
	</g>
	<g class="st0">
		<path d="M850.1,8.2l12.2,0.2c6.5,0.1,13.7,4.4,13.5,12.2c-0.1,5.6-3.4,9.1-7.8,11.2l8.9,20.3l-10.2-0.2l-7.3-18.7l-0.5,0
			l-0.3,18.6l-9.4-0.2L850.1,8.2z M859,27.7l2.2,0c2.9,0,4.9-2.4,5-6.3c0.1-3.7-2.1-6.2-4.7-6.3l-2.2-0.1L859,27.7z"/>
	</g>
	<g class="st0">
		<path d="M883.6,9l19.9,1.1l-0.4,7.1l-10.8-0.6l-0.6,10.3l10,0.6l-0.4,7.1l-10-0.6l-0.7,11.7l11.3,0.6l-0.4,7.2l-20.4-1.1L883.6,9z
			"/>
	</g>
	<g class="st0">
		<path d="M937.1,56.9l-10.8-1.2l-4.3-44.2l9.7,1.1l1.6,31.8l0.4,0l8.4-30.7l8.6,1L937.1,56.9z"/>
	</g>
	<g class="st0">
		<path d="M963.3,52l-8.4-1.3l-2.7,8.2l-8.7-1.3l15.3-41.6l10.9,1.6l2.7,44.3l-9-1.4L963.3,52z M963,28l-0.5-0.1L957,44l6.3,1
			L963,28z"/>
	</g>
	<g class="st0">
		<path d="M984.4,20.2l9.3,1.8l-6.7,35.4l9.9,1.9l-1.4,7.2l-19.2-3.6L984.4,20.2z"/>
	</g>
	<g class="st0">
		<path d="M1002,52l6.3-27.2l9.1,2.1l-6.6,28.5c-1.3,5.7-0.5,8.1,1.6,8.6c2.2,0.5,3.9-1.4,5.2-7.1l6.6-28.5l8.9,2l-6.3,27.2
			c-2.5,10.9-8.8,14.7-16,13C1003.7,69.1,999.5,63,1002,52z"/>
	</g>
	<g class="st0">
		<path d="M1041.2,32.6l19.3,5.3l-1.9,6.8l-10.5-2.9l-2.7,10l9.7,2.6l-1.9,6.8l-9.7-2.6l-3.1,11.3l10.9,3l-1.9,6.9l-19.7-5.4
			L1041.2,32.6z"/>
	</g>
	<g class="st0">
		<path d="M1065.1,71.9c-1.7,3.2-1.8,6.5,0.4,7.2c1.7,0.5,3.1-0.8,3.7-2.9c1-3.1-0.3-6.1-2.6-9.1c-3.6-4.4-6.7-10.1-4.7-16.5
			c2.4-7.6,8.9-10.4,14.9-8.5c5.7,1.8,9.3,7.2,7.5,15.2l-8.9-2.8c1.3-2.9,1.3-5.8-0.4-6.3c-1.4-0.4-2.9,1-3.7,3.3
			c-0.7,2.2,0.2,4.9,2.8,8c4.1,4.7,6.9,10.3,4.8,17.1c-2.3,7.4-8.6,10.5-15.2,8.4c-4.9-1.5-10.3-6.5-8-16.1L1065.1,71.9z"/>
	</g>
	<g class="st0">
		<path d="M1162.7,74.5c8.3,3.7,10.8,14.5,5,27.3c-4.8,10.7-14.4,18-23.6,13.8c-9.1-4.1-10.3-15.6-5.1-27.1
			C1144.8,75.7,1154.5,70.8,1162.7,74.5z M1146.8,109.8c4.4,2,8.6-4.3,12.1-12c3.7-8.3,5.4-15.6,1.2-17.5c-4.5-2-8.8,4.5-12.4,12.4
			C1143.8,101.3,1142.6,107.9,1146.8,109.8z"/>
	</g>
	<g class="st0">
		<path d="M1170.5,109.9l12.7-24.9l8.3,4.2l-13.3,26.1c-2.7,5.2-2.5,7.8-0.5,8.8c2,1,4.1-0.4,6.8-5.6l13.3-26.1l8.1,4.1l-12.7,24.9
			c-5.1,10-12.1,12.1-18.7,8.7C1168,126.9,1165.4,119.9,1170.5,109.9z"/>
	</g>
	<g class="st0">
		<path d="M1213.4,100.7l10.6,6c5.7,3.2,9.9,10.4,6.1,17.2c-2.8,4.9-7.3,6.4-12.2,6.1L1216,152l-8.9-5l2.5-19.9l-0.4-0.2l-9.1,16.2
			l-8.1-4.6L1213.4,100.7z M1211.9,122.1l1.9,1c2.5,1.4,5.5,0.2,7.4-3.1c1.8-3.2,1.1-6.4-1.1-7.7l-1.9-1.1L1211.9,122.1z"/>
	</g>
	<g class="st0">
		<path d="M1262.1,146c2-3.2,3.1-6.5,1-7.8c-3.2-2.1-8.2,2.9-13,10.3c-4.3,6.5-7.3,13.5-3.9,15.7c2.2,1.4,4.9-1.1,7-4.2l8.5,5.5
			c-5.8,6.5-13.8,7.8-19.2,4.3c-9.3-6.1-6.4-18.6-1-26.9c5.9-9,16.4-16.3,25.4-10.4c5.4,3.5,7.3,11.3,3.6,19L1262.1,146z"/>
	</g>
	<g class="st0">
		<path d="M1295.5,151.5c7.3,5.3,7.6,16.4-0.6,27.8c-6.9,9.5-17.7,14.8-25.9,8.8c-8.1-5.8-6.9-17.4,0.4-27.5
			C1277.7,149,1288.2,146.2,1295.5,151.5z M1272.8,182.8c3.9,2.8,9.3-2.4,14.3-9.3c5.3-7.3,8.5-14.2,4.7-16.9
			c-4-2.9-9.5,2.7-14.6,9.7C1271.6,173.9,1269.1,180.1,1272.8,182.8z"/>
	</g>
	<g class="st0">
		<path d="M1313.6,166l9.6,7.6c5.1,4.1,8.2,11.8,3.3,17.9c-3.5,4.4-8.3,5.2-13,4.1l-5.3,21.5l-8-6.4l5.6-19.3l-0.4-0.3l-11.5,14.6
			l-7.3-5.8L1313.6,166z M1308.8,186.9l1.7,1.3c2.3,1.7,5.4,1.1,7.8-1.9c2.3-2.9,2.1-6.2,0.1-7.8l-1.7-1.4L1308.8,186.9z"/>
	</g>
	<g class="st0">
		<path d="M1339.6,187l15.1,13.1l-4.6,5.4l-8.2-7.1l-6.7,7.8l7.6,6.5l-4.6,5.4l-7.6-6.5l-7.6,8.9l8.5,7.4l-4.7,5.5l-15.4-13.3
			L1339.6,187z"/>
	</g>
	<g class="st0">
		<path d="M1352.8,257.6l-7.8-7.5l23.5-37.7l7,6.8l-18.1,26.2l0.3,0.2l25.4-19.2l6.2,6L1352.8,257.6z"/>
	</g>
	<g class="st0">
		<path d="M1376.6,269.7l-5.9-6.1l-7.1,4.9l-6.1-6.3l37.5-23.6l7.6,7.9l-24.8,36.8l-6.3-6.6L1376.6,269.7z M1390.9,250.5l-0.3-0.3
			l-14.1,9.4l4.4,4.6L1390.9,250.5z"/>
	</g>
	<g class="st0">
		<path d="M1412.7,257.3l6.3,7l-26.9,23.9l6.7,7.5l-5.5,4.9l-13-14.6L1412.7,257.3z"/>
	</g>
	<g class="st0">
		<path d="M1407.2,293.3l21.6-17.8l5.9,7.2l-22.6,18.6c-4.5,3.7-5.4,6.1-3.9,7.8c1.5,1.8,3.9,1.3,8.4-2.4l22.6-18.6l5.8,7
			l-21.6,17.8c-8.7,7.1-15.9,6.3-20.6,0.6C1398.1,307.9,1398.6,300.4,1407.2,293.3z"/>
	</g>
	<g class="st0">
		<path d="M1450.2,301.8l12.1,15.9l-5.6,4.3l-6.6-8.6l-8.2,6.2l6.1,8l-5.6,4.3l-6.1-8l-9.3,7.1l6.8,9l-5.7,4.4l-12.3-16.2
			L1450.2,301.8z"/>
	</g>
	<g class="st0">
		<path d="M1445.2,347.6c-3.3,1.5-5.4,4.1-4,5.9c1,1.5,2.9,1.2,4.7,0c2.6-1.9,3.5-5,3.4-8.8c-0.2-5.7,0.9-12.1,6.3-16
			c6.5-4.6,13.4-2.8,17,2.3c3.4,4.9,3,11.3-3.3,16.6l-5.4-7.7c2.8-1.5,4.5-3.8,3.5-5.2c-0.9-1.2-2.9-1-4.9,0.4
			c-1.9,1.3-2.8,4-2.6,8.1c0.4,6.3-0.8,12.4-6.6,16.5c-6.3,4.5-13.2,3.1-17.2-2.6c-2.9-4.2-4.3-11.5,3.5-17.7L1445.2,347.6z"/>
	</g>
	<g class="st0">
		<path d="M1521,408.9c4.3,8-0.3,18.1-12.7,24.7c-10.4,5.6-22.4,5.6-27.2-3.4c-4.7-8.8,1.3-18.6,12.4-24.6
			C1506.1,399,1516.8,401,1521,408.9z M1487,427.2c2.3,4.2,9.5,1.9,16.9-2.1c8-4.3,13.8-9.1,11.6-13.2c-2.3-4.3-9.7-1.8-17.4,2.3
			C1489.8,418.7,1484.8,423.2,1487,427.2z"/>
	</g>
	<g class="st0">
		<path d="M1505.7,441.8l25.2-12.1l4,8.4l-26.4,12.6c-5.3,2.5-6.7,4.7-5.7,6.7c1,2.1,3.5,2.2,8.8-0.3l26.4-12.6l3.9,8.2l-25.2,12.1
			c-10.1,4.8-16.9,2.3-20.1-4.4C1493.4,453.7,1495.6,446.6,1505.7,441.8z"/>
	</g>
	<g class="st0">
		<path d="M1545.4,460.5l4.8,11.3c2.6,6,1.6,14.3-5.6,17.3c-5.2,2.2-9.7,0.6-13.4-2.6l-14.9,16.4l-4-9.4l14.1-14.3l-0.2-0.4
			l-17.1,7.3l-3.7-8.6L1545.4,460.5z M1531.2,476.6l0.9,2c1.2,2.6,4.2,3.5,7.8,2c3.4-1.4,4.8-4.4,3.8-6.8l-0.8-2.1L1531.2,476.6z"/>
	</g>
	<g class="st0">
		<path d="M1556.6,526.2c3.6-1.3,6.4-3.3,5.6-5.6c-1.3-3.6-8.3-2.7-16.6,0.2c-7.4,2.6-14,6.3-12.7,10.1c0.9,2.5,4.6,2.1,8.1,1
			l3.4,9.6c-8.5,1.6-15.7-2.2-17.9-8.3c-3.7-10.5,6.3-18.7,15.6-21.9c10.2-3.6,22.9-3,26.5,7.2c2.1,6.1-1.1,13.4-8.7,17.3
			L1556.6,526.2z"/>
	</g>
	<g class="st0">
		<path d="M1579.7,550.7c2.6,8.7-3.9,17.6-17.4,21.7c-11.3,3.4-23,0.9-25.9-8.8c-2.9-9.5,5.1-18,17.1-21.6
			C1567.1,538,1577.1,542.1,1579.7,550.7z M1542.7,561.8c1.4,4.6,8.9,3.7,17,1.3c8.7-2.6,15.3-6.1,14-10.6
			c-1.4-4.7-9.2-3.7-17.5-1.2C1547.1,554,1541.4,557.4,1542.7,561.8z"/>
	</g>
	<g class="st0">
		<path d="M1585.2,573.3l3,11.9c1.6,6.3-0.7,14.3-8.3,16.2c-5.5,1.4-9.7-0.9-12.8-4.7l-17.3,13.8l-2.5-9.9l16.2-11.9l-0.1-0.5
			l-18,4.5l-2.3-9.1L1585.2,573.3z M1568.7,587l0.6,2.1c0.8,2.8,3.6,4.1,7.3,3.2c3.6-0.9,5.4-3.6,4.8-6.1l-0.5-2.2L1568.7,587z"/>
	</g>
	<g class="st0">
		<path d="M1593.1,605.9l4,19.6l-6.9,1.4l-2.2-10.6l-10.1,2.1l2,9.8l-6.9,1.4l-2-9.8l-11.5,2.4l2.3,11l-7,1.5l-4.1-20L1593.1,605.9z
			"/>
	</g>
	<g class="st0">
		<path d="M1560.4,669.9l-1.6-10.7l41.6-15.5l1.4,9.7l-30.3,9.7l0.1,0.4l31.8,0.3l1.3,8.5L1560.4,669.9z"/>
	</g>
	<g class="st0">
		<path d="M1571.9,694l-0.9-8.5l-8.6-0.5l-0.9-8.7l44.1,4.1l1.2,10.9l-42.1,14l-1-9.1L1571.9,694z M1595,687.5l-0.1-0.5l-16.9-1.2
			l0.7,6.3L1595,687.5z"/>
	</g>
	<g class="st0">
		<path d="M1608.1,706.2l0.7,9.4l-35.9,2.6l0.7,10.1l-7.4,0.5l-1.4-19.5L1608.1,706.2z"/>
	</g>
	<g class="st0">
		<path d="M1581.8,731.4l27.9-1l0.3,9.3l-29.3,1c-5.9,0.2-8,1.6-7.9,3.8c0.1,2.3,2.3,3.4,8.2,3.2l29.3-1l0.3,9.1l-27.9,0.9
			c-11.2,0.4-16.4-4.7-16.7-12.1C1565.8,737.4,1570.6,731.7,1581.8,731.4z"/>
	</g>
	<g class="st0">
		<path d="M1610.6,764.1v20h-7.1v-10.9h-10.3v10h-7.1v-10h-11.7v11.3h-7.2v-20.4H1610.6z"/>
	</g>
	<g class="st0">
		<path d="M1579.4,797.4c-3.6-0.7-6.7,0.2-6.7,2.5c0,1.8,1.7,2.7,3.8,2.7c3.2,0,5.8-2.1,7.9-5.2c3.1-4.7,7.7-9.4,14.3-9.4
			c8,0,12.6,5.4,12.6,11.7c0,5.9-4.1,11-12.3,11.7V802c3.2,0.4,5.9-0.5,5.9-2.3c0-1.5-1.8-2.5-4.3-2.5c-2.3,0-4.6,1.6-6.8,5.1
			c-3.3,5.3-7.8,9.7-14.9,9.7c-7.7,0-12.6-5.1-12.6-12c0-5.1,3.1-11.8,13-12.4V797.4z"/>
	</g>
	<g class="st0">
		<path d="M1611.5,887.4c0,9.1-8.8,15.8-22.9,15.8c-11.8,0-22.3-5.7-22.3-15.8c0-10,10-15.8,22.6-15.8
			C1603.1,871.6,1611.5,878.4,1611.5,887.4z M1572.9,887.4c0,4.8,7.4,6.1,15.9,6.1c9.1,0,16.4-1.4,16.4-6.1c0-4.9-7.7-6.2-16.4-6.2
			C1579.4,881.2,1572.9,882.8,1572.9,887.4z"/>
	</g>
	<g class="st0">
		<path d="M1582.7,908.8h28v9.3h-29.3c-5.9,0-8,1.3-8,3.5c0,2.3,2.2,3.5,8,3.5h29.3v9.1h-28c-11.2,0-16.3-5.3-16.3-12.7
			C1566.4,914.3,1571.5,908.8,1582.7,908.8z"/>
	</g>
	<g class="st0">
		<path d="M1610.6,941.4v12.2c0,6.5-4.1,13.7-11.9,13.7c-5.6,0-9.2-3.2-11.3-7.6l-20.2,9.2v-10.2l18.6-7.6v-0.5l-18.6,0.1v-9.4
			H1610.6z M1591.3,950.7l0.1,2.2c0.1,2.9,2.5,4.9,6.4,4.9c3.7,0,6.1-2.2,6.2-4.8l0.1-2.2H1591.3z"/>
	</g>
	<g class="st0">
		<path d="M1597,1005c3.8-0.1,7.1-1,7.1-3.4c0-3.8-6.9-5.3-15.7-5.3c-7.8,0-15.3,1.3-15.3,5.3c0,2.6,3.6,3.5,7.3,3.6v10.1
			c-8.6-1.3-14.1-7.3-14.1-13.7c0-11.2,12.1-15.5,22-15.5c10.8,0,22.6,4.8,22.6,15.5c0,6.5-5.5,12.3-13.9,13.4V1005z"/>
	</g>
	<g class="st0">
		<path d="M1611.5,1034.3c0,9.1-8.8,15.8-22.9,15.8c-11.8,0-22.3-5.7-22.3-15.8c0-10,10-15.8,22.6-15.8
			C1603.2,1018.5,1611.5,1025.3,1611.5,1034.3z M1572.9,1034.3c0,4.8,7.4,6.1,15.9,6.1c9.1,0,16.4-1.4,16.4-6.1
			c0-4.9-7.7-6.2-16.4-6.2C1579.4,1028.1,1572.9,1029.7,1572.9,1034.3z"/>
	</g>
	<g class="st0">
		<path d="M1610.6,1055.9v12.2c0,6.5-4.1,13.7-11.9,13.7c-5.6,0-9.2-3.2-11.3-7.6l-20.2,9.2v-10.2l18.6-7.6v-0.5l-18.6,0.1v-9.4
			H1610.6z M1591.3,1065.2l0.1,2.2c0.1,2.9,2.5,4.9,6.4,4.9c3.7,0,6.1-2.2,6.2-4.8l0.1-2.2H1591.3z"/>
	</g>
	<g class="st0">
		<path d="M1610.6,1088.1v20h-7.1v-10.9h-10.3v10h-7.1v-10h-11.7v11.3h-7.2v-20.4H1610.6z"/>
	</g>
	<g class="st0">
		<path d="M1567.3,1144.8V1134l43.4-9.3v9.8l-31.4,5.2v0.4l31.4,4.9v8.6L1567.3,1144.8z"/>
	</g>
	<g class="st0">
		<path d="M1575.8,1170.4v-8.5l-8.5-1.4v-8.8l43.4,8.9v11l-43.4,9.4v-9.1L1575.8,1170.4z M1599.4,1166.5v-0.5l-16.7-3v6.4
			L1599.4,1166.5z"/>
	</g>
	<g class="st0">
		<path d="M1610.6,1185.3v9.4h-36v10.1h-7.4v-19.5H1610.6z"/>
	</g>
	<g class="st0">
		<path d="M1582.7,1208.3h28v9.3h-29.3c-5.9,0-8,1.3-8,3.5c0,2.3,2.2,3.5,8,3.5h29.3v9.1h-28c-11.2,0-16.3-5.3-16.3-12.7
			C1566.4,1213.8,1571.5,1208.3,1582.7,1208.3z"/>
	</g>
	<g class="st0">
		<path d="M1610.6,1240.9v20h-7.1V1250h-10.3v10h-7.1v-10h-11.7v11.3h-7.2v-20.4H1610.6z"/>
	</g>
	<g class="st0">
		<path d="M1579.4,1274.2c-3.6-0.7-6.7,0.2-6.7,2.5c0,1.8,1.7,2.7,3.8,2.7c3.2,0,5.8-2.1,7.9-5.2c3.1-4.7,7.7-9.4,14.3-9.4
			c8,0,12.6,5.4,12.6,11.7c0,5.9-4.1,11-12.3,11.7v-9.4c3.2,0.4,5.9-0.5,5.9-2.3c0-1.5-1.8-2.5-4.3-2.5c-2.3,0-4.6,1.6-6.8,5.1
			c-3.3,5.3-7.8,9.7-14.9,9.7c-7.7,0-12.6-5.1-12.6-12c0-5.1,3.1-11.8,13-12.4V1274.2z"/>
	</g>
	<g class="st0">
		<path d="M1610.8,1365.7c-0.4,9.1-9.5,15.4-23.5,14.8c-11.7-0.5-22.1-6.7-21.6-16.8c0.4-10,10.7-15.3,23.2-14.8
			C1603.1,1349.5,1611.2,1356.7,1610.8,1365.7z M1572.2,1364.1c-0.2,4.8,7.2,6.4,15.6,6.8c9.1,0.4,16.5-0.7,16.7-5.4
			c0.2-4.9-7.5-6.5-16.1-6.9C1579,1358.2,1572.4,1359.5,1572.2,1364.1z"/>
	</g>
	<g class="st0">
		<path d="M1580.8,1386.1l27.8,2.5l-0.8,9.3l-29.2-2.6c-5.9-0.5-8.1,0.6-8.3,2.8c-0.2,2.3,1.9,3.7,7.7,4.2l29.2,2.6l-0.8,9.1
			l-27.8-2.5c-11.2-1-15.7-6.7-15.1-14.1C1564.2,1390.1,1569.7,1385.1,1580.8,1386.1z"/>
	</g>
	<g class="st0">
		<path d="M1605.4,1422.5l-1.6,12.1c-0.9,6.5-5.9,13.1-13.7,12c-5.6-0.8-8.7-4.4-10.2-9.1l-21.2,6.5l1.4-10.1l19.5-5.1l0.1-0.5
			l-18.4-2.4l1.3-9.3L1605.4,1422.5z M1585,1429.1l-0.2,2.1c-0.3,2.9,1.8,5.2,5.7,5.7c3.6,0.5,6.4-1.4,6.8-3.9l0.4-2.2L1585,1429.1z
			"/>
	</g>
	<g class="st0">
		<path d="M1581.5,1484.6c3.8,0.7,7.2,0.5,7.7-2c0.8-3.8-5.7-6.5-14.4-8.3c-7.6-1.5-15.3-1.7-16,2.2c-0.5,2.6,2.8,4.2,6.5,5l-2,9.9
			c-8.2-3-12.4-9.9-11.1-16.2c2.2-10.9,14.9-12.9,24.6-10.9c10.6,2.1,21.2,9.1,19.1,19.7c-1.3,6.4-7.8,11-16.3,10.4L1581.5,1484.6z"
			/>
	</g>
	<g class="st0">
		<path d="M1588.8,1517.6c-2.2,8.8-12.4,13.2-26,9.8c-11.4-2.9-20.3-10.9-17.8-20.8c2.4-9.7,13.5-12.9,25.7-9.8
			C1584.5,1500.2,1591,1508.9,1588.8,1517.6z M1551.3,1508.2c-1.2,4.7,5.7,7.7,13.9,9.8c8.8,2.2,16.3,2.6,17.4-2
			c1.2-4.8-6-7.9-14.4-10C1559.1,1503.8,1552.5,1503.8,1551.3,1508.2z"/>
	</g>
	<g class="st0">
		<path d="M1582.1,1539.8l-3.5,11.7c-1.9,6.3-7.9,12-15.4,9.7c-5.4-1.6-7.9-5.7-8.6-10.5l-22,3l2.9-9.8l20-1.9l0.1-0.5l-17.8-5.3
			l2.7-9L1582.1,1539.8z M1560.9,1543.1l-0.6,2.1c-0.8,2.8,1,5.4,4.7,6.5c3.5,1.1,6.5-0.4,7.3-2.8l0.7-2.1L1560.9,1543.1z"/>
	</g>
	<g class="st0">
		<path d="M1572.2,1571.8l-6.5,18.9l-6.7-2.3l3.5-10.3l-9.8-3.4l-3.3,9.5l-6.7-2.3l3.3-9.5l-11.1-3.8l-3.7,10.7l-6.8-2.3l6.7-19.3
			L1572.2,1571.8z"/>
	</g>
	<g class="st0">
		<path d="M1511.5,1610.2l4.1-10l43.7,7.9l-3.7,9l-31.1-7.1l-0.1,0.3l27.2,16.5l-3.3,8L1511.5,1610.2z"/>
	</g>
	<g class="st0">
		<path d="M1509,1636.8l3.5-7.8l-7.2-4.8l3.6-8l35.8,26.1l-4.6,10l-43.4-9.5l3.8-8.3L1509,1636.8z M1532.2,1643l0.2-0.4l-13.9-9.6
			l-2.6,5.8L1532.2,1643z"/>
	</g>
	<g class="st0">
		<path d="M1533.9,1665.8l-4.2,8.4l-32.2-16.2l-4.5,9l-6.6-3.3l8.7-17.4L1533.9,1665.8z"/>
	</g>
	<g class="st0">
		<path d="M1498.5,1674l24.5,13.5l-4.5,8.1l-25.7-14.1c-5.2-2.8-7.7-2.7-8.8-0.8c-1.1,2,0.3,4.1,5.4,6.9l25.7,14.1l-4.4,8
			l-24.5-13.5c-9.8-5.4-11.7-12.5-8.1-18.9C1481.6,1670.9,1488.6,1668.6,1498.5,1674z"/>
	</g>
	<g class="st0">
		<path d="M1506.4,1717l-10.3,17.1l-6.1-3.7l5.6-9.3l-8.8-5.3l-5.2,8.6l-6.1-3.7l5.2-8.6l-10-6l-5.8,9.7l-6.2-3.7l10.5-17.5
			L1506.4,1717z"/>
	</g>
	<g class="st0">
		<path d="M1462,1729.3c-2.7-2.5-5.8-3.5-7-1.6c-1,1.5-0.1,3.2,1.7,4.4c2.7,1.8,6,1.4,9.4-0.1c5.2-2.3,11.6-3.7,17.2,0
			c6.7,4.4,7.6,11.4,4.1,16.7c-3.3,5-9.4,7-16.7,3.1l5.1-7.8c2.5,2,5.2,2.8,6.2,1.3c0.8-1.3-0.1-3.1-2.2-4.4c-2-1.3-4.8-1.2-8.5,0.6
			c-5.7,2.7-11.8,3.8-17.7-0.1c-6.5-4.2-7.8-11.2-4-16.9c2.8-4.3,9.1-8.2,17.7-3.3L1462,1729.3z"/>
	</g>
	<g class="st0">
		<path d="M1433,1822.4c-5.8,6.9-16.9,6.4-27.6-2.7c-9-7.6-13.4-18.7-6.9-26.5c6.4-7.6,17.8-5.6,27.4,2.5
			C1436.7,1804.9,1438.8,1815.6,1433,1822.4z M1403.4,1797.6c-3.1,3.7,1.8,9.5,8.2,14.9c6.9,5.8,13.5,9.5,16.5,5.9
			c3.2-3.8-1.9-9.7-8.6-15.3C1412.3,1797,1406.4,1794,1403.4,1797.6z"/>
	</g>
	<g class="st0">
		<path d="M1396.8,1820.3l20.5,19l-6.3,6.8l-21.5-19.9c-4.3-4-6.8-4.5-8.3-2.9c-1.5,1.7-0.7,4.1,3.5,8l21.5,19.9l-6.2,6.7l-20.5-19
			c-8.2-7.6-8.4-14.9-3.4-20.3C1381.2,1813.3,1388.6,1812.7,1396.8,1820.3z"/>
	</g>
	<g class="st0">
		<path d="M1394.1,1864.1l-8.7,8.6c-4.6,4.6-12.7,6.7-18.2,1.2c-4-4-4.2-8.8-2.5-13.4l-20.8-7.8l7.2-7.2l18.5,7.8l0.3-0.3
			l-13.1-13.2l6.6-6.6L1394.1,1864.1z M1373.8,1856.9l-1.5,1.6c-2,2.1-1.7,5.2,1,7.9c2.6,2.6,5.9,2.8,7.8,1l1.6-1.5L1373.8,1856.9z"
			/>
	</g>
	<g class="st0">
		<path d="M1337.2,1898.8c2.6,2.9,5.4,4.7,7.3,3.1c2.9-2.5-0.6-8.7-6.4-15.3c-5.1-5.9-11.1-10.7-14-8.1c-2,1.7-0.3,5,2.1,7.9
			l-7.6,6.7c-4.6-7.3-3.8-15.4,1.1-19.7c8.4-7.3,19.7-1.1,26.1,6.3c7.1,8.1,11.3,20.2,3.2,27.3c-4.9,4.3-12.9,4-19.3-1.6
			L1337.2,1898.8z"/>
	</g>
	<g class="st0">
		<path d="M1323,1929.4c-7.1,5.6-17.8,2.9-26.6-8.1c-7.3-9.2-9.4-21-1.5-27.3c7.8-6.2,18.6-2,26.4,7.8
			C1330.2,1912.9,1330,1923.8,1323,1929.4z M1298.9,1899.1c-3.8,3-0.2,9.6,5.1,16.3c5.6,7.1,11.4,12,15,9.1c3.9-3.1,0-9.9-5.3-16.7
			C1307.8,1900.3,1302.6,1896.2,1298.9,1899.1z"/>
	</g>
	<g class="st0">
		<path d="M1304.1,1942.9l-9.9,7.2c-5.3,3.8-13.6,4.7-18.1-1.7c-3.3-4.6-2.7-9.3-0.4-13.6l-19.3-11l8.3-6l17.1,10.6l0.4-0.3
			l-10.9-15.1l7.6-5.5L1304.1,1942.9z M1285.3,1932.6l-1.7,1.3c-2.3,1.7-2.5,4.9-0.2,8c2.1,3,5.4,3.7,7.5,2.2l1.8-1.2L1285.3,1932.6
			z"/>
	</g>
	<g class="st0">
		<path d="M1276.8,1962.3l-16.7,11l-3.9-5.9l9.1-6l-5.7-8.6l-8.4,5.5l-3.9-5.9l8.4-5.5l-6.5-9.8l-9.4,6.2l-4-6l17-11.3
			L1276.8,1962.3z"/>
	</g>
	<g class="st0">
		<path d="M1205.3,1955.8l9.4-5.5l29.9,32.8l-8.5,4.9l-20.3-24.5l-0.3,0.2l11.6,29.6l-7.5,4.3L1205.3,1955.8z"/>
	</g>
	<g class="st0">
		<path d="M1187.2,1975.4l7.5-4l-2.7-8.2l7.7-4.1l12.6,42.5l-9.7,5.2l-28.7-33.9l8-4.3L1187.2,1975.4z M1201.8,1994.4l0.4-0.2
			l-5.2-16.1l-5.6,3L1201.8,1994.4z"/>
	</g>
	<g class="st0">
		<path d="M1189.3,2013.5l-8.5,4.1l-15.7-32.4l-9.1,4.4l-3.2-6.6l17.5-8.5L1189.3,2013.5z"/>
	</g>
	<g class="st0">
		<path d="M1156.1,1998.5l11.3,25.6l-8.5,3.7l-11.8-26.8c-2.4-5.4-4.4-6.8-6.5-5.9c-2.1,0.9-2.3,3.4,0.1,8.8l11.8,26.8l-8.3,3.7
			l-11.3-25.6c-4.5-10.3-1.7-17,5-20C1144.6,1985.8,1151.6,1988.2,1156.1,1998.5z"/>
	</g>
	<g class="st0">
		<path d="M1136.3,2037.5l-18.6,7.3l-2.6-6.6l10.1-4l-3.8-9.6l-9.3,3.7l-2.6-6.6l9.3-3.7l-4.3-10.9l-10.5,4.1l-2.6-6.7l19-7.5
			L1136.3,2037.5z"/>
	</g>
	<g class="st0">
		<path d="M1093.6,2020.3c-0.6-3.6-2.5-6.3-4.6-5.5c-1.7,0.6-2,2.5-1.3,4.5c1.1,3.1,3.9,4.7,7.5,5.7c5.5,1.4,11.4,4.1,13.6,10.4
			c2.6,7.5-0.9,13.7-6.9,15.8c-5.6,2-11.7-0.2-15.1-7.7l8.8-3.1c0.7,3.1,2.4,5.4,4.1,4.8c1.4-0.5,1.8-2.5,1-4.9
			c-0.8-2.2-3.1-3.8-7.1-4.7c-6.1-1.3-11.7-4.2-14-10.8c-2.6-7.3,0.6-13.6,7.2-15.9c4.8-1.7,12.2-1,16,8.2L1093.6,2020.3z"/>
	</g>
	<g class="st0">
		<path d="M1013.8,2076.5c-8.8,1.9-17.3-5.2-20.3-18.9c-2.5-11.5,0.8-23,10.7-25.2c9.7-2.1,17.6,6.4,20.3,18.6
			C1027.5,2064.9,1022.6,2074.6,1013.8,2076.5z M1005.5,2038.7c-4.7,1-4.4,8.6-2.6,16.8c1.9,8.8,4.9,15.7,9.5,14.7
			c4.8-1.1,4.4-8.9,2.5-17.3C1013,2043.7,1010.1,2037.8,1005.5,2038.7z"/>
	</g>
	<g class="st0">
		<path d="M986.4,2052.7l4.7,27.6l-9.2,1.6l-4.9-28.9c-1-5.8-2.7-7.7-4.8-7.3c-2.2,0.4-3.1,2.8-2.1,8.5l4.9,28.9l-9,1.5l-4.7-27.6
			c-1.9-11.1,2.5-16.9,9.7-18.2C978.3,2037.6,984.5,2041.7,986.4,2052.7z"/>
	</g>
	<g class="st0">
		<path d="M957.5,2085.8l-12.1,1.5c-6.5,0.8-14.1-2.4-15.1-10.1c-0.7-5.6,2.1-9.5,6.2-12.1l-11.7-18.9l10.1-1.3l9.9,17.5l0.5-0.1
			l-2.4-18.4l9.3-1.2L957.5,2085.8z M945.9,2067.8l-2.1,0.3c-2.8,0.4-4.5,3.1-4,6.9c0.5,3.6,3,5.8,5.5,5.5l2.2-0.2L945.9,2067.8z"/>
	</g>
	<g class="st0">
		<path d="M891.3,2078.6c0.3,3.8,1.4,7.1,3.9,6.9c3.8-0.2,4.8-7.2,4.3-16c-0.5-7.8-2.3-15.2-6.2-14.9c-2.6,0.2-3.3,3.8-3.1,7.5
			l-10.1,0.6c0.8-8.6,6.4-14.5,12.8-14.9c11.1-0.7,16.3,11.1,16.9,21c0.7,10.8-3.4,22.9-14.1,23.5c-6.5,0.4-12.6-4.7-14.3-13.1
			L891.3,2078.6z"/>
	</g>
	<g class="st0">
		<path d="M861.4,2094.2c-9.1,0.1-15.9-8.6-16.1-22.6c-0.2-11.8,5.3-22.4,15.5-22.6c10-0.2,15.9,9.8,16.1,22.3
			C877.2,2085.5,870.4,2094,861.4,2094.2z M860.8,2055.5c-4.8,0.1-6,7.5-5.9,16c0.1,9.1,1.7,16.4,6.4,16.3c4.9-0.1,6.1-7.8,5.9-16.5
			C867.1,2061.9,865.4,2055.4,860.8,2055.5z"/>
	</g>
	<g class="st0">
		<path d="M839.3,2093.4h-12.2c-6.5,0-13.7-4.1-13.7-11.9c0-5.6,3.2-9.2,7.6-11.3l-9.2-20.2h10.2l7.6,18.6h0.5l-0.1-18.6h9.4V2093.4
			z M830,2074l-2.2,0.1c-2.9,0.1-4.9,2.5-4.9,6.4c0,3.7,2.2,6.1,4.8,6.2l2.2,0.1V2074z"/>
	</g>
	<g class="st0">
		<path d="M807.1,2093.4h-20v-7.1H798V2076h-10v-7.1h10v-11.7h-11.3v-7.2h20.4V2093.4z"/>
	</g>
	<g class="st0">
		<path d="M750.6,2049.8l10.9,0.2l8.5,43.5l-9.8-0.2l-4.7-31.5l-0.4,0l-5.5,31.4l-8.6-0.2L750.6,2049.8z"/>
	</g>
	<g class="st0">
		<path d="M724.9,2057.2l8.5,0.5l1.9-8.4l8.7,0.5l-11.2,42.8l-11-0.6l-7-43.8l9.1,0.5L724.9,2057.2z M727.6,2081l0.5,0l3.9-16.5
			l-6.3-0.3L727.6,2081z"/>
	</g>
	<g class="st0">
		<path d="M707,2090.9l-9.4-0.9l3.3-35.8l-10-0.9l0.7-7.3l19.4,1.8L707,2090.9z"/>
	</g>
	<g class="st0">
		<path d="M686.4,2060.9l-3.6,27.7l-9.2-1.2l3.8-29c0.8-5.8-0.3-8.1-2.5-8.4c-2.3-0.3-3.7,1.8-4.5,7.5l-3.8,29l-9-1.2l3.6-27.7
			c1.4-11.1,7.3-15.4,14.7-14.5C683.1,2044,687.9,2049.7,686.4,2060.9z"/>
	</g>
	<g class="st0">
		<path d="M649.2,2084l-19.7-3.4l1.2-7l10.7,1.8l1.7-10.2l-9.9-1.7l1.2-7l9.9,1.7l2-11.5l-11.1-1.9l1.2-7.1l20.1,3.4L649.2,2084z"/>
	</g>
	<g class="st0">
		<path d="M621.6,2047.1c1.4-3.4,1.1-6.6-1.1-7.1c-1.8-0.4-3,1.1-3.4,3.2c-0.7,3.2,0.9,6.1,3.5,8.8c4,4,7.6,9.4,6.3,16
			c-1.6,7.8-7.9,11.2-14,9.9c-5.8-1.2-9.9-6.2-8.9-14.4l9.2,1.9c-1,3-0.7,5.9,1,6.2c1.5,0.3,2.8-1.2,3.3-3.7
			c0.5-2.3-0.6-4.9-3.6-7.7c-4.6-4.3-7.9-9.6-6.4-16.5c1.6-7.6,7.6-11.3,14.3-9.9c5,1,10.9,5.5,9.5,15.3L621.6,2047.1z"/>
	</g>
	<g class="st0">
		<path d="M524.2,2053.9c-8.6-2.9-12.1-13.4-7.6-26.7c3.8-11.1,12.6-19.3,22.2-16c9.4,3.2,11.7,14.6,7.7,26.4
			C542,2051.1,532.8,2056.8,524.2,2053.9z M536.7,2017.4c-4.5-1.5-8.2,5.1-10.9,13.1c-2.9,8.6-3.9,16,0.5,17.5
			c4.7,1.6,8.3-5.3,11.1-13.5C540.5,2025.5,541.1,2018.8,536.7,2017.4z"/>
	</g>
	<g class="st0">
		<path d="M513.1,2019.5l-10.2,26l-8.7-3.4l10.7-27.3c2.2-5.5,1.7-8-0.4-8.8c-2.1-0.8-4.1,0.8-6.2,6.2l-10.7,27.3l-8.5-3.3l10.2-26
			c4.1-10.4,10.9-13.2,17.7-10.5C514,2002.3,517.2,2009,513.1,2019.5z"/>
	</g>
	<g class="st0">
		<path d="M471.3,2032.8l-11.2-5c-6-2.7-10.9-9.4-7.7-16.5c2.3-5.2,6.7-7.1,11.6-7.2l-0.2-22.2l9.3,4.2l-0.6,20.1l0.4,0.2l7.5-17
			l8.5,3.8L471.3,2032.8z M470.7,2011.4l-2-0.8c-2.7-1.1-5.5,0.3-7,3.8c-1.5,3.3-0.5,6.5,1.9,7.6l2,1L470.7,2011.4z"/>
	</g>
	<g class="st0">
		<path d="M418.4,1992.4c-1.7,3.4-2.5,6.8-0.3,7.9c3.4,1.8,7.9-3.7,12-11.5c3.6-6.9,5.9-14.2,2.4-16c-2.3-1.2-4.8,1.5-6.6,4.8
			l-9-4.7c5.2-7,13-9.1,18.7-6.1c9.9,5.2,8.1,18,3.6,26.7c-5,9.6-14.8,17.8-24.3,12.8c-5.7-3-8.4-10.5-5.4-18.6L418.4,1992.4z"/>
	</g>
	<g class="st0">
		<path d="M384.7,1990.1c-7.8-4.6-9.2-15.6-2.1-27.7c5.9-10.1,16.2-16.4,24.9-11.2c8.6,5,8.5,16.6,2.2,27.4
			C402.6,1990.9,392.5,1994.7,384.7,1990.1z M404.2,1956.8c-4.1-2.4-9,3.3-13.3,10.6c-4.6,7.8-7.1,14.9-3,17.3
			c4.2,2.5,9.2-3.6,13.6-11C406.3,1965.5,408.2,1959.1,404.2,1956.8z"/>
	</g>
	<g class="st0">
		<path d="M365.3,1977.4l-10.3-6.7c-5.5-3.6-9.3-11-5-17.5c3.1-4.7,7.7-5.9,12.5-5.3l3.2-21.9l8.5,5.6l-3.8,19.7l0.4,0.3l10.1-15.6
			l7.8,5.1L365.3,1977.4z M368.1,1956.1l-1.8-1.1c-2.4-1.5-5.4-0.5-7.5,2.7c-2,3.1-1.5,6.3,0.7,7.8l1.8,1.3L368.1,1956.1z"/>
	</g>
	<g class="st0">
		<path d="M337.3,1959l-16.3-11.5l4.1-5.8l8.9,6.3l6-8.4l-8.2-5.8l4.1-5.8l8.2,5.8l6.8-9.5l-9.2-6.5l4.2-5.9l16.6,11.8L337.3,1959z"
			/>
	</g>
	<g class="st0">
		<path d="M317.5,1889.9l8.5,6.8l-19.8,39.7l-7.6-6.1l15.5-27.8l-0.3-0.2l-23.5,21.5l-6.8-5.4L317.5,1889.9z"/>
	</g>
	<g class="st0">
		<path d="M292.7,1880.1l6.5,5.6l6.6-5.5l6.6,5.7l-35,27.1l-8.3-7.2l21.2-39l6.9,6L292.7,1880.1z M280.3,1900.6l0.4,0.3l13.2-10.7
			l-4.8-4.1L280.3,1900.6z"/>
	</g>
	<g class="st0">
		<path d="M257.9,1895.9l-6.9-6.4l24.5-26.4l-7.4-6.9l5-5.4l14.3,13.3L257.9,1895.9z"/>
	</g>
	<g class="st0">
		<path d="M259.9,1859.6l-19.8,19.8l-6.6-6.6l20.7-20.7c4.2-4.2,4.8-6.6,3.2-8.2c-1.6-1.6-4-0.9-8.1,3.2l-20.7,20.7l-6.4-6.4
			l19.8-19.8c7.9-7.9,15.2-7.8,20.4-2.5C267.6,1844.2,267.9,1851.6,259.9,1859.6z"/>
	</g>
	<g class="st0">
		<path d="M216.4,1855.2l-13.6-14.7l5.2-4.8l7.4,8l7.6-7l-6.8-7.4l5.2-4.8l6.8,7.4l8.6-7.9l-7.7-8.3l5.3-4.9l13.8,15L216.4,1855.2z"
			/>
	</g>
	<g class="st0">
		<path d="M217,1809.2c3.2-1.8,4.9-4.6,3.5-6.3c-1.2-1.4-3-1-4.7,0.5c-2.5,2.1-3,5.3-2.6,9.1c0.7,5.6,0.3,12.2-4.8,16.5
			c-6.1,5.2-13.1,4.1-17.2-0.7c-3.9-4.5-4.1-11,1.7-16.9l6.1,7.1c-2.6,1.8-4.2,4.2-3,5.6c1,1.1,3,0.7,4.9-0.9
			c1.8-1.5,2.5-4.2,1.8-8.3c-1-6.2-0.4-12.4,5-17c5.9-5,12.9-4.3,17.4,0.9c3.3,3.9,5.3,11-1.8,17.9L217,1809.2z"/>
	</g>
	<g class="st0">
		<path d="M135.6,1755.4c-5-7.5-1.4-18,10.2-25.8c9.8-6.5,21.7-7.7,27.4,0.8c5.5,8.3,0.4,18.7-10,25.7
			C151.4,1763.9,140.6,1762.8,135.6,1755.4z M167.7,1733.9c-2.7-4-9.6-1-16.6,3.8c-7.5,5-12.9,10.3-10.3,14.2c2.7,4.1,9.9,0.8,17-4
			C165.8,1742.6,170.3,1737.7,167.7,1733.9z"/>
	</g>
	<g class="st0">
		<path d="M147.7,1721.2l-23.9,14.4l-4.8-8l25.1-15.1c5-3,6.2-5.3,5.1-7.2c-1.2-2-3.7-1.8-8.7,1.2l-25.1,15.1l-4.7-7.8l23.9-14.4
			c9.6-5.8,16.6-3.9,20.5,2.4C158.8,1708.1,157.3,1715.4,147.7,1721.2z"/>
	</g>
	<g class="st0">
		<path d="M106.4,1706.4l-5.8-10.8c-3.1-5.7-2.9-14,3.9-17.8c5-2.7,9.6-1.5,13.5,1.3l13.3-17.8l4.9,9l-12.7,15.6l0.2,0.4l16.3-8.9
			l4.5,8.2L106.4,1706.4z M118.9,1688.9l-1.1-1.9c-1.4-2.5-4.5-3.1-7.9-1.2c-3.2,1.7-4.3,4.9-3.1,7.2l1,2L118.9,1688.9z"/>
	</g>
	<g class="st0">
		<path d="M89,1642.1c-3.5,1.7-6.1,3.9-5,6.1c1.6,3.5,8.5,1.9,16.5-1.8c7.1-3.3,13.3-7.6,11.7-11.2c-1.1-2.4-4.8-1.7-8.2-0.2
			l-4.3-9.2c8.3-2.4,15.8,0.6,18.6,6.5c4.7,10.1-4.5,19.2-13.4,23.3c-9.8,4.5-22.5,5.2-27.1-4.6c-2.7-5.9-0.2-13.5,7-18.1L89,1642.1
			z"/>
	</g>
	<g class="st0">
		<path d="M63.6,1619.9c-3.4-8.4,2.2-17.9,15.2-23.2c10.9-4.4,22.8-3.2,26.6,6.2c3.8,9.2-3.3,18.4-14.9,23.1
			C77.3,1631.4,67,1628.2,63.6,1619.9z M99.3,1605.3c-1.8-4.4-9.2-2.9-17,0.3c-8.4,3.4-14.7,7.5-12.9,11.9c1.9,4.6,9.5,2.8,17.5-0.5
			C95.7,1613.4,101.1,1609.5,99.3,1605.3z"/>
	</g>
	<g class="st0">
		<path d="M55.9,1598l-4.1-11.5c-2.2-6.2-0.7-14.3,6.7-16.9c5.3-1.9,9.7,0,13.2,3.4l15.9-15.4l3.4,9.6l-15,13.4l0.2,0.5l17.5-6.3
			l3.1,8.8L55.9,1598z M71.1,1582.7l-0.8-2c-1-2.7-4-3.7-7.6-2.5c-3.4,1.2-5,4.1-4.2,6.6l0.7,2.1L71.1,1582.7z"/>
	</g>
	<g class="st0">
		<path d="M44.9,1566.3l-5.9-19.1l6.8-2.1l3.2,10.4l9.9-3.1l-3-9.6l6.8-2.1l3,9.6l11.2-3.5l-3.3-10.8l6.9-2.1l6,19.5L44.9,1566.3z"
			/>
	</g>
	<g class="st0">
		<path d="M71.2,1499.5l2.6,10.5L34,1529.4l-2.3-9.5l29.3-12.6l-0.1-0.3l-31.7,2.8l-2.1-8.4L71.2,1499.5z"/>
	</g>
	<g class="st0">
		<path d="M57.5,1476.5l1.7,8.3l8.6-0.3l1.8,8.6l-44.3,0.1l-2.2-10.8l40.6-18l1.9,8.9L57.5,1476.5z M35.2,1485.2l0.1,0.5l16.9-0.5
			l-1.3-6.2L35.2,1485.2z"/>
	</g>
	<g class="st0">
		<path d="M20.3,1467.8l-1.6-9.3l35.5-6l-1.7-9.9l7.3-1.2l3.2,19.2L20.3,1467.8z"/>
	</g>
	<g class="st0">
		<path d="M44.1,1440.3l-27.7,3.6l-1.2-9.2l29-3.8c5.8-0.8,7.8-2.3,7.5-4.5c-0.3-2.3-2.6-3.2-8.4-2.4l-29,3.8l-1.2-9l27.7-3.6
			c11.1-1.4,16.8,3.1,17.8,10.5C59.5,1432.8,55.2,1438.8,44.1,1440.3z"/>
	</g>
	<g class="st0">
		<path d="M12.2,1410.3l-1.8-19.9l7.1-0.6l1,10.8l10.3-0.9l-0.9-10l7.1-0.6l0.9,10l11.7-1l-1-11.2l7.2-0.6l1.8,20.3L12.2,1410.3z"/>
	</g>
	<g class="st0">
		<path d="M40.8,1374.1c3.6,0.5,6.7-0.6,6.6-2.9c-0.1-1.8-1.8-2.6-4-2.5c-3.2,0.2-5.6,2.4-7.6,5.6c-2.9,4.9-7.2,9.8-13.8,10.2
			c-8,0.4-12.9-4.7-13.2-11c-0.3-5.9,3.5-11.2,11.7-12.3l0.5,9.3c-3.2-0.2-5.8,0.8-5.8,2.6c0.1,1.5,1.9,2.4,4.4,2.3
			c2.3-0.1,4.5-1.9,6.5-5.5c3-5.5,7.3-10.1,14.3-10.4c7.7-0.4,12.9,4.4,13.2,11.3c0.3,5.1-2.5,12-12.3,13.1L40.8,1374.1z"/>
	</g>
	<path id="Path_2180_00000010280651578134068270000008318652879859491472_" d="M220.4,271.4c2.5,0,4.5,2,4.5,4.5
		c0,2.5-2,4.5-4.5,4.5s-4.5-2-4.5-4.5C215.9,273.5,217.9,271.4,220.4,271.4"/>
	<path id="Path_2180_00000015346721503371060960000010199581912700555399_" d="M633.2,38.2c2.5,0,4.5,2,4.5,4.5c0,2.5-2,4.5-4.5,4.5
		s-4.5-2-4.5-4.5C628.7,40.2,630.7,38.2,633.2,38.2"/>
	<path id="Path_2180_00000072971011070694597930000018201452377184071345_" d="M1114.6,71.1c2.5,0,4.5,2,4.5,4.5
		c0,2.5-2,4.5-4.5,4.5s-4.5-2-4.5-4.5C1110.1,73.2,1112.1,71.1,1114.6,71.1"/>
	<path id="Path_2180_00000162345234735713282960000013602762819222954424_" d="M1479.9,374.1c2.5,0,4.5,2,4.5,4.5
		c0,2.5-2,4.5-4.5,4.5s-4.5-2-4.5-4.5C1475.4,376.1,1477.4,374.1,1479.9,374.1"/>
	<path id="Path_2180_00000031190851677993842360000004415270487996640134_" d="M1589.1,838c2.5,0,4.5,2,4.5,4.5c0,2.5-2,4.5-4.5,4.5
		c-2.5,0-4.5-2-4.5-4.5C1584.6,840,1586.6,838,1589.1,838"/>
	<path id="Path_2180_00000097461163463547853110000004404672299875464332_" d="M1588.8,1314.4c2.5,0,4.5,2,4.5,4.5s-2,4.5-4.5,4.5
		s-4.5-2-4.5-4.5S1586.3,1314.4,1588.8,1314.4"/>
	<path id="Path_2180_00000181794300904165574550000017221463871819704969_" d="M1442.9,1765.4c2.5,0,4.5,2,4.5,4.5s-2,4.5-4.5,4.5
		s-4.5-2-4.5-4.5S1440.4,1765.4,1442.9,1765.4"/>
	<path id="Path_2180_00000067205375507447704340000009649484934656920241_" d="M1053,2037c2.5,0,4.5,2,4.5,4.5s-2,4.5-4.5,4.5
		s-4.5-2-4.5-4.5S1050.5,2037,1053,2037"/>
	<path id="Path_2180_00000079480737736873556980000003986075823312588453_" d="M576.2,2039c2.5,0,4.5,2,4.5,4.5s-2,4.5-4.5,4.5
		c-2.5,0-4.5-2-4.5-4.5S573.7,2039,576.2,2039"/>
	<path id="Path_2180_00000150783002638235242510000009058911483500006802_" d="M180.7,1780.2c2.5,0,4.5,2,4.5,4.5s-2,4.5-4.5,4.5
		s-4.5-2-4.5-4.5S178.2,1780.2,180.7,1780.2"/>
</g>
</svg>
