<svg xmlns="http://www.w3.org/2000/svg" viewBox="0 0 2629.23 1676.99"><defs><style>.cls-1{fill:#e1ded5;}</style></defs><g id="Layer_2" data-name="Layer 2"><g id="Layer_1-2" data-name="Layer 1"><path class="cls-1" d="M156.15,649.58l-62.66-34c-27.9-15.14-31.93-39-20.08-60.88,13.39-24.66,37.5-28.58,61.35-15.63l7.68,4.17-16,29.51-12.93-7c-4.65-2.52-9.78-3.21-12.63,2-3,5.46.72,9.29,5.17,11.7l73.17,39.72c4.44,2.41,9.66,3.41,12.4-1.64,3-5.46-.09-9.47-4.94-12.11l-12.33-6.69,16-29.51,7.88,4.28c23.25,12.62,32.71,34.24,19.76,58.09C203.73,657.87,184.45,664.94,156.15,649.58Z"/><path class="cls-1" d="M210.07,557.22l-59.24-47.8c-20.05-16.18-21.55-42.52-5.09-62.92s42.24-24.14,63.36-7.1l59.78,48.25c19.69,15.88,20.66,41.79,4.19,62.19C253.28,574.36,231.19,574.27,210.07,557.22Zm37.81-38.05L181.3,465.43c-3.58-2.88-8.61-4-12.07.31s-1.34,9,2.24,11.87l66.59,53.73c3.93,3.17,8.6,4,12.07-.31S251.82,522.34,247.88,519.17Z"/><path class="cls-1" d="M201.52,384.84,225,363.46l76.93,36.93.34-.31-53.47-58.31,22.09-20.15,108.47,119-21.41,19.52-79.59-35.75-.34.31,53.92,59.15-21.93,20Z"/><path class="cls-1" d="M336.32,309.8l-21.23,15-17.25-24.41,73.25-51.78L388.34,273l-21.22,15,75.67,107.06L412,416.86Z"/><path class="cls-1" d="M397.36,232.39l67.1-38.33,14.83,26-34.35,19.62,16.54,29,27.16-15.51,14.83,26-27.16,15.52,18.82,32.95,34.35-19.62,14.83,26-67.1,38.33Z"/><path class="cls-1" d="M490.57,180.29l28.8-13.35,62.28,58.34.41-.19L548.58,153.4l27.13-12.57L643.42,286.9l-26.3,12.19-65.17-58-.41.19,33.66,72.62-26.92,12.48Z"/><path class="cls-1" d="M637.12,148.94l-24.37,9-10.39-28,84.12-31.15,10.38,28-24.37,9L718,258.78l-35.37,13.1Z"/><path class="cls-1" d="M760.8,75.47l43.61-11.4c33.16-8.66,49.53,3.94,57.85,35.76l.58,2.22c7.62,29.15-.39,52.16-28.65,59.55l-11.13,2.91,15,57.19-36.49,9.54ZM824,133.37c4.45-1.16,6-4.41,4.81-8.86l-6.81-26c-1.28-4.89-4-7-8.65-5.82l-8.45,2.21,10.64,40.72Z"/><path class="cls-1" d="M876.07,46.26,923.93,37c27.78-5.39,45.17,5.76,50.43,32.85l1.18,6.1c3.24,16.71-.22,31.44-15.92,38.7l.09.45c17.1,0,24.33,13.09,28.38,30.34l5.77,24.89c1.49,6.5,3.36,11.29,5.37,14.42l.31,1.58-36.8,7.14c-2.51-3.26-4.64-9.41-6.4-17.27l-6.16-26.92c-1.85-8.31-4.95-11-15.78-8.88l-1.58.3,10.95,56.45-37,7.19Zm58.73,63.57c6.32-1.22,7-5.1,5.88-10.74L936,74.93c-1.06-5.42-3.65-9.14-9.52-8l-7.68,1.49,8.33,42.9Z"/><path class="cls-1" d="M1008.2,141.43,998.18,66c-3.39-25.53,13.65-45.66,39.65-49.11s47.24,11.59,50.81,38.49l10.11,76.15c3.33,25.08-13.8,44.53-39.8,48C1027.72,183.62,1011.77,168.33,1008.2,141.43Zm53.62-1.55-11.26-84.82c-.61-4.56-3.49-8.81-9-8.09s-7.14,5.59-6.54,10.15l11.26,84.82c.67,5,3.49,8.81,9,8.09S1062.48,144.89,1061.82,139.88Z"/><path class="cls-1" d="M1108.87,9.81l52.3-3.94c26.37-2,39.53,10.41,41.58,37.7l6,79.59c2.06,27.29-9.12,41.28-35.49,43.26l-52.3,3.93Zm55.7,127.28c6-.45,7.14-3.3,6.69-9.27L1165,44.34c-.34-4.59-1.11-8.68-8-8.17l-8.26.62,7.59,100.92Z"/><path class="cls-1" d="M1227.88,121.17,1225.33,1.83,1263,1l2.66,124.4c.09,4.37,2.93,8,7.76,7.89s8.44-3.17,8.34-8.23L1279.14.68,1310.87,0l2.5,117c.61,28.52-13.75,45.62-41.57,46.21C1244.44,163.84,1228.44,147.39,1227.88,121.17Z"/><path class="cls-1" d="M1332.75,116.66l2.17-71.27c1-31.72,20.5-46.09,45.33-45.33,28,.86,42.4,20.62,41.57,47.75l-.26,8.73-33.57-1,.45-14.71c.16-5.29-1.53-10.17-7.51-10.35-6.2-.19-8,4.81-8.12,9.87l-2.54,83.22c-.15,5.06,1.3,10.17,7,10.34,6.21.19,8.42-4.34,8.59-9.86l.42-14,33.57,1-.28,9c-.8,26.44-15.85,44.62-43,43.79C1346.75,162.87,1331.77,148.84,1332.75,116.66Z"/><path class="cls-1" d="M1469.11,35.93l-25.9-2.15L1445.69,4l89.39,7.43-2.48,29.8-25.9-2.15L1495.84,169.7l-37.59-3.12Z"/><path class="cls-1" d="M1559.2,14.49l37.42,4.73-20.19,159.72L1539,174.21Z"/><path class="cls-1" d="M1601,138.52l12.9-75c4.37-25.39,26.64-39.53,52.48-35.08s41.65,25.13,37.05,51.88l-13,75.71c-4.29,24.93-26.44,38.39-52.28,33.94C1607.05,184.6,1596.38,165.26,1601,138.52ZM1652.63,153l14.5-84.32c.78-4.53-.7-9.46-6.14-10.39s-8.49,3.21-9.27,7.74l-14.5,84.32c-.86,5,.7,9.46,6.14,10.39S1651.77,158,1652.63,153Z"/><path class="cls-1" d="M1737,43l30.88,7.33,12.85,84.36.44.11,18-77,29.09,6.9-37.16,156.65-28.19-6.69-15.32-85.89-.45-.11-18.47,77.88-28.87-6.85Z"/><path class="cls-1" d="M1997.37,244.19l29.49-64.91c13.13-28.9,36.69-34.61,59.31-24.33,25.55,11.6,31.16,35.38,19.94,60.08l-3.62,8-30.57-13.89,6.09-13.4c2.19-4.82,2.51-10-2.93-12.45-5.66-2.57-9.22,1.37-11.31,6L2029.33,265c-2.09,4.61-2.72,9.88,2.52,12.26,5.65,2.57,9.44-.76,11.72-5.79l5.8-12.77L2080,272.62l-3.71,8.16c-10.95,24.09-31.84,35.05-56.55,23.83C1992.47,292.24,1984.05,273.51,1997.37,244.19Z"/><path class="cls-1" d="M2093.41,290.05l37.38-66.32c12.65-22.44,38.38-28.27,61.22-15.39s30.77,37.68,17.45,61.32l-37.73,66.92c-12.42,22-37.81,27.27-60.65,14.39C2083.63,335.5,2080.08,313.7,2093.41,290.05Zm43.77,31,42-74.54c2.25-4,2.51-9.14-2.3-11.85s-9.07.16-11.33,4.17l-42,74.53c-2.48,4.41-2.51,9.15,2.3,11.86S2134.69,325.47,2137.18,321.07Z"/><path class="cls-1" d="M2257.72,248.87l25.88,18.38-19.76,83,.37.27,45.64-64.64,24.37,17.32L2241,434.47l-23.63-16.78,18.05-85.37-.38-.27-46.35,65.25-24.19-17.18Z"/><path class="cls-1" d="M2360,364.36l-19.16-17.56,20.21-22,66.11,60.62-20.21,22-19.15-17.56-88.6,96.63-27.8-25.5Z"/><path class="cls-1" d="M2451.92,411.82,2501,471.48l-23.08,19-25.15-30.54-25.74,21.2L2447,505.29l-23.08,19L2404,500.15l-29.3,24.13,25.15,30.54-23.08,19-49.13-59.65Z"/><path class="cls-1" d="M2524.75,504.18l15.65,27.61-53.06,66.83.23.41,68.71-39.23,14.75,26L2431,665.22,2416.68,640l52.5-69.69-.23-.4-69.63,39.47-14.63-25.81Z"/><path class="cls-1" d="M2568.32,661.73l-7.59-24.85,28.59-8.74,26.21,85.78-28.6,8.74-7.59-24.86L2454,736.11l-11-36.08Z"/><path class="cls-1" d="M2629.23,821.55l-2.31,45c-1.75,34.23-18.71,46-51.55,44.34l-2.3-.12c-30.09-1.54-49.61-16.13-48.11-45.3l.59-11.49-59-3,1.93-37.67ZM2555,864.26c-.24,4.6,2.4,7,7,7.27l26.87,1.38c5.05.26,7.92-1.67,8.16-6.49l.45-8.73-42-2.15Z"/><path class="cls-1" d="M2615.83,962.24l-14.3,46.61c-8.29,27.05-26.31,37.16-52.7,29.07l-5.93-1.82c-16.28-5-27.65-15-26.68-32.24l-.44-.14c-8,15.11-23,15.33-40.12,10.79l-24.68-6.6c-6.44-1.74-11.55-2.34-15.25-2l-1.54-.47,11-35.84c4.06-.68,10.48.33,18.25,2.47l26.65,7.21c8.21,2.28,12,.8,15.27-9.75l.47-1.54-55-16.86L2461.91,915Zm-83.72,22c-1.89,6.16,1.23,8.56,6.72,10.24l23.53,7.22c5.28,1.62,9.78,1.07,11.53-4.64l2.29-7.48-41.78-12.81Z"/><path class="cls-1" d="M2467.64,1034.28l66.22,37.56c22.4,12.71,28.16,38.45,15.23,61.26s-37.76,30.67-61.37,17.28l-66.82-37.9c-22-12.48-27.16-37.88-14.23-60.69C2422.22,1024.38,2444,1020.89,2467.64,1034.28ZM2436.51,1078l74.42,42.21c4,2.27,9.14,2.54,11.86-2.26s-.14-9.07-4.14-11.34l-74.42-42.21c-4.4-2.5-9.14-2.54-11.86,2.26S2432.11,1075.47,2436.51,1078Z"/><path class="cls-1" d="M2501.42,1205.58l-33.68,40.19c-17,20.28-35,21-56,3.47L2350.55,1198c-21-17.57-23.2-35.34-6.22-55.61l33.68-40.2Zm-130-48.95c-3.84,4.59-2.61,7.42,2,11.26l64.17,53.77c3.53,2.95,7,5.26,11.43,0l5.32-6.35-77.57-65Z"/><path class="cls-1" d="M2337.46,1212.48l79.54,89-28.13,25.14L2306,1233.84c-2.91-3.26-7.42-4.16-11-.95s-4.35,7.9-1,11.68l82.9,92.78-23.67,21.15-78-87.3c-19-21.26-19.21-43.59,1.54-62.13C2297.14,1190.83,2320,1192.93,2337.46,1212.48Z"/><path class="cls-1" d="M2259.91,1283.73l41,58.34c18.25,26,11.23,49.17-9.1,63.45-22.95,16.14-46.29,8.93-61.9-13.28l-5-7.15,27.47-19.31,8.46,12c3,4.33,7.33,7.22,12.22,3.78,5.08-3.57,3.49-8.64.58-12.78l-47.88-68.11c-2.91-4.14-7.13-7.36-11.84-4-5.08,3.57-4.13,8.52-1,13l8.07,11.48-27.48,19.31-5.16-7.34c-15.2-21.64-14.06-45.22,8.14-60.82C2221,1255.15,2241.4,1257.39,2259.91,1283.73Z"/><path class="cls-1" d="M2194.72,1430.86l22.61-12.81,14.73,26L2154,1488.26l-14.72-26,22.61-12.8-64.58-114.09,32.83-18.58Z"/><path class="cls-1" d="M2129.32,1500.11l-34,16.32-69.65-145.16,34-16.32Z"/><path class="cls-1" d="M2026.89,1418.59l28.63,70.54c9.69,23.87-1.76,47.63-26,57.49s-48.65.63-58.85-24.52l-28.9-71.17c-9.51-23.44,2.2-46.57,26.5-56.43C1997.41,1382.65,2016.69,1393.44,2026.89,1418.59Zm-51.51,15,32.17,79.28c1.74,4.26,5.6,7.66,10.71,5.58s5.52-7.2,3.79-11.46l-32.18-79.28c-1.91-4.69-5.59-7.66-10.71-5.58S1973.47,1428.86,1975.38,1433.54Z"/><path class="cls-1" d="M1960.33,1571.79l-30.21,9.71L1875.47,1516l-.43.14,24.42,75.26L1871,1600.5l-49.25-153.29,27.59-8.86,57.55,65.58.44-.14-24.48-76.21,28.24-9.07Z"/><path class="cls-1" d="M1633.6,1534.68l10,70.6c4.43,31.43-12.38,48.9-37,52.37-27.78,3.93-45.28-13.11-49.08-40l-1.22-8.65,33.25-4.69,2.06,14.57c.74,5.24,3.24,9.76,9.16,8.93,6.15-.87,7-6.11,6.32-11.12l-11.63-82.44c-.71-5-3-9.79-8.71-9-6.14.87-7.55,5.71-6.78,11.18l2,13.89-33.25,4.7-1.25-8.89c-3.7-26.19,8-46.66,34.92-50.45C1611.94,1491.52,1629.1,1502.8,1633.6,1534.68Z"/><path class="cls-1" d="M1528.1,1547.67l6.39,75.86c2.17,25.67-15.83,45-42,47.16s-46.63-13.85-48.91-40.89l-6.45-76.55c-2.12-25.21,15.93-43.81,42.06-46C1510.63,1504.59,1525.83,1520.63,1528.1,1547.67Zm-53.63-1,7.18,85.26c.39,4.58,3.06,9,8.56,8.51s7.41-5.24,7-9.83l-7.19-85.26c-.42-5-3.06-9-8.56-8.51S1474.05,1541.61,1474.47,1546.65Z"/><path class="cls-1" d="M1421.33,1674.36l-31.73.89-34.17-78.19H1355l2.45,79.08-29.89.84L1323,1516.05l29-.81,37,79,.46,0-2.25-80,29.66-.83Z"/><path class="cls-1" d="M1276.58,1646.37l26,.69-.79,29.89-89.67-2.38.8-29.89,26,.69,3.48-131,37.7,1Z"/><path class="cls-1" d="M1186.76,1673.1l-77-6,2.32-29.81,39.45,3.09,2.59-33.25-31.18-2.44,2.33-29.81,31.18,2.44,3-37.84-39.44-3.08,2.33-29.81,77,6Z"/><path class="cls-1" d="M1084.14,1664.63l-31.46-4.18-21.27-82.64-.46-.06-10.19,78.46-29.64-3.94,21.2-159.6,28.73,3.82,23.89,83.92.45.06,10.54-79.35,29.41,3.91Z"/><path class="cls-1" d="M945.23,1613.66l25.51,5L965,1648l-88-17.12,5.71-29.35,25.51,5,25-128.69,37,7.2Z"/><path class="cls-1" d="M802.15,1612.9l-43.28-12.61c-32.91-9.58-40.49-28.79-31.29-60.37l.64-2.21c8.42-28.93,27.11-44.57,55.16-36.4l11,3.22,16.52-56.76,36.22,10.55Zm-24.48-82.11c-4.42-1.29-7.4.72-8.69,5.14l-7.52,25.83c-1.41,4.86-.2,8.09,4.44,9.44l8.39,2.44,11.77-40.41Z"/><path class="cls-1" d="M687.34,1578.51l-45.72-17c-26.53-9.84-35.59-28.4-26-54.28l2.16-5.83c5.91-16,16.53-26.73,33.72-24.78l.16-.43c-14.63-8.86-14-23.83-8.47-40.67l8-24.26c2.1-6.33,3-11.4,2.9-15.11l.56-1.51,35.15,13c.45,4.09-.93,10.45-3.51,18.08l-8.73,26.2c-2.74,8.06-1.49,12,8.86,15.79l1.51.56,20-53.91,35.37,13.11Zm-17.12-84.84c-6-2.24-8.61.73-10.61,6.12l-8.55,23.08c-1.92,5.17-1.64,9.69,4,11.77l7.33,2.72,15.2-41Z"/><path class="cls-1" d="M623.9,1428.41l-32,69.06c-10.84,23.37-36,31.22-59.81,20.19s-33.66-35.13-22.24-59.75l32.32-69.7c10.64-23,35.54-30.17,59.32-19.14C630.05,1382.33,635.31,1403.78,623.9,1428.41ZM577.81,1401l-36,77.62c-1.94,4.18-1.79,9.32,3.22,11.64s9-.88,11-5.06l36-77.62c2.13-4.59,1.78-9.31-3.23-11.64S579.94,1396.36,577.81,1401Z"/><path class="cls-1" d="M464.88,1483.37l-45.41-26.24c-22.9-13.23-26.78-30.88-13.09-54.58l39.93-69.1c13.69-23.7,30.81-29,53.71-15.72l45.4,26.24Zm25.75-136.53c-5.17-3-7.75-1.29-10.74,3.89L438,1423.21c-2.3,4-4,7.8,2,11.25l7.17,4.15L497.8,1351Z"/><path class="cls-1" d="M429.42,1323.88l-69.94,96.73-30.57-22.1,72.91-100.83c2.56-3.54,2.48-8.14-1.43-11s-8.65-2.56-11.61,1.54l-72.91,100.83-25.72-18.6,68.6-94.87c16.71-23.11,38.47-28.09,61-11.78C442,1279.87,444.79,1302.64,429.42,1323.88Z"/><path class="cls-1" d="M343,1263.62,294.63,1316c-21.53,23.32-45.7,21.36-63.95,4.51-20.62-19-18.5-43.36-.09-63.31l5.92-6.42,24.68,22.77-10,10.82c-3.59,3.89-5.52,8.69-1.12,12.74,4.56,4.21,9.18,1.59,12.61-2.13l56.47-61.18c3.43-3.72,5.68-8.53,1.45-12.43-4.56-4.21-9.2-2.24-12.95,1.82l-9.51,10.31-24.68-22.77,6.09-6.6c17.94-19.43,41.22-23.29,61.16-4.89C362.7,1219.53,364.82,1240,343,1263.62Z"/><path class="cls-1" d="M183.51,1227l16.39,20.17L176.69,1266l-56.55-69.62,23.21-18.86,16.38,20.18,101.77-82.65,23.78,29.27Z"/><path class="cls-1" d="M100.9,1166.31l-19.61-32.22,137.52-83.71,19.61,32.21Z"/><path class="cls-1" d="M171.12,1056.05l-70.44,28.89c-23.83,9.77-47.63-1.6-57.58-25.86s-.81-48.64,24.3-58.93L138.48,971c23.41-9.6,46.57,2,56.52,26.29C207,1026.44,196.23,1045.76,171.12,1056.05ZM156,1004.59l-79.16,32.46c-4.25,1.75-7.64,5.62-5.54,10.73s7.22,5.49,11.48,3.74l79.16-32.46c4.68-1.92,7.64-5.62,5.54-10.73S160.66,1002.67,156,1004.59Z"/><path class="cls-1" d="M14.08,969.89,9.32,938.5,82.75,895l-.07-.46L4.49,906.67,0,877.11,159.18,853l4.35,28.65L89.6,928l.07.46,79.14-12,4.45,29.34Z"/></g></g></svg>