<svg xmlns="http://www.w3.org/2000/svg" viewBox="0 0 2629.11 1677"><defs><style>.cls-1{fill:#e1ded5;}</style></defs><g id="Layer_2" data-name="Layer 2"><g id="Layer_1-2" data-name="Layer 1"><path class="cls-1" d="M53.38,595.33l18.35-33.22,85.84,30.59.45-.8L85.54,536.63l15.68-28.39L227.5,614.51l-17.23,31.21Z"/><path class="cls-1" d="M116.27,489.17l22.4-30.34,129.52,95.62-22.4,30.35Z"/><path class="cls-1" d="M152.9,439.46,188.55,401c18-19.4,36-19.27,56.12-.66l58.54,54.25c20.07,18.6,21.4,36.45,3.42,55.85L271,548.9Zm127.42,55.38c4.07-4.38,3-7.27-1.4-11.34l-61.41-56.91c-3.37-3.12-6.72-5.6-11.41-.54l-5.63,6.07,74.22,68.79Z"/><path class="cls-1" d="M233.34,355.73l59-50,19.33,22.81-30.18,25.58L303,379.59l23.86-20.22,19.33,22.81L322.35,402.4l24.54,29,30.18-25.58,19.33,22.81-59,50Z"/><path class="cls-1" d="M375.22,390.42,332,327.74c-14.62-21.2-8.58-46.88,13-61.77s47.36-11.14,62.77,11.2l43.61,63.25c14.36,20.82,7.93,45.93-13.66,60.82C411.78,419.13,390.63,412.76,375.22,390.42Zm47.06-25.75-48.57-70.44c-2.61-3.79-7.12-6.27-11.66-3.13s-3.83,8.22-1.22,12l48.58,70.44c2.87,4.16,7.11,6.27,11.66,3.13S425.15,368.83,422.28,364.67Z"/><path class="cls-1" d="M460.22,334.55l-36.43-65c-15.4-27.49-6.86-49.41,17.42-63,20.06-11.24,45-5.41,58.33,18.46l5.17,9.23-30.1,16.87L467,237.43c-2.48-4.41-6.3-7-11.32-4.2-4.62,2.59-4.8,7.44-2.32,11.85l41.82,74.64c2.48,4.41,6.31,7,11.12,4.31,5-2.81,5-7.54,2.53-12L496.32,289.8,488.89,294l-12-21.47,38.72-21.7L558.31,327l-14.85,8.32-9.41-9.75c-1.93,18.22-14.59,24.79-20.61,28.16C491.77,365.91,472.71,356.82,460.22,334.55Z"/><path class="cls-1" d="M497.74,177.39l44.33-20.3c25.72-11.78,45.25-5,56.74,20.06l2.59,5.65c7.08,15.47,7.18,30.6-6.36,41.36l.19.42c16.61-4.07,26.73,7,34.73,22.8l11.46,22.83c3,6,5.93,10.19,8.62,12.75l.67,1.46L616.62,300c-3.2-2.58-6.72-8-10.28-15.28L594,260c-3.76-7.64-7.4-9.52-17.44-4.92l-1.46.67,23.94,52.28-34.3,15.7Zm72,48c5.86-2.68,5.58-6.6,3.19-11.83l-10.25-22.38c-2.3-5-5.69-8-11.13-5.52l-7.11,3.25,18.19,39.74Z"/><path class="cls-1" d="M707.24,234.2,679.6,244.33l4.88,27.36-30,11L629.08,120.52l42.54-15.59,85.21,140.25L721.2,258.24ZM691.3,206.73l-26.61-45.85L674,213.06Z"/><path class="cls-1" d="M718.22,88.89l43.31-12.51c32.93-9.51,49.61,2.67,58.74,34.27l.64,2.21c8.36,29,.93,52.16-27.13,60.27l-11,3.19,16.4,56.79-36.24,10.46Zm64.61,56.28c4.42-1.28,5.87-4.57,4.59-9L780,110.33c-1.4-4.87-4.16-6.94-8.8-5.6l-8.39,2.42,11.67,40.44Z"/><path class="cls-1" d="M823.79,59l36.81-8.27,13.65,60.82,15.26-3.43L875.86,47.33l36.8-8.26,35.27,157.08-36.8,8.27-14.76-65.76-15.26,3.43,14.76,65.75-36.81,8.27Z"/><path class="cls-1" d="M973.73,125.9,927.46,36.08l38.13-6.28L989,78.4l6.56-53.54,30.42-5-15,99.91,10.55,64-37.22,6.14Z"/><path class="cls-1" d="M1198.88,3.29l37.94-1.17,17.48,89.43.92,0L1265.77,1l32.42-1-27,162.83-35.63,1.09Z"/><path class="cls-1" d="M1311.14.61l37.72.36-1.53,161-37.72-.36Z"/><path class="cls-1" d="M1363.46.8l52.38,2.3c26.43,1.16,38,15,36.82,42.36l-3.5,79.74c-1.2,27.34-14,39.91-40.37,38.75l-52.4-2.3Zm40.2,133c6,.26,7.48-2.43,7.74-8.41l3.67-83.64c.2-4.59-.08-8.75-7-9.05l-8.27-.36-4.44,101.1Z"/><path class="cls-1" d="M1470.61,6.05l77,7.07-2.73,29.77-39.4-3.62-3,33.21,31.15,2.86-2.74,29.78-31.14-2.86-3.48,37.79,39.4,3.62-2.74,29.77-76.95-7.07Z"/><path class="cls-1" d="M1545,131.39,1555.56,56c3.59-25.51,25.41-40.32,51.38-36.67s42.4,23.84,38.62,50.72l-10.7,76.07c-3.52,25-25.25,39.18-51.22,35.53C1552.44,177.26,1541.18,158.26,1545,131.39ZM1597,144.28l11.91-84.72c.64-4.56-1-9.43-6.46-10.2s-8.38,3.47-9,8l-11.92,84.72c-.7,5,1,9.44,6.46,10.2S1596.32,149.29,1597,144.28Z"/><path class="cls-1" d="M1645.29,147.41l14.39-73.12c6.08-30.92,26.8-42.08,54.11-36.71,22.56,4.44,37.74,25,32.46,51.87l-2,10.38-33.85-6.66,3-15.35c1-5-.25-9.43-5.9-10.54-5.19-1-8.47,2.56-9.45,7.52l-16.51,84c-1,5,.25,9.43,5.67,10.5,5.64,1.11,8.7-2.51,9.67-7.48l4.93-25.05-8.35-1.64,4.75-24.15,43.56,8.57-16.88,85.76-16.7-3.29-.85-13.53c-13.27,12.63-27.17,9.43-33.94,8.09C1649,191.74,1640.37,172.46,1645.29,147.41Z"/><path class="cls-1" d="M1773,51.08l47.22,12.17c27.39,7.07,38.31,24.61,31.41,51.33l-1.55,6c-4.25,16.48-13.71,28.29-31,28.11l-.11.44c15.45,7.31,16.34,22.27,12.59,39.59l-5.48,24.95c-1.45,6.52-1.82,11.65-1.34,15.33l-.41,1.56-36.3-9.36c-.86-4-.14-10.49,1.64-18.34l6-27c1.91-8.29.26-12-10.43-14.8l-1.56-.4-14.36,55.68L1732.79,207Zm25.72,82.64c6.24,1.61,8.49-1.61,9.93-7.18l6.14-23.83c1.38-5.35.63-9.82-5.16-11.31l-7.57-2-10.91,42.31Z"/><path class="cls-1" d="M1900.22,226.47l-27.94-9.26-13.2,24.46-30.35-10.07,81-142.75,43,14.26-20.54,162.81-36-12Zm4.6-31.42,7.7-52.45-25.16,46.66Z"/><path class="cls-1" d="M1999.72,119.65,2041.34,137c31.64,13.17,37,33.1,24.41,63.47l-.89,2.12c-11.57,27.82-31.88,41.29-58.85,30.07l-10.61-4.42-22.72,54.57-34.82-14.49ZM2015,204c4.24,1.77,7.43.1,9.19-4.14L2034.49,175c2-4.67,1.1-8-3.36-9.87l-8.07-3.35-16.17,38.85Z"/><path class="cls-1" d="M2102.67,163.26l33.6,17.14L2108,235.92l13.93,7.11,28.33-55.52,33.59,17.14-73.15,143.41-33.6-17.14,30.62-60-13.93-7.1-30.62,60-33.6-17.14Z"/><path class="cls-1" d="M2175.62,311.69l24.89-97.92,32.71,20.57-14.69,51.89,40.39-35.73L2285,266.9l-77.45,64.87L2173,386.68,2141.1,366.6Z"/><path class="cls-1" d="M2433.94,391.39l24.74,28.78L2400.07,490l.6.69L2477.74,442l21.14,24.59L2355.25,547.9l-23.24-27Z"/><path class="cls-1" d="M2511.11,485.94l21,31.35-133.8,89.55-21-31.35Z"/><path class="cls-1" d="M2547.14,539.62l23.05,47.1c11.63,23.75,5,40.57-19.57,52.6l-71.68,35.09c-24.59,12-41.72,6.85-53.35-16.91l-23.05-47.1Zm-97.52,99c2.62,5.37,5.71,5.4,11.08,2.77l75.19-36.81c4.14-2,7.65-4.25,4.62-10.45l-3.64-7.44-90.9,44.5Z"/><path class="cls-1" d="M2598.71,653.53l20,74.65-28.88,7.74-10.25-38.21-32.21,8.64,8.1,30.22-28.88,7.74-8.1-30.21-36.66,9.83,10.25,38.21-28.88,7.75-20-74.65Z"/><path class="cls-1" d="M2507,767.68l76-4.36c25.72-1.47,44.52,17,46,43.21s-15.09,46.25-42.18,47.81l-76.7,4.39c-25.26,1.45-43.37-17.1-44.87-43.28C2463.46,784,2479.89,769.23,2507,767.68Zm-2.46,53.59,85.42-4.89c4.59-.27,9.06-2.83,8.74-8.34s-5-7.54-9.63-7.28l-85.42,4.89c-5.06.29-9.06,2.83-8.74,8.34S2499.48,821.56,2504.53,821.27Z"/><path class="cls-1" d="M2509.85,869.9l73.46,12.51c31.07,5.28,42.76,25.7,38.09,53.14-3.86,22.67-24,38.37-51,33.78L2560,967.56l5.79-34,15.41,2.63c5,.85,9.42-.5,10.38-6.17.89-5.21-2.76-8.4-7.75-9.25l-84.35-14.36c-5-.84-9.42.5-10.35,5.94-1,5.67,2.74,8.63,7.72,9.48L2522,926.1l1.43-8.39,24.26,4.13-7.45,43.76-86.16-14.67,2.86-16.77,13.5-1.21c-13-12.94-10.12-26.92-9-33.72C2465.63,874.74,2484.68,865.62,2509.85,869.9Z"/><path class="cls-1" d="M2602.68,1013.54l-18.3,45.2c-10.62,26.22-29.45,34.72-55,24.36l-5.76-2.33c-15.77-6.39-26.23-17.32-23.77-34.44l-.43-.17c-9.28,14.35-24.23,13.26-40.9,7.26l-24-8.74c-6.27-2.29-11.3-3.33-15-3.35l-1.49-.6L2432,1006c4.1-.32,10.42,1.24,18,4l25.92,9.51c8,3,11.91,1.84,16.06-8.39l.6-1.49-53.3-21.59,14.16-35Zm-85.31,14.59c-2.42,6,.47,8.63,5.8,10.79l22.81,9.23c5.12,2.07,9.65,1.92,11.89-3.62l2.94-7.25-40.51-16.4Z"/><path class="cls-1" d="M2404.46,1110.76l16.34-24.49-20.09-19.21,17.75-26.59,116.17,116-25.15,37.69-151.54-63,21.07-31.56Zm29.08,12.77,48.53,21.33-38.32-36.63Z"/><path class="cls-1" d="M2472.66,1243l-30.91,32.81c-23.5,25-44.06,23-68,.41l-1.67-1.58c-21.94-20.65-27.37-44.41-7.34-65.67l7.89-8.37-43-40.53,25.86-27.46Zm-84.26-15.54c-3.15,3.35-2.72,6.91.63,10.07l19.58,18.45c3.69,3.47,7.12,3.85,10.43.34l6-6.36-30.64-28.86Z"/><path class="cls-1" d="M2390.42,1327.57l-29.14,24-39.57-48.16-12.09,9.93,39.57,48.16-29.14,24L2217.83,1261l29.15-24,42.78,52.07,12.09-9.93-42.79-52.07,29.14-24Z"/><path class="cls-1" d="M2224.3,1334.65l78.64,63.42-32.32,21.17-41-35,15.65,51.61-25.78,16.88-26.7-97.44-35.53-54.26,31.55-20.66Z"/><path class="cls-1" d="M2056.13,1535.24,2020.77,1549l-46.38-78.43-.86.33,20.33,88.84-30.22,11.79-29-162.47,33.22-12.95Z"/><path class="cls-1" d="M1949.83,1575.43l-35.8,11.88-50.75-152.79,35.8-11.89Z"/><path class="cls-1" d="M1898.86,1592.59l-50.49,14.19c-25.46,7.15-40.8-2.4-48.21-28.74l-21.58-76.84c-7.41-26.35.78-42.26,26.25-49.42l50.48-14.18Zm-79.75-113.77c-5.75,1.62-6.34,4.65-4.72,10.41l22.65,80.6c1.24,4.42,2.8,8.29,9.45,6.42l8-2.24-27.38-97.43Z"/><path class="cls-1" d="M1794.48,1621.2,1719,1637.94l-6.48-29.19,38.63-8.57-7.22-32.56-30.54,6.77-6.48-29.19,30.54-6.77-8.22-37-38.62,8.57-6.47-29.2,75.44-16.73Z"/><path class="cls-1" d="M1685.37,1524.49l12.66,75.07c4.28,25.41-12,46.12-37.91,50.48s-47.62-9.93-52.14-36.7l-12.77-75.75c-4.2-24.95,12.25-45,38.1-49.34C1664.38,1483,1680.86,1497.73,1685.37,1524.49Zm-53.54,3.43,14.23,84.37c.76,4.54,3.8,8.69,9.24,7.77s7-5.83,6.18-10.37l-14.22-84.37c-.84-5-3.8-8.69-9.24-7.77S1631,1522.93,1631.83,1527.92Z"/><path class="cls-1" d="M1584.91,1539.46l8.45,74c3.57,31.31-12.79,48.22-40.44,51.38-22.85,2.61-43.54-12.39-46.65-39.59l-1.2-10.51,34.28-3.91,1.77,15.54c.58,5,3.1,8.9,8.82,8.25,5.25-.6,7.3-5,6.72-10l-9.7-85c-.57-5-3.1-8.91-8.58-8.28-5.71.65-7.53,5-7,10.05l2.9,25.36,8.45-1,2.79,24.45-44.1,5-9.91-86.83,16.91-1.93,4.92,12.63c8.81-16.05,23-17.21,29.89-18C1568,1498.34,1582,1514.1,1584.91,1539.46Z"/><path class="cls-1" d="M1493.19,1669.9l-48.66,3c-28.24,1.75-44-11.56-45.75-39.11l-.38-6.2c-1.05-17,4.29-31.14,20.8-36.31l0-.46c-17-2.18-22.43-16.12-24.21-33.76l-2.5-25.42c-.64-6.64-1.87-11.64-3.46-15l-.1-1.61,37.42-2.32c2.06,3.56,3.38,9.93,4.1,18l2.63,27.49c.75,8.48,3.48,11.54,14.49,10.86l1.61-.1-3.55-57.39,37.65-2.33Zm-50-70.65c-6.42.4-7.57,4.16-7.22,9.9l1.52,24.56c.34,5.51,2.43,9.53,8.4,9.16l7.81-.48-2.7-43.62Z"/><path class="cls-1" d="M1317.75,1543.26l29.44-.28,4.57-27.41,32-.31-30.44,161.3-45.3.44-33.28-160.7,38-.36Zm5.82,31.23,9.7,52.12,8.7-52.3Z"/><path class="cls-1" d="M1260.45,1676.65l-45-2.11c-34.24-1.61-46.11-18.51-44.57-51.36l.11-2.3c1.41-30.1,15.91-49.68,45.09-48.32l11.49.54,2.76-59,37.68,1.76Zm-43-74.09c-4.6-.21-7,2.44-7.24,7l-1.26,26.88c-.24,5.06,1.7,7.91,6.53,8.14l8.73.4,2-42Z"/><path class="cls-1" d="M1151.94,1671.13l-37.54-3.7,6.12-62-15.56-1.54-6.12,62-37.54-3.71L1077.12,1502l37.53,3.7-6.62,67.07,15.57,1.53,6.62-67.06,37.53,3.71Z"/><path class="cls-1" d="M1030.63,1560.74l16.06,99.75-38.19-5.88-7.13-53.46L978.5,1650,948,1645.3l45.32-90.3,9.86-64.1,37.29,5.74Z"/><path class="cls-1" d="M776.77,1606.25,740.53,1595l12.6-90.25-.87-.27-39.47,82.15-31-9.62,78.54-145.15,34,10.57Z"/><path class="cls-1" d="M668.72,1571.56l-35.42-13,55.32-151.19,35.43,13Z"/><path class="cls-1" d="M617.49,1553.11l-48.24-20.56c-24.33-10.37-30.32-27.42-19.58-52.6L581,1406.54c10.73-25.18,27.08-32.46,51.42-22.09L680.61,1405Zm9.09-138.63c-5.51-2.35-7.86-.35-10.2,5.15l-32.83,77c-1.8,4.23-3,8.22,3.35,10.92l7.61,3.25,39.68-93.09Z"/><path class="cls-1" d="M516.38,1509.06l-68.71-35.36,13.68-26.59,35.18,18.1,15.26-29.65L484,1421.25l13.68-26.59L525.47,1409l17.37-33.74-35.18-18.11,13.69-26.58,68.71,35.36Z"/><path class="cls-1" d="M494.18,1365l-40.11,64.71c-13.57,21.89-39.52,26.64-61.8,12.83s-29.18-38.93-14.88-62l40.47-65.29c13.33-21.5,38.92-25.67,61.2-11.85C505.84,1320,508.48,1341.89,494.18,1365Zm-42.44-32.8-45.08,72.71c-2.42,3.91-2.89,9,1.8,11.94s9.07.21,11.49-3.7L465,1340.4c2.67-4.31,2.9-9-1.8-11.94S454.41,1327.85,451.74,1332.16Z"/><path class="cls-1" d="M408.81,1309.62l-45.41,59.09c-19.2,25-42.72,25.76-64.79,8.8-18.24-14-22.68-39.18-6-60.88l6.45-8.39,27.35,21-9.53,12.4c-3.08,4-4,8.56.6,12.06,4.19,3.23,8.72,1.49,11.8-2.53l52.14-67.84c3.08-4,4-8.56-.41-11.92-4.56-3.5-8.91-1.62-12,2.39l-15.56,20.24,6.75,5.19-15,19.51-35.2-27,53.26-69.3,13.5,10.37-5.26,12.5c17.5-5.41,28.53,3.65,34,7.85C425.21,1268.27,424.36,1289.37,408.81,1309.62Z"/><path class="cls-1" d="M246.05,1333.85l-34.83-34.13c-20.21-19.8-20.9-40.45-1.59-60.16l4.35-4.44c11.91-12.16,26-17.67,40.9-8.87l.32-.33c-9.74-14.05-3-27.46,8.86-40.59l17.21-18.88c4.51-4.92,7.39-9.18,8.82-12.61l1.13-1.15L318,1178.93c-1.26,3.92-5.11,9.16-10.58,15.07l-18.66,20.36c-5.79,6.24-6.24,10.31,1.65,18l1.15,1.13,40.24-41.07,26.94,26.4Zm19-84.45c-4.6-4.5-8.16-2.84-12.18,1.27l-17.23,17.57c-3.86,4-5.44,8.19-1.17,12.38l5.58,5.47,30.59-31.21Z"/><path class="cls-1" d="M228.42,1115.36,245.94,1139l24.87-12.4,19,25.7L141.4,1222.4l-27-36.42L225,1064.69l22.58,30.5Zm-21.86,23.05-36.49,38.45,47.44-23.67Z"/><path class="cls-1" d="M79.1,1132.1l-19.37-40.71C45,1060.45,54.32,1042,84,1027.88l2.08-1c27.21-12.94,51.32-9.38,63.86,17l4.94,10.38,53.38-25.39,16.21,34.06Zm45.05-72.88c-2-4.15-5.46-5-9.61-3.07l-24.3,11.56c-4.57,2.18-6.18,5.23-4.1,9.59l3.75,7.9,38-18.08Z"/><path class="cls-1" d="M27.37,1014.86l-8.73-36.7,60.64-14.42-3.62-15.21L15,962.94,6.3,926.25,162.92,889l8.73,36.7-65.56,15.59,3.62,15.21,65.56-15.58L184,977.61Z"/><path class="cls-1" d="M98,861.21,2.75,894.9,1.69,856.27,53,839.67.85,825.92,0,795.11,97,823.5l64.84-1.79,1,37.71Z"/></g></g></svg>