<svg xmlns="http://www.w3.org/2000/svg" viewBox="0 0 2628.83 1678.25"><defs><style>.cls-1{fill:#e1ded5;}</style></defs><g id="Layer_2" data-name="Layer 2"><g id="Layer_1-2" data-name="Layer 1"><path class="cls-1" d="M54.61,588.68,82,543.15l60.09,20.57.36-.59-48-40.67,30.11-50.07,138,83L243.43,587.1l-102.1-61.4-.35.59,90.6,80.52-12,19.91L106.13,584.24l-.35.59,102.09,61.4-15.29,25.42Z"/><path class="cls-1" d="M234.77,525.4l-56.34-51.21c-19.06-17.33-19-43.71-1.38-63.11s43.59-21.62,63.67-3.36l56.85,51.67c18.72,17,18.16,42.93.52,62.34C276.9,545,254.85,543.65,234.77,525.4Zm40-35.78-63.32-57.55c-3.4-3.09-8.35-4.49-12.06-.4s-1.86,8.88,1.54,12l63.32,57.56c3.74,3.4,8.35,4.48,12.06.4S278.49,493,274.75,489.62Z"/><path class="cls-1" d="M264.63,368.59l-19.76,16.88-19.42-22.73,68.19-58.27,19.43,22.73-19.76,16.89,85.16,99.66-28.67,24.5Z"/><path class="cls-1" d="M310.52,292.63l30.58-22.08,94.25,130.52-30.58,22.09Z"/><path class="cls-1" d="M418.71,359.4l-39.95-64.81c-13.52-21.92-6.17-47.26,16.15-61s47.86-8.7,62.1,14.4l40.32,65.39c13.27,21.54,5.56,46.29-16.76,60.05C453.75,389.94,433,382.5,418.71,359.4ZM467,336.1l-44.9-72.84c-2.41-3.91-6.79-6.62-11.49-3.72s-4.24,8-1.82,11.93l44.89,72.83c2.66,4.31,6.79,6.63,11.49,3.73S469.68,340.4,467,336.1Z"/><path class="cls-1" d="M453,200.79l28.38-14.22,64,56.42.41-.2-35.65-70.64,26.74-13.39,72.12,144-25.91,13-66.91-56-.41.21,35.85,71.56-26.53,13.29Z"/><path class="cls-1" d="M635.55,246.29l-26.34-69.71c-11.14-29.47.58-49.88,26.61-59.72,21.51-8.13,45.25,1.34,54.93,26.94l3.74,9.9-32.27,12.2-5.53-14.63c-1.79-4.74-5.19-7.88-10.57-5.85-5,1.87-5.85,6.64-4.06,11.37l30.24,80c1.79,4.73,5.19,7.87,10.35,5.92,5.38-2,6.07-6.72,4.28-11.45l-9-23.88-8,3-8.7-23,41.52-15.69,30.89,81.75-15.92,6-7.86-11.05c-4.61,17.73-18.11,22.34-24.57,24.78C662.08,282,644.58,270.17,635.55,246.29Z"/><path class="cls-1" d="M694.44,96.84l46.65-14.19c27.07-8.22,45.52,1.07,53.55,27.48l1.81,5.94c4.95,16.29,3,31.3-11.84,40.14l.13.44c17-1.8,25.55,10.5,31.36,27.25l8.31,24.16c2.16,6.31,4.51,10.89,6.83,13.79l.47,1.54-35.87,10.9c-2.83-3-5.58-8.88-8.14-16.51l-8.91-26.14c-2.7-8.08-6-10.43-16.62-7.21l-1.54.46,16.73,55-36.09,11Zm65,57.17c6.16-1.87,6.41-5.79,4.74-11.3L757,119.17c-1.6-5.28-4.57-8.71-10.29-7l-7.48,2.27,12.71,41.82Z"/><path class="cls-1" d="M894.61,180.28,865.94,187l1.51,27.75L836.32,222l-5.44-164L875,47.64l67.48,149.58-37,8.62Zm-12.48-29.21-20.82-48.75,2.9,52.93Z"/><path class="cls-1" d="M922.34,37.42l44.44-7.53c33.79-5.73,49,8.26,54.49,40.69l.38,2.27c5,29.71-5,51.93-33.76,56.81l-11.34,1.92,9.87,58.28-37.19,6.3Zm57.83,63.22c4.54-.77,6.34-3.88,5.58-8.41l-4.5-26.53c-.85-5-3.35-7.37-8.11-6.56l-8.62,1.46,7,41.5Z"/><path class="cls-1" d="M1030.11,19.68l37.47-4.28,7.07,61.93,15.54-1.77-7.07-61.93,37.48-4.27,18.24,160-37.47,4.27-7.64-66.95-15.54,1.77,7.64,67-37.48,4.28Z"/><path class="cls-1" d="M1135.88,8.43l37.61-2.83,12.07,160.55L1148,169Z"/><path class="cls-1" d="M1193,120.83l-2.74-71.25C1189,17.87,1207.5,2.19,1232.33,1.24c28-1.08,43.71,17.65,44.76,44.77l.33,8.74L1243.87,56l-.57-14.71c-.2-5.29-2.22-10-8.2-9.82-6.21.24-7.62,5.36-7.43,10.42l3.2,83.2c.2,5.05,2,10.05,7.75,9.82,6.2-.23,8.09-4.91,7.88-10.43l-.54-14,33.56-1.28.34,9c1,26.43-12.75,45.6-39.87,46.64C1210.12,166,1194.2,153,1193,120.83Z"/><path class="cls-1" d="M1290.59,120.33l.11-11.27,35.88.34-.16,16.33c-.06,5.75,2.67,9.23,7.73,9.28s6.71-3.85,6.77-10.06c.08-8.28-3.79-12.69-10.63-19.19L1315.7,92.05C1305.21,82.28,1291.76,69.51,1292,44V42.83C1292.28,15,1311.75-.23,1335.9,0c25.76.25,41,15.35,40.75,44.32l-.1,10.81-33.81-.32.14-15.18c.08-8.51-3.34-11.07-7.71-11.11-4.6-.05-7.85,2.68-7.93,11-.09,9.66,8.81,16.65,14.74,22.22l15,14.87c5.47,5.34,20,21.58,19.85,40.9l0,2.53c-.25,26-14.91,43.79-43.66,43.52C1316.86,163.36,1290.23,157.59,1290.59,120.33Z"/><path class="cls-1" d="M1517.59,9.58l52.69,6.84,5.24,63.3.69.09,18-60.28L1652.17,27,1631.46,186.7l-36.73-4.76,15.33-118.15-.69-.09L1571.92,179l-23-3-6.57-121-.69-.09-15.32,118.15-29.43-3.81Z"/><path class="cls-1" d="M1647.59,146.51l14.84-74.67c5-25.27,27.64-38.83,53.36-33.72s41,26.2,35.7,52.82l-15,75.35c-4.93,24.81-27.42,37.7-53.14,32.59C1652.48,192.74,1642.3,173.13,1647.59,146.51Zm51.26,15.81,16.67-83.92c.9-4.51-.46-9.47-5.87-10.54s-8.57,3-9.47,7.5l-16.67,83.91c-1,5,.47,9.47,5.88,10.55S1697.87,167.28,1698.85,162.32Z"/><path class="cls-1" d="M1791.74,87.18l-25.17-6.49L1774,51.74l86.86,22.39-7.47,29-25.17-6.49-32.72,127L1759,214.13Z"/><path class="cls-1" d="M1876.24,79.05l36.06,11.06L1865.1,244,1829,233Z"/><path class="cls-1" d="M1888.15,205.69,1914,134.08c8.74-24.24,33.13-34.27,57.8-25.38s36.62,32,27.41,57.56l-26,72.27c-8.58,23.8-32.74,33.18-57.41,24.29C1886.08,252.13,1878.94,231.23,1888.15,205.69ZM1936.47,229l29-80.49c1.56-4.33,1-9.43-4.23-11.3s-8.92,1.67-10.48,6l-29,80.49c-1.72,4.76-1,9.43,4.24,11.3S1934.76,233.74,1936.47,229Z"/><path class="cls-1" d="M2031.94,132.73l29,12.9L2058,230.91l.42.19,31.94-72.39,27.32,12.15L2052.28,318l-26.49-11.78.79-87.24-.42-.19-32.52,73.14-27.11-12.06Z"/><path class="cls-1" d="M2112.8,302.5l37.8-64.22c16-27.15,39.22-30.82,63.21-16.7,19.82,11.66,27.32,36.1,13.44,59.68l-5.37,9.12-29.73-17.5,7.93-13.48c2.57-4.36,2.88-9-2.07-11.89-4.56-2.69-8.84-.4-11.41,4l-43.4,73.73c-2.56,4.36-2.88,9,1.88,11.78,5,2.92,9,.52,11.6-3.84l13-22-7.33-4.32,12.48-21.21L2213,308.13l-44.34,75.32L2154,374.81l3.68-13c-16.7,7.51-28.76-.12-34.7-3.62C2101.6,345.55,2099.85,324.5,2112.8,302.5Z"/><path class="cls-1" d="M2269.33,256.88l39.42,28.7c22.87,16.66,26.56,37,10.31,59.3l-3.65,5c-10,13.76-23.17,21.26-39.18,14.72l-.27.37c11.68,12.49,7,26.72-2.86,41.45l-14.29,21.17c-3.74,5.53-6,10.16-6.89,13.77l-1,1.3-30.3-22.07c.68-4.06,3.72-9.81,8.28-16.45l15.5-22.85c4.82-7,4.67-11.11-4.25-17.61l-1.3-.95-33.85,46.49L2174.56,387Zm-6.51,86.31c5.21,3.79,8.49,1.62,11.87-3l14.49-19.9c3.25-4.46,4.2-8.89-.64-12.41l-6.32-4.6-25.72,35.32Z"/><path class="cls-1" d="M2320.33,469.32l-21.43-20.18-22.28,16.62-23.28-21.92L2387,348.54l33,31.06-87.26,139-27.63-26Zm17.43-26.56,29.09-44.31-42.49,31.7Z"/><path class="cls-1" d="M2461.75,422.39l27.7,35.56c21.06,27,16,47.05-10,67.26l-1.81,1.42c-23.77,18.52-48.07,20.25-66-2.79l-7.07-9.07-46.63,36.33-23.18-29.76Zm-28.24,80.9c2.83,3.62,6.42,3.74,10,.92l21.23-16.54c4-3.11,4.89-6.44,1.92-10.25l-5.37-6.9-33.2,25.87Z"/><path class="cls-1" d="M2535.87,521.67,2553.55,555l-55.06,29.22,7.33,13.81,55.06-29.21,17.68,33.32-142.22,75.46-17.68-33.32,59.53-31.59-7.33-13.81-59.53,31.58-17.68-33.32Z"/><path class="cls-1" d="M2588.41,629.19,2601,664.75,2449.2,718.43l-12.58-35.56Z"/><path class="cls-1" d="M2496,714.25l70.11-13c31.21-5.78,49.38,10.28,53.9,34.7,5.11,27.59-11.17,45.81-37.86,50.75l-8.59,1.59-6.11-33,14.47-2.68c5.2-1,9.62-3.65,8.53-9.53-1.13-6.11-6.4-6.77-11.37-5.85l-81.87,15.15c-5,.92-9.66,3.43-8.62,9.08,1.13,6.11,6,7.31,11.46,6.3l13.8-2.55,6.11,33-8.82,1.63c-26,4.81-47-6-51.91-32.73C2453.75,737.74,2464.29,720.11,2496,714.25Z"/><path class="cls-1" d="M2509.66,811.58l11.26.39-1.25,35.86-16.32-.57c-5.75-.2-9.29,2.44-9.47,7.5s3.68,6.8,9.88,7c8.28.29,12.78-3.46,19.46-10.13l14.07-14.24c10-10.24,23.14-23.36,48.66-22.47l1.14,0c27.82,1,42.55,20.81,41.7,44.95-.89,25.74-16.37,40.62-45.33,39.61l-10.81-.37,1.18-33.79,15.17.53c8.51.29,11.16-3.07,11.31-7.44.16-4.59-2.49-7.91-10.76-8.2-9.66-.33-16.87,8.39-22.59,14.18l-15.24,14.65c-5.48,5.34-22.08,19.49-41.39,18.81l-2.53-.08c-26-.91-43.4-16-42.39-44.75C2466,836.75,2472.42,810.28,2509.66,811.58Z"/><path class="cls-1" d="M2578.2,1081.44l-26.78,45.88-60.36-19.79-.35.59,48.53,40.06-29.46,50.45-139-81.18,18.67-32,102.88,60.07.35-.59L2401,1065.61l11.72-20.06,114,41,.34-.6-102.88-60.07,15-25.62Z"/><path class="cls-1" d="M2398.81,1147.06l56.86,50.63c19.24,17.13,19.46,43.51,2,63.09s-43.36,22.06-63.62,4l-57.37-51.08c-18.9-16.83-18.61-42.75-1.17-62.33C2356.48,1127.85,2378.54,1129,2398.81,1147.06Zm-39.61,36.18,63.9,56.9c3.44,3.06,8.4,4.4,12.07.28s1.77-8.9-1.67-12l-63.9-56.9c-3.77-3.36-8.39-4.4-12.07-.28S2355.42,1179.88,2359.2,1183.24Z"/><path class="cls-1" d="M2370.42,1304.23l19.61-17.06,19.62,22.57L2342,1368.59,2322.34,1346l19.61-17-86-98.94,28.47-24.75Z"/><path class="cls-1" d="M2325.08,1380.61l-30.41,22.32-95.23-129.81,30.41-22.31Z"/><path class="cls-1" d="M2216.37,1314.7l40.38,64.53c13.67,21.84,6.49,47.22-15.74,61.13s-47.81,9-62.2-14l-40.75-65.12c-13.43-21.45-5.88-46.25,16.35-60.16C2181.12,1284.39,2202,1291.69,2216.37,1314.7Zm-48.17,23.62,45.39,72.53c2.44,3.9,6.83,6.58,11.51,3.65s4.19-8,1.75-11.94L2181.46,1330c-2.68-4.29-6.83-6.58-11.51-3.65S2165.52,1334,2168.2,1338.32Z"/><path class="cls-1" d="M2183,1473.56l-28.29,14.38-64.36-56-.41.21,36.06,70.43-26.65,13.54-73-143.52,25.84-13.13L2119.5,1415l.41-.21-36.27-71.35,26.45-13.45Z"/><path class="cls-1" d="M2000.23,1429.1l26.69,69.58c11.29,29.42-.33,49.89-26.31,59.86-21.48,8.23-45.26-1.12-55.07-26.68l-3.78-9.87,32.21-12.36,5.6,14.6c1.81,4.73,5.23,7.85,10.6,5.79,4.94-1.89,5.81-6.66,4-11.39l-30.64-79.89c-1.81-4.72-5.23-7.84-10.38-5.87-5.37,2.06-6,6.75-4.22,11.48l9.14,23.83,8-3,8.81,23-41.45,15.9-31.3-81.6,15.9-6.1,7.91,11c4.53-17.75,18-22.43,24.45-24.9C1973.53,1393.52,1991.09,1405.27,2000.23,1429.1Z"/><path class="cls-1" d="M1942,1578.86l-46.59,14.4c-27,8.35-45.52-.86-53.67-27.23l-1.83-5.94c-5-16.26-3.17-31.28,11.65-40.19l-.13-.44c-17,1.88-25.6-10.39-31.49-27.1l-8.41-24.13c-2.19-6.3-4.57-10.86-6.9-13.75l-.48-1.54,35.82-11.07c2.85,3,5.63,8.86,8.22,16.48l9,26.1c2.73,8.06,6.1,10.39,16.65,7.13l1.54-.47-17-54.94,36-11.14ZM1876.8,1522c-6.15,1.9-6.38,5.83-4.69,11.32l7.27,23.52c1.63,5.27,4.61,8.68,10.32,6.92l7.47-2.31-12.9-41.76Z"/><path class="cls-1" d="M1741.47,1496.31l28.64-6.81-1.63-27.74,31.11-7.4,6.13,164-44.09,10.47-68.11-149.3,36.92-8.77Zm12.61,29.16,21,48.66-3.12-52.92Z"/><path class="cls-1" d="M1714.31,1639.28l-44.42,7.7c-33.76,5.86-49-8.07-54.64-40.47l-.39-2.27c-5.15-29.69,4.76-52,33.54-56.94l11.33-2-10.1-58.24,37.16-6.45Zm-58.08-63c-4.53.78-6.33,3.9-5.54,8.43l4.6,26.51c.86,5,3.37,7.35,8.13,6.53l8.61-1.5-7.19-41.46Z"/><path class="cls-1" d="M1606.58,1657.46l-37.46,4.42-7.3-61.9-15.53,1.83,7.3,61.9-37.46,4.42-18.85-159.9,37.46-4.41,7.89,66.92,15.53-1.83-7.89-66.93,37.46-4.41Z"/><path class="cls-1" d="M1500.88,1669.1l-37.6,3-12.67-160.5,37.6-3Z"/><path class="cls-1" d="M1443.35,1556.92l3,71.23c1.34,31.72-17.11,47.46-41.93,48.5-28,1.18-43.78-17.49-44.92-44.61l-.37-8.73,33.55-1.41.62,14.7c.22,5.29,2.26,10,8.24,9.78,6.2-.26,7.6-5.38,7.38-10.44l-3.5-83.18c-.21-5.06-2-10-7.78-9.8-6.2.26-8.08,4.94-7.84,10.46l.59,14-33.55,1.42-.38-9c-1.11-26.42,12.58-45.65,39.7-46.79C1426,1511.83,1442,1524.74,1443.35,1556.92Z"/><path class="cls-1" d="M1345.55,1557.92l-.1,11.27-35.88-.34.15-16.33c.06-5.75-2.67-9.23-7.73-9.28s-6.71,3.85-6.77,10.06c-.08,8.28,3.79,12.69,10.63,19.19l14.59,13.71c10.49,9.76,23.94,22.54,23.69,48.07v1.15c-.26,27.83-19.73,43.06-43.88,42.82-25.76-.24-41-15.34-40.75-44.32l.1-10.81,33.81.33-.14,15.18c-.08,8.51,3.34,11.07,7.71,11.11,4.6,0,7.85-2.69,7.93-11,.09-9.66-8.81-16.64-14.74-22.22l-15-14.86c-5.47-5.35-20-21.59-19.85-40.9l0-2.54c.25-26,14.91-43.79,43.66-43.51C1319.28,1514.89,1345.91,1520.66,1345.55,1557.92Z"/><path class="cls-1" d="M1119.19,1669.33l-52.72-6.63-5.48-63.28-.68-.09-17.8,60.35-58-7.29,20.1-159.74,36.74,4.62-14.87,118.21.68.09,37-115.42,23,2.9,7,121,.68.08,14.88-118.2,29.44,3.7Z"/><path class="cls-1" d="M988.66,1532.91l-14.53,74.73c-4.92,25.29-27.49,38.94-53.23,33.93s-41.09-26-35.91-52.67l14.66-75.41c4.83-24.83,27.27-37.81,53-32.8C983.58,1486.7,993.84,1506.27,988.66,1532.91Zm-51.33-15.6-16.33,84c-.87,4.52.5,9.47,5.92,10.53s8.56-3,9.43-7.54l16.34-84c1-5-.51-9.47-5.92-10.52S938.3,1512.34,937.33,1517.31Z"/><path class="cls-1" d="M844.75,1592.83l25.2,6.39-7.34,29-87-22,7.34-29,25.2,6.38,32.19-127.08,36.56,9.26Z"/><path class="cls-1" d="M760.34,1601.34l-36.11-10.89,46.49-154.14,36.12,10.89Z"/><path class="cls-1" d="M747.86,1474.75l-25.47,71.75c-8.62,24.27-33,34.42-57.67,25.65s-36.78-31.84-27.7-57.42l25.69-72.4c8.47-23.84,32.58-33.34,57.29-24.57C749.7,1428.3,756.93,1449.17,747.86,1474.75Zm-48.44-23-28.62,80.63c-1.54,4.34-.91,9.44,4.29,11.29s8.91-1.72,10.45-6.06l28.62-80.63c1.69-4.77.91-9.44-4.3-11.28S701.11,1446.93,699.42,1451.7Z"/><path class="cls-1" d="M604.47,1548.44,575.4,1535.7l2.47-85.3-.42-.19-31.54,72.56-27.39-12,64.62-147.46,26.54,11.63-.31,87.25.42.19,32.13-73.31,27.17,11.9Z"/><path class="cls-1" d="M522.7,1379.12l-37.39,64.47c-15.8,27.25-39,31.07-63.1,17.11-19.89-11.54-27.55-35.92-13.82-59.6l5.31-9.15,29.84,17.31-7.85,13.53c-2.53,4.37-2.82,9,2.15,11.88,4.58,2.65,8.84.34,11.38-4l42.93-74c2.54-4.38,2.82-9-1.95-11.77-5-2.88-9-.45-11.58,3.92l-12.81,22.09,7.36,4.27-12.34,21.29-38.4-22.27,43.84-75.61,14.73,8.54-3.6,13.07c16.66-7.62,28.76-.07,34.73,3.39C533.62,1336,535.51,1357,522.7,1379.12Z"/><path class="cls-1" d="M366.56,1425.82l-39.63-28.4c-23-16.49-26.84-36.79-10.76-59.22l3.62-5c9.92-13.83,23-21.43,39.06-15l.27-.37c-11.77-12.4-7.2-26.67,2.56-41.47L375.8,1255c3.7-5.56,5.9-10.21,6.79-13.82l.94-1.3L414,1261.74c-.65,4.06-3.65,9.83-8.16,16.51l-15.33,23c-4.77,7-4.59,11.14,4.38,17.57l1.31.94L429.7,1273l30.66,22Zm5.87-86.35c-5.24-3.75-8.5-1.56-11.85,3.11l-14.34,20c-3.22,4.49-4.13,8.93.73,12.41l6.35,4.56L378.78,1344Z"/><path class="cls-1" d="M313.89,1213.84l21.61,20L357.63,1217l23.48,21.7-132.78,96.52-33.27-30.76,86-139.77,27.86,25.76Zm-17.18,26.72L268,1285.14l42.2-32.09Z"/><path class="cls-1" d="M173.06,1262.28,145,1227c-21.37-26.8-16.49-46.87,9.23-67.37l1.8-1.44c23.56-18.78,47.84-20.79,66,2l7.17,9,46.22-36.86,23.52,29.5Zm27.33-81.21c-2.87-3.6-6.46-3.67-10.06-.81l-21,16.78c-4,3.15-4.83,6.49-1.82,10.27l5.45,6.84,32.91-26.25Z"/><path class="cls-1" d="M97.93,1164.05,79.81,1131l54.66-30L127,1087.31l-54.67,30-18.12-33.08,141.19-77.37,18.13,33.08-59.1,32.38L161.9,1086l59.1-32.38,18.13,33.08Z"/><path class="cls-1" d="M44,1057.46,30.89,1022.1l151-56L195,1001.51Z"/><path class="cls-1" d="M135.18,971l-69.9,14.1c-31.11,6.28-49.54-9.48-54.45-33.83-5.55-27.51,10.43-46,37-51.35l8.57-1.73,6.64,32.92L48.64,934c-5.18,1.05-9.55,3.8-8.37,9.67,1.23,6.08,6.51,6.66,11.47,5.66l81.61-16.47c5-1,9.61-3.58,8.47-9.21-1.23-6.09-6.15-7.21-11.56-6.12l-13.75,2.78-6.64-32.92,8.79-1.77c25.93-5.23,47.06,5.29,52.42,31.89C177,946.86,166.74,964.65,135.18,971Z"/><path class="cls-1" d="M119.51,874.09l-11.27-.31,1-35.87,16.33.45c5.75.16,9.27-2.51,9.41-7.57s-3.72-6.77-9.93-6.94c-8.28-.23-12.75,3.56-19.38,10.28l-14,14.34c-10,10.31-23,23.52-48.49,22.82l-1.15,0c-27.82-.77-42.7-20.51-42-44.65.71-25.75,16.08-40.74,45.05-39.94l10.81.29L55,820.76l-15.18-.42c-8.51-.23-11.13,3.15-11.25,7.52-.13,4.59,2.54,7.89,10.82,8.12,9.66.26,16.8-8.51,22.48-14.34L77,806.87c5.44-5.37,21.94-19.64,41.25-19.11l2.53.07c26,.72,43.52,15.7,42.72,44.44C163,848.6,156.76,875.11,119.51,874.09Z"/></g></g></svg>