<svg xmlns="http://www.w3.org/2000/svg" viewBox="0 0 2629.21 1677.63"><defs><style>.cls-1{fill:#e1ded5;}</style></defs><g id="Layer_2" data-name="Layer 2"><g id="Layer_1-2" data-name="Layer 1"><path class="cls-1" d="M159.86,651.91,150,646.54,167.05,615l14.36,7.78c5.05,2.74,9.4,2,11.81-2.49s-.26-7.73-5.72-10.69c-7.28-3.94-13-2.59-21.93.41l-18.95,6.48c-13.53,4.69-31.12,10.6-53.57-1.57l-1-.55c-24.46-13.26-28.8-37.59-17.3-58.82C87,532.9,107.51,526.48,133,540.29l9.51,5.15-16.11,29.72L113,567.93c-7.48-4.06-11.35-2.23-13.43,1.61-2.19,4.05-1.3,8.19,6,12.14,8.49,4.6,18.83,0,26.53-2.62l20.18-6.33c7.28-2.34,28.45-7.6,45.44,1.6l2.22,1.21c22.85,12.38,31.72,33.67,18,59C210.18,648.84,192.62,669.67,159.86,651.91Z"/><path class="cls-1" d="M207.57,563.28,147.87,516c-20.2-16-22-42.3-5.68-62.86s42-24.54,63.29-7.7l60.23,47.68c19.84,15.7,21.05,41.59,4.78,62.15C250.94,580,228.85,580.12,207.57,563.28ZM245,524.86l-67.09-53.09c-3.61-2.86-8.64-3.91-12.07.42s-1.24,9,2.36,11.84l67.09,53.1c4,3.14,8.64,3.9,12.07-.43S249,528,245,524.86Z"/><path class="cls-1" d="M273.05,480.6l-49-51.77c-21.82-23.05-18.24-47-.2-64.11,20.37-19.29,44.51-15.54,63.17,4.16l6,6.35-24.38,23.09L258.5,387.63c-3.64-3.84-8.3-6.08-12.64-2-4.51,4.27-2.2,9,1.28,12.73l57.25,60.45c3.48,3.68,8.13,6.24,12.3,2.29,4.51-4.27,2.85-9-.94-13L306.1,437.9l24.38-23.09,6.17,6.52c18.19,19.2,20.47,42.69.77,61.35C315.71,503.24,295.19,504,273.05,480.6Z"/><path class="cls-1" d="M275.36,321,305,297.59,404.73,424l-29.6,23.37Z"/><path class="cls-1" d="M451.39,358.41l-24.62,16.14,11,25.53L411,417.61,349.46,265.44l37.9-24.84L502.17,357.84l-31.74,20.81Zm-21.77-23.14L393.3,296.65l20.93,48.71Z"/><path class="cls-1" d="M434.73,211.9l33.34-17.64,61.31,115.88,35-18.5,14,26.43L510,354.21Z"/><path class="cls-1" d="M563.89,147.57l71.59-29.09,11.26,27.7-36.65,14.89L622.64,192l29-11.78,11.26,27.7-29,11.78,25.55,62.85-35,14.21Z"/><path class="cls-1" d="M653.88,112.05l35.6-12.49,53.31,151.91L707.19,264Z"/><path class="cls-1" d="M708,92.86,754.79,79c27.13-8,45.51,1.43,53.33,27.9l1.76,6c4.83,16.32,2.78,31.32-12.15,40.05l.13.44c17-1.67,25.47,10.7,31.15,27.49l8.11,24.22c2.11,6.34,4.43,10.93,6.73,13.85l.46,1.54-36,10.62c-2.81-3-5.51-8.92-8-16.58l-8.71-26.21c-2.63-8.09-6-10.46-16.55-7.34l-1.55.46,16.29,55.15-36.17,10.68Zm64.53,57.68c6.17-1.83,6.46-5.75,4.83-11.26l-7-23.6c-1.56-5.3-4.5-8.74-10.23-7.05l-7.5,2.22,12.38,41.91Z"/><path class="cls-1" d="M842.8,178.29l-2.54-11,35-8.06,3.67,15.91c1.29,5.61,4.76,8.35,9.69,7.21s5.62-5.31,4.22-11.36c-1.86-8.07-6.65-11.45-14.82-16.17l-17.4-9.92c-12.48-7-28.54-16.31-34.28-41.19l-.26-1.12c-6.26-27.12,9.11-46.48,32.64-51.9,25.1-5.79,43.48,5.31,50,33.55l2.43,10.53-33,7.6-3.41-14.79c-1.91-8.29-5.84-10-10.1-9-4.48,1-7,4.45-5.14,12.52,2.17,9.41,12.46,14.12,19.53,18.15l18.1,10.93c6.57,3.92,24.53,16.3,28.88,35.12l.56,2.47c5.85,25.33-4.24,46.06-32.26,52.53C878.41,214,851.17,214.59,842.8,178.29Z"/><path class="cls-1" d="M946.94,64.07l-25.61,4.44-5.12-29.46,88.38-15.34,5.12,29.46L984.1,57.61l22.43,129.17-37.16,6.45Z"/><path class="cls-1" d="M1202.71,123.58l-.39-11.26,35.86-1.23.56,16.32c.2,5.75,3.07,9.1,8.13,8.93s6.53-4.13,6.32-10.34c-.28-8.28-4.34-12.51-11.46-18.71l-15.17-13.06c-10.9-9.29-24.9-21.47-25.77-47l0-1.15c-1-27.82,17.83-43.88,42-44.7,25.74-.88,41.65,13.53,42.64,42.5l.37,10.8-33.79,1.15-.52-15.17c-.29-8.5-3.82-10.91-8.19-10.76-4.6.15-7.72,3-7.44,11.3.33,9.65,9.53,16.24,15.7,21.55L1267.16,77c5.7,5.1,21,20.69,21.62,40l.09,2.53c.88,26-13,44.39-41.72,45.38C1230.83,165.43,1204,160.82,1202.71,123.58Z"/><path class="cls-1" d="M1302.64,118.85l1.23-76.12C1304.29,17,1324.12-.42,1350.34,0s45,18.44,44.58,45.57l-1.25,76.81c-.41,25.3-20.23,42-46.45,41.58C1315.72,163.46,1302.2,146,1302.64,118.85Zm53.26,6.38,1.39-85.54c.07-4.6-2.15-9.24-7.67-9.33s-7.9,4.47-8,9.07L1340.27,125c-.09,5.06,2.15,9.23,7.67,9.32S1355.82,130.29,1355.9,125.23Z"/><path class="cls-1" d="M1407.59,119.56l4.79-71.14c2.14-31.66,22.19-45.3,47-43.63C1487.35,6.68,1501,27,1499.14,54l-.59,8.72-33.5-2.26,1-14.68c.36-5.28-1.15-10.22-7.12-10.62-6.2-.42-8.14,4.52-8.48,9.57l-5.6,83.07c-.34,5,.92,10.2,6.66,10.59,6.19.42,8.57-4,8.94-9.54l.94-14,33.51,2.26-.61,8.95c-1.78,26.39-17.49,44-44.56,42.18C1419.88,166.26,1405.42,151.69,1407.59,119.56Z"/><path class="cls-1" d="M1520.37,11.11l37.51,4-17.05,160.1-37.51-4Z"/><path class="cls-1" d="M1620.9,158.65l-29.11-4.43-8.89,26.33-31.61-4.81,55.84-154.36,44.8,6.82,7.14,164-37.52-5.71Zm-.75-31.76-1.24-53-17,50.23Z"/><path class="cls-1" d="M1702.19,36.86l36.9,7.83-27.2,128.24,38.7,8.21-6.21,29.25-75.59-16Z"/><path class="cls-1" d="M1840.08,68.57l74.12,21.87-8.46,28.68-37.94-11.2-9.44,32,30,8.85-8.46,28.68-30-8.85-19.19,65.08L1794.53,223Z"/><path class="cls-1" d="M1932.28,96.68,1967.94,109l-52.47,152.21-35.66-12.3Z"/><path class="cls-1" d="M1987,115.31l45.18,18.33c26.22,10.64,34.71,29.48,24.33,55.05l-2.34,5.75c-6.4,15.77-17.34,26.23-34.46,23.75l-.17.43c14.35,9.29,13.25,24.24,7.23,40.91l-8.75,24c-2.29,6.26-3.34,11.3-3.36,15l-.61,1.5-34.74-14.1c-.32-4.1,1.25-10.42,4.06-18l9.53-25.92c3-8,1.85-11.91-8.38-16.06l-1.49-.61-21.62,53.28-35-14.18Zm14.52,85.32c6,2.42,8.63-.47,10.79-5.8l9.26-22.8c2.07-5.12,1.92-9.64-3.62-11.89l-7.24-2.94-16.43,40.49Z"/><path class="cls-1" d="M2039.21,266.12l5-10.09,32.13,16-7.27,14.62c-2.56,5.15-1.63,9.47,2.91,11.73s7.71-.54,10.47-6.1c3.69-7.41,2.14-13.06-1.18-21.9l-7.13-18.71c-5.17-13.36-11.69-30.73-.32-53.59l.51-1c12.39-24.92,36.55-30.12,58.18-19.36,23.06,11.47,30.2,31.72,17.3,57.67L2145,245,2114.74,230l6.76-13.59c3.79-7.62,1.83-11.42-2.09-13.37-4.11-2.05-8.23-1-11.91,6.4-4.31,8.65.65,18.83,3.55,26.43l7,19.94c2.59,7.2,8.6,28.17,0,45.47l-1.12,2.26c-11.58,23.28-32.54,32.89-58.28,20.08C2044.06,316.3,2022.62,299.48,2039.21,266.12Z"/><path class="cls-1" d="M2194.09,246l-22.24-13.46L2187.34,207l76.73,46.45L2248.59,279l-22.23-13.46-67.9,112.16-32.27-19.54Z"/><path class="cls-1" d="M2341.31,468.26l8.45-7.46,23.75,26.89-12.24,10.81c-4.31,3.81-5.07,8.16-1.72,11.95s7.34,2.42,12-1.69c6.21-5.48,6.89-11.31,7.15-20.74l.43-20c.24-14.32.74-32.87,19.87-49.77l.86-.76c20.86-18.42,45.2-14.14,61.19,4,17,19.31,16,40.75-5.68,59.94l-8.1,7.15-22.38-25.34,11.38-10.05c6.38-5.63,6-9.89,3.1-13.17-3-3.45-7.25-4-13.45,1.45-7.25,6.39-6.48,17.69-6.66,25.82l-1,21.12c-.31,7.64-2.64,29.33-17.12,42.12l-1.89,1.68c-19.48,17.2-42.52,18.22-61.56-3.33C2326.91,516.58,2313.38,492.93,2341.31,468.26Z"/><path class="cls-1" d="M2408.61,543.1,2473,502.54c21.8-13.72,47.2-6.61,61.17,15.58s9.15,47.78-13.82,62.23l-65,40.93c-21.41,13.48-46.23,6-60.2-16.19C2378.4,578.42,2385.64,557.56,2408.61,543.1Zm23.76,48.1,72.4-45.58c3.9-2.46,6.56-6.85,3.62-11.52s-8.06-4.17-11.95-1.72L2424,578c-4.29,2.7-6.56,6.85-3.62,11.52S2428.09,593.89,2432.37,591.2Z"/><path class="cls-1" d="M2465,632.7l66.53-25.64c29.62-11.42,50.43,1,59.37,24.2,10.09,26.18-2.56,47.08-27.89,56.84l-8.15,3.14-12.08-31.33,13.73-5.29c4.94-1.91,8.79-5.36,6.64-10.94-2.24-5.8-7.54-5.48-12.26-3.66L2473.23,670c-4.72,1.82-8.86,5.15-6.8,10.51,2.24,5.8,7.27,6.07,12.42,4.09l13.1-5L2504,710.85l-8.37,3.22c-24.68,9.51-47.27,2.69-57-22.63C2427.86,663.54,2435,644.28,2465,632.7Z"/><path class="cls-1" d="M2612.71,704.41l7.73,36.91-157.58,33-7.73-36.92Z"/><path class="cls-1" d="M2495.32,844.43l-.81-29.43L2467,810.93l-.89-32L2628,806.48l1.25,45.3L2469.14,888l-1-37.94Zm31.12-6.38,51.94-10.64-52.45-7.75Z"/><path class="cls-1" d="M2623.28,926.36l-8.27,36.8L2487.1,934.44,2478.43,973l-29.18-6.55,16.94-75.4Z"/><path class="cls-1" d="M2575.32,1083.88l-36.38,68.18L2512.56,1138l18.62-34.9-29.42-15.7L2487,1115l-26.37-14.08,14.72-27.6-59.86-31.94,17.76-33.28Z"/><path class="cls-1" d="M2522.71,1175.86,2501,1206.68l-131.55-92.81,21.74-30.83Z"/><path class="cls-1" d="M2484.49,1229.75l-32.68,36.19c-19,21-39.57,22.53-60,4l-4.61-4.16c-12.63-11.41-18.71-25.27-10.53-40.5l-.34-.31c-13.65,10.3-27.31,4.16-40.92-7.2l-19.56-16.43c-5.11-4.3-9.48-7-13-8.3l-1.2-1.07,25.13-27.83c4,1.1,9.36,4.74,15.49,10l21.1,17.82c6.47,5.53,10.55,5.81,17.95-2.38l1.08-1.2-42.67-38.54,25.28-28Zm-85.15-15.53c-4.31,4.78-2.51,8.27,1.76,12.12l18.27,16.5c4.09,3.7,8.4,5.11,12.41.67l5.24-5.81-32.44-29.29Z"/><path class="cls-1" d="M2324.26,1226.86l7.31,8.58-27.31,23.27-10.59-12.44c-3.73-4.37-8.07-5.21-11.92-1.93s-2.54,7.3,1.48,12c5.37,6.3,11.18,7.09,20.61,7.52l20,.79c14.31.49,32.85,1.32,49.4,20.76l.75.87c18,21.19,13.33,45.45-5.06,61.11-19.61,16.7-41,15.31-59.82-6.75l-7-8.23,25.73-21.92,9.85,11.56c5.52,6.47,9.78,6.16,13.11,3.33,3.5-3,4.16-7.17-1.21-13.47-6.26-7.36-17.56-6.8-25.69-7.12l-21.11-1.36c-7.63-.45-29.27-3.16-41.8-17.87l-1.64-1.93c-16.85-19.78-17.46-42.84,4.43-61.48C2276.21,1211.59,2300.1,1198.49,2324.26,1226.86Z"/><path class="cls-1" d="M2279.67,1377.66l21.45-14.68,16.88,24.67-74,50.66-16.89-24.67,21.45-14.68-74-108.19,31.13-21.3Z"/><path class="cls-1" d="M2017.83,1422.1l4.18,10.46-33.32,13.31-6.06-15.16c-2.13-5.34-6-7.52-10.67-5.65s-4.75,6.11-2.44,11.88c3.07,7.69,8.32,10.29,17.12,13.72l18.7,7.14c13.41,5,30.7,11.76,40.17,35.47l.43,1.06c10.32,25.85-1.9,47.33-24.33,56.28-23.92,9.56-43.78,1.39-54.53-25.52l-4-10,31.4-12.54,5.63,14.1c3.16,7.9,7.3,9,11.36,7.35,4.27-1.71,6.24-5.47,3.16-13.16-3.58-9-14.47-12-22.07-15l-19.55-8c-7.09-2.87-26.74-12.36-33.9-30.3l-.94-2.35c-9.64-24.14-2.84-46.17,23.86-56.84C1977.19,1392.27,2004,1387.5,2017.83,1422.1Z"/><path class="cls-1" d="M1925.27,1460.32l23.36,72.47c7.9,24.51-5.28,47.37-30.23,55.41s-48.56-3-56.89-28.79L1838,1486.29c-7.77-24.08,5.62-46.27,30.58-54.32C1898.52,1422.31,1917,1434.49,1925.27,1460.32Zm-52.48,11.12,26.25,81.44c1.41,4.38,5,8,10.26,6.35s6-6.77,4.62-11.15l-26.24-81.44c-1.56-4.82-5-8.05-10.27-6.36S1871.24,1466.62,1872.79,1471.44Z"/><path class="cls-1" d="M1825.62,1493.32l17.57,69.1c7.82,30.76-7,49.95-31.07,56.07-27.19,6.91-46.44-8.12-53.13-34.43l-2.15-8.47,32.54-8.27,3.63,14.26c1.3,5.13,4.27,9.36,10.07,7.88,6-1.53,6.33-6.83,5.08-11.73L1787.65,1497c-1.25-4.9-4.05-9.41-9.63-8-6,1.53-6.89,6.49-5.53,11.84l3.46,13.6-32.54,8.28-2.21-8.7c-6.52-25.63,2.93-47.26,29.23-53.94C1799.41,1452.76,1817.69,1462.11,1825.62,1493.32Z"/><path class="cls-1" d="M1751.53,1631.49l-36.93,7.68-32.81-157.62,36.92-7.69Z"/><path class="cls-1" d="M1610.62,1521.7l29.08-4.64.46-27.79,31.57-5-6.22,164-44.74,7.14-56.7-154,37.47-6Zm10.38,30,17.31,50.11.86-53Z"/><path class="cls-1" d="M1570.58,1662.41l-37.52,3.86-13.44-130.41-39.35,4.06-3.06-29.74,76.87-7.93Z"/><path class="cls-1" d="M1431,1674.66l-77.23,2.77-1.07-29.88,39.53-1.42-1.2-33.33-31.26,1.12-1.07-29.88,31.26-1.12-2.43-67.81,37.69-1.35Z"/><path class="cls-1" d="M1337,1677.24l-37.72.36-1.54-161,37.72-.36Z"/><path class="cls-1" d="M1279.81,1677.63l-48.72-1.85c-28.27-1.08-42.67-15.9-41.62-43.48l.24-6.2c.64-17,7.37-30.56,24.31-34.06v-.46c-16.65-3.86-20.7-18.28-20.72-36l0-25.55c0-6.67-.7-11.77-1.95-15.27l.06-1.6,37.46,1.42c1.7,3.75,2.37,10.22,2.3,18.27l-.13,27.61c-.09,8.52,2.31,11.83,13.34,12.25l1.61.06,2.19-57.45,37.69,1.43Zm-42.71-75.28c-6.43-.24-7.95,3.38-8.17,9.13l-.94,24.59c-.21,5.52,1.47,9.72,7.45,10l7.81.3,1.67-43.67Z"/><path class="cls-1" d="M1179.43,1553.74l-1,11.23-35.74-3.2,1.46-16.27c.51-5.72-1.93-9.41-7-9.86s-7,3.3-7.55,9.49c-.73,8.24,2.77,12.95,9.07,20l13.45,14.82c9.68,10.57,22.06,24.38,19.79,49.81l-.11,1.14c-2.48,27.72-23.09,41.35-47.15,39.19-25.65-2.29-39.67-18.56-37.09-47.42l1-10.77,33.67,3-1.35,15.11c-.76,8.48,2.45,11.31,6.8,11.7,4.59.41,8-2,8.78-10.3.86-9.62-7.46-17.29-12.92-23.33l-13.81-16c-5-5.76-18.25-23.11-16.53-42.35l.22-2.52c2.32-25.89,18.35-42.46,47-39.9C1156.67,1508.76,1182.75,1516.63,1179.43,1553.74Z"/><path class="cls-1" d="M1045.28,1630.15l25.73,3.63-4.18,29.61L978,1650.85l4.18-29.61,25.73,3.64,18.33-129.81,37.34,5.27Z"/><path class="cls-1" d="M820.2,1494.51,817,1505.3,782.59,1495l4.71-15.64c1.65-5.5,0-9.6-4.84-11.06s-7.52,1.83-9.31,7.77c-2.38,7.93.11,13.24,4.86,21.4l10.19,17.23c7.35,12.3,16.7,28.32,9.35,52.77l-.33,1.1c-8,26.65-31,35.85-54.08,28.89-24.67-7.41-35.12-26.17-26.78-53.92l3.12-10.35,32.38,9.73-4.38,14.54c-2.45,8.15.13,11.56,4.31,12.82,4.41,1.33,8.29-.39,10.67-8.32,2.78-9.25-3.82-18.44-8-25.45L744.2,1518c-3.76-6.66-13.22-26.32-7.66-44.82l.73-2.42c7.48-24.89,26.53-37.9,54.06-29.62C807,1445.86,830.93,1458.83,820.2,1494.51Z"/><path class="cls-1" d="M724,1466.92l-26.7,71.29c-9,24.13-33.56,33.86-58.11,24.66S603,1530.39,612.46,1505l26.95-72c8.87-23.69,33.15-32.77,57.71-23.57C726.62,1420.51,733.5,1441.5,724,1466.92Zm-48-23.89-30,80.13c-1.61,4.31-1.07,9.42,4.1,11.36s8.94-1.57,10.55-5.87l30-80.13c1.78-4.74,1.07-9.42-4.1-11.36S677.72,1438.3,675.94,1443Z"/><path class="cls-1" d="M625.27,1430.86l-29.85,64.75c-13.28,28.83-36.88,34.41-59.43,24-25.49-11.74-31-35.54-19.62-60.19l3.66-7.94,30.5,14.06-6.16,13.37c-2.22,4.8-2.57,10,2.86,12.46,5.64,2.6,9.22-1.32,11.34-5.92l34.85-75.61c2.12-4.6,2.77-9.87-2.45-12.27-5.64-2.6-9.45.71-11.76,5.72L573.34,1416l-30.49-14,3.75-8.15c11.07-24,32-34.87,56.68-23.51C630.43,1382.84,638.74,1401.62,625.27,1430.86Z"/><path class="cls-1" d="M479.08,1490.42l-33.24-17.83,76.07-141.89,33.24,17.82Z"/><path class="cls-1" d="M442.61,1314.67l24.82,15.84,18.8-20.48,26.95,17.19L399.64,1445.76l-38.2-24.36,59.83-152.81,32,20.41ZM430.45,1344l-20.33,49L446,1353.91Z"/><path class="cls-1" d="M314.42,1389,285,1365.37l82-102.29-30.86-24.75,18.7-23.33,60.3,48.34Z"/><path class="cls-1" d="M199.29,1289.21l-51.45-57.67,22.31-19.9,26.34,29.52,24.89-22.2-20.83-23.34,22.32-19.91,20.82,23.34,50.63-45.16L319.43,1182Z"/><path class="cls-1" d="M131.87,1210,110,1179.28l131-93.56,21.92,30.7Z"/><path class="cls-1" d="M92.28,1154.39l-22.62-43.2c-13.12-25.07-7.42-44.92,17-57.73l5.5-2.88c15.08-7.89,30.19-8.79,41.64,4.17l.41-.22c-4.93-16.37,5.57-27,20.94-35.88L177.37,1006c5.8-3.29,9.86-6.45,12.27-9.28l1.43-.74,17.39,33.21c-2.41,3.34-7.69,7.14-14.71,11.08l-24,13.61c-7.43,4.15-9.11,7.89-4,17.67l.75,1.42,50.94-26.66,17.49,33.41Zm44.08-74.49c-3-5.7-6.89-5.22-12-2.55l-21.8,11.41c-4.9,2.56-7.71,6.11-4.94,11.41l3.63,6.93L140,1086.83Z"/><path class="cls-1" d="M150.53,1004.73l-10.84,3.09-9.83-34.51,15.71-4.47c5.53-1.58,8.09-5.18,6.7-10.05s-5.59-5.34-11.56-3.64c-8,2.27-11.09,7.23-15.4,15.63l-9,17.87C109.9,1001.47,101.45,1018,76.9,1025l-1.11.32c-26.76,7.62-46.88-6.74-53.49-30-7.06-24.78,3.1-43.7,31-51.63l10.4-3,9.26,32.52-14.6,4.16c-8.19,2.33-9.67,6.34-8.48,10.55,1.26,4.42,4.8,6.76,12.76,4.49C71.9,989.82,76.08,979.3,79.75,972l10-18.64c3.58-6.75,15-25.32,33.61-30.61l2.43-.7c25-7.12,46.22,1.91,54.1,29.56C184.36,967.35,186.36,994.52,150.53,1004.73Z"/><path class="cls-1" d="M33.71,890.72l1.58,25.95L5.44,918.48,0,828.94l29.85-1.81,1.57,25.94,130.86-8,2.29,37.65Z"/></g></g></svg>