<svg xmlns="http://www.w3.org/2000/svg" viewBox="0 0 37.73 37.75"><defs><style>.cls-1{fill:#fec32e;}</style></defs><g id="Layer_2" data-name="Layer 2"><g id="Group_4796" data-name="Group 4796"><path id="Path_2202" data-name="Path 2202" class="cls-1" d="M19.11,0l-.24,0-.24,0a18.86,18.86,0,1,0,.48,0m-17,19.89H7.19A29,29,0,0,0,8,26.21H3.79a16.64,16.64,0,0,1-1.66-6.3M19.91,9.46V2.18c2.88.54,5.38,3.3,6.93,7.28Zm7.61,2.08a26.89,26.89,0,0,1,.95,6.29H19.9V11.54Zm-9.7-9.36V9.46H10.88c1.55-4,4.06-6.74,6.94-7.28m0,9.36v6.29H9.26a26.88,26.88,0,0,1,.94-6.29ZM7.18,17.83h-5a16.62,16.62,0,0,1,1.65-6.29H8a29,29,0,0,0-.86,6.29m2.08,2.08h8.56V26.2H10.21a26.23,26.23,0,0,1-1-6.29m8.56,8.37v7.27c-2.88-.54-5.38-3.3-6.93-7.27Zm2.08,7.27V28.28h6.93c-1.55,4-4,6.73-6.93,7.27m0-9.34v-6.3h8.57a26.91,26.91,0,0,1-1,6.3Zm10.64-6.3H35.6a16.64,16.64,0,0,1-1.66,6.3H29.68a29.05,29.05,0,0,0,.86-6.3m0-2.07a29,29,0,0,0-.85-6.3h4.25a16.64,16.64,0,0,1,1.66,6.3Zm2.22-8.37h-3.7a18.49,18.49,0,0,0-3.24-5.86,16.94,16.94,0,0,1,6.94,5.86M11.92,3.61A18.36,18.36,0,0,0,8.68,9.46H5a16.92,16.92,0,0,1,6.94-5.85M5,28.28h3.7a18.37,18.37,0,0,0,3.25,5.87,16.88,16.88,0,0,1-7-5.87M25.8,34.15a18.37,18.37,0,0,0,3.25-5.87h3.71a16.88,16.88,0,0,1-7,5.87"/></g></g></svg>