<svg xmlns="http://www.w3.org/2000/svg" viewBox="0 0 1187.27 316.19"><g id="Layer_2" data-name="Layer 2"><g id="Layer_1-2" data-name="Layer 1"><path d="M0,187.24l30.21-22.58,78.5,105L140.39,246l17.9,23.94L96.4,316.19Z"/><path d="M85.78,126.13,154.05,89.9l14,26.41-34.94,18.55,15.63,29.46,27.63-14.67,14,26.42-27.63,14.66,17.79,33.52,34.94-18.54,14,26.41-68.27,36.23Z"/><path d="M211.75,98.37l-24.36,9L177,79.38l84.09-31.22,10.41,28-24.37,9,45.64,122.9-35.36,13.13Z"/><path d="M304.42,75.78l-13.09,3.59L281.36,43l32.39-8.87,9.05,33.05-7,34.59-16,4.37Z"/><path d="M351.37,147.09,349.2,136l35.21-6.9,3.14,16c1.11,5.64,4.48,8.5,9.44,7.53s5.8-5.12,4.6-11.22c-1.59-8.12-6.27-11.66-14.27-16.65l-17.06-10.49c-12.24-7.45-28-17.25-32.9-42.3l-.22-1.13c-5.35-27.31,10.65-46.15,34.35-50.79,25.28-5,43.27,6.75,48.85,35.19l2.07,10.61-33.17,6.5-2.92-14.9c-1.64-8.35-5.51-10.17-9.8-9.33-4.51.89-7.14,4.21-5.55,12.34,1.86,9.48,12,14.53,18.91,18.79l17.73,11.53c6.44,4.13,24,17.1,27.69,36.06l.49,2.48c5,25.51-5.78,45.9-34,51.43C385.77,184,358.53,183.66,351.37,147.09Z"/><path d="M481.9,121.82l-4.16-71.18C475.88,19,494.07,2.91,518.87,1.46c28-1.64,44.06,16.78,45.65,43.87l.51,8.73L531.5,56l-.85-14.7c-.31-5.28-2.43-10-8.4-9.64-6.2.36-7.51,5.5-7.22,10.56l4.86,83.12c.3,5,2.2,10,7.94,9.67,6.2-.36,8-5.08,7.68-10.59l-.82-14,33.52-2,.52,9c1.55,26.41-11.83,45.85-38.92,47.44C500,166.61,483.78,154,481.9,121.82Z"/><path d="M578.41,117.93l2.72-76.09C582.05,16.1,602.22-.9,628.43,0s44.65,19.32,43.68,46.44l-2.75,76.77c-.9,25.29-21.05,41.6-47.26,40.66C590.61,162.78,577.44,145.05,578.41,117.93Zm53.13,7.42,3.06-85.51c.16-4.59-2-9.27-7.49-9.47s-8,4.32-8.14,8.91l-3.06,85.51c-.18,5.06,2,9.28,7.49,9.48S631.36,130.41,631.54,125.35Z"/><path d="M695.15,5l31.44,4.32L747.5,92.06l.46.06L758.49,13.7l29.62,4.07-21.9,159.51-28.71-3.95L714,89.31l-.45-.06-10.9,79.29-29.39-4Z"/><path d="M810.51,22l30.77,7.77,11.62,84.54.45.11L872.5,37.69l29,7.32L862.07,201.1,834,194,819.9,107.9l-.45-.11-19.6,77.6-28.77-7.27Z"/><path d="M923.69,52.35l72.25,27.43-10.62,28-37-14L936.5,124.87,965.74,136l-10.61,28-29.25-11.1L912.41,188.3l37,14-10.62,28-72.25-27.43Z"/><path d="M961.76,191.55l33.64-62.87c15-28,38.86-32.16,60.76-20.44,24.74,13.24,28.81,37.33,16,61.26l-4.12,7.71-29.61-15.85,7-13c2.49-4.66,3.15-9.79-2.12-12.61-5.48-2.93-9.29.77-11.67,5.23L992.3,214.41c-2.38,4.47-3.35,9.69,1.72,12.4,5.47,2.93,9.47-.15,12.07-5l6.62-12.37,29.61,15.85-4.23,7.91c-12.48,23.32-34,32.91-58,20.1C953.75,239.17,946.57,219.94,961.76,191.55Z"/><path d="M1118.65,183.8l-20.49-16,18.4-23.57,70.71,55.19L1168.87,223l-20.49-16-80.67,103.34L1038,287.14Z"/></g></g></svg>