<svg xmlns="http://www.w3.org/2000/svg" viewBox="0 0 215 21.34"><defs><style>.cls-1{fill:#fec32e;}</style></defs><g id="Layer_2" data-name="Layer 2"><g id="Group_4796" data-name="Group 4796"><path id="Path_2187" data-name="Path 2187" class="cls-1" d="M0,.42V20.91H9.21V17.43H4.45V.43Z"/><path id="Path_2188" data-name="Path 2188" class="cls-1" d="M17.28,0c4.28,0,7.45,4.17,7.45,10.8,0,5.55-2.69,10.54-7.48,10.54S9.8,16.61,9.8,10.69C9.8,4,13,0,17.28,0m0,18.25c2.27,0,2.89-3.51,2.89-7.51,0-4.28-.68-7.76-2.89-7.76s-2.92,3.65-2.92,7.74c0,4.47.74,7.53,2.92,7.53"/><path id="Path_2189" data-name="Path 2189" class="cls-1" d="M35.66,6.86c0-1.82-.45-3.37-1.61-3.37-1.82,0-2.5,3.26-2.5,7.42,0,3.69.63,7.23,2.5,7.23,1.25,0,1.67-1.7,1.7-3.46h4.79c-.63,4.05-3.43,6.66-6.49,6.66-5.27,0-7.34-5.72-7.34-10.37C26.71,5.87,29,.28,34.05.28c3.06,0,5.81,2.58,6.35,6.58Z"/><path id="Path_2190" data-name="Path 2190" class="cls-1" d="M50.08,16.89h-4l-.68,4H41.24L45.43.42h5.19L55,20.91H50.73ZM48.21,5.72H48L46.57,13.6h3Z"/><path id="Path_2191" data-name="Path 2191" class="cls-1" d="M57,.42h4.45v17h4.76v3.49H57Z"/><path id="Path_2192" data-name="Path 2192" class="cls-1" d="M74.86.42h9.43V3.77H79.16V8.64H83.9V12H79.16v5.52h5.33v3.4H74.86Z"/><path id="Path_2193" data-name="Path 2193" class="cls-1" d="M95,20.91H89.87L85.48.42h4.61l2.47,14.85h.17L95.05.42h4.08Z"/><path id="Path_2194" data-name="Path 2194" class="cls-1" d="M101.11.42h9.44V3.77h-5.13V8.64h4.73V12h-4.73v5.52h5.33v3.4h-9.64Z"/><path id="Path_2195" data-name="Path 2195" class="cls-1" d="M113.15.42h5.78c3.09,0,6.49,2,6.49,5.64a5.7,5.7,0,0,1-3.6,5.33l4.36,9.53h-4.82l-3.6-8.79h-.22l0,8.79h-4.42Zm4.39,9.16,1,0c1.36,0,2.3-1.19,2.3-3s-1-2.89-2.27-2.92l-1,0Z"/><path id="Path_2196" data-name="Path 2196" class="cls-1" d="M135.56,12.89a.58.58,0,0,0-.54.62h0v7.4h-4.4v-7.4a.59.59,0,0,0-.56-.63L125.92.42h4.65L133,10.23h.18L135.7.42h4.16Z"/><path id="Path_2197" data-name="Path 2197" class="cls-1" d="M144.93.43l1,13.51h.23L148.45.37h3.94L154.6,13.8h.22L155.89.43h3.6L157,20.92h-4.54l-2-12.9h-.23l-2.15,12.9h-4.59L140.93.43Z"/><path id="Path_2198" data-name="Path 2198" class="cls-1" d="M166.37.42V8.61h4V.42h4.45V20.91h-4.45v-9h-4v9H162V.42Z"/><path id="Path_2199" data-name="Path 2199" class="cls-1" d="M178.18.42h9.43V3.77h-5.13V8.64h4.74V12h-4.74v5.52h5.33v3.4h-9.63Z"/><path id="Path_2200" data-name="Path 2200" class="cls-1" d="M190.21.42H196c3.09,0,6.49,2,6.49,5.64a5.67,5.67,0,0,1-3.6,5.33l4.37,9.53h-4.82l-3.6-8.79h-.23l0,8.79h-4.42Zm4.4,9.16,1,0c1.36,0,2.3-1.19,2.3-3s-1.05-2.89-2.27-2.92l-1,0Z"/><path id="Path_2201" data-name="Path 2201" class="cls-1" d="M205.37.42h9.43V3.77h-5.13V8.64h4.74V12h-4.74v5.52H215v3.4h-9.63Z"/></g></g></svg>