<svg id="Group_4721" data-name="Group 4721" xmlns="http://www.w3.org/2000/svg" xmlns:xlink="http://www.w3.org/1999/xlink" width="59.122" height="54.887" viewBox="0 0 59.122 54.887">
  <defs>
    <clipPath id="clip-path">
      <rect id="Rectangle_525" data-name="Rectangle 525" width="59.122" height="54.887" fill="none"/>
    </clipPath>
  </defs>
  <rect id="Rectangle_524" data-name="Rectangle 524" width="59.122" height="54.887" fill="#ffc330"/>
  <path id="Path_2019" data-name="Path 2019" d="M96.036,85.089v-.962h-.521v-.168h1.313v.168H96.3v.962Zm.972,0v-1.13H97.4l.407.9.392-.9h.387v1.13h-.245V84.14l-.414.949h-.243l-.431-.962v.962Z" transform="translate(-44.265 -38.909)" fill="#231f20"/>
  <path id="Path_2020" data-name="Path 2020" d="M13.115,14.831h5.5L20.2,26.395h.077l1.484-11.563h5.731V32.739H23.911V18.771h-.1L21.685,32.739h-3.4L16.159,18.771h-.1V32.739H13.115Z" transform="translate(-6.078 -6.873)"/>
  <path id="Path_2021" data-name="Path 2021" d="M43.963,14.64h4.5l3.582,18.01H48.363l-.691-3.76h-3.4l-.665,3.76H40.433Zm3.2,11.308L46.01,19.527h-.128l-1.075,6.421Z" transform="translate(-18.738 -6.785)"/>
  <g id="Group_4720" data-name="Group 4720">
    <g id="Group_4719" data-name="Group 4719" clip-path="url(#clip-path)">
      <path id="Path_2022" data-name="Path 2022" d="M62.6,14.831h5.321c2.814,0,4.246,1.407,4.246,4.349v9.159c0,2.993-1.407,4.4-4.221,4.4H62.6Zm4.707,14.812c1.048,0,1.3-.486,1.3-1.382V19.308c0-.742-.2-1.382-1.3-1.382H66.157V29.643Z" transform="translate(-29.011 -6.873)"/>
      <path id="Path_2023" data-name="Path 2023" d="M82.005,14.831h8.084v3.1H85.561v3.991h3.633v3.146H85.561v4.579h4.528v3.1H82.005Z" transform="translate(-38.004 -6.873)"/>
      <path id="Path_2024" data-name="Path 2024" d="M17.1,67V58.072a4.538,4.538,0,0,1,4.835-4.938,4.353,4.353,0,0,1,4.579,4.733v2.046h-3.4v-1.97c0-.716-.281-1.509-1.228-1.509s-1.229.742-1.229,1.535v8.954c0,.589.1,1.509,1.177,1.509a1.256,1.256,0,0,0,1.279-1.356V64.467H21.574v-2.66h4.937v9.542H24.822l-.537-1.1a3.68,3.68,0,0,1-3.2,1.407c-2.712,0-3.991-1.637-3.991-4.656" transform="translate(-7.923 -24.624)"/>
      <path id="Path_2025" data-name="Path 2025" d="M36.166,66.923V57.841a4.5,4.5,0,0,1,4.809-4.707,4.493,4.493,0,0,1,4.758,4.835v8.979a4.526,4.526,0,0,1-4.81,4.707c-3.274,0-4.758-1.842-4.758-4.733m6.012-.026v-9c0-.768-.384-1.458-1.254-1.458-.895,0-1.2.691-1.2,1.458v9c0,.793.307,1.458,1.2,1.458s1.254-.64,1.254-1.458" transform="translate(-16.76 -24.624)"/>
      <path id="Path_2026" data-name="Path 2026" d="M55.426,66.923V57.841a4.784,4.784,0,0,1,9.568.128v8.979a4.526,4.526,0,0,1-4.81,4.707c-3.274,0-4.758-1.842-4.758-4.733m6.012-.026v-9c0-.768-.384-1.458-1.254-1.458-.895,0-1.2.691-1.2,1.458v9c0,.793.307,1.458,1.2,1.458s1.254-.64,1.254-1.458" transform="translate(-25.686 -24.624)"/>
      <path id="Path_2027" data-name="Path 2027" d="M74.83,53.706h5.321c2.814,0,4.246,1.407,4.246,4.349v9.159c0,2.993-1.407,4.4-4.221,4.4H74.83Zm4.707,14.812c1.048,0,1.3-.486,1.3-1.382V58.183c0-.742-.2-1.382-1.3-1.382H78.386V68.518Z" transform="translate(-34.679 -24.889)"/>
    </g>
  </g>
</svg>
