<svg xmlns="http://www.w3.org/2000/svg" width="438.479" height="79.11" viewBox="0 0 438.479 79.11"><defs><style>.a,.b,.d{fill:#fff;}.a{font-size:34px;}.a,.b{font-family:NHL_Edge_New_York_Rangers;letter-spacing:0.05em;}.b{font-size:13px;}.c{font-family:MyriadPro-Regular, Myriad Pro;}</style></defs><g transform="translate(-46.393 -498.464)"><text class="a" transform="translate(146.872 528.253)"><tspan x="0" y="0">MADE GOOD CO</tspan></text><text class="b" transform="translate(313.013 570.834)"><tspan x="-116.695" y="0">CONTENT</tspan><tspan class="c" y="0" xml:space="preserve"> • </tspan><tspan y="0">VIDEO</tspan><tspan class="c" y="0" xml:space="preserve"> • </tspan><tspan y="0">STRATEGY</tspan></text><g transform="translate(66.641 498.464)"><path class="d" d="M79.825,498.464h8.6v63.7h-8.6v-36.12L71.8,546.624l-8.025-20.577v36.12h-8.6v-63.7h8.6L71.8,522.226Z" transform="translate(-55.173 -498.464)"/></g><g transform="translate(46.393 570.925)"><path class="d" d="M50.587,536.535l10.881-6.649,10.881,6.649Z" transform="translate(-40.915 -529.885)"/><path class="d" d="M46.393,536.535l10.881-6.649,10.881,6.649Z" transform="translate(-46.393 -529.885)"/><path class="d" d="M59.761,536.535l10.881-6.649,10.881,6.649Z" transform="translate(-28.932 -529.885)"/><path class="d" d="M55.567,536.535l10.881-6.649,10.881,6.649Z" transform="translate(-34.41 -529.885)"/><path class="d" d="M68.936,536.535l10.881-6.649L90.7,536.535Z" transform="translate(-16.949 -529.885)"/><path class="d" d="M64.742,536.535l10.881-6.649L86.5,536.535Z" transform="translate(-22.427 -529.885)"/></g></g></svg>