<svg xmlns="http://www.w3.org/2000/svg" xmlns:xlink="http://www.w3.org/1999/xlink" width="168.693" height="46.45" viewBox="0 0 168.693 46.45">
  <defs>
    <clipPath id="clip-path">
      <rect id="Rectangle_569" data-name="Rectangle 569" width="168.693" height="46.45" transform="translate(0 0)" fill="#f2eee4"/>
    </clipPath>
  </defs>
  <g id="Group_4789" data-name="Group 4789" transform="translate(0 0)">
    <g id="Group_4788" data-name="Group 4788" clip-path="url(#clip-path)">
      <path id="Path_2082" data-name="Path 2082" d="M0,36.514,2.387,33.78a4.3,4.3,0,0,1,6.225-.543,4.379,4.379,0,0,1,.358,6.291l-.424.487L12.31,43.3l-1.962,2.247Zm6.9,2.118.36-.442c.523-.628.451-1.7-.623-2.638-1.116-.975-2.087-.788-2.591-.269l-.453.462Z" fill="#f2eee4"/>
      <path id="Path_2083" data-name="Path 2083" d="M7.13,28.719l2.2-2.012,7.691,8.413,2.355-2.153,1.576,1.725L16.4,38.858Z" fill="#f2eee4"/>
      <path id="Path_2084" data-name="Path 2084" d="M24.084,28.967l-2.172,1.6,1.235,2.442-2.232,1.646-5.89-12.723,2.8-2.063,10.539,9.3-2.325,1.714Zm-5.452-5.28-.122.09,2.37,4.815,1.62-1.2Z" fill="#f2eee4"/>
      <path id="Path_2085" data-name="Path 2085" d="M29.94,22.019a.387.387,0,0,0-.1.544L32.4,26.812l-2.525,1.519-2.555-4.249a.4.4,0,0,0-.542-.163l-6.687-5.733,2.67-1.606,4.789,4.79.1-.059-1.941-6.505,2.393-1.44Z" fill="#f2eee4"/>
      <path id="Path_2086" data-name="Path 2086" d="M44.529,20.924l-3.17,1.334L33.315,10.735l2.856-1.2,5.385,8.538.106-.044L39.236,8.244l2.522-1.061Z" fill="#f2eee4"/>
      <rect id="Rectangle_567" data-name="Rectangle 567" width="2.945" height="13.735" transform="matrix(0.947, -0.321, 0.321, 0.947, 43.576, 6.616)" fill="#f2eee4"/>
      <path id="Path_2087" data-name="Path 2087" d="M49.069,4.76l3.273-.853c2.868-.748,5.638,1.064,6.774,5.422.991,3.8-.055,7.023-3.4,7.9l-3.18.828Zm5.787,10.528.506-.171c1.442-.494,1.48-2.6.848-5.032C55.6,7.732,54.438,5.7,52.958,5.965l-.507.093Z" fill="#f2eee4"/>
      <path id="Path_2088" data-name="Path 2088" d="M59.8,2.14l6.234-1.082.384,2.209-3.389.588.559,3.221,3.127-.543L67.1,8.742l-3.127.543.634,3.651,3.519-.611.391,2.247-6.366,1.1Z" fill="#f2eee4"/>
      <path id="Path_2089" data-name="Path 2089" d="M72.974.017c2.857-.251,5.22,2.344,5.61,6.771.326,3.709-1.179,7.2-4.377,7.478-3.141.276-5.254-2.722-5.6-6.677C68.212,3.105,70.136.266,72.974.017M74.045,12.2c1.514-.133,1.724-2.516,1.489-5.184-.251-2.857-.91-5.144-2.385-5.014-1.552.136-1.735,2.612-1.5,5.336.263,2.99.935,4.99,2.392,4.862" fill="#f2eee4"/>
      <path id="Path_2090" data-name="Path 2090" d="M94.2.172l3.608.4a4.3,4.3,0,0,1,4,4.8,4.382,4.382,0,0,1-4.962,3.887L96.2,9.19l-.55,4.968-2.966-.328Zm2.2,6.879.568.044c.815.071,1.655-.6,1.811-2.018.163-1.473-.545-2.164-1.258-2.281l-.639-.109Z" fill="#f2eee4"/>
      <path id="Path_2091" data-name="Path 2091" d="M104.3,1.438l2.933.548-2.1,11.206,3.138.587-.43,2.3-6.07-1.136Z" fill="#f2eee4"/>
      <path id="Path_2092" data-name="Path 2092" d="M114.348,14.989l-2.605-.7L110.6,16.773l-2.678-.722,6.289-12.529,3.356.9-.713,14.031-2.788-.751Zm.737-7.553-.146-.039-2.292,4.851,1.945.524Z" fill="#f2eee4"/>
      <path id="Path_2093" data-name="Path 2093" d="M123.423,15.143a.386.386,0,0,0-.48.273l-1.661,4.671-2.774-.986,1.66-4.671a.4.4,0,0,0-.218-.521l.187-8.805,2.935,1.044-.662,6.74.108.038L126.312,7.3l2.632.935Z" fill="#f2eee4"/>
      <path id="Path_2094" data-name="Path 2094" d="M133.6,25.678l-3.052-1.588,3.73-13.55,2.749,1.43-3.131,9.6.1.053,5.98-8.116,2.428,1.264Z" fill="#f2eee4"/>
      <rect id="Rectangle_568" data-name="Rectangle 568" width="13.737" height="2.945" transform="translate(136.771 27.499) rotate(-57.988)" fill="#f2eee4"/>
      <path id="Path_2095" data-name="Path 2095" d="M149.1,19.021l2.7,2.037c2.366,1.785,2.664,5.08-.048,8.675-2.369,3.14-5.542,4.317-8.3,2.234l-2.624-1.98Zm-4.665,11.071.448.29c1.281.825,2.961-.455,4.472-2.457,1.465-1.941,2.342-4.112,1.212-5.107l-.387-.34Z" fill="#f2eee4"/>
      <path id="Path_2096" data-name="Path 2096" d="M158.019,26.058l4.588,4.354-1.543,1.626-2.493-2.367-2.25,2.37,2.3,2.184-1.543,1.626-2.3-2.184-2.55,2.687,2.591,2.458-1.57,1.654-4.684-4.446Z" fill="#f2eee4"/>
      <path id="Path_2097" data-name="Path 2097" d="M167.767,35.9c1.8,2.23.971,5.64-2.486,8.436-2.894,2.342-6.629,3.042-8.648.546-1.983-2.453-.676-5.881,2.411-8.377,3.5-2.832,6.931-2.821,8.723-.6m-9.512,7.694c.956,1.182,3.05.025,5.133-1.66,2.23-1.8,3.76-3.628,2.828-4.78-.98-1.211-3.136.02-5.263,1.74-2.334,1.888-3.618,3.562-2.7,4.7" fill="#f2eee4"/>
      <path id="Path_2098" data-name="Path 2098" d="M85,4.973a1.5,1.5,0,1,1-1.5,1.5,1.5,1.5,0,0,1,1.5-1.5" fill="#f2eee4"/>
    </g>
  </g>
</svg>
