<svg xmlns="http://www.w3.org/2000/svg" xmlns:xlink="http://www.w3.org/1999/xlink" width="2704.856" height="1755.469" viewBox="0 0 2704.856 1755.469">
  <defs>
    <clipPath id="clip-path">
      <rect id="Rectangle_578" data-name="Rectangle 578" width="2695.842" height="1745.072" transform="translate(0 -0.002)" fill="#e1ded5"/>
    </clipPath>
  </defs>
  <g id="Group_4820" data-name="Group 4820" transform="translate(9.014 6.096)">
    <text id="R" transform="matrix(0.482, -0.876, 0.876, 0.482, 227.545, 706.888)" fill="#e1ded5" font-size="230" font-family="GrotzecPoster-CondensedBold, Grotzec Poster" font-weight="700"><tspan x="0" y="0">R</tspan></text>
    <text id="E" transform="translate(272.857 625.454) rotate(-52.315)" fill="#e1ded5" font-size="230" font-family="GrotzecPoster-CondensedBold, Grotzec Poster" font-weight="700"><tspan x="0" y="0">E</tspan></text>
    <text id="A" transform="translate(320.026 562.695) rotate(-44.314)" fill="#e1ded5" font-size="230" font-family="GrotzecPoster-CondensedBold, Grotzec Poster" font-weight="700"><tspan x="0" y="0">A</tspan></text>
    <text id="C" transform="matrix(0.791, -0.612, 0.612, 0.791, 393.387, 491.385)" fill="#e1ded5" font-size="230" font-family="GrotzecPoster-CondensedBold, Grotzec Poster" font-weight="700"><tspan x="0" y="0">C</tspan></text>
    <text id="H" transform="matrix(0.846, -0.533, 0.533, 0.846, 464.332, 436.431)" fill="#e1ded5" font-size="230" font-family="GrotzecPoster-CondensedBold, Grotzec Poster" font-weight="700"><tspan x="0" y="0">H</tspan></text>
    <text id="_" data-name=" " transform="matrix(0.876, -0.483, 0.483, 0.876, 545.394, 386.474)" fill="#e1ded5" font-size="230" font-family="GrotzecPoster-CondensedBold, Grotzec Poster" font-weight="700"><tspan x="0" y="0"> </tspan></text>
    <text id="O" transform="matrix(0.9, -0.435, 0.435, 0.9, 573.006, 370.307)" fill="#e1ded5" font-size="230" font-family="GrotzecPoster-CondensedBold, Grotzec Poster" font-weight="700"><tspan x="0" y="0">O</tspan></text>
    <text id="U" transform="translate(658.437 329.147) rotate(-21.791)" fill="#e1ded5" font-size="230" font-family="GrotzecPoster-CondensedBold, Grotzec Poster" font-weight="700"><tspan x="0" y="0">U</tspan></text>
    <text id="T" transform="translate(741.573 295.865) rotate(-18.18)" fill="#e1ded5" font-size="230" font-family="GrotzecPoster-CondensedBold, Grotzec Poster" font-weight="700"><tspan x="0" y="0">T</tspan></text>
    <text id="_2" data-name=" " transform="translate(831.62 266.976) rotate(-15.848)" fill="#e1ded5" font-size="230" font-family="GrotzecPoster-CondensedBold, Grotzec Poster" font-weight="700"><tspan x="0" y="0"> </tspan></text>
    <text id="_3" data-name=" " transform="matrix(0.967, -0.253, 0.253, 0.967, 863.591, 257.912)" fill="#e1ded5" font-size="230" font-family="GrotzecPoster-CondensedBold, Grotzec Poster" font-weight="700"><tspan x="0" y="0"> </tspan></text>
    <text id="R-2" data-name="R" transform="matrix(0.976, -0.216, 0.216, 0.976, 894.916, 249.074)" fill="#e1ded5" font-size="230" font-family="GrotzecPoster-CondensedBold, Grotzec Poster" font-weight="700"><tspan x="0" y="0">R</tspan></text>
    <text id="E-2" data-name="E" transform="matrix(0.986, -0.166, 0.166, 0.986, 989.849, 228.325)" fill="#e1ded5" font-size="230" font-family="GrotzecPoster-CondensedBold, Grotzec Poster" font-weight="700"><tspan x="0" y="0">E</tspan></text>
    <g id="Group_4813" data-name="Group 4813">
      <g id="Group_4812" data-name="Group 4812" clip-path="url(#clip-path)">
        <text id="A-2" data-name="A" transform="matrix(0.993, -0.114, 0.114, 0.993, 1070.38, 214.418)" fill="#e1ded5" font-size="230" font-family="GrotzecPoster-CondensedBold, Grotzec Poster" font-weight="700"><tspan x="0" y="0">A</tspan></text>
        <text id="C-2" data-name="C" transform="translate(1174.491 202.559) rotate(-3.707)" fill="#e1ded5" font-size="230" font-family="GrotzecPoster-CondensedBold, Grotzec Poster" font-weight="700"><tspan x="0" y="0">C</tspan></text>
        <text id="H-2" data-name="H" transform="translate(1265.856 196.6) rotate(-0.982)" fill="#e1ded5" font-size="230" font-family="GrotzecPoster-CondensedBold, Grotzec Poster" font-weight="700"><tspan x="0" y="0">H</tspan></text>
        <text id="_4" data-name=" " transform="translate(1362.091 195.472) rotate(0.868)" fill="#e1ded5" font-size="230" font-family="GrotzecPoster-CondensedBold, Grotzec Poster" font-weight="700"><tspan x="0" y="0"> </tspan></text>
        <text id="O-2" data-name="O" transform="translate(1394.865 195.458) rotate(2.736)" fill="#e1ded5" font-size="230" font-family="GrotzecPoster-CondensedBold, Grotzec Poster" font-weight="700"><tspan x="0" y="0">O</tspan></text>
        <text id="U-2" data-name="U" transform="translate(1490.445 200.082) rotate(5.487)" fill="#e1ded5" font-size="230" font-family="GrotzecPoster-CondensedBold, Grotzec Poster" font-weight="700"><tspan x="0" y="0">U</tspan></text>
      </g>
    </g>
    <text id="T-2" data-name="T" transform="matrix(0.99, 0.144, -0.144, 0.99, 1580.109, 208.628)" fill="#e1ded5" font-size="230" font-family="GrotzecPoster-CondensedBold, Grotzec Poster" font-weight="700"><tspan x="0" y="0">T</tspan></text>
    <text id="_5" data-name=" " transform="matrix(0.984, 0.179, -0.179, 0.984, 1673.795, 222.858)" fill="#e1ded5" font-size="230" font-family="GrotzecPoster-CondensedBold, Grotzec Poster" font-weight="700"><tspan x="0" y="0"> </tspan></text>
    <text id="_6" data-name=" " transform="matrix(0.98, 0.198, -0.198, 0.98, 1706.586, 228.84)" fill="#e1ded5" font-size="230" font-family="GrotzecPoster-CondensedBold, Grotzec Poster" font-weight="700"><tspan x="0" y="0"> </tspan></text>
    <text id="R-3" data-name="R" transform="matrix(0.972, 0.235, -0.235, 0.972, 1738.637, 234.673)" fill="#e1ded5" font-size="230" font-family="GrotzecPoster-CondensedBold, Grotzec Poster" font-weight="700"><tspan x="0" y="0">R</tspan></text>
    <text id="E-3" data-name="E" transform="translate(1832.882 257.62) rotate(16.727)" fill="#e1ded5" font-size="230" font-family="GrotzecPoster-CondensedBold, Grotzec Poster" font-weight="700"><tspan x="0" y="0">E</tspan></text>
    <text id="A-3" data-name="A" transform="translate(1910.873 280.511) rotate(20.37)" fill="#e1ded5" font-size="230" font-family="GrotzecPoster-CondensedBold, Grotzec Poster" font-weight="700"><tspan x="0" y="0">A</tspan></text>
    <text id="C-3" data-name="C" transform="translate(2008.424 316.777) rotate(24.325)" fill="#e1ded5" font-size="230" font-family="GrotzecPoster-CondensedBold, Grotzec Poster" font-weight="700"><tspan x="0" y="0">C</tspan></text>
    <text id="H-3" data-name="H" transform="translate(2090.939 353.868) rotate(28.667)" fill="#e1ded5" font-size="230" font-family="GrotzecPoster-CondensedBold, Grotzec Poster" font-weight="700"><tspan x="0" y="0">H</tspan></text>
    <text id="_7" data-name=" " transform="translate(2174.095 400.337) rotate(31.999)" fill="#e1ded5" font-size="230" font-family="GrotzecPoster-CondensedBold, Grotzec Poster" font-weight="700"><tspan x="0" y="0"> </tspan></text>
    <text id="O-3" data-name="O" transform="matrix(0.812, 0.583, -0.583, 0.812, 2201.438, 416.155)" fill="#e1ded5" font-size="230" font-family="GrotzecPoster-CondensedBold, Grotzec Poster" font-weight="700"><tspan x="0" y="0">O</tspan></text>
    <text id="U-3" data-name="U" transform="translate(2277.438 470.582) rotate(41.728)" fill="#e1ded5" font-size="230" font-family="GrotzecPoster-CondensedBold, Grotzec Poster" font-weight="700"><tspan x="0" y="0">U</tspan></text>
    <text id="T-3" data-name="T" transform="matrix(0.658, 0.753, -0.753, 0.658, 2342.922, 528.342)" fill="#e1ded5" font-size="230" font-family="GrotzecPoster-CondensedBold, Grotzec Poster" font-weight="700"><tspan x="0" y="0">T</tspan></text>
    <text id="_8" data-name=" " transform="translate(2402.541 598.696) rotate(54.592)" fill="#e1ded5" font-size="230" font-family="GrotzecPoster-CondensedBold, Grotzec Poster" font-weight="700"><tspan x="0" y="0"> </tspan></text>
    <text id="_9" data-name=" " transform="translate(2420.996 624.62) rotate(57.878)" fill="#e1ded5" font-size="230" font-family="GrotzecPoster-CondensedBold, Grotzec Poster" font-weight="700"><tspan x="0" y="0"> </tspan></text>
    <text id="R-4" data-name="R" transform="translate(2438.559 648.385) rotate(64.894)" fill="#e1ded5" font-size="230" font-family="GrotzecPoster-CondensedBold, Grotzec Poster" font-weight="700"><tspan x="0" y="0">R</tspan></text>
    <g id="Group_4815" data-name="Group 4815">
      <g id="Group_4814" data-name="Group 4814" clip-path="url(#clip-path)">
        <text id="E-4" data-name="E" transform="translate(2477.534 731.728) rotate(75.696)" fill="#e1ded5" font-size="230" font-family="GrotzecPoster-CondensedBold, Grotzec Poster" font-weight="700"><tspan x="0" y="0">E</tspan></text>
        <text id="A-4" data-name="A" transform="translate(2498.536 804.73) rotate(88.249)" fill="#e1ded5" font-size="230" font-family="GrotzecPoster-CondensedBold, Grotzec Poster" font-weight="700"><tspan x="0" y="0">A</tspan></text>
        <text id="C-4" data-name="C" transform="translate(2501.818 903.179) rotate(100.712)" fill="#e1ded5" font-size="230" font-family="GrotzecPoster-CondensedBold, Grotzec Poster" font-weight="700"><tspan x="0" y="0">C</tspan></text>
      </g>
    </g>
    <text id="H-4" data-name="H" transform="translate(2486.488 987.634) rotate(112.326)" fill="#e1ded5" font-size="230" font-family="GrotzecPoster-CondensedBold, Grotzec Poster" font-weight="700"><tspan x="0" y="0">H</tspan></text>
    <text id="_10" data-name=" " transform="translate(2449.596 1072.538) rotate(119.541)" fill="#e1ded5" font-size="230" font-family="GrotzecPoster-CondensedBold, Grotzec Poster" font-weight="700"><tspan x="0" y="0"> </tspan></text>
    <text id="O-4" data-name="O" transform="matrix(-0.588, 0.809, -0.809, -0.588, 2436.492, 1099.416)" fill="#e1ded5" font-size="230" font-family="GrotzecPoster-CondensedBold, Grotzec Poster" font-weight="700"><tspan x="0" y="0">O</tspan></text>
    <text id="U-4" data-name="U" transform="matrix(-0.695, 0.719, -0.719, -0.695, 2382.185, 1173.906)" fill="#e1ded5" font-size="230" font-family="GrotzecPoster-CondensedBold, Grotzec Poster" font-weight="700"><tspan x="0" y="0">U</tspan></text>
    <text id="T-4" data-name="T" transform="translate(2321.408 1236.956) rotate(140.694)" fill="#e1ded5" font-size="230" font-family="GrotzecPoster-CondensedBold, Grotzec Poster" font-weight="700"><tspan x="0" y="0">T</tspan></text>
    <text id="_11" data-name=" " transform="translate(2248.454 1295.265) rotate(144.699)" fill="#e1ded5" font-size="230" font-family="GrotzecPoster-CondensedBold, Grotzec Poster" font-weight="700"><tspan x="0" y="0"> </tspan></text>
    <text id="_12" data-name=" " transform="translate(2221.731 1314.169) rotate(146.63)" fill="#e1ded5" font-size="230" font-family="GrotzecPoster-CondensedBold, Grotzec Poster" font-weight="700"><tspan x="0" y="0"> </tspan></text>
    <text id="R-5" data-name="R" transform="translate(2195.784 1332.426) rotate(150.126)" fill="#e1ded5" font-size="230" font-family="GrotzecPoster-CondensedBold, Grotzec Poster" font-weight="700"><tspan x="0" y="0">R</tspan></text>
    <text id="E-5" data-name="E" transform="translate(2112.198 1380.075) rotate(154.428)" fill="#e1ded5" font-size="230" font-family="GrotzecPoster-CondensedBold, Grotzec Poster" font-weight="700"><tspan x="0" y="0">E</tspan></text>
    <text id="A-5" data-name="A" transform="translate(2039.364 1415.47) rotate(158.552)" fill="#e1ded5" font-size="230" font-family="GrotzecPoster-CondensedBold, Grotzec Poster" font-weight="700"><tspan x="0" y="0">A</tspan></text>
    <text id="C-5" data-name="C" transform="translate(1942.295 1453.448) rotate(162.245)" fill="#e1ded5" font-size="230" font-family="GrotzecPoster-CondensedBold, Grotzec Poster" font-weight="700"><tspan x="0" y="0">C</tspan></text>
    <text id="H-5" data-name="H" transform="matrix(-0.969, 0.249, -0.249, -0.969, 1855.519, 1481.276)" fill="#e1ded5" font-size="230" font-family="GrotzecPoster-CondensedBold, Grotzec Poster" font-weight="700"><tspan x="0" y="0">H</tspan></text>
    <text id="_13" data-name=" " transform="translate(1762.355 1504.565) rotate(167.778)" fill="#e1ded5" font-size="230" font-family="GrotzecPoster-CondensedBold, Grotzec Poster" font-weight="700"><tspan x="0" y="0"> </tspan></text>
    <text id="O-5" data-name="O" transform="matrix(-0.984, 0.176, -0.176, -0.984, 1730.585, 1512.026)" fill="#e1ded5" font-size="230" font-family="GrotzecPoster-CondensedBold, Grotzec Poster" font-weight="700"><tspan x="0" y="0">O</tspan></text>
    <g id="Group_4817" data-name="Group 4817">
      <g id="Group_4816" data-name="Group 4816" clip-path="url(#clip-path)">
        <text id="U-5" data-name="U" transform="matrix(-0.992, 0.126, -0.126, -0.992, 1636.513, 1528.734)" fill="#e1ded5" font-size="230" font-family="GrotzecPoster-CondensedBold, Grotzec Poster" font-weight="700"><tspan x="0" y="0">U</tspan></text>
        <text id="T-5" data-name="T" transform="translate(1547.118 1540.087) rotate(175.569)" fill="#e1ded5" font-size="230" font-family="GrotzecPoster-CondensedBold, Grotzec Poster" font-weight="700"><tspan x="0" y="0">T</tspan></text>
        <text id="_14" data-name=" " transform="translate(1452.478 1546.897) rotate(177.446)" fill="#e1ded5" font-size="230" font-family="GrotzecPoster-CondensedBold, Grotzec Poster" font-weight="700"><tspan x="0" y="0"> </tspan></text>
        <text id="_15" data-name=" " transform="translate(1419.148 1548.374) rotate(178.415)" fill="#e1ded5" font-size="230" font-family="GrotzecPoster-CondensedBold, Grotzec Poster" font-weight="700"><tspan x="0" y="0"> </tspan></text>
        <text id="R-6" data-name="R" transform="translate(1386.404 1550.017) rotate(-179.454)" fill="#e1ded5" font-size="230" font-family="GrotzecPoster-CondensedBold, Grotzec Poster" font-weight="700"><tspan x="0" y="0">R</tspan></text>
        <text id="E-6" data-name="E" transform="matrix(-0.999, -0.05, 0.05, -0.999, 1289.031, 1549.138)" fill="#e1ded5" font-size="230" font-family="GrotzecPoster-CondensedBold, Grotzec Poster" font-weight="700"><tspan x="0" y="0">E</tspan></text>
        <text id="A-6" data-name="A" transform="translate(1207.301 1545.397) rotate(-174.26)" fill="#e1ded5" font-size="230" font-family="GrotzecPoster-CondensedBold, Grotzec Poster" font-weight="700"><tspan x="0" y="0">A</tspan></text>
      </g>
    </g>
    <text id="C-6" data-name="C" transform="translate(1103.093 1534.847) rotate(-171.34)" fill="#e1ded5" font-size="230" font-family="GrotzecPoster-CondensedBold, Grotzec Poster" font-weight="700"><tspan x="0" y="0">C</tspan></text>
    <text id="H-6" data-name="H" transform="matrix(-0.979, -0.202, 0.202, -0.979, 1012.742, 1521.165)" fill="#e1ded5" font-size="230" font-family="GrotzecPoster-CondensedBold, Grotzec Poster" font-weight="700"><tspan x="0" y="0">H</tspan></text>
    <text id="_16" data-name=" " transform="matrix(-0.971, -0.239, 0.239, -0.971, 918.816, 1501.176)" fill="#e1ded5" font-size="230" font-family="GrotzecPoster-CondensedBold, Grotzec Poster" font-weight="700"><tspan x="0" y="0"> </tspan></text>
    <text id="O-6" data-name="O" transform="translate(887.061 1494.013) rotate(-163.928)" fill="#e1ded5" font-size="230" font-family="GrotzecPoster-CondensedBold, Grotzec Poster" font-weight="700"><tspan x="0" y="0">O</tspan></text>
    <text id="U-6" data-name="U" transform="translate(795.604 1467.632) rotate(-160.472)" fill="#e1ded5" font-size="230" font-family="GrotzecPoster-CondensedBold, Grotzec Poster" font-weight="700"><tspan x="0" y="0">U</tspan></text>
    <text id="T-6" data-name="T" transform="translate(711.226 1437.852) rotate(-156.732)" fill="#e1ded5" font-size="230" font-family="GrotzecPoster-CondensedBold, Grotzec Poster" font-weight="700"><tspan x="0" y="0">T</tspan></text>
    <text id="_17" data-name=" " transform="translate(624.957 1399.948) rotate(-153.912)" fill="#e1ded5" font-size="230" font-family="GrotzecPoster-CondensedBold, Grotzec Poster" font-weight="700"><tspan x="0" y="0"> </tspan></text>
    <text id="_18" data-name=" " transform="matrix(-0.886, -0.464, 0.464, -0.886, 595.356, 1385.447)" fill="#e1ded5" font-size="230" font-family="GrotzecPoster-CondensedBold, Grotzec Poster" font-weight="700"><tspan x="0" y="0"> </tspan></text>
    <text id="R-7" data-name="R" transform="translate(566.689 1371.522) rotate(-149.073)" fill="#e1ded5" font-size="230" font-family="GrotzecPoster-CondensedBold, Grotzec Poster" font-weight="700"><tspan x="0" y="0">R</tspan></text>
    <text id="E-7" data-name="E" transform="matrix(-0.809, -0.588, 0.588, -0.809, 484.644, 1322.16)" fill="#e1ded5" font-size="230" font-family="GrotzecPoster-CondensedBold, Grotzec Poster" font-weight="700"><tspan x="0" y="0">E</tspan></text>
    <text id="A-7" data-name="A" transform="matrix(-0.739, -0.673, 0.673, -0.739, 419.637, 1276.311)" fill="#e1ded5" font-size="230" font-family="GrotzecPoster-CondensedBold, Grotzec Poster" font-weight="700"><tspan x="0" y="0">A</tspan></text>
    <text id="C-7" data-name="C" transform="matrix(-0.645, -0.764, 0.764, -0.645, 344.298, 1207.895)" fill="#e1ded5" font-size="230" font-family="GrotzecPoster-CondensedBold, Grotzec Poster" font-weight="700"><tspan x="0" y="0">C</tspan></text>
    <text id="H-7" data-name="H" transform="translate(287.285 1141.409) rotate(-121.33)" fill="#e1ded5" font-size="230" font-family="GrotzecPoster-CondensedBold, Grotzec Poster" font-weight="700"><tspan x="0" y="0">H</tspan></text>
    <text id="_19" data-name=" " transform="matrix(-0.412, -0.911, 0.911, -0.412, 240.529, 1061.347)" fill="#e1ded5" font-size="230" font-family="GrotzecPoster-CondensedBold, Grotzec Poster" font-weight="700"><tspan x="0" y="0"> </tspan></text>
    <text id="O-7" data-name="O" transform="translate(226.36 1035.853) rotate(-106.582)" fill="#e1ded5" font-size="230" font-family="GrotzecPoster-CondensedBold, Grotzec Poster" font-weight="700"><tspan x="0" y="0">O</tspan></text>
    <g id="Group_4819" data-name="Group 4819">
      <g id="Group_4818" data-name="Group 4818" clip-path="url(#clip-path)">
        <text id="U-7" data-name="U" transform="translate(200.348 950.009) rotate(-94.605)" fill="#e1ded5" font-size="230" font-family="GrotzecPoster-CondensedBold, Grotzec Poster" font-weight="700"><tspan x="0" y="0">U</tspan></text>
        <text id="T-7" data-name="T" transform="matrix(0.131, -0.991, 0.991, 0.131, 192.74, 866.177)" fill="#e1ded5" font-size="230" font-family="GrotzecPoster-CondensedBold, Grotzec Poster" font-weight="700"><tspan x="0" y="0">T</tspan></text>
      </g>
    </g>
  </g>
</svg>
