<svg xmlns="http://www.w3.org/2000/svg" xmlns:xlink="http://www.w3.org/1999/xlink" width="2241.358" height="36.278" viewBox="0 0 2241.358 36.278"><defs><style>.a{fill:none;}.b{clip-path:url(#a);}.c{fill:#fff;}</style><clipPath id="a"><rect class="a" width="2241.358" height="36.278"/></clipPath></defs><g class="b"><g transform="translate(-101.629 -1028.437)"><path class="c" d="M112.1,1064.715l59.364-36.278,59.364,36.278Z" transform="translate(42.296 0)"/><path class="c" d="M101.628,1064.715l59.364-36.278,59.364,36.278Z" transform="translate(0 0)"/><path class="c" d="M135.01,1064.715l59.364-36.278,59.364,36.278Z" transform="translate(134.817 0)"/><path class="c" d="M124.537,1064.715l59.364-36.278,59.364,36.278Z" transform="translate(92.522 0)"/><path class="c" d="M157.919,1064.715l59.364-36.278,59.364,36.278Z" transform="translate(227.339 0)"/><path class="c" d="M147.446,1064.715l59.364-36.278,59.365,36.278Z" transform="translate(185.043 0)"/></g><g transform="translate(252.371 -1028.437)"><path class="c" d="M112.1,1064.715l59.364-36.278,59.364,36.278Z" transform="translate(42.296 0)"/><path class="c" d="M101.628,1064.715l59.364-36.278,59.364,36.278Z" transform="translate(0 0)"/><path class="c" d="M135.01,1064.715l59.364-36.278,59.364,36.278Z" transform="translate(134.817 0)"/><path class="c" d="M124.537,1064.715l59.364-36.278,59.364,36.278Z" transform="translate(92.522 0)"/><path class="c" d="M157.919,1064.715l59.364-36.278,59.364,36.278Z" transform="translate(227.339 0)"/><path class="c" d="M147.446,1064.715l59.364-36.278,59.365,36.278Z" transform="translate(185.043 0)"/></g><g transform="translate(606.371 -1028.437)"><path class="c" d="M112.1,1064.715l59.364-36.278,59.364,36.278Z" transform="translate(42.296 0)"/><path class="c" d="M101.628,1064.715l59.364-36.278,59.364,36.278Z" transform="translate(0 0)"/><path class="c" d="M135.01,1064.715l59.364-36.278,59.364,36.278Z" transform="translate(134.817 0)"/><path class="c" d="M124.537,1064.715l59.364-36.278,59.364,36.278Z" transform="translate(92.522 0)"/><path class="c" d="M157.919,1064.715l59.364-36.278,59.364,36.278Z" transform="translate(227.339 0)"/><path class="c" d="M147.446,1064.715l59.364-36.278,59.365,36.278Z" transform="translate(185.043 0)"/></g><g transform="translate(960.371 -1028.437)"><path class="c" d="M112.1,1064.715l59.364-36.278,59.364,36.278Z" transform="translate(42.296 0)"/><path class="c" d="M101.628,1064.715l59.364-36.278,59.364,36.278Z" transform="translate(0 0)"/><path class="c" d="M135.01,1064.715l59.364-36.278,59.364,36.278Z" transform="translate(134.817 0)"/><path class="c" d="M124.537,1064.715l59.364-36.278,59.364,36.278Z" transform="translate(92.522 0)"/><path class="c" d="M157.919,1064.715l59.364-36.278,59.364,36.278Z" transform="translate(227.339 0)"/><path class="c" d="M147.446,1064.715l59.364-36.278,59.365,36.278Z" transform="translate(185.043 0)"/></g><g transform="translate(1314.371 -1028.437)"><path class="c" d="M112.1,1064.715l59.364-36.278,59.364,36.278Z" transform="translate(42.296 0)"/><path class="c" d="M101.628,1064.715l59.364-36.278,59.364,36.278Z" transform="translate(0 0)"/><path class="c" d="M135.01,1064.715l59.364-36.278,59.364,36.278Z" transform="translate(134.817 0)"/><path class="c" d="M124.537,1064.715l59.364-36.278,59.364,36.278Z" transform="translate(92.522 0)"/><path class="c" d="M157.919,1064.715l59.364-36.278,59.364,36.278Z" transform="translate(227.339 0)"/><path class="c" d="M147.446,1064.715l59.364-36.278,59.365,36.278Z" transform="translate(185.043 0)"/></g><g transform="translate(1668.371 -1028.437)"><path class="c" d="M112.1,1064.715l59.364-36.278,59.364,36.278Z" transform="translate(42.296 0)"/><path class="c" d="M101.628,1064.715l59.364-36.278,59.364,36.278Z" transform="translate(0 0)"/><path class="c" d="M135.01,1064.715l59.364-36.278,59.364,36.278Z" transform="translate(134.817 0)"/><path class="c" d="M124.537,1064.715l59.364-36.278,59.364,36.278Z" transform="translate(92.522 0)"/><path class="c" d="M157.919,1064.715l59.364-36.278,59.364,36.278Z" transform="translate(227.339 0)"/><path class="c" d="M147.446,1064.715l59.364-36.278,59.365,36.278Z" transform="translate(185.043 0)"/></g><g transform="translate(2022.371 -1028.437)"><path class="c" d="M112.1,1064.715l59.364-36.278,59.364,36.278Z" transform="translate(42.296 0)"/><path class="c" d="M101.628,1064.715l59.364-36.278,59.364,36.278Z" transform="translate(0 0)"/><path class="c" d="M135.01,1064.715l59.364-36.278,59.364,36.278Z" transform="translate(134.817 0)"/><path class="c" d="M124.537,1064.715l59.364-36.278,59.364,36.278Z" transform="translate(92.522 0)"/><path class="c" d="M157.919,1064.715l59.364-36.278,59.364,36.278Z" transform="translate(227.339 0)"/><path class="c" d="M147.446,1064.715l59.364-36.278,59.365,36.278Z" transform="translate(185.043 0)"/></g></g></svg>